<?xml version="1.0"?>
<svg xmlns="http://www.w3.org/2000/svg" id="Layer_1" data-name="Layer 1" viewBox="0 0 512 512" width="512" height="512"><title>Automobile Services</title><path d="M128.4,156.264c.073-.131.142-.266.207-.4,6.334-13.312,20.286-35.668,42.557-35.831l188.071-1.387s7.175-17.14-2.446-19.736a31.049,31.049,0,0,0-8.141-1.057h-.25L150.447,99.311c-22.271.164-36.223,22.519-42.557,35.831-.065.136-.134.271-.207.4L73.744,196.736l32.344-.239Z" style="fill:#d4e1f4"/><path d="M71.033,346.68A13.161,13.161,0,0,1,67.25,337.5a7.784,7.784,0,0,0-.064-.94L54.9,241.889c.046-15.541,8.14-26.351,17.969-30.643l-11.433.085h-.053a7.246,7.246,0,0,1-1.182-.109c-13.034.87-25.963,12.583-26.021,31.614L46.466,334.5a7.3,7.3,0,0,1,.064.91,12.693,12.693,0,0,0,12.632,12.541h.094l13.115-.1A13.041,13.041,0,0,1,71.033,346.68Z" style="fill:#d4e1f4"/><path d="M295,210a7,7,0,0,0,7-7,33,33,0,0,1,66,0,7,7,0,0,0,14,0,47,47,0,0,0-94,0A7,7,0,0,0,295,210Z" style="fill:#1ae5be"/><path d="M96.689,131.445l-16.3,28.879c-7.88-.015-25.393-.049-35.064-.049-15.881,0-28.788,7.938-32.883,20.223a71.408,71.408,0,0,0-3.438,17.313A7,7,0,0,0,16,205.148h.009l24.272-.031C29.7,213.17,22.892,226.624,22.892,242.16a6.973,6.973,0,0,0,.055.879l11.276,89.077A26.334,26.334,0,0,0,56.08,357.555v28.528A16.666,16.666,0,0,0,72.728,402.73h29.3a16.666,16.666,0,0,0,16.648-16.647V357.937H388.826a7,7,0,0,0,0-14H60.514a12.309,12.309,0,0,1-12.3-12.3,6.974,6.974,0,0,0-.056-.879L36.894,241.735c.191-18.492,12.842-29.779,25.515-30.527a6.949,6.949,0,0,0,1.193.115H401.5a7,7,0,0,0,0-14H75.589l33.4-59.184c.071-.127.139-.256.2-.386,6.245-12.879,19.952-34.483,41.581-34.483h192.08a29.684,29.684,0,0,1,10.734,1.941,7,7,0,0,0,4.971-13.088,44.057,44.057,0,0,0-15.7-2.853H150.771C129.138,89.27,109.938,104.246,96.689,131.445ZM70.08,357.937h34.591v28.146a2.65,2.65,0,0,1-2.648,2.647H72.728a2.65,2.65,0,0,1-2.648-2.647ZM63.033,191.088l-38.975.05a56.371,56.371,0,0,1,1.67-6.212c2.123-6.37,10-10.651,19.6-10.651,7.128,0,18.523.018,27.172.034Z" style="fill:#0635c9"/><path d="M62.414,276.8a27,27,0,1,0,27-27A27.029,27.029,0,0,0,62.414,276.8Zm40,0a13,13,0,1,1-13-13A13.013,13.013,0,0,1,102.409,276.8Z" style="fill:#0635c9"/><path d="M402.588,263.805v-14a27,27,0,0,0,0,54v-14a13,13,0,0,1,0-26Z" style="fill:#0635c9"/><path d="M134.607,302.288a7,7,0,1,0,0,14H363.063a7,7,0,0,0,0-14Z" style="fill:#0635c9"/><path d="M344.309,288.667a7,7,0,0,0,.935-6.33l-6.387-18.779c-4.388-12.906-18.5-23.015-32.135-23.015H184.775c-13.667,0-27.7,10.177-31.939,23.169l-6.107,18.706a7,7,0,0,0,6.654,9.173H338.617A7,7,0,0,0,344.309,288.667ZM163.032,277.591l3.113-9.533c2.351-7.2,11.057-13.515,18.63-13.515H306.722c7.608,0,16.431,6.319,18.882,13.522l3.239,9.526Z" style="fill:#1ae5be"/><path d="M503,101.781a76.639,76.639,0,0,0-42.652-68.933A7,7,0,0,0,450.22,39.11v36.4L426.287,91.445,401.765,74.289l.12-35.2a7.008,7.008,0,0,0-10.124-6.3A76.611,76.611,0,0,0,349,101.781a77.394,77.394,0,0,0,45.5,70.28V339.939a77.029,77.029,0,0,0-2.848,139.213,7,7,0,0,0,10.128-6.262v-36.4l23.933-15.938,24.522,17.156-.12,35.2a7.006,7.006,0,0,0,10.124,6.3A76.611,76.611,0,0,0,503,410.219a77.394,77.394,0,0,0-45.5-70.28V172.061A77.394,77.394,0,0,0,503,101.781Zm-54.949,249.4A63.284,63.284,0,0,1,489,410.219a62.623,62.623,0,0,1-24.842,50.166l.09-26.287a7,7,0,0,0-2.987-5.759l-31.438-21.994a7,7,0,0,0-7.892-.091L390.9,426.918a7,7,0,0,0-3.12,5.826v27.591A62.644,62.644,0,0,1,363,410.219a63.284,63.284,0,0,1,40.949-59.033,7,7,0,0,0,4.551-6.558V167.372a7,7,0,0,0-4.551-6.558A63.284,63.284,0,0,1,363,101.781a62.623,62.623,0,0,1,24.842-50.166l-.09,26.287a7,7,0,0,0,2.987,5.759l31.438,21.994a6.994,6.994,0,0,0,7.892.091L461.1,85.082a7,7,0,0,0,3.12-5.826V51.665A62.644,62.644,0,0,1,489,101.781a63.284,63.284,0,0,1-40.949,59.033,7,7,0,0,0-4.551,6.558V344.628A7,7,0,0,0,448.051,351.186Z" style="fill:#1ae5be"/></svg>
