<?xml version="1.0"?>
<svg xmlns="http://www.w3.org/2000/svg" id="Layer_1" data-name="Layer 1" viewBox="0 0 512 512" width="512" height="512"><title>Battery </title><path d="M106.5,381.25a3,3,0,0,1-3-3v-222h-27a3,3,0,0,0-3,3v249a3,3,0,0,0,3,3h359a3,3,0,0,0,3-3v-27Z" style="fill:#d4e1f4"/><path d="M76.5,425.25h359a17.019,17.019,0,0,0,17-17v-249a17.019,17.019,0,0,0-17-17h-13v-21.5a7,7,0,0,0-7-7h-18v-20a7,7,0,0,0-14,0v20h-18a7,7,0,0,0-7,7v21.5h-9.17a3,3,0,0,1-3-3v-20a17.019,17.019,0,0,0-17-17H182.67a17.019,17.019,0,0,0-17,17v20a3,3,0,0,1-3,3H153.5v-21.5a7,7,0,0,0-7-7h-18v-20a7,7,0,0,0-14,0v20h-18a7,7,0,0,0-7,7v21.5h-13a17.019,17.019,0,0,0-17,17v249A17.019,17.019,0,0,0,76.5,425.25Zm296-297.5h36v14.5h-36Zm-269,0h36v14.5h-36Zm-30,31.5a3,3,0,0,1,3-3h86.17a17.019,17.019,0,0,0,17-17v-20a3,3,0,0,1,3-3H329.33a3,3,0,0,1,3,3v20a17.019,17.019,0,0,0,17,17H435.5a3,3,0,0,1,3,3v249a3,3,0,0,1-3,3H76.5a3,3,0,0,1-3-3Z" style="fill:#0635c9"/><path d="M415.5,201.75h-50a7,7,0,0,0,0,14h50a7,7,0,0,0,0-14Z" style="fill:#1ae5be"/><path d="M121.5,176.75a7,7,0,0,0-7,7v18h-18a7,7,0,0,0,0,14h18v18a7,7,0,0,0,14,0v-18h18a7,7,0,0,0,0-14h-18v-18A7,7,0,0,0,121.5,176.75Z" style="fill:#1ae5be"/></svg>
