<?xml version="1.0"?>
<svg xmlns="http://www.w3.org/2000/svg" id="Layer_1" data-name="Layer 1" viewBox="0 0 512 512" width="512" height="512"><title>Car Battery </title><path d="M106.5,377.75a3,3,0,0,1-3-3v-232h-27a3,3,0,0,0-3,3v249a3,3,0,0,0,3,3h359a3,3,0,0,0,3-3v-17Z" style="fill:#d4e1f4"/><path d="M435.5,128.75h-13v-14.5h3a7,7,0,0,0,0-14h-70a7,7,0,0,0,0,14h3v14.5h-205v-14.5h3a7,7,0,0,0,0-14h-70a7,7,0,0,0,0,14h3v14.5h-13a17.019,17.019,0,0,0-17,17v249a17.019,17.019,0,0,0,17,17h359a17.019,17.019,0,0,0,17-17v-249A17.019,17.019,0,0,0,435.5,128.75Zm-63-14.5h36v14.5h-36Zm-269,0h36v14.5h-36Zm335,280.5a3,3,0,0,1-3,3H76.5a3,3,0,0,1-3-3v-249a3,3,0,0,1,3-3h359a3,3,0,0,1,3,3Z" style="fill:#0635c9"/><path d="M300.567,217.694a7,7,0,0,0-7.6-1l-27.357,13.142,17.081-55.782A7,7,0,0,0,276,165H236a7,7,0,0,0-6.909,5.877l-20,123a7,7,0,0,0,10.039,7.384L249,286.326V353a7,7,0,0,0,13.69,2.059l40-130A7,7,0,0,0,300.567,217.694ZM263,306.447V275a7,7,0,0,0-10.13-6.261l-27.765,13.882L241.954,179h24.582l-18.989,62.011a7,7,0,0,0,9.724,8.359L284.6,236.241Z" style="fill:#1ae5be"/></svg>
