<?xml version="1.0"?>
<svg xmlns="http://www.w3.org/2000/svg" id="Layer_1" data-name="Layer 1" viewBox="0 0 512 512" width="512" height="512"><title>Car bill</title><path d="M153.766,278.177c.063-.113.122-.228.177-.344,5.43-11.411,17.389-30.573,36.478-30.713L360.1,245.869h.215A26.426,26.426,0,0,1,373,249.057c-9.869-14.549-19.308-20.948-30.45-20.948h-.214L172.661,229.36c-19.089.14-31.048,19.3-36.478,30.713-.055.116-.114.231-.177.344l-29.09,52.45,27.723-.2Z" style="fill:#d4e1f4"/><path d="M104.592,441.391a11.281,11.281,0,0,1-3.243-7.869,6.573,6.573,0,0,0-.055-.806L90.76,351.57c.039-13.321,6.978-22.587,15.4-26.265l-9.8.072h-.045a6.185,6.185,0,0,1-1.013-.093c-11.172.746-22.254,10.786-22.3,27.1l10.534,78.566a6.171,6.171,0,0,1,.055.78,10.882,10.882,0,0,0,10.827,10.75H94.5l11.242-.083A11.04,11.04,0,0,1,104.592,441.391Z" style="fill:#d4e1f4"/><path d="M120.342,357.184h-.182a24.39,24.39,0,0,0,.173,48.78h.186a24.417,24.417,0,0,0,24.21-24.568h0A24.418,24.418,0,0,0,120.342,357.184Zm.074,34.779a10.39,10.39,0,1,1-.153-20.779h.078a10.39,10.39,0,0,1,.075,20.779Z" style="fill:#0635c9"/><path d="M392.669,355.177h-.182a24.39,24.39,0,0,0,.174,48.78h.186a24.39,24.39,0,0,0-.178-48.779Zm10.388,24.313a10.39,10.39,0,0,1-10.313,10.466h-.079a10.39,10.39,0,0,1-.075-20.78h.078a10.4,10.4,0,0,1,10.389,10.312Z" style="fill:#0635c9"/><path d="M306.038,411.471h-.053l-98.5.725a7,7,0,0,0,.051,14h.053l98.5-.725a7,7,0,0,0-.051-14Z" style="fill:#0635c9"/><path d="M256,198.883a89.446,89.446,0,1,0-78.373-46.26A89.59,89.59,0,0,0,256,198.883ZM256,33.9a75.515,75.515,0,1,1-75.489,75.49A75.575,75.575,0,0,1,256,33.9Z" style="fill:#0635c9"/><path d="M333.114,274.041a41.831,41.831,0,0,0-41.474,42.091,7,7,0,0,0,7,6.948h.052a7,7,0,0,0,6.949-7.052,27.783,27.783,0,1,1,55.565-.409,7,7,0,0,0,14-.1A41.844,41.844,0,0,0,333.114,274.041Z" style="fill:#1ae5be"/><path d="M211.963,359.131h-.053a7,7,0,0,0-6.948,7.052l.118,16.025a7,7,0,0,0,7,6.948h.053a7,7,0,0,0,6.948-7.052l-.118-16.025A7,7,0,0,0,211.963,359.131Z" style="fill:#1ae5be"/><path d="M182.282,359.35h-.053a7,7,0,0,0-6.948,7.051l.118,16.025a7,7,0,0,0,7,6.948h.053a7,7,0,0,0,6.948-7.052l-.118-16.024A7,7,0,0,0,182.282,359.35Z" style="fill:#1ae5be"/><path d="M330.687,358.256h-.053a7,7,0,0,0-6.948,7.052l.118,16.025a7,7,0,0,0,7,6.948h.052a7,7,0,0,0,6.949-7.052l-.118-16.025A7,7,0,0,0,330.687,358.256Z" style="fill:#1ae5be"/><path d="M241.591,358.912a7,7,0,0,0-6.948,7.052l.118,16.025a7,7,0,0,0,7,6.949h.052a7,7,0,0,0,6.949-7.052l-.118-16.026A7.006,7.006,0,0,0,241.591,358.912Z" style="fill:#1ae5be"/><path d="M271.324,358.693h-.053a7,7,0,0,0-6.948,7.052l.118,16.026a7,7,0,0,0,7,6.948h.053a7,7,0,0,0,6.948-7.052l-.118-16.025A7,7,0,0,0,271.324,358.693Z" style="fill:#1ae5be"/><path d="M300.953,358.475a7,7,0,0,0-6.948,7.051l.118,16.026a7,7,0,0,0,7,6.948h.053a7,7,0,0,0,6.948-7.052l-.118-16.025A6.994,6.994,0,0,0,300.953,358.475Z" style="fill:#1ae5be"/><path d="M256,71.308A16.907,16.907,0,0,1,272.888,88.2a7,7,0,0,0,14,0A30.937,30.937,0,0,0,263,58.117V51.183a7,7,0,1,0-14,0v6.934a30.885,30.885,0,0,0,7,60.967,16.884,16.884,0,0,1,.174,33.767c-.059,0-.115-.009-.174-.009s-.115.007-.174.009a16.9,16.9,0,0,1-16.714-16.879,7,7,0,0,0-14,0A30.936,30.936,0,0,0,249,166.05v8.021a7,7,0,1,0,14,0V166.05a30.884,30.884,0,0,0-7-60.966,16.888,16.888,0,0,1,0-33.776Z" style="fill:#1ae5be"/><path d="M459.841,295.035c-3.74-10.953-15.216-17.993-29.284-17.993h-.31c-8.089.06-22.59.116-29.681.141l-13.5-24.461c-9.72-17.131-23.864-36.76-47.24-36.76h-.308L172.488,217.2c-19.173.142-36.057,13.461-47.562,37.515l-13.713,24.726c-7.083.038-21.761.118-29.958.179-14.209.105-25.721,7.337-29.327,18.427a63.1,63.1,0,0,0-2.922,15.32A7,7,0,0,0,56,320.648h.061l18.542-.16c-8.208,7.341-13.335,18.593-13.242,31.395a6.994,6.994,0,0,0,.063.879L71.794,430.1a23.862,23.862,0,0,0,19.173,22.68l.177,24.041A15.389,15.389,0,0,0,106.529,492.1h.117l25.475-.188a15.406,15.406,0,0,0,15.275-15.5l-.173-23.562,219.614-1.618.174,23.562A15.391,15.391,0,0,0,382.4,490.063h.117l25.475-.188a15.408,15.408,0,0,0,15.276-15.5l-.179-24.142a23.845,23.845,0,0,0,18.4-22.835l9.66-77.468a6.88,6.88,0,0,0,.054-.917,41.815,41.815,0,0,0-10.326-27.478,37.927,37.927,0,0,0-3.758-3.685l18.938-.147a7,7,0,0,0,6.935-7.389A63.077,63.077,0,0,0,459.841,295.035ZM137.272,261.313c.072-.126.138-.256.2-.387,5.257-11.046,16.809-29.6,35.12-29.731l167.025-1.231h.2c12.776,0,23.275,8.889,35.026,29.6L402.4,309.466l-293.029,2.159ZM64.093,306.578c.3-1.322.674-2.747,1.149-4.207,1.684-5.179,8.16-8.7,16.115-8.756,5.779-.043,14.78-.1,22.067-.136L96.312,306.3Zm67.925,171.33-25.475.188h-.011a1.391,1.391,0,0,1-1.388-1.379l-.174-23.562,28.253-.209.173,23.563A1.39,1.39,0,0,1,132.018,477.908Zm275.867-2.033-25.476.188H382.4a1.391,1.391,0,0,1-1.387-1.379l-.174-23.562,28.253-.208.174,23.563A1.39,1.39,0,0,1,407.885,475.875Zm29.309-127.2-9.652,77.4a7.046,7.046,0,0,0-.054.918,9.827,9.827,0,0,1-9.706,9.85L95.635,439.223a9.815,9.815,0,0,1-6.921-2.827,9.7,9.7,0,0,1-2.929-6.878,7.009,7.009,0,0,0-.062-.88L75.361,351.361c.083-12.283,7.86-24.889,21-25.74a6.985,6.985,0,0,0,1.076.092h.051l316.532-2.332c.046,0,.091.007.138.007h.209a21.25,21.25,0,0,1,16.03,7.427A28.172,28.172,0,0,1,437.194,348.678ZM415.38,304.015l-7.1-12.86c7.283-.029,16.3-.069,22.071-.112h.2c7.864,0,14.3,3.409,16.043,8.519.5,1.459.9,2.882,1.214,4.2Z" style="fill:#0635c9"/></svg>
