<?xml version="1.0"?>
<svg xmlns="http://www.w3.org/2000/svg" id="Layer_1" data-name="Layer 1" viewBox="0 0 512 512" width="512" height="512"><title>Car Cleaning</title><path d="M138.094,241.559c.071-.127.137-.257.2-.388,6.115-12.85,19.582-34.429,41.079-34.587l191.076-1.408h.242a29.761,29.761,0,0,1,14.29,3.59c-11.114-16.384-21.743-23.59-34.29-23.59h-.242l-191.076,1.408c-21.5.158-34.964,21.737-41.079,34.587-.062.131-.128.261-.2.388l-32.76,59.065,31.22-.23Z" style="fill:#d4e1f4"/><path d="M82.717,425.359a12.7,12.7,0,0,1-3.652-8.862,7.664,7.664,0,0,0-.061-.908l-11.863-91.38c.044-15,7.857-25.436,17.345-29.578l-11.036.081H73.4a6.976,6.976,0,0,1-1.141-.1c-12.581.84-25.061,12.146-25.116,30.516L59,413.6a7.185,7.185,0,0,1,.061.879,12.253,12.253,0,0,0,12.193,12.105h.091l12.66-.093A12.591,12.591,0,0,1,82.717,425.359Z" style="fill:#d4e1f4"/><path d="M99.411,333.288a27,27,0,1,0,27,27A27.028,27.028,0,0,0,99.411,333.288Zm0,40a13,13,0,1,1,13-13A13.013,13.013,0,0,1,99.411,373.284Z" style="fill:#0635c9"/><path d="M412.588,333.288a27,27,0,1,0,27,27A27.028,27.028,0,0,0,412.588,333.288Zm0,40a13,13,0,1,1,13-13A13.012,13.012,0,0,1,412.588,373.284Z" style="fill:#0635c9"/><path d="M456.671,243.758c-9.548,0-26.859-.062-34.758-.092L406.3,214.886c-10.941-19.617-26.9-42.134-53.449-42.134H160.771c-21.633,0-40.833,14.977-54.081,42.176l-16.3,28.879c-7.879-.016-25.393-.049-35.064-.049-15.881,0-28.788,7.938-32.883,20.223a71.4,71.4,0,0,0-3.438,17.313A7,7,0,0,0,26,288.631h.009l24.272-.031c-10.578,8.053-17.389,21.507-17.389,37.043a6.985,6.985,0,0,0,.055.879L44.223,415.6A26.334,26.334,0,0,0,66.08,441.038v28.528a16.666,16.666,0,0,0,16.648,16.647h29.3a16.666,16.666,0,0,0,16.648-16.647V441.419H383.327v28.147a16.666,16.666,0,0,0,16.648,16.647h29.3a16.666,16.666,0,0,0,16.647-16.647V440.949a26.336,26.336,0,0,0,21.356-25.329l11.772-89.059a7.052,7.052,0,0,0,.06-.918c0-15.351-7.144-28.92-18.008-37l24.9-.009a7,7,0,0,0,6.99-7.337,71.4,71.4,0,0,0-3.438-17.313C485.459,251.7,472.552,243.758,456.671,243.758ZM118.988,221.622c.071-.127.139-.256.2-.387,6.245-12.878,19.952-34.483,41.581-34.483h192.08c15.23,0,27.558,10.454,41.183,34.881l32.1,59.173H391.645a46.988,46.988,0,0,0-93.29,0H85.589ZM377.5,280.806h-65a32.992,32.992,0,0,1,65,0ZM34.058,274.621a56.5,56.5,0,0,1,1.67-6.213c2.123-6.37,10-10.65,19.6-10.65,7.128,0,18.523.018,27.172.034l-9.468,16.779Zm80.613,194.945a2.65,2.65,0,0,1-2.648,2.647H82.728a2.65,2.65,0,0,1-2.648-2.647V441.419h34.591Zm317.247,0a2.65,2.65,0,0,1-2.647,2.647h-29.3a2.65,2.65,0,0,1-2.648-2.647V441.419h34.591ZM465.1,325.2l-11.765,89a6.871,6.871,0,0,0-.061.918,12.308,12.308,0,0,1-12.3,12.294H70.514a12.308,12.308,0,0,1-12.295-12.294,6.974,6.974,0,0,0-.056-.879L46.894,325.222c.178-14.688,9.658-29.719,25.5-30.534a6.915,6.915,0,0,0,1.207.118H437.64c.065,0,.128.01.193.01C452.742,294.816,464.894,308.408,465.1,325.2Zm-26.383-50.555-9.2-16.954c8.635.03,20.037.064,27.148.064,9.6,0,17.478,4.28,19.6,10.651a56.093,56.093,0,0,1,1.672,6.225Z" style="fill:#0635c9"/><path d="M163.383,375.074H348.617a7,7,0,0,0,6.628-9.254l-6.387-18.779c-4.39-12.906-18.5-23.015-32.136-23.015H194.775c-13.667,0-27.7,10.177-31.939,23.169L156.729,365.9a7,7,0,0,0,6.654,9.173Zm12.762-23.533c2.351-7.2,11.057-13.515,18.63-13.515H316.722c7.608,0,16.431,6.319,18.881,13.522l3.24,9.526H173.032Z" style="fill:#0635c9"/><path d="M373.063,385.771H144.607a7,7,0,0,0,0,14H373.063a7,7,0,0,0,0-14Z" style="fill:#0635c9"/><path d="M285.509,128.583,272.04,105.589a7,7,0,0,0-12.08,0l-13.469,22.994a22.61,22.61,0,1,0,39.018,0ZM272.088,146.1a8.61,8.61,0,0,1-13.517-10.44L266,122.977l7.429,12.682A8.614,8.614,0,0,1,272.088,146.1Z" style="fill:#1ae5be"/><path d="M191.61,162.61a22.6,22.6,0,0,0,19.51-34.027l-13.47-22.994a7,7,0,0,0-12.08,0L172.1,128.583A22.6,22.6,0,0,0,191.61,162.61Zm-7.429-26.951,7.429-12.682,7.43,12.682a8.61,8.61,0,1,1-14.859,0Z" style="fill:#1ae5be"/><path d="M340.39,162.61A22.6,22.6,0,0,0,359.9,128.583L346.43,105.589a7,7,0,0,0-12.08,0l-13.47,22.994a22.6,22.6,0,0,0,19.51,34.027Zm-7.43-26.951,7.43-12.682,7.429,12.682a8.61,8.61,0,1,1-14.859,0Z" style="fill:#1ae5be"/><path d="M241.349,79.658a22.62,22.62,0,0,0,3.521-27.416L231.4,29.249a7,7,0,0,0-12.08,0L205.851,52.242a22.613,22.613,0,0,0,35.5,27.416Zm-22.077-9.9a8.614,8.614,0,0,1-1.341-10.44l7.429-12.682,7.43,12.682a8.61,8.61,0,0,1-13.518,10.44Z" style="fill:#1ae5be"/><path d="M306.64,86.27a22.6,22.6,0,0,0,19.509-34.028L312.68,29.249a7,7,0,0,0-12.08,0L287.13,52.242A22.6,22.6,0,0,0,306.64,86.27Zm-7.43-26.952,7.43-12.682,7.429,12.682a8.61,8.61,0,1,1-14.859,0Z" style="fill:#1ae5be"/></svg>
