<?xml version="1.0"?>
<svg xmlns="http://www.w3.org/2000/svg" id="Layer_1" data-name="Layer 1" viewBox="0 0 512 512" width="512" height="512"><title>Car lift 2</title><path d="M149.151,81.169c.067-.12.129-.243.189-.367,5.791-12.171,18.547-32.611,38.909-32.761l180.986-1.333h.229A28.187,28.187,0,0,1,383,50.108c-10.527-15.519-20.6-22.345-32.48-22.345h-.229L169.305,29.1c-20.362.149-33.118,20.589-38.909,32.76-.059.124-.122.247-.189.367l-31.03,55.947,29.572-.218Z" style="fill:#d4e1f4"/><path d="M96.7,255.264a12.035,12.035,0,0,1-3.459-8.394,7.292,7.292,0,0,0-.058-.86L81.944,159.455c.042-14.209,7.443-24.093,16.429-28.016l-10.453.077h-.049a6.673,6.673,0,0,1-1.08-.1c-11.917.795-23.738,11.5-23.791,28.9l11.237,83.8a6.621,6.621,0,0,1,.058.832,11.608,11.608,0,0,0,11.549,11.467h.087l11.99-.089A11.948,11.948,0,0,1,96.7,255.264Z" style="fill:#d4e1f4"/><path d="M363,317.81v-30a7,7,0,0,0-7-7H156a7,7,0,0,0-7,7v30a7,7,0,0,0,7,7H356A7,7,0,0,0,363,317.81Zm-14-7H163v-16H349Z" style="fill:#0635c9"/><path d="M306,452.81H206a7,7,0,1,0,0,14H306a7,7,0,0,0,0-14Z" style="fill:#0635c9"/><path d="M306,396.81H206a7,7,0,1,0,0,14H306a7,7,0,0,0,0-14Z" style="fill:#0635c9"/><path d="M306,340.81H206a7,7,0,1,0,0,14H306a7,7,0,0,0,0-14Z" style="fill:#0635c9"/><path d="M113.37,165.472a25.26,25.26,0,0,0,.182,50.519h.191a25.26,25.26,0,0,0-.373-50.518Zm11.445,25.176A11.257,11.257,0,0,1,113.64,201.99h-.085a11.26,11.26,0,0,1-.081-22.519h.084a11.271,11.271,0,0,1,11.257,11.177Z" style="fill:#0635c9"/><path d="M399.5,163.364h-.19a25.259,25.259,0,0,0,.181,50.518h.193a25.26,25.26,0,0,0-.184-50.519Zm.08,36.519H399.5a11.259,11.259,0,0,1-.08-22.518h.084a11.26,11.26,0,0,1,.082,22.519Z" style="fill:#0635c9"/><path d="M308.54,222.473h-.053l-103.427.762a7,7,0,0,0,.05,14h.053l103.428-.762a7,7,0,0,0-.051-14Z" style="fill:#0635c9"/><path d="M206,382.81H306a7,7,0,0,0,0-14H206a7,7,0,1,0,0,14Z" style="fill:#1ae5be"/><path d="M206,438.81H306a7,7,0,0,0,0-14H206a7,7,0,1,0,0,14Z" style="fill:#1ae5be"/><path d="M206,494.81H306a7,7,0,0,0,0-14H206a7,7,0,1,0,0,14Z" style="fill:#1ae5be"/><path d="M300.771,128.962h.052a7,7,0,0,0,6.948-7.051,29.524,29.524,0,0,1,29.305-29.739h.224a29.522,29.522,0,0,1,29.515,29.3,7,7,0,0,0,7,6.948h.053a7,7,0,0,0,6.948-7.051,43.522,43.522,0,0,0-43.511-43.2h-.331a43.524,43.524,0,0,0-43.2,43.842A7,7,0,0,0,300.771,128.962Z" style="fill:#1ae5be"/><path d="M209.883,198.342h.053a7,7,0,0,0,6.948-7.051l-.124-16.826a7,7,0,0,0-14,.1l.124,16.826A7,7,0,0,0,209.883,198.342Z" style="fill:#1ae5be"/><path d="M178.718,198.572h.053a7,7,0,0,0,6.948-7.052l-.124-16.826a7,7,0,0,0-7-6.948h-.053A7,7,0,0,0,171.6,174.8l.124,16.826A7,7,0,0,0,178.718,198.572Z" style="fill:#1ae5be"/><path d="M334.421,166.6h-.053a7,7,0,0,0-6.948,7.051l.124,16.827a7,7,0,0,0,7,6.948h.053a7,7,0,0,0,6.948-7.052l-.124-16.826A7,7,0,0,0,334.421,166.6Z" style="fill:#1ae5be"/><path d="M241.048,198.113h.053a7,7,0,0,0,6.948-7.052l-.124-16.826a7,7,0,0,0-7-6.948h-.053a7,7,0,0,0-6.948,7.051l.124,16.827A7,7,0,0,0,241.048,198.113Z" style="fill:#1ae5be"/><path d="M272.213,197.883h.053a7,7,0,0,0,6.948-7.052l-.124-16.826a7,7,0,0,0-7-6.948h-.053a7,7,0,0,0-6.948,7.052l.124,16.826A7,7,0,0,0,272.213,197.883Z" style="fill:#1ae5be"/><path d="M303.256,166.828H303.2a7,7,0,0,0-6.948,7.051l.124,16.826a7,7,0,0,0,7,6.948h.053a7,7,0,0,0,6.948-7.051l-.124-16.826A7,7,0,0,0,303.256,166.828Z" style="fill:#1ae5be"/><path d="M469.7,99.979c-3.879-11.357-15.8-18.656-30.415-18.656h-.325c-8.572.063-24,.122-31.373.149L393.311,55.609c-10.16-17.9-24.935-38.419-49.3-38.419h-.321L168.315,18.483c-19.994.148-37.614,14.066-49.631,39.2l-14.5,26.15c-7.357.04-22.975.125-31.66.189-14.767.109-26.724,7.609-30.461,19.106a65.847,65.847,0,0,0-3.053,16A7,7,0,0,0,46,126.41h.061l20.417-.177c-8.961,7.621-14.6,19.618-14.5,33.32a6.994,6.994,0,0,0,.063.879l10.89,81.222A24.688,24.688,0,0,0,83.062,265.2l.189,25.535a15.813,15.813,0,0,0,15.8,15.694h.121l26.748-.2a15.827,15.827,0,0,0,15.692-15.925l-.184-25.09,231.294-1.7.185,25.089A15.811,15.811,0,0,0,388.717,304.3h.119l26.749-.2a15.812,15.812,0,0,0,15.691-15.926l-.188-25.628a24.659,24.659,0,0,0,19.323-23.724l10.146-81.361a7.02,7.02,0,0,0,.053-.917,43.551,43.551,0,0,0-10.755-28.621,39.314,39.314,0,0,0-4.635-4.445l20.834-.161a7,7,0,0,0,6.935-7.389A65.864,65.864,0,0,0,469.7,99.979ZM131.03,64.288c.072-.127.138-.257.2-.388C136.784,52.229,149,32.626,168.419,32.483L343.8,31.191h.217c13.555,0,24.671,9.386,37.083,31.257l29.213,52.917-308.869,2.275ZM54.061,112.34a50.277,50.277,0,0,1,1.311-4.881c1.815-5.581,8.747-9.372,17.251-9.435,6.227-.046,16.017-.1,23.769-.146l-7.857,14.164ZM125.82,292.232l-26.748.2a1.856,1.856,0,0,1-1.282-.52,1.777,1.777,0,0,1-.539-1.275l-.186-25.09,30.367-.224.184,25.091A1.81,1.81,0,0,1,125.82,292.232Zm290.936-2.674a1.775,1.775,0,0,1-1.275.54l-26.749.2a1.924,1.924,0,0,1-1.282-.521,1.774,1.774,0,0,1-.539-1.274l-.185-25.091,30.366-.223.184,25.09A1.774,1.774,0,0,1,416.756,289.558ZM446.6,156.208l-10.137,81.3a7.046,7.046,0,0,0-.054.918,10.629,10.629,0,0,1-10.539,10.695L87.619,251.613H87.54a10.63,10.63,0,0,1-10.616-10.539,6.981,6.981,0,0,0-.063-.879L65.979,159.031c.08-13.085,8.385-26.522,22.421-27.4a6.981,6.981,0,0,0,1.1.1h.052l332.36-2.449c.049,0,.1.007.146.007.074,0,.148,0,.22,0a22.649,22.649,0,0,1,17.092,7.917A29.934,29.934,0,0,1,446.6,156.208Zm-23.461-46.562-7.841-14.2c7.744-.031,17.547-.074,23.763-.12,8.459-.041,15.492,3.626,17.389,9.18a50.4,50.4,0,0,1,1.385,4.874Z" style="fill:#0635c9"/></svg>
