<?xml version="1.0"?>
<svg xmlns="http://www.w3.org/2000/svg" id="Layer_1" data-name="Layer 1" viewBox="0 0 512 512" width="512" height="512"><title>Car Maintenance</title><path d="M126.954,110c.07-.127.136-.257.2-.388,6.114-12.849,19.582-34.428,41.079-34.587l191.075-1.408h.242a29.754,29.754,0,0,1,14.291,3.591C362.725,60.822,352.1,53.615,339.549,53.615h-.242L148.232,55.024c-21.5.159-34.965,21.738-41.079,34.587-.063.131-.129.261-.2.388l-32.76,59.065,31.22-.23Z" style="fill:#d4e1f4"/><path d="M71.576,293.8a12.707,12.707,0,0,1-3.651-8.861,7.445,7.445,0,0,0-.062-.908L56,192.649c.044-15,7.858-25.436,17.345-29.578l-11.036.081h-.051a6.976,6.976,0,0,1-1.141-.1c-12.581.839-25.061,12.146-25.117,30.515l11.863,88.476a6.993,6.993,0,0,1,.062.879,12.251,12.251,0,0,0,12.193,12.105h.091l12.659-.093A12.7,12.7,0,0,1,71.576,293.8Z" style="fill:#d4e1f4"/><path d="M289.586,159.609h.053a7,7,0,0,0,6.948-7.051A32.257,32.257,0,0,1,328.569,120.1h.244a32.218,32.218,0,0,1,32.212,31.982,7,7,0,0,0,7,6.949h.053a7,7,0,0,0,6.948-7.052,46.22,46.22,0,0,0-92.438.681A7,7,0,0,0,289.586,159.609Z" style="fill:#1ae5be"/><path d="M61.939,226.651a26.608,26.608,0,0,0,26.6,26.413h.2a26.638,26.638,0,0,0,26.412-26.8h0a26.608,26.608,0,1,0-53.215.391Zm26.608-12.8a12.608,12.608,0,0,1,.092,25.215,12.606,12.606,0,0,1-12.7-12.514,12.623,12.623,0,0,1,12.514-12.7Z" style="fill:#0635c9"/><path d="M22.938,192.972a7.17,7.17,0,0,0,.062.878L34.7,281.1a25.956,25.956,0,0,0,21.614,24.889l.206,27.856a16.463,16.463,0,0,0,16.455,16.339H73.1l28.724-.212a16.464,16.464,0,0,0,16.338-16.58l-.2-27.475,85.531-.652-.107-14L60.7,292.351h-.089a11.933,11.933,0,0,1-11.917-11.831,7.172,7.172,0,0,0-.062-.879l-11.691-87.2c.058-18.037,12.3-29.138,24.648-29.969a7.075,7.075,0,0,0,1.13.1h.053l356.9-2.63c.055,0,.108.008.163.008h.053a24.856,24.856,0,0,1,18.924,8.675,32.664,32.664,0,0,1,7.9,20.779L444.2,209.567a7,7,0,1,0,13.892,1.732l2.574-20.636a7.045,7.045,0,0,0,.053-.918,46.247,46.247,0,0,0-11.42-30.4,41.446,41.446,0,0,0-6.069-5.622l23.848-.184a7,7,0,0,0,6.935-7.389,70.221,70.221,0,0,0-3.5-16.987c-4.122-12.07-16.879-19.763-32.516-19.682-9.328.069-26.217.133-34,.16L388.511,81.61c-10.841-19.1-26.594-40.995-52.49-40.995h-.34L147.353,42c-21.266.157-40.025,15.006-52.841,41.816l-15.73,28.361c-7.765.041-24.851.135-34.3.2-15.63.115-28.279,8.028-32.224,20.159a70.133,70.133,0,0,0-3.252,17.037A7,7,0,0,0,16,156.868h.061l23.4-.2C29.3,164.687,22.827,177.85,22.938,192.972Zm81.02,113.05.2,27.471a2.46,2.46,0,0,1-2.441,2.477L73,336.182a2.556,2.556,0,0,1-1.744-.708,2.448,2.448,0,0,1-.733-1.733l-.2-27.462ZM438.09,123.486c9.337-.1,17.056,4.033,19.166,10.208a54.958,54.958,0,0,1,1.644,5.912l-38.208.3-8.99-16.284C420.141,123.585,431.181,123.537,438.09,123.486ZM106.858,90.423c.071-.127.137-.256.2-.387,6.016-12.643,19.264-33.876,40.4-34.032l188.329-1.388h.237c14.767,0,26.838,10.159,40.273,33.833l31.79,57.585L74.653,148.49ZM24.018,142.8a55.028,55.028,0,0,1,1.554-5.923c2.018-6.205,9.658-10.421,19.013-10.489,6.926-.051,17.957-.115,26.408-.162L61.982,142.47Z" style="fill:#0635c9"/><path d="M191.855,202.044H191.8a7,7,0,0,0-6.949,7.051l.133,18.069a7,7,0,0,0,7,6.948h.053a7,7,0,0,0,6.948-7.051l-.133-18.068A7,7,0,0,0,191.855,202.044Z" style="fill:#0635c9"/><path d="M158.389,202.291h-.053a7,7,0,0,0-6.948,7.051l.133,18.069a7,7,0,0,0,7,6.948h.053a7,7,0,0,0,6.948-7.052l-.133-18.068A7,7,0,0,0,158.389,202.291Z" style="fill:#0635c9"/><path d="M225.453,233.866h.053a7,7,0,0,0,6.948-7.052l-.133-18.068a7,7,0,0,0-7-6.949h-.053a7,7,0,0,0-6.948,7.052l.133,18.068A7,7,0,0,0,225.453,233.866Z" style="fill:#0635c9"/><path d="M337.417,346.913a6.979,6.979,0,0,0,4.89-1.992l48.274-47.13a7,7,0,0,0-9.781-10.018l-43.383,42.356-21.9-21.385a7,7,0,1,0-9.78,10.017l26.795,26.16A6.979,6.979,0,0,0,337.417,346.913Z" style="fill:#0635c9"/><path d="M496.672,287.678l-27.191-2.621a123.728,123.728,0,0,0-13.675-32.493l17.3-20.884a7,7,0,0,0-.41-9.383l-30.228-30.615a7,7,0,0,0-9.445-.474L412.089,208.54a126.342,126.342,0,0,0-32.448-13.708l-2.621-27.194a7,7,0,0,0-6.968-6.328h-43.4a7,7,0,0,0-6.967,6.328l-2.621,27.191A123.759,123.759,0,0,0,284.567,208.5l-20.884-17.295a7,7,0,0,0-9.415.442l-30.615,30.615a7,7,0,0,0-.442,9.415l17.332,20.928a126.372,126.372,0,0,0-13.709,32.449l-27.193,2.621a7,7,0,0,0-6.329,6.968v43.4a7,7,0,0,0,6.329,6.968l27.191,2.621a123.766,123.766,0,0,0,13.674,32.492l-17.295,20.885a7,7,0,0,0,.442,9.414l30.615,30.615a7,7,0,0,0,9.415.442l20.928-17.332a126.337,126.337,0,0,0,32.449,13.709l2.621,27.194a7,7,0,0,0,6.967,6.328h43.4a7,7,0,0,0,6.968-6.328l2.621-27.191a123.769,123.769,0,0,0,32.492-13.675l20.885,17.3a7,7,0,0,0,9.414-.442l30.615-30.615a7,7,0,0,0,.442-9.414l-17.332-20.929a126.352,126.352,0,0,0,13.71-32.454l26.813-2.616a7,7,0,0,0,6.32-6.967v-43.4A7,7,0,0,0,496.672,287.678ZM489,331.7l-25.458,2.484a7,7,0,0,0-6.162,5.487,112.507,112.507,0,0,1-15.7,37.213,7,7,0,0,0,.491,8.26l16.475,19.893-21.6,21.6-19.893-16.474a7,7,0,0,0-8.348-.434,109.105,109.105,0,0,1-37.125,15.646,7,7,0,0,0-5.488,6.17l-2.491,25.838H333.006l-2.49-25.838a7,7,0,0,0-5.489-6.17,112.515,112.515,0,0,1-37.213-15.7,7,7,0,0,0-8.259.492l-19.894,16.474-21.6-21.6,16.474-19.893a7,7,0,0,0,.433-8.348A109.125,109.125,0,0,1,239.32,339.67a7,7,0,0,0-6.17-5.488l-25.838-2.491V301l25.838-2.49a7,7,0,0,0,6.17-5.489,112.5,112.5,0,0,1,15.7-37.212,7,7,0,0,0-.491-8.26l-16.474-19.894,21.6-21.6,19.894,16.474a7,7,0,0,0,8.347.433,109.134,109.134,0,0,1,37.125-15.646,7,7,0,0,0,5.489-6.17l2.49-25.837h30.688l2.491,25.837a7,7,0,0,0,5.488,6.17,112.507,112.507,0,0,1,37.213,15.7,7,7,0,0,0,8.26-.491l19.861-16.448,21.273,21.545-16.5,19.925a7,7,0,0,0-.433,8.347,109.134,109.134,0,0,1,15.646,37.125,7,7,0,0,0,6.17,5.489L489,301Z" style="fill:#1ae5be"/><path d="M348.35,224.842a91.506,91.506,0,1,0,91.505,91.5A91.609,91.609,0,0,0,348.35,224.842Zm0,169.011a77.506,77.506,0,1,1,77.505-77.506A77.594,77.594,0,0,1,348.35,393.853Z" style="fill:#1ae5be"/></svg>
