<?xml version="1.0"?>
<svg xmlns="http://www.w3.org/2000/svg" id="Layer_1" data-name="Layer 1" viewBox="0 0 512 512" width="512" height="512"><title>Car Repair Location</title><path d="M389.905,456.3c-78.715,0-142.754-64.039-142.754-142.754a142.272,142.272,0,0,1,82.414-129.271,142.5,142.5,0,0,0-113.9,139.768c0,78.715,64.039,142.754,142.754,142.754a141.89,141.89,0,0,0,60.451-13.452A142.861,142.861,0,0,1,389.905,456.3Z" style="fill:#d4e1f4"/><path d="M128.4,108.264c.073-.131.142-.266.207-.4,6.334-13.312,20.286-35.668,42.557-35.831l197.954-1.459h.25a30.842,30.842,0,0,1,14.805,3.719c-11.515-16.974-22.526-24.439-35.525-24.439h-.25L150.447,51.311c-22.271.164-36.223,22.519-42.557,35.831-.065.136-.134.271-.207.4L73.744,148.736l32.344-.239Z" style="fill:#d4e1f4"/><path d="M71.033,298.68A13.161,13.161,0,0,1,67.25,289.5a7.784,7.784,0,0,0-.064-.94L54.9,193.889c.046-15.541,8.14-26.351,17.969-30.643l-11.433.085h-.053a7.246,7.246,0,0,1-1.182-.109c-13.034.87-25.963,12.583-26.021,31.614L46.466,286.5a7.3,7.3,0,0,1,.064.91,12.693,12.693,0,0,0,12.632,12.541h.094l13.115-.1A13.041,13.041,0,0,1,71.033,298.68Z" style="fill:#d4e1f4"/><path d="M286.578,154.751a7,7,0,0,0,7,6.949h.053a7,7,0,0,0,6.948-7.052,32.791,32.791,0,0,1,32.55-33.033h.249a32.791,32.791,0,0,1,32.783,32.551,7,7,0,0,0,7,6.948h.053a7,7,0,0,0,6.948-7.051,46.793,46.793,0,0,0-46.781-46.448h-.355a46.793,46.793,0,0,0-46.446,47.136Z" style="fill:#1ae5be"/><path d="M89.606,202.729h-.2a26.894,26.894,0,0,0,.193,53.788h.2a26.894,26.894,0,0,0-.2-53.788Zm9.183,35.945A12.894,12.894,0,1,1,89.51,216.73h.095a12.895,12.895,0,0,1,9.184,21.945Z" style="fill:#0635c9"/><path d="M467.045,193.3a7.025,7.025,0,0,0,.054-.918c-.113-15.24-7.286-28.665-18.111-36.641l24.662-.191a7,7,0,0,0,6.936-7.388,71.061,71.061,0,0,0-3.549-17.207c-4.169-12.206-17.074-19.98-32.894-19.9-9.489.07-26.687.135-34.555.163l-15.733-28.5c-10.985-19.359-26.946-41.541-53.167-41.541h-.343L149.269,42.584c-21.536.159-40.537,15.2-53.522,42.371L79.758,113.784c-7.849.042-25.248.137-34.861.208-15.812.116-28.607,8.117-32.6,20.383a71.1,71.1,0,0,0-3.295,17.257A7,7,0,0,0,16,158.918h.061l24.1-.208a41.405,41.405,0,0,0-6.17,5.98,47.519,47.519,0,0,0-10.846,30.96,6.98,6.98,0,0,0,.062.879l11.869,88.527A26.24,26.24,0,0,0,57,310.231l.209,28.347a16.6,16.6,0,0,0,16.594,16.475h.126l29.142-.214a16.617,16.617,0,0,0,16.475-16.72l-.206-27.962,84.085-.62q-.417,5.616-.426,11.29c0,82.71,67.289,150,150,150s150-67.289,150-150a148.918,148.918,0,0,0-39.244-101.154Zm-22.8-68.246c9.5-.089,17.388,4.119,19.543,10.426a56.116,56.116,0,0,1,1.7,6.133l-38.952.3L417.3,125.184C425.884,125.151,437.189,125.1,444.246,125.05ZM108.094,91.558c.071-.127.137-.256.2-.388,6.113-12.849,19.581-34.428,41.078-34.586l191.076-1.408h.242c15.024,0,27.3,10.322,40.95,34.379l32.337,58.574-338.643,2.5ZM24.01,144.849a56.031,56.031,0,0,1,1.6-6.144c2.061-6.338,9.852-10.643,19.386-10.713,7.073-.052,18.371-.118,26.969-.165l-9.256,16.687Zm78.961,195.989-29.143.214h-.02a2.6,2.6,0,0,1-2.6-2.579l-.206-27.962,34.337-.253.206,27.963A2.6,2.6,0,0,1,102.971,340.838Zm102.161-45.315L61.35,296.582h-.091a12.211,12.211,0,0,1-12.194-12.105A6.98,6.98,0,0,0,49,283.6L37.141,195.125a33.932,33.932,0,0,1,7.569-21.431,24.545,24.545,0,0,1,17.553-9.086,6.913,6.913,0,0,0,1.135.1h.052l362.113-2.668c.055,0,.109.008.164.008h.231c14.728,0,26.8,13.374,27.135,29.991l-1.917,15.37a149.944,149.944,0,0,0-246.044,88.111ZM489,320.826c0,74.99-61.009,136-136,136s-136-61.009-136-136a136,136,0,0,1,272,0Z" style="fill:#0635c9"/><path d="M194.554,237.29h.052a7,7,0,0,0,6.949-7.052l-.136-18.332a7,7,0,0,0-7-6.948h-.053a7,7,0,0,0-6.948,7.051l.136,18.333A7,7,0,0,0,194.554,237.29Z" style="fill:#1ae5be"/><path d="M160.6,237.54h.052a7,7,0,0,0,6.949-7.051l-.135-18.332a7,7,0,1,0-14,.1l.135,18.332A7,7,0,0,0,160.6,237.54Z" style="fill:#1ae5be"/><path d="M228.508,237.04h.053a7,7,0,0,0,6.948-7.052l-.135-18.332a7,7,0,0,0-14,.1l.135,18.332A7,7,0,0,0,228.508,237.04Z" style="fill:#1ae5be"/><path d="M285.06,229.608a101.871,101.871,0,0,0-29.419,65.148,96.206,96.206,0,0,0,5.8,39.6,103.357,103.357,0,0,0,22.174,35.219L347.9,438.04a7,7,0,0,0,10.207,0l64.279-68.466a103.357,103.357,0,0,0,22.174-35.219,96.209,96.209,0,0,0,5.8-39.6,101.871,101.871,0,0,0-29.419-65.147,95.934,95.934,0,0,0-135.882,0Zm151.333,66.081a82.29,82.29,0,0,1-4.989,33.868,89.443,89.443,0,0,1-19.228,30.435L353,423.021l-59.175-63.029A89.437,89.437,0,0,1,274.6,329.556a82.281,82.281,0,0,1-4.989-33.866,87.876,87.876,0,0,1,25.368-56.2,81.934,81.934,0,0,1,116.048,0A87.876,87.876,0,0,1,436.393,295.689Z" style="fill:#1ae5be"/><path d="M307.524,294.136c0,25.646,20.4,46.51,45.477,46.51s45.477-20.864,45.477-46.51-20.4-46.511-45.477-46.511S307.524,268.49,307.524,294.136Zm76.954,0c0,17.926-14.121,32.51-31.477,32.51s-31.477-14.584-31.477-32.51S335.645,261.625,353,261.625,384.478,276.21,384.478,294.136Z" style="fill:#1ae5be"/></svg>
