<?xml version="1.0"?>
<svg xmlns="http://www.w3.org/2000/svg" id="Layer_1" data-name="Layer 1" viewBox="0 0 512 512" width="512" height="512"><title>Car Repair</title><path d="M136.954,236.788c.07-.127.137-.257.2-.388,6.114-12.849,19.582-34.428,41.079-34.587l191.075-1.408h.242A29.754,29.754,0,0,1,383.84,204C372.725,187.611,362.1,180.4,349.549,180.4h-.242l-191.075,1.408c-21.5.159-34.965,21.738-41.079,34.587-.062.131-.129.261-.2.388l-32.76,59.066,31.22-.23Z" style="fill:#d4e1f4"/><path d="M81.577,420.588a12.7,12.7,0,0,1-3.652-8.861,7.445,7.445,0,0,0-.062-.908L66,319.438c.044-15,7.858-25.436,17.345-29.578l-11.036.081h-.051a6.976,6.976,0,0,1-1.141-.1c-12.581.839-25.061,12.146-25.117,30.516l11.863,88.475a6.993,6.993,0,0,1,.062.879,12.253,12.253,0,0,0,12.193,12.105h.091l12.659-.094A12.581,12.581,0,0,1,81.577,420.588Z" style="fill:#d4e1f4"/><path d="M392,281.135a47,47,0,0,0-94,0,7,7,0,0,0,14,0,33,33,0,0,1,66,0,7,7,0,0,0,14,0Z" style="fill:#1ae5be"/><path d="M456.671,238.41c-9.548,0-26.859-.062-34.758-.092L406.3,209.537c-10.941-19.616-26.9-42.133-53.449-42.133H160.771c-21.633,0-40.833,14.978-54.082,42.176l-16.3,28.879c-7.88-.016-25.393-.049-35.064-.049-15.881,0-28.788,7.938-32.883,20.223a71.4,71.4,0,0,0-3.438,17.312A7,7,0,0,0,26,283.283h.009l24.272-.031C39.7,291.3,32.892,304.759,32.892,320.3a6.973,6.973,0,0,0,.055.879l11.276,89.077A26.334,26.334,0,0,0,66.08,435.69v28.528a16.666,16.666,0,0,0,16.648,16.647h29.3a16.666,16.666,0,0,0,16.648-16.647V436.071H383.327v28.147a16.666,16.666,0,0,0,16.648,16.647h29.3a16.666,16.666,0,0,0,16.647-16.647V435.6a26.338,26.338,0,0,0,21.356-25.33l11.772-89.059a7.026,7.026,0,0,0,.06-.917c0-15.351-7.144-28.92-18.008-37l24.9-.009a7,7,0,0,0,6.99-7.338,71.4,71.4,0,0,0-3.438-17.312C485.459,246.348,472.552,238.41,456.671,238.41ZM118.988,216.273c.071-.127.139-.255.2-.385,6.245-12.879,19.952-34.484,41.581-34.484h192.08c15.23,0,27.558,10.453,41.183,34.881l32.1,59.173H85.589Zm-84.93,53a56.416,56.416,0,0,1,1.67-6.211c2.123-6.371,10-10.651,19.6-10.651,7.128,0,18.523.018,27.172.034l-9.468,16.779Zm80.613,194.946a2.65,2.65,0,0,1-2.648,2.647H82.728a2.65,2.65,0,0,1-2.648-2.647V436.071h34.591Zm317.247,0a2.65,2.65,0,0,1-2.647,2.647h-29.3a2.65,2.65,0,0,1-2.648-2.647V436.071h34.591ZM465.1,319.854l-11.765,89.005a6.867,6.867,0,0,0-.061.917,12.308,12.308,0,0,1-12.3,12.3H70.514a12.308,12.308,0,0,1-12.295-12.3,6.974,6.974,0,0,0-.056-.879L46.894,319.874c.178-14.689,9.658-29.719,25.5-30.534a6.915,6.915,0,0,0,1.207.118H437.64c.065,0,.128.01.193.01C452.742,289.468,464.894,303.06,465.1,319.854ZM438.721,269.3l-9.2-16.954c8.635.03,20.037.064,27.148.064,9.6,0,17.478,4.28,19.6,10.651a56.152,56.152,0,0,1,1.672,6.225Z" style="fill:#0635c9"/><path d="M163.383,369.726H348.617a7,7,0,0,0,6.628-9.254l-6.387-18.78c-4.39-12.905-18.5-23.014-32.136-23.014H194.775c-13.667,0-27.7,10.176-31.939,23.169l-6.107,18.706a7,7,0,0,0,6.654,9.173Zm12.762-23.534c2.351-7.2,11.057-13.514,18.63-13.514H316.722c7.608,0,16.431,6.319,18.881,13.522l3.24,9.526H173.032Z" style="fill:#0635c9"/><path d="M373.063,380.423H144.607a7,7,0,1,0,0,14H373.063a7,7,0,0,0,0-14Z" style="fill:#0635c9"/><path d="M445.971,76.316H446a7.007,7.007,0,0,0,6.273-10.123,62.815,62.815,0,0,0-56.563-35.058,63.453,63.453,0,0,0-57.246,36.486H173.541A63.155,63.155,0,0,0,59.776,66.105a7,7,0,0,0,6.263,10.127H94.483l11.844,17.787-12.8,18.293-27.5-.093h-.024a7.007,7.007,0,0,0-6.273,10.123A62.815,62.815,0,0,0,116.3,157.4a63.453,63.453,0,0,0,57.246-36.486H338.459a63.155,63.155,0,0,0,113.764,1.517,7,7,0,0,0-6.262-10.128H417.517L405.673,94.517l12.8-18.294ZM414.835,62.21A7,7,0,0,0,409.1,65.2L391.462,90.406a7,7,0,0,0-.09,7.893l16.57,24.884a7,7,0,0,0,5.827,3.12h19.225a49.176,49.176,0,0,1-83.327-14.838,7,7,0,0,0-6.558-4.551H168.891a7,7,0,0,0-6.558,4.551A49.353,49.353,0,0,1,116.3,143.4a48.846,48.846,0,0,1-37.326-17.137l18.172.062h.024a7,7,0,0,0,5.736-2.987l17.637-25.209a7,7,0,0,0,.09-7.893l-16.57-24.883a7,7,0,0,0-5.827-3.121H79.006A49.176,49.176,0,0,1,162.333,77.07a7,7,0,0,0,6.558,4.551H343.109a7,7,0,0,0,6.558-4.551,49.353,49.353,0,0,1,46.038-31.935,48.846,48.846,0,0,1,37.326,17.137l-18.172-.062Z" style="fill:#1ae5be"/><path d="M99.411,327.939a27,27,0,1,0,27,27A27.029,27.029,0,0,0,99.411,327.939Zm0,40a13,13,0,1,1,13-13A13.013,13.013,0,0,1,99.411,367.936Z" style="fill:#1ae5be"/><path d="M412.588,327.939a27,27,0,1,0,27,27A27.029,27.029,0,0,0,412.588,327.939Zm0,40a13,13,0,1,1,13-13A13.013,13.013,0,0,1,412.588,367.936Z" style="fill:#1ae5be"/></svg>
