<?xml version="1.0"?>
<svg xmlns="http://www.w3.org/2000/svg" id="Layer_1" data-name="Layer 1" viewBox="0 0 512 512" width="512" height="512"><title>Car Seat </title><path d="M219.417,140.2a18.827,18.827,0,0,0,18.805,18.806h75.556A18.827,18.827,0,0,0,332.583,140.2V118.868h14.25a39.963,39.963,0,0,1,19.91,5.3,40.273,40.273,0,0,0-39.91-35.295h-14.25V110.2a18.827,18.827,0,0,1-18.805,18.806H219.417Z" style="fill:#d4e1f4"/><path d="M164.944,159.09a40.27,40.27,0,0,1,36.686-40.057,18.679,18.679,0,0,1-2.213-8.832V88.868h-14.25a40.268,40.268,0,0,0-40.223,40.222V368.242l20,15.484Z" style="fill:#d4e1f4"/><path d="M137.944,152.468a7,7,0,0,0,0,14A63.906,63.906,0,0,1,201.778,230.3V358.435a7,7,0,0,0,14,0V230.3A77.922,77.922,0,0,0,137.944,152.468Z" style="fill:#1ae5be"/><path d="M374.056,152.468A77.922,77.922,0,0,0,296.222,230.3V358.435a7,7,0,0,0,14,0V230.3a63.906,63.906,0,0,1,63.834-63.833,7,7,0,0,0,0-14Z" style="fill:#1ae5be"/><path d="M404.75,346.4a28.422,28.422,0,0,0-16.95,5.65l-6.744,5.058V129.09a54.284,54.284,0,0,0-54.223-54.222h-14.25V57.076a18.826,18.826,0,0,0-18.805-18.8H218.222a18.826,18.826,0,0,0-18.805,18.805V74.868h-14.25a54.284,54.284,0,0,0-54.223,54.222V357.4l-6.618-5.124A28.116,28.116,0,0,0,79,374.511v92.218a7,7,0,0,0,7,7H426a7,7,0,0,0,7-7V374.646A28.281,28.281,0,0,0,404.75,346.4ZM213.417,57.076a4.81,4.81,0,0,1,4.805-4.8h75.556a4.81,4.81,0,0,1,4.805,4.805V110.2a4.811,4.811,0,0,1-4.805,4.806H218.222a4.811,4.811,0,0,1-4.805-4.806ZM144.944,129.09a40.268,40.268,0,0,1,40.223-40.222h14.25V110.2a18.827,18.827,0,0,0,18.805,18.806h75.556A18.827,18.827,0,0,0,312.583,110.2V88.868h14.25a40.268,40.268,0,0,1,40.223,40.222V367.6l-64.645,48.484a115.07,115.07,0,0,0-95.678-.009l-61.789-47.837ZM419,459.729H93V374.511a14.115,14.115,0,0,1,22.756-11.161l85.785,66.415a7,7,0,0,0,7.266.8l2.4-1.13a101.219,101.219,0,0,1,88.882,1.057,7,7,0,0,0,7.33-.661L396.2,363.245a14.251,14.251,0,0,1,22.8,11.4Z" style="fill:#0635c9"/></svg>
