<?xml version="1.0"?>
<svg xmlns="http://www.w3.org/2000/svg" id="Layer_1" data-name="Layer 1" viewBox="0 0 512 512" width="512" height="512"><title>Car Service Date</title><path d="M389.905,456.3c-78.715,0-142.754-64.039-142.754-142.754a142.272,142.272,0,0,1,82.414-129.271,142.5,142.5,0,0,0-113.9,139.768c0,78.715,64.039,142.754,142.754,142.754a141.89,141.89,0,0,0,60.451-13.452A142.861,142.861,0,0,1,389.905,456.3Z" style="fill:#d4e1f4"/><path d="M128.4,108.264c.073-.131.142-.266.207-.4,6.334-13.312,20.286-35.668,42.557-35.831l197.954-1.459h.25a30.842,30.842,0,0,1,14.805,3.719c-11.515-16.974-22.526-24.439-35.525-24.439h-.25L150.447,51.311c-22.271.164-36.223,22.519-42.557,35.831-.065.136-.134.271-.207.4L73.744,148.736l32.344-.239Z" style="fill:#d4e1f4"/><path d="M71.033,298.68A13.161,13.161,0,0,1,67.25,289.5a7.784,7.784,0,0,0-.064-.94L54.9,193.889c.046-15.541,8.14-26.351,17.969-30.643l-11.433.085h-.053a7.246,7.246,0,0,1-1.182-.109c-13.034.87-25.963,12.583-26.021,31.614L46.466,286.5a7.3,7.3,0,0,1,.064.91,12.693,12.693,0,0,0,12.632,12.541h.094l13.115-.1A13.041,13.041,0,0,1,71.033,298.68Z" style="fill:#d4e1f4"/><path d="M477.037,130.951c-4.169-12.206-17.057-19.98-32.894-19.9-12.508.092-38.429.176-38.689.177a7,7,0,0,0,.022,14h.023c.261,0,26.209-.085,38.747-.177,9.58-.089,17.389,4.119,19.543,10.426a56.116,56.116,0,0,1,1.7,6.133l-43.175.333a7,7,0,0,0,.053,14h.055l51.23-.4a7,7,0,0,0,6.936-7.388A71.061,71.061,0,0,0,477.037,130.951Z" style="fill:#1ae5be"/><path d="M73.816,151.418a7,7,0,0,0-7-6.939h-.061l-42.746.37a56.031,56.031,0,0,1,1.6-6.144c2.061-6.338,9.852-10.643,19.386-10.713,12.662-.094,38.867-.229,38.868-.229l-.072-14s-26.227.135-38.9.229c-15.812.116-28.607,8.117-32.6,20.383a71.1,71.1,0,0,0-3.295,17.257A7,7,0,0,0,16,158.918h.061l50.816-.439A7,7,0,0,0,73.816,151.418Z" style="fill:#1ae5be"/><path d="M333.377,121.614a32.791,32.791,0,0,1,32.783,32.551,7,7,0,0,0,7,6.948h.053a7,7,0,0,0,6.948-7.051,46.793,46.793,0,0,0-46.781-46.448h-.355a46.793,46.793,0,0,0-46.446,47.136,7,7,0,0,0,7,6.949h.053a7,7,0,0,0,6.948-7.052,32.791,32.791,0,0,1,32.55-33.033Z" style="fill:#1ae5be"/><path d="M89.606,202.729h-.2a26.894,26.894,0,0,0,.193,53.788h.2a26.894,26.894,0,0,0-.2-53.788Zm9.183,35.945a12.808,12.808,0,0,1-9.09,3.843h-.1a12.894,12.894,0,0,1-.092-25.788h.095a12.895,12.895,0,0,1,9.184,21.945Z" style="fill:#0635c9"/><path d="M467.045,193.3a7.025,7.025,0,0,0,.054-.918c-.17-23-16.422-41.88-37.051-44.106L393.855,82.716c-10.985-19.359-26.946-41.541-53.167-41.541h-.343L149.269,42.584c-21.536.159-40.537,15.2-53.522,42.371L59.216,150.821A38.631,38.631,0,0,0,33.988,164.69a47.519,47.519,0,0,0-10.846,30.96,6.98,6.98,0,0,0,.062.879l11.869,88.527A26.239,26.239,0,0,0,57,310.231l.209,28.347a16.6,16.6,0,0,0,16.594,16.475h.126l29.142-.214a16.617,16.617,0,0,0,16.475-16.72l-.206-27.962,84.085-.62q-.417,5.616-.426,11.29c0,82.71,67.289,150,150,150s150-67.289,150-150a148.914,148.914,0,0,0-39.245-101.154ZM108.094,91.558c.071-.127.137-.256.2-.388,6.113-12.849,19.581-34.428,41.078-34.586l191.076-1.408h.242c15.024,0,27.3,10.322,40.95,34.379l32.337,58.574-338.643,2.5Zm-5.123,249.28-29.143.214h-.02a2.6,2.6,0,0,1-2.6-2.579l-.206-27.962,34.337-.253.206,27.963A2.6,2.6,0,0,1,102.971,340.838Zm102.161-45.315L61.35,296.582h-.091a12.211,12.211,0,0,1-12.194-12.105A6.98,6.98,0,0,0,49,283.6L37.141,195.125a33.932,33.932,0,0,1,7.569-21.431,24.545,24.545,0,0,1,17.553-9.086,6.9,6.9,0,0,0,1.135.1h.052l362.113-2.668c.055,0,.108.008.164.008h.231c14.728,0,26.8,13.374,27.135,29.991l-1.917,15.37a149.944,149.944,0,0,0-246.044,88.111ZM489,320.826c0,74.99-61.009,136-136,136s-136-61.009-136-136a136,136,0,0,1,272,0Z" style="fill:#0635c9"/><path d="M445.555,267.347a23.033,23.033,0,0,0-23-23.006h-3.174v-2.027A18.139,18.139,0,0,0,401.258,224.2h-2.069a18.139,18.139,0,0,0-18.118,18.118v2.027H324.686v-2.027A18.139,18.139,0,0,0,306.567,224.2H304.5a18.139,18.139,0,0,0-18.118,18.118v2.027h-3.173A23.032,23.032,0,0,0,260.2,267.347v127.1a23.032,23.032,0,0,0,23.006,23.006H422.55a23.033,23.033,0,0,0,23-23.006v-94.7a6.815,6.815,0,0,0,0-3.629Zm-50.484-25.033a4.123,4.123,0,0,1,4.118-4.118h2.069a4.123,4.123,0,0,1,4.118,4.118v12a4.124,4.124,0,0,1-4.118,4.119h-2.069a4.124,4.124,0,0,1-4.118-4.119Zm-94.691,0A4.123,4.123,0,0,1,304.5,238.2h2.069a4.123,4.123,0,0,1,4.119,4.118v12a4.124,4.124,0,0,1-4.119,4.119H304.5a4.124,4.124,0,0,1-4.118-4.119ZM431.555,394.451a9.016,9.016,0,0,1-9,9.006H283.207a9.016,9.016,0,0,1-9.006-9.006V304.934H431.555Zm0-103.517H274.2V267.347a9.016,9.016,0,0,1,9.006-9.006h3.639a18.139,18.139,0,0,0,17.652,14.1h2.069a18.141,18.141,0,0,0,17.653-14.1h57.317a18.14,18.14,0,0,0,17.652,14.1h2.069a18.139,18.139,0,0,0,17.652-14.1h3.64a9.016,9.016,0,0,1,9,9.006Z" style="fill:#0635c9"/><path d="M194.42,204.958h-.053a7,7,0,0,0-6.948,7.051l.136,18.333a7,7,0,0,0,7,6.948h.052a7,7,0,0,0,6.949-7.052l-.136-18.332A7,7,0,0,0,194.42,204.958Z" style="fill:#1ae5be"/><path d="M160.413,205.208a7,7,0,0,0-6.948,7.051l.135,18.332a7,7,0,0,0,7,6.949h.052a7,7,0,0,0,6.949-7.051l-.135-18.332A7,7,0,0,0,160.413,205.208Z" style="fill:#1ae5be"/><path d="M228.375,204.708h-.053a7,7,0,0,0-6.948,7.051l.135,18.332a7,7,0,0,0,7,6.949h.053a7,7,0,0,0,6.948-7.052l-.135-18.332A7,7,0,0,0,228.375,204.708Z" style="fill:#1ae5be"/></svg>
