<?xml version="1.0"?>
<svg xmlns="http://www.w3.org/2000/svg" id="Layer_1" data-name="Layer 1" viewBox="0 0 512 512" width="512" height="512"><title>Car Service mail</title><path d="M472.946,223.6c-.008-.074-.015-.148-.026-.221a6.9,6.9,0,0,0-.166-.816c-.007-.025-.016-.048-.023-.073a7.187,7.187,0,0,0-.251-.723c-.026-.064-.054-.128-.082-.191q-.139-.316-.311-.621c-.026-.045-.049-.091-.075-.136a7.067,7.067,0,0,0-.477-.7c-.025-.032-.053-.061-.078-.092a6.81,6.81,0,0,0-.469-.526c-.065-.066-.133-.13-.2-.194s-.122-.125-.189-.183L400.5,158.07V144.479a30.494,30.494,0,0,0-30.459-30.459h-11.71l-98-77.248a7,7,0,0,0-8.744.063L156.462,114.02H141.955A30.494,30.494,0,0,0,111.5,144.479v5.239l-70.42,69.7h0A6.975,6.975,0,0,0,39,224.4V440.423a36.163,36.163,0,0,0,9.849,24.824c.022.029.041.06.064.089a6.989,6.989,0,0,0,.967.971,36.183,36.183,0,0,0,25.426,10.422H436.693A36.348,36.348,0,0,0,473,440.423V224.4c0-.047-.008-.092-.009-.138Q472.984,223.926,472.946,223.6ZM400.5,176.634l53.721,46.787L400.5,256.484ZM256.063,51.233,335.72,114.02H178.681ZM125.5,155.558l.214-.212-.214-.217v-10.65a16.477,16.477,0,0,1,16.459-16.459h18.713l.3.371.458-.371H353.482l.237.186.147-.186h16.179A16.477,16.477,0,0,1,386.5,144.479v14.687a7.028,7.028,0,0,0,0,3.741V265.1L267.711,338.212a22.2,22.2,0,0,1-23.4-.014L125.5,264.886Zm-14,13.858v86.832L57.457,222.9ZM53,440.423V236.6L204.911,330.34,55.628,450.914A22.164,22.164,0,0,1,53,440.423Zm383.693,22.306H75.306a22.164,22.164,0,0,1-9.429-2.1l151.665-122.5,19.412,11.978a36.123,36.123,0,0,0,38.095.023l19.1-11.755L445.84,460.76A22.175,22.175,0,0,1,436.693,462.729ZM459,440.423a22.162,22.162,0,0,1-2.762,10.738L306.8,330.6,459,236.922Z" style="fill:#0635c9"/><path d="M186.35,179.35a7,7,0,0,0-7-7H161.5a7,7,0,0,0,0,14h17.85A7,7,0,0,0,186.35,179.35Z" style="fill:#0635c9"/><path d="M330.55,186.35H348.4a7,7,0,0,0,0-14H330.55a7,7,0,0,0,0,14Z" style="fill:#0635c9"/><path d="M188.275,213.3a18.55,18.55,0,1,0,18.55,18.55A18.57,18.57,0,0,0,188.275,213.3Zm0,23.1a4.55,4.55,0,1,1,4.55-4.55A4.555,4.555,0,0,1,188.275,236.4Z" style="fill:#0635c9"/><path d="M323.725,250.4a18.55,18.55,0,1,0-18.55-18.55A18.571,18.571,0,0,0,323.725,250.4Zm0-23.1a4.55,4.55,0,1,1-4.55,4.55A4.555,4.555,0,0,1,323.725,227.3Z" style="fill:#0635c9"/><path d="M343.465,188.452,327.938,159.83c-5.5-9.863-13.625-21.185-27.724-21.185H212.526c-11.381,0-21.339,7.558-28.058,21.288l-16.036,28.415c-10.433,2.146-18.09,11.872-18.09,23.9a6.973,6.973,0,0,0,.055.879l5.124,40.476a15.829,15.829,0,0,0,9.972,14.181v10.168a11.417,11.417,0,0,0,11.4,11.4h13.374a11.417,11.417,0,0,0,11.405-11.4v-9.045H310.323v9.045a11.417,11.417,0,0,0,11.405,11.4H335.1a11.417,11.417,0,0,0,11.4-11.4V267.7a15.838,15.838,0,0,0,9.743-14.075l5.348-40.459a7.026,7.026,0,0,0,.06-.917C361.657,200.5,353.826,190.676,343.465,188.452Zm-146.7-21.823c.071-.127.139-.256.2-.386,2.463-5.079,7.759-13.6,15.56-13.6h87.688c5.387,0,10.021,4.188,15.457,13.933l11.607,21.4h-5.827a25.259,25.259,0,0,0-48.877,0H184.719Zm109.507,21.345h-18.51a11.224,11.224,0,0,1,18.51,0Zm-118.6,87.381h-8.183v-6.449h8.183Zm144.83,0h-8.183v-6.449h8.183Zm9.812-23.174a6.845,6.845,0,0,0-.061.917,1.832,1.832,0,0,1-1.808,1.808H171.321a1.832,1.832,0,0,1-1.808-1.808,6.974,6.974,0,0,0-.056-.879l-5.109-40.364c.152-4.763,3.055-9.544,7.853-9.916.177.013.351.035.53.035H277.337a7,7,0,0,0,1.727.149,7.172,7.172,0,0,0,1.136-.149h58.714c.033,0,.064.005.1.005,5.195,0,8.464,5.042,8.639,9.863Z" style="fill:#1ae5be"/><path d="M287.147,229.593H224.853a7,7,0,0,0,0,14h62.294a7,7,0,0,0,0-14Z" style="fill:#1ae5be"/><path d="M73,248.945,53,236.6V440.423a22.164,22.164,0,0,0,2.628,10.491L73,436.883Z" style="fill:#d4e1f4"/><path d="M100.423,432.729l-34.546,27.9a22.164,22.164,0,0,0,9.429,2.1H436.693a22.175,22.175,0,0,0,9.147-1.969L411.1,432.729Z" style="fill:#d4e1f4"/></svg>
