<?xml version="1.0"?>
<svg xmlns="http://www.w3.org/2000/svg" id="Layer_1" data-name="Layer 1" viewBox="0 0 512 512" width="512" height="512"><title>Car Truck towing</title><path d="M478,233.694V223.61a16.95,16.95,0,0,0-.886-5.417L463.1,162.451H478a7,7,0,0,0,0-14H356.616a7,7,0,0,0-7,7V296.134H188.476a46.181,46.181,0,0,0-40.82,0H103.869a46.2,46.2,0,0,0-40.829,0H20.011a11.012,11.012,0,0,0-11,11v27.482a11.012,11.012,0,0,0,11,11h17.8a46.348,46.348,0,0,0,87.96,10.977,46.34,46.34,0,0,0,87.957-10.977H356.461c.053,0,.1.008.155.008h22.117a46.335,46.335,0,0,0,91.3,0h25.958a7,7,0,0,0,7-7V275.205A47.037,47.037,0,0,0,478,233.694ZM37.54,331.616H23.011V310.134H46.244A46.116,46.116,0,0,0,37.54,331.616Zm78.238,6.837a32.328,32.328,0,0,1-64.639-.062c-.008-.229-.006-.462-.006-.691a32.265,32.265,0,0,1,8.624-21.979l.132-.132c.047-.048.094-.1.139-.144a32.023,32.023,0,0,1,8.01-6.161,32.379,32.379,0,0,1,30.827,0l.021.011a32.013,32.013,0,0,1,8,6.151c.046.049.092.1.14.145l.134.134a32.224,32.224,0,0,1,8.623,21.977C115.786,337.929,115.788,338.162,115.778,338.453Zm10-19.619a46.193,46.193,0,0,0-5.1-8.7h10.19A46.236,46.236,0,0,0,125.778,318.834Zm74.614,19.7a32.328,32.328,0,0,1-64.638-.162c-.007-.221-.006-.447-.006-.668a32.318,32.318,0,0,1,16.885-28.4l.036-.02a31.919,31.919,0,0,1,15.4-3.9,32.349,32.349,0,0,1,15.4,3.9l.021.012a32.173,32.173,0,0,1,16.819,26.01c.054.743.08,1.527.08,2.4Zm149.224-6.914H214a46.083,46.083,0,0,0-8.662-21.482H349.616Zm63.641-169.165h35.4l14.951,59.457a7.04,7.04,0,0,0,.209.681A3.011,3.011,0,0,1,464,223.61V228.9a47.111,47.111,0,0,0-8.011-.7H426.257a13.015,13.015,0,0,1-13-13Zm-49.641,0h35.641v52.754a27.046,27.046,0,0,0,20.376,26.175v18.944H363.616ZM456.7,338.459a32.325,32.325,0,0,1-64.633-.041c-.006-.237,0-.483,0-.719a32.322,32.322,0,0,1,64.558-2.369c.057.762.086,1.56.086,2.369C456.7,337.942,456.7,338.2,456.7,338.459Zm32.292-6.835H470.3a46.312,46.312,0,0,0-91.827,0H363.616V303.269c0-.045.007-.09.007-.135s-.006-.09-.007-.136V274.324h63.017a7,7,0,0,0,7-7V242.205h22.356a33.037,33.037,0,0,1,33,33Z" style="fill:#0635c9"/><path d="M313.614,182.865l-40.091-7.8A194.721,194.721,0,0,0,218.1,139.319a155.594,155.594,0,0,0-20.366-6.939,131.87,131.87,0,0,0-27.622-4.265,7.038,7.038,0,0,0-1.372-.136,6.953,6.953,0,0,0-.834.054c-1.061-.029-2.122-.054-3.177-.054H77.833a20.315,20.315,0,0,0-13.214,4.887L26.435,165.6a20.283,20.283,0,0,0-7.09,15.416v29.444a43.709,43.709,0,0,0,18.043,35.317l.092.066a34.463,34.463,0,0,0,19.482,6.39,33.6,33.6,0,0,0,66.5,1.81H235.238a33.6,33.6,0,0,0,66.124,0h31.424a9.881,9.881,0,0,0,9.869-9.869V218.1A35.961,35.961,0,0,0,313.614,182.865Zm-100.921-30.63a180,180,0,0,1,38.418,22.36l-75.376.218V142.547a120.705,120.705,0,0,1,18.433,3.372A141.516,141.516,0,0,1,212.693,152.235Zm-50.958-10.256v32.874L112.1,175V141.979ZM73.729,143.5a6.315,6.315,0,0,1,4.1-1.517H98.1v33.058l-61.379.177ZM45.578,234.417a29.659,29.659,0,0,1-12.233-23.962V189.224l128.39-.371v51.185h-38.83A33.61,33.61,0,0,0,58.29,238.26h-.481a20.647,20.647,0,0,1-12.156-3.789Zm44.765,33.562a19.61,19.61,0,1,1,19.609-19.61A19.632,19.632,0,0,1,90.343,267.979Zm177.957-.334a19.609,19.609,0,1,1,19.609-19.61A19.631,19.631,0,0,1,268.3,267.645Zm60.355-27.607H300.94a33.6,33.6,0,0,0-65.28,0H175.735V188.813l93.756-.271,41.449,8.065a21.936,21.936,0,0,1,17.715,21.5Z" style="fill:#1ae5be"/><path d="M399.257,215.205V162.451H363.616v10h25.641v52.754a27.046,27.046,0,0,0,20.376,26.175v8.944h10V241.38A27.046,27.046,0,0,1,399.257,215.205Z" style="fill:#d4e1f4"/><path d="M416.633,284.324a7,7,0,0,0,7-7v-3H363.616v10Z" style="fill:#d4e1f4"/><path d="M455.989,242.205H433.633v10h12.356a33.037,33.037,0,0,1,33,33v46.419h10V275.205A33.037,33.037,0,0,0,455.989,242.205Z" style="fill:#d4e1f4"/><path d="M370.954,331.624h7.516a46.084,46.084,0,0,1,8.578-21.293A46.549,46.549,0,0,0,370.954,331.624Z" style="fill:#d4e1f4"/></svg>
