<?xml version="1.0"?>
<svg xmlns="http://www.w3.org/2000/svg" id="Layer_1" data-name="Layer 1" viewBox="0 0 512 512" width="512" height="512"><title>Car Wash</title><path d="M166,304.447c.054-.1.1-.2.153-.3,4.706-9.889,15.07-26.5,31.614-26.618l147.051-1.083H345a22.9,22.9,0,0,1,11,2.763c-8.553-12.609-16.733-18.155-26.389-18.155h-.187l-147.051,1.083c-16.544.122-26.908,16.729-31.614,26.618-.048.1-.1.2-.153.3l-25.212,45.456,24.027-.177Z" style="fill:#d4e1f4"/><path d="M123.379,445.9a9.782,9.782,0,0,1-2.811-6.82,5.634,5.634,0,0,0-.047-.7l-9.13-70.326c.034-11.545,6.047-19.576,13.349-22.763l-8.493.062h-.04a5.439,5.439,0,0,1-.878-.08c-9.682.646-19.287,9.347-19.33,23.484l9.13,68.091a5.473,5.473,0,0,1,.048.676,9.429,9.429,0,0,0,9.383,9.317h.07l9.743-.072A9.784,9.784,0,0,1,123.379,445.9Z" style="fill:#d4e1f4"/><path d="M185.53,410.31H326.47a7,7,0,0,0,6.627-9.254l-4.86-14.289c-3.556-10.455-14.992-18.646-26.036-18.646H209.416c-11.08,0-22.453,8.25-25.893,18.783l-4.647,14.233a7,7,0,0,0,6.654,9.173Zm11.3-19.06c1.561-4.778,7.559-9.129,12.585-9.129H302.2c5.06,0,11.153,4.363,12.782,9.154l1.712,5.035H195.179Z" style="fill:#0635c9"/><path d="M191,133.627H321a7,7,0,0,0,7-7A72.091,72.091,0,0,0,265,55.21c0-.028,0-.055,0-.083v-31a7,7,0,0,0-14,0V54.82a72.081,72.081,0,0,0-67,71.807A7,7,0,0,0,191,133.627Zm65-65a58.089,58.089,0,0,1,57.58,51H198.42A58.089,58.089,0,0,1,256,68.627Z" style="fill:#0635c9"/><path d="M181,153.627H331a7,7,0,0,0,0-14H181a7,7,0,0,0,0,14Z" style="fill:#0635c9"/><path d="M286.283,341.229a7,7,0,0,0,14,0,23.435,23.435,0,0,1,46.869,0,7,7,0,0,0,14,0,37.435,37.435,0,0,0-74.869,0Z" style="fill:#1ae5be"/><path d="M159.072,397.384A22.216,22.216,0,1,0,136.856,419.6,22.241,22.241,0,0,0,159.072,397.384Zm-30.431,0a8.216,8.216,0,1,1,8.215,8.216A8.225,8.225,0,0,1,128.641,397.384Z" style="fill:#1ae5be"/><path d="M375.143,375.168a22.216,22.216,0,1,0,22.216,22.216A22.24,22.24,0,0,0,375.143,375.168Zm0,30.432a8.216,8.216,0,1,1,8.216-8.216A8.225,8.225,0,0,1,375.143,405.6Z" style="fill:#1ae5be"/><path d="M171.245,437.1H345.07a7,7,0,1,0,0-14H171.245a7,7,0,0,0,0,14Z" style="fill:#1ae5be"/><path d="M408.684,307.048c-9.679,0-29.582-.083-29.584-.083l-.058,14s19.944.083,29.642.083c6.481,0,11.961,2.861,13.326,6.959.289.866.537,1.717.75,2.534l-30.947.011a7,7,0,0,0,0,14h0L431,344.538a7,7,0,0,0,6.989-7.337,56.222,56.222,0,0,0-2.7-13.622C431.944,313.537,421.5,307.048,408.684,307.048Z" style="fill:#1ae5be"/><path d="M126.868,337.48a7,7,0,0,0-7-6.991h-.009l-30.615.039c.212-.814.459-1.66.746-2.522,1.365-4.1,6.845-6.958,13.326-6.958,9.684,0,29.723.044,29.725.044l.03-14s-20.061-.044-29.755-.044c-12.816,0-23.26,6.489-26.608,16.531a56.222,56.222,0,0,0-2.7,13.622A7,7,0,0,0,81,344.538h.009l38.868-.049A7,7,0,0,0,126.868,337.48Z" style="fill:#1ae5be"/><path d="M181,191.127a7,7,0,0,0,7-7v-14a7,7,0,0,0-14,0v14A7,7,0,0,0,181,191.127Z" style="fill:#1ae5be"/><path d="M331,191.127a7,7,0,0,0,7-7v-14a7,7,0,0,0-14,0v14A7,7,0,0,0,331,191.127Z" style="fill:#1ae5be"/><path d="M206,191.127a7,7,0,0,0,7-7v-14a7,7,0,0,0-14,0v14A7,7,0,0,0,206,191.127Z" style="fill:#1ae5be"/><path d="M231,191.127a7,7,0,0,0,7-7v-14a7,7,0,0,0-14,0v14A7,7,0,0,0,231,191.127Z" style="fill:#1ae5be"/><path d="M256,191.127a7,7,0,0,0,7-7v-14a7,7,0,0,0-14,0v14A7,7,0,0,0,256,191.127Z" style="fill:#1ae5be"/><path d="M281,191.127a7,7,0,0,0,7-7v-14a7,7,0,0,0-14,0v14A7,7,0,0,0,281,191.127Z" style="fill:#1ae5be"/><path d="M306,191.127a7,7,0,0,0,7-7v-14a7,7,0,0,0-14,0v14A7,7,0,0,0,306,191.127Z" style="fill:#1ae5be"/><path d="M186,219.127a7,7,0,0,0,14,0v-14a7,7,0,0,0-14,0Z" style="fill:#1ae5be"/><path d="M211,219.127a7,7,0,0,0,14,0v-14a7,7,0,0,0-14,0Z" style="fill:#1ae5be"/><path d="M236,219.127a7,7,0,0,0,14,0v-14a7,7,0,0,0-14,0Z" style="fill:#1ae5be"/><path d="M261,219.127a7,7,0,0,0,14,0v-14a7,7,0,0,0-14,0Z" style="fill:#1ae5be"/><path d="M286,219.127a7,7,0,0,0,14,0v-14a7,7,0,0,0-14,0Z" style="fill:#1ae5be"/><path d="M311,219.127a7,7,0,0,0,14,0v-14a7,7,0,1,0-14,0Z" style="fill:#1ae5be"/><path d="M93.193,439.592a21.7,21.7,0,0,0,16.629,20.58v20.36a14.357,14.357,0,0,0,14.34,14.341h22.291a14.357,14.357,0,0,0,14.34-14.341V460.79H351.205v19.742a14.358,14.358,0,0,0,14.341,14.341h22.29a14.357,14.357,0,0,0,14.341-14.341V460.075a21.7,21.7,0,0,0,16.246-20.461l8.945-67.671a6.871,6.871,0,0,0,.061-.918c0-18.117-12.515-33.122-28.683-35.456l-26.925-49.631c-8.548-15.325-21.061-32.916-42.13-32.916H183.544c-17.124,0-32.257,11.711-42.632,32.985l-27.886,49.415c-16.263,2.246-28.456,17.071-28.456,35.6a6.973,6.973,0,0,0,.055.879Zm53.6,40.94a.341.341,0,0,1-.34.341H124.162a.341.341,0,0,1-.34-.341V460.79h22.971Zm241.384,0a.341.341,0,0,1-.341.341h-22.29a.341.341,0,0,1-.341-.341V460.79h22.972ZM153.209,292.7c.072-.126.139-.255.2-.386,4.58-9.446,14.586-25.293,30.132-25.293H329.691c10.9,0,19.842,7.7,29.863,25.664l23.084,42.55H129.206ZM116.19,349.154a7.024,7.024,0,0,0,1.029.082H394.2c.052,0,.1.008.155.008,9.075,0,18.863,8.149,19.073,21.347l-8.935,67.6a6.867,6.867,0,0,0-.061.917,7.689,7.689,0,0,1-7.681,7.681H114.869a7.689,7.689,0,0,1-7.681-7.681,6.985,6.985,0,0,0-.055-.879l-8.56-67.619C98.744,360.327,105.281,349.841,116.19,349.154Z" style="fill:#0635c9"/></svg>
