<?xml version="1.0"?>
<svg xmlns="http://www.w3.org/2000/svg" id="Layer_1" data-name="Layer 1" viewBox="0 0 512 512" width="512" height="512"><title>Artboard 77</title><path d="M83,256a100.414,100.414,0,0,1,85.258-99.135,100.258,100.258,0,1,0,0,198.27A100.414,100.414,0,0,1,83,256Z" style="fill:#d4e1f4"/><path d="M393.9,175.646,185.338,146.408,183.6,160.3,356,184.471a80.326,80.326,0,0,0,0,143.058L223.427,346.115,185.754,351.4l.114,14.122L393.9,336.354a80.364,80.364,0,0,0,0-160.708Zm-1.289,146.741A66.387,66.387,0,1,1,459,256,66.463,66.463,0,0,1,392.613,322.387Z" style="fill:#0635c9"/><path d="M392.613,226.419A29.581,29.581,0,1,0,422.194,256,29.614,29.614,0,0,0,392.613,226.419Zm0,45.162A15.581,15.581,0,1,1,408.194,256,15.6,15.6,0,0,1,392.613,271.581Z" style="fill:#0635c9"/><path d="M153.258,141.742A114.258,114.258,0,1,0,267.516,256,114.388,114.388,0,0,0,153.258,141.742Zm0,214.516A100.258,100.258,0,1,1,253.516,256,100.372,100.372,0,0,1,153.258,356.258Z" style="fill:#1ae5be"/><path d="M153.258,181.258A74.742,74.742,0,1,0,228,256,74.826,74.826,0,0,0,153.258,181.258Zm0,135.484A60.742,60.742,0,1,1,214,256,60.811,60.811,0,0,1,153.258,316.742Z" style="fill:#1ae5be"/></svg>
