<?xml version="1.0"?>
<svg xmlns="http://www.w3.org/2000/svg" id="Layer_1" data-name="Layer 1" viewBox="0 0 512 512" width="512" height="512"><title>Female mechanic</title><path d="M220.32,220.3a8.932,8.932,0,0,0-4.351-1.91c-1.021.319-2.047.587-3.075.83A45.209,45.209,0,0,0,220.32,220.3Z" style="fill:#d4e1f4"/><path d="M108.2,226.275a121.239,121.239,0,0,0,43.52-8.506,153.055,153.055,0,0,0,19.437-9.119,78.092,78.092,0,0,1-8.278-7.235,153.7,153.7,0,0,1-31.159,16.354A125.7,125.7,0,0,1,98.263,225.8Q103.183,226.275,108.2,226.275Z" style="fill:#d4e1f4"/><path d="M80.6,248.082v-.122a7,7,0,0,0-5.793-6.9A13.389,13.389,0,0,1,64.145,224.7a9.154,9.154,0,0,1,.389-1.219,97.522,97.522,0,0,1-14.661-4.793,8.139,8.139,0,0,0-5.728,6.012,13.389,13.389,0,0,0,10.662,16.362,7,7,0,0,1,5.793,6.9v.122A72.916,72.916,0,0,0,143.617,320.4,73.115,73.115,0,0,1,80.6,248.082Z" style="fill:#d4e1f4"/><path d="M153.618,335.1a87.344,87.344,0,0,0,9.213-.506v-4.548a86.437,86.437,0,0,1-19.227,4.463A87.368,87.368,0,0,0,153.618,335.1Z" style="fill:#d4e1f4"/><path d="M124.808,350.434v-15.8a86.352,86.352,0,0,1-20-4.442v20.238a74.873,74.873,0,0,0,39.012,5.157A74.3,74.3,0,0,1,124.808,350.434Z" style="fill:#d4e1f4"/><path d="M153.819,370.274a88.944,88.944,0,0,0,25.649-3.778l-9.328-3.981a88.391,88.391,0,0,1-26.323,7.19A89.2,89.2,0,0,0,153.819,370.274Z" style="fill:#d4e1f4"/><path d="M70.894,382.405,108.171,366.5A87.835,87.835,0,0,1,97.5,362.515l-46.606,19.89A35.9,35.9,0,0,0,31.5,410.984v59.608h20V410.984A35.9,35.9,0,0,1,70.894,382.405Z" style="fill:#d4e1f4"/><path d="M61.562,417.292H206.075v60.414h14V410.292a7,7,0,0,0-7-7h-2.109V367.476h-14v35.816h-4.22V358.365h-14v44.927H88.893v-43.1h-14v43.1h-4.22V367.476h-14v35.816H54.562a7,7,0,0,0-7,7v67.414h14Z" style="fill:#1ae5be"/><path d="M194.855,417.868a7,7,0,0,0-7,7v5.466a7,7,0,0,0,14,0v-5.466A7,7,0,0,0,194.855,417.868Z" style="fill:#0635c9"/><path d="M72.782,417.868a7,7,0,0,0-7,7v5.466a7,7,0,0,0,14,0v-5.466A7,7,0,0,0,72.782,417.868Z" style="fill:#0635c9"/><path d="M250.139,477.592V410.68q0-.291-.025-.581a49.968,49.968,0,0,0-27.288-40.306c-.126-.063-.254-.122-.383-.177l-45.612-19.467v-2.63c10.669.773,22.483.789,23.043.788a7,7,0,0,0,5.769-3.034l1.989-2.894.483,1.222a7.023,7.023,0,0,0,6.958,4.413c18.768-1.2,30.6-4.077,31.1-4.2a7,7,0,0,0,5-8.914l-26.593-83.807a27.406,27.406,0,0,0,12.054-29.722,22.118,22.118,0,0,0-13.082-15.318l.919-13.322L210.5,191.77l-.956,13.858c-21.964,5.067-39.4-16.881-40.161-17.863a7.007,7.007,0,0,0-9.949-1.162c-.506.409-50.117,39.769-101.669,20.165l-1.035-15-13.966.962.917,13.3a22.107,22.107,0,0,0-13.138,15.346,27.4,27.4,0,0,0,13.909,30.781L18.2,334.9a7,7,0,0,0,5,8.914c1.011.249,19.633,4.729,47.226,4.728,6.351,0,13.183-.239,20.382-.821v2.427L45.2,369.616c-.129.055-.257.114-.383.177A49.972,49.972,0,0,0,17.524,410.1q-.024.289-.024.581v66.912a7,7,0,0,0,7,7H243.139A7,7,0,0,0,250.139,477.592ZM235.451,331.646c-4.013.667-9.529,1.439-16.211,2.016l-3.42-8.653a7,7,0,0,0-12.278-1.393l-7.327,10.657c-4.509-.065-12.424-.253-19.384-.794v-9.9a87.422,87.422,0,0,0,40.081-50.359ZM43.762,227.9a13.462,13.462,0,0,1,.383-3.195,8.139,8.139,0,0,1,5.728-6.012A98.925,98.925,0,0,0,88.2,226.275a121.239,121.239,0,0,0,43.52-8.506,153.7,153.7,0,0,0,31.159-16.354,75.7,75.7,0,0,0,12.386,10.12c13.387,8.673,27.4,11.017,40.7,6.855a8.29,8.29,0,0,1,7.065,6.31,13.481,13.481,0,0,1,.383,3.2A13.338,13.338,0,0,1,212.4,241.061a7,7,0,0,0-5.779,6.893v.128a73.013,73.013,0,1,1-146.025,0v-.122a7,7,0,0,0-5.793-6.9A13.336,13.336,0,0,1,43.762,227.9ZM162.831,330.046v20.388a74.929,74.929,0,0,1-58.023,0V330.2a87.016,87.016,0,0,0,58.023-.15Zm-81.047,4.22,2.227-9.353a7,7,0,1,0-13.619-3.242L67.338,334.5a227.784,227.784,0,0,1-33.415-2.858L51.4,276.547A87.471,87.471,0,0,0,90.808,323.8v9.869Q86.193,334.064,81.784,334.266ZM236.139,470.592H31.5V410.984a35.9,35.9,0,0,1,19.394-28.579L97.5,362.515a88.887,88.887,0,0,0,72.64,0l46.605,19.89a35.9,35.9,0,0,1,19.394,28.579Z" style="fill:#0635c9"/><path d="M302.68,32.89l-8.87,33.849a7,7,0,0,0,.451,4.784L300.678,85v99.313h-6.307a15.857,15.857,0,0,0-6.831,30.174l-8.29,28.834a6.993,6.993,0,0,0-.272,1.934v75.6a28.868,28.868,0,0,0,28.835,28.836h17.47a28.868,28.868,0,0,0,28.836-28.836V245.254a7.031,7.031,0,0,0-.272-1.934l-8.29-28.834a15.857,15.857,0,0,0-6.831-30.174h-6.307V85l6.418-13.476a7,7,0,0,0,.451-4.784L330.417,32.89a7,7,0,0,0-6.771-5.226H309.451A7,7,0,0,0,302.68,32.89Zm37.439,287.959a14.853,14.853,0,0,1-14.836,14.836h-17.47a14.853,14.853,0,0,1-14.835-14.836V246.24l8.678-30.186H331.44l8.679,30.186Zm-1.393-122.537a1.871,1.871,0,1,1,0,3.742H294.371a1.871,1.871,0,1,1,0-3.742ZM318.243,41.664,325.1,67.813l-6,12.594a7,7,0,0,0-.68,3.01v100.9h-3.741V83.417a7.008,7.008,0,0,0-.68-3.009l-6-12.595,6.853-26.149Z" style="fill:#0635c9"/><path d="M456.5,28.075a7,7,0,0,0-10.127,6.262V65.919L426.16,79.378,405.408,64.86l.1-30.535a7.009,7.009,0,0,0-10.123-6.3,68.261,68.261,0,0,0-38.1,61.466,68.952,68.952,0,0,0,40.042,62.39V321.124a28.562,28.562,0,0,0,57.123,0V151.882A68.628,68.628,0,0,0,456.5,28.075Zm-11.49,112.582a7,7,0,0,0-4.551,6.558V321.124a14.562,14.562,0,0,1-29.123,0V147.215a7,7,0,0,0-4.551-6.558,54.851,54.851,0,0,1-35.491-51.165A54.281,54.281,0,0,1,391.469,47.07l-.073,21.4a7,7,0,0,0,2.987,5.76L422.05,93.589a7,7,0,0,0,7.892.09l27.309-18.185a7,7,0,0,0,3.12-5.827V47.112A54.3,54.3,0,0,1,480.5,89.492,54.85,54.85,0,0,1,445.008,140.657Z" style="fill:#0635c9"/><path d="M124.135,120.766h21.473a7,7,0,0,0,0-14H124.135a7,7,0,0,0,0,14Z" style="fill:#0635c9"/><path d="M124.135,100.969h21.473a7,7,0,0,0,0-14H124.135a7,7,0,1,0,0,14Z" style="fill:#0635c9"/><path d="M420.215,243.233h9.342a7,7,0,0,0,0-14h-9.342a7,7,0,0,0,0,14Z" style="fill:#1ae5be"/><path d="M420.215,269.415h11.361a7,7,0,0,0,0-14H420.215a7,7,0,1,0,0,14Z" style="fill:#1ae5be"/><path d="M420.215,295.6h11.361a7,7,0,0,0,0-14H420.215a7,7,0,1,0,0,14Z" style="fill:#1ae5be"/><path d="M326.307,319.967a7,7,0,0,0,7-7V260.628a7,7,0,1,0-14,0v52.339A7,7,0,0,0,326.307,319.967Z" style="fill:#1ae5be"/><path d="M306.79,319.967a7,7,0,0,0,7-7V260.628a7,7,0,0,0-14,0v52.339A7,7,0,0,0,306.79,319.967Z" style="fill:#1ae5be"/><path d="M241.028,192.251V169.093a7,7,0,0,0-7-7h-5.262a104.927,104.927,0,0,0-20.126-56.159,95.688,95.688,0,0,0-45.695-33.781l.571-5.494a7,7,0,0,0-6.963-7.722H111.086a7,7,0,0,0-6.963,7.722l.57,5.495a95.652,95.652,0,0,0-45.7,33.864,105.241,105.241,0,0,0-20.112,56.075H33.61a7,7,0,0,0-7,7v23.158a7,7,0,0,0,7,7H234.028A7,7,0,0,0,241.028,192.251ZM114.05,83.939a7,7,0,0,0,5.165-7.488l-.365-3.514h29.939l-.365,3.514a7,7,0,0,0,5.165,7.488,75.153,75.153,0,0,1,11,3.886v7.512a47.434,47.434,0,0,1-29.847,44.045,47.3,47.3,0,0,1-31.695-44.738V87.83A74.879,74.879,0,0,1,114.05,83.939Zm-43.8,30.4A84.234,84.234,0,0,1,89.071,95.8a61.261,61.261,0,0,0,42.4,57.249l1.24.4a7,7,0,0,0,4.442-.038,61.432,61.432,0,0,0,41.432-57.63,84.106,84.106,0,0,1,18.809,18.479,90.789,90.789,0,0,1,17.354,47.826H52.9A91.1,91.1,0,0,1,70.253,114.338Zm156.775,70.913H40.61v-9.158H227.028Z" style="fill:#1ae5be"/></svg>
