<?xml version="1.0"?>
<svg xmlns="http://www.w3.org/2000/svg" id="Layer_1" data-name="Layer 1" viewBox="0 0 512 512" width="512" height="512"><title>Gear Stick</title><path d="M226.5,135.635A59.6,59.6,0,0,1,271,78.053a59.5,59.5,0,1,0,0,115.163A59.6,59.6,0,0,1,226.5,135.635Z" style="fill:#d4e1f4"/><path d="M289.6,377.7V195.485h-14V251H236.4v-55.51h-14V377.7h14V318.2h39.2v59.5Zm-53.2-73.5V265h39.2v39.2Z" style="fill:#0635c9"/><path d="M182.5,135.635a73.5,73.5,0,1,0,73.5-73.5A73.583,73.583,0,0,0,182.5,135.635Zm133,0a59.5,59.5,0,1,1-59.5-59.5A59.567,59.567,0,0,1,315.5,135.635Z" style="fill:#1ae5be"/><path d="M396,442.865v-26.5a47.053,47.053,0,0,0-47-47H163a47.053,47.053,0,0,0-47,47v26.5a7,7,0,0,0,7,7H389A7,7,0,0,0,396,442.865Zm-14-7H130v-19.5a33.038,33.038,0,0,1,33-33H349a33.038,33.038,0,0,1,33,33Z" style="fill:#1ae5be"/></svg>
