<?xml version="1.0"?>
<svg xmlns="http://www.w3.org/2000/svg" id="Layer_1" data-name="Layer 1" viewBox="0 0 512 512" width="512" height="512"><title>Artboard 8</title><polygon points="92.832 436.031 76.978 306.031 54.539 306.031 72.832 456.031 147.181 456.031 141.083 436.031 92.832 436.031" style="fill:#d4e1f4"/><path d="M428.712,303.912l-36.818,19.863-30.444,20.9a6.943,6.943,0,0,1-5.742,3.943l-33.442,22.961a84.25,84.25,0,0,1-51.611,7.14l-74.68-13.751a34.711,34.711,0,0,0-25.27,3.439c-.11.061-.218.126-.324.193l-29.527,18.666,6.728,22.069,32.8-20.735c.106-.067.214-.132.324-.193a34.711,34.711,0,0,1,25.27-3.439l74.68,13.751a84.25,84.25,0,0,0,51.611-7.14l122.928-84.4A22.993,22.993,0,0,0,428.712,303.912Z" style="fill:#d4e1f4"/><path d="M106.918,453.336a19,19,0,1,0-19-19A19.021,19.021,0,0,0,106.918,453.336Zm0-24a5,5,0,1,1-5,5A5.006,5.006,0,0,1,106.918,429.336Z" style="fill:#0635c9"/><path d="M211,158.915h.361L205.812,178a7.017,7.017,0,0,0-.278,1.954V236.4a23.33,23.33,0,0,0,23.3,23.305h13.044A23.331,23.331,0,0,0,265.187,236.4V179.953a7.029,7.029,0,0,0-.278-1.955l-5.549-19.083h.361a7,7,0,0,0,0-14H242.36V49.957a7,7,0,1,0-14,0v94.958H211a7,7,0,0,0,0,14Zm8.534,22.035,6.406-22.035h18.84l6.407,22.035V236.4a9.315,9.315,0,0,1-9.305,9.305H228.838a9.315,9.315,0,0,1-9.3-9.305Z" style="fill:#0635c9"/><path d="M292.1,137.626v99.027a23.049,23.049,0,1,0,46.1,0V137.626a52.871,52.871,0,0,0,.529-94.888A7,7,0,0,0,328.6,49V71.549l-13.23,8.81L301.689,70.79,301.764,49a7.006,7.006,0,0,0-10.121-6.3,52.587,52.587,0,0,0-29.351,47.353A53.126,53.126,0,0,0,292.1,137.626Zm-4.38-75.134-.04,11.911a7,7,0,0,0,2.987,5.759L311.257,94.57a7,7,0,0,0,7.892.091l20.328-13.537A7,7,0,0,0,342.6,75.3V62.518a38.9,38.9,0,0,1-13.851,63.943,7,7,0,0,0-4.551,6.558V236.653a9.049,9.049,0,1,1-18.1,0V133.019a7,7,0,0,0-4.551-6.558,38.9,38.9,0,0,1-13.829-63.969Z" style="fill:#0635c9"/><path d="M203.231,398.7l74.909,13.793a98.35,98.35,0,0,0,60.776-8.581,7.123,7.123,0,0,0,.856-.5l129.557-88.955a7,7,0,0,0,2.035-9.382,36.971,36.971,0,0,0-49.3-13.482l-1.206.65c-9.432-10.646-25.1-14.622-37.122-8.528-.052.026-.1.053-.155.081l-4.376,2.358a41.007,41.007,0,0,0-46.19-3.639L305.271,297.6h-37a52.543,52.543,0,0,1-22.743-5.211l-5.138-2.485a89.564,89.564,0,0,0-93.215,9.1c-.153.116-.3.237-.445.365l-12.407,11.045a41.632,41.632,0,0,1-20.129,9.848,7,7,0,0,0,2.542,13.767,55.632,55.632,0,0,0,26.9-13.158l12.187-10.85a75.621,75.621,0,0,1,78.476-7.517l5.138,2.485a66.613,66.613,0,0,0,28.838,6.608H318.1a30.1,30.1,0,0,1,29.134,22.683l-34.274-1.551a217.437,217.437,0,0,0-39.563,1.828,7,7,0,1,0,1.92,13.868,203.562,203.562,0,0,1,37.011-1.71l42.5,1.923c.106,0,.211.007.317.007a7,7,0,0,0,7-7c0-.624-.021-1.243-.047-1.862l5.04-2.657,61.57-33.216a22.993,22.993,0,0,1,26.482,3.267l-122.928,84.4a84.25,84.25,0,0,1-51.611,7.14l-74.68-13.751a34.711,34.711,0,0,0-25.27,3.439c-.11.061-.218.126-.324.193l-40.559,25.64a7,7,0,1,0,7.482,11.834l40.387-25.533a20.765,20.765,0,0,1,15.1-1.939Q203.01,398.66,203.231,398.7ZM339.781,294.77l.166-.094a27,27,0,0,1,25.212-.956l-21.9,11.8a43.891,43.891,0,0,0-12.241-5.986Zm20.773,30-1.465.773a43.993,43.993,0,0,0-5.364-9.764l36.41-19.618c5.679-2.833,12.7-.927,17.742,3.079Z" style="fill:#1ae5be"/><path d="M59.685,463.878a7,7,0,0,0,6.948,6.153h90a7,7,0,0,0,6.7-9.041l-50-164a7,7,0,0,0-6.7-4.959h-60a7,7,0,0,0-6.948,7.847Zm41.764-157.847,45.732,150H72.832l-18.293-150Z" style="fill:#0635c9"/></svg>
