<?xml version="1.0"?>
<svg xmlns="http://www.w3.org/2000/svg" id="Layer_1" data-name="Layer 1" viewBox="0 0 512 512" width="512" height="512"><title>Hand Tools</title><path d="M209.749,411.079l-20.736,20.736a5.617,5.617,0,0,1-7.943,0l-110.4-110.4-6.029,6.028a5.623,5.623,0,0,0,0,7.944L181.07,451.815a5.617,5.617,0,0,0,7.943,0l26.764-26.765a5.621,5.621,0,0,0,0-7.943Z" style="fill:#d4e1f4"/><path d="M324.066,231.793,292.84,263.018a7,7,0,1,0,9.9,9.9l20.554-20.553,2.643-2.642a10.667,10.667,0,0,1,1.283-1.082l6.846-6.847a10.646,10.646,0,0,0-6.912-18.169A10.627,10.627,0,0,1,324.066,231.793Z" style="fill:#d4e1f4"/><path d="M285.7,170.235l-.888.887,0,0L242.88,213.058a7,7,0,1,0,9.9,9.9l41.946-41.945a10.561,10.561,0,0,1,1.174-1,10.637,10.637,0,0,0-7.108-17.951A10.633,10.633,0,0,1,285.7,170.235Z" style="fill:#d4e1f4"/><path d="M309.791,196.107l-10.7,10.7,0,0L267.86,238.038a7,7,0,1,0,9.9,9.9L309,216.7a10.682,10.682,0,0,1,1.258-1.058l9.537-9.537a10.644,10.644,0,0,0-6.912-18.168A10.629,10.629,0,0,1,309.791,196.107Z" style="fill:#d4e1f4"/><path d="M160.221,220.016l.533.253a49.462,49.462,0,0,0,5.574,2.234,6.981,6.981,0,0,1,9.893-5.136l.532.252a33.6,33.6,0,0,0,33.834-2.819c.751-.606,1.49-1.232,2.208-1.89q.867-.8,1.708-1.635l.755-.755-9.9-9.9-.753.753q-.624.624-1.271,1.218c-9.622,8.82-24.323,10.842-36.581,5.028l-.532-.252a7,7,0,1,0-6,12.649Z" style="fill:#d4e1f4"/><path d="M351.017,259.722a10.585,10.585,0,0,0-6.909-3.093c.013.211.032.42.032.633a10.6,10.6,0,0,1-3.124,7.54l-73.155,73.156a200.378,200.378,0,0,1-54.9,38.948l-11.871,5.716-80.337-80.336h0l90.337,90.336,11.871-5.716a200.378,200.378,0,0,0,54.9-38.948L351.016,274.8a10.662,10.662,0,0,0,0-15.08Z" style="fill:#d4e1f4"/><path d="M378.542,298.656,357.8,277.916l-9.9,9.9,24.028,24.027a7,7,0,0,0,7.855,1.419,49.132,49.132,0,0,1,54.888,9.928,48.628,48.628,0,0,1,14.217,38.278l-12.713-12.8a7,7,0,0,0-6.186-1.96l-30.178,5.334a7,7,0,0,0-5.644,5.516l-5.856,29.2a7,7,0,0,0,1.915,6.327l13.5,13.5a48.956,48.956,0,0,1-48.153-69.106,7,7,0,0,0-1.418-7.855l-24.027-24.027-9.9,9.9,20.74,20.74A63.235,63.235,0,0,0,355.6,402.261a62.583,62.583,0,0,0,44.358,18.471,63.474,63.474,0,0,0,20.107-3.288,7,7,0,0,0,2.733-11.59l-20.023-20.022L406.956,365l21.867-3.865,19.291,19.424a7.007,7.007,0,0,0,11.611-2.7,62.6,62.6,0,0,0-15.152-64.56A63.233,63.233,0,0,0,378.542,298.656Z" style="fill:#1ae5be"/><path d="M171.309,166.57l49,49,9.9-9.9-52.287-52.286a7,7,0,0,0-7.856-1.419,49.13,49.13,0,0,1-54.887-9.928,48.625,48.625,0,0,1-14.217-38.278l12.713,12.8a6.994,6.994,0,0,0,6.185,1.96l30.178-5.333a7,7,0,0,0,5.645-5.517l5.855-29.2a7,7,0,0,0-1.914-6.326l-13.5-13.5a48.956,48.956,0,0,1,48.152,69.106,7,7,0,0,0,1.418,7.855L247.982,187.9l9.9-9.9-49-49a62.933,62.933,0,0,0-79.1-81.214,7,7,0,0,0-2.732,11.59L147.073,79.4,142.9,100.231,121.027,104.1,101.736,84.672a7.006,7.006,0,0,0-11.61,2.7,62.6,62.6,0,0,0,15.152,64.561A63.235,63.235,0,0,0,171.309,166.57Z" style="fill:#1ae5be"/><path d="M287.761,357.858,360.915,284.7a24.676,24.676,0,0,0-11.466-41.378,24.625,24.625,0,0,0-15.735-32.652,24.606,24.606,0,0,0-20.958-36.733,24.627,24.627,0,0,0-42.033-18.684l-56.118,56.118q-.624.624-1.271,1.218c-9.622,8.82-24.323,10.842-36.581,5.028l-.532-.252a7,7,0,1,0-6,12.649l.533.253c17.625,8.356,38.054,5.468,52.041-7.359q.867-.8,1.708-1.635l56.119-56.121A10.664,10.664,0,1,1,295.7,180.235l-.888.887,0,0L252.88,223.058a7,7,0,1,0,9.9,9.9l41.946-41.945a10.663,10.663,0,0,1,15.065,15.094l-10.7,10.7,0,0L277.86,248.038a7,7,0,1,0,9.9,9.9L319,226.7a10.664,10.664,0,0,1,15.07,15.091L302.84,273.018a7,7,0,1,0,9.9,9.9l20.554-20.553,2.643-2.642a10.663,10.663,0,1,1,15.079,15.08l-73.155,73.156a200.378,200.378,0,0,1-54.9,38.948l-11.871,5.716-90.337-90.336a84.027,84.027,0,0,0,20.067-54.707v-13.2a23.309,23.309,0,0,1,6.871-16.588l38.418-37.418-9.9-9.9-38.419,37.419a37.218,37.218,0,0,0-10.971,26.487v13.2a70.145,70.145,0,0,1-15.991,44.783l-1.579-1.58a19.617,19.617,0,0,0-27.742,0L54.745,317.547a19.641,19.641,0,0,0,0,27.742L171.171,461.715a19.617,19.617,0,0,0,27.742,0l26.765-26.764a19.641,19.641,0,0,0,0-27.742l-4.1-4.1,7.455-3.59A214.383,214.383,0,0,0,287.761,357.858ZM215.777,425.05l-26.764,26.765a5.617,5.617,0,0,1-7.943,0L64.646,335.39a5.623,5.623,0,0,1,0-7.944L91.41,300.682a5.617,5.617,0,0,1,7.943,0L215.777,417.107A5.621,5.621,0,0,1,215.777,425.05Z" style="fill:#0635c9"/></svg>
