<?xml version="1.0"?>
<svg xmlns="http://www.w3.org/2000/svg" id="Layer_1" data-name="Layer 1" viewBox="0 0 512 512" width="512" height="512"><title>Jumper cables and nuts</title><path d="M307.938,157.391a7,7,0,0,0,6.062,3.5h70a7,7,0,0,0,6.062-3.5l35-60.621a7,7,0,0,0,0-7l-35-60.623a7,7,0,0,0-6.062-3.5H314a7,7,0,0,0-6.062,3.5l-35,60.623a7,7,0,0,0,0,7Zm10.1-117.744h61.918L410.917,93.27l-30.958,53.621H318.041L287.083,93.27Z" style="fill:#0635c9"/><path d="M272.938,259.5l35,60.622a7,7,0,0,0,6.062,3.5h70a7,7,0,0,0,6.062-3.5l35-60.622a7,7,0,0,0,0-7l-35-60.622a7,7,0,0,0-6.062-3.5H314a7,7,0,0,0-6.062,3.5l-35,60.622A7,7,0,0,0,272.938,259.5Zm45.1-57.122h61.918L410.917,256l-30.958,53.622H318.041L287.083,256Z" style="fill:#0635c9"/><path d="M272.938,422.23l35,60.623a7,7,0,0,0,6.062,3.5h70a7,7,0,0,0,6.062-3.5l35-60.623a7,7,0,0,0,0-7l-35-60.621a7,7,0,0,0-6.062-3.5H314a7,7,0,0,0-6.062,3.5l-35,60.621A7,7,0,0,0,272.938,422.23Zm45.1-57.121h61.918l30.958,53.621-30.958,53.623H318.041L287.083,418.73Z" style="fill:#0635c9"/><path d="M349,120.27a27,27,0,1,0-27-27A27.031,27.031,0,0,0,349,120.27Zm0-40a13,13,0,1,1-13,13A13.014,13.014,0,0,1,349,80.27Z" style="fill:#1ae5be"/><path d="M349,229a27,27,0,1,0,27,27A27.03,27.03,0,0,0,349,229Zm0,40a13,13,0,1,1,13-13A13.015,13.015,0,0,1,349,269Z" style="fill:#1ae5be"/><path d="M349,391.73a27,27,0,1,0,27,27A27.031,27.031,0,0,0,349,391.73Zm0,40a13,13,0,1,1,13-13A13.014,13.014,0,0,1,349,431.73Z" style="fill:#1ae5be"/><path d="M120,444.758V304.163H100V444.758a27.577,27.577,0,0,0,37.6,25.711A27.634,27.634,0,0,1,120,444.758Z" style="fill:#d4e1f4"/><rect x="100" y="226.865" width="20" height="63.297" style="fill:#d4e1f4"/><rect x="190.811" y="226.865" width="20" height="63.297" style="fill:#d4e1f4"/><path d="M210.811,444.758V304.163h-20V444.758a27.576,27.576,0,0,0,37.594,25.711A27.633,27.633,0,0,1,210.811,444.758Z" style="fill:#d4e1f4"/><rect x="93" y="250.163" width="69.189" height="14" style="fill:#1ae5be"/><rect x="183.811" y="250.163" width="69.189" height="14" style="fill:#1ae5be"/><path d="M110.811,39.647h28.352l5.4,19.828a47.677,47.677,0,0,0,18.694,84.975,28.888,28.888,0,0,0-.476,26.175,31.467,31.467,0,0,0-21.2,29.705v19.535h14V200.33a17.42,17.42,0,0,1,34.84,0v19.535h14V200.33a31.448,31.448,0,0,0-25.108-30.786,14.989,14.989,0,0,1,2.91-24.98,47.694,47.694,0,0,0,19.213-85.089l5.4-19.828h28.352V219.865h14V32.647a7,7,0,0,0-7-7h-40.7a7,7,0,0,0-6.754,5.16L186.6,60.681a7,7,0,0,0,3.252,7.9,33.7,33.7,0,1,1-33.7,0,7,7,0,0,0,3.252-7.9l-8.139-29.874a7,7,0,0,0-6.754-5.16h-40.7a7,7,0,0,0-7,7V219.865h14Z" style="fill:#1ae5be"/><path d="M162.189,212.865H93a7,7,0,0,0-7,7V444.758a41.595,41.595,0,1,0,83.189,0V219.865A7,7,0,0,0,162.189,212.865Zm-7,231.893a27.595,27.595,0,1,1-55.189,0V304.163h55.189Zm0-154.595H100v-63.3h55.189Z" style="fill:#0635c9"/><path d="M260,444.758V219.865a7,7,0,0,0-7-7H183.811a7,7,0,0,0-7,7V444.758a41.595,41.595,0,1,0,83.189,0ZM190.811,226.865H246v63.3H190.811Zm0,217.893V304.163H246V444.758a27.595,27.595,0,1,1-55.189,0Z" style="fill:#0635c9"/></svg>
