<?xml version="1.0"?>
<svg xmlns="http://www.w3.org/2000/svg" id="Layer_1" data-name="Layer 1" viewBox="0 0 512 512" width="512" height="512"><title>Mechanic coat</title><path d="M300.777,416V196.785c0-16.9,10.327-32.285,25.7-38.283A90,90,0,0,0,383.624,79.3h-20a90,90,0,0,1-57.15,79.206c-15.37,6-25.7,21.383-25.7,38.283V416a16.723,16.723,0,0,0,16.7,16.7h20A16.723,16.723,0,0,1,300.777,416Z" style="fill:#d4e1f4"/><path d="M123,416V228.223a54.442,54.442,0,0,0,19.907-68.474C130.629,133.14,123.977,106.1,123.1,79.3h-20c.877,26.808,7.529,53.844,19.807,80.453A54.442,54.442,0,0,1,103,228.223V416a16.722,16.722,0,0,0,16.7,16.7h20A16.722,16.722,0,0,1,123,416Z" style="fill:#d4e1f4"/><rect x="273.777" y="318.926" width="142.223" height="14" style="fill:#1ae5be"/><rect x="97.186" y="318.926" width="141.037" height="14" style="fill:#1ae5be"/><rect x="273.777" y="366.333" width="142.223" height="14" style="fill:#1ae5be"/><rect x="97.186" y="366.333" width="141.037" height="14" style="fill:#1ae5be"/><path d="M155.259,65.3H96a7,7,0,0,0-7,7V73.2c0,30.841,7.131,61.933,21.195,92.413a40.439,40.439,0,0,1-17.523,52.464A7,7,0,0,0,89,224.237V416a30.738,30.738,0,0,0,30.7,30.7h94.815a30.738,30.738,0,0,0,30.7-30.7V196.785c0-22.621-13.908-43.247-34.607-51.326A75.474,75.474,0,0,1,162.409,79.3H349.591a75.476,75.476,0,0,1-48.207,66.164c-20.7,8.078-34.607,28.7-34.607,51.325V416a30.738,30.738,0,0,0,30.7,30.7H392.3A30.738,30.738,0,0,0,423,416V224.237a7,7,0,0,0-3.672-6.158,40.438,40.438,0,0,1-17.522-52.465C415.869,135.135,423,104.043,423,73.2V72.3a7,7,0,0,0-7-7H155.259Zm208.365,14H408.9c-.877,26.808-7.529,53.844-19.806,80.452A54.44,54.44,0,0,0,409,228.223V416a16.722,16.722,0,0,1-16.7,16.7H297.481a16.723,16.723,0,0,1-16.7-16.7V196.785c0-16.9,10.327-32.285,25.7-38.283A90,90,0,0,0,363.624,79.3Zm-199.3,46.695a89.827,89.827,0,0,0,41.2,32.51c15.37,6,25.7,21.384,25.7,38.284V416a16.723,16.723,0,0,1-16.7,16.7H119.7A16.722,16.722,0,0,1,103,416V228.223a54.442,54.442,0,0,0,19.907-68.474C110.629,133.14,103.977,106.1,103.1,79.3h45.276A89.337,89.337,0,0,0,164.327,125.991Z" style="fill:#0635c9"/><path d="M296.3,245.444H215.7a7,7,0,1,0,0,14H296.3a7,7,0,1,0,0-14Z" style="fill:#1ae5be"/><path d="M303.3,278.519a7,7,0,0,0-7-7H215.7a7,7,0,0,0,0,14H296.3A7,7,0,0,0,303.3,278.519Z" style="fill:#1ae5be"/><path d="M296.3,219.37H215.7a7,7,0,0,0,0,14H296.3a7,7,0,0,0,0-14Z" style="fill:#1ae5be"/></svg>
