<?xml version="1.0"?>
<svg xmlns="http://www.w3.org/2000/svg" id="Layer_1" data-name="Layer 1" viewBox="0 0 512 512" width="512" height="512"><title>Oil funnel</title><path d="M254,321.005v-93.79a7,7,0,0,0-1.416-4.221L120.066,47.693h-30l132.518,175.3A7,7,0,0,1,224,227.215v93.79l64,35.218V339.715Z" style="fill:#d4e1f4"/><rect x="115.262" y="85.484" width="281.349" height="14" style="fill:#1ae5be"/><path d="M262.157,374.928a7,7,0,0,0-12.314,0L223.457,423.7a37.228,37.228,0,0,0,6.38,43.767h0A37,37,0,0,0,288.543,423.7Zm10.107,82.642a23.029,23.029,0,0,1-32.528,0h0a23.142,23.142,0,0,1-3.966-27.206L256,392.971l20.229,37.393A23.144,23.144,0,0,1,272.264,457.57Z" style="fill:#1ae5be"/><path d="M436,33.693H76a7,7,0,0,0-5.584,11.222L210,229.563v95.58a7,7,0,0,0,3.625,6.133l78,42.921A7,7,0,0,0,302,368.064v-138.5L441.584,44.915A7,7,0,0,0,436,33.693Zm-146.584,189.3A7,7,0,0,0,288,227.215V356.223l-64-35.218v-93.79a7,7,0,0,0-1.416-4.221L90.066,47.693H421.934Z" style="fill:#0635c9"/></svg>
