<?xml version="1.0"?>
<svg xmlns="http://www.w3.org/2000/svg" id="Layer_1" data-name="Layer 1" viewBox="0 0 512 512" width="512" height="512"><title>Repair</title><path d="M167.782,131.282C172.7,116.815,184.521,107.1,197.2,107.1H372.349c-6.036-12.6-15.936-20-27.166-20H167.2c-12.68,0-24.5,9.719-29.419,24.186-3.49,10.273-8.467,37.794-10.76,51.047,7,.691,18.6,1.767,33.09,2.858C162.515,152.419,165.474,138.078,167.782,131.282Z" style="fill:#d4e1f4"/><path d="M284.535,183.079c40.7,0,82.655-2.727,109.747-4.913-1.164-.872-2.258-1.686-3.216-2.394-12.682,1.269-66.435,6.35-121.508,7.188C274.536,183.037,279.537,183.079,284.535,183.079Z" style="fill:#d4e1f4"/><path d="M118,262.948V214.479c0-6.428,5.213-15.569,10.252-20.693,2.976-3.026,12.354-10.382,19.115-15.563-12.979-1.075-22.48-2.027-26.757-2.473-6.545,4.961-18.865,14.486-22.358,18.036C93.213,198.91,88,208.051,88,214.479v48.469a24.5,24.5,0,0,0,24.475,24.475h30A24.5,24.5,0,0,1,118,262.948Z" style="fill:#d4e1f4"/><path d="M169.221,228.984c3.658,11.2,15.751,19.969,27.529,19.969H314.834c11.743,0,23.9-8.709,27.687-19.828l5.273-15.5a7,7,0,0,0-6.627-9.254H170.833a7,7,0,0,0-6.654,9.172Zm162.172-10.617-2.126,6.25c-1.84,5.409-8.72,10.336-14.433,10.336H196.75c-5.78,0-12.426-4.821-14.221-10.315l-2.047-6.271Z" style="fill:#0635c9"/><path d="M74.936,466.017l.2-83.017h53.017a7,7,0,0,0,7-7V356a7,7,0,0,0-7-7H59.846V46a7,7,0,0,0-7-7H28.154a7,7,0,0,0-7,7V466a7,7,0,0,0,7,7H67.936A7,7,0,0,0,74.936,466.017ZM35.154,53H45.846V349H35.154Zm26,322.983L60.952,459h-25.8V363h86v6h-53A7,7,0,0,0,61.154,375.983Z" style="fill:#1ae5be"/><path d="M483.846,39H459.154a7,7,0,0,0-7,7V349H383.846a7,7,0,0,0-7,7v20a7,7,0,0,0,7,7h53.017l.2,83.017a7,7,0,0,0,7,6.983h39.782a7,7,0,0,0,7-7V46A7,7,0,0,0,483.846,39Zm-7,420h-25.8l-.2-83.017a7,7,0,0,0-7-6.983h-53v-6h86Zm0-110H466.154V53h10.692Z" style="fill:#1ae5be"/><path d="M360.586,248.99H431a7,7,0,0,0,0-14H368.514a16.861,16.861,0,0,1,2.2-5.4c5-7.231,13.184-10.89,25.008-11.186,6.369-.161,34.516,0,34.8,0a7,7,0,0,0,.081-14c-1.167-.008-28.649-.164-35.233,0-16.377.409-28.546,6.2-36.168,17.214-5.456,7.884-5.613,19.116-5.613,20.371A7,7,0,0,0,360.586,248.99Z" style="fill:#1ae5be"/><path d="M74,241.99a7,7,0,0,0,7,7h70.414a7,7,0,0,0,7-7c0-1.255-.157-12.487-5.613-20.371-7.622-11.013-19.791-16.805-36.167-17.214-6.587-.167-33.732-.009-34.884,0a7,7,0,0,0,.04,14h.042c.28,0,28.079-.163,34.451,0,11.822.3,20,3.954,25.006,11.185a16.672,16.672,0,0,1,2.2,5.4H81A7,7,0,0,0,74,241.99Z" style="fill:#1ae5be"/><path d="M204.382,268.689H307.618a7,7,0,0,0,0-14H204.382a7,7,0,0,0,0,14Z" style="fill:#1ae5be"/><path d="M97.982,298.58v25.648a14.982,14.982,0,0,0,14.966,14.965h24.573a14.982,14.982,0,0,0,14.965-14.965V301.423h205.28v22.805a14.982,14.982,0,0,0,14.965,14.965h26.323a14.982,14.982,0,0,0,14.965-14.965V298.58A38.531,38.531,0,0,0,438,262.948V214.479c0-9.833-5.344-21.2-14.3-30.416-4.915-5.056-18.367-15.153-24.1-19.39-1.64-10.217-7.464-45.226-12.224-58C379.667,85.962,363.5,73.1,345.183,73.1H167.2c-18.678,0-35.828,13.535-42.675,33.682-4.316,12.706-10.282,47.059-12.055,57.574-5.373,4.064-19.611,14.951-24.2,19.616C81.4,190.957,74,203.486,74,214.479v48.469A38.528,38.528,0,0,0,97.982,298.58Zm40.5,25.648a.966.966,0,0,1-.965.965H112.948a.967.967,0,0,1-.966-.965V301.411c.165,0,.328.012.493.012h26.011Zm261.533,0a.966.966,0,0,1-.965.965H372.731a.966.966,0,0,1-.965-.965V301.423h27.759c.166,0,.329-.01.494-.012ZM137.782,111.282C142.7,96.815,154.521,87.1,167.2,87.1H345.183c12.5,0,23.373,9.145,29.078,24.465,3.747,10.055,8.57,37.513,10.766,50.734-19.784,1.89-76.279,6.784-130.492,6.784-53.892,0-108.195-4.841-127.513-6.75C129.315,149.076,134.292,121.555,137.782,111.282ZM88,214.479c0-6.428,5.213-15.569,10.252-20.693,3.493-3.55,15.813-13.075,22.358-18.036,12.936,1.35,73.658,7.329,133.925,7.329,59.984,0,122.7-5.923,136.531-7.307,6.492,4.8,18.741,14.079,22.6,18.048C420.04,200.381,424,208.3,424,214.479v48.469a24.5,24.5,0,0,1-24.475,24.475H112.475A24.5,24.5,0,0,1,88,262.948Z" style="fill:#0635c9"/></svg>
