<?xml version="1.0"?>
<svg xmlns="http://www.w3.org/2000/svg" id="Layer_1" data-name="Layer 1" viewBox="0 0 512 512" width="512" height="512"><title>Screw</title><polygon points="142.223 159.323 133.599 167.947 207.434 241.783 212.465 229.565 142.223 159.323" style="fill:#d4e1f4"/><polygon points="223.189 240.289 218.158 252.507 278.229 312.579 283.261 300.361 223.189 240.289" style="fill:#d4e1f4"/><polygon points="378.057 395.156 300.798 317.897 315.804 281.455 308.991 274.642 288.954 323.303 360.484 394.833 398.269 398.269 398.151 396.984 378.057 395.156" style="fill:#d4e1f4"/><path d="M408.547,356.693a7,7,0,0,0-2.022-4.316l-91.759-91.76,3.9-9.474a7,7,0,0,0-12.945-5.331l-1.681,4.081L243.97,189.821l3.9-9.474a7,7,0,1,0-12.945-5.33l-1.681,4.08L172.9,118.749a7,7,0,0,0-9.9,0L118.749,163a7,7,0,0,0,0,9.9l82.91,82.911-3.9,9.474a7,7,0,1,0,12.945,5.33l1.681-4.08L272.455,326.6l-3.9,9.474a7,7,0,1,0,12.945,5.33l1.681-4.08,69.2,69.2a7,7,0,0,0,4.316,2.022l48.673,4.425c.212.018.424.028.634.028a7,7,0,0,0,6.972-7.634ZM207.434,241.783,133.6,167.947,167.947,133.6l59.524,59.523Zm70.795,70.8-60.071-60.072L238.2,203.846l60.072,60.072Zm82.255,82.254-71.53-71.53,20.037-48.661,85.842,85.842,3.436,37.785Z" style="fill:#0635c9"/><path d="M208.665,135.811a7,7,0,0,0-9.138,3.807l-37.168,90.266a7,7,0,1,0,12.946,5.33l37.168-90.266A7,7,0,0,0,208.665,135.811Z" style="fill:#1ae5be"/><path d="M279.462,206.607a7,7,0,0,0-9.138,3.808L233.155,300.68a7,7,0,1,0,12.946,5.33l37.169-90.265A7,7,0,0,0,279.462,206.607Z" style="fill:#1ae5be"/><path d="M350.258,277.4a7,7,0,0,0-9.138,3.808l-37.168,90.266a7,7,0,1,0,12.945,5.33l37.168-90.266A7,7,0,0,0,350.258,277.4Z" style="fill:#1ae5be"/><path d="M190.6,101.05a7,7,0,0,0-9.9,0L101.05,180.7a7,7,0,0,0,9.9,9.9L190.6,110.95A7,7,0,0,0,190.6,101.05Z" style="fill:#1ae5be"/></svg>
