<?xml version="1.0"?>
<svg xmlns="http://www.w3.org/2000/svg" id="Layer_1" data-name="Layer 1" viewBox="0 0 512 512" width="512" height="512"><title> Screwdriver Wrench</title><path d="M120.438,440.991l-19.429-19.429a27.378,27.378,0,0,1,0-38.672L214.132,269.767,238.1,256.65l.041-.022,2.212-1.211-10.611-10.61-21.6,11.821-.041.022-23.968,13.117L71.009,382.89a27.378,27.378,0,0,0,0,38.672l19.429,19.429a27.393,27.393,0,0,0,34.336,3.53A27.367,27.367,0,0,1,120.438,440.991Z" style="fill:#d4e1f4"/><path d="M432.738,424.425,299.3,290.987a20.939,20.939,0,0,1-21.363.8L270.214,305.9,411.738,447.425a25.214,25.214,0,0,0,42.991-15.968A25.217,25.217,0,0,1,432.738,424.425Z" style="fill:#d4e1f4"/><path d="M223.681,209.368l-8.218-8.218a7,7,0,0,0-7.855-1.419A85.317,85.317,0,0,1,93.971,155.747l-1.735.306a7,7,0,0,1-6.185-1.96l-27.42-27.609a84.591,84.591,0,0,0,23.477,75.974,85.484,85.484,0,0,0,95.5,17.273,7,7,0,0,1,7.855,1.419L206.1,241.786l14.111-7.722a20.943,20.943,0,0,1,3.471-24.7Z" style="fill:#d4e1f4"/><path d="M157.236,93.656,149.708,131.2l22.238-3.93a7,7,0,0,0,5.645-5.517l9.645-48.095a6.982,6.982,0,0,0-.338-3.875A84.466,84.466,0,0,0,126.6,58.61l28.72,28.72A7,7,0,0,1,157.236,93.656Z" style="fill:#d4e1f4"/><path d="M388.968,113.2a7.011,7.011,0,0,0,1.648-2.609l7.826-22.057L439.084,64.77l8.146,8.146-23.763,40.642-22.057,7.826a7.011,7.011,0,0,0-2.609,1.648l-95.275,95.275,9.9,9.9,94.158-94.158L430.56,125.9a7,7,0,0,0,3.7-3.063l27.781-47.514a7,7,0,0,0-1.093-8.483L445.164,51.05a7,7,0,0,0-8.483-1.093L389.167,77.738a7,7,0,0,0-3.063,3.7l-8.153,22.977-94.158,94.158,9.9,9.9Z" style="fill:#1ae5be"/><path d="M399.748,406.6a7,7,0,0,0,4.949-11.95L294.012,283.968a7,7,0,0,0-9.9,9.9L394.8,404.553A6.981,6.981,0,0,0,399.748,406.6Z" style="fill:#1ae5be"/><path d="M218.481,228.235a7,7,0,0,0,9.9-9.9l-13.895-13.9a7,7,0,0,0-9.9,9.9Z" style="fill:#1ae5be"/><path d="M178.906,234.392l14.4,14.4-16.772,9.178a7.012,7.012,0,0,0-1.589,1.191L61.11,372.99a41.392,41.392,0,0,0,0,58.471L80.539,450.89a41.393,41.393,0,0,0,58.471,0L252.842,337.058a7.012,7.012,0,0,0,1.191-1.589l9.178-16.772L401.839,457.325a39.236,39.236,0,0,0,55.487-55.488L306.548,251.059l13.373-13.373a7,7,0,0,0,0-9.9l-35.708-35.708a7,7,0,0,0-9.9,0L260.94,205.452,234.393,178.9A99.138,99.138,0,0,0,110.807,48.291a7,7,0,0,0-2.733,11.589l34.7,34.7L134.8,134.313,93.4,141.63,59.957,107.953a7.011,7.011,0,0,0-11.616,2.7A99.139,99.139,0,0,0,178.906,234.392Zm76.468,69.464c-.008.016-.017.031-.025.046l-13.116,23.966L129.11,440.991a27.376,27.376,0,0,1-38.672,0L71.009,421.562a27.378,27.378,0,0,1,0-38.672L184.132,269.767,208.1,256.65l.041-.022,21.6-11.821,37.451,37.451ZM308.893,273.2,447.427,411.737a25.236,25.236,0,0,1-35.689,35.688L270.214,305.9l7.723-14.111A20.954,20.954,0,0,0,308.9,273.382C308.9,273.322,308.894,273.263,308.893,273.2Zm-29.629-66.275,25.808,25.808-10.93,10.931-25.809-25.809Zm13.6,61.537a6.953,6.953,0,1,1-9.833,9.833l-49.33-49.33a6.953,6.953,0,1,1,9.833-9.833ZM58.631,126.484l27.42,27.609a7,7,0,0,0,6.185,1.96l49.71-8.785a7,7,0,0,0,5.645-5.517l9.645-48.095a7,7,0,0,0-1.913-6.326L126.6,58.61a84.625,84.625,0,0,1,75.857,23.5,85.484,85.484,0,0,1,17.272,95.5,7,7,0,0,0,1.419,7.855L238.8,203.107c-.059,0-.118-.009-.178-.009a20.956,20.956,0,0,0-18.408,30.966L206.1,241.786,185.463,221.15a7,7,0,0,0-7.855-1.419,85.484,85.484,0,0,1-95.5-17.273A84.591,84.591,0,0,1,58.631,126.484Z" style="fill:#0635c9"/><path d="M114.729,418.977a7,7,0,0,0,9.9,0l80.528-80.528a7,7,0,1,0-9.9-9.9l-80.527,80.528A7,7,0,0,0,114.729,418.977Z" style="fill:#1ae5be"/><path d="M97.973,399.322a6.976,6.976,0,0,0,4.949-2.051l80.528-80.527a7,7,0,1,0-9.9-9.9L93.023,387.372a7,7,0,0,0,4.95,11.95Z" style="fill:#1ae5be"/></svg>
