<?xml version="1.0"?>
<svg xmlns="http://www.w3.org/2000/svg" id="Layer_1" data-name="Layer 1" viewBox="0 0 512 512" width="512" height="512"><title>Search service station</title><path d="M389.905,456.3c-78.715,0-142.754-64.039-142.754-142.754a142.272,142.272,0,0,1,82.414-129.271,142.5,142.5,0,0,0-113.9,139.768c0,78.715,64.039,142.754,142.754,142.754a141.89,141.89,0,0,0,60.451-13.452A142.861,142.861,0,0,1,389.905,456.3Z" style="fill:#d4e1f4"/><path d="M128.4,108.264c.073-.131.142-.266.207-.4,6.334-13.312,20.286-35.668,42.557-35.831l197.954-1.459h.25a30.842,30.842,0,0,1,14.805,3.719c-11.515-16.974-22.526-24.439-35.525-24.439h-.25L150.447,51.311c-22.271.164-36.223,22.519-42.557,35.831-.065.136-.134.271-.207.4L73.744,148.736l32.344-.239Z" style="fill:#d4e1f4"/><path d="M71.033,298.68A13.161,13.161,0,0,1,67.25,289.5a7.784,7.784,0,0,0-.064-.94L54.9,193.889c.046-15.541,8.14-26.351,17.969-30.643l-11.433.085h-.053a7.246,7.246,0,0,1-1.182-.109c-13.034.87-25.963,12.583-26.021,31.614L46.466,286.5a7.3,7.3,0,0,1,.064.91,12.693,12.693,0,0,0,12.632,12.541h.094l13.115-.1A13.041,13.041,0,0,1,71.033,298.68Z" style="fill:#d4e1f4"/><path d="M333.379,107.614h-.355a46.793,46.793,0,0,0-46.446,47.136,7,7,0,0,0,7,6.948h.053a7,7,0,0,0,6.948-7.052,32.793,32.793,0,0,1,32.55-33.032h.249a32.791,32.791,0,0,1,32.783,32.551,7,7,0,0,0,7,6.948h.053a7,7,0,0,0,6.948-7.051,46.793,46.793,0,0,0-46.781-46.448Z" style="fill:#1ae5be"/><path d="M89.607,202.729h-.2a26.895,26.895,0,0,0,.193,53.789h.2a26.895,26.895,0,0,0-.2-53.789Zm.092,39.789a12.894,12.894,0,0,1-.189-25.788h.1a12.895,12.895,0,0,1,.093,25.789Z" style="fill:#0635c9"/><path d="M467.045,193.3a7.046,7.046,0,0,0,.054-.918,46.835,46.835,0,0,0-11.561-30.773,42.08,42.08,0,0,0-6.375-5.87l24.487-.189a7,7,0,0,0,6.936-7.389,71.065,71.065,0,0,0-3.549-17.208c-4.138-12.115-16.89-19.9-32.544-19.9h-.35c-9.49.07-26.687.135-34.555.163l-15.733-28.5c-10.985-19.36-26.942-41.541-53.167-41.541h-.343L149.269,42.584c-21.536.158-40.538,15.2-53.522,42.372L79.758,113.784c-7.849.042-25.248.137-34.86.208-15.813.116-28.608,8.117-32.6,20.383a71.09,71.09,0,0,0-3.295,17.257A7,7,0,0,0,16,158.918h.061l24.1-.208a41.405,41.405,0,0,0-6.17,5.98,47.519,47.519,0,0,0-10.846,30.96,6.993,6.993,0,0,0,.062.879l11.869,88.527A26.238,26.238,0,0,0,57,310.231l.209,28.347a16.6,16.6,0,0,0,16.594,16.475h.126l29.142-.215a16.617,16.617,0,0,0,16.475-16.72l-.206-27.962,84.086-.62q-.418,5.616-.427,11.29c0,82.71,67.289,150,150,150s150-67.289,150-150a148.918,148.918,0,0,0-39.244-101.154Zm-22.8-68.247h.237c9.428,0,17.169,4.173,19.306,10.427a56.054,56.054,0,0,1,1.7,6.133l-38.952.3L417.3,125.185C425.884,125.151,437.189,125.1,444.246,125.05ZM108.094,91.559c.071-.127.137-.257.2-.388,6.113-12.85,19.58-34.429,41.078-34.587l191.076-1.408h.241c15.025,0,27.3,10.322,40.951,34.379l32.337,58.575-338.643,2.5ZM24.01,144.849a55.973,55.973,0,0,1,1.6-6.144c2.061-6.338,9.851-10.643,19.386-10.713,7.074-.052,18.372-.118,26.969-.165l-9.255,16.686Zm78.961,195.989-29.143.215a2.451,2.451,0,0,1-1.842-.748,2.591,2.591,0,0,1-.774-1.83l-.206-27.963,34.337-.253.206,27.963A2.6,2.6,0,0,1,102.971,340.838Zm102.161-45.315L61.35,296.582h-.091a12.253,12.253,0,0,1-12.194-12.105A6.993,6.993,0,0,0,49,283.6L37.141,195.126a33.934,33.934,0,0,1,7.569-21.432,24.545,24.545,0,0,1,17.553-9.086,6.913,6.913,0,0,0,1.135.1h.052l362.161-2.668c.057,0,.112.008.168.008a25.233,25.233,0,0,1,19.278,8.836,33.255,33.255,0,0,1,8.036,21.155l-1.917,15.37a149.944,149.944,0,0,0-246.044,88.11ZM489,320.826c0,74.99-61.009,136-136,136s-136-61.009-136-136a136,136,0,0,1,272,0Z" style="fill:#0635c9"/><path d="M194.42,204.958h-.053a7,7,0,0,0-6.948,7.052l.136,18.332a7,7,0,0,0,7,6.948h.052a7,7,0,0,0,6.949-7.052l-.136-18.332A7,7,0,0,0,194.42,204.958Z" style="fill:#1ae5be"/><path d="M160.6,237.54h.052a7,7,0,0,0,6.949-7.052l-.135-18.332a7,7,0,0,0-7-6.948h-.053a7,7,0,0,0-6.948,7.052l.135,18.332A7,7,0,0,0,160.6,237.54Z" style="fill:#1ae5be"/><path d="M228.375,204.707h-.053a7,7,0,0,0-6.948,7.052l.135,18.333a7,7,0,0,0,7,6.948h.053a7,7,0,0,0,6.948-7.052l-.135-18.333A7,7,0,0,0,228.375,204.707Z" style="fill:#1ae5be"/><path d="M340.281,396.14a92.4,92.4,0,0,0,60.451-22.449l34.4,34.4a7,7,0,1,0,9.9-9.9l-34.4-34.4a92.76,92.76,0,1,0-70.352,32.349Zm0-171.6a78.8,78.8,0,1,1-78.8,78.8A78.889,78.889,0,0,1,340.281,224.541Z" style="fill:#1ae5be"/></svg>
