<?xml version="1.0"?>
<svg xmlns="http://www.w3.org/2000/svg" id="Layer_1" data-name="Layer 1" viewBox="0 0 512 512" width="512" height="512"><title>Service Application</title><path d="M119.175,58h-30a33.037,33.037,0,0,0-33,33V292.918h30V91A33.037,33.037,0,0,1,119.175,58Z" style="fill:#d4e1f4"/><path d="M452.825,348.239H119.175a33.036,33.036,0,0,1-33-33v-8.321h-30v28.321a33.036,33.036,0,0,0,33,33h333.65a33.046,33.046,0,0,0,30.331-20.008C453.045,348.232,452.936,348.239,452.825,348.239Z" style="fill:#d4e1f4"/><path d="M89.175,382.239H249V454H173.374a7,7,0,1,0,0,14H343.41a7,7,0,0,0,0-14H263V382.239H422.825a47.053,47.053,0,0,0,47-47V91a47.053,47.053,0,0,0-47-47H89.175a47.053,47.053,0,0,0-47,47V335.239A47.053,47.053,0,0,0,89.175,382.239ZM56.175,91a33.038,33.038,0,0,1,33-33h333.65a33.038,33.038,0,0,1,33,33V292.918H56.175Zm0,215.915h399.65v28.321a33.038,33.038,0,0,1-33,33H89.175a33.038,33.038,0,0,1-33-33Z" style="fill:#0635c9"/><path d="M171,228H86a7,7,0,0,0,0,14h85a7,7,0,0,0,0-14Z" style="fill:#0635c9"/><path d="M142,258H86a7,7,0,0,0,0,14h56a7,7,0,0,0,0-14Z" style="fill:#0635c9"/><path d="M276.666,208.519h-10.95a7,7,0,0,0,0,14h10.95a7,7,0,0,0,0-14Z" style="fill:#0635c9"/><path d="M397.973,208.519h-10.95a7,7,0,0,0,0,14h10.95a7,7,0,0,0,0-14Z" style="fill:#0635c9"/><path d="M314.325,106.635h29.564a7,7,0,0,0,0-14H314.325a7,7,0,0,0,0,14Z" style="fill:#0635c9"/><path d="M134.182,216.031a55.182,55.182,0,1,0-43.453-89.2,55.188,55.188,0,0,0,3.34,71.912A55.421,55.421,0,0,0,134.182,216.031ZM101.747,135.47A41.186,41.186,0,1,1,93,160.849,40.968,40.968,0,0,1,101.747,135.47Z" style="fill:#1ae5be"/><path d="M121.175,176.35a7,7,0,0,0,9.741.884l26.931-21.91a7,7,0,0,0-8.835-10.86l-21.629,17.6-7.125-8.344a7,7,0,1,0-10.647,9.092Z" style="fill:#1ae5be"/><path d="M329,194.233a6.971,6.971,0,0,0,4.133-1.355l32.85-24.09A7,7,0,0,0,357.7,157.5l-32.85,24.09A7,7,0,0,0,329,194.233Z" style="fill:#1ae5be"/><path d="M254.223,276.463H270.6a12.491,12.491,0,0,0,12.475-12.479V242.122h-14v20.341H255.747V242.122h-14v21.862A12.492,12.492,0,0,0,254.223,276.463Z" style="fill:#1ae5be"/><path d="M387.617,276.463h16.375a12.491,12.491,0,0,0,12.475-12.479V242.122h-14v20.341H389.142V242.122h-14v21.862A12.491,12.491,0,0,0,387.617,276.463Z" style="fill:#1ae5be"/><path d="M424.107,180.233H422.2l-11.066-36.62a26.844,26.844,0,0,0-25.846-19.19H272.926a26.842,26.842,0,0,0-25.845,19.19l-11.066,36.62h-1.908a17.019,17.019,0,0,0-17,17V233.34a17.019,17.019,0,0,0,17,17h190a17.019,17.019,0,0,0,17-17V197.233A17.019,17.019,0,0,0,424.107,180.233Zm-163.625-32.57a12.925,12.925,0,0,1,12.444-9.24H385.288a12.925,12.925,0,0,1,12.444,9.24l9.843,32.57H250.64ZM427.107,233.34a3,3,0,0,1-3,3h-190a3,3,0,0,1-3-3V197.233a3,3,0,0,1,3-3h190a3,3,0,0,1,3,3Z" style="fill:#0635c9"/></svg>
