<?xml version="1.0"?>
<svg xmlns="http://www.w3.org/2000/svg" id="Layer_1" data-name="Layer 1" viewBox="0 0 512 512" width="512" height="512"><title>Service call</title><path d="M383,446.825c-74.99,0-136-61.009-136-136a135.545,135.545,0,0,1,78.515-123.155A135.765,135.765,0,0,0,217,320.826c0,74.99,61.009,136,136,136a135.178,135.178,0,0,0,57.591-12.815A136.06,136.06,0,0,1,383,446.825Z" style="fill:#d4e1f4"/><path d="M128.094,111.559c.071-.127.137-.257.2-.388,6.115-12.85,19.582-34.429,41.079-34.587l191.076-1.408h.242a29.761,29.761,0,0,1,14.29,3.59c-11.114-16.384-21.743-23.59-34.29-23.59h-.242L149.372,56.584c-21.5.158-34.964,21.737-41.079,34.587-.062.131-.128.261-.2.388l-32.76,59.065,31.22-.23Z" style="fill:#d4e1f4"/><path d="M72.717,295.359a12.7,12.7,0,0,1-3.652-8.862,7.664,7.664,0,0,0-.061-.908l-11.863-91.38c.044-15,7.857-25.436,17.345-29.578l-11.036.081H63.4a6.976,6.976,0,0,1-1.141-.1c-12.581.84-25.061,12.146-25.116,30.516L49,283.6a7.185,7.185,0,0,1,.061.879,12.253,12.253,0,0,0,12.193,12.105h.091l12.66-.093A12.591,12.591,0,0,1,72.717,295.359Z" style="fill:#d4e1f4"/><path d="M89.406,202.73a26.895,26.895,0,0,0,.192,53.789h.2a26.895,26.895,0,0,0-.2-53.789Zm13.092,26.8a12.894,12.894,0,1,1-12.989-12.8h.1A12.91,12.91,0,0,1,102.5,229.529Z" style="fill:#0635c9"/><path d="M477.037,130.95c-4.169-12.2-17.074-19.989-32.894-19.9-9.489.07-26.687.135-34.555.163l-15.733-28.5c-10.984-19.36-26.942-41.541-53.168-41.541h-.342L149.269,42.584c-21.535.158-40.537,15.2-53.522,42.372L79.758,113.784c-7.849.042-25.248.137-34.86.208-15.814.116-28.609,8.117-32.6,20.383a71.033,71.033,0,0,0-3.295,17.257A7,7,0,0,0,16,158.918h.061L40.1,158.71c-10.425,8.1-17.072,21.515-16.958,36.94a6.993,6.993,0,0,0,.062.879l11.869,88.527A26.272,26.272,0,0,0,57,310.232l.209,28.346a16.6,16.6,0,0,0,16.593,16.475h.126l29.143-.215a16.616,16.616,0,0,0,16.474-16.72l-.206-27.962,91.879-.677a7,7,0,0,0-.1-14l-149.769,1.1h-.091a12.253,12.253,0,0,1-12.193-12.105A7.185,7.185,0,0,0,49,283.6L37.141,195.123c.055-18.37,12.535-29.676,25.116-30.516a6.976,6.976,0,0,0,1.141.1h.052l362.121-2.668c.052,0,.1.008.155.008h.24a25.294,25.294,0,0,1,19.09,8.837,33.251,33.251,0,0,1,8.037,21.156l-3.635,29.142A7,7,0,0,0,455.539,229a7.2,7.2,0,0,0,.875.055,7,7,0,0,0,6.937-6.135l3.694-29.621a6.874,6.874,0,0,0,.053-.918,46.829,46.829,0,0,0-11.56-30.773,41.975,41.975,0,0,0-6.382-5.87l24.5-.189a7,7,0,0,0,6.935-7.389A71.065,71.065,0,0,0,477.037,130.95ZM105.343,310.259l.206,27.963a2.6,2.6,0,0,1-2.578,2.616l-29.143.215h-.02a2.6,2.6,0,0,1-2.6-2.578l-.206-27.963ZM62.714,144.513l-38.7.336a55.878,55.878,0,0,1,1.6-6.145c2.06-6.337,9.851-10.642,19.386-10.712,7.074-.052,18.371-.118,26.968-.165Zm238.325,4.448a32.839,32.839,0,0,1,32.088-27.346h.249a32.789,32.789,0,0,1,32.245,26.871Zm78.726-.58a46.782,46.782,0,0,0-92.871.684l-211.56,1.559,32.76-59.065c.071-.127.137-.257.2-.388,6.115-12.85,19.582-34.429,41.079-34.587l191.076-1.408h.242c15.024,0,27.3,10.322,40.949,34.379l32.337,58.575Zm46.77-6.471L417.3,125.185c8.583-.034,19.889-.083,26.945-.135h.237c9.428,0,17.169,4.173,19.306,10.427a56.116,56.116,0,0,1,1.7,6.133Z" style="fill:#0635c9"/><path d="M194.368,204.958a7,7,0,0,0-6.949,7.052l.136,18.332a7,7,0,0,0,7,6.948h.053a7,7,0,0,0,6.948-7.052l-.135-18.332A7.022,7.022,0,0,0,194.368,204.958Z" style="fill:#0635c9"/><path d="M160.413,205.208a7,7,0,0,0-6.948,7.052l.135,18.332a7,7,0,0,0,7,6.948h.052a7,7,0,0,0,6.948-7.052l-.135-18.332A7,7,0,0,0,160.413,205.208Z" style="fill:#0635c9"/><path d="M228.508,237.04h.053a7,7,0,0,0,6.948-7.052l-.135-18.333a7,7,0,0,0-14,.1l.135,18.333A7,7,0,0,0,228.508,237.04Z" style="fill:#0635c9"/><path d="M353,170.827a149.863,149.863,0,0,0-150,150c0,82.71,67.289,150,150,150s150-67.289,150-150a150,150,0,0,0-150-150Zm0,286c-74.99,0-136-61.009-136-136a136,136,0,0,1,272,0C489,395.816,427.991,456.825,353,456.825Z" style="fill:#1ae5be"/><path d="M353,210.44a77.185,77.185,0,0,0-77.1,77.1v33.2a7,7,0,0,0,14,0v-33.2a63.1,63.1,0,0,1,126.2,0v33.2a7,7,0,0,0,14,0v-33.2A77.185,77.185,0,0,0,353,210.44Z" style="fill:#1ae5be"/><path d="M294.119,383.814a7,7,0,0,0,7-7V320.736a7,7,0,0,0-7-7H274.492a23.851,23.851,0,0,0-23.824,23.824v22.431a23.85,23.85,0,0,0,23.824,23.823Zm-29.451-23.823V337.56a9.835,9.835,0,0,1,9.824-9.824h12.627v42.078H274.492A9.834,9.834,0,0,1,264.668,359.991Z" style="fill:#0635c9"/><path d="M402.811,404.668h-9.818a7,7,0,0,0,0,14h9.818A27.318,27.318,0,0,0,430.1,391.381v-7.567h1.411a23.851,23.851,0,0,0,23.824-23.823V337.56a23.852,23.852,0,0,0-23.824-23.824H411.883a7,7,0,0,0-7,7v56.078a7,7,0,0,0,7,7H416.1v7.567A13.3,13.3,0,0,1,402.811,404.668Zm16.072-76.932H431.51a9.835,9.835,0,0,1,9.824,9.824v22.431a9.834,9.834,0,0,1-9.824,9.823H418.883Z" style="fill:#0635c9"/><path d="M375.328,392.124H358.772a18.864,18.864,0,0,0-18.842,18.843v1.4a18.863,18.863,0,0,0,18.842,18.842h16.556A18.863,18.863,0,0,0,394.17,412.37v-1.4A18.864,18.864,0,0,0,375.328,392.124Zm4.842,20.246a4.847,4.847,0,0,1-4.842,4.842H358.772a4.847,4.847,0,0,1-4.842-4.842v-1.4a4.848,4.848,0,0,1,4.842-4.843h16.556a4.848,4.848,0,0,1,4.842,4.843Z" style="fill:#1ae5be"/></svg>
