<?xml version="1.0"?>
<svg xmlns="http://www.w3.org/2000/svg" id="Layer_1" data-name="Layer 1" viewBox="0 0 512 512" width="512" height="512"><title>Service Checklist </title><path d="M118.442,136.57q.089-.157.165-.321c5.068-10.65,16.23-28.534,34.046-28.665l158.363-1.167h.2a24.652,24.652,0,0,1,11.843,2.976c-9.211-13.58-18.021-19.552-28.419-19.552h-.2L136.077,91.008c-17.816.131-28.978,18.016-34.046,28.665-.051.109-.106.216-.165.322L74.715,168.948l25.875-.191Z" style="fill:#d4e1f4"/><path d="M72.546,288.9a10.529,10.529,0,0,1-3.027-7.344,6.118,6.118,0,0,0-.051-.753l-9.832-75.735c.037-12.434,6.513-21.082,14.376-24.515l-9.147.068h-.043a5.826,5.826,0,0,1-.945-.087c-10.427.7-20.77,10.067-20.817,25.291l9.832,73.329a5.543,5.543,0,0,1,.051.728,10.156,10.156,0,0,0,10.106,10.033h.075l10.492-.077A10.461,10.461,0,0,1,72.546,288.9Z" style="fill:#d4e1f4"/><path d="M332.487,319.24A60.017,60.017,0,1,0,392.5,259.223,60.085,60.085,0,0,0,332.487,319.24Zm106.034,0A46.017,46.017,0,1,1,392.5,273.223,46.069,46.069,0,0,1,438.521,319.24Z" style="fill:#0635c9"/><path d="M370.468,312.744a7,7,0,0,0-9.9,9.9l19.983,19.982a7,7,0,0,0,9.785.113l35.228-33.649a7,7,0,0,0-9.67-10.124L385.614,327.89Z" style="fill:#0635c9"/><path d="M160.457,267.986a7,7,0,0,0,7,6.949h.052l91.952-.678a7,7,0,0,0-.1-14l-91.952.678A7,7,0,0,0,160.457,267.986Z" style="fill:#0635c9"/><path d="M171.7,240.357h.053a7,7,0,0,0,6.948-7.052l-.111-14.959a7,7,0,1,0-14,.1l.11,14.959A7,7,0,0,0,171.7,240.357Z" style="fill:#0635c9"/><path d="M143.831,211.6a7,7,0,0,0-6.948,7.052l.11,14.959a7,7,0,0,0,7,6.948h.052a7,7,0,0,0,6.949-7.052l-.11-14.959A7.019,7.019,0,0,0,143.831,211.6Z" style="fill:#0635c9"/><path d="M282.418,210.582h-.053a7,7,0,0,0-6.948,7.051l.111,14.959a7,7,0,0,0,7,6.949h.052a7,7,0,0,0,6.948-7.052l-.11-14.959A7,7,0,0,0,282.418,210.582Z" style="fill:#0635c9"/><path d="M199.406,240.153h.052a7,7,0,0,0,6.948-7.052l-.11-14.959a7,7,0,1,0-14,.1l.11,14.959A7,7,0,0,0,199.406,240.153Z" style="fill:#0635c9"/><path d="M227.113,239.949h.053a7,7,0,0,0,6.948-7.052L234,217.938a7,7,0,0,0-7-6.948h-.052A7,7,0,0,0,220,218.042l.11,14.958A7,7,0,0,0,227.113,239.949Z" style="fill:#0635c9"/><path d="M254.82,239.745h.052a7,7,0,0,0,6.948-7.052l-.11-14.959a7,7,0,0,0-7-6.948h-.052a7,7,0,0,0-6.948,7.051l.11,14.959A7,7,0,0,0,254.82,239.745Z" style="fill:#0635c9"/><path d="M86.055,256.047h.177a23.117,23.117,0,1,0-.177,0Zm-6.571-29.714a9.17,9.17,0,0,1,6.509-2.752h.07a9.233,9.233,0,0,1,.066,18.466,8.95,8.95,0,0,1-6.549-2.655,9.235,9.235,0,0,1-.1-13.058Z" style="fill:#1ae5be"/><path d="M375.457,148.77h.185c7.141,0,12.969,3.055,14.534,7.636.389,1.14.712,2.257.98,3.313l-33.616.26a7,7,0,0,0,.053,14h.055l41.8-.323a7,7,0,0,0,6.935-7.389,59.4,59.4,0,0,0-2.963-14.386c-3.558-10.417-14.441-17.111-27.776-17.111h-.294c-10.327.076-31.562.144-31.565.144l.045,14S365.111,148.846,375.457,148.77Z" style="fill:#1ae5be"/><path d="M74.466,168.987a6.971,6.971,0,0,0-7.061-6.939l-33.263.287c.252-1.056.557-2.172.928-3.313,1.51-4.644,7.379-7.8,14.6-7.852,10.332-.076,31.713-.187,31.714-.187l-.073-14s-21.4.111-31.744.187c-13.467.1-24.385,6.977-27.814,17.522a59.4,59.4,0,0,0-2.751,14.428A7,7,0,0,0,26,176.406h.061l41.465-.359A7,7,0,0,0,74.466,168.987Z" style="fill:#1ae5be"/><path d="M252.5,178.675h.052a7,7,0,0,0,6.949-7.051,25.47,25.47,0,1,1,50.939-.375,7,7,0,1,0,14-.1,39.514,39.514,0,0,0-39.465-39.179h-.3a39.515,39.515,0,0,0-39.178,39.76A7,7,0,0,0,252.5,178.675Z" style="fill:#1ae5be"/><path d="M40.278,278.149a22.7,22.7,0,0,0,17.9,21.508l.163,22.072A14.846,14.846,0,0,0,73.17,336.451h.111l23.781-.175a14.833,14.833,0,0,0,14.721-14.941l-.158-21.53,187.435-1.381a7,7,0,0,0-.1-14L63,286.163h-.065a8.674,8.674,0,0,1-8.662-8.6,6.976,6.976,0,0,0-.061-.878l-9.668-72.1A26.362,26.362,0,0,1,50.414,188a18.784,18.784,0,0,1,13.243-6.95,6.9,6.9,0,0,0,1.02.081h.051l295.525-2.178c.045,0,.089.007.135.007,10.148-.09,16.649,7.37,19.29,14.363a7,7,0,0,0,13.1-4.948c-4.851-12.842-15.6-21.532-28.093-23.127L335.449,112.3c-9.176-16.171-22.6-34.719-44.794-34.549L134.738,78.9c-18.083.134-33.99,12.658-44.81,35.273L60.447,167.327A32.81,32.81,0,0,0,39.693,179a40.054,40.054,0,0,0-9.153,26.1,6.782,6.782,0,0,0,.062.878Zm57.347,21.76.159,21.529a.833.833,0,0,1-.826.838l-23.78.175a.846.846,0,0,1-.838-.825l-.158-21.53Zm4.65-179.132c.07-.127.137-.256.2-.387C107.334,110.177,118,93.025,134.841,92.9l155.917-1.149h.186c11.736,0,21.416,8.227,32.289,27.388l25.341,45.9-271.961,2Z" style="fill:#0635c9"/><path d="M462.437,204.231h-25.67a25.129,25.129,0,0,0-24.228-18.585h-40.07a25.129,25.129,0,0,0-24.228,18.585h-25.67a30.6,30.6,0,0,0-30.563,30.563V403.686a30.6,30.6,0,0,0,30.563,30.563H462.437A30.6,30.6,0,0,0,493,403.686V234.794A30.6,30.6,0,0,0,462.437,204.231Zm-89.968-4.585h40.07a11.087,11.087,0,1,1,0,22.173h-40.07a11.087,11.087,0,1,1,0-22.173ZM479,403.686a16.582,16.582,0,0,1-16.563,16.563H322.571a16.582,16.582,0,0,1-16.563-16.563V234.794a16.582,16.582,0,0,1,16.563-16.563h25.957a25.13,25.13,0,0,0,23.941,17.588h40.07a25.13,25.13,0,0,0,23.941-17.588h25.957A16.582,16.582,0,0,1,479,234.794Z" style="fill:#1ae5be"/></svg>
