<?xml version="1.0"?>
<svg xmlns="http://www.w3.org/2000/svg" id="Layer_1" data-name="Layer 1" viewBox="0 0 512 512" width="512" height="512"><title>Service Lift</title><path d="M258.1,37.769V178.147a7,7,0,0,0,14,0V37.769a7,7,0,0,0-14,0Z" style="fill:#1ae5be"/><path d="M432.94,163.772l-.1.07a27.621,27.621,0,0,1-16.259,5.077H405v14h11.588a41.545,41.545,0,0,0,24.455-7.728l.113-.081A52.963,52.963,0,0,0,463,132.319V95.435a23.639,23.639,0,0,0-8.265-17.969l-47.832-41a23.68,23.68,0,0,0-15.4-5.7H270.126a161.009,161.009,0,0,0-40.9,5.456,193.14,193.14,0,0,0-25.278,8.614,242.245,242.245,0,0,0-68.746,44.28A191.2,191.2,0,0,0,75.274,99.838,39.49,39.49,0,0,0,49,137.117v37.436a10.606,10.606,0,0,0,10.6,10.594h50.074v-14H63v-34.03a25.544,25.544,0,0,1,4.657-14.755,25.16,25.16,0,0,1,12.273-9.321,176.834,176.834,0,0,1,58.117-9.944L449,103.96v13.511H435.727a7,7,0,0,0,0,14H449v.848A38.927,38.927,0,0,1,432.94,163.772Zm-82.6-74.086L156.75,89.149a229.478,229.478,0,0,1,52.6-31.394,179.139,179.139,0,0,1,23.439-7.991,147.022,147.022,0,0,1,37.335-5h80.213Zm14,.039V44.769H391.5a9.671,9.671,0,0,1,6.291,2.327l47.833,41a9.63,9.63,0,0,1,1.657,1.859Z" style="fill:#0635c9"/><rect x="169.456" y="171.147" width="177.443" height="14" style="fill:#0635c9"/><path d="M237.891,123.138a7,7,0,0,0,0-14H217.3a7,7,0,0,0,0,14Z" style="fill:#0635c9"/><polygon points="463.414 254.727 256 337.198 48.586 254.727 43.414 267.736 237.055 344.731 43.414 421.727 48.586 434.736 256 352.265 463.414 434.736 468.586 421.727 274.945 344.731 468.586 267.736 463.414 254.727" style="fill:#1ae5be"/><path d="M140.376,219.729A40.334,40.334,0,1,0,100.042,179.4,40.379,40.379,0,0,0,140.376,219.729Zm0-66.667A26.334,26.334,0,1,1,114.042,179.4,26.364,26.364,0,0,1,140.376,153.062Z" style="fill:#1ae5be"/><path d="M375.83,220.147A40.334,40.334,0,1,0,335.5,179.813,40.379,40.379,0,0,0,375.83,220.147Zm0-66.667A26.334,26.334,0,1,1,349.5,179.813,26.362,26.362,0,0,1,375.83,153.48Z" style="fill:#1ae5be"/><path d="M466,229.231H46a7,7,0,0,0-7,7v25a7,7,0,0,0,7,7H466a7,7,0,0,0,7-7v-25A7,7,0,0,0,466,229.231Zm-7,25H53v-11H459Z" style="fill:#0635c9"/><path d="M466,421.231H46a7,7,0,0,0-7,7v46a7,7,0,0,0,7,7H466a7,7,0,0,0,7-7v-46A7,7,0,0,0,466,421.231Zm-7,46H53v-32H459Z" style="fill:#0635c9"/><path d="M83,157.117a25.544,25.544,0,0,1,4.657-14.755,25.16,25.16,0,0,1,12.273-9.321,176.834,176.834,0,0,1,58.117-9.944l100.054.278V103.43L138.047,103.1a176.834,176.834,0,0,0-58.117,9.944,25.16,25.16,0,0,0-12.273,9.321A25.544,25.544,0,0,0,63,137.117v34.03H83Z" style="fill:#d4e1f4"/><path d="M177.076,162.691a39.97,39.97,0,0,1,2.781,8.456h9.266A40.485,40.485,0,0,0,177.076,162.691Z" style="fill:#d4e1f4"/><path d="M292.1,123.469l136.657.379a7,7,0,0,1,6.969-6.377H449V103.96l-176.9-.491v67.678h20Z" style="fill:#d4e1f4"/><path d="M412.521,163.108a40.081,40.081,0,0,1,2.135,5.811h1.929a29.825,29.825,0,0,0,4.677-.373A40.441,40.441,0,0,0,412.521,163.108Z" style="fill:#d4e1f4"/></svg>
