<?xml version="1.0"?>
<svg xmlns="http://www.w3.org/2000/svg" id="Layer_1" data-name="Layer 1" viewBox="0 0 512 512" width="512" height="512"><title>Service Station map</title><path d="M173.311,337.108c-18.158-19.025-31.5-39.812-39.645-61.782a164.921,164.921,0,0,1-10.3-68.91A177.165,177.165,0,0,1,175.739,92.3,169.5,169.5,0,0,1,276,44.344,175.64,175.64,0,0,0,256,43.2,170.034,170.034,0,0,0,135.739,92.3a177.165,177.165,0,0,0-52.377,114.12,164.921,164.921,0,0,0,10.3,68.91c8.148,21.97,21.487,42.757,39.645,61.782L256,465.664l20-20.956Z" style="fill:#d4e1f4"/><path d="M193.594,216.514l-4.068,13.992a6.985,6.985,0,0,0-.278,1.954v45.908a20.284,20.284,0,0,0,20.261,20.261h10.609a20.284,20.284,0,0,0,20.261-20.261V232.46a7.035,7.035,0,0,0-.278-1.955l-4.069-13.991a7,7,0,0,0-1.406-13.858H221.813V126.729a7,7,0,1,0-14,0v75.927H195a7,7,0,0,0-1.406,13.858Zm9.654,16.943,4.884-16.8h13.362l4.885,16.8v44.911a6.268,6.268,0,0,1-6.261,6.261H209.509a6.267,6.267,0,0,1-6.261-6.261Z" style="fill:#0635c9"/><path d="M259.652,198.844v79.732a20.053,20.053,0,1,0,40.106,0V198.844A44.53,44.53,0,0,0,324,159.342a44.086,44.086,0,0,0-24.534-39.653,7,7,0,0,0-10.127,6.263v17.64l-9.435,6.283L270.07,143l.058-17.041a7.005,7.005,0,0,0-10.121-6.3,44.07,44.07,0,0,0-24.6,39.684A44.531,44.531,0,0,0,259.652,198.844Zm-3.573-58.51-.022,6.274a7,7,0,0,0,2.987,5.76l16.749,11.718a7,7,0,0,0,7.893.09l16.533-11.009a7,7,0,0,0,3.12-5.826v-7a30.344,30.344,0,0,1-13.029,47.383,7,7,0,0,0-4.552,6.558v84.289a6.053,6.053,0,0,1-12.106,0V194.287a7,7,0,0,0-4.551-6.558,30.348,30.348,0,0,1-13.022-47.4Z" style="fill:#0635c9"/><path d="M386.1,82.333a185.831,185.831,0,0,0-260.194,0A191.154,191.154,0,0,0,69.4,205.467,178.8,178.8,0,0,0,80.54,280.194c8.815,23.767,23.162,46.168,42.643,66.58L250.936,480.636a7,7,0,0,0,10.128,0L388.817,346.774c19.481-20.412,33.828-42.813,42.643-66.58a178.8,178.8,0,0,0,11.145-74.727A191.154,191.154,0,0,0,386.1,82.333Zm32.237,192.992c-8.148,21.971-21.487,42.758-39.645,61.783L256,465.664,133.311,337.108c-18.158-19.025-31.5-39.812-39.645-61.782a164.921,164.921,0,0,1-10.3-68.91A177.165,177.165,0,0,1,135.739,92.3a171.831,171.831,0,0,1,240.522,0,177.165,177.165,0,0,1,52.377,114.121A164.912,164.912,0,0,1,418.334,275.325Z" style="fill:#1ae5be"/><path d="M256,76.778c-72.785,0-132,59.215-132,132s59.215,132,132,132,132-59.215,132-132S328.785,76.778,256,76.778Zm0,250a118,118,0,1,1,118-118A118.134,118.134,0,0,1,256,326.778Z" style="fill:#1ae5be"/></svg>
