<?xml version="1.0"?>
<svg xmlns="http://www.w3.org/2000/svg" id="Layer_1" data-name="Layer 1" viewBox="0 0 512 512" width="512" height="512"><title>Serviced Car</title><path d="M389.905,456.3c-78.715,0-142.754-64.039-142.754-142.754a142.272,142.272,0,0,1,82.414-129.271,142.5,142.5,0,0,0-113.9,139.768c0,78.715,64.039,142.754,142.754,142.754a141.89,141.89,0,0,0,60.451-13.452A142.861,142.861,0,0,1,389.905,456.3Z" style="fill:#d4e1f4"/><path d="M122.337,104.385q.111-.2.21-.407c6.418-13.488,20.554-36.139,43.119-36.3l200.565-1.478h.254a31.235,31.235,0,0,1,15,3.769C369.819,52.765,358.662,45.2,345.492,45.2h-.254L144.672,46.68c-22.564.166-36.7,22.817-43.119,36.3q-.1.207-.209.407l-34.387,62,32.771-.241Z" style="fill:#d4e1f4"/><path d="M64.21,297.314a13.335,13.335,0,0,1-3.833-9.3,7.783,7.783,0,0,0-.065-.953L47.86,191.14c.046-15.747,8.248-26.7,18.206-31.047l-11.584.085h-.054a7.319,7.319,0,0,1-1.2-.11c-13.206.881-26.306,12.749-26.365,32.031l12.453,92.87a7.315,7.315,0,0,1,.064.923,12.862,12.862,0,0,0,12.8,12.707h.1l13.288-.1A13.386,13.386,0,0,1,64.21,297.314Z" style="fill:#d4e1f4"/><path d="M302.439,115.223a48.423,48.423,0,0,0-14.021,34.569,7,7,0,0,0,7,6.948h.053a7,7,0,0,0,6.948-7.052A34.741,34.741,0,0,1,336.9,114.693h.263A34.741,34.741,0,0,1,371.9,149.177a7,7,0,0,0,7,6.948h.052a7,7,0,0,0,6.948-7.052,48.74,48.74,0,0,0-83.457-33.85Z" style="fill:#1ae5be"/><path d="M81.461,200.464h-.209a27.868,27.868,0,0,0,.2,55.736h.211a27.868,27.868,0,0,0-.2-55.736Zm.1,41.736h-.105a13.868,13.868,0,0,1-.1-27.736h.1a13.868,13.868,0,0,1,.1,27.736Z" style="fill:#0635c9"/><path d="M477.037,190.185a7.056,7.056,0,0,0,.054-.918,48.78,48.78,0,0,0-12.04-32.055,43.423,43.423,0,0,0-7.5-6.719l26.757-.207a7,7,0,0,0,6.935-7.389,74.11,74.11,0,0,0-3.7-17.958c-4.292-12.568-17.542-20.644-33.815-20.644h-.363c-10.037.074-28.294.143-36.45.172L400.307,74.4C388.829,54.175,372.163,31,344.833,31h-.356L144.046,32.479c-22.453.165-42.278,15.88-55.841,44.26L71.332,107.163c-8.133.043-26.6.144-36.767.219C18.127,107.5,4.832,115.8.7,128.526a74.24,74.24,0,0,0-3.439,18.011,7,7,0,0,0,6.994,7.286h.061l26.327-.228a42.875,42.875,0,0,0-7.256,6.845,49.5,49.5,0,0,0-11.3,32.253,6.993,6.993,0,0,0,.062.879L24.6,286.451a27.214,27.214,0,0,0,23,26.146l.22,30.021A17.071,17.071,0,0,0,64.885,359.56h.13l30.57-.226a17.086,17.086,0,0,0,16.94-17.193l-.218-29.675,88.918-.655q-.465,6.063-.475,12.189c0,86.57,70.43,157,157,157s157-70.43,157-157a155.87,155.87,0,0,0-41.183-105.991ZM453.46,118.3h.249c10.036,0,18.289,4.471,20.577,11.17a59.279,59.279,0,0,1,1.881,6.884l-41.484.32L424.619,118.44C433.688,118.405,445.9,118.352,453.46,118.3ZM100.553,83.341c.071-.127.137-.257.2-.388,6.449-13.551,20.661-36.307,43.4-36.474L344.58,45h.257c15.9,0,28.861,10.879,43.254,36.238l34.2,61.948L65.9,145.812Zm-88.32,56.413a59.6,59.6,0,0,1,1.777-6.9c2.207-6.788,10.509-11.4,20.659-11.473,7.582-.056,19.789-.126,28.874-.176L53.454,139.4Zm83.248,205.58-30.57.226a2.88,2.88,0,0,1-2.174-.883,3.056,3.056,0,0,1-.915-2.162L61.6,312.84l36.7-.271.218,29.675A3.069,3.069,0,0,1,95.481,345.334ZM202.934,297.8,51.822,298.911a13.19,13.19,0,0,1-13.23-13.036,7,7,0,0,0-.063-.88l-12.446-92.83c.048-19.5,13.327-31.5,26.7-32.378a6.944,6.944,0,0,0,1.184.113h.052l379.844-2.8c.057,0,.114.008.171.008.085,0,.168,0,.251,0a26.875,26.875,0,0,1,20.282,9.385,35.23,35.23,0,0,1,8.516,22.437l-2.094,16.79a157.029,157.029,0,0,0-194.213-9.692,157.705,157.705,0,0,0-32.627,31.129l-.13-17.67a7,7,0,0,0-7-6.948h-.052a7,7,0,0,0-6.949,7.052l.142,19.229a7,7,0,0,0,7,6.949h.053c.226,0,.45-.017.671-.039A156.131,156.131,0,0,0,202.934,297.8ZM500.75,324c0,78.851-64.149,143-143,143s-143-64.149-143-143a143,143,0,1,1,286,0Z" style="fill:#0635c9"/><path d="M191.405,202.8h-.052a7,7,0,0,0-6.949,7.052l.142,19.229a7,7,0,0,0,7,6.948h.053a7,7,0,0,0,6.948-7.052L198.4,209.75A7,7,0,0,0,191.405,202.8Z" style="fill:#1ae5be"/><path d="M155.788,203.063h-.053a7,7,0,0,0-6.948,7.052l.142,19.231a7,7,0,0,0,7,6.948h.052a7,7,0,0,0,6.949-7.052l-.142-19.23A7,7,0,0,0,155.788,203.063Z" style="fill:#1ae5be"/><path d="M465.743,299.07a10.023,10.023,0,0,0,2.642-13l-23.134-38.908c-2.434-4.049-7.506-6.58-12.565-3.712l-23.74,10.922a97.63,97.63,0,0,0-16.367-9.477L390.2,218.719a7.121,7.121,0,0,0-.158-.973,9.877,9.877,0,0,0-9.444-7.875H335.429a9.522,9.522,0,0,0-9.592,8.627l-2.388,26.392A87.674,87.674,0,0,0,307,254.334l-23.856-10.973c-.107-.049-.214-.095-.323-.138-4.457-1.783-9.886.025-12.061,3.952L248.2,286.021a9.967,9.967,0,0,0,2.683,13.1l.144.107,21.428,15.234a62.871,62.871,0,0,0-.009,19.021l-22.453,15.286c-.094.064-.188.131-.28.2A10.011,10.011,0,0,0,247.1,361.9l22.585,38.869.052.089a10.108,10.108,0,0,0,5.284,4.454,8.7,8.7,0,0,0,7.256-.757l23.757-10.929A97.908,97.908,0,0,0,322.4,403.1l2.381,26.18a7.109,7.109,0,0,0,.159.972,9.872,9.872,0,0,0,9.441,7.873H379.55a9.52,9.52,0,0,0,9.59-8.622l2.393-26.4a87.758,87.758,0,0,0,16.446-9.442l23.852,10.975c.116.053.234.1.354.151,4.43,1.749,9.852-.06,12.023-3.954l22.6-38.9a9.953,9.953,0,0,0-2.667-13.021l-20.052-15.275a63.23,63.23,0,0,0,.013-19.18l21.483-15.274C465.64,299.147,465.691,299.108,465.743,299.07Zm-33.222,6.447a7,7,0,0,0-2.874,6.7l.229,1.6a54.971,54.971,0,0,1,0,20.367l-.223,1.544a7,7,0,0,0,2.687,6.567l20.58,15.678-18.78,32.327-24.224-11.146a7.005,7.005,0,0,0-7.357.941l-1.283,1.049A73.274,73.274,0,0,1,383.625,391.3l-1.448.621a7,7,0,0,0-4.213,5.8l-2.394,26.411h-37.2l-2.4-26.413a7,7,0,0,0-4.213-5.8L330.3,391.3a85.183,85.183,0,0,1-17.971-10.4l-1.262-.948a6.994,6.994,0,0,0-7.129-.761l-24.153,11.111L261.1,358.136l21.453-14.605c.055-.038.112-.077.167-.117l1.357-.983a7,7,0,0,0,2.824-6.655l-.233-1.642a54.672,54.672,0,0,1,.008-20.327l.227-1.6a7,7,0,0,0-2.873-6.692l-21.92-15.585,18.72-32.224,24.229,11.144a7,7,0,0,0,7.355-.941l1.282-1.048a73.3,73.3,0,0,1,17.647-10.155l1.454-.622a7,7,0,0,0,4.219-5.805l2.388-26.41h37.205l2.4,26.412a7,7,0,0,0,4.218,5.8l1.45.62a85,85,0,0,1,17.968,10.4l1.263.949a7,7,0,0,0,7.129.761l24.186-11.128,19.182,32.262Z" style="fill:#1ae5be"/><path d="M357.75,261.669c-34.951,0-62.329,27.379-62.329,62.331s27.378,62.333,62.329,62.333,62.333-27.38,62.333-62.333S392.7,261.669,357.75,261.669Zm0,110.664A48.332,48.332,0,1,1,406.083,324,47.816,47.816,0,0,1,357.75,372.333Z" style="fill:#1ae5be"/><path d="M357.751,292.081A31.92,31.92,0,1,0,389.672,324,31.58,31.58,0,0,0,357.751,292.081Zm0,49.84A17.92,17.92,0,1,1,375.672,324,17.729,17.729,0,0,1,357.751,341.921Z" style="fill:#1ae5be"/></svg>
