<?xml version="1.0"?>
<svg xmlns="http://www.w3.org/2000/svg" id="Layer_1" data-name="Layer 1" viewBox="0 0 512 512" width="512" height="512"><title>Tool Box</title><polygon points="103 413 103 237.136 83 237.136 83 433 429 433 429 413 103 413" style="fill:#d4e1f4"/><path d="M443,440V230.136a7,7,0,0,0-7-7H423V72a7,7,0,0,0-7-7H376a7,7,0,0,0-7,7V99.44a7,7,0,0,0,14,0V79h26V219.89H383V139.44a7,7,0,0,0-14,0v83.7H143v-83.7a7,7,0,0,0-14,0v80.45H103V79h26V99.44a7,7,0,0,0,14,0V72a7,7,0,0,0-7-7H96a7,7,0,0,0-7,7V223.136H76a7,7,0,0,0-7,7V440a7,7,0,0,0,7,7H436A7,7,0,0,0,443,440Zm-14-7H83V237.136H429Z" style="fill:#0635c9"/><path d="M171.755,389.367h97.131a52.291,52.291,0,0,0,46.782,29.258,51.767,51.767,0,0,0,46.563-28.81,7,7,0,0,0-6.262-10.127H333.9l-8.562-12.857,9.306-13.3,21.325.073H356a7.005,7.005,0,0,0,6.273-10.121,51.752,51.752,0,0,0-46.6-28.884,52.292,52.292,0,0,0-46.782,29.259H171.755a22.755,22.755,0,1,0,0,45.51Zm0-31.51H273.489a7,7,0,0,0,6.558-4.551,38.062,38.062,0,0,1,62.366-13.749l-11.38-.039h-.024a7,7,0,0,0-5.736,2.987L311.13,362.721a7,7,0,0,0-.091,7.892l13.288,19.955a7,7,0,0,0,5.826,3.12h12.236a38.061,38.061,0,0,1-62.342-13.771,7,7,0,0,0-6.558-4.55H171.755a8.755,8.755,0,1,1,0-17.51Z" style="fill:#0635c9"/><path d="M383.44,92.44H128.56a27,27,0,0,0,0,54H383.44a27,27,0,0,0,0-54Zm9.19,36.19a12.91,12.91,0,0,1-9.19,3.81H128.56a13,13,0,0,1,0-26H383.44a13,13,0,0,1,9.19,22.19Z" style="fill:#1ae5be"/><path d="M254.94,257.375a7,7,0,0,0-7,7v.183l-18.57-5.4a6.986,6.986,0,0,0-1.954-.279h-55.41A23.032,23.032,0,0,0,149,281.886v12.8A23.032,23.032,0,0,0,172.006,317.7h55.41a6.986,6.986,0,0,0,1.954-.279l18.57-5.4v.184a7,7,0,0,0,14,0V295.289h93.09a7,7,0,0,0,0-14H261.94V264.375A7,7,0,0,0,254.94,257.375ZM226.419,303.7H172.006A9.016,9.016,0,0,1,163,294.691v-12.8a9.016,9.016,0,0,1,9.006-9.006h54.413l21.521,6.258v18.3Z" style="fill:#1ae5be"/></svg>
