<?xml version="1.0"?>
<svg xmlns="http://www.w3.org/2000/svg" id="Layer_1" data-name="Layer 1" viewBox="0 0 512 512" width="512" height="512"><title>Tools Maintenance</title><path d="M171.837,256c0-61.822,45.31-113.253,104.465-122.85a124.464,124.464,0,1,0,0,245.7C217.147,369.253,171.837,317.822,171.837,256Z" style="fill:#d4e1f4"/><path d="M25.328,296.729l45.025,4.34a188.34,188.34,0,0,0,22.948,54.5L64.619,390.2a7,7,0,0,0,.442,9.415l47.627,47.628a7,7,0,0,0,9.416.441l34.683-28.723a192.764,192.764,0,0,0,54.445,22.987l4.34,45.027a7,7,0,0,0,6.968,6.328h67.522a7,7,0,0,0,6.968-6.328l4.34-45.025A188.317,188.317,0,0,0,355.865,419L390.5,447.683a7,7,0,0,0,9.415-.442l47.628-47.628a7,7,0,0,0,.441-9.415l-28.723-34.684a192.76,192.76,0,0,0,22.988-54.451l44.431-4.335a7,7,0,0,0,6.32-6.967V222.238a7,7,0,0,0-6.328-6.967l-45.025-4.34A188.34,188.34,0,0,0,418.7,156.436L447.381,121.8a7,7,0,0,0-.41-9.383L399.946,64.791a7,7,0,0,0-9.446-.474L355.815,93.041A192.764,192.764,0,0,0,301.37,70.054l-4.34-45.027a7,7,0,0,0-6.968-6.328H222.54a7,7,0,0,0-6.968,6.328l-4.34,45.025A188.349,188.349,0,0,0,156.737,93L122.1,64.318a7,7,0,0,0-9.416.441L65.061,112.387a7,7,0,0,0-.442,9.415l28.723,34.684a192.735,192.735,0,0,0-22.987,54.445l-45.027,4.34A7,7,0,0,0,19,222.238v67.523A7,7,0,0,0,25.328,296.729ZM33,228.6l43.711-4.213a7,7,0,0,0,6.17-5.488,178.916,178.916,0,0,1,24.964-59.179,7,7,0,0,0-.491-8.259L79.467,117.78l38.615-38.615,33.676,27.888a7,7,0,0,0,8.347.433A173.7,173.7,0,0,1,219.2,82.58a7,7,0,0,0,5.489-6.171L228.9,32.7h54.808l4.213,43.71a7,7,0,0,0,5.488,6.171,178.9,178.9,0,0,1,59.179,24.963,7,7,0,0,0,8.26-.49l33.644-27.862,38.071,38.558-27.914,33.708a7,7,0,0,0-.433,8.347A173.706,173.706,0,0,1,429.119,218.9a7,7,0,0,0,6.17,5.488L479,228.6v54.815l-43.116,4.207a7,7,0,0,0-6.162,5.487,178.937,178.937,0,0,1-24.964,59.179,7,7,0,0,0,.49,8.259l27.889,33.677-38.616,38.615-33.676-27.888a7,7,0,0,0-8.348-.433,173.661,173.661,0,0,1-59.091,24.906,7,7,0,0,0-5.488,6.171l-4.213,43.71H228.9l-4.212-43.71a7,7,0,0,0-5.489-6.171,178.882,178.882,0,0,1-59.178-24.964,7,7,0,0,0-8.26.491l-33.676,27.888L79.467,394.22l27.887-33.677a7,7,0,0,0,.433-8.347,173.706,173.706,0,0,1-24.906-59.091,7,7,0,0,0-6.17-5.488L33,283.4Z" style="fill:#0635c9"/><path d="M256.3,394.464c76.349,0,138.464-62.114,138.464-138.464S332.651,117.536,256.3,117.536,117.837,179.65,117.837,256,179.952,394.464,256.3,394.464Zm0-262.928A124.464,124.464,0,1,1,131.837,256,124.6,124.6,0,0,1,256.3,131.536Z" style="fill:#0635c9"/><path d="M193.594,263.737l-4.068,13.991a7.022,7.022,0,0,0-.278,1.954V325.59a20.285,20.285,0,0,0,20.261,20.262h10.608a20.286,20.286,0,0,0,20.262-20.262V279.682a7.022,7.022,0,0,0-.278-1.954l-4.069-13.991a7,7,0,0,0-1.406-13.859H221.813V173.952a7,7,0,0,0-14,0v75.926H195a7,7,0,0,0-1.406,13.859Zm32.785,61.853a6.269,6.269,0,0,1-6.262,6.262H209.509a6.269,6.269,0,0,1-6.261-6.262V280.679l4.885-16.8h13.36l4.886,16.8Z" style="fill:#1ae5be"/><path d="M259.652,246.066V325.8a20.054,20.054,0,1,0,40.107,0V246.066A44.531,44.531,0,0,0,324,206.564a44.085,44.085,0,0,0-24.533-39.652,7,7,0,0,0-10.128,6.262v17.64L279.9,197.1l-9.834-6.881.059-17.041a7.006,7.006,0,0,0-10.121-6.3,44.072,44.072,0,0,0-24.6,39.684A44.532,44.532,0,0,0,259.652,246.066Zm-3.574-58.509-.021,6.274a7,7,0,0,0,2.987,5.759l16.749,11.718a7,7,0,0,0,7.893.091l16.533-11.009a7,7,0,0,0,3.12-5.827v-6.994a30.344,30.344,0,0,1-13.029,47.383,7,7,0,0,0-4.551,6.558V325.8a6.054,6.054,0,1,1-12.107,0V241.51a7,7,0,0,0-4.55-6.558,30.348,30.348,0,0,1-13.024-47.4Z" style="fill:#1ae5be"/></svg>
