<?xml version="1.0"?>
<svg xmlns="http://www.w3.org/2000/svg" id="Layer_1" data-name="Layer 1" viewBox="0 0 512 512" width="512" height="512"><title>Tow Truck </title><path d="M357.6,235.353V181.585H326.168v20H347.6v53.768a35.06,35.06,0,0,0,29.837,34.623v13.417h10V269.976A35.06,35.06,0,0,1,357.6,235.353Z" style="fill:#d4e1f4"/><path d="M331.36,383.793h4.054a55.551,55.551,0,0,1,1.631-8.837A56.262,56.262,0,0,0,331.36,383.793Z" style="fill:#d4e1f4"/><path d="M370.442,337.393a55.706,55.706,0,0,1,20.3-3.959,6.954,6.954,0,0,0,.7-3.041v-13H326.168v20Z" style="fill:#d4e1f4"/><path d="M467.992,270.361H401.441v20h56.551A21.032,21.032,0,0,1,479,311.369v72.424h10V291.369A21.032,21.032,0,0,0,467.992,270.361Z" style="fill:#d4e1f4"/><rect x="451" y="203" width="14" height="55" style="fill:#1ae5be"/><path d="M86.956,201.384c18.129,0,32.329-13.831,32.329-31.488A31.145,31.145,0,0,0,98.1,140.228l29.261-51.792L206.03,229.229l-31.46,83.454,13.1,4.939,32.607-86.5a7,7,0,0,0-.439-5.884l-80.852-144.7H146.4L255.179,230.921v84.231h14v-86.5a7,7,0,0,0-1.328-4.1l-112.2-155.11a7,7,0,0,0-5.671-2.9h-22.92a6.97,6.97,0,0,0-6.951,6.268l-39.074,69.16a7,7,0,0,0,6.095,10.443c10.352,0,18.158,7.515,18.158,17.481,0,9.807-8.051,17.488-18.329,17.488-7.741,0-14.878-5.808-17.354-14.124a7,7,0,0,0-13.418,4C60.415,191.462,73.068,201.384,86.956,201.384Z" style="fill:#1ae5be"/><rect x="151.101" y="383.782" width="39.897" height="14" style="fill:#0635c9"/><path d="M467.992,256.361h-75.38A21.032,21.032,0,0,1,371.6,235.353V214.572h81.561a23.494,23.494,0,0,0,0-46.987h-134a7,7,0,0,0-7,7v157.24h-8.614V315.478a7,7,0,0,0-7-7H49.8a7,7,0,0,0-7,7v16.347H21.857A12.872,12.872,0,0,0,9,344.683v40.242a12.871,12.871,0,0,0,12.857,12.857H53.1v-14H23V345.825H312.168v37.957H289.012v14h29.933c.075,0,.148.011.223.011h24.409v-14H326.168v-66.4h68.273a7,7,0,0,0,7-7V270.361h66.551A21.032,21.032,0,0,1,489,291.369v92.424H438.712v14H496a7,7,0,0,0,7-7V291.369A35.047,35.047,0,0,0,467.992,256.361ZM371.6,181.585h81.561a9.494,9.494,0,0,1,0,18.987H371.6Zm-82.05,150.24H56.8v-9.347H289.554Zm97.887-28.432H326.168V181.585H357.6v53.768a35.06,35.06,0,0,0,29.837,34.623Z" style="fill:#0635c9"/><path d="M391.145,333.424a56.079,56.079,0,0,0-56.015,56.015c0,.443,0,.9.013,1.31a56.017,56.017,0,0,0,112,.018c.01-.439.011-.891.011-1.328,0-1.412-.052-2.805-.151-4.116A56.194,56.194,0,0,0,391.145,333.424Zm42,57a42.017,42.017,0,0,1-84.011-.036c-.009-.315-.008-.638-.008-.951a42.014,42.014,0,0,1,83.915-3.078c.075,1,.112,2,.112,3.078C433.157,389.758,433.158,390.087,433.149,390.426Z" style="fill:#1ae5be"/><path d="M240,333.428a55.989,55.989,0,0,0-56.015,56.013c0,.461,0,.934.016,1.305a56.021,56.021,0,0,0,112.01,0c0-.055,0-.109,0-.163v-1.142c0-1.462-.045-2.8-.139-4.119A56.022,56.022,0,0,0,240,333.428Zm41.91,52.9c.07.966.1,1.984.1,3.11V390.5a42.021,42.021,0,0,1-84.019-.168c-.011-.293-.009-.6-.009-.888a42.02,42.02,0,0,1,83.925-3.11Z" style="fill:#1ae5be"/><path d="M102.1,445.449A56.025,56.025,0,0,0,158.1,390.818c.015-.455.016-.922.016-1.377a55.84,55.84,0,0,0-15.074-38.225c-.054-.057-.107-.114-.163-.169l-.212-.213a55.93,55.93,0,0,0-81.131,0l-.212.213c-.056.057-.112.114-.167.173a55.891,55.891,0,0,0-15.069,38.221c0,.455,0,.922.015,1.305a56.029,56.029,0,0,0,56,54.7ZM60.085,389.441a41.935,41.935,0,0,1,11.232-28.592l.191-.19c.046-.046.091-.092.135-.139a41.642,41.642,0,0,1,10.412-8.01,42.088,42.088,0,0,1,40.079,0,41.652,41.652,0,0,1,10.421,8.008l.134.139.193.192a41.89,41.89,0,0,1,11.231,28.59c0,.3,0,.607-.01.978a42.015,42.015,0,0,1-84.009-.072C60.084,390.048,60.085,389.74,60.085,389.441Z" style="fill:#1ae5be"/></svg>
