<?xml version="1.0"?>
<svg xmlns="http://www.w3.org/2000/svg" id="Layer_1" data-name="Layer 1" viewBox="0 0 512 512" width="512" height="512"><title>Traffic Cone 2_1</title><path d="M382,334H130a7,7,0,0,0-6.622,4.729l-24,70,13.244,4.542L135,348H377l22.378,65.271,13.244-4.542-24-70A7,7,0,0,0,382,334Z" style="fill:#1ae5be"/><path d="M171.378,198.729l-24,70A7,7,0,0,0,154,278H358a7,7,0,0,0,6.622-9.271l-24-70A7,7,0,0,0,334,194H178A7,7,0,0,0,171.378,198.729ZM329,208l19.2,56H163.8L183,208Z" style="fill:#1ae5be"/><path d="M297.255,72.243A27,27,0,0,0,271.714,54H240.286a27,27,0,0,0-25.541,18.243l-19.367,56.486A7,7,0,0,0,202,138H310a7,7,0,0,0,6.622-9.271ZM211.8,124l16.189-47.216A13,13,0,0,1,240.286,68h31.428a13,13,0,0,1,12.3,8.784L300.2,124Z" style="fill:#1ae5be"/><path d="M178,208H334a7,7,0,0,0,6.622-9.271l-24-70A7,7,0,0,0,310,124H202a7,7,0,0,0-6.622,4.729l-24,70A7,7,0,0,0,178,208Zm29-70h98l19.2,56H187.8Z" style="fill:#0635c9"/><path d="M147.378,268.729l-24,70A7,7,0,0,0,130,348H382a7,7,0,0,0,6.622-9.271l-24-70A7,7,0,0,0,358,264H154A7,7,0,0,0,147.378,268.729ZM353,278l19.2,56H139.8L159,278Z" style="fill:#0635c9"/><path d="M406,404H106a27.03,27.03,0,0,0-27,27v20a7,7,0,0,0,7,7H426a7,7,0,0,0,7-7V431A27.03,27.03,0,0,0,406,404Zm13,40H93V431a13.015,13.015,0,0,1,13-13H406a13.015,13.015,0,0,1,13,13Z" style="fill:#0635c9"/><polygon points="256 138 207 138 187.8 194 256 194 256 138" style="fill:#d4e1f4"/><polygon points="256 278 159 278 139.8 334 256 334 256 278" style="fill:#d4e1f4"/></svg>
