<?xml version="1.0"?>
<svg xmlns="http://www.w3.org/2000/svg" id="Layer_1" data-name="Layer 1" viewBox="0 0 512 512" width="512" height="512"><title>Traffic Cone 2</title><polygon points="261 55.038 241.737 55 235 102 254.284 102 261 55.038" style="fill:#d4e1f4"/><path d="M225.561,113.814h62.188a7,7,0,0,0,6.624-9.264L274.389,46.088a7,7,0,0,0-6.624-4.735h-23.53a7,7,0,0,0-6.668,4.87l-18.674,58.462a7,7,0,0,0,6.668,9.129Zm23.787-58.461H262.76l15.2,44.461H235.146Z" style="fill:#0635c9"/><path d="M425.018,434.555a29.587,29.587,0,0,0-24.667-13.2H110.492a27.426,27.426,0,0,0-22.868,12.239L70.176,459.765A7,7,0,0,0,76,470.647H436a7,7,0,0,0,5.824-10.882ZM89.079,456.647l10.193-15.29a13.46,13.46,0,0,1,11.22-6H400.351a15.613,15.613,0,0,1,13.018,6.967l9.551,14.327Z" style="fill:#0635c9"/><path d="M176.894,237.176l-15.271,44.706a7,7,0,0,0,6.624,9.263H343.753a7,7,0,0,0,6.624-9.263l-15.271-44.706a7,7,0,0,0-6.624-4.738H183.518A7,7,0,0,0,176.894,237.176Zm146.583,9.262,10.488,30.707H178.035l10.488-30.707Z" style="fill:#0635c9"/><path d="M367.271,329.278a7,7,0,0,0-6.624-4.735H151.353a7,7,0,0,0-6.624,4.735l-15.283,44.706a7,7,0,0,0,6.624,9.265H375.93a7,7,0,0,0,6.624-9.265Zm-221.41,39.971,10.5-30.706H355.643l10.5,30.706Z" style="fill:#1ae5be"/><path d="M209.059,145.072l-15.271,44.706a7,7,0,0,0,6.624,9.263H311.588a7,7,0,0,0,6.624-9.263l-15.271-44.706a7,7,0,0,0-6.624-4.737H215.683A7,7,0,0,0,209.059,145.072Zm82.253,9.263L301.8,185.041H210.2l10.488-30.706Z" style="fill:#1ae5be"/><polygon points="250.678 154.36 220.688 154.335 210.2 185.041 240.222 185.041 250.678 154.36" style="fill:#d4e1f4"/><polygon points="156.357 338.543 145.861 369.249 185.861 369.249 196.357 338.543 156.357 338.543" style="fill:#d4e1f4"/><polygon points="188.248 246.438 177.752 277.145 217.752 277.145 228.248 246.438 188.248 246.438" style="fill:#d4e1f4"/></svg>
