<?xml version="1.0" encoding="iso-8859-1"?>
<!-- Generator: Adobe Illustrator 19.0.0, SVG Export Plug-In . SVG Version: 6.00 Build 0)  -->
<svg version="1.1" id="Capa_1" xmlns="http://www.w3.org/2000/svg" xmlns:xlink="http://www.w3.org/1999/xlink" x="0px" y="0px"
	 viewBox="0 0 512 512" style="enable-background:new 0 0 512 512;" xml:space="preserve">
<rect x="40.421" y="8.982" style="fill:#006684;" width="314.386" height="89.825"/>
<rect x="76.351" y="98.807" style="fill:#E6E6E6;" width="242.526" height="368.281"/>
<rect x="112.281" y="134.737" style="fill:#FFA753;" width="98.807" height="35.93"/>
<rect x="31.439" y="467.088" style="fill:#006684;" width="341.333" height="35.93"/>
<path style="fill:#FFA753;" d="M229.053,305.404c0,14.884-12.063,26.947-26.947,26.947s-26.947-12.063-26.947-26.947
	c0-34.223,26.947-71.86,26.947-71.86S229.053,271.18,229.053,305.404z"/>
<polygon style="fill:#006684;" points="318.877,170.667 318.877,314.386 354.807,287.439 354.807,197.614 "/>
<rect x="444.632" y="89.825" style="fill:#FFA753;" width="35.93" height="71.86"/>
<g>
	<rect x="309.895" y="35.93" style="fill:#004559;" width="17.965" height="17.965"/>
	<rect x="273.965" y="125.754" style="fill:#004559;" width="17.965" height="17.965"/>
	<rect x="238.035" y="125.754" style="fill:#004559;" width="17.965" height="17.965"/>
	<rect x="273.965" y="161.684" style="fill:#004559;" width="17.965" height="17.965"/>
	<rect x="238.035" y="161.684" style="fill:#004559;" width="17.965" height="17.965"/>
	<path style="fill:#004559;" d="M220.07,170.667v-35.93c0-4.958-4.024-8.982-8.982-8.982h-98.807c-4.958,0-8.982,4.024-8.982,8.982
		v35.93c0,4.958,4.024,8.982,8.982,8.982h98.807C216.046,179.649,220.07,175.625,220.07,170.667z M202.105,161.684h-80.842v-17.965
		h80.842V161.684z"/>
	<path style="fill:#004559;" d="M194.803,228.316c-1.168,1.635-28.627,40.403-28.627,77.087c0,19.842,16.088,35.93,35.93,35.93
		s35.93-16.088,35.93-35.93c0-36.684-27.459-75.453-28.627-77.087c-3.189-4.033-9.036-4.725-13.069-1.536
		C195.764,227.229,195.252,227.75,194.803,228.316z M202.105,323.368c-9.926,0-17.965-8.039-17.965-17.965
		c1.491-19.492,7.653-38.337,17.965-54.946c10.312,16.609,16.474,35.454,17.965,54.946
		C220.07,315.329,212.031,323.368,202.105,323.368z"/>
	<rect x="157.193" y="359.298" style="fill:#004559;" width="89.825" height="17.965"/>
	<rect x="139.228" y="395.228" style="fill:#004559;" width="125.754" height="17.965"/>
	<path style="fill:#004559;" d="M471.579,80.842h-26.947c-4.958,0-8.982,4.024-8.982,8.982v71.86c0,4.958,4.024,8.982,8.982,8.982
		h8.982v233.544h-35.93V242.526c0-4.958-4.024-8.982-8.982-8.982h-44.912v-35.93c0-2.829-1.329-5.488-3.593-7.186l-32.337-24.253
		v-58.386h26.947c4.958,0,8.982-4.024,8.982-8.982V8.982c0-4.958-4.024-8.982-8.982-8.982H40.421c-4.958,0-8.982,4.024-8.982,8.982
		v89.825c0,4.958,4.024,8.982,8.982,8.982h26.947v350.316h-35.93c-4.958,0-8.982,4.024-8.982,8.982v35.93
		c0,4.958,4.024,8.982,8.982,8.982h341.333c4.958,0,8.982-4.024,8.982-8.982v-35.93c0-4.958-4.024-8.982-8.982-8.982H327.86V318.877
		l32.337-24.253c2.264-1.698,3.593-4.356,3.593-7.186v-35.93h35.93v161.684c0,4.958,4.024,8.982,8.982,8.982h53.895
		c4.958,0,8.982-4.024,8.982-8.982V170.667h8.982c4.958,0,8.982-4.024,8.982-8.982V44.912h-17.965V80.842z M49.404,53.895H291.93
		V35.93H49.404V17.965h296.421v71.86H49.404V53.895z M363.789,494.035H40.421V476.07h323.368V494.035z M85.333,458.105V107.789
		h224.561v350.316H85.333z M345.825,282.947l-17.965,13.474V188.632l17.965,13.474V282.947z M471.579,152.702h-17.965V98.807h17.965
		V152.702z"/>
</g>
<g>
</g>
<g>
</g>
<g>
</g>
<g>
</g>
<g>
</g>
<g>
</g>
<g>
</g>
<g>
</g>
<g>
</g>
<g>
</g>
<g>
</g>
<g>
</g>
<g>
</g>
<g>
</g>
<g>
</g>
</svg>
