<?xml version="1.0" encoding="iso-8859-1"?>
<!-- Generator: Adobe Illustrator 19.0.0, SVG Export Plug-In . SVG Version: 6.00 Build 0)  -->
<svg version="1.1" id="Capa_1" xmlns="http://www.w3.org/2000/svg" xmlns:xlink="http://www.w3.org/1999/xlink" x="0px" y="0px"
	 viewBox="0 0 512 512" style="enable-background:new 0 0 512 512;" xml:space="preserve">
<path style="fill:#006684;" d="M375.467,264.533h-332.8c-18.85,0-34.133,15.283-34.133,34.133v68.267
	c0,18.85,15.283,34.133,34.133,34.133h332.8V264.533z"/>
<circle style="fill:#FAD87C;" cx="76.8" cy="332.8" r="34.133"/>
<g style="opacity:0.5;enable-background:new    ;">
	<path style="fill:#E97424;" d="M98.133,345.6c-18.645,0.205-33.92-14.737-34.133-33.382c-0.043-3.959,0.606-7.893,1.929-11.622
		c-17.835,5.956-27.469,25.242-21.513,43.076c5.956,17.835,25.242,27.469,43.076,21.513c10.155-3.388,18.125-11.358,21.513-21.513
		C105.506,344.9,101.837,345.549,98.133,345.6z"/>
</g>
<g>
	<rect x="145.067" y="298.667" style="fill:#E6E6E6;" width="230.4" height="34.133"/>
	<rect x="145.067" y="332.8" style="fill:#E6E6E6;" width="230.4" height="34.133"/>
</g>
<g>
	<rect x="145.067" y="298.667" style="fill:#CCCCCC;" width="230.4" height="17.067"/>
	<rect x="145.067" y="332.8" style="fill:#CCCCCC;" width="230.4" height="17.067"/>
</g>
<polygon style="fill:#89CEEA;" points="375.467,264.533 119.467,264.533 145.067,110.933 375.467,110.933 "/>
<g>
	<polygon style="fill:#FFFFFF;" points="187.733,110.933 162.133,264.533 196.267,264.533 221.867,110.933 	"/>
	<polygon style="fill:#FFFFFF;" points="238.933,110.933 213.333,264.533 230.4,264.533 256,110.933 	"/>
</g>
<polygon style="fill:#2996BF;" points="119.467,264.533 76.8,264.533 110.933,68.267 298.667,68.267 298.667,110.933 
	145.067,110.933 "/>
<rect x="8.533" y="196.267" style="fill:#006684;" width="42.667" height="34.133"/>
<polyline style="fill:#FAD87C;" points="298.667,145.067 298.667,8.533 503.467,8.533 503.467,145.067 "/>
<path style="fill:#B3B3B3;" d="M426.667,230.4h42.667c18.85,0,34.133-15.283,34.133-34.133v-51.2h-204.8v51.2
	c0,18.85,15.283,34.133,34.133,34.133h42.667v247.467c0,14.14,11.46,25.6,25.6,25.6l0,0l0,0c14.14,0,25.6-11.46,25.6-25.6l0,0V230.4
	z"/>
<rect x="42.667" y="401.067" style="fill:#999999;" width="136.533" height="102.4"/>
<rect x="42.667" y="401.067" style="fill:#666666;" width="136.533" height="25.6"/>
<g>
	<path style="fill:#004559;" d="M76.8,290.133c-23.561,0-42.667,19.106-42.667,42.667s19.106,42.667,42.667,42.667
		s42.667-19.106,42.667-42.667C119.441,309.248,100.352,290.159,76.8,290.133z M76.8,358.4c-14.14,0-25.6-11.46-25.6-25.6
		s11.46-25.6,25.6-25.6s25.6,11.46,25.6,25.6S90.94,358.4,76.8,358.4z"/>
	<rect x="136.533" y="460.8" style="fill:#004559;" width="17.067" height="17.067"/>
	<rect x="102.4" y="460.8" style="fill:#004559;" width="17.067" height="17.067"/>
	<rect x="68.267" y="460.8" style="fill:#004559;" width="17.067" height="17.067"/>
	<rect x="392.533" y="68.267" style="fill:#004559;" width="17.067" height="17.067"/>
	<rect x="358.4" y="85.333" style="fill:#004559;" width="17.067" height="17.067"/>
	<path style="fill:#004559;" d="M503.467,0h-204.8c-4.71,0-8.533,3.823-8.533,8.533v51.2h-179.2c-4.147,0-7.697,2.987-8.405,7.074
		L69.623,256h-9.89v-59.733c0-4.71-3.823-8.533-8.533-8.533H8.533c-4.71,0-8.533,3.823-8.533,8.533V230.4
		c0,4.71,3.823,8.533,8.533,8.533h34.133V256C19.115,256.026,0.026,275.115,0,298.667v68.267
		c0.026,20.267,14.285,37.734,34.133,41.813v94.72c0,4.71,3.823,8.533,8.533,8.533H179.2c4.71,0,8.533-3.823,8.533-8.533V409.6
		h179.2v68.267c0,18.85,15.283,34.133,34.133,34.133s34.133-15.283,34.133-34.133V238.933h34.133
		c23.552-0.026,42.641-19.115,42.667-42.667V8.533C512,3.823,508.177,0,503.467,0z M17.067,204.8h25.6v17.067h-25.6V204.8z
		 M324.267,17.067v93.867h17.067V17.067H358.4v51.2h17.067v-51.2h17.067V51.2H409.6V17.067h17.067v93.867h17.067V17.067H460.8v76.8
		h17.067v-76.8h17.067v119.467H307.2V17.067H324.267z M332.8,238.933h34.133V256H129.536l22.758-136.533h137.839v76.8
		C290.159,219.819,309.248,238.908,332.8,238.933z M118.11,76.8h172.023v25.6H145.067c-4.164,0-7.723,3.012-8.414,7.125L112.239,256
		H86.946L118.11,76.8z M170.667,494.933H51.2V409.6h17.067v34.133h17.067V409.6H102.4v34.133h17.067V409.6h17.067v34.133H153.6
		V409.6h17.067V494.933z M42.667,392.533c-14.14,0-25.6-11.46-25.6-25.6v-68.267c0-14.14,11.46-25.6,25.6-25.6h324.267v17.067
		H145.067c-4.71,0-8.533,3.823-8.533,8.533v68.267c0,4.71,3.823,8.533,8.533,8.533h221.867v17.067H42.667z M153.6,341.333h213.333
		V358.4H153.6V341.333z M153.6,324.267V307.2h213.333v17.067H153.6z M494.933,196.267c0,14.14-11.46,25.6-25.6,25.6h-42.667
		c-4.71,0-8.533,3.823-8.533,8.533v247.467c0,9.429-7.637,17.067-17.067,17.067c-9.429,0-17.067-7.637-17.067-17.067V230.4
		c0-4.71-3.823-8.533-8.533-8.533H332.8c-14.14,0-25.6-11.46-25.6-25.6V153.6h187.733V196.267z"/>
</g>
<g>
</g>
<g>
</g>
<g>
</g>
<g>
</g>
<g>
</g>
<g>
</g>
<g>
</g>
<g>
</g>
<g>
</g>
<g>
</g>
<g>
</g>
<g>
</g>
<g>
</g>
<g>
</g>
<g>
</g>
</svg>
