<?xml version="1.0" encoding="iso-8859-1"?>
<!-- Generator: Adobe Illustrator 19.0.0, SVG Export Plug-In . SVG Version: 6.00 Build 0)  -->
<svg version="1.1" id="Capa_1" xmlns="http://www.w3.org/2000/svg" xmlns:xlink="http://www.w3.org/1999/xlink" x="0px" y="0px"
	 viewBox="0 0 512 512" style="enable-background:new 0 0 512 512;" xml:space="preserve">
<rect x="8.533" y="8.533" style="fill:#2996BF;" width="494.933" height="494.933"/>
<rect x="42.667" y="42.667" style="fill:#E6E6E6;" width="426.667" height="426.667"/>
<circle style="fill:#FAD87C;" cx="384" cy="187.733" r="25.6"/>
<g style="opacity:0.5;enable-background:new    ;">
	<path style="fill:#E97424;" d="M400,197.333c-14.14,0-25.6-11.46-25.6-25.6c0.034-2.782,0.521-5.53,1.451-8.149
		c-13.38,4.463-20.599,18.918-16.145,32.299c4.463,13.38,18.918,20.599,32.299,16.145c7.62-2.543,13.602-8.525,16.145-16.145
		C405.53,196.813,402.782,197.299,400,197.333z"/>
</g>
<circle style="fill:#FAD87C;" cx="256" cy="256" r="25.6"/>
<g style="opacity:0.5;enable-background:new    ;">
	<path style="fill:#E97424;" d="M272,265.6c-14.14,0-25.6-11.46-25.6-25.6c0.034-2.782,0.521-5.53,1.451-8.149
		c-13.38,4.463-20.599,18.918-16.145,32.299c4.454,13.38,18.918,20.599,32.299,16.145c7.62-2.543,13.602-8.525,16.145-16.145
		C277.53,265.079,274.782,265.566,272,265.6z"/>
</g>
<circle style="fill:#FAD87C;" cx="128" cy="136.533" r="25.6"/>
<g style="opacity:0.5;enable-background:new    ;">
	<path style="fill:#E97424;" d="M144,146.133c-14.14,0-25.6-11.46-25.6-25.6c0.034-2.782,0.521-5.53,1.451-8.149
		c-13.38,4.463-20.599,18.918-16.145,32.299c4.463,13.38,18.918,20.599,32.299,16.145c7.62-2.543,13.602-8.525,16.145-16.145
		C149.53,145.613,146.782,146.099,144,146.133z"/>
</g>
<rect x="93.867" y="366.933" style="fill:#2996BF;" width="68.267" height="34.133"/>
<rect x="93.867" y="401.067" style="fill:#006684;" width="68.267" height="34.133"/>
<rect x="221.867" y="366.933" style="fill:#2996BF;" width="68.267" height="34.133"/>
<rect x="221.867" y="401.067" style="fill:#006684;" width="68.267" height="34.133"/>
<rect x="349.867" y="366.933" style="fill:#2996BF;" width="68.267" height="34.133"/>
<rect x="349.867" y="401.067" style="fill:#006684;" width="68.267" height="34.133"/>
<g>
	<path style="fill:#004559;" d="M42.667,477.867h426.667c4.71,0,8.533-3.823,8.533-8.533V42.667c0-4.71-3.823-8.533-8.533-8.533
		H42.667c-4.71,0-8.533,3.823-8.533,8.533v426.667C34.133,474.044,37.956,477.867,42.667,477.867z M51.2,51.2h409.6v409.6H51.2V51.2
		z"/>
	<path style="fill:#004559;" d="M503.467,0H8.533C3.823,0,0,3.823,0,8.533v494.933C0,508.177,3.823,512,8.533,512h494.933
		c4.71,0,8.533-3.823,8.533-8.533V8.533C512,3.823,508.177,0,503.467,0z M494.933,494.933H17.067V17.067h477.867V494.933z"/>
	<path style="fill:#004559;" d="M162.133,358.4h-25.6V169.455c18.185-4.625,29.167-23.117,24.542-41.301
		c-3.072-12.058-12.484-21.47-24.542-24.542V68.267h-17.067v35.345c-18.185,4.625-29.167,23.117-24.542,41.301
		c3.072,12.058,12.484,21.47,24.542,24.542V358.4h-25.6c-4.71,0-8.533,3.823-8.533,8.533V435.2c0,4.71,3.823,8.533,8.533,8.533
		h68.267c4.71,0,8.533-3.823,8.533-8.533v-68.267C170.667,362.223,166.844,358.4,162.133,358.4z M110.933,136.533
		c0-9.429,7.637-17.067,17.067-17.067c9.429,0,17.067,7.637,17.067,17.067S137.429,153.6,128,153.6
		C118.571,153.6,110.933,145.963,110.933,136.533z M102.4,375.467h51.2v17.067h-51.2V375.467z M153.6,426.667h-51.2V409.6h51.2
		V426.667z"/>
	<path style="fill:#004559;" d="M290.133,358.4h-25.6v-69.478c18.185-4.625,29.167-23.117,24.542-41.301
		c-3.072-12.058-12.484-21.47-24.542-24.542V68.267h-17.067v154.812c-18.185,4.625-29.167,23.117-24.542,41.301
		c3.072,12.058,12.484,21.47,24.542,24.542V358.4h-25.6c-4.71,0-8.533,3.823-8.533,8.533V435.2c0,4.71,3.823,8.533,8.533,8.533
		h68.267c4.71,0,8.533-3.823,8.533-8.533v-68.267C298.667,362.223,294.844,358.4,290.133,358.4z M238.933,256
		c0-9.429,7.637-17.067,17.067-17.067c9.429,0,17.067,7.637,17.067,17.067c0,9.429-7.637,17.067-17.067,17.067
		C246.571,273.067,238.933,265.429,238.933,256z M230.4,375.467h51.2v17.067h-51.2V375.467z M281.6,426.667h-51.2V409.6h51.2
		V426.667z"/>
	<path style="fill:#004559;" d="M418.133,358.4h-25.6V220.655c18.185-4.625,29.167-23.117,24.542-41.301
		c-3.072-12.058-12.484-21.47-24.542-24.542V68.267h-17.067v86.545c-18.185,4.625-29.167,23.117-24.542,41.301
		c3.072,12.058,12.484,21.47,24.542,24.542V358.4h-25.6c-4.71,0-8.533,3.823-8.533,8.533V435.2c0,4.71,3.823,8.533,8.533,8.533
		h68.267c4.71,0,8.533-3.823,8.533-8.533v-68.267C426.667,362.223,422.844,358.4,418.133,358.4z M366.933,187.733
		c0-9.429,7.637-17.067,17.067-17.067c9.429,0,17.067,7.637,17.067,17.067c0,9.429-7.637,17.067-17.067,17.067
		C374.571,204.8,366.933,197.163,366.933,187.733z M358.4,375.467h51.2v17.067h-51.2V375.467z M409.6,426.667h-51.2V409.6h51.2
		V426.667z"/>
	<rect x="153.6" y="68.267" style="fill:#004559;" width="17.067" height="17.067"/>
	<rect x="85.333" y="68.267" style="fill:#004559;" width="17.067" height="17.067"/>
	<rect x="281.6" y="68.267" style="fill:#004559;" width="17.067" height="17.067"/>
	<rect x="213.333" y="68.267" style="fill:#004559;" width="17.067" height="17.067"/>
	<rect x="409.6" y="68.267" style="fill:#004559;" width="17.067" height="17.067"/>
	<rect x="341.333" y="68.267" style="fill:#004559;" width="17.067" height="17.067"/>
</g>
<g>
</g>
<g>
</g>
<g>
</g>
<g>
</g>
<g>
</g>
<g>
</g>
<g>
</g>
<g>
</g>
<g>
</g>
<g>
</g>
<g>
</g>
<g>
</g>
<g>
</g>
<g>
</g>
<g>
</g>
</svg>
