<?xml version="1.0" encoding="iso-8859-1"?>
<!-- Generator: Adobe Illustrator 19.0.0, SVG Export Plug-In . SVG Version: 6.00 Build 0)  -->
<svg version="1.1" id="Capa_1" xmlns="http://www.w3.org/2000/svg" xmlns:xlink="http://www.w3.org/1999/xlink" x="0px" y="0px"
	 viewBox="0 0 511.998 511.998" style="enable-background:new 0 0 511.998 511.998;" xml:space="preserve">
<circle style="fill:#2996BF;" cx="256.002" cy="255.999" r="220.452"/>
<circle style="fill:#FFFFFF;" cx="256.002" cy="255.999" r="183.71"/>
<polygon style="fill:#B3B3B3;" points="379.41,340.432 294.976,255.999 379.41,171.566 424.878,165.062 502.817,87.123 
	424.878,9.184 346.93,87.123 340.435,132.592 256.002,217.025 171.569,132.592 165.075,87.123 87.127,9.184 9.188,87.123 
	87.127,165.062 132.595,171.566 217.028,255.999 132.595,340.432 87.127,346.926 9.188,424.874 87.127,502.813 165.075,424.874 
	171.569,379.406 256.002,294.973 340.435,379.406 346.93,424.874 424.878,502.813 502.817,424.874 424.878,346.926 "/>
<g>
	
		<rect x="415.692" y="441.583" transform="matrix(-0.7071 0.7071 -0.7071 -0.7071 1044.0519 469.0766)" style="fill:#004559;" width="18.371" height="18.371"/>
	
		<rect x="77.941" y="51.955" transform="matrix(-0.7071 0.7071 -0.7071 -0.7071 191.9677 42.7654)" style="fill:#004559;" width="18.371" height="18.371"/>
	<path style="fill:#004559;" d="M2.694,431.368l77.939,77.939c3.592,3.582,9.397,3.582,12.988,0l52.027-52.027
		c68.717,37.808,151.993,37.808,220.709,0l52.027,52.027c3.582,3.582,9.406,3.582,12.988,0l77.939-77.939
		c3.582-3.582,3.582-9.406,0-12.988l-52.027-52.027c37.808-68.717,37.808-151.993,0-220.709l52.027-52.027
		c3.582-3.592,3.582-9.397,0-12.988L431.372,2.69c-3.582-3.582-9.406-3.582-12.988,0l-52.036,52.027
		c-68.708-37.808-151.983-37.808-220.691,0L93.621,2.69c-3.592-3.582-9.406-3.582-12.988,0L2.694,80.629
		c-3.582,3.592-3.582,9.406,0,12.988l52.027,52.027c-37.808,68.717-37.808,151.993,0,220.709L2.694,418.38
		C-0.898,421.963-0.898,427.777,2.694,431.368z M256.002,467.265c-33.692,0-66.889-8.065-96.824-23.515l12.391-12.382
		c0.377-0.441,0.716-0.909,1.01-1.405c52.752,25.242,114.093,25.242,166.846,0c0.294,0.496,0.625,0.974,1.01,1.405l12.391,12.382
		C322.891,459.201,289.686,467.265,256.002,467.265z M176.3,411.234l3.922-27.474l75.78-75.799l75.78,75.771l3.922,27.474
		c-50.015,25.756-109.39,25.756-159.405,0V411.234z M467.269,255.999c-0.009,33.692-8.065,66.889-23.515,96.824l-12.382-12.391
		c-0.432-0.386-0.909-0.716-1.405-1.01c12.456-26.041,18.931-54.553,18.931-83.423c0-7.56-0.441-15.11-1.314-22.624l-18.242,2.122
		c0.79,6.806,1.185,13.65,1.185,20.502c-0.018,27.722-6.632,55.04-19.29,79.703l-27.474-3.922l-75.799-75.78l75.771-75.78
		l42.437-6.062c1.966-0.276,3.794-1.185,5.199-2.59l12.382-12.391C459.195,189.11,467.26,222.306,467.269,255.999z M256.002,44.732
		c33.683,0.009,66.88,8.065,96.815,23.515l-12.382,12.382c-0.386,0.432-0.716,0.909-1.01,1.405
		c-52.752-25.242-114.093-25.242-166.846,0c-0.294-0.496-0.625-0.974-1.01-1.405l-12.382-12.382
		C189.123,52.797,222.319,44.732,256.002,44.732z M335.705,100.764l-3.922,27.474l-75.78,75.799l-75.78-75.771l-3.922-27.501
		C226.315,75.008,285.69,75.008,335.705,100.764z M44.736,255.999c0.009-33.692,8.065-66.889,23.515-96.824l12.382,12.391
		c0.432,0.386,0.909,0.716,1.405,1.01c-25.242,52.752-25.242,114.093,0,166.846c-0.496,0.294-0.964,0.634-1.405,1.01l-12.382,12.391
		C52.801,322.879,44.736,289.682,44.736,255.999z M100.767,335.701c-25.756-50.015-25.756-109.39,0-159.405l27.474,3.922
		l75.799,75.78l-75.771,75.78L100.767,335.701z M91.426,355.588l42.446-6.062c1.966-0.285,3.784-1.194,5.19-2.6l84.433-84.433
		c3.582-3.582,3.582-9.406,0-12.988l-84.406-84.442c-1.405-1.405-3.224-2.315-5.19-2.6L91.453,156.4l-43.291-43.291l25.967-25.986
		L61.15,74.126l-25.986,25.995L22.176,87.123l64.951-64.951l69.286,69.277l6.062,42.446c0.285,1.966,1.194,3.784,2.6,5.19
		l84.433,84.433c3.582,3.582,9.406,3.582,12.988,0l84.442-84.433c1.405-1.405,2.315-3.224,2.6-5.19l6.062-42.446l43.3-43.291
		l25.977,25.967l12.997-12.979L411.88,35.161l12.997-12.988l64.951,64.951l-69.277,69.286l-42.446,6.062
		c-1.966,0.285-3.784,1.194-5.19,2.6l-84.433,84.433c-3.582,3.582-3.582,9.406,0,12.988l84.433,84.442
		c1.405,1.405,3.224,2.315,5.19,2.6l42.446,6.062l43.291,43.3l-25.967,25.977l12.979,12.997l25.986-25.986l12.988,12.997
		l-64.951,64.951l-69.286-69.277l-6.062-42.446c-0.285-1.966-1.194-3.784-2.6-5.19l-84.433-84.433
		c-3.582-3.582-9.406-3.582-12.988,0l-84.442,84.424c-1.405,1.405-2.315,3.224-2.6,5.19l-6.062,42.446l-43.3,43.291l-25.977-25.967
		l-12.997,12.979l25.986,25.986l-12.997,12.988l-64.942-64.951L91.426,355.588z"/>
	
		<rect x="51.998" y="415.719" transform="matrix(-0.7071 0.7071 -0.7071 -0.7071 404.8993 682.0941)" style="fill:#004559;" width="18.371" height="18.371"/>
	
		<rect x="441.654" y="77.97" transform="matrix(-0.707 0.7072 -0.7072 -0.707 831.2228 -170.0612)" style="fill:#004559;" width="18.371" height="18.371"/>
	<path style="fill:#004559;" d="M426.246,217.42l17.921-4.032c-1.938-8.561-4.446-16.984-7.532-25.205l-17.204,6.43
		C422.223,202.043,424.501,209.667,426.246,217.42z"/>
</g>
<g>
</g>
<g>
</g>
<g>
</g>
<g>
</g>
<g>
</g>
<g>
</g>
<g>
</g>
<g>
</g>
<g>
</g>
<g>
</g>
<g>
</g>
<g>
</g>
<g>
</g>
<g>
</g>
<g>
</g>
</svg>
