<?xml version="1.0" encoding="iso-8859-1"?>
<!-- Generator: Adobe Illustrator 19.0.0, SVG Export Plug-In . SVG Version: 6.00 Build 0)  -->
<svg version="1.1" id="Capa_1" xmlns="http://www.w3.org/2000/svg" xmlns:xlink="http://www.w3.org/1999/xlink" x="0px" y="0px"
	 viewBox="0 0 512.003 512.003" style="enable-background:new 0 0 512.003 512.003;" xml:space="preserve">
<path style="fill:#999999;" d="M42.663,25.621h273.044c18.849,0,34.13,15.282,34.13,34.13v85.326c0,18.849-15.282,34.13-34.13,34.13
	H42.663c-18.849,0-34.13-15.282-34.13-34.13V59.751C8.533,40.894,23.815,25.621,42.663,25.621z"/>
<path style="fill:#666666;" d="M8.533,145.077c0,18.849,15.282,34.13,34.13,34.13h273.044c18.849,0,34.13-15.282,34.13-34.13v-8.533
	H8.533V145.077z"/>
<path style="fill:#999999;" d="M42.663,179.208h273.044c18.849,0,34.13,15.282,34.13,34.13v85.326
	c0,18.849-15.282,34.13-34.13,34.13H42.663c-18.849,0-34.13-15.282-34.13-34.13v-85.326
	C8.533,194.481,23.815,179.208,42.663,179.208z"/>
<path style="fill:#666666;" d="M8.533,298.664c0,18.849,15.282,34.13,34.13,34.13h273.044c18.849,0,34.13-15.282,34.13-34.13v-8.533
	H8.533V298.664z"/>
<path style="fill:#999999;" d="M42.663,332.795h273.044c18.849,0,34.13,15.282,34.13,34.13v85.326
	c0,18.849-15.282,34.13-34.13,34.13H42.663c-18.849,0-34.13-15.282-34.13-34.13v-85.326
	C8.533,348.068,23.815,332.795,42.663,332.795z"/>
<path style="fill:#666666;" d="M8.533,452.252c0,18.849,15.282,34.13,34.13,34.13h273.044c18.849,0,34.13-15.282,34.13-34.13v-8.533
	H8.533V452.252z"/>
<circle style="fill:#808080;" cx="358.37" cy="341.302" r="145.055"/>
<circle style="fill:#4D4D4D;" cx="358.37" cy="341.302" r="110.924"/>
<circle style="fill:#FFFFFF;" cx="358.37" cy="341.302" r="93.859"/>
<circle style="fill:#808080;" cx="358.37" cy="341.302" r="25.598"/>
<g>
	<rect x="290.109" y="59.725" style="fill:#004559;" width="17.065" height="17.065"/>
	<rect x="51.196" y="281.574" style="fill:#004559;" width="17.065" height="17.065"/>
	<rect x="153.587" y="366.9" style="fill:#004559;" width="17.065" height="17.065"/>
	<path style="fill:#004559;" d="M358.37,187.74c-2.841,0-5.614,0.273-8.422,0.427c-2.509-3.405-5.512-6.425-8.908-8.959
		c10.862-7.987,17.296-20.649,17.33-34.13V59.751c-0.026-23.55-19.113-42.638-42.663-42.663H42.663
		C19.113,17.113,0.026,36.201,0,59.751v85.326c0.034,13.482,6.468,26.144,17.33,34.13C6.468,187.194,0.034,199.857,0,213.338v85.326
		c0.034,13.482,6.468,26.144,17.33,34.13C6.468,340.781,0.034,353.444,0,366.925v85.326c0.026,23.55,19.113,42.638,42.663,42.663
		h273.044c4.906-0.068,9.761-0.99,14.343-2.73c83.338,15.674,163.604-39.182,179.279-122.52
		c15.674-83.338-39.182-163.605-122.52-179.279C377.432,188.619,367.91,187.732,358.37,187.74z M17.065,145.077H324.24v-17.065
		H17.065V76.816h255.979V59.751H17.065c0-14.139,11.459-25.598,25.598-25.598h273.044c14.139,0,25.598,11.459,25.598,25.598H324.24
		v17.065h17.065v68.261c0,14.139-11.459,25.598-25.598,25.598H42.663C28.525,170.675,17.065,159.207,17.065,145.077z
		 M17.065,298.664H34.13v-17.065H17.065v-68.261c0-14.139,11.459-25.598,25.598-25.598h273.044c4.138,0.043,8.2,1.118,11.818,3.114
		c-19.48,3.993-37.987,11.766-54.481,22.859v-0.375H34.13v17.065h218.299c-15.214,14.463-27.313,31.886-35.555,51.196H85.326v17.065
		h125.609c-2.44,8.37-4.147,16.937-5.12,25.598H42.663C28.525,324.262,17.065,312.794,17.065,298.664z M42.663,341.328h162.12
		c0.051,8.584,0.828,17.142,2.312,25.598h-19.378v17.065h23.217c5.401,18.567,14.267,35.939,26.135,51.196H17.065v-51.196h119.457
		v-17.065H17.065C17.065,352.787,28.525,341.328,42.663,341.328z M42.663,477.849c-14.139,0-25.598-11.459-25.598-25.598l0,0
		h235.364c10.683,10.205,22.765,18.823,35.897,25.598H42.663z M433.85,454.991l-8.362-14.505l-14.779,8.533l8.319,14.412
		c-16.263,8.115-33.985,12.867-52.126,13.985v-16.63h-17.065v16.63c-18.132-1.109-35.863-5.853-52.126-13.959l8.319-14.412
		l-14.778-8.533l-8.362,14.505c-15.12-10.086-28.098-23.064-38.184-38.183l14.505-8.362l-8.533-14.778l-14.403,8.319
		c-8.115-16.272-12.876-34.003-13.993-52.151h16.63v-17.065h-16.63c1.109-18.132,5.853-35.863,13.959-52.126l14.403,8.319
		l8.533-14.778l-14.505-8.362c10.086-15.12,23.064-28.098,38.183-38.184l8.362,14.505l14.778-8.533l-8.319-14.412
		c16.272-8.115,34.011-12.876,52.16-13.985v16.63h17.065v-16.63c18.132,1.109,35.863,5.853,52.126,13.959l-8.319,14.412
		l14.779,8.533l8.362-14.505c15.12,10.086,28.098,23.064,38.183,38.183l-14.505,8.362l8.533,14.779l14.403-8.319
		c8.115,16.272,12.876,34.003,13.993,52.151h-16.63v17.065h16.63c-1.109,18.132-5.853,35.863-13.959,52.126l-14.403-8.319
		l-8.533,14.779l14.505,8.362C461.973,431.927,448.987,444.905,433.85,454.991z"/>
	<path style="fill:#004559;" d="M358.37,238.936c-56.546,0-102.391,45.846-102.391,102.391s45.846,102.391,102.391,102.391
		s102.391-45.846,102.391-102.391C460.702,284.799,414.89,238.996,358.37,238.936z M443.696,341.328
		c-0.017,12.074-2.602,23.994-7.603,34.984l-44.967-25.965c1.835-5.896,1.835-12.21,0-18.106l44.967-25.965
		C441.102,317.283,443.688,329.228,443.696,341.328z M427.484,291.548l-44.796,25.888c-4.352-4.377-9.804-7.5-15.785-9.027v-51.972
		c24.309,2.474,46.383,15.265,60.624,35.112H427.484z M358.37,358.393c-9.429,0-17.065-7.637-17.065-17.065
		c0-9.429,7.637-17.065,17.065-17.065c9.429,0,17.065,7.637,17.065,17.065C375.435,350.756,367.799,358.393,358.37,358.393z
		 M349.838,256.436v51.972c-5.981,1.527-11.434,4.65-15.785,9.027l-44.796-25.888C303.488,271.701,325.545,258.919,349.838,256.436z
		 M273.044,341.328c0.017-12.074,2.602-23.994,7.603-34.984l44.967,25.965c-1.835,5.896-1.835,12.21,0,18.106l-44.967,25.897
		C275.646,365.321,273.061,353.393,273.044,341.328z M289.256,391.107l44.796-25.888c4.352,4.377,9.804,7.5,15.785,9.027v51.972
		C325.545,423.727,303.488,410.945,289.256,391.107z M366.903,426.219v-51.972c5.981-1.527,11.434-4.65,15.785-9.027l44.839,25.888
		C413.286,410.954,391.212,423.736,366.903,426.219z"/>
</g>
<g>
</g>
<g>
</g>
<g>
</g>
<g>
</g>
<g>
</g>
<g>
</g>
<g>
</g>
<g>
</g>
<g>
</g>
<g>
</g>
<g>
</g>
<g>
</g>
<g>
</g>
<g>
</g>
<g>
</g>
</svg>
