<?xml version="1.0" encoding="iso-8859-1"?>
<!-- Generator: Adobe Illustrator 19.0.0, SVG Export Plug-In . SVG Version: 6.00 Build 0)  -->
<svg version="1.1" id="Capa_1" xmlns="http://www.w3.org/2000/svg" xmlns:xlink="http://www.w3.org/1999/xlink" x="0px" y="0px"
	 viewBox="0 0 512 512" style="enable-background:new 0 0 512 512;" xml:space="preserve">
<rect x="204.8" y="341.333" style="fill:#E6E6E6;" width="102.4" height="102.4"/>
<g>
	<rect x="136.533" y="221.867" style="fill:#2996BF;" width="238.933" height="68.267"/>
	<path style="fill:#2996BF;" d="M332.8,290.133v34.133c0,9.429-7.637,17.067-17.067,17.067H196.267
		c-9.429,0-17.067-7.637-17.067-17.067v-34.133H332.8z"/>
</g>
<polygon style="fill:#E6E6E6;" points="196.267,221.867 213.333,42.667 298.667,42.667 315.733,221.867 "/>
<rect x="230.4" y="8.533" style="fill:#FFA753;" width="51.2" height="34.133"/>
<rect x="204.8" y="341.333" style="fill:#B3B3B3;" width="102.4" height="25.6"/>
<g>
	<rect x="179.2" y="290.133" style="fill:#006684;" width="153.6" height="25.6"/>
	<rect x="256" y="221.867" style="fill:#006684;" width="59.733" height="68.267"/>
	<rect x="136.533" y="221.867" style="fill:#006684;" width="59.733" height="68.267"/>
</g>
<g>
	<path style="fill:#004559;" d="M281.6,0h-51.2c-4.71,0-8.533,3.823-8.533,8.533v25.6h-8.533c-4.412-0.017-8.115,3.328-8.533,7.723
		l-16.29,171.477h-51.977c-4.71,0-8.533,3.823-8.533,8.533v68.267c0,4.71,3.823,8.533,8.533,8.533h34.133v25.6
		c0,14.14,11.46,25.6,25.6,25.6v128c0,18.85,15.283,34.133,34.133,34.133h34.133v-17.067H230.4c-9.429,0-17.067-7.637-17.067-17.067
		v-25.6h34.133v25.6h17.067v-25.6H307.2c4.71,0,8.533-3.823,8.533-8.533v-93.867c14.14,0,25.6-11.46,25.6-25.6v-25.6h34.133
		c4.71,0,8.533-3.823,8.533-8.533v-68.267c0-4.71-3.823-8.533-8.533-8.533H323.49L307.2,41.856c-0.418-4.395-4.122-7.74-8.533-7.723
		h-8.533v-25.6C290.133,3.823,286.31,0,281.6,0z M238.933,17.067h34.133v17.067h-34.133V17.067z M264.533,281.6v-51.2H307.2v51.2
		H264.533z M247.467,281.6H204.8v-51.2h42.667V281.6z M145.067,230.4h42.667v51.2h-42.667V230.4z M298.667,435.2h-85.333v-17.067
		H281.6v-17.067h-68.267V384H281.6v-17.067h-68.267v-17.067h85.333V435.2z M324.267,324.267c0,4.71-3.823,8.533-8.533,8.533H196.267
		c-4.71,0-8.533-3.823-8.533-8.533v-25.6h136.533V324.267z M366.933,281.6h-42.667v-51.2h42.667V281.6z M306.347,213.333H205.653
		l1.621-17.067H256V179.2h-47.095l12.186-128h69.82L306.347,213.333z"/>
	<rect x="273.067" y="179.2" style="fill:#004559;" width="17.067" height="17.067"/>
</g>
<g>
</g>
<g>
</g>
<g>
</g>
<g>
</g>
<g>
</g>
<g>
</g>
<g>
</g>
<g>
</g>
<g>
</g>
<g>
</g>
<g>
</g>
<g>
</g>
<g>
</g>
<g>
</g>
<g>
</g>
</svg>
