<?xml version="1.0" encoding="iso-8859-1"?>
<!-- Generator: Adobe Illustrator 19.0.0, SVG Export Plug-In . SVG Version: 6.00 Build 0)  -->
<svg version="1.1" id="Capa_1" xmlns="http://www.w3.org/2000/svg" xmlns:xlink="http://www.w3.org/1999/xlink" x="0px" y="0px"
	 viewBox="0 0 512 512" style="enable-background:new 0 0 512 512;" xml:space="preserve">
<path style="fill:#808080;" d="M187.733,460.8h-17.067c-18.85,0-34.133,15.283-34.133,34.133l0,0
	c-37.7,0-68.267-30.566-68.267-68.267l0,0c0-37.7,30.566-68.267,68.267-68.267l0,0c0,18.85,15.283,34.133,34.133,34.133h17.067
	V460.8z"/>
<polygon style="fill:#CCCCCC;" points="349.867,170.667 349.867,8.533 162.133,8.533 162.133,170.667 196.267,170.667 
	196.267,145.067 315.733,145.067 315.733,170.667 "/>
<rect x="162.133" y="42.667" style="fill:#808080;" width="187.733" height="34.133"/>
<polygon style="fill:#CCCCCC;" points="230.4,145.067 281.6,145.067 298.667,349.867 324.267,358.4 324.267,486.4 298.667,503.467 
	213.333,503.467 187.733,486.4 187.733,358.4 213.333,349.867 "/>
<g>
	<polygon style="fill:#808080;" points="281.6,145.067 230.4,145.067 228.267,170.667 283.733,170.667 	"/>
	<path style="fill:#808080;" d="M375.467,358.4L375.467,358.4c0,18.85-15.283,34.133-34.133,34.133H256
		c-18.85,0-34.133,15.283-34.133,34.133l0,0c0,18.85,15.283,34.133,34.133,34.133h85.333c18.85,0,34.133,15.283,34.133,34.133l0,0
		c37.7,0,68.267-30.566,68.267-68.267l0,0C443.733,388.966,413.167,358.4,375.467,358.4z"/>
</g>
<path style="fill:#FFA753;" d="M256,392.533c-18.85,0-34.133,15.283-34.133,34.133S237.15,460.8,256,460.8h34.133v-68.267H256z"/>
<g>
	<path style="fill:#004559;" d="M185.037,350.31c-3.482,1.161-5.837,4.42-5.837,8.09V384h-8.533c-14.14,0-25.6-11.46-25.6-25.6
		c0-4.71-3.823-8.533-8.533-8.533c-42.419,0-76.8,34.381-76.8,76.8s34.381,76.8,76.8,76.8c4.71,0,8.533-3.823,8.533-8.533
		c0-14.14,11.46-25.6,25.6-25.6h8.533V486.4c0,2.85,1.425,5.513,3.797,7.1l25.6,17.067c1.408,0.93,3.055,1.434,4.736,1.434h85.333
		c1.681,0,3.328-0.503,4.736-1.434l25.6-17.067c2.372-1.587,3.797-4.25,3.797-7.1v-17.067h8.533c14.14,0,25.6,11.46,25.6,25.6
		c0,4.71,3.823,8.533,8.533,8.533c42.419,0,76.8-34.381,76.8-76.8s-34.381-76.8-76.8-76.8c-4.71,0-8.533,3.823-8.533,8.533
		c0,14.14-11.46,25.6-25.6,25.6H332.8v-25.6c0-3.669-2.355-6.929-5.837-8.09l-20.267-6.758L290.867,153.6H307.2v17.067
		c0,4.71,3.823,8.533,8.533,8.533h34.133c4.71,0,8.533-3.823,8.533-8.533V8.533c0-4.71-3.823-8.533-8.533-8.533H162.133
		c-4.71,0-8.533,3.823-8.533,8.533v162.133c0,4.71,3.823,8.533,8.533,8.533h34.133c4.71,0,8.533-3.823,8.533-8.533V153.6h16.333
		l-15.829,189.952L185.037,350.31z M170.667,452.267c-20.087,0.026-37.444,14.029-41.711,33.655
		c-32.725-4.164-55.876-34.074-51.712-66.799c3.439-27.008,24.704-48.282,51.712-51.712c4.267,19.627,21.623,33.63,41.711,33.655
		h8.533v51.2H170.667z M383.044,367.411c32.725,4.164,55.876,34.074,51.712,66.799c-3.439,27.008-24.704,48.282-51.712,51.712
		c-4.267-19.627-21.623-33.63-41.711-33.655h-42.667v-51.2h42.667C361.421,401.041,378.778,387.038,383.044,367.411z M256,452.267
		c-14.14,0-25.6-11.46-25.6-25.6s11.46-25.6,25.6-25.6h25.6v51.2H256z M341.333,68.267H170.667V51.2h170.667V68.267z
		 M341.333,17.067v17.067H170.667V17.067H341.333z M196.267,136.533c-4.71,0-8.533,3.823-8.533,8.533v17.067h-17.067v-76.8h170.667
		v76.8h-17.067v-17.067c0-4.71-3.823-8.533-8.533-8.533H196.267z M221.867,350.575L238.251,153.6h35.499l16.384,196.975
		c0.282,3.396,2.569,6.298,5.803,7.381l19.797,6.596V384H256c-23.561,0-42.667,19.106-42.667,42.667s19.106,42.667,42.667,42.667
		h59.733v12.501l-19.627,13.099h-80.213l-19.627-13.099V364.553l19.763-6.596C219.281,356.89,221.577,353.98,221.867,350.575z"/>
	<rect x="238.933" y="341.333" style="fill:#004559;" width="34.133" height="17.067"/>
	<rect x="247.467" y="204.8" style="fill:#004559;" width="17.067" height="119.467"/>
	<rect x="247.467" y="418.133" style="fill:#004559;" width="17.067" height="17.067"/>
	<rect x="247.467" y="102.4" style="fill:#004559;" width="17.067" height="17.067"/>
</g>
<g>
</g>
<g>
</g>
<g>
</g>
<g>
</g>
<g>
</g>
<g>
</g>
<g>
</g>
<g>
</g>
<g>
</g>
<g>
</g>
<g>
</g>
<g>
</g>
<g>
</g>
<g>
</g>
<g>
</g>
</svg>
