<?xml version="1.0" encoding="iso-8859-1"?>
<!-- Generator: Adobe Illustrator 19.0.0, SVG Export Plug-In . SVG Version: 6.00 Build 0)  -->
<svg version="1.1" id="Capa_1" xmlns="http://www.w3.org/2000/svg" xmlns:xlink="http://www.w3.org/1999/xlink" x="0px" y="0px"
	 viewBox="0 0 511.996 511.996" style="enable-background:new 0 0 511.996 511.996;" xml:space="preserve">
<circle style="fill:#808080;" cx="255.97" cy="255.973" r="247.438"/>
<circle style="fill:#4D4D4D;" cx="255.97" cy="255.973" r="162.114"/>
<circle style="fill:#FFFFFF;" cx="255.97" cy="255.973" r="127.985"/>
<circle style="fill:#808080;" cx="255.97" cy="255.973" r="25.597"/>
<path style="fill:#2996BF;" d="M409.552,315.725c-51.8-0.034-93.822,41.928-93.864,93.728c-0.017,18.302,5.324,36.203,15.367,51.51
	l-40.955,4.556v37.918h119.453c51.834,0,93.856-42.022,93.856-93.856S461.386,315.725,409.552,315.725z"/>
<circle style="fill:#FAD87C;" cx="409.552" cy="409.555" r="59.726"/>
<g style="opacity:0.5;enable-background:new    ;">
	<path style="fill:#E97424;" d="M446.881,431.978c-32.986,0-59.726-26.74-59.726-59.726c0.085-6.485,1.237-12.909,3.413-19.019
		c-31.22,10.375-48.131,44.095-37.756,75.315c10.375,31.22,44.095,48.131,75.315,37.756c17.816-5.921,31.8-19.889,37.739-37.704
		C459.765,430.758,453.349,431.901,446.881,431.978z"/>
</g>
<polygon style="fill:#FAD87C;" points="255.97,469.307 255.97,503.436 290.099,503.436 290.099,465.518 "/>
<g>
	<path style="fill:#004559;" d="M409.552,341.322c-37.696,0-68.259,30.563-68.259,68.259s30.563,68.259,68.259,68.259
		s68.259-30.563,68.259-68.259C477.768,371.901,447.231,341.364,409.552,341.322z M409.552,460.774
		c-28.276,0-51.194-22.918-51.194-51.194s22.918-51.194,51.194-51.194c28.276,0,51.194,22.918,51.194,51.194
		C460.721,437.848,437.811,460.749,409.552,460.774z"/>
	<path style="fill:#004559;" d="M409.552,375.451c-18.848,0-34.129,15.281-34.129,34.129h17.065c0-9.428,7.636-17.065,17.065-17.065
		c9.428,0,17.065,7.636,17.065,17.065h17.065C443.682,390.732,428.4,375.451,409.552,375.451z"/>
	<rect x="401.02" y="418.087" style="fill:#004559;" width="17.065" height="25.597"/>
	<path style="fill:#004559;" d="M255.97,0.028C114.666,0.19,0.162,114.694,0,255.998c0,145.903,110.067,255.97,255.97,255.97
		h153.582c56.484,0.068,102.32-45.674,102.388-102.149c0.026-20.955-6.391-41.416-18.379-58.609
		c52.585-131.227-11.169-280.228-142.388-332.812C320.901,6.265,288.581,0.028,255.97,0.028z M51.868,383.693l31.024-17.918
		l-8.532-14.778l-30.802,17.781c-16.365-32.38-25.341-67.986-26.288-104.248h33.925v-17.065H17.278
		c1.246-36.134,10.725-71.51,27.722-103.42l29.36,16.954l8.532-14.778l-29.317-16.928c19.223-30.597,45.093-56.467,75.69-75.69
		l16.928,29.317l14.778-8.532l-16.954-29.36c31.911-16.996,67.286-26.476,103.42-27.722v33.916h17.065V17.306
		c36.134,1.246,71.51,10.725,103.421,27.722l-16.954,29.36l14.778,8.532l16.928-29.317c30.597,19.223,56.467,45.093,75.69,75.69
		l-29.317,16.928l8.532,14.778l29.36-16.954c16.996,31.911,26.476,67.286,27.722,103.42h-33.916v17.065h33.916
		c-0.802,24.505-5.409,48.737-13.652,71.834c-16.911-16.544-39.035-26.698-62.602-28.728c5.401-16.681,8.174-34.104,8.208-51.638
		c0-94.248-76.399-170.647-170.647-170.647S85.323,161.75,85.323,255.998s76.399,170.647,170.647,170.647
		c17.551-0.051,34.991-2.833,51.689-8.251c1.015,12.338,4.275,24.385,9.624,35.554l-62.286,6.92
		c-4.292,0.495-7.543,4.121-7.56,8.438v25.392c-36.262-0.93-71.868-9.898-104.248-26.245l17.781-30.802l-14.778-8.532
		l-17.918,31.024C97.038,441.167,70.835,414.939,51.868,383.693z M323.435,354.41c-17.44,12.048-37.79,19.198-58.933,20.717V288.95
		c5.981-1.536,11.433-4.667,15.776-9.061l74.479,42.994c-0.128,0.196-0.247,0.393-0.375,0.58
		C341.968,331.45,331.422,342.004,323.435,354.41z M363.358,308.148l-74.632-43.097c1.834-5.896,1.834-12.21,0-18.106l74.564-43.054
		C379.442,236.766,379.467,275.256,363.358,308.148z M280.279,232.108c-4.343-4.377-9.795-7.5-15.776-9.027v-86.1
		c36.493,2.602,69.786,21.775,90.34,52.047L280.279,232.108z M255.97,273.063c-9.428,0-17.065-7.636-17.065-17.065
		s7.636-17.065,17.065-17.065c9.428,0,17.065,7.636,17.065,17.065S265.398,273.063,255.97,273.063z M247.438,223.08
		c-5.981,1.527-11.433,4.642-15.776,9.027l-74.564-43.046c20.546-30.281,53.839-49.479,90.34-52.081V223.08z M148.65,203.891
		l74.564,43.054c-1.834,5.896-1.834,12.21,0,18.106l-74.564,43.054C132.473,275.256,132.473,236.749,148.65,203.891z
		 M231.661,279.889c4.343,4.386,9.795,7.5,15.776,9.027v86.1c-36.493-2.602-69.786-21.775-90.34-52.047L231.661,279.889z
		 M255.97,119.481c-75.4-0.213-136.688,60.733-136.901,136.133s60.733,136.688,136.133,136.901
		c19.377,0.051,38.549-4.019,56.228-11.945c-1.911,6.442-3.174,13.063-3.771,19.761c-80.204,29.01-168.744-12.491-197.754-92.695
		s12.491-168.744,92.695-197.754s168.744,12.491,197.754,92.695c12.278,33.95,12.278,71.134-0.009,105.084
		c-6.698,0.597-13.319,1.86-19.761,3.771c30.759-68.677,0.026-149.282-68.651-180.049C294.332,123.5,275.262,119.447,255.97,119.481
		z M264.502,476.986l17.065-1.894v19.812h-17.065V476.986z M409.552,494.904h-110.92v-21.757l33.37-3.703
		c4.684-0.52,8.055-4.735,7.534-9.42c-0.145-1.331-0.606-2.611-1.34-3.737c-25.793-39.436-14.735-92.32,24.701-118.113
		s92.32-14.735,118.113,24.701c25.793,39.436,14.735,92.32-24.701,118.113C442.41,490.074,426.156,494.912,409.552,494.904z"/>
</g>
<g>
</g>
<g>
</g>
<g>
</g>
<g>
</g>
<g>
</g>
<g>
</g>
<g>
</g>
<g>
</g>
<g>
</g>
<g>
</g>
<g>
</g>
<g>
</g>
<g>
</g>
<g>
</g>
<g>
</g>
</svg>
