<?xml version="1.0" encoding="iso-8859-1"?>
<!-- Generator: Adobe Illustrator 19.0.0, SVG Export Plug-In . SVG Version: 6.00 Build 0)  -->
<svg version="1.1" id="Capa_1" xmlns="http://www.w3.org/2000/svg" xmlns:xlink="http://www.w3.org/1999/xlink" x="0px" y="0px"
	 viewBox="0 0 512 512" style="enable-background:new 0 0 512 512;" xml:space="preserve">
<rect x="110.933" y="153.6" style="fill:#E6E6E6;" width="375.467" height="298.667"/>
<g>
	<path style="fill:#006684;" d="M93.867,452.267h409.6l0,0V486.4c0,9.429-7.637,17.067-17.067,17.067H110.933
		c-9.429,0-17.067-7.637-17.067-17.067V452.267L93.867,452.267z"/>
	<path style="fill:#006684;" d="M503.467,153.6h-409.6l0,0v-34.133c0-9.429,7.637-17.067,17.067-17.067H486.4
		c9.429,0,17.067,7.637,17.067,17.067V153.6L503.467,153.6z"/>
</g>
<rect x="349.867" y="59.733" style="fill:#B3B3B3;" width="68.267" height="42.667"/>
<rect x="332.8" y="8.533" style="fill:#006684;" width="102.4" height="51.2"/>
<rect x="8.533" y="230.4" style="fill:#FAD87C;" width="68.267" height="136.533"/>
<g>
	<rect x="25.6" y="366.933" style="fill:#FFA753;" width="34.133" height="34.133"/>
	<rect x="25.6" y="196.267" style="fill:#FFA753;" width="34.133" height="34.133"/>
</g>
<g>
	<path style="fill:#004559;" d="M486.4,93.867h-8.533v-25.6H460.8v25.6h-34.133v-25.6h8.533c4.71,0,8.533-3.823,8.533-8.533v-51.2
		c0-4.71-3.823-8.533-8.533-8.533H332.8c-4.71,0-8.533,3.823-8.533,8.533v51.2c0,4.71,3.823,8.533,8.533,8.533h8.533v25.6h-204.8
		v-25.6h-17.067v25.6h-8.533c-14.14,0-25.6,11.46-25.6,25.6h-25.6c-14.14,0-25.6,11.46-25.6,25.6v42.667H25.6
		c-4.71,0-8.533,3.823-8.533,8.533v25.6H8.533C3.823,221.867,0,225.69,0,230.4v136.533c0,4.71,3.823,8.533,8.533,8.533h8.533v25.6
		c0,4.71,3.823,8.533,8.533,8.533h8.533v51.2c0,14.14,11.46,25.6,25.6,25.6h25.6c0,14.14,11.46,25.6,25.6,25.6H486.4
		c14.14,0,25.6-11.46,25.6-25.6v-34.133c0-4.71-3.823-8.533-8.533-8.533h-8.533v-281.6h8.533c4.71,0,8.533-3.823,8.533-8.533
		v-34.133C512,105.327,500.54,93.867,486.4,93.867z M341.333,17.067H358.4v17.067h17.067V17.067h17.067v17.067H409.6V17.067h17.067
		V51.2h-85.333V17.067z M358.4,68.267h51.2v25.6h-51.2V68.267z M34.133,204.8H51.2v17.067H34.133V204.8z M68.267,238.933V358.4
		h-51.2v-17.067H51.2v-17.067H17.067v-85.333H68.267z M51.2,375.467v17.067H34.133v-17.067H51.2z M85.333,452.267v17.067h-25.6
		c-4.71,0-8.533-3.823-8.533-8.533v-51.2h8.533c4.71,0,8.533-3.823,8.533-8.533v-25.6H76.8c4.71,0,8.533-3.823,8.533-8.533V230.4
		c0-4.71-3.823-8.533-8.533-8.533h-8.533v-25.6c0-4.71-3.823-8.533-8.533-8.533H51.2v-42.667c0-4.71,3.823-8.533,8.533-8.533h25.6
		V153.6c0,4.71,3.823,8.533,8.533,8.533h8.533v281.6h-8.533C89.156,443.733,85.333,447.556,85.333,452.267z M494.933,486.4
		c0,4.71-3.823,8.533-8.533,8.533H110.933c-4.71,0-8.533-3.823-8.533-8.533v-25.6h392.533V486.4z M477.867,443.733h-358.4v-281.6
		h358.4V443.733z M494.933,145.067H102.4v-25.6c0-4.71,3.823-8.533,8.533-8.533H486.4c4.71,0,8.533,3.823,8.533,8.533V145.067z"/>
	<rect x="145.067" y="187.733" style="fill:#004559;" width="307.2" height="17.067"/>
	<rect x="145.067" y="230.4" style="fill:#004559;" width="307.2" height="17.067"/>
	<rect x="145.067" y="273.067" style="fill:#004559;" width="307.2" height="17.067"/>
	<rect x="145.067" y="315.733" style="fill:#004559;" width="307.2" height="17.067"/>
	<rect x="145.067" y="358.4" style="fill:#004559;" width="307.2" height="17.067"/>
	<rect x="145.067" y="401.067" style="fill:#004559;" width="307.2" height="17.067"/>
</g>
<g>
</g>
<g>
</g>
<g>
</g>
<g>
</g>
<g>
</g>
<g>
</g>
<g>
</g>
<g>
</g>
<g>
</g>
<g>
</g>
<g>
</g>
<g>
</g>
<g>
</g>
<g>
</g>
<g>
</g>
</svg>
