<?xml version="1.0" encoding="iso-8859-1"?>
<!-- Generator: Adobe Illustrator 19.0.0, SVG Export Plug-In . SVG Version: 6.00 Build 0)  -->
<svg version="1.1" id="Capa_1" xmlns="http://www.w3.org/2000/svg" xmlns:xlink="http://www.w3.org/1999/xlink" x="0px" y="0px"
	 viewBox="0 0 512 512" style="enable-background:new 0 0 512 512;" xml:space="preserve">
<path style="fill:#2996BF;" d="M494.933,452.267H132.267c-11.785,0-21.333-9.549-21.333-21.333l0,0
	c0-11.785,9.549-21.333,21.333-21.333h12.8v-76.8h93.867L281.6,213.333h213.333"/>
<path style="fill:#006684;" d="M132.267,409.6H281.6l0,0v42.667l0,0H132.267c-11.785,0-21.333-9.549-21.333-21.333l0,0
	C110.933,419.149,120.482,409.6,132.267,409.6z"/>
<circle style="fill:#666666;" cx="298.667" cy="452.267" r="51.2"/>
<rect x="145.067" y="332.8" style="fill:#FAD87C;" width="34.133" height="34.133"/>
<circle style="fill:#E6E6E6;" cx="298.667" cy="452.267" r="17.067"/>
<polygon style="fill:#89CEEA;" points="494.933,247.467 307.2,247.467 281.6,332.8 494.933,332.8 "/>
<rect x="8.533" y="8.533" style="fill:#006684;" width="494.933" height="85.333"/>
<polygon style="fill:#B3B3B3;" points="68.267,512 25.6,512 25.6,93.867 486.4,93.867 486.4,213.333 443.733,213.333 
	443.733,136.533 68.267,136.533 "/>
<rect x="68.267" y="136.533" style="fill:#808080;" width="375.467" height="34.133"/>
<g>
	<path style="fill:#004559;" d="M503.467,0H8.533C3.823,0,0,3.823,0,8.533v85.333c0,4.71,3.823,8.533,8.533,8.533h8.533V512h17.067
		V102.4h443.733v102.4h-25.6v-68.267c0-4.71-3.823-8.533-8.533-8.533H68.267c-4.71,0-8.533,3.823-8.533,8.533V512H76.8V179.2h358.4
		v25.6H281.6c-3.601,0-6.818,2.27-8.03,5.666l-40.61,113.801h-87.893c-4.71,0-8.533,3.823-8.533,8.533v68.267h-4.267
		c-16.495,0-29.867,13.372-29.867,29.867c0,16.495,13.372,29.867,29.867,29.867h107.349c4.685,32.614,34.918,55.253,67.533,50.569
		c26.214-3.763,46.805-24.354,50.569-50.569h137.216v-17.067H357.717c-4.685-32.614-34.918-55.253-67.533-50.569
		c-26.214,3.763-46.805,24.354-50.569,50.569H132.267c-7.066,0-12.8-5.734-12.8-12.8c0-7.066,5.734-12.8,12.8-12.8h64v-17.067H153.6
		v-25.6h25.6c4.71,0,8.533-3.823,8.533-8.533v-25.6h51.2c3.601,0,6.818-2.27,8.03-5.666l40.653-113.801H486.4
		c4.71,0,8.533-3.823,8.533-8.533V102.4h8.533c4.71,0,8.533-3.823,8.533-8.533V8.533C512,3.823,508.177,0,503.467,0z M76.8,162.133
		v-17.067h358.4v17.067H76.8z M298.667,409.6c23.561,0,42.667,19.106,42.667,42.667s-19.106,42.667-42.667,42.667
		S256,475.827,256,452.267C256.026,428.715,275.115,409.626,298.667,409.6z M170.667,358.4H153.6v-17.067h17.067V358.4z
		 M494.933,85.333H17.067V68.267H435.2V51.2H17.067V17.067h477.867V85.333z"/>
	<path style="fill:#004559;" d="M298.667,477.867c14.14,0,25.6-11.46,25.6-25.6s-11.46-25.6-25.6-25.6s-25.6,11.46-25.6,25.6
		S284.527,477.867,298.667,477.867L298.667,477.867z M298.667,443.733c4.71,0,8.533,3.823,8.533,8.533s-3.823,8.533-8.533,8.533
		s-8.533-3.823-8.533-8.533S293.956,443.733,298.667,443.733z"/>
	<path style="fill:#004559;" d="M494.933,324.267H349.867V256h145.067v-17.067H307.2c-3.772,0-7.091,2.475-8.175,6.084l-25.6,85.333
		c-1.357,4.514,1.212,9.267,5.726,10.624c0.794,0.239,1.621,0.358,2.449,0.358h213.333V324.267z M313.549,256H332.8v68.267h-39.731
		L313.549,256z"/>
	<rect x="349.867" y="358.4" style="fill:#004559;" width="34.133" height="17.067"/>
	<rect x="452.267" y="51.2" style="fill:#004559;" width="17.067" height="17.067"/>
	<rect x="213.333" y="401.067" style="fill:#004559;" width="17.067" height="17.067"/>
	<rect x="93.867" y="196.267" style="fill:#004559;" width="17.067" height="17.067"/>
	<rect x="128" y="196.267" style="fill:#004559;" width="17.067" height="17.067"/>
	<rect x="162.133" y="196.267" style="fill:#004559;" width="17.067" height="17.067"/>
</g>
<g>
</g>
<g>
</g>
<g>
</g>
<g>
</g>
<g>
</g>
<g>
</g>
<g>
</g>
<g>
</g>
<g>
</g>
<g>
</g>
<g>
</g>
<g>
</g>
<g>
</g>
<g>
</g>
<g>
</g>
</svg>
