<?xml version="1.0" encoding="iso-8859-1"?>
<!-- Generator: Adobe Illustrator 19.0.0, SVG Export Plug-In . SVG Version: 6.00 Build 0)  -->
<svg version="1.1" id="Capa_1" xmlns="http://www.w3.org/2000/svg" xmlns:xlink="http://www.w3.org/1999/xlink" x="0px" y="0px"
	 viewBox="0 0 511.993 511.993" style="enable-background:new 0 0 511.993 511.993;" xml:space="preserve">
<circle style="fill:#808080;" cx="264.757" cy="256.015" r="238.279"/>
<path style="fill:#2996BF;" d="M97.088,255.997c-0.062-38.884,13.45-76.567,38.204-106.555c5.878-6.998,5.472-17.315-0.944-23.828
	l-37.56-37.56c-6.901-6.919-18.109-6.928-25.019-0.026c-0.291,0.291-0.582,0.6-0.856,0.909c-82.78,96.026-82.78,238.182,0,334.208
	c6.416,7.369,17.589,8.146,24.966,1.739c0.318-0.274,0.618-0.556,0.909-0.856l37.56-37.56c6.416-6.513,6.822-16.83,0.944-23.828
	C110.52,332.626,97.008,294.907,97.088,255.997z"/>
<circle style="fill:#B3B3B3;" cx="264.757" cy="256.015" r="132.377"/>
<g>
	<circle style="fill:#FFFFFF;" cx="264.757" cy="176.588" r="17.65"/>
	<circle style="fill:#FFFFFF;" cx="264.757" cy="335.441" r="17.65"/>
	<circle style="fill:#FFFFFF;" cx="185.33" cy="256.015" r="17.65"/>
	<circle style="fill:#FFFFFF;" cx="344.183" cy="256.015" r="17.65"/>
	<circle style="fill:#FFFFFF;" cx="264.757" cy="256.015" r="26.475"/>
</g>
<g>
	<path style="fill:#004559;" d="M264.766,397.199c77.988,0,141.202-63.215,141.202-141.202s-63.215-141.202-141.202-141.202
		s-141.202,63.215-141.202,141.202C123.66,333.941,186.822,397.102,264.766,397.199z M264.766,132.445
		c68.236,0,123.552,55.316,123.552,123.552s-55.316,123.552-123.552,123.552s-123.552-55.316-123.552-123.552
		C141.284,187.787,196.565,132.516,264.766,132.445z"/>
	<path style="fill:#004559;" d="M344.192,282.473c14.623,0,26.475-11.852,26.475-26.475c0-14.623-11.852-26.475-26.475-26.475
		s-26.475,11.852-26.475,26.475C317.716,270.62,329.569,282.473,344.192,282.473z M344.192,247.172c4.871,0,8.825,3.954,8.825,8.825
		s-3.954,8.825-8.825,8.825s-8.825-3.954-8.825-8.825S339.32,247.172,344.192,247.172z"/>
	<path style="fill:#004559;" d="M185.339,282.473c14.623,0,26.475-11.852,26.475-26.475c0-14.623-11.852-26.475-26.475-26.475
		s-26.475,11.852-26.475,26.475C158.864,270.62,170.716,282.473,185.339,282.473z M185.339,247.172c4.871,0,8.825,3.954,8.825,8.825
		s-3.954,8.825-8.825,8.825s-8.825-3.954-8.825-8.825S180.468,247.172,185.339,247.172z"/>
	<path style="fill:#004559;" d="M264.766,308.948c-14.623,0-26.475,11.852-26.475,26.475s11.852,26.475,26.475,26.475
		c14.623,0,26.475-11.852,26.475-26.475S279.389,308.948,264.766,308.948z M264.766,344.249c-4.871,0-8.825-3.954-8.825-8.825
		s3.954-8.825,8.825-8.825s8.825,3.954,8.825,8.825S269.637,344.249,264.766,344.249z"/>
	<path style="fill:#004559;" d="M264.766,203.046c14.623,0,26.475-11.852,26.475-26.475c0-14.623-11.852-26.475-26.475-26.475
		c-14.623,0-26.475,11.852-26.475,26.475C238.29,191.194,250.142,203.046,264.766,203.046z M264.766,167.746
		c4.871,0,8.825,3.954,8.825,8.825c0,4.871-3.954,8.825-8.825,8.825s-8.825-3.954-8.825-8.825
		C255.94,171.699,259.894,167.746,264.766,167.746z"/>
	<path style="fill:#004559;" d="M83.25,437.98h0.971c3.768-0.026,7.493-0.847,10.917-2.418
		c99.168,93.75,255.568,89.363,349.317-9.814s89.363-255.568-9.814-349.317C388.732,33.03,327.936,8.858,264.757,8.893
		C201.63,8.734,140.869,32.924,95.111,76.432c-10.634-4.942-23.254-2.206-30.888,6.698c-85.63,99.336-85.63,246.389,0,345.725
		C69.024,434.397,75.916,437.707,83.25,437.98z M494.22,255.997c-0.026,126.72-102.787,229.427-229.507,229.401
		c-57.769-0.018-113.412-21.825-155.808-61.061l31.682-31.682c9.681-9.717,10.343-25.213,1.518-35.715
		c-48.256-58.643-48.256-143.241,0-201.884c8.816-10.502,8.154-25.999-1.527-35.715l-31.682-31.682
		c92.999-86.081,238.173-80.485,324.254,12.514C472.404,142.567,494.211,198.219,494.22,255.997z M61.787,115.377l15.815,15.815
		l12.426-12.479L72.474,101.16c1.765-2.153,3.309-4.413,5.119-6.504c1.589-1.844,3.874-2.93,6.301-3.001h0.344
		c2.374,0,4.642,0.953,6.301,2.648l37.56,37.56c3.204,3.309,3.371,8.516,0.379,12.02c-53.622,65.156-53.622,159.162,0,224.318
		c3.001,3.504,2.833,8.71-0.371,12.02l-37.56,37.56c-1.747,1.774-4.157,2.736-6.645,2.648c-2.436-0.071-4.721-1.165-6.31-3.009
		c-1.809-2.092-3.38-4.342-5.11-6.486l17.553-17.562l-12.479-12.479l-15.815,15.735c-58.776-84.536-58.776-196.713,0-281.249
		L61.787,115.377z"/>
	
		<rect x="374.559" y="128.571" transform="matrix(-0.7069 0.7074 -0.7074 -0.7069 751.5719 -36.6735)" style="fill:#004559;" width="17.651" height="17.651"/>
	
		<rect x="411.948" y="116.127" transform="matrix(-0.7071 0.7071 -0.7071 -0.7071 806.66 -84.2246)" style="fill:#004559;" width="17.65" height="17.65"/>
	
		<rect x="374.544" y="365.661" transform="matrix(-0.7074 0.7069 -0.7069 -0.7074 919.2564 368.3946)" style="fill:#004559;" width="17.651" height="17.651"/>
	
		<rect x="386.986" y="403.19" transform="matrix(-0.7071 0.7071 -0.7071 -0.7071 967.0308 423.4734)" style="fill:#004559;" width="17.65" height="17.65"/>
	<rect x="423.609" y="247.19" style="fill:#004559;" width="17.65" height="17.65"/>
	<rect x="458.91" y="264.84" style="fill:#004559;" width="17.65" height="17.65"/>
	<rect x="255.932" y="79.512" style="fill:#004559;" width="17.65" height="17.65"/>
	<rect x="255.932" y="414.867" style="fill:#004559;" width="17.65" height="17.65"/>
	<rect x="273.582" y="44.211" style="fill:#004559;" width="17.65" height="17.65"/>
	<rect x="238.281" y="450.168" style="fill:#004559;" width="17.65" height="17.65"/>
	<path style="fill:#004559;" d="M264.766,291.298c19.495,0,35.301-15.806,35.301-35.301s-15.806-35.301-35.301-35.301
		s-35.301,15.806-35.301,35.301S245.271,291.298,264.766,291.298z M264.766,238.347c9.752,0,17.65,7.899,17.65,17.65
		c0,9.752-7.898,17.65-17.65,17.65c-9.752,0-17.65-7.899-17.65-17.65C247.115,246.245,255.023,238.347,264.766,238.347z"/>
	<path style="fill:#004559;" d="M85.791,351.22c-32.009-59.446-32.009-131.001,0-190.447l-15.568-8.331
		c-34.78,64.653-34.78,142.456,0,207.109L85.791,351.22z"/>
	
		<rect x="93.692" y="134.845" transform="matrix(-0.7071 0.7071 -0.7071 -0.7071 276.5981 172.7688)" style="fill:#004559;" width="17.65" height="17.65"/>
	
		<rect x="93.683" y="359.497" transform="matrix(-0.7071 0.7071 -0.7071 -0.7071 435.4354 556.2813)" style="fill:#004559;" width="17.65" height="17.65"/>
</g>
<g>
</g>
<g>
</g>
<g>
</g>
<g>
</g>
<g>
</g>
<g>
</g>
<g>
</g>
<g>
</g>
<g>
</g>
<g>
</g>
<g>
</g>
<g>
</g>
<g>
</g>
<g>
</g>
<g>
</g>
</svg>
