<?xml version="1.0"?>
<svg xmlns="http://www.w3.org/2000/svg" id="Layer_1" data-name="Layer 1" viewBox="0 0 512 512" width="512" height="512"><title>Auto Suspension</title><polygon points="245.75 215 245.75 89 235.75 89 235.75 225 281.75 225 281.75 215 245.75 215" style="fill:#d4e1f4"/><path d="M215.8,283.95a7,7,0,0,0,9.9,0L239.75,269.9v24.2L217.8,316.05a7,7,0,0,0,9.9,9.9L239.75,313.9v24.2L217.8,360.05a7,7,0,0,0,9.9,9.9L239.75,357.9v24.2L217.8,404.05a7,7,0,0,0,9.9,9.9L239.75,401.9V434a7,7,0,0,0,7,7h24a7,7,0,0,0,7-7V363.9L296.2,345.45a7,7,0,0,0-9.9-9.9l-8.55,8.551V319.9L296.2,301.45a7,7,0,0,0-9.9-9.9l-8.55,8.551V275.9L296.2,257.45a7,7,0,0,0-9.9-9.9l-8.55,8.551V232a6.99,6.99,0,0,0-10.622-5.982,6.974,6.974,0,0,0-5.328,2.032l-8.05,8.051V232a7,7,0,0,0-14,0v18.1L215.8,274.05A7,7,0,0,0,215.8,283.95ZM253.75,255.9l10-10v24.2l-10,10Zm0,44,10-10v24.2l-10,10Zm0,44,10-10v24.2l-10,10Zm0,44,10-10V427h-10Z" style="fill:#0635c9"/><path d="M258.75,87a25,25,0,1,0-25-25A25.028,25.028,0,0,0,258.75,87Zm0-36a11,11,0,1,1-11,11A11.013,11.013,0,0,1,258.75,51Z" style="fill:#0635c9"/><path d="M295.75,232V82a7,7,0,0,0-7-7h-60a7,7,0,0,0-7,7V232a7,7,0,0,0,7,7h60A7,7,0,0,0,295.75,232Zm-14-7h-46V89h46Z" style="fill:#1ae5be"/><path d="M280.75,453a22,22,0,1,0-22,22A22.025,22.025,0,0,0,280.75,453Zm-30,0a8,8,0,1,1,8,8A8.009,8.009,0,0,1,250.75,453Z" style="fill:#1ae5be"/></svg>
