<?xml version="1.0"?>
<svg xmlns="http://www.w3.org/2000/svg" id="Layer_1" data-name="Layer 1" viewBox="0 0 512 512" width="512" height="512"><title>Canister </title><path d="M146.065,416.75V219.2a18.234,18.234,0,0,1,5.543-13.047l73.3-71.27a18.038,18.038,0,0,1,12.6-5.092h35.027a7,7,0,0,0,7-7V90.125A18.146,18.146,0,0,1,297.656,72H414.181A18.13,18.13,0,0,0,398,62H267.656a18.146,18.146,0,0,0-18.125,18.125v32.663a7,7,0,0,1-7,7H207.5a18.038,18.038,0,0,0-12.6,5.092l-73.3,71.27a18.234,18.234,0,0,0-5.543,13.047V406.75A43.3,43.3,0,0,0,159.315,450h2.376A43.177,43.177,0,0,1,146.065,416.75Z" style="fill:#d4e1f4"/><path d="M159.315,464H372.877a57.315,57.315,0,0,0,57.25-57.25V80.125A32.161,32.161,0,0,0,398,48H267.656a32.161,32.161,0,0,0-32.125,32.125v25.663H207.5a31.976,31.976,0,0,0-22.341,9.041l-13.9,13.513-13.113-14.05-10.235,9.553L161.225,138.1l-21.792,21.189L126.745,145.7l-10.235,9.552,12.883,13.8L111.863,186.1a32.29,32.29,0,0,0-9.8,23.1V406.75A57.315,57.315,0,0,0,159.315,464Zm-43.25-254.8a18.234,18.234,0,0,1,5.543-13.047l73.3-71.27a18.038,18.038,0,0,1,12.6-5.092h35.027a7,7,0,0,0,7-7V80.125A18.146,18.146,0,0,1,267.656,62H398a18.145,18.145,0,0,1,18.125,18.125V406.75A43.3,43.3,0,0,1,372.877,450H159.315a43.3,43.3,0,0,1-43.25-43.25Z" style="fill:#0635c9"/><path d="M280.219,131.329H333.7A46.231,46.231,0,0,0,379.877,85.15a7,7,0,0,0-7-7h-80.1a19.584,19.584,0,0,0-19.562,19.562v26.617A7,7,0,0,0,280.219,131.329Zm7-33.617a5.568,5.568,0,0,1,5.562-5.562h72.33A32.236,32.236,0,0,1,333.7,117.329h-46.48Z" style="fill:#0635c9"/><path d="M109.048,162.877a7,7,0,0,0,9.836.062l49.607-48.368a7,7,0,0,0,.063-9.962L143.429,79.484a7,7,0,0,0-9.837-.062L83.986,127.791a7,7,0,0,0-.063,9.961Zm29.369-68.606L153.642,109.5,114.06,148.09,98.835,132.866Z" style="fill:#1ae5be"/><path d="M171.981,192.582a7,7,0,1,0-9.962,9.836L199,239.873V354.1L162.05,391.05a7,7,0,0,0,9.9,9.9L208.9,364H323.127l37.455,36.981a7,7,0,1,0,9.836-9.962L333,354.074V239.9l37.45-37.449a7,7,0,0,0-9.9-9.9L323.1,230H208.926ZM213,244H319V350H213Z" style="fill:#1ae5be"/><path d="M290,266H242a7,7,0,0,0-7,7v48a7,7,0,0,0,7,7h48a7,7,0,0,0,7-7V273A7,7,0,0,0,290,266Zm-7,48H249V280h34Z" style="fill:#1ae5be"/></svg>
