<?xml version="1.0"?>
<svg xmlns="http://www.w3.org/2000/svg" id="Layer_1" data-name="Layer 1" viewBox="0 0 512 512" width="512" height="512"><title>Car Documents dollar</title><path d="M85,414V78a21.024,21.024,0,0,1,21-21H219V37H86A21.024,21.024,0,0,0,65,58V394a21.008,21.008,0,0,0,20.048,20.952C85.034,414.634,85,414.321,85,414Z" style="fill:#d4e1f4"/><path d="M103,327a7,7,0,0,0,0,14H247a7,7,0,0,0,0-14Z" style="fill:#0635c9"/><path d="M217,368a7,7,0,0,0-7-7H103a7,7,0,0,0,0,14H210A7,7,0,0,0,217,368Z" style="fill:#0635c9"/><path d="M273.228,302.112a11.466,11.466,0,0,0,11.453-11.453V280.242a15.933,15.933,0,0,0,9.85-14.186l5.408-40.911a7.038,7.038,0,0,0,.061-.917c0-11.854-7.908-21.763-18.366-23.989l-15.717-28.97c-5.552-9.955-13.748-21.381-27.963-21.381H158.795c-11.478,0-21.521,7.627-28.3,21.482l-16.232,28.763C103.733,202.282,96,212.093,96,224.228a6.97,6.97,0,0,0,.056.878l5.18,40.927a15.926,15.926,0,0,0,10.083,14.291v10.335a11.466,11.466,0,0,0,11.453,11.453h13.522a11.466,11.466,0,0,0,11.453-11.453v-9.222H248.253v9.222a11.466,11.466,0,0,0,11.453,11.453Zm-2.547-14h-8.428v-6.675h8.428ZM142.792,178.066c.071-.127.139-.255.2-.386,2.5-5.151,7.871-13.792,15.8-13.792h79.159c5.479,0,10.185,4.247,15.7,14.129l11.8,21.746h-6.467a25.465,25.465,0,0,0-49.3,0H130.548Zm101.051,21.7H224.819a11.453,11.453,0,0,1,19.024,0Zm-110.1,88.349h-8.428v-6.675h8.428Zm-16.612-20.675a1.933,1.933,0,0,1-1.906-1.907,6.974,6.974,0,0,0-.056-.879l-5.167-40.816c.152-4.855,3.116-9.731,8.016-10.108.179.014.357.036.538.036H277.084c.032,0,.064,0,.1,0,5.3,0,8.636,5.142,8.812,10.054L280.6,264.613a7.038,7.038,0,0,0-.061.917,1.932,1.932,0,0,1-1.905,1.907Z" style="fill:#0635c9"/><path d="M224.743,241.843H171.258a7,7,0,0,0,0,14h53.485a7,7,0,0,0,0-14Z" style="fill:#0635c9"/><path d="M275.723,429V415H86a21.024,21.024,0,0,1-21-21V58A21.024,21.024,0,0,1,86,37H219v77a35.04,35.04,0,0,0,35,35h77V301.162h14V142a7,7,0,0,0-2.05-4.95l-112-112A7,7,0,0,0,226,23H86A35.04,35.04,0,0,0,51,58V394a35.04,35.04,0,0,0,35,35ZM233,114V46.9L321.1,135H254A21.024,21.024,0,0,1,233,114Z" style="fill:#1ae5be"/><path d="M362,318.078a7,7,0,0,0-7,7v8.376A33.642,33.642,0,0,0,362,400a19.637,19.637,0,0,1,.184,39.274c-.062,0-.122-.009-.184-.009s-.122.007-.184.009a19.659,19.659,0,0,1-19.458-19.632,7,7,0,0,0-14,0A33.7,33.7,0,0,0,355,452.547v9.588a7,7,0,0,0,14,0v-9.588A33.641,33.641,0,0,0,362,386a19.642,19.642,0,1,1,19.642-19.643,7,7,0,0,0,14,0A33.7,33.7,0,0,0,369,333.454v-8.376A7,7,0,0,0,362,318.078Z" style="fill:#1ae5be"/><path d="M115.6,244.048a18.678,18.678,0,1,0,18.677-18.678A18.7,18.7,0,0,0,115.6,244.048Zm23.355,0a4.678,4.678,0,1,1-4.678-4.678A4.684,4.684,0,0,1,138.953,244.048Z" style="fill:#1ae5be"/><path d="M243.048,244.048a18.678,18.678,0,1,0,18.678-18.678A18.7,18.7,0,0,0,243.048,244.048Zm23.355,0a4.678,4.678,0,1,1-4.677-4.678A4.683,4.683,0,0,1,266.4,244.048Z" style="fill:#1ae5be"/><path d="M362,291a99,99,0,1,0,99,99A99.3,99.3,0,0,0,362,291Zm0,184a85,85,0,1,1,85-85A85.1,85.1,0,0,1,362,475Z" style="fill:#0635c9"/></svg>
