<?xml version="1.0"?>
<svg xmlns="http://www.w3.org/2000/svg" id="Layer_1" data-name="Layer 1" viewBox="0 0 512 512" width="512" height="512"><title>Car Door</title><path d="M247.773,419A107.16,107.16,0,0,0,148,319.227v-92.2L250.187,73H233.455L118,247.028v92.2A107.16,107.16,0,0,1,217.773,439H394V419Z" style="fill:#d4e1f4"/><path d="M223.865,62.13l-118.7,178.918A7,7,0,0,0,104,244.917V346a7,7,0,0,0,7,7,93.106,93.106,0,0,1,93,93,7,7,0,0,0,7,7H401a7,7,0,0,0,7-7V66a7,7,0,0,0-7-7H229.7A7,7,0,0,0,223.865,62.13ZM394,73V439H217.773A107.16,107.16,0,0,0,118,339.227v-92.2L233.455,73Z" style="fill:#0635c9"/><path d="M288,347h73a7,7,0,0,0,0-14H288a7,7,0,0,0,0,14Z" style="fill:#0635c9"/><path d="M151,296.077H361a7,7,0,0,0,7-7V106a7,7,0,0,0-7-7H254.915a7,7,0,0,0-5.821,3.112L145.179,257.683A7,7,0,0,0,144,261.571v27.506A7,7,0,0,0,151,296.077Zm7-32.383L258.657,113H354V282.077H158Z" style="fill:#1ae5be"/></svg>
