<?xml version="1.0"?>
<svg xmlns="http://www.w3.org/2000/svg" id="Layer_1" data-name="Layer 1" viewBox="0 0 512 512" width="512" height="512"><title>Car engine </title><path d="M166,361.564V322.455a7,7,0,0,0-7-7H137.179V245.709h-20v89.746H139a7,7,0,0,1,7,7v39.109H374.072v-20Z" style="fill:#d4e1f4"/><path d="M159,225.709a7,7,0,0,0,7-7V199.6H146v26.109Z" style="fill:#d4e1f4"/><path d="M401.072,315.455a7,7,0,0,0-7,7v13h8.819v-20Z" style="fill:#d4e1f4"/><rect x="215" y="140" width="92" height="14" style="fill:#1ae5be"/><path d="M456,249a7,7,0,0,0-7,7v10.291H416.891V238.709a7,7,0,0,0-7-7H388.072V192.6a7,7,0,0,0-7-7H313.721V130.436h10.291a7,7,0,0,0,0-14H197.21a7,7,0,0,0,0,14H207.5V185.6H139a7,7,0,0,0-7,7v39.109H110.179a7,7,0,0,0-7,7v27.582H63V256a7,7,0,0,0-14,0v69.164a7,7,0,0,0,14,0V314.873h40.179v27.582a7,7,0,0,0,7,7H132v39.109a7,7,0,0,0,7,7H381.072a7,7,0,0,0,7-7V349.455h21.819a7,7,0,0,0,7-7V314.873H449v10.291a7,7,0,0,0,14,0V256A7,7,0,0,0,456,249ZM76.089,300.873H63V280.291H76.089Zm27.09,0H90.089V280.291h13.09ZM221.5,130.436h78.22V185.6H221.5Zm181.39,205.019H381.072a7,7,0,0,0-7,7v39.109H146V342.455a7,7,0,0,0-7-7H117.179V245.709H139a7,7,0,0,0,7-7V199.6H374.072v39.109a7,7,0,0,0,7,7h21.819ZM449,300.873H416.891V280.291H449Z" style="fill:#0635c9"/><path d="M282.069,251.173a7,7,0,0,0-9.9-.242l-42,40A7,7,0,0,0,235,303h23.1L230.05,331.05a7,7,0,0,0,9.9,9.9l40-40A7,7,0,0,0,275,289H252.5l29.327-27.931A7,7,0,0,0,282.069,251.173Z" style="fill:#1ae5be"/></svg>
