<?xml version="1.0"?>
<svg xmlns="http://www.w3.org/2000/svg" id="Layer_1" data-name="Layer 1" viewBox="0 0 512 512" width="512" height="512"><title>Car Maintenance_1</title><path d="M180.229,201.115c.046-.083.089-.167.129-.253,3.982-8.367,12.752-22.42,26.751-22.523l124.428-.917h.157A19.381,19.381,0,0,1,341,179.76c-7.238-10.669-14.159-15.362-22.33-15.362h-.157l-124.428.917c-14,.1-22.769,14.155-26.751,22.522-.04.086-.083.17-.129.253l-21.333,38.463,20.33-.15Z" style="fill:#d4e1f4"/><path d="M144.167,320.805a8.275,8.275,0,0,1-2.378-5.771,4.875,4.875,0,0,0-.04-.591l-7.725-59.507c.029-9.769,5.117-16.564,11.295-19.261l-7.187.053H138.1a4.582,4.582,0,0,1-.743-.068c-8.193.547-16.32,7.909-16.356,19.872l7.725,57.615a4.387,4.387,0,0,1,.04.572,7.98,7.98,0,0,0,7.94,7.883h.06l8.243-.06A8.19,8.19,0,0,1,144.167,320.805Z" style="fill:#d4e1f4"/><path d="M154.266,296.762h.161a20.043,20.043,0,0,0-.157-40.085h-.163a20.043,20.043,0,0,0,.159,40.085Zm-4.3-24.281a6,6,0,0,1,4.258-1.8h.05a6.043,6.043,0,0,1,.046,12.085h-.048a6.043,6.043,0,0,1-4.306-10.281Z" style="fill:#0635c9"/><path d="M358.507,295.133h.165a20.043,20.043,0,0,0-.154-40.085h-.165a20.042,20.042,0,0,0,.154,40.084Zm-4.3-24.281a6,6,0,0,1,4.258-1.8h.05a6.041,6.041,0,0,1,6.04,5.994h0a6.042,6.042,0,0,1-5.993,6.09h-.05a6.043,6.043,0,0,1-4.305-10.281Z" style="fill:#0635c9"/><path d="M219.68,311.9h.056l73.877-.589a7,7,0,0,0-.054-14H293.5l-73.877.589a7,7,0,0,0,.055,14Z" style="fill:#0635c9"/><path d="M380.184,419.746c-36.1,30.991-81.455,48.78-124.436,48.806h-.1c-28,0-57.281-7.539-84.679-21.8a210.7,210.7,0,0,1-72.258-61.9,7,7,0,1,0-11.289,8.28,224.78,224.78,0,0,0,77.082,66.042c29.388,15.3,60.9,23.386,91.144,23.386h.1c46.274-.028,94.95-19.048,133.547-52.184a219.514,219.514,0,0,0,75.379-142.331,7,7,0,0,0-13.912-1.573A205.554,205.554,0,0,1,380.184,419.746Z" style="fill:#1ae5be"/><path d="M53.488,231.705a7.142,7.142,0,0,0,.8.045,7,7,0,0,0,6.947-6.214A205.554,205.554,0,0,1,131.816,92.254c36.1-30.991,81.455-48.78,124.436-48.806h.1c28,0,57.281,7.539,84.678,21.8a210.69,210.69,0,0,1,72.259,61.9,7,7,0,1,0,11.289-8.28,224.8,224.8,0,0,0-77.082-66.042c-29.421-15.318-60.941-23.424-91.248-23.386C209.97,29.476,161.294,48.5,122.7,81.632A219.514,219.514,0,0,0,47.318,223.963,7,7,0,0,0,53.488,231.705Z" style="fill:#1ae5be"/><path d="M333.137,227.159a7,7,0,0,0,7,6.944h.056a7,7,0,0,0,6.945-7.057,33.088,33.088,0,0,0-66.174.529,7,7,0,0,0,7,6.944h.057a7,7,0,0,0,6.944-7.057,19.088,19.088,0,0,1,38.174-.3Z" style="fill:#1ae5be"/><path d="M223.072,284.114h.058a7,7,0,0,0,6.943-7.056l-.1-12.018a7,7,0,0,0-7-6.944h-.058a7,7,0,0,0-6.943,7.056l.1,12.018A7,7,0,0,0,223.072,284.114Z" style="fill:#1ae5be"/><path d="M200.812,284.292h.056a7,7,0,0,0,6.944-7.056l-.095-12.018a7,7,0,0,0-7-6.945h-.057a7,7,0,0,0-6.944,7.056l.095,12.019A7,7,0,0,0,200.812,284.292Z" style="fill:#1ae5be"/><path d="M312.021,257.386h-.057a7,7,0,0,0-6.944,7.056l.1,12.018a7,7,0,0,0,7,6.944h.057a7,7,0,0,0,6.944-7.055l-.1-12.018A7,7,0,0,0,312.021,257.386Z" style="fill:#1ae5be"/><path d="M245.332,283.937h.057a7,7,0,0,0,6.944-7.056l-.1-12.018a7,7,0,0,0-7-6.945h-.056a7,7,0,0,0-6.945,7.056l.1,12.019A7,7,0,0,0,245.332,283.937Z" style="fill:#1ae5be"/><path d="M267.593,283.759h.056a7,7,0,0,0,6.945-7.055l-.1-12.018a7,7,0,0,0-7-6.945h-.057A7,7,0,0,0,260.5,264.8l.1,12.018A7,7,0,0,0,267.593,283.759Z" style="fill:#1ae5be"/><path d="M289.7,257.563a7,7,0,0,0-6.944,7.056l.095,12.019a7,7,0,0,0,7,6.944h.056a7,7,0,0,0,6.944-7.056l-.095-12.018A7,7,0,0,0,289.7,257.563Z" style="fill:#1ae5be"/><path d="M105.981,232.805h.065l9.731-.09a33.4,33.4,0,0,0-7.506,21.777,6.993,6.993,0,0,0,.062.879l7.8,57.907a19.607,19.607,0,0,0,14.4,18.23l.133,16.675a13.307,13.307,0,0,0,13.289,13.184h.109l19.1-.152a13.3,13.3,0,0,0,13.187-13.4l-.127-15.921,161.21-1.286.126,15.921a13.295,13.295,0,0,0,13.289,13.187h.109l19.106-.153a13.294,13.294,0,0,0,13.186-13.4l-.134-16.752A19.659,19.659,0,0,0,396.9,311.062l7.2-58.012a7.03,7.03,0,0,0,.053-.917,33.12,33.12,0,0,0-8.1-21.637l9.993-.083a7,7,0,0,0,6.931-7.393,48.387,48.387,0,0,0-2.46-11.924c-3.078-9-12.453-14.723-23.873-14.665-5.73.046-15.634.091-21.217.115L355.771,179.1c-7.53-13.251-18.526-28.433-36.944-28.433l-.268,0-125.269,1c-15.073.12-28.276,10.455-37.2,29.106l-9.752,17.608c-5.6.034-15.671.1-21.448.142-11.425.092-20.7,6-23.637,15.043a48.4,48.4,0,0,0-2.27,11.961,7,7,0,0,0,6.994,7.283Zm38.676,114.557-.121-15.214,17.69-.141.121,15.214Zm206.9-1.65-.121-15.213,17.689-.141.121,15.213Zm35.191-135.281c5.115-.067,9.455,2.095,10.516,5.2q.147.431.279.854l-21,.175-3.4-6.147C377.925,210.488,383.155,210.46,386.748,210.431Zm-218.3-23.067c.071-.127.137-.256.2-.387,3.761-7.917,11.979-21.213,24.758-21.315l125.269-1h.148c8.864,0,16.285,6.4,24.742,21.278l19.263,34.844L148.99,222.489Zm206.05,47.328c.035,0,.069,0,.1,0h.176a14.1,14.1,0,0,1,10.7,4.974,19.353,19.353,0,0,1,4.666,12.148l-7.188,57.928a7.036,7.036,0,0,0-.054.918,5.62,5.62,0,0,1-5.539,5.628l-241.609,1.926h-.045a5.621,5.621,0,0,1-5.583-5.539,7.172,7.172,0,0,0-.062-.879l-7.79-57.833c.1-10.446,7.028-16.879,14.06-17.43a7.025,7.025,0,0,0,.728.047h.055ZM114.573,217.881c1.012-3.116,5.3-5.322,10.432-5.363,3.568-.028,8.776-.063,13.556-.093l-3.384,6.11-20.865.193C114.394,218.449,114.481,218.166,114.573,217.881Z" style="fill:#0635c9"/><path d="M465.014,224.637a7,7,0,0,0-5.868-3.183h0a7,7,0,0,0-5.869,3.191l-36.8,56.73a7,7,0,0,0,5.872,10.81h0l73.676-.044a7,7,0,0,0,5.865-10.817Zm-29.783,53.54L459.153,241.3l23.966,36.844Z" style="fill:#0635c9"/><path d="M52.854,290.546h0a7,7,0,0,0,5.869-3.191l36.8-56.73a7,7,0,0,0-5.872-10.81h0l-73.676.044a7,7,0,0,0-5.865,10.817l36.872,56.687A7,7,0,0,0,52.854,290.546Zm23.915-56.723L52.847,270.7,28.881,233.852Z" style="fill:#0635c9"/></svg>
