<?xml version="1.0"?>
<svg xmlns="http://www.w3.org/2000/svg" id="Layer_1" data-name="Layer 1" viewBox="0 0 512 512" width="512" height="512"><title>Car Maintenance 2</title><path d="M155.484,158.589c.072-.126.139-.255.2-.385,6.768-13.954,21.635-37.361,45.155-37.361h87.709v-20H180.842c-23.52,0-38.387,23.407-45.155,37.361-.064.13-.131.259-.2.385L99.146,202.973h31.288Z" style="fill:#d4e1f4"/><path d="M90.1,346.807a6.974,6.974,0,0,0-.056-.879L77.932,250.212c.185-19.53,13.127-31.7,26.52-33.239h-17.3a6.992,6.992,0,0,1-1.256-.127c-13.892.791-27.776,13.133-27.968,33.366l12.116,95.716a6.974,6.974,0,0,1,.056.879,13.753,13.753,0,0,0,13.737,13.737h20A13.753,13.753,0,0,1,90.1,346.807Z" style="fill:#d4e1f4"/><path d="M86.406,287.869A28.493,28.493,0,1,0,114.9,259.376,28.525,28.525,0,0,0,86.406,287.869Zm42.985,0A14.493,14.493,0,1,1,114.9,273.376,14.509,14.509,0,0,1,129.391,287.869Z" style="fill:#0635c9"/><path d="M36,210.336h.009l27.762-.036a43.8,43.8,0,0,0-8.011,7.342,50.766,50.766,0,0,0-11.83,33,6.973,6.973,0,0,0,.055.879l12.122,95.763A27.783,27.783,0,0,0,79.6,374.219v31.1a17.388,17.388,0,0,0,17.369,17.369h31.485a17.388,17.388,0,0,0,17.368-17.369V374.544H293.189v-14H83.841A13.753,13.753,0,0,1,70.1,346.807a6.974,6.974,0,0,0-.056-.879L57.932,250.212c.192-20.233,14.076-32.575,27.968-33.366a6.992,6.992,0,0,0,1.256.127H295.663v-14H99.146l36.338-64.384c.072-.126.139-.255.2-.385,6.768-13.954,21.635-37.361,45.155-37.361H295.663v-14H180.842c-23.034,0-43.5,16-57.654,45.052l-17.674,31.314c-8.31-.017-27.47-.054-37.993-.054-16.837,0-30.515,8.391-34.844,21.377A76.18,76.18,0,0,0,29.008,203,7,7,0,0,0,36,210.336ZM93.6,374.544h38.222v30.773a3.372,3.372,0,0,1-3.368,3.369H96.968a3.372,3.372,0,0,1-3.369-3.369ZM45.958,188.959c2.354-7.06,11.02-11.8,21.563-11.8,7.912,0,20.707.021,30.1.038L86.853,196.271l-42.833.055A61.583,61.583,0,0,1,45.958,188.959Z" style="fill:#0635c9"/><path d="M217.389,263.42h78.274v-14H217.389c-14.468,0-29.328,10.778-33.833,24.542l-6.563,20.109a7,7,0,0,0,6.654,9.172H295.663v-14H193.3l3.567-10.931C199.459,270.379,209.051,263.42,217.389,263.42Z" style="fill:#0635c9"/><path d="M163.473,315.783a7,7,0,0,0,0,14h132.19a7,7,0,0,0,0-14Z" style="fill:#0635c9"/><path d="M476.672,222.546l-34.265-3.3a153.2,153.2,0,0,0-17.4-41.185l21.848-26.384a7,7,0,0,0-.441-9.414L409.055,104.9a7,7,0,0,0-9.415-.441l-26.333,21.807A149.225,149.225,0,0,0,332.07,108.9l-3.3-34.258a7,7,0,0,0-6.968-6.329H295.551a7,7,0,0,0-7,7V436.684a7,7,0,0,0,7,7H321.8a7,7,0,0,0,6.968-6.329l3.3-34.261a152.623,152.623,0,0,0,41.189-17.4l26.381,21.846a7,7,0,0,0,9.415-.441l37.363-37.364a7,7,0,0,0,.441-9.414l-21.808-26.336a149.746,149.746,0,0,0,17.359-41.233l34.262-3.3A7,7,0,0,0,483,282.486V229.514A7,7,0,0,0,476.672,222.546ZM302.551,160.132a96.141,96.141,0,0,1,0,191.736ZM469,276.128,436.074,279.3a7,7,0,0,0-6.169,5.484,135.038,135.038,0,0,1-19.328,45.853,7,7,0,0,0,.434,8.347l21,25.36L403.661,392.7l-25.36-21a7,7,0,0,0-8.261-.49,138.78,138.78,0,0,1-45.935,19.383,7,7,0,0,0-5.489,6.171l-3.172,32.925H302.551V365.9a110.135,110.135,0,0,0,0-219.794V82.316h12.893l3.172,32.925a7,7,0,0,0,5.489,6.171,134.574,134.574,0,0,1,45.846,19.324,7,7,0,0,0,8.35-.431l25.36-21,28.351,28.351-21,25.36a7,7,0,0,0-.492,8.257,139.331,139.331,0,0,1,19.386,45.943,7,7,0,0,0,6.169,5.484L469,235.872Z" style="fill:#1ae5be"/></svg>
