<?xml version="1.0"?>
<svg xmlns="http://www.w3.org/2000/svg" id="Layer_1" data-name="Layer 1" viewBox="0 0 512 512" width="512" height="512"><title>Car Mechanic 2</title><path d="M383,446.825c-74.99,0-136-61.009-136-136a135.545,135.545,0,0,1,78.515-123.155A135.765,135.765,0,0,0,217,320.826c0,74.99,61.009,136,136,136a135.178,135.178,0,0,0,57.591-12.815A136.06,136.06,0,0,1,383,446.825Z" style="fill:#d4e1f4"/><path d="M128.094,111.559c.071-.127.137-.257.2-.388,6.115-12.85,19.582-34.429,41.079-34.587l191.076-1.408h.242a29.761,29.761,0,0,1,14.29,3.59c-11.114-16.384-21.743-23.59-34.29-23.59h-.242L149.372,56.584c-21.5.158-34.964,21.737-41.079,34.587-.062.131-.128.261-.2.388l-32.76,59.065,31.22-.23Z" style="fill:#d4e1f4"/><path d="M72.717,295.359a12.7,12.7,0,0,1-3.652-8.862,7.664,7.664,0,0,0-.061-.908l-11.863-91.38c.044-15,7.857-25.436,17.345-29.578l-11.036.081H63.4a6.976,6.976,0,0,1-1.141-.1c-12.581.84-25.061,12.146-25.116,30.516L49,283.6a7.185,7.185,0,0,1,.061.879,12.253,12.253,0,0,0,12.193,12.105h.091l12.66-.093A12.591,12.591,0,0,1,72.717,295.359Z" style="fill:#d4e1f4"/><path d="M89.406,202.73a26.895,26.895,0,0,0,.192,53.789h.2a26.895,26.895,0,0,0-.192-53.789Zm13.092,26.8a12.894,12.894,0,1,1-12.989-12.8h.1a12.9,12.9,0,0,1,12.891,12.8Z" style="fill:#0635c9"/><path d="M477.038,130.95c-4.139-12.115-16.891-19.9-32.545-19.9h-.35c-9.489.07-26.686.135-34.555.163l-15.732-28.5c-10.985-19.36-26.943-41.541-53.169-41.541h-.343L149.27,42.584c-21.536.158-40.538,15.2-53.523,42.372L79.758,113.784c-7.849.042-25.248.137-34.86.208-15.814.116-28.609,8.117-32.6,20.383a71.09,71.09,0,0,0-3.295,17.257A7,7,0,0,0,16,158.918h.061L40.1,158.71c-10.425,8.1-17.072,21.515-16.958,36.94a6.993,6.993,0,0,0,.062.879l11.869,88.527A26.236,26.236,0,0,0,57,310.231l.209,28.347a16.6,16.6,0,0,0,16.593,16.475h.126l29.143-.215a16.617,16.617,0,0,0,16.475-16.72l-.206-27.962,91.878-.677a7,7,0,0,0-.051-14h-.053l-149.768,1.1a12.277,12.277,0,0,1-8.632-3.524,12.105,12.105,0,0,1-3.652-8.58A6.993,6.993,0,0,0,49,283.6L37.141,195.123c.056-18.37,12.536-29.676,25.116-30.516a6.976,6.976,0,0,0,1.141.1h.052l362.121-2.668c.052,0,.1.008.155.008h.24a25.3,25.3,0,0,1,19.09,8.837,33.251,33.251,0,0,1,8.037,21.155l-3.635,29.143A7,7,0,0,0,455.539,229a7.2,7.2,0,0,0,.875.055,7,7,0,0,0,6.937-6.135l3.694-29.621a7.046,7.046,0,0,0,.054-.918,46.835,46.835,0,0,0-11.561-30.773,42.142,42.142,0,0,0-6.37-5.87l24.483-.189a7,7,0,0,0,6.935-7.389A71.091,71.091,0,0,0,477.038,130.95ZM105.343,310.259l.206,27.963a2.6,2.6,0,0,1-2.578,2.616l-29.143.215a2.7,2.7,0,0,1-1.841-.748,2.587,2.587,0,0,1-.775-1.83l-.206-27.963ZM62.714,144.513l-38.7.336a55.955,55.955,0,0,1,1.6-6.144c2.061-6.338,9.852-10.643,19.387-10.713,7.074-.052,18.371-.118,26.968-.165Zm238.32,4.448a32.79,32.79,0,0,1,64.587-.476Zm78.731-.58a46.784,46.784,0,0,0-92.875.684L75.334,150.624l32.76-59.065c.071-.127.137-.257.2-.388,6.115-12.85,19.582-34.429,41.08-34.587l191.074-1.408h.242c15.025,0,27.3,10.322,40.951,34.379l32.337,58.575Zm46.77-6.471L417.3,125.185c8.582-.034,19.888-.083,26.945-.135h.236c9.428,0,17.17,4.173,19.306,10.427a56.054,56.054,0,0,1,1.7,6.133Z" style="fill:#0635c9"/><path d="M194.42,204.958h-.052a7,7,0,0,0-6.949,7.052l.135,18.332a7,7,0,0,0,7,6.948h.052a7,7,0,0,0,6.949-7.052l-.135-18.332A7,7,0,0,0,194.42,204.958Z" style="fill:#0635c9"/><path d="M160.465,205.208h-.052a7,7,0,0,0-6.949,7.052l.136,18.332a7,7,0,0,0,7,6.948h.052a7,7,0,0,0,6.949-7.052l-.136-18.332A7,7,0,0,0,160.465,205.208Z" style="fill:#0635c9"/><path d="M228.323,204.707a7,7,0,0,0-6.949,7.052l.135,18.333a7,7,0,0,0,7,6.948h.052a7,7,0,0,0,6.949-7.052l-.135-18.333A6.958,6.958,0,0,0,228.323,204.707Z" style="fill:#0635c9"/><path d="M353,170.827a149.863,149.863,0,0,0-150,150c0,82.71,67.289,150,150,150s150-67.289,150-150a150,150,0,0,0-150-150Zm0,286c-74.99,0-136-61.009-136-136a136,136,0,0,1,272,0C489,395.816,427.991,456.825,353,456.825Z" style="fill:#1ae5be"/><path d="M383.13,251.932l.623-6.008a7,7,0,0,0-6.962-7.723h-47.58a7,7,0,0,0-6.962,7.723l.623,6.009a99.728,99.728,0,0,0-47.912,35.405,109.81,109.81,0,0,0-21,58.813h-5.823a7,7,0,0,0-7,7v24.234a7,7,0,0,0,7,7H457.867a7,7,0,0,0,7-7V353.151a7,7,0,0,0-7-7h-5.814a109.486,109.486,0,0,0-21.016-58.9A99.785,99.785,0,0,0,383.13,251.932ZM320.475,267.9a78.63,78.63,0,0,1,11.754-4.173,7,7,0,0,0,5.165-7.489l-.419-4.037h32.052l-.419,4.037a7,7,0,0,0,5.165,7.489,78.977,78.977,0,0,1,11.754,4.168v8.073a49.969,49.969,0,0,1-31.551,46.439,49.826,49.826,0,0,1-33.5-47.165ZM450.867,370.385H255.135V360.151H450.867ZM267.98,346.151a95.675,95.675,0,0,1,18.239-50.493,88.5,88.5,0,0,1,20.267-19.831,63.786,63.786,0,0,0,44.15,60.227l1.3.423a7.005,7.005,0,0,0,4.447-.037,63.966,63.966,0,0,0,43.147-60.472v-.158a88.308,88.308,0,0,1,20.26,19.773,95.338,95.338,0,0,1,18.244,50.568Z" style="fill:#1ae5be"/><path d="M342.867,302.253h22.471a7,7,0,0,0,0-14H342.867a7,7,0,0,0,0,14Z" style="fill:#1ae5be"/><path d="M342.867,281.536h22.471a7,7,0,0,0,0-14H342.867a7,7,0,0,0,0,14Z" style="fill:#1ae5be"/></svg>
