<?xml version="1.0"?>
<svg xmlns="http://www.w3.org/2000/svg" id="Layer_1" data-name="Layer 1" viewBox="0 0 512 512" width="512" height="512"><title>Car mechanic</title><path d="M230.126,214.073a8.808,8.808,0,0,0,8.328,6.019c.05-.509.082-1.022.082-1.543a15.435,15.435,0,0,0-.44-3.67,9.475,9.475,0,0,0-4.418-6.063,15.985,15.985,0,0,1-1.8,2l-2.163,2.02Z" style="fill:#d4e1f4"/><path d="M79.832,216.778a8.8,8.8,0,0,0,12.793-7.129l1.857-23.23h-20l-1.857,23.23a8.788,8.788,0,0,1-.8,3.017Z" style="fill:#d4e1f4"/><path d="M78.443,240.7v-.133a7,7,0,0,0-5.793-6.9,15.323,15.323,0,0,1-12.69-15.127,15.481,15.481,0,0,1,.1-1.67c-.075-.036-.154-.062-.228-.1l-10.524-5.4a14.163,14.163,0,0,1-3.85-2.911,9.479,9.479,0,0,0-5.058,6.415,15.383,15.383,0,0,0,12.25,18.8,7,7,0,0,1,5.793,6.9v.133A80.684,80.684,0,0,0,149.278,320.9,80.938,80.938,0,0,1,78.443,240.7Z" style="fill:#d4e1f4"/><path d="M68.184,387.531l41.994-17.922a95.652,95.652,0,0,1-10.54-4.037L48.184,387.531A40.086,40.086,0,0,0,26.5,419.492v66.147h20V419.492A40.086,40.086,0,0,1,68.184,387.531Z" style="fill:#d4e1f4"/><path d="M223.842,186.419l-.885,12.838a2,2,0,0,1-.633,1.33l-1.477,1.379-2.742-8.225c-.8-2.408-1.523-4.856-2.179-7.322Z" style="fill:#d4e1f4"/><path d="M60.438,186.419l-1.147,14.344L55.7,198.92a.261.261,0,0,1-.14-.211l-.847-12.29Z" style="fill:#d4e1f4"/><path d="M126.97,353.514V334.738a94.205,94.205,0,0,1-20-4.872v23.648a82.853,82.853,0,0,0,42.53,6.018A82.314,82.314,0,0,1,126.97,353.514Z" style="fill:#d4e1f4"/><path d="M226.5,411.764h-3v-40h-14v40h-6v-50h-14v50H89.5v-48h-14v48h-6v-40h-14v40h-3a7,7,0,0,0-7,7v74h14v-67h160v67h14v-74A7,7,0,0,0,226.5,411.764Z" style="fill:#1ae5be"/><path d="M359.6,185.125a15.889,15.889,0,0,0-15.871-15.871h-6.307V69.94l6.417-13.474a7.007,7.007,0,0,0,.452-4.784l-8.871-33.85a7,7,0,0,0-6.772-5.226H314.452a7,7,0,0,0-6.772,5.226l-8.871,33.85a7,7,0,0,0,.452,4.784l6.416,13.474v99.314h-6.306a15.858,15.858,0,0,0-6.831,30.175l-8.29,28.833a6.993,6.993,0,0,0-.272,1.934v75.6a28.869,28.869,0,0,0,28.836,28.836h17.469a28.869,28.869,0,0,0,28.836-28.836V230.2a7.031,7.031,0,0,0-.272-1.934l-8.29-28.833A15.877,15.877,0,0,0,359.6,185.125ZM319.854,26.606h3.389l6.853,26.15-6,12.594a6.994,6.994,0,0,0-.681,3.009v100.9h-3.742V68.359A6.993,6.993,0,0,0,319,65.35l-6-12.594Zm25.265,279.185a14.853,14.853,0,0,1-14.836,14.836H312.814a14.852,14.852,0,0,1-14.836-14.836V231.183L306.657,201H336.44l8.679,30.187ZM343.726,187H299.371a1.871,1.871,0,1,1,0-3.742h44.355a1.871,1.871,0,0,1,0,3.742Z" style="fill:#0635c9"/><path d="M461.5,13.017a7,7,0,0,0-10.128,6.262V50.86L431.159,64.32,410.408,49.8l.1-30.535a7.009,7.009,0,0,0-10.123-6.3,68.258,68.258,0,0,0-38.1,61.465,68.95,68.95,0,0,0,40.042,62.39V306.065a28.562,28.562,0,0,0,57.124,0V136.824A68.629,68.629,0,0,0,461.5,13.017ZM450.009,125.6a7,7,0,0,0-4.551,6.557V306.065a14.562,14.562,0,0,1-29.124,0V132.157a7,7,0,0,0-4.551-6.557,54.852,54.852,0,0,1-35.491-51.166,54.279,54.279,0,0,1,20.177-42.422l-.073,21.4a7,7,0,0,0,2.987,5.76L427.049,78.53a7,7,0,0,0,7.893.091l27.309-18.185a7,7,0,0,0,3.12-5.827V32.054A54.3,54.3,0,0,1,485.5,74.434,54.852,54.852,0,0,1,450.009,125.6Z" style="fill:#0635c9"/><path d="M206.5,427.764a7,7,0,0,0-7,7v6a7,7,0,0,0,14,0v-6A7,7,0,0,0,206.5,427.764Z" style="fill:#0635c9"/><path d="M72.5,427.764a7,7,0,0,0-7,7v6a7,7,0,0,0,14,0v-6A7,7,0,0,0,72.5,427.764Z" style="fill:#0635c9"/><path d="M266.5,492.639v-73.45c0-.194-.008-.387-.024-.581a54.165,54.165,0,0,0-29.58-43.689c-.125-.064-.253-.122-.382-.178L186.03,353.2V323.185a94.946,94.946,0,0,0,47.934-77.317A29.4,29.4,0,0,0,251.7,211.549a23.592,23.592,0,0,0-14.414-16.512l1.044-15.137-13.967-.962-1.4,20.319a2,2,0,0,1-.633,1.33l-1.477,1.379-2.742-8.225a124.372,124.372,0,0,1-4.224-16.293l-13.759,2.584a138.2,138.2,0,0,0,4.7,18.137l5.3,15.9a8.8,8.8,0,0,0,14.355,3.652l7.4-6.905a15.985,15.985,0,0,0,1.8-2,9.475,9.475,0,0,1,4.418,6.063,15.383,15.383,0,0,1-12.213,18.792,7,7,0,0,0-5.78,6.892v.141a80.83,80.83,0,1,1-161.66,0v-.133a7,7,0,0,0-5.793-6.9,15.383,15.383,0,0,1-12.25-18.8,9.479,9.479,0,0,1,5.058-6.415,14.163,14.163,0,0,0,3.85,2.911l10.524,5.4a8.8,8.8,0,0,0,12.793-7.129L75,179.977l-13.955-1.116-1.751,21.9L55.7,198.92a.261.261,0,0,1-.14-.211L54.2,178.938l-13.967.962,1.042,15.111A23.578,23.578,0,0,0,26.8,211.547a29.4,29.4,0,0,0,17.781,34.34A94.95,94.95,0,0,0,92.97,323.439V353.2L42.486,374.741c-.129.056-.257.114-.382.178a54.165,54.165,0,0,0-29.58,43.689c-.016.194-.024.387-.024.581v73.45a7,7,0,0,0,7,7h240A7,7,0,0,0,266.5,492.639ZM106.97,329.866a94.8,94.8,0,0,0,65.06-.164v23.812a82.938,82.938,0,0,1-65.06,0ZM252.5,485.639H26.5V419.492a40.086,40.086,0,0,1,21.684-31.961l51.454-21.959a96.888,96.888,0,0,0,79.724,0l51.454,21.959A40.086,40.086,0,0,1,252.5,419.492Z" style="fill:#0635c9"/><path d="M425.215,228.175h9.341a7,7,0,0,0,0-14h-9.341a7,7,0,0,0,0,14Z" style="fill:#1ae5be"/><path d="M436.576,240.356H425.215a7,7,0,1,0,0,14h11.361a7,7,0,0,0,0-14Z" style="fill:#1ae5be"/><path d="M436.576,266.539H425.215a7,7,0,1,0,0,14h11.361a7,7,0,0,0,0-14Z" style="fill:#1ae5be"/><path d="M331.307,238.57a7,7,0,0,0-7,7v52.339a7,7,0,0,0,14,0V245.57A7,7,0,0,0,331.307,238.57Z" style="fill:#1ae5be"/><path d="M311.791,238.57a7,7,0,0,0-7,7v52.339a7,7,0,0,0,14,0V245.57A7,7,0,0,0,311.791,238.57Z" style="fill:#1ae5be"/><path d="M249.5,147h-6.42a114.525,114.525,0,0,0-22-61.924,104.3,104.3,0,0,0-50.347-37.014l.682-6.575a7,7,0,0,0-6.962-7.722h-49.91a7,7,0,0,0-6.962,7.722l.682,6.576A104.235,104.235,0,0,0,57.914,85.167,114.844,114.844,0,0,0,35.931,147H29.5a7,7,0,0,0-7,7v25.42a7,7,0,0,0,7,7h220a7,7,0,0,0,7-7V154A7,7,0,0,0,249.5,147ZM117.624,59.864a7,7,0,0,0,5.164-7.488l-.478-4.612h34.38l-.478,4.612a7,7,0,0,0,5.164,7.488,83.367,83.367,0,0,1,12.585,4.48v8.692a52.756,52.756,0,0,1-33.431,49.078,52.6,52.6,0,0,1-35.491-49.839V64.351A82.93,82.93,0,0,1,117.624,59.864ZM69.173,93.487A93.058,93.058,0,0,1,91.039,72.234v.041a66.572,66.572,0,0,0,46.087,63.463l1.36.444a7.011,7.011,0,0,0,4.446-.036,66.756,66.756,0,0,0,45.029-63.11v-.828a92.946,92.946,0,0,1,21.871,21.2A100.385,100.385,0,0,1,229.058,147H49.952A100.717,100.717,0,0,1,69.173,93.487ZM242.5,172.419H36.5V161h206Z" style="fill:#1ae5be"/><path d="M128.87,100.266h23.571a7,7,0,0,0,0-14H128.87a7,7,0,0,0,0,14Z" style="fill:#1ae5be"/><path d="M128.87,78.535h23.571a7,7,0,0,0,0-14H128.87a7,7,0,0,0,0,14Z" style="fill:#1ae5be"/></svg>
