<?xml version="1.0"?>
<svg xmlns="http://www.w3.org/2000/svg" id="Layer_1" data-name="Layer 1" viewBox="0 0 512 512" width="512" height="512"><title>Car Piston </title><polygon points="203 135 329 135 329 115 183 115 183 265 203 265 203 135" style="fill:#d4e1f4"/><path d="M305.1,261.077q1.134,1.914,2.126,3.923h3.641A58.112,58.112,0,0,0,305.1,261.077Z" style="fill:#d4e1f4"/><rect x="176" y="130" width="160" height="14" style="fill:#0635c9"/><path d="M204,431a52,52,0,1,0,74.789-46.748V242.737h-14V388.85a7,7,0,0,0,4.543,6.555,38,38,0,1,1-26.665,0,7,7,0,0,0,4.543-6.555V242.737h-14V384.252A52.293,52.293,0,0,0,204,431Z" style="fill:#0635c9"/><path d="M176,91H336a7,7,0,0,0,0-14H176a7,7,0,0,0,0,14Z" style="fill:#0635c9"/><path d="M176,43H336a7,7,0,0,0,0-14H176a7,7,0,0,0,0,14Z" style="fill:#0635c9"/><path d="M256,209a27,27,0,1,0-27-27A27.03,27.03,0,0,0,256,209Zm0-40a13,13,0,1,1-13,13A13.015,13.015,0,0,1,256,169Z" style="fill:#0635c9"/><path d="M296.119,274.519A7,7,0,0,0,302.65,279H336a7,7,0,0,0,7-7V108a7,7,0,0,0-7-7H176a7,7,0,0,0-7,7V272a7,7,0,0,0,7,7h33.35a7,7,0,0,0,6.531-4.481,43,43,0,0,1,80.238,0ZM204.776,265H183V115H329V265H307.224a57,57,0,0,0-102.448,0Z" style="fill:#1ae5be"/><path d="M176,67H336a7,7,0,0,0,0-14H176a7,7,0,0,0,0,14Z" style="fill:#1ae5be"/><path d="M231.631,428.631A24.369,24.369,0,1,0,256,404.263,24.4,24.4,0,0,0,231.631,428.631Zm34.737,0A10.369,10.369,0,1,1,256,418.263,10.38,10.38,0,0,1,266.368,428.631Z" style="fill:#1ae5be"/></svg>
