<?xml version="1.0"?>
<svg xmlns="http://www.w3.org/2000/svg" id="Layer_1" data-name="Layer 1" viewBox="0 0 512 512" width="512" height="512"><title>Car Proctection</title><path d="M124.068,154.792c.069-.124.134-.251.194-.379,5.973-12.551,19.128-33.63,40.126-33.784l186.642-1.376h.236a29.069,29.069,0,0,1,13.959,3.507c-10.857-16-21.239-23.043-33.5-23.043h-.236l-186.642,1.376c-21,.154-34.153,21.233-40.125,33.784-.061.128-.126.255-.2.379l-32,57.695,30.5-.225Z" style="fill:#d4e1f4"/><path d="M69.976,334.327a12.407,12.407,0,0,1-3.567-8.656,7.119,7.119,0,0,0-.061-.887l-11.587-89.26c.043-14.653,7.675-24.846,16.942-28.892l-10.779.08h-.051a6.757,6.757,0,0,1-1.114-.1c-12.289.821-24.48,11.865-24.534,29.808L46.813,322.84a6.847,6.847,0,0,1,.06.858,11.969,11.969,0,0,0,11.91,11.825h.089l12.366-.091A12.252,12.252,0,0,1,69.976,334.327Z" style="fill:#d4e1f4"/><path d="M499.086,220.4l-48.457-23.8a6.986,6.986,0,0,0,3.61-6.517,67.4,67.4,0,0,0-3.366-16.323c-3.985-11.67-16.33-19.133-31.384-19.028-8.843.066-24.8.126-32.325.153L372.45,128.231c-10.406-18.338-25.536-39.353-50.456-39.353h-.327L141.593,90.206c-20.454.15-38.488,14.407-50.8,40.15L75.849,157.308c-7.51.041-23.658.129-32.618.195-15.08.111-27.288,7.761-31.1,19.488a67.424,67.424,0,0,0-3.124,16.371A7,7,0,0,0,16,200.648h.061l21.474-.185c-9.387,7.772-15.312,20.194-15.208,34.4a6.994,6.994,0,0,0,.063.879l11.182,83.408a25.132,25.132,0,0,0,20.669,24.033l.2,26.379a16.046,16.046,0,0,0,16.04,15.926H70.6l27.464-.2a16.066,16.066,0,0,0,15.927-16.163l-.191-25.95,193.508-1.426c6.108,15.162,16.491,29.344,28.5,37.53l62.5,42.626a7,7,0,0,0,7.888,0l62.5-42.626C487.931,366.164,503,337.663,503,314.4V226.682A7,7,0,0,0,499.086,220.4ZM419.593,168.73c8.8-.076,16.058,3.775,18.032,9.553a52.236,52.236,0,0,1,1.48,5.25l-14.841.115-18.928-9.3a7,7,0,0,0-6.165,0l-.992.485-3.3-5.98C402.876,168.823,413.125,168.778,419.593,168.73ZM103.144,136.959c.07-.127.137-.257.2-.388,5.722-12.024,18.314-32.217,38.353-32.365l180.075-1.327H322c13.994,0,25.457,9.667,38.239,32.191L385.592,181l-18.124,8.876-8.3.061A44.56,44.56,0,0,0,315.1,151.492h-.332a44.559,44.559,0,0,0-43.831,39.085L72.6,192.021Zm241.862,53.08-59.9.436a30.548,30.548,0,0,1,29.768-24.982h.228A30.55,30.55,0,0,1,345.006,190.039Zm-320.961-3.46a52,52,0,0,1,1.4-5.259c1.888-5.807,9.078-9.753,17.891-9.817,6.479-.048,16.716-.107,24.725-.152l-8.275,14.918ZM97.96,371.288l-27.465.2h-.016a2.047,2.047,0,0,1-2.043-2.029l-.191-25.95,31.554-.233.191,25.95A2.047,2.047,0,0,1,97.96,371.288ZM305.421,220.264a7,7,0,0,0-3.921,6.286V314.4a64.434,64.434,0,0,0,1.494,13.384l-244.259,1.8h-.083a11.1,11.1,0,0,1-11.088-11.009,6.993,6.993,0,0,0-.062-.879L36.326,234.339c.064-17.034,11.6-27.523,23.248-28.326a6.985,6.985,0,0,0,1.095.095h.051l277.73-2.021ZM489,314.4c0,18.481-12.911,42.9-28.194,53.317L402.25,407.649l-58.557-39.936C328.411,357.293,315.5,332.877,315.5,314.4v-83.48l86.745-42.484L489,231.042Z" style="fill:#0635c9"/><path d="M378.162,289.246a7,7,0,0,0-10.291,9.49l20.205,21.91a7,7,0,0,0,9.874.417l38.262-35.045a7,7,0,0,0-9.457-10.325l-33.117,30.334Z" style="fill:#0635c9"/><path d="M85.369,241.131h-.192a25.749,25.749,0,0,0,.184,51.5h.2a25.749,25.749,0,0,0-.188-51.5Zm.084,37.5h-.088a11.749,11.749,0,0,1-.085-23.5h.088a11.749,11.749,0,0,1,.085,23.5Z" style="fill:#0635c9"/><path d="M285.573,299.66h-.052l-106.2.782a7,7,0,0,0,.051,14h.053l106.2-.782a7,7,0,0,0-.051-14Z" style="fill:#0635c9"/><path d="M184.272,274.508h.053a7,7,0,0,0,6.948-7.052l-.127-17.276a7,7,0,0,0-7-6.949H184.1a7,7,0,0,0-6.949,7.052l.127,17.277A7,7,0,0,0,184.272,274.508Z" style="fill:#0635c9"/><path d="M152.147,243.467H152.1a7,7,0,0,0-6.949,7.052l.128,17.276a7,7,0,0,0,7,6.948h.053a7,7,0,0,0,6.948-7.052l-.128-17.276A7,7,0,0,0,152.147,243.467Z" style="fill:#0635c9"/><path d="M216.272,274.272h.053a7,7,0,0,0,6.948-7.051l-.127-17.278a7,7,0,0,0-7-6.948H216.1a7,7,0,0,0-6.949,7.052l.127,17.277A7,7,0,0,0,216.272,274.272Z" style="fill:#0635c9"/><path d="M248.272,274.036h.053a7,7,0,0,0,6.948-7.052l-.127-17.276a7,7,0,0,0-7-6.948h-.052a7,7,0,0,0-6.948,7.052l.127,17.276A7,7,0,0,0,248.272,274.036Z" style="fill:#0635c9"/><path d="M280.271,273.8h.053a7,7,0,0,0,6.948-7.052l-.126-17.277a7,7,0,0,0-7-6.949h-.052a7,7,0,0,0-6.948,7.052l.126,17.278A7,7,0,0,0,280.271,273.8Z" style="fill:#0635c9"/><path d="M402.25,228.857a69.521,69.521,0,1,0,69.521,69.521A69.6,69.6,0,0,0,402.25,228.857Zm0,125.042a55.521,55.521,0,1,1,55.521-55.521A55.584,55.584,0,0,1,402.25,353.9Z" style="fill:#1ae5be"/></svg>
