<?xml version="1.0"?>
<svg xmlns="http://www.w3.org/2000/svg" id="Layer_1" data-name="Layer 1" viewBox="0 0 512 512" width="512" height="512"><title>Car Repair 2</title><path d="M156.827,113.763q.093-.169.177-.345c5.429-11.41,17.388-30.572,36.477-30.713l169.675-1.25h.215a26.411,26.411,0,0,1,12.689,3.189c-9.869-14.55-19.308-20.949-30.449-20.949H345.4L175.721,64.946c-19.089.14-31.048,19.3-36.477,30.713-.056.116-.115.231-.177.344l-29.091,52.45,27.724-.205Z" style="fill:#d4e1f4"/><path d="M107.652,276.977a11.286,11.286,0,0,1-3.243-7.87,6.6,6.6,0,0,0-.055-.806L93.82,187.156c.039-13.322,6.978-22.587,15.4-26.266l-9.8.073h-.046a6.2,6.2,0,0,1-1.013-.093c-11.172.745-22.254,10.785-22.3,27.1L86.6,266.534a6.17,6.17,0,0,1,.054.78,10.882,10.882,0,0,0,10.828,10.75h.081l11.241-.083A11.266,11.266,0,0,1,107.652,276.977Z" style="fill:#d4e1f4"/><path d="M339.227,51.692,172.463,52.921c-19.148.141-36.009,13.442-47.5,37.463l-13.689,24.68c-7.074.039-21.722.119-29.9.179-14.192.106-25.689,7.33-29.29,18.405a63,63,0,0,0-2.918,15.3,7,7,0,0,0,6.994,7.286h.06l18.571-.16a37.5,37.5,0,0,0-3.614,3.734,42.359,42.359,0,0,0-9.675,27.6,6.993,6.993,0,0,0,.062.879L71.915,265.5a23.791,23.791,0,0,0,19.143,22.649l.177,24a15.377,15.377,0,0,0,15.372,15.262h.117l25.434-.187a15.376,15.376,0,0,0,15.263-15.49l-.173-23.513L366.5,286.607l.172,23.514a15.381,15.381,0,0,0,15.373,15.263h.117l25.435-.188a15.393,15.393,0,0,0,15.262-15.489l-.177-24.1A23.8,23.8,0,0,0,441.052,262.8l9.644-77.346a7.046,7.046,0,0,0,.054-.918,41.759,41.759,0,0,0-10.313-27.44,37.878,37.878,0,0,0-3.733-3.662l18.881-.146a7,7,0,0,0,6.935-7.389,63.068,63.068,0,0,0-3.144-15.256c-3.737-10.941-15.195-17.972-29.245-17.972h-.313c-8.074.059-22.545.115-29.627.141L386.71,88.4C377,71.292,362.879,51.691,339.535,51.691ZM64.251,142.165c.3-1.316.672-2.733,1.145-4.187,1.679-5.166,8.141-8.676,16.079-8.735,5.764-.042,14.74-.095,22.013-.135L96.4,141.887Zm68.774,170.65a1.346,1.346,0,0,1-.969.411l-25.435.187a1.551,1.551,0,0,1-.975-.4,1.346,1.346,0,0,1-.411-.969l-.173-23.514,28.186-.208.173,23.514A1.346,1.346,0,0,1,133.025,312.815ZM407.49,311.2l-25.434.188a1.308,1.308,0,0,1-.975-.4,1.35,1.35,0,0,1-.412-.969L380.5,286.5l28.186-.208.173,23.515A1.376,1.376,0,0,1,407.49,311.2Zm29.254-126.988-9.637,77.281a7.056,7.056,0,0,0-.054.918,9.764,9.764,0,0,1-9.68,9.824L95.73,274.6h-.072a9.764,9.764,0,0,1-9.751-9.681,7.186,7.186,0,0,0-.062-.879L75.5,186.888a28.7,28.7,0,0,1,6.4-18.076A20.562,20.562,0,0,1,96.472,161.2a7.067,7.067,0,0,0,1.053.087h.052l316.035-2.328c.047,0,.092.007.139.007h.209a21.2,21.2,0,0,1,16,7.412A28.113,28.113,0,0,1,436.744,184.208ZM306,145.755a27.773,27.773,0,0,1,26.94-22.077h.207A27.776,27.776,0,0,1,360.2,145.356Zm123.921-19.079c7.931-.106,14.451,3.354,16.207,8.5.5,1.451.892,2.867,1.209,4.182l-32.357.25L407.9,126.787C415.171,126.758,424.165,126.718,429.921,126.676ZM374.494,95.235l27.5,49.813-27.581.2a41.788,41.788,0,0,0-41.264-35.574h-.311a41.789,41.789,0,0,0-41.045,36.182L109.461,147.2l27.851-50.216c.071-.127.137-.257.2-.387,5.247-11.027,16.779-29.544,35.054-29.679L339.33,65.692h.2C352.283,65.691,362.763,74.564,374.494,95.235Z" style="fill:#0635c9"/><path d="M120.4,192.69h-.182a24.363,24.363,0,0,0,.177,48.726h.184a24.363,24.363,0,0,0-.179-48.726Zm.075,34.726H120.4a10.363,10.363,0,0,1-.075-20.726h.077a10.363,10.363,0,0,1,.076,20.726Z" style="fill:#0635c9"/><path d="M392.3,190.687h-.186a24.362,24.362,0,0,0,.175,48.724h.184a24.363,24.363,0,0,0-.173-48.725Zm7.375,31.636a10.363,10.363,0,1,1-7.457-17.635h.079a10.362,10.362,0,0,1,7.378,17.635Z" style="fill:#0635c9"/><path d="M176.458,326.309h-120a7,7,0,0,0-7,7v120a7,7,0,0,0,7,7H106.24a7,7,0,0,0,7-6.984l.2-83.016h63.017a7,7,0,0,0,7-7v-30A7,7,0,0,0,176.458,326.309Zm-7,30h-63a7,7,0,0,0-7,6.983l-.2,83.017h-35.8v-106h106Z" style="fill:#1ae5be"/><path d="M335.842,370.309h63.017l.2,83.016a7,7,0,0,0,7,6.984h49.781a7,7,0,0,0,7-7v-120a7,7,0,0,0-7-7h-120a7,7,0,0,0-7,7v30A7,7,0,0,0,335.842,370.309Zm7-30h106v106h-35.8l-.2-83.017a7,7,0,0,0-7-6.983h-63Z" style="fill:#1ae5be"/><path d="M207.506,261.617l98.349-.724a7,7,0,0,0-.051-14h-.053l-98.348.724a7,7,0,0,0,.051,14Z" style="fill:#1ae5be"/><path d="M211.876,194.635h-.053a7,7,0,0,0-6.948,7.052l.118,16a7,7,0,0,0,7,6.948h.053a7,7,0,0,0,6.948-7.052l-.118-16A7,7,0,0,0,211.876,194.635Z" style="fill:#1ae5be"/><path d="M182.242,194.854h-.053a7,7,0,0,0-6.948,7.051l.117,16a7,7,0,0,0,7,6.949h.053a7,7,0,0,0,6.948-7.052l-.117-16A7,7,0,0,0,182.242,194.854Z" style="fill:#1ae5be"/><path d="M330.582,223.761a7,7,0,0,0,6.948-7.052l-.117-16a7,7,0,0,0-7-6.948h-.053a7,7,0,0,0-6.948,7.051l.117,16a7,7,0,0,0,7,6.949Z" style="fill:#1ae5be"/><path d="M241.51,194.417h-.052a7,7,0,0,0-6.949,7.052l.118,16a7,7,0,0,0,7,6.948h.053a7,7,0,0,0,6.948-7.052l-.118-16A7,7,0,0,0,241.51,194.417Z" style="fill:#1ae5be"/><path d="M271.145,194.2h-.052a7,7,0,0,0-6.949,7.052l.118,16a7,7,0,0,0,7,6.948h.052a7,7,0,0,0,6.949-7.052l-.118-16A7,7,0,0,0,271.145,194.2Z" style="fill:#1ae5be"/><path d="M300.779,193.979h-.052a7,7,0,0,0-6.949,7.052l.118,16a7,7,0,0,0,7,6.948h.052a7,7,0,0,0,6.949-7.051l-.118-16A7,7,0,0,0,300.779,193.979Z" style="fill:#1ae5be"/></svg>
