<?xml version="1.0"?>
<svg xmlns="http://www.w3.org/2000/svg" id="Layer_1" data-name="Layer 1" viewBox="0 0 512 512" width="512" height="512"><title>Car service check 2</title><path d="M383,446.825c-74.99,0-136-61.009-136-136a135.545,135.545,0,0,1,78.515-123.155A135.765,135.765,0,0,0,217,320.826c0,74.99,61.009,136,136,136a135.178,135.178,0,0,0,57.591-12.815A136.06,136.06,0,0,1,383,446.825Z" style="fill:#d4e1f4"/><path d="M128.094,111.559c.071-.127.137-.257.2-.388,6.115-12.85,19.582-34.429,41.079-34.587l191.076-1.408h.242a29.761,29.761,0,0,1,14.29,3.59c-11.114-16.384-21.743-23.59-34.29-23.59h-.242L149.372,56.584c-21.5.158-34.964,21.737-41.079,34.587-.062.131-.128.261-.2.388l-32.76,59.065,31.22-.23Z" style="fill:#d4e1f4"/><path d="M72.717,295.359a12.7,12.7,0,0,1-3.652-8.862,7.664,7.664,0,0,0-.061-.908l-11.863-91.38c.044-15,7.857-25.436,17.345-29.578l-11.036.081H63.4a6.976,6.976,0,0,1-1.141-.1c-12.581.84-25.061,12.146-25.116,30.516L49,283.6a7.185,7.185,0,0,1,.061.879,12.253,12.253,0,0,0,12.193,12.105h.091l12.66-.093A12.591,12.591,0,0,1,72.717,295.359Z" style="fill:#d4e1f4"/><path d="M333.024,107.615a46.793,46.793,0,0,0-46.446,47.136,7,7,0,0,0,7,6.948h.053a7,7,0,0,0,6.948-7.052,32.793,32.793,0,0,1,32.55-33.032h.249a32.791,32.791,0,0,1,32.783,32.551,7,7,0,0,0,7,6.948h.053a7,7,0,0,0,6.948-7.051,46.793,46.793,0,0,0-46.781-46.448Z" style="fill:#1ae5be"/><path d="M89.61,202.729h-.2a26.895,26.895,0,0,0,.192,53.789h.2a26.895,26.895,0,0,0-.192-53.789Zm.089,39.789a12.948,12.948,0,0,1-9.144-3.709,12.894,12.894,0,0,1,8.954-22.079h.1a12.895,12.895,0,0,1,.092,25.789Z" style="fill:#0635c9"/><path d="M467.045,193.3a7.046,7.046,0,0,0,.054-.918,46.835,46.835,0,0,0-11.561-30.773,41.968,41.968,0,0,0-6.381-5.87l24.493-.189a7,7,0,0,0,6.936-7.389,71.065,71.065,0,0,0-3.549-17.208c-4.138-12.115-16.89-19.9-32.544-19.9h-.35c-9.49.07-26.687.135-34.555.163l-15.733-28.5c-10.985-19.36-26.942-41.541-53.167-41.541h-.343L149.27,42.584c-21.536.158-40.538,15.2-53.523,42.372L79.758,113.784c-7.849.042-25.248.137-34.86.208-15.814.116-28.609,8.117-32.6,20.383a71.09,71.09,0,0,0-3.295,17.257A7,7,0,0,0,16,158.918h.061L40.1,158.71c-10.425,8.1-17.072,21.515-16.958,36.94a6.993,6.993,0,0,0,.062.879l11.869,88.527A26.236,26.236,0,0,0,57,310.231l.209,28.347a16.6,16.6,0,0,0,16.593,16.475h.126l29.143-.215a16.617,16.617,0,0,0,16.475-16.72l-.206-27.962,84.085-.62q-.417,5.616-.426,11.29c0,82.71,67.289,150,150,150s150-67.289,150-150a148.914,148.914,0,0,0-39.245-101.154Zm-22.8-68.247c9.536-.076,17.389,4.12,19.543,10.426a56.054,56.054,0,0,1,1.7,6.133l-38.952.3L417.3,125.185C425.884,125.151,437.189,125.1,444.246,125.05ZM108.094,91.559c.071-.127.137-.257.2-.388,6.115-12.85,19.582-34.429,41.08-34.587l191.075-1.408h.241c15.025,0,27.3,10.322,40.951,34.379l32.337,58.575-338.643,2.5ZM24.01,144.849a55.955,55.955,0,0,1,1.6-6.144c2.061-6.338,9.852-10.643,19.387-10.713,7.074-.052,18.371-.118,26.968-.165l-9.256,16.686Zm78.961,195.989-29.143.215a2.793,2.793,0,0,1-1.841-.748,2.587,2.587,0,0,1-.775-1.83l-.206-27.963,34.337-.253.206,27.963A2.6,2.6,0,0,1,102.971,340.838Zm102.161-45.315L61.349,296.582a12.265,12.265,0,0,1-8.632-3.524,12.105,12.105,0,0,1-3.652-8.58A6.993,6.993,0,0,0,49,283.6L37.141,195.123c.056-18.37,12.536-29.676,25.116-30.516a6.976,6.976,0,0,0,1.141.1h.052l362.122-2.668c.052,0,.1.008.155.008h.239a25.3,25.3,0,0,1,19.091,8.837,33.255,33.255,0,0,1,8.036,21.155l-1.917,15.37a149.944,149.944,0,0,0-246.044,88.11ZM489,320.826c0,74.99-61.009,136-136,136s-136-61.009-136-136a136,136,0,0,1,272,0Z" style="fill:#0635c9"/><path d="M194.42,204.958h-.052a7,7,0,0,0-6.949,7.052l.135,18.332a7,7,0,0,0,7,6.948h.052a7,7,0,0,0,6.949-7.052l-.135-18.332A7,7,0,0,0,194.42,204.958Z" style="fill:#1ae5be"/><path d="M160.465,205.208h-.052a7,7,0,0,0-6.949,7.052l.136,18.332a7,7,0,0,0,7,6.948h.052a7,7,0,0,0,6.949-7.052l-.136-18.332A7,7,0,0,0,160.465,205.208Z" style="fill:#1ae5be"/><path d="M228.323,204.707a7,7,0,0,0-6.949,7.052l.135,18.333a7,7,0,0,0,7,6.948h.052a7,7,0,0,0,6.949-7.052l-.135-18.333A6.963,6.963,0,0,0,228.323,204.707Z" style="fill:#1ae5be"/><path d="M441.887,248.926l-85.8-42.141a7,7,0,0,0-6.165,0l-85.8,42.022a7,7,0,0,0-3.921,6.286v80.4c0,21.47,13.9,47.769,31.656,59.871l57.2,39.011a7,7,0,0,0,7.888,0l57.2-39.011c17.752-12.1,31.657-38.4,31.657-59.871V255.209A7,7,0,0,0,441.887,248.926ZM431.8,335.485c0,16.744-11.7,38.865-25.545,48.305L353,420.111,299.745,383.79C285.9,374.35,274.2,352.229,274.2,335.485V259.456L353,220.865l78.8,38.7Z" style="fill:#1ae5be"/><path d="M320.014,310.358a7,7,0,1,0-10.291,9.491l26.356,28.58a7,7,0,0,0,9.874.417l49.909-45.715a7,7,0,1,0-9.457-10.324l-44.764,41Z" style="fill:#1ae5be"/></svg>
