<?xml version="1.0"?>
<svg xmlns="http://www.w3.org/2000/svg" id="Layer_1" data-name="Layer 1" viewBox="0 0 512 512" width="512" height="512"><title>Car service Truck</title><path d="M58,157.007a32.2,32.2,0,0,1,32.167-32.168H303.4a32.214,32.214,0,0,0-29.77-20H60.167A32.2,32.2,0,0,0,28,137.007v197.8H58Z" style="fill:#d4e1f4"/><path d="M28.011,348.81H50.327a45.307,45.307,0,0,0-8.365,20.744H28.011Z" style="fill:#d4e1f4"/><path d="M123.8,348.81h9.384a45.742,45.742,0,0,0-4.687,8.026A45.459,45.459,0,0,0,123.8,348.81Z" style="fill:#d4e1f4"/><path d="M105.419,334.81a7,7,0,1,0,0,14h46.118a7,7,0,0,0,0-14Z" style="fill:#0635c9"/><path d="M14.011,372.637a10.929,10.929,0,0,0,10.916,10.917h23.48a7,7,0,0,0,0-14h-20.4V348.81H67.7a7,7,0,0,0,0-14H28v-197.8a32.2,32.2,0,0,1,32.167-32.168H273.631A32.2,32.2,0,0,1,305.8,137.007v197.8H188.265a7,7,0,0,0,0,14H337.736v20.744H208.408a7,7,0,0,0,0,14H344.591c.049,0,.1.007.145.007h35.945a7,7,0,0,0,0-14H351.742V341.81c0-.043-.006-.084-.006-.126V303.953h32.183a46.231,46.231,0,0,0,45.9-41.242h24.938A29.275,29.275,0,0,1,484,291.952v48.37c0,10.492-12.456,25.274-24.718,25.455a7,7,0,0,0,.207,14c9.427-.139,19.244-4.964,26.936-13.238,7.248-7.8,11.575-17.6,11.575-26.215v-48.37a43.3,43.3,0,0,0-37.835-42.891l-21.65-64.444H457.95A10.929,10.929,0,0,0,468.866,173.7V151.652a10.929,10.929,0,0,0-10.916-10.917H374.617a36.923,36.923,0,0,0-36.881,36.882V334.81H319.8v-197.8a46.22,46.22,0,0,0-46.167-46.168H60.167A46.22,46.22,0,0,0,14,137.007V341.658c0,.072.009.141.011.212Zm360.606-217.9h80.249v15.882H352.831A22.921,22.921,0,0,1,374.617,154.735Zm-22.881,29.882h72.01l21.532,64.094H351.736Zm0,78.094h63.973a32.217,32.217,0,0,1-31.79,27.242H351.736Z" style="fill:#0635c9"/><path d="M208.278,120.308a7,7,0,0,0-9.9,0l-66.409,66.409a7,7,0,0,0,9.9,9.9l66.41-66.41A7,7,0,0,0,208.278,120.308Z" style="fill:#0635c9"/><path d="M420.883,330.151a45.557,45.557,0,0,0-45.5,45.505c0,.364,0,.74.011,1.062a45.506,45.506,0,0,0,90.987.011c.009-.355.01-.72.01-1.073,0-1.142-.042-2.274-.123-3.343A45.651,45.651,0,0,0,420.883,330.151Zm31.5,46.245a31.506,31.506,0,0,1-63-.045c-.007-.23-.006-.467-.006-.695a31.5,31.5,0,0,1,62.924-2.309c.055.74.084,1.517.084,2.309C452.386,375.9,452.386,376.144,452.38,376.4Z" style="fill:#1ae5be"/><path d="M55.234,408.179A45.532,45.532,0,0,0,128.485,394.5a45.513,45.513,0,0,0,86.921-17.787c0-.055,0-.109,0-.163v-.9c0-1.188-.036-2.279-.113-3.346a45.491,45.491,0,0,0-86.8-15.475,45.538,45.538,0,0,0-8.178-12.235c-.054-.059-.11-.117-.167-.173l-.152-.152a45.441,45.441,0,0,0-65.889,0l-.154.154q-.084.084-.165.171a45.4,45.4,0,0,0-12.243,31.053c0,.368,0,.747.012,1.06A45.263,45.263,0,0,0,55.234,408.179Zm99.647-60.22a31.11,31.11,0,0,1,15.025-3.805,31.508,31.508,0,0,1,31.426,29.167c.051.72.076,1.484.076,2.336v.811a31.509,31.509,0,0,1-63-.168c-.008-.213-.007-.431-.007-.643A31.5,31.5,0,0,1,154.881,347.959Zm-90.927,6.274.13-.13c.045-.046.09-.091.133-.138a31.254,31.254,0,0,1,7.807-6.006,31.572,31.572,0,0,1,30.056,0,31.189,31.189,0,0,1,7.811,6c.046.049.093.1.14.144l.13.13a31.41,31.41,0,0,1,8.4,21.419c0,.22,0,.446-.008.733a31.51,31.51,0,0,1-63-.056c-.007-.223-.006-.453-.006-.677A31.45,31.45,0,0,1,63.954,354.233Z" style="fill:#1ae5be"/><path d="M70.144,266.966a22.093,22.093,0,0,0,31.21,0l36.887-36.887a7.035,7.035,0,0,0,1.185-1.579l8.514-15.5a7,7,0,0,0,9.626-10.146l-31.839-31.84a7,7,0,0,0-10.147,9.626l-15.5,8.514a7.021,7.021,0,0,0-1.578,1.185L61.619,227.232a22.1,22.1,0,0,0,0,31.21Zm1.375-29.835L107.7,200.949l18.172-9.985,11.748,11.749-9.985,18.171L91.454,257.067a8.08,8.08,0,0,1-11.411,0l-8.524-8.525A8.078,8.078,0,0,1,71.519,237.131Z" style="fill:#1ae5be"/><path d="M271.066,183.326a7,7,0,0,0-6.557,1.863l-14.535,14.535-13.769-2.762L233.631,182.4l14.094-14a7,7,0,0,0-2.7-11.608,49.123,49.123,0,0,0-50.671,11.893,49.637,49.637,0,0,0-11.846,50.8l-64.481,64.481A21.833,21.833,0,0,0,148.9,314.845l64.481-64.481a49.395,49.395,0,0,0,62.72-62.442A7,7,0,0,0,271.066,183.326Zm-16.784,45.293a35.541,35.541,0,0,1-39.7,7.181,7,7,0,0,0-7.855,1.419L139,304.946a7.833,7.833,0,0,1-11.077-11.077l67.726-67.726a7,7,0,0,0,1.419-7.855,35.429,35.429,0,0,1,30.979-50.073l-6.878,6.831a7,7,0,0,0-1.96,6.185L223.25,204.1a7,7,0,0,0,5.517,5.646l22.129,4.438a7,7,0,0,0,6.327-1.914l7.426-7.426A35.208,35.208,0,0,1,254.282,228.619Z" style="fill:#1ae5be"/></svg>
