<?xml version="1.0"?>
<svg xmlns="http://www.w3.org/2000/svg" id="Layer_1" data-name="Layer 1" viewBox="0 0 512 512" width="512" height="512"><title>Car Service </title><path d="M170,264.275c.055-.1.106-.2.154-.3,4.706-9.889,15.07-26.5,31.614-26.618l147.051-1.084H349a22.9,22.9,0,0,1,11,2.763c-8.554-12.609-16.734-18.155-26.39-18.155h-.186l-147.051,1.084c-16.544.122-26.908,16.729-31.614,26.618-.048.1-.1.2-.153.3L129.394,294.34l24.027-.177Z" style="fill:#d4e1f4"/><path d="M127.38,405.727a9.778,9.778,0,0,1-2.811-6.82,5.631,5.631,0,0,0-.047-.7l-9.13-70.326c.034-11.545,6.047-19.576,13.349-22.764l-8.494.063h-.039a5.329,5.329,0,0,1-.878-.081c-9.682.647-19.287,9.348-19.33,23.485l9.13,68.091a5.271,5.271,0,0,1,.047.676,9.433,9.433,0,0,0,9.384,9.317h.07l9.743-.072A9.568,9.568,0,0,1,127.38,405.727Z" style="fill:#d4e1f4"/><path d="M140.687,372.894h.163a21.862,21.862,0,1,0-.163,0Zm-.055-29.563h.058a7.783,7.783,0,0,1,7.78,7.724h0a7.781,7.781,0,1,1-7.838-7.724Z" style="fill:#0635c9"/><path d="M372.165,371.188h.163a21.782,21.782,0,0,0-.156-43.563h-.165a21.782,21.782,0,0,0,.158,43.563Zm-5.54-27.243a7.732,7.732,0,0,1,5.485-2.32h.059a7.781,7.781,0,0,1,7.779,7.724h0a7.781,7.781,0,1,1-13.323-5.405Z" style="fill:#0635c9"/><path d="M214.8,390.092h.052l83.729-.617a7,7,0,0,0-.051-14h-.053l-83.728.617a7,7,0,0,0,.051,14Z" style="fill:#0635c9"/><path d="M460.015,190.266l-200-140a7,7,0,0,0-8.03,0l-200,140A7,7,0,0,0,49,196V456a7,7,0,0,0,7,7H456a7,7,0,0,0,7-7V196A7,7,0,0,0,460.015,190.266ZM449,449H63V199.645l193-135.1,193,135.1Z" style="fill:#1ae5be"/><path d="M292.243,302.443h.053a7,7,0,0,0,6.948-7.052,22.566,22.566,0,0,1,45.13-.332,7,7,0,0,0,7,6.948h.053a7,7,0,0,0,6.948-7.051,36.608,36.608,0,0,0-36.562-36.3h-.273A36.566,36.566,0,0,0,285.244,295.5,7,7,0,0,0,292.243,302.443Z" style="fill:#1ae5be"/><path d="M218.568,330.986h-.052a7,7,0,0,0-6.949,7.052l.1,13.621a7,7,0,0,0,7,6.948h.053a7,7,0,0,0,6.948-7.051l-.1-13.621A7,7,0,0,0,218.568,330.986Z" style="fill:#1ae5be"/><path d="M193.34,331.172h-.053a7,7,0,0,0-6.948,7.052l.1,13.621a7,7,0,0,0,7,6.948h.053a7,7,0,0,0,6.948-7.051l-.1-13.621A7,7,0,0,0,193.34,331.172Z" style="fill:#1ae5be"/><path d="M319.431,330.243a7,7,0,0,0-6.949,7.051l.1,13.622a7,7,0,0,0,7,6.948h.053a7,7,0,0,0,6.948-7.052l-.1-13.621A7.015,7.015,0,0,0,319.431,330.243Z" style="fill:#1ae5be"/><path d="M243.744,330.8a7,7,0,0,0-6.948,7.052l.1,13.621a7,7,0,0,0,7,6.948h.052a7,7,0,0,0,6.948-7.051l-.1-13.621A7,7,0,0,0,243.744,330.8Z" style="fill:#1ae5be"/><path d="M269.124,358.235h.052a7,7,0,0,0,6.949-7.051l-.1-13.621a7,7,0,0,0-7-6.948h-.051a7,7,0,0,0-6.95,7.051l.1,13.621A7,7,0,0,0,269.124,358.235Z" style="fill:#1ae5be"/><path d="M294.255,330.429H294.2a7,7,0,0,0-6.948,7.051l.1,13.622a7,7,0,0,0,7,6.948h.052A7,7,0,0,0,301.354,351l-.1-13.621A7,7,0,0,0,294.255,330.429Z" style="fill:#1ae5be"/><path d="M86,300.376h.061l13.222-.114c-.441.468-.875.948-1.3,1.447a37.1,37.1,0,0,0-8.48,24.174,6.964,6.964,0,0,0,.062.878l8.806,65.683a21.284,21.284,0,0,0,16.3,20.015l.145,19.62a14.131,14.131,0,0,0,14.128,14.027h.107l21.652-.159a14.149,14.149,0,0,0,14.028-14.235l-.14-18.978,184.572-1.36.14,18.979a14.131,14.131,0,0,0,14.127,14.025h.108l21.652-.159a14.135,14.135,0,0,0,14.028-14.235l-.146-19.714a21.278,21.278,0,0,0,15.636-20.136l8.2-65.791a7.031,7.031,0,0,0,.054-.917,36.6,36.6,0,0,0-9.042-24.044c-.431-.486-.874-.952-1.326-1.407l13.451-.1a7,7,0,0,0,6.935-7.389,54.84,54.84,0,0,0-2.73-13.266c-3.328-9.744-13.47-16.006-25.884-16.006H404.1c-6.689.05-18.4.1-24.6.118L368.315,241.07c-8.4-14.808-20.656-31.777-41.065-31.777h-.271l-141.972,1.047c-16.713.123-31.393,11.646-41.353,32.456l-11.342,20.452c-6.223.033-18.116.1-24.854.148-12.537.093-22.71,6.525-25.918,16.389a54.882,54.882,0,0,0-2.534,13.3A7,7,0,0,0,86,300.376Zm64.606,131.571-21.652.159h0a.146.146,0,0,1-.131-.129L128.682,413l21.915-.162.14,18.977A.133.133,0,0,1,150.606,431.947Zm234.488-1.728-21.654.159h0a.146.146,0,0,1-.13-.129l-.14-18.978,21.915-.162.14,18.979A.148.148,0,0,1,385.094,430.219Zm19.112-155.008h.156c6.142,0,11.331,2.673,12.649,6.531.255.747.478,1.483.674,2.194l-25.6.2-4.877-8.834C393.03,275.276,399.737,275.244,404.206,275.211ZM156,249.4c.071-.127.138-.255.2-.387,4.362-9.167,13.918-24.562,28.91-24.672l141.972-1.047h.163c10.432,0,19.083,7.4,28.855,24.615l22.566,40.876-245.513,1.809Zm234.317,53.3c.038,0,.076.006.115.006.062,0,.123,0,.185,0a16.875,16.875,0,0,1,12.83,5.96,22.867,22.867,0,0,1,5.517,14.434l-8.194,65.716a6.86,6.86,0,0,0-.054.917,7.3,7.3,0,0,1-7.209,7.315l-273.825,2.018a7.3,7.3,0,0,1-7.315-7.207,6.993,6.993,0,0,0-.062-.879l-8.8-65.612a23.373,23.373,0,0,1,5.2-14.654,16.5,16.5,0,0,1,11.535-6.1,6.99,6.99,0,0,0,.974.071h.052ZM94.854,284.115c1.272-3.909,6.5-6.672,12.708-6.718,4.445-.032,11.137-.072,16.96-.105l-4.876,8.793-25.43.22C94.4,285.6,94.611,284.86,94.854,284.115Z" style="fill:#0635c9"/></svg>
