<?xml version="1.0"?>
<svg xmlns="http://www.w3.org/2000/svg" id="Layer_1" data-name="Layer 1" viewBox="0 0 512 512" width="512" height="512"><title>Car trunk</title><path d="M23,228.806v19.01H40.328a6.96,6.96,0,0,1,3.436.905l184.315-.512v64.018h10V228.209Z" style="fill:#d4e1f4"/><path d="M347.418,312.227h1.116c.115-.628.246-1.251.386-1.87Q348.145,311.27,347.418,312.227Z" style="fill:#d4e1f4"/><path d="M462.957,242.035l-65.122-14.044a7.027,7.027,0,0,1-1.587-.221l-144.169.4v19.972l134.169-.372a7.027,7.027,0,0,0,1.587.221l65.122,14.044A33.178,33.178,0,0,1,479,294.293v17.934h10V274.293A33.178,33.178,0,0,0,462.957,242.035Z" style="fill:#d4e1f4"/><path d="M277.731,237.816a7,7,0,0,0,0,14h24.714a7,7,0,0,0,0-14Z" style="fill:#0635c9"/><path d="M486.046,238.237,463.878,181.37l13.262-9.725a7,7,0,1,0-8.28-11.29l-70.405,51.63c-10.379-9.512-39.82-34.411-80.536-51.436a230.563,230.563,0,0,0-30.15-10.276,194.715,194.715,0,0,0-41.115-6.316,6.646,6.646,0,0,0-2.613-.1c-1.668-.047-3.334-.085-4.992-.085H93.4a27.023,27.023,0,0,0-17.571,6.5l-57.4,49.2A26.972,26.972,0,0,0,9,219.972v44.261a62.191,62.191,0,0,0,25.7,50.261l.1.068a48.441,48.441,0,0,0,28.5,8.991H77.2v-14H63.3A34.532,34.532,0,0,1,42.97,303.2l-.124-.089A48.118,48.118,0,0,1,23,264.233v-2.417H40.328a7,7,0,1,0,0-14H23v-19.01l215.079-.6v84.018H146.92v14H359.853v-14H252.079V228.17l144.169-.4a7.027,7.027,0,0,0,1.587.221l65.122,14.044A33.178,33.178,0,0,1,489,274.293v37.934H431.6v14h60.089A11.326,11.326,0,0,0,503,314.914V274.293A47.178,47.178,0,0,0,486.046,238.237ZM127.394,214.516,24.083,214.8a12.964,12.964,0,0,1,3.457-4.7l57.4-49.2a13,13,0,0,1,8.46-3.13h34Zm110.685-.307-96.685.268v-56.7h96.685Zm14-.039V158.314a183.17,183.17,0,0,1,32.128,5.5,216.612,216.612,0,0,1,28.311,9.653c29.288,12.247,52.769,29.131,66.549,40.352Zm213.829,14.18-51.073-11.015,37.357-27.4,15.1,38.741C466.834,228.567,466.375,228.45,465.908,228.35Z" style="fill:#0635c9"/><path d="M472,285.824a7,7,0,0,0,7-7C479,259.789,464.131,247,442,247a7,7,0,0,0-7,7v12.8a19.041,19.041,0,0,0,19.02,19.02ZM449,266.8v-5.148c5.444,1.04,11.966,3.669,14.7,10.168H454.02A5.026,5.026,0,0,1,449,266.8Z" style="fill:#0635c9"/><path d="M394.75,273.726a47,47,0,1,0,47,47A47.052,47.052,0,0,0,394.75,273.726Zm0,80a33,33,0,1,1,33-33A33.037,33.037,0,0,1,394.75,353.726Z" style="fill:#1ae5be"/><path d="M159.2,321.227a47,47,0,1,0-47,47A47.053,47.053,0,0,0,159.2,321.227Zm-80,0a33,33,0,1,1,33,33A33.038,33.038,0,0,1,79.2,321.227Z" style="fill:#1ae5be"/></svg>
