<?xml version="1.0"?>
<svg xmlns="http://www.w3.org/2000/svg" id="Layer_1" data-name="Layer 1" viewBox="0 0 512 512" width="512" height="512"><title>Check list</title><path d="M118.442,109.57q.089-.157.165-.321c5.068-10.65,16.23-28.534,34.046-28.665l158.363-1.167h.2a24.652,24.652,0,0,1,11.843,2.976c-9.211-13.58-18.021-19.552-28.419-19.552h-.2L136.077,64.008c-17.816.131-28.978,18.016-34.046,28.665-.051.109-.106.216-.165.322L74.715,141.948l25.875-.191Z" style="fill:#d4e1f4"/><path d="M72.546,261.9a10.529,10.529,0,0,1-3.027-7.344,6.118,6.118,0,0,0-.051-.753l-9.832-75.735c.037-12.434,6.513-21.082,14.376-24.515l-9.147.068h-.043a5.826,5.826,0,0,1-.945-.087c-10.427.7-20.77,10.067-20.817,25.291l9.832,73.329a5.543,5.543,0,0,1,.051.728,10.156,10.156,0,0,0,10.106,10.033h.075l10.492-.077A10.461,10.461,0,0,1,72.546,261.9Z" style="fill:#d4e1f4"/><path d="M291.866,215.631a7,7,0,0,0,.936-6.33l-5.15-15.145c-3.715-10.923-15.662-19.478-27.2-19.478H162.109c-11.573,0-23.452,8.617-27.046,19.619l-4.925,15.085a7,7,0,0,0,6.654,9.173H286.175A7,7,0,0,0,291.866,215.631ZM146.442,204.555l1.93-5.912c1.7-5.215,8.251-9.965,13.737-9.965h98.344c5.52,0,12.167,4.76,13.944,9.986l2,5.891Z" style="fill:#0635c9"/><path d="M153.015,230.745a7,7,0,0,0,0,14H269.153a7,7,0,0,0,0-14Z" style="fill:#0635c9"/><path d="M365.436,248.555H332.048a7,7,0,0,0-7,7v33.386a7,7,0,0,0,7,7h7.42a7,7,0,0,0,0-14h-.42V262.555H358.8a7,7,0,0,0,13.637-2.232v-4.768A7,7,0,0,0,365.436,248.555Z" style="fill:#0635c9"/><path d="M325.048,353.861a7,7,0,0,0,7,7h33.388a7,7,0,0,0,7-7V320.474a7,7,0,0,0-7-7H332.048a7,7,0,0,0-7,7Zm14-26.387h19.388v19.387H339.048Z" style="fill:#0635c9"/><path d="M325.048,418.78a7,7,0,0,0,7,7h7.421a7,7,0,1,0,0-14h-.421V392.394h19.39a7,7,0,0,0,14-.171v-6.829a7,7,0,0,0-7-7H332.048a7,7,0,0,0-7,7Z" style="fill:#0635c9"/><path d="M391.716,257.194a7,7,0,0,0-9.9,0L361,278.017l-6.377-6.377a7,7,0,0,0-9.9,9.9l11.326,11.326a7,7,0,0,0,9.9,0l25.77-25.771A7,7,0,0,0,391.716,257.194Z" style="fill:#0635c9"/><path d="M381.816,388.06,361,408.881l-6.377-6.377a7,7,0,0,0-9.9,9.9l11.326,11.326a7,7,0,0,0,9.9,0l25.771-25.77a7,7,0,0,0-9.9-9.9Z" style="fill:#0635c9"/><path d="M308.516,145.756a7,7,0,1,0,14,0,39.258,39.258,0,0,0-78.516,0,7,7,0,0,0,14,0,25.258,25.258,0,0,1,50.516,0Z" style="fill:#1ae5be"/><path d="M85.2,182.146a23.128,23.128,0,1,0,23.128,23.128A23.153,23.153,0,0,0,85.2,182.146Zm0,32.255a9.128,9.128,0,1,1,9.128-9.127A9.137,9.137,0,0,1,85.2,214.4Z" style="fill:#1ae5be"/><path d="M402.952,272.248a7,7,0,0,0,7,7h44.516a7,7,0,0,0,0-14H409.952A7,7,0,0,0,402.952,272.248Z" style="fill:#1ae5be"/><path d="M454.468,330.167H409.952a7,7,0,0,0,0,14h44.516a7,7,0,0,0,0-14Z" style="fill:#1ae5be"/><path d="M454.468,395.087H409.952a7,7,0,0,0,0,14h44.516a7,7,0,1,0,0-14Z" style="fill:#1ae5be"/><path d="M373.315,109.946c-7.435,0-20.557-.046-27.222-.071l-12.217-22.52c-9-16.142-22.174-34.672-44.287-34.672h-154.9c-17.984,0-33.892,12.333-44.814,34.737L77.139,109.984c-6.674-.013-20-.038-27.486-.038-13.4,0-24.314,6.765-27.8,17.235a59.044,59.044,0,0,0-2.841,14.326A7,7,0,0,0,26,148.844h.009l15.887-.021c-7.2,6.851-11.693,17-11.693,28.514a6.973,6.973,0,0,0,.055.879l9.085,71.764a22.6,22.6,0,0,0,17.625,21.53V293.4a14.8,14.8,0,0,0,14.78,14.781H95.374a14.8,14.8,0,0,0,14.78-14.781V272.06H300.516a7,7,0,0,0,0-14H61.9a8.57,8.57,0,0,1-8.56-8.561,6.974,6.974,0,0,0-.056-.879l-9.076-71.7c.185-13.981,9.636-22.533,19.148-23.177a6.967,6.967,0,0,0,1.034.083H357.969c.052,0,.1.008.155.008,12.586,0,20.438,11.893,20.635,23.074l-.607,4.6a7,7,0,0,0,6.022,7.856,7.083,7.083,0,0,0,.926.062,7,7,0,0,0,6.931-6.084l.672-5.083a7.026,7.026,0,0,0,.06-.917,38.765,38.765,0,0,0-12.146-28.488l16.353,0a7,7,0,0,0,6.99-7.338,59.162,59.162,0,0,0-2.841-14.325C397.629,116.711,386.716,109.946,373.315,109.946ZM70.968,272.06H96.154V293.4a.781.781,0,0,1-.78.781H71.748a.781.781,0,0,1-.78-.781ZM63.138,134.8l-28.94.037c.255-1.028.562-2.115.932-3.225,1.528-4.583,7.364-7.662,14.523-7.662,5.13,0,13,.012,19.594.023Zm13.238,5.027L102.17,94.114c.072-.127.139-.256.2-.385,4.9-10.1,15.609-27.046,32.314-27.046h154.9c11.724,0,21.313,8.221,32.021,27.421l24.8,45.719Zm283.27-4.966L353.7,123.9c6.579.022,14.46.044,19.612.044,7.159,0,13,3.079,14.523,7.662.371,1.114.679,2.2.935,3.239Z" style="fill:#0635c9"/><path d="M349.135,193.945H323.889a30.407,30.407,0,0,0-30.373,30.373V428.944a30.407,30.407,0,0,0,30.373,30.373H462.627A30.407,30.407,0,0,0,493,428.944V224.318a30.407,30.407,0,0,0-30.373-30.373H437.381a24.2,24.2,0,0,0-23.47-18.436H372.605A24.2,24.2,0,0,0,349.135,193.945Zm87.981,14h25.511A16.392,16.392,0,0,1,479,224.318V428.944a16.391,16.391,0,0,1-16.373,16.373H323.889a16.391,16.391,0,0,1-16.373-16.373V224.318a16.392,16.392,0,0,1,16.373-16.373H349.4a24.2,24.2,0,0,0,23.205,17.447h41.306A24.2,24.2,0,0,0,437.116,207.945Zm-13.043-8.275v1.56a10.174,10.174,0,0,1-10.162,10.162H372.605a10.173,10.173,0,0,1-10.161-10.162v-1.56a10.172,10.172,0,0,1,10.161-10.161h41.306A10.173,10.173,0,0,1,424.073,199.67Z" style="fill:#1ae5be"/></svg>
