<?xml version="1.0"?>
<svg xmlns="http://www.w3.org/2000/svg" id="Layer_1" data-name="Layer 1" viewBox="0 0 512 512" width="512" height="512"><title>Cog wheel Wrench</title><path d="M461.279,263.721A37.656,37.656,0,0,1,429.8,246.784a7,7,0,0,0-5.838-3.138H267.68a7,7,0,0,0-6.558,4.55,63.514,63.514,0,0,1-82.2,37.007l-4.05,6.08a7,7,0,0,1-5.826,3.12H141.211A63.047,63.047,0,0,0,191.7,319.41a63.7,63.7,0,0,0,59.42-41.214,7,7,0,0,1,6.558-4.55H413.963a7,7,0,0,1,5.838,3.138A37.707,37.707,0,0,0,488.76,251.8,37.613,37.613,0,0,1,461.279,263.721Z" style="fill:#d4e1f4"/><path d="M319.34,332.106a148,148,0,0,0,18.1-45.061,7.014,7.014,0,0,0,.158-1.48v-4.921a7,7,0,0,0-14,0v4.163a135.7,135.7,0,0,1-18.746,44.084,7,7,0,0,0,.49,8.259l20.42,24.658L298.277,389.29,273.62,368.87a7,7,0,0,0-8.348-.432,131.459,131.459,0,0,1-44.716,18.847,7,7,0,0,0-5.489,6.17l-3.086,32.015H172.957l-3.085-32.015a7,7,0,0,0-5.488-6.17,135.486,135.486,0,0,1-44.8-18.905,7,7,0,0,0-8.26.49L86.661,389.29,59.18,361.808,79.6,337.15a7,7,0,0,0,.432-8.347,131.425,131.425,0,0,1-18.846-44.717,7,7,0,0,0-6.17-5.488L23,275.513V236.487L55.015,233.4a7,7,0,0,0,6.17-5.488,135.421,135.421,0,0,1,18.9-44.8,7,7,0,0,0-.49-8.259L59.18,150.192,86.661,122.71l24.658,20.419a7,7,0,0,0,8.348.433,131.447,131.447,0,0,1,44.717-18.847,7,7,0,0,0,5.488-6.17l3.085-32.015h39.024l3.086,32.015a7,7,0,0,0,5.489,6.17,135.514,135.514,0,0,1,44.8,18.9,7,7,0,0,0,8.26-.49l24.626-20.393,27.078,27.425L304.878,174.85a7,7,0,0,0-.433,8.347,131.406,131.406,0,0,1,18.689,44v4.164a7,7,0,0,0,14,0v-4.921a7.014,7.014,0,0,0-.158-1.48,146.063,146.063,0,0,0-18.059-45.107l21.229-25.634a7,7,0,0,0-.411-9.383L303.7,108.336a7,7,0,0,0-9.446-.474l-25.681,21.267a149.293,149.293,0,0,0-40.054-16.917l-3.214-33.354a7,7,0,0,0-6.968-6.328H166.6a7,7,0,0,0-6.968,6.328l-3.214,33.351a146.1,146.1,0,0,0-40.1,16.881L90.683,107.862a7,7,0,0,0-9.415.443L44.773,144.8a7,7,0,0,0-.441,9.415L65.6,179.894a149.251,149.251,0,0,0-16.918,40.054l-33.353,3.214A7,7,0,0,0,9,230.13v51.74a7,7,0,0,0,6.328,6.968l33.351,3.214a146.021,146.021,0,0,0,16.881,40.1L44.332,357.786a7,7,0,0,0,.441,9.415L81.268,403.7a7,7,0,0,0,9.415.443l25.68-21.268a149.244,149.244,0,0,0,40.055,16.918l3.214,33.354a7,7,0,0,0,6.968,6.328h51.739a7,7,0,0,0,6.968-6.328l3.214-33.351a146.073,146.073,0,0,0,40.1-16.882l25.634,21.229a7,7,0,0,0,9.415-.442l36.5-36.5a7,7,0,0,0,.441-9.415Z" style="fill:#0635c9"/><path d="M192.47,162.265a93.584,93.584,0,0,1,90.909,70.8,7,7,0,1,0,13.578-3.415,107.735,107.735,0,1,0,0,52.706,7,7,0,1,0-13.578-3.415A93.746,93.746,0,1,1,192.47,162.265Z" style="fill:#0635c9"/><path d="M451.279,204.279a51.6,51.6,0,0,0-40.908,20.075h-148A77.81,77.81,0,0,0,191.7,178.59a77.026,77.026,0,0,0-69.353,42.988,7.012,7.012,0,0,0,6.277,10.128h.025l35.424-.127,17.283,24.706L165.3,280.4h-36.63A7,7,0,0,0,122.4,290.53a77.439,77.439,0,0,0,139.965-2.884h148a51.72,51.72,0,1,0,40.908-83.367Zm0,89.442A37.656,37.656,0,0,1,419.8,276.784a7,7,0,0,0-5.838-3.138H257.68a7,7,0,0,0-6.558,4.55A63.7,63.7,0,0,1,191.7,319.41,63.047,63.047,0,0,1,141.211,294.4h27.833a7,7,0,0,0,5.826-3.12l20.789-31.215a7,7,0,0,0-.091-7.892l-22.12-31.622a7,7,0,0,0-5.736-2.988h-.025l-26.527.095A63.034,63.034,0,0,1,191.7,192.59a63.7,63.7,0,0,1,59.42,41.214,7,7,0,0,0,6.558,4.55H413.963a7,7,0,0,0,5.838-3.138,37.721,37.721,0,1,1,31.478,58.505Z" style="fill:#1ae5be"/><path d="M451.279,234.093A21.907,21.907,0,1,0,473.187,256,21.86,21.86,0,0,0,451.279,234.093Zm0,29.814A7.907,7.907,0,1,1,459.187,256,7.9,7.9,0,0,1,451.279,263.907Z" style="fill:#1ae5be"/></svg>
