<?xml version="1.0"?>
<svg xmlns="http://www.w3.org/2000/svg" id="Layer_1" data-name="Layer 1" viewBox="0 0 512 512" width="512" height="512"><title>Customer service</title><path d="M109.488,229.327v-.141a7,7,0,0,0-5.792-6.9A16.7,16.7,0,0,1,89.86,205.8a16.9,16.9,0,0,1,.271-3.019L80.419,197.8a14.63,14.63,0,0,1-4.185-3.238A10.493,10.493,0,0,0,70.34,201.8,16.767,16.767,0,0,0,83.7,222.29a7,7,0,0,1,5.792,6.9v.141a86.136,86.136,0,0,0,96.277,85.678A86.388,86.388,0,0,1,109.488,229.327Z" style="fill:#d4e1f4"/><path d="M111.591,203.53a8.912,8.912,0,0,0,12.959-7.217l2-28.068h-20l-2,28.068a8.937,8.937,0,0,1-.855,3.164Z" style="fill:#d4e1f4"/><path d="M161.021,352.406V328.5a99.59,99.59,0,0,1-20-5.109v29.016A88.4,88.4,0,0,0,186,359.027,87.847,87.847,0,0,1,161.021,352.406Z" style="fill:#d4e1f4"/><path d="M144.125,365.531c-3.543-1.161-7.034.483-10.453-1.075l-11.2,1.781v49.179h20V366.237Z" style="fill:#d4e1f4"/><path d="M87.23,393.544V381.277l-8.386,3.579a43.007,43.007,0,0,0-23.278,34.315v51.7h20v-51.7A42.953,42.953,0,0,1,87.23,393.544Z" style="fill:#d4e1f4"/><path d="M98.077,438.007v6.472a7,7,0,1,0,14,0v-6.472a7,7,0,0,0-14,0Z" style="fill:#0635c9"/><path d="M165.883,76.634H191.31a7,7,0,0,0,0-14H165.883a7,7,0,0,0,0,14Z" style="fill:#0635c9"/><path d="M165.883,53.193H191.31a7,7,0,0,0,0-14H165.883a7,7,0,0,0,0,14Z" style="fill:#0635c9"/><path d="M47.906,479.865H243.319v-14H90.5V427.748H231.2v-14H122.864V367.673l11.49-4.9a103.979,103.979,0,0,0,85.992,0l11.489,4.9V403.9h14v-30.25l15.144,6.463,5.5-12.876-39.483-16.851V318.313h5.593A18.323,18.323,0,0,0,250.3,304.531h10.774a29.324,29.324,0,0,0,29.291-29.291v-5.863h2.242A25.514,25.514,0,0,0,318.1,243.892v-5.7h5.526a7,7,0,0,0,0-14H318.1v-4.942a25.527,25.527,0,0,0-20.385-24.971V169.35a7,7,0,0,0,5.3-6.783V135.146a7,7,0,0,0-7-7h-7.444a123,123,0,0,0-23.653-67.019,111.9,111.9,0,0,0-54.46-39.872l.782-7.532A7,7,0,0,0,204.269,6H150.431a7,7,0,0,0-6.962,7.723l.781,7.533a111.839,111.839,0,0,0-54.464,39.97,123.362,123.362,0,0,0-23.638,66.92H58.693a7,7,0,0,0-7,7v27.421a7,7,0,0,0,7,7H71.27l.7,10.193a24.9,24.9,0,0,0-15.656,17.6A31.162,31.162,0,0,0,75.5,233.88,101.878,101.878,0,0,0,127.708,317.6v32.781L72.917,373.769c-.129.055-.257.114-.382.176a57.873,57.873,0,0,0-31.6,46.681c-.016.193-.024.388-.024.582v51.657A7,7,0,0,0,47.906,479.865ZM212.991,350.721a90.011,90.011,0,0,1-71.283,0V324.065a101.822,101.822,0,0,0,71.283-.164Zm23.9-50.715a4.313,4.313,0,0,1-4.308,4.307H200.509a4.312,4.312,0,0,1-4.307-4.307v-4.951a4.312,4.312,0,0,1,4.307-4.307h32.075a4.313,4.313,0,0,1,4.308,4.307Zm39.476-24.766a15.309,15.309,0,0,1-15.291,15.291h-3.213a102.506,102.506,0,0,0,12.49-21.189c.227.022.457.035.69.035h5.324Zm-12.16-85.007-1.113-.051a64.722,64.722,0,0,1-14.749-20.615h15.862ZM304.1,219.246v24.646a11.5,11.5,0,0,1-11.485,11.485H278.044V241.486c.007-.053.017-.1.023-.157l-.023,0V207.761H292.61A11.5,11.5,0,0,1,304.1,219.246Zm-25.887-25.485V169.567h5.5v24.194ZM139.625,38.084a90.033,90.033,0,0,1,13.985-5.013,7,7,0,0,0,5.164-7.488L158.2,20H196.5l-.579,5.583a7,7,0,0,0,5.164,7.488,90.451,90.451,0,0,1,13.985,5.007v9.735a57.459,57.459,0,0,1-36.6,53.527,57.3,57.3,0,0,1-38.848-54.348Zm-38.58,31.462a100.858,100.858,0,0,1,24.58-23.626v1.072a71.267,71.267,0,0,0,49.338,67.935l1.468.478a7,7,0,0,0,4.442-.038,71.456,71.456,0,0,0,48.2-67.554V45.9A100.663,100.663,0,0,1,253.659,69.46a108.864,108.864,0,0,1,20.881,58.686H80.17A109.226,109.226,0,0,1,101.045,69.546ZM65.693,155.567V142.146H289.006v13.421H100.1a.176.176,0,0,1-.023,0Zm26.969,14-1.35,16.891-4.6-2.363a.835.835,0,0,1-.45-.682L85.3,169.567Zm-3.3,59.109v-.143a7,7,0,0,0-5.792-6.895,17.141,17.141,0,0,1-13.655-20.951,10.772,10.772,0,0,1,6.121-7.464,14.749,14.749,0,0,0,4.275,3.325l11.351,5.828a8.943,8.943,0,0,0,13-7.243l2.045-25.566H233.29a78.239,78.239,0,0,0,21.25,31.772l.987.9a7,7,0,0,0,4.389,1.814l4.128.189v36.253a87.936,87.936,0,0,1-17.891,42.315,18.247,18.247,0,0,0-13.569-6.06H200.509A18.328,18.328,0,0,0,182.2,295.055v4.951a18.292,18.292,0,0,0,8.4,15.369,87.7,87.7,0,0,1-101.235-86.7Zm11.927,148.2,7.574-3.233v40.1H101.29ZM54.906,421.51a43.793,43.793,0,0,1,23.708-34.951l8.676-3.7v30.892H83.5a7,7,0,0,0-7,7v45.117h-21.6Z" style="fill:#0635c9"/><path d="M263.581,460.014h.138a18.3,18.3,0,0,0-.13-36.607h-.139a18.3,18.3,0,0,0,.131,36.607Zm-3.061-21.325a4.276,4.276,0,0,1,3.033-1.282h.033a4.3,4.3,0,0,1,.03,8.607h-.033a4.3,4.3,0,0,1-3.063-7.325Z" style="fill:#0635c9"/><path d="M430.592,458.709h.14A18.3,18.3,0,0,0,430.6,422.1h-.137a18.3,18.3,0,0,0,.13,36.606Zm-.027-22.606h.033a4.308,4.308,0,0,1,4.3,4.272h0a4.3,4.3,0,0,1-4.272,4.334H430.6a4.3,4.3,0,0,1-.031-8.606Z" style="fill:#0635c9"/><path d="M313.922,449.231h.053a7,7,0,0,0,6.948-7.052l-.077-10.416a7,7,0,0,0-7-6.948h-.053a7,7,0,0,0-6.948,7.052l.077,10.416A7,7,0,0,0,313.922,449.231Z" style="fill:#0635c9"/><path d="M380.385,448.52h.053a7,7,0,0,0,6.948-7.052l-.077-10.416a7,7,0,0,0-7-6.948h-.053a7,7,0,0,0-6.948,7.052l.077,10.416A7,7,0,0,0,380.385,448.52Z" style="fill:#0635c9"/><path d="M336.076,448.947h.053a7,7,0,0,0,6.948-7.052L343,431.479a7,7,0,0,0-7-6.948h-.052A7,7,0,0,0,329,431.583L329.077,442A7,7,0,0,0,336.076,448.947Z" style="fill:#0635c9"/><path d="M358.23,448.662h.053a7,7,0,0,0,6.948-7.052l-.076-10.416a7,7,0,0,0-7-6.948H358.1a7,7,0,0,0-6.948,7.052l.076,10.416A7,7,0,0,0,358.23,448.662Z" style="fill:#0635c9"/><path d="M448.931,392.7l-19.847-35.947c-6.646-11.714-16.377-25.134-32.835-25.134h-.225l-98.561.8c-13.433.1-25.172,9.227-33.076,25.711l-20,36.056c-11.77,2.175-20.73,12.714-21.535,26.152-.042.7-.061,1.408-.055,2.1a6.967,6.967,0,0,0,.1,1.1l6.694,40.049a17.9,17.9,0,0,0,11.039,15.784c.473.2.954.363,1.437.518l.092,13.756A12.468,12.468,0,0,0,254.609,506h.093l16.559-.122a12.466,12.466,0,0,0,12.36-12.54l-.086-12.884,127.85-.989.085,12.853a12.468,12.468,0,0,0,12.452,12.361h.093l16.559-.122a12.468,12.468,0,0,0,12.361-12.54l-.093-13.868a17.912,17.912,0,0,0,11.933-16.363l6.236-40.134a6.954,6.954,0,0,0,.083-1.126,29.628,29.628,0,0,0-7.328-19.466A25.367,25.367,0,0,0,448.931,392.7Zm-172.2-27.966c.071-.127.137-.256.2-.387,3.17-6.662,10.066-17.85,20.638-17.928l98.562-.8h.11c7.306,0,13.494,5.405,20.625,17.971l15.922,28.84-11.8.092a29.61,29.61,0,0,0-57.891.448l-102.464.793Zm129.614,27.9-28.609.222a15.625,15.625,0,0,1,14.235-9.488,15.327,15.327,0,0,1,11.071,4.49A15.6,15.6,0,0,1,406.347,392.63ZM269.611,491.89l-13.465.1-.075-11.322,13.464-.1Zm155.849-1.223-.075-11.31,13.464-.1.075,11.315Zm25.4-30.539a7.09,7.09,0,0,0-.083,1.127,3.937,3.937,0,0,1-3.88,3.934l-199.393,1.543a3.522,3.522,0,0,1-1.5-.292,3.919,3.919,0,0,1-2.434-3.585,7.04,7.04,0,0,0-.1-1.1L236.8,421.816q.007-.324.027-.647c.373-6.234,4.435-12.853,11.256-13.358.2.018.4.04.609.04h.055l195.726-1.516c.03,0,.059,0,.089,0h.142a11.3,11.3,0,0,1,8.578,4,15.805,15.805,0,0,1,3.8,9.772Z" style="fill:#1ae5be"/></svg>
