<?xml version="1.0"?>
<svg xmlns="http://www.w3.org/2000/svg" id="Layer_1" data-name="Layer 1" viewBox="0 0 512 512" width="512" height="512"><title>Disc Brake</title><path d="M431.437,381.344a191.735,191.735,0,0,1-136.455,56.569h-.06A193.059,193.059,0,0,1,104.8,278.239l-22.834.007A192.981,192.981,0,0,0,274.922,467.913h.06a191.735,191.735,0,0,0,136.455-56.569A193.693,193.693,0,0,0,445.068,366.2,196.372,196.372,0,0,1,431.437,381.344Z" style="fill:#d4e1f4"/><path d="M83.051,180.591a194.76,194.76,0,0,1,171.111-135.9c-4.939-.374-9.891-.584-14.843-.584A195.03,195.03,0,0,0,45.682,264.256l30-.009A196.853,196.853,0,0,1,83.051,180.591Z" style="fill:#d4e1f4"/><path d="M254.348,114.251c3.274.393,6.545.9,9.8,1.556v-2.346Q259.228,113.665,254.348,114.251Z" style="fill:#d4e1f4"/><path d="M274.925,67.913h-.062a7,7,0,0,0,0,14,.168.168,0,0,0,.06,0c106.394,0,192.968,86.542,193,192.942A193,193,0,0,1,274.982,467.913h-.06a193,193,0,0,1-193-192.942,7,7,0,0,0-7-7h0a7,7,0,0,0-7,7,207,207,0,0,0,207,206.938h.064A207,207,0,0,0,481.925,274.852C481.891,160.726,389.046,67.913,274.925,67.913Z" style="fill:#0635c9"/><path d="M275.064,167.913h0a7,7,0,0,1,7,7v45a7,7,0,0,1-7,7h0a7,7,0,0,1-7-7v-45A7,7,0,0,1,275.064,167.913Z" style="fill:#0635c9"/><path d="M275.11,322.913h0a7,7,0,0,1,7,7v45a7,7,0,0,1-7,7h0a7,7,0,0,1-7-7v-45A7,7,0,0,1,275.11,322.913Z" style="fill:#0635c9"/><path d="M382.087,274.881a7,7,0,0,0-7-7h0l-45,.014a7,7,0,0,0,0,14h0l45-.014A7,7,0,0,0,382.087,274.881Z" style="fill:#0635c9"/><path d="M175.087,281.943h0l45-.013a7,7,0,0,0,0-14h0l-45,.013a7,7,0,0,0,0,14Z" style="fill:#0635c9"/><path d="M309.038,308.844a7,7,0,0,0,0,9.9l31.829,31.81a7,7,0,1,0,9.9-9.9l-31.829-31.811A7,7,0,0,0,309.038,308.844Z" style="fill:#0635c9"/><path d="M199.4,199.275a7,7,0,0,0,0,9.9l31.829,31.81a7,7,0,0,0,9.9-9.9L209.3,199.272A7,7,0,0,0,199.4,199.275Z" style="fill:#0635c9"/><path d="M231.256,308.868,199.446,340.7a7,7,0,1,0,9.9,9.9l31.811-31.829a7,7,0,0,0-9.9-9.9Z" style="fill:#0635c9"/><path d="M340.825,199.233l-31.81,31.829a7,7,0,1,0,9.9,9.9l31.811-31.829a7,7,0,1,0-9.9-9.9Z" style="fill:#0635c9"/><path d="M274.924,301.913h.008a27,27,0,0,0-.008-54h-.007a27,27,0,0,0,.007,54Zm0-40h0a13,13,0,0,1,0,26h0a13,13,0,0,1,0-26Z" style="fill:#0635c9"/><path d="M130.417,143.646a6.982,6.982,0,0,0,5.058-2.16c1.925-2.012,3.92-4.007,5.928-5.933a7,7,0,1,0-9.686-10.107c-2.154,2.063-4.292,4.2-6.357,6.36a7,7,0,0,0,5.057,11.84Z" style="fill:#0635c9"/><path d="M194,98.967a6.981,6.981,0,0,0,2.831-.6c2.546-1.128,5.147-2.213,7.731-3.224A7,7,0,0,0,199.454,82.1c-2.773,1.086-5.563,2.25-8.3,3.46A7,7,0,0,0,194,98.967Z" style="fill:#0635c9"/><path d="M86.028,208.662a6.992,6.992,0,0,0,9.067-3.973c1.014-2.592,2.1-5.2,3.225-7.745a7,7,0,0,0-12.8-5.661c-1.208,2.733-2.372,5.529-3.459,8.311A7,7,0,0,0,86.028,208.662Z" style="fill:#0635c9"/><path d="M274.956,381.913a107,107,0,0,0-.032-214h-.031a107,107,0,0,0,.03,214ZM181.925,274.941A93.105,93.105,0,0,1,274.9,181.913h.027a93,93,0,0,1,.028,186h-.028a93,93,0,0,1-93-92.972Z" style="fill:#1ae5be"/><path d="M269.281,131.418a7,7,0,0,0,8.874-6.747l-.026-85.063a7,7,0,0,0-5.9-6.911A209.1,209.1,0,0,0,32.706,272.363a7,7,0,0,0,6.913,5.895h0l85.064-.025a7,7,0,0,0,6.741-8.878A111.95,111.95,0,0,1,269.281,131.418ZM115.812,264.235l-70.13.021A195.3,195.3,0,0,1,264.131,45.677l.021,70.13a125.939,125.939,0,0,0-148.34,148.428Z" style="fill:#1ae5be"/></svg>
