<?xml version="1.0"?>
<svg xmlns="http://www.w3.org/2000/svg" id="Layer_1" data-name="Layer 1" viewBox="0 0 512 512" width="512" height="512"><title>Document </title><path d="M190.252,435.688h-17v38.918a3,3,0,0,1-3,3H36.5v7a3,3,0,0,0,3,3H190.252a3,3,0,0,0,3-3V438.688A3,3,0,0,0,190.252,435.688Z" style="fill:#d4e1f4"/><path d="M196.37,341.364v22.51A24.8,24.8,0,0,1,171.6,388.641a7,7,0,0,0-7,7v16.047H62.708v10H172.6V405.641a7,7,0,0,1,7-7,24.8,24.8,0,0,0,24.767-24.767v-32.51Z" style="fill:#d4e1f4"/><path d="M179.5,231.688V38.606a14.228,14.228,0,0,1,14.212-14.212h-10A14.228,14.228,0,0,0,169.5,38.606V234.414l2.493-1.975A7,7,0,0,1,179.5,231.688Z" style="fill:#d4e1f4"/><path d="M179.5,313.151V299.592l17.405-17.4a30.861,30.861,0,0,0,0-43.595l-5.616-5.616a7,7,0,0,0-9.3-.538l-.693.55,5.6,5.6a30.861,30.861,0,0,1,0,43.6l-17.4,17.4v13.559a14.228,14.228,0,0,0,14.212,14.213h10A14.228,14.228,0,0,1,179.5,313.151Z" style="fill:#d4e1f4"/><path d="M276.607,159.165a7,7,0,1,0,14,0,8.548,8.548,0,0,1,17.1,0,7,7,0,0,0,14,0,22.548,22.548,0,0,0-45.1,0Z" style="fill:#1ae5be"/><path d="M62.708,275.679a24.622,24.622,0,0,1,6.822-17.07l97.335-77.65-8.73-10.944-97.687,77.93a7.336,7.336,0,0,0-.628.567,38.544,38.544,0,0,0-11.112,27.167V428.688h14Z" style="fill:#1ae5be"/><path d="M186.6,412.008a38.831,38.831,0,0,0,31.767-38.134V334.633h-14v39.241A24.8,24.8,0,0,1,179.6,398.641a7,7,0,0,0-7,7v23.047h14Z" style="fill:#1ae5be"/><path d="M207.252,484.606V438.688a17.019,17.019,0,0,0-17-17H39.5a17.019,17.019,0,0,0-17,17v45.918a17.019,17.019,0,0,0,17,17H190.252A17.019,17.019,0,0,0,207.252,484.606Zm-170.752,0V438.688a3,3,0,0,1,3-3H190.252a3,3,0,0,1,3,3v45.918a3,3,0,0,1-3,3H39.5A3,3,0,0,1,36.5,484.606Z" style="fill:#0635c9"/><path d="M64.048,443.131a19.314,19.314,0,1,0,18.912,19.31A19.136,19.136,0,0,0,64.048,443.131Zm0,24.62a5.326,5.326,0,1,1,4.912-5.31A5.129,5.129,0,0,1,64.048,467.751Z" style="fill:#0635c9"/><path d="M412.8,233.424a77.25,77.25,0,0,0-11.182.822v-132a7,7,0,0,0-2.05-4.95L314.723,12.444a7,7,0,0,0-4.951-2.05H183.712A28.244,28.244,0,0,0,155.5,38.606V249.8h14V38.606a14.228,14.228,0,0,1,14.212-14.212h119.06V81.03a28.245,28.245,0,0,0,28.212,28.212h56.637V237.67a76.622,76.622,0,0,0-49.536,89.694H183.712A14.228,14.228,0,0,1,169.5,313.151V294.83h-14v18.321a28.244,28.244,0,0,0,28.212,28.213H342.785A76.686,76.686,0,1,0,412.8,233.424ZM330.984,95.242A14.227,14.227,0,0,1,316.772,81.03V34.293l60.95,60.949ZM412.8,372.818a62.7,62.7,0,1,1,62.7-62.7A62.768,62.768,0,0,1,412.8,372.818Z" style="fill:#0635c9"/><path d="M320.523,241.079H331.91a10.762,10.762,0,0,0,10.75-10.75v-8.072a14.507,14.507,0,0,0,8.293-12.556l4.547-34.4a7.042,7.042,0,0,0,.061-.918c0-10.321-6.784-18.976-15.837-21.164l-13-23.971c-4.823-8.647-11.966-18.572-24.513-18.572h-66.66c-10.1,0-18.906,6.632-24.81,18.68L197.32,153.131c-9.118,2.116-15.759,10.688-15.759,21.255a7,7,0,0,0,.055.88l4.357,34.413a14.513,14.513,0,0,0,8.488,12.67v7.98a10.762,10.762,0,0,0,10.75,10.75H216.6a10.763,10.763,0,0,0,10.75-10.75v-6.662h82.425v6.662A10.763,10.763,0,0,0,320.523,241.079Zm8.137-14h-4.887v-3.412h4.887ZM223.032,136.057c.072-.127.139-.256.2-.387,1.991-4.1,6.237-10.991,12.312-10.991h66.66c4.159,0,7.833,3.407,12.246,11.32l9.05,16.68H213.651Zm-9.684,91.022h-4.887v-3.412h4.887Zm-12.885-17.412a.519.519,0,0,1-.5-.5,7,7,0,0,0-.056-.879l-4.34-34.28c.146-3.457,2.269-7.034,5.655-7.358.147.009.292.029.44.029h133.5c.026,0,.051,0,.077,0,3.767,0,6.15,3.722,6.313,7.311l-4.529,34.256a7.037,7.037,0,0,0-.06.917.527.527,0,0,1-.5.5Z" style="fill:#0635c9"/><path d="M291.081,188.115h-45.04a7,7,0,0,0,0,14h45.04a7,7,0,0,0,0-14Z" style="fill:#0635c9"/><path d="M214.9,174.243a16.834,16.834,0,1,0,16.834,16.834A16.853,16.853,0,0,0,214.9,174.243Zm0,19.668a2.834,2.834,0,1,1,2.834-2.834A2.838,2.838,0,0,1,214.9,193.911Z" style="fill:#0635c9"/><path d="M322.224,174.243a16.834,16.834,0,1,0,16.834,16.834A16.852,16.852,0,0,0,322.224,174.243Zm0,19.668a2.834,2.834,0,1,1,2.834-2.834A2.837,2.837,0,0,1,322.224,193.911Z" style="fill:#0635c9"/><path d="M339.5,259.606a7,7,0,0,0-7-7h-109a7,7,0,0,0,0,14h109A7,7,0,0,0,339.5,259.606Z" style="fill:#1ae5be"/><path d="M223.5,301.606h62a7,7,0,0,0,0-14h-62a7,7,0,0,0,0,14Z" style="fill:#1ae5be"/><path d="M435.8,281.841a7,7,0,0,0,0-14h-46a7,7,0,0,0,0,14h13.163a12.734,12.734,0,0,1,10.629,5.736H389.8a7,7,0,0,0,0,14H413.6a12.732,12.732,0,0,1-10.629,5.736H389.8A7,7,0,0,0,385,319.4l32.9,31.089a7,7,0,0,0,9.615-10.176L407.069,321a26.818,26.818,0,0,0,21.7-19.422H435.8a7,7,0,0,0,0-14h-7.036a26.592,26.592,0,0,0-2.3-5.736Z" style="fill:#1ae5be"/><path d="M186.905,282.188a30.861,30.861,0,0,0,0-43.595l-5.616-5.616a7,7,0,0,0-9.3-.538L95.7,292.851a7,7,0,1,0,8.692,10.975L175.8,247.285l1.208,1.208a16.823,16.823,0,0,1,0,23.8l-33.694,33.694a7,7,0,0,0-2.04,4.547l-.424,7.346q-.012.2-.012.4a38.577,38.577,0,0,0,3.809,16.491,36.145,36.145,0,0,1-2.633,35.22,7,7,0,0,0-1.176,3.883v15.883a7,7,0,0,0,14,0V375.9a50.238,50.238,0,0,0,2.479-47.086,24.783,24.783,0,0,1-2.478-10.35l.258-4.47Z" style="fill:#1ae5be"/></svg>
