<?xml version="1.0"?>
<svg xmlns="http://www.w3.org/2000/svg" id="Layer_1" data-name="Layer 1" viewBox="0 0 512 512" width="512" height="512"><title>Hand Gear</title><path d="M262.392,217.594A68.008,68.008,0,0,1,266,83.7a68.006,68.006,0,0,0-23.608,133.9,69.2,69.2,0,0,0,23.609.623C264.791,218.04,263.587,217.836,262.392,217.594Z" style="fill:#d4e1f4"/><path d="M338,150.954a82,82,0,1,0-104,78.994v90.006H208.727a25.211,25.211,0,0,0-25.182,25.183v35.454a7,7,0,0,0,14,0V345.137a11.2,11.2,0,0,1,11.182-11.183h94.546a11.2,11.2,0,0,1,11.182,11.183v35.454a7,7,0,0,0,14,0V345.137a25.211,25.211,0,0,0-25.182-25.183H278V229.948A82.25,82.25,0,0,0,338,150.954Zm-74,169H248V232.561c2.657.258,5.329.393,8,.393s5.343-.135,8-.393Zm5.61-102.36a69.119,69.119,0,0,1-27.218,0,68,68,0,1,1,27.218,0Z" style="fill:#0635c9"/><path d="M376.273,399.682v9.09a7,7,0,1,0,14,0v-9.09A25.211,25.211,0,0,0,365.091,374.5H146.909a25.211,25.211,0,0,0-25.182,25.182v9.09a7,7,0,0,0,14,0v-9.09A11.194,11.194,0,0,1,146.909,388.5H365.091A11.194,11.194,0,0,1,376.273,399.682Z" style="fill:#1ae5be"/><path d="M273,143.954H239a7,7,0,0,0,0,14h34a7,7,0,0,0,0-14Z" style="fill:#1ae5be"/><path d="M273,113.954H239a7,7,0,0,0,0,14h34a7,7,0,0,0,0-14Z" style="fill:#1ae5be"/><path d="M273,173.954H239a7,7,0,0,0,0,14h34a7,7,0,0,0,0-14Z" style="fill:#1ae5be"/><path d="M99,408.772v27.274a7,7,0,0,0,7,7H406a7,7,0,0,0,7-7V408.772a7,7,0,0,0-7-7H106A7,7,0,0,0,99,408.772Zm182.182,7H399v13.274H281.182Zm-36.364,0h22.364v13.274H244.818Zm-131.818,0H230.818v13.274H113Z" style="fill:#0635c9"/></svg>
