<?xml version="1.0"?>
<svg xmlns="http://www.w3.org/2000/svg" id="Layer_1" data-name="Layer 1" viewBox="0 0 512 512" width="512" height="512"><title>Horn</title><path d="M70.321,231.085a25.429,25.429,0,0,0-18.833,30.639,7,7,0,0,0,13.617-3.25A11.43,11.43,0,0,1,73.57,244.7a7,7,0,1,0-3.249-13.617Z" style="fill:#0635c9"/><path d="M79,206a50.005,50.005,0,1,0,50,50.005A50.061,50.061,0,0,0,79,206Zm0,86.01a36,36,0,1,1,36-36A36.045,36.045,0,0,1,79,292.005Z" style="fill:#0635c9"/><path d="M338.752,145.042a7,7,0,0,0-7,7V165.58c-50.761,54.25-193.559,55.176-195.012,55.179a7,7,0,0,0-5.268,11.6l1.753,2.013a30.377,30.377,0,0,1-1.423,41.278,7,7,0,0,0,5.212,11.943c1.342-.049,133.829-4.224,194.738,58.913v13.457a7,7,0,0,0,14,0V152.042A7,7,0,0,0,338.752,145.042Zm-7,182.284c-27.225-23.154-66.289-39.169-116.418-47.685a445.612,445.612,0,0,0-65.122-6.085,44.622,44.622,0,0,0-.24-39.129c35.325-1.44,131.652-9.1,181.78-49.8Z" style="fill:#0635c9"/><path d="M408.066,172.556a7,7,0,0,0-9.9,9.9,104,104,0,0,1,0,147.084,7,7,0,0,0,9.9,9.9,118,118,0,0,0,0-166.888Z" style="fill:#1ae5be"/><path d="M426.706,144.018a7,7,0,0,0,0,9.9,144.347,144.347,0,0,1,0,204.165,7,7,0,1,0,9.9,9.9,158.345,158.345,0,0,0,0-223.967A7,7,0,0,0,426.706,144.018Z" style="fill:#1ae5be"/><path d="M379.53,201.1a7,7,0,0,0-9.9,9.9,63.653,63.653,0,0,1,0,90.012,7,7,0,0,0,9.9,9.9,77.656,77.656,0,0,0,0-109.8Z" style="fill:#1ae5be"/><path d="M153.461,234.273q-1.83.087-3.489.154a43.883,43.883,0,0,1,2.041,4.793A44.455,44.455,0,0,0,153.461,234.273Z" style="fill:#d4e1f4"/><path d="M153.328,243.626a44.681,44.681,0,0,1-3.116,29.93,445.612,445.612,0,0,1,65.122,6.085c50.129,8.516,89.193,24.531,116.418,47.685v-30c-27.225-23.154-66.289-39.169-116.418-47.685A446.262,446.262,0,0,0,153.328,243.626Z" style="fill:#d4e1f4"/></svg>
