<?xml version="1.0"?>
<svg xmlns="http://www.w3.org/2000/svg" id="Layer_1" data-name="Layer 1" viewBox="0 0 512 512" width="512" height="512"><title>jumper cables</title><path d="M355.348,430.3l-99.416-99.416L241.79,345.027l99.416,99.416a27.579,27.579,0,0,0,44.764-8.4A27.631,27.631,0,0,1,355.348,430.3Z" style="fill:#d4e1f4"/><rect x="206.582" y="274.029" width="20" height="63.297" transform="translate(-152.711 242.678) rotate(-45)" style="fill:#d4e1f4"/><rect x="270.795" y="209.816" width="20" height="63.297" transform="translate(-88.499 269.276) rotate(-45)" style="fill:#d4e1f4"/><path d="M419.56,366.088l-99.415-99.416L306,280.815l99.415,99.415a27.58,27.58,0,0,0,44.765-8.4A27.635,27.635,0,0,1,419.56,366.088Z" style="fill:#d4e1f4"/><rect x="193.473" y="285.281" width="69.189" height="14" transform="translate(-139.874 246.876) rotate(-45)" style="fill:#1ae5be"/><rect x="257.686" y="221.068" width="69.189" height="14" transform="translate(-75.661 273.473) rotate(-45)" style="fill:#1ae5be"/><path d="M62.394,150.343l20.048-20.049,17.84,10.2a47.678,47.678,0,0,0,73.3,46.868,28.879,28.879,0,0,0,18.172,18.844,31.468,31.468,0,0,0,6.011,36l13.814,13.814,9.9-9.9L207.67,232.305a17.42,17.42,0,0,1,24.635-24.635l13.814,13.814,9.9-9.9L242.205,197.77a31.448,31.448,0,0,0-39.522-4.015,14.988,14.988,0,0,1-15.607-19.72A47.693,47.693,0,0,0,140.5,100.282l-10.2-17.84,20.049-20.048L277.776,189.827l9.9-9.9L155.292,47.544a7,7,0,0,0-9.9,0l-28.779,28.78a7,7,0,0,0-1.128,8.424l15.368,26.879a7,7,0,0,0,7.887,3.288,33.7,33.7,0,1,1-23.826,23.826,7,7,0,0,0-3.288-7.887L84.748,115.486a7,7,0,0,0-8.424,1.128l-28.78,28.779a7,7,0,0,0,0,9.9L179.927,287.675l9.9-9.9Z" style="fill:#1ae5be"/><path d="M221.207,236.5,172.283,285.42a7,7,0,0,0,0,9.9L331.306,454.343a41.595,41.595,0,0,0,58.824-58.824L231.107,236.5A7,7,0,0,0,221.207,236.5ZM380.23,405.418a27.594,27.594,0,1,1-39.024,39.025L241.79,345.027,280.815,306ZM270.915,296.1,231.89,335.128,187.132,290.37l39.025-39.025Z" style="fill:#0635c9"/><path d="M454.343,331.306,295.32,172.283a7,7,0,0,0-9.9,0L236.5,221.207a7,7,0,0,0,0,9.9L395.519,390.13a41.595,41.595,0,0,0,58.824-58.824Zm-203-105.149,39.025-39.025,44.758,44.758L296.1,270.915ZM405.418,380.23,306,280.815l39.024-39.025,99.416,99.416a27.594,27.594,0,0,1-39.025,39.024Z" style="fill:#0635c9"/></svg>
