<?xml version="1.0"?>
<svg xmlns="http://www.w3.org/2000/svg" id="Layer_1" data-name="Layer 1" viewBox="0 0 512 512" width="512" height="512"><title>Maintenance Check mark</title><path d="M184.648,256a101.758,101.758,0,0,1,86.6-100.492,101.6,101.6,0,1,0,0,200.984A101.758,101.758,0,0,1,184.648,256Z" style="fill:#d4e1f4"/><path d="M256.249,371.6A115.6,115.6,0,1,0,140.648,256,115.732,115.732,0,0,0,256.249,371.6Zm0-217.2A101.6,101.6,0,1,1,154.648,256,101.717,101.717,0,0,1,256.249,154.4Z" style="fill:#0635c9"/><path d="M238.234,289.261a7,7,0,0,0,9.78,0l57.876-56.505a7,7,0,1,0-9.78-10.017L243.124,274.47,215.89,247.88a7,7,0,1,0-9.78,10.018Z" style="fill:#0635c9"/><path d="M65.328,290.858l36.338,3.5A156.943,156.943,0,0,0,120.1,338.146L96.965,366.083a7,7,0,0,0,.441,9.415l39.345,39.344a7,7,0,0,0,9.415.442l27.984-23.175a160.443,160.443,0,0,0,43.739,18.472l3.5,36.339a7,7,0,0,0,6.967,6.329h55.78a7,7,0,0,0,6.967-6.329l3.5-36.337A156.9,156.9,0,0,0,338.4,392.148l27.936,23.136a7,7,0,0,0,9.415-.442L415.092,375.5a7,7,0,0,0,.441-9.415L392.358,338.1a160.459,160.459,0,0,0,18.473-43.745l35.849-3.5A7,7,0,0,0,453,283.89V228.11a7,7,0,0,0-6.328-6.968l-36.338-3.5A156.943,156.943,0,0,0,391.9,173.854l23.135-27.937a7,7,0,0,0-.41-9.383L375.778,97.189a7,7,0,0,0-9.446-.473l-27.984,23.175a160.443,160.443,0,0,0-43.739-18.472l-3.5-36.339a7,7,0,0,0-6.967-6.329h-55.78a7,7,0,0,0-6.967,6.329l-3.5,36.337A156.891,156.891,0,0,0,174.1,119.852L146.166,96.716a7,7,0,0,0-9.415.442L97.406,136.5a7,7,0,0,0-.441,9.415L120.14,173.9a160.469,160.469,0,0,0-18.472,43.739l-36.34,3.5A7,7,0,0,0,59,228.11v55.78A7,7,0,0,0,65.328,290.858ZM73,234.468l35.009-3.374a7,7,0,0,0,6.17-5.489,146.6,146.6,0,0,1,20.455-48.484,7,7,0,0,0-.49-8.26L111.812,141.9l30.333-30.333L169.11,133.9a7,7,0,0,0,8.348.433,142.239,142.239,0,0,1,48.4-20.4,7,7,0,0,0,5.489-6.171l3.374-35.008h43.064l3.374,35.008a7,7,0,0,0,5.489,6.171,146.588,146.588,0,0,1,48.484,20.455,7,7,0,0,0,8.26-.49l26.934-22.306,29.892,30.275-22.358,27a7,7,0,0,0-.432,8.348,142.274,142.274,0,0,1,20.4,48.4,7,7,0,0,0,6.17,5.489L439,234.468V277.54l-34.519,3.367a7,7,0,0,0-6.162,5.488,146.614,146.614,0,0,1-20.455,48.484,7,7,0,0,0,.49,8.26L400.686,370.1l-30.332,30.333-26.966-22.332a7,7,0,0,0-8.348-.433,142.239,142.239,0,0,1-48.4,20.4,7,7,0,0,0-5.489,6.171l-3.374,35.008H234.717l-3.374-35.008a7,7,0,0,0-5.489-6.171,146.588,146.588,0,0,1-48.484-20.455,7,7,0,0,0-8.26.49l-26.965,22.332L111.812,370.1l22.332-26.965a7,7,0,0,0,.432-8.348,142.274,142.274,0,0,1-20.4-48.4,7,7,0,0,0-6.17-5.489L73,277.532Z" style="fill:#1ae5be"/></svg>
