<?xml version="1.0"?>
<svg xmlns="http://www.w3.org/2000/svg" id="Layer_1" data-name="Layer 1" viewBox="0 0 512 512" width="512" height="512"><title>Maintenance</title><path d="M115.52,275.609c.038-.067.073-.137.106-.206,3.258-6.847,10.433-18.344,21.887-18.428l101.805-.75h.128a15.858,15.858,0,0,1,7.614,1.913c-5.921-8.729-11.585-12.569-18.27-12.569h-.128l-101.8.75c-11.454.084-18.629,11.581-21.887,18.428-.033.069-.068.139-.106.206L87.41,296.423l16.634-.122Z" style="fill:#d4e1f4"/><path d="M86.015,373.538a6.766,6.766,0,0,1-1.945-4.722,3.922,3.922,0,0,0-.033-.484l-6.321-48.687c.024-7.993,4.187-13.552,9.242-15.759l-5.88.043H81.05a3.726,3.726,0,0,1-.608-.056c-6.7.448-13.352,6.472-13.382,16.259l6.321,47.14a3.656,3.656,0,0,1,.033.468,6.529,6.529,0,0,0,6.5,6.45h.049l6.745-.049A6.733,6.733,0,0,1,86.015,373.538Z" style="fill:#d4e1f4"/><path d="M95.525,359.225h.139a18.3,18.3,0,0,0-.133-36.607H95.4a18.3,18.3,0,0,0,.13,36.607ZM92.464,337.9a4.275,4.275,0,0,1,3.033-1.282h.032a4.309,4.309,0,0,1,4.3,4.272h0a4.3,4.3,0,0,1-4.271,4.334h-.033a4.3,4.3,0,0,1-3.064-7.325Z" style="fill:#0635c9"/><path d="M262.538,357.92h.138a18.3,18.3,0,0,0-.132-36.607h-.137a18.3,18.3,0,0,0,.131,36.607Zm-.028-22.607h.032a4.3,4.3,0,0,1,.032,8.607h-.033a4.3,4.3,0,0,1-.031-8.607Z" style="fill:#0635c9"/><path d="M177.145,143.48a159.441,159.441,0,0,0-9.785,18.956l12.851,5.556a147.21,147.21,0,0,1,11.426-21.3,7,7,0,0,0-.491-8.259L170.229,113.18l28.224-28.224,25.257,20.917a7,7,0,0,0,8.348.432,134.273,134.273,0,0,1,45.674-19.25,7,7,0,0,0,5.488-6.17l3.161-32.793h40.075l3.161,32.793a7,7,0,0,0,5.488,6.17,138.376,138.376,0,0,1,45.761,19.308,7,7,0,0,0,8.26-.49l25.226-20.891,27.81,28.166L421.22,138.437a7,7,0,0,0-.433,8.348,134.265,134.265,0,0,1,19.25,45.673,7,7,0,0,0,6.17,5.489L479,201.108V241.19l-32.33,3.154a7,7,0,0,0-6.162,5.488A138.352,138.352,0,0,1,421.2,295.593a7,7,0,0,0,.491,8.26l20.916,25.257-28.223,28.224-25.258-20.917a7,7,0,0,0-8.348-.433,134.234,134.234,0,0,1-45.673,19.251,7,7,0,0,0-5.488,6.17L326.456,394.2H307.188v14h25.625a7,7,0,0,0,6.968-6.328l3.29-34.127a148.9,148.9,0,0,0,41.059-17.285l26.232,21.723a7,7,0,0,0,9.415-.441L457.013,334.5a7,7,0,0,0,.442-9.414L435.692,298.81a152.226,152.226,0,0,0,17.323-41.018l33.665-3.285A7,7,0,0,0,493,247.54V194.75a7,7,0,0,0-6.328-6.968l-34.128-3.289a148.876,148.876,0,0,0-17.285-41.06L456.983,117.2a7,7,0,0,0-.41-9.383L419.808,70.582a7,7,0,0,0-9.446-.473L384.083,91.871A152.2,152.2,0,0,0,343.071,74.55l-3.29-34.13a7,7,0,0,0-6.968-6.328h-52.79a7,7,0,0,0-6.968,6.328l-3.289,34.127a148.89,148.89,0,0,0-41.059,17.286L202.474,70.109a7,7,0,0,0-9.414.441l-37.236,37.237a7,7,0,0,0-.442,9.414Z" style="fill:#1ae5be"/><path d="M330.467,313.883l3.5,13.555a109.8,109.8,0,1,0-122.979-160.6l12.161,6.936A95.794,95.794,0,1,1,330.467,313.883Z" style="fill:#1ae5be"/><path d="M194.424,298.4a7,7,0,0,0,7,6.949h.052a7,7,0,0,0,6.949-7.051,15.626,15.626,0,0,1,15.493-15.724h.117a15.629,15.629,0,0,1,15.608,15.5,7,7,0,0,0,7,6.948h.052a7,7,0,0,0,6.949-7.052,29.61,29.61,0,0,0-59.218.436Z" style="fill:#1ae5be"/><path d="M145.867,348.441h.052a7,7,0,0,0,6.949-7.051l-.077-10.416a7,7,0,0,0-7-6.949h-.053a7,7,0,0,0-6.948,7.052l.077,10.416A7,7,0,0,0,145.867,348.441Z" style="fill:#1ae5be"/><path d="M212.254,323.315H212.2a7,7,0,0,0-6.949,7.052l.078,10.416a7,7,0,0,0,7,6.948h.052a7,7,0,0,0,6.949-7.052l-.078-10.416A7,7,0,0,0,212.254,323.315Z" style="fill:#1ae5be"/><path d="M175.022,341.105l-.077-10.416a7,7,0,0,0-7-6.948h-.052a7,7,0,0,0-6.949,7.052l.077,10.416a7,7,0,0,0,7,6.948h.053A7,7,0,0,0,175.022,341.105Z" style="fill:#1ae5be"/><path d="M190.048,323.457a7,7,0,0,0-6.948,7.052l.076,10.416a7,7,0,0,0,7,6.948h.053a7,7,0,0,0,6.948-7.052l-.076-10.416a7,7,0,0,0-7-6.948Z" style="fill:#1ae5be"/><path d="M178.891,477.908c88.164,0,159.89-71.726,159.89-159.89s-71.726-159.891-159.89-159.891S19,229.854,19,318.018,90.727,477.908,178.891,477.908Zm0-305.781c80.444,0,145.89,65.446,145.89,145.891s-65.446,145.89-145.89,145.89S33,398.462,33,318.018,98.446,172.127,178.891,172.127Z" style="fill:#0635c9"/><path d="M86.55,405.21h.1l16.558-.122a12.467,12.467,0,0,0,12.362-12.54l-.086-12.883,127.849-.989.086,12.852a12.455,12.455,0,0,0,12.451,12.361h.094l16.558-.122a12.466,12.466,0,0,0,12.361-12.539l-.092-13.868A17.914,17.914,0,0,0,296.719,361l6.237-40.134a7.082,7.082,0,0,0,.083-1.127,29.626,29.626,0,0,0-7.329-19.465,25.279,25.279,0,0,0-14.841-8.377l-19.84-35.936c-6.646-11.713-16.378-25.134-32.838-25.134h-.222l-98.561.8c-13.433.1-25.173,9.227-33.076,25.71l-20,36.056C64.563,295.566,55.6,306.105,54.8,319.537c-.042.692-.061,1.4-.056,2.1a7.063,7.063,0,0,0,.1,1.1l6.7,40.049a17.9,17.9,0,0,0,11.041,15.785c.472.2.952.362,1.435.516l.092,13.756A12.451,12.451,0,0,0,86.55,405.21ZM88.091,391.2l-.076-11.322,13.465-.1.076,11.327ZM257.4,389.878l-.075-11.311,13.465-.1.075,11.316ZM108.678,263.94c.071-.127.137-.256.2-.387,3.171-6.662,10.067-17.85,20.639-17.928l98.561-.8h.109c7.308,0,13.5,5.406,20.627,17.972l15.921,28.84L92.578,292.969Zm-33.16,98.126a7.04,7.04,0,0,0-.1-1.1l-6.675-39.934c0-.216.013-.432.026-.65.374-6.232,4.434-12.851,11.253-13.357.2.018.407.04.613.04h.054l195.726-1.516c.03,0,.059,0,.089,0h.053a11.249,11.249,0,0,1,8.668,4,15.8,15.8,0,0,1,3.8,9.771l-6.218,40.016a6.863,6.863,0,0,0-.083,1.127,3.937,3.937,0,0,1-3.88,3.934L79.452,365.943a3.575,3.575,0,0,1-1.5-.292A3.92,3.92,0,0,1,75.518,362.066Z" style="fill:#0635c9"/></svg>
