<?xml version="1.0"?>
<svg xmlns="http://www.w3.org/2000/svg" id="Layer_1" data-name="Layer 1" viewBox="0 0 512 512" width="512" height="512"><title>Mechanic Tools</title><path d="M132.714,453.883V341.852l13.832-48.108h-20l-13.832,48.108V453.883a25.675,25.675,0,0,0,25.646,25.646h20A25.675,25.675,0,0,1,132.714,453.883Z" style="fill:#d4e1f4"/><path d="M132,273.481a6.27,6.27,0,0,1,6.263-6.262h-20a6.263,6.263,0,1,0,0,12.525h20A6.27,6.27,0,0,1,132,273.481Z" style="fill:#d4e1f4"/><path d="M319.663,454.294v-260a7,7,0,0,0-4.551-6.558,85.309,85.309,0,0,1-48.319-113.7l.125-36.367A84.6,84.6,0,0,0,229.8,107.993a85.484,85.484,0,0,0,55.315,79.741,7,7,0,0,1,4.551,6.558v260A25.221,25.221,0,0,0,329.9,474.573,25.213,25.213,0,0,1,319.663,454.294Z" style="fill:#d4e1f4"/><path d="M166.008,356.851a7,7,0,0,0-7,7V442.1a7,7,0,0,0,14,0V363.851A7,7,0,0,0,166.008,356.851Z" style="fill:#0635c9"/><path d="M136.83,356.851a7,7,0,0,0-7,7V442.1a7,7,0,0,0,14,0V363.851A7,7,0,0,0,136.83,356.851Z" style="fill:#0635c9"/><path d="M182.063,74.855,168.8,24.249a7,7,0,0,0-6.771-5.226h-21.22a7,7,0,0,0-6.771,5.226L120.775,74.855a7,7,0,0,0,.452,4.785l9.929,20.853V254a7,7,0,0,0,14,0V98.911a7,7,0,0,0-.68-3.01l-9.51-19.971,11.245-42.907h10.416L167.872,75.93,158.362,95.9a7,7,0,0,0-.68,3.01V254a7,7,0,0,0,14,0v-153.5l9.929-20.853A7,7,0,0,0,182.063,74.855Z" style="fill:#0635c9"/><path d="M314.9,493.529a39.279,39.279,0,0,0,39.235-39.235V199.019A99.139,99.139,0,0,0,359.1,19.272a7,7,0,0,0-10.128,6.263V74.606L315.245,97.068,280.8,72.969l.162-47.465a7.011,7.011,0,0,0-10.125-6.3,99.138,99.138,0,0,0,4.829,179.816V454.294A39.279,39.279,0,0,0,314.9,493.529ZM229.8,107.993a84.6,84.6,0,0,1,37.121-70.322l-.133,38.911a7,7,0,0,0,2.987,5.759l41.363,28.937a6.994,6.994,0,0,0,7.892.091l40.829-27.187a7,7,0,0,0,3.12-5.827V37.739A84.622,84.622,0,0,1,400,107.993a85.483,85.483,0,0,1-55.314,79.741,7,7,0,0,0-4.552,6.558v260a25.236,25.236,0,0,1-50.471,0v-260a7,7,0,0,0-4.551-6.558A85.484,85.484,0,0,1,229.8,107.993Z" style="fill:#0635c9"/><path d="M326.411,320.379H303.386a7,7,0,0,0,0,14h23.025a7,7,0,0,0,0-14Z" style="fill:#1ae5be"/><path d="M326.411,359.521H303.386a7,7,0,0,0,0,14h23.025a7,7,0,0,0,0-14Z" style="fill:#1ae5be"/><path d="M326.411,398.665H303.386a7,7,0,0,0,0,14h23.025a7,7,0,0,0,0-14Z" style="fill:#1ae5be"/><path d="M204.838,273.481a20.286,20.286,0,0,0-20.263-20.262H118.263a20.264,20.264,0,0,0-6.022,39.612l-13.254,46.1a6.994,6.994,0,0,0-.273,1.934V453.883a39.691,39.691,0,0,0,39.646,39.646h26.118a39.691,39.691,0,0,0,39.646-39.646V340.865a6.994,6.994,0,0,0-.273-1.934l-13.254-46.1A20.3,20.3,0,0,0,204.838,273.481Zm-14.714,180.4a25.675,25.675,0,0,1-25.646,25.646H138.36a25.675,25.675,0,0,1-25.646-25.646V341.852l13.832-48.108h49.746l13.832,48.108Zm-5.549-174.139H118.263a6.263,6.263,0,1,1,0-12.525h66.312a6.263,6.263,0,1,1,0,12.525Z" style="fill:#1ae5be"/></svg>
