<?xml version="1.0"?>
<svg xmlns="http://www.w3.org/2000/svg" id="Layer_1" data-name="Layer 1" viewBox="0 0 512 512" width="512" height="512"><title>Mechanic</title><polygon points="181.23 374.302 188.469 371.213 188.469 410.416 181.23 410.416 181.23 374.302" style="fill:#d4e1f4"/><path d="M189.488,228.327v-.141a7,7,0,0,0-5.792-6.9A16.7,16.7,0,0,1,169.86,204.8a16.9,16.9,0,0,1,.271-3.019l-9.712-4.985a14.63,14.63,0,0,1-4.185-3.238,10.493,10.493,0,0,0-5.894,7.241A16.767,16.767,0,0,0,163.7,221.29a7,7,0,0,1,5.792,6.9v.141a86.136,86.136,0,0,0,96.277,85.678A86.388,86.388,0,0,1,189.488,228.327Z" style="fill:#d4e1f4"/><path d="M191.591,202.53a8.912,8.912,0,0,0,12.959-7.217l2-25.068h-20l-2,25.068a8.937,8.937,0,0,1-.855,3.164Z" style="fill:#d4e1f4"/><path d="M241.021,348.406V327.5a99.59,99.59,0,0,1-20-5.109v26.016A88.4,88.4,0,0,0,266,355.027,87.847,87.847,0,0,1,241.021,348.406Z" style="fill:#d4e1f4"/><path d="M224.125,364.531a101.2,101.2,0,0,1-10.453-4.075l-11.2,4.781v45.179h20V365.237Z" style="fill:#d4e1f4"/><path d="M167.23,392.544V380.277l-8.386,3.579a43.007,43.007,0,0,0-23.278,34.315v70.7h20v-70.7A42.953,42.953,0,0,1,167.23,392.544Z" style="fill:#d4e1f4"/><path d="M327.15,447.778a7,7,0,0,0,7-7v-6.371a7,7,0,0,0-14,0v6.371A7,7,0,0,0,327.15,447.778Z" style="fill:#0635c9"/><path d="M184.85,447.778a7,7,0,0,0,7-7v-6.371a7,7,0,0,0-14,0v6.371A7,7,0,0,0,184.85,447.778Z" style="fill:#0635c9"/><path d="M153.147,371.065c-.129.056-.257.115-.383.178a57.082,57.082,0,0,0-31.173,46.044q-.025.29-.025.581v78a7,7,0,0,0,7,7H383.434a7,7,0,0,0,7-7v-78q0-.291-.025-.581a57.082,57.082,0,0,0-31.173-46.044c-.126-.063-.254-.122-.383-.178l-53.874-22.992V315.664A100.389,100.389,0,0,0,355.9,233.508a30.791,30.791,0,0,0,18.827-36.04,24.625,24.625,0,0,0-15.34-17.345l1.13-16.4-13.967-.963-1.487,21.577a2.561,2.561,0,0,1-.809,1.7l-2.063,1.925-3.124-9.373a132.36,132.36,0,0,1-4.5-17.361l-13.76,2.584a146.49,146.49,0,0,0,4.979,19.2l5.63,16.887a8.873,8.873,0,0,0,6.257,5.821,8.969,8.969,0,0,0,2.214.279,8.878,8.878,0,0,0,6.067-2.4l7.854-7.331a16.555,16.555,0,0,0,2.1-2.376,10.478,10.478,0,0,1,5.22,6.9,16.768,16.768,0,0,1-13.316,20.486,7,7,0,0,0-5.779,6.893v.149a86.271,86.271,0,1,1-172.542,0v-.141a7,7,0,0,0-5.792-6.9A16.767,16.767,0,0,1,150.34,200.8a10.493,10.493,0,0,1,5.894-7.241,14.63,14.63,0,0,0,4.185,3.238l11.172,5.735a8.912,8.912,0,0,0,12.959-7.217l2.519-31.51-13.955-1.115L171.2,186.594l-4.388-2.253a.713.713,0,0,1-.384-.581l-1.448-21-13.966.963,1.129,16.369a24.617,24.617,0,0,0-15.4,17.373,30.786,30.786,0,0,0,18.881,36.057,100.4,100.4,0,0,0,51.4,82.409v32.138ZM181.23,374.3l7.239-3.089v39.2H181.23Zm-14,36.114h-3.619a7,7,0,0,0-7,7v71.451H135.566v-70.7a43.007,43.007,0,0,1,23.278-34.315l8.386-3.579Zm177.54-30.139,8.386,3.579a43.007,43.007,0,0,1,23.278,34.315v70.7H355.389V417.416a7,7,0,0,0-7-7H344.77Zm-3.381,108.59H170.611V424.416H341.389ZM323.531,371.213l7.239,3.089v36.114h-7.239ZM221.021,322.39a100.246,100.246,0,0,0,69.958-.174v26.19a88.5,88.5,0,0,1-69.958,0Zm-7.349,38.066a102.47,102.47,0,0,0,84.656,0l11.2,4.781v45.179H202.469V365.237Z" style="fill:#0635c9"/><path d="M139.186,170.245H372.814a7,7,0,0,0,7-7v-27a7,7,0,0,0-7-7h-7.226a121.2,121.2,0,0,0-23.3-65.936A110.285,110.285,0,0,0,288.7,24.051l.76-7.328A7,7,0,0,0,282.5,9h-53a7,7,0,0,0-6.963,7.723l.76,7.329a110.22,110.22,0,0,0-53.589,39.36,121.556,121.556,0,0,0-23.285,65.838h-7.237a7,7,0,0,0-7,7v27A7,7,0,0,0,139.186,170.245Zm93.471-134.38a7,7,0,0,0,5.164-7.488L237.264,23h37.472l-.557,5.377a7,7,0,0,0,5.164,7.488,88.961,88.961,0,0,1,13.687,4.894v9.513A56.458,56.458,0,0,1,257.1,102.853,56.3,56.3,0,0,1,218.97,49.465v-8.7A88.567,88.567,0,0,1,232.657,35.865ZM180.968,71.732a99.153,99.153,0,0,1,24-23.12v.853a70.266,70.266,0,0,0,48.644,66.981l1.445.471a6.99,6.99,0,0,0,4.445-.036A70.458,70.458,0,0,0,307.03,50.272V48.586a99.042,99.042,0,0,1,24.007,23.062,107.057,107.057,0,0,1,20.529,57.6H160.445A107.42,107.42,0,0,1,180.968,71.732ZM146.186,143.25H365.814v13H146.186Z" style="fill:#1ae5be"/><path d="M244.711,78.755h25.032a7,7,0,0,0,0-14H244.711a7,7,0,0,0,0,14Z" style="fill:#1ae5be"/><path d="M244.711,55.678h25.032a7,7,0,0,0,0-14H244.711a7,7,0,0,0,0,14Z" style="fill:#1ae5be"/></svg>
