<?xml version="1.0"?>
<svg xmlns="http://www.w3.org/2000/svg" id="Layer_1" data-name="Layer 1" viewBox="0 0 512 512" width="512" height="512"><title>Mini Tow truck</title><path d="M43,338.439a32.037,32.037,0,0,1,5.845-18.512,31.569,31.569,0,0,1,15.405-11.7,213.619,213.619,0,0,1,70.207-12.013l125.464.348v-9.945l-145.464-.4A213.619,213.619,0,0,0,44.25,298.228a31.569,31.569,0,0,0-15.4,11.7A32.037,32.037,0,0,0,23,328.439v42.236H43Z" style="fill:#d4e1f4"/><path d="M489,320.264h-3.646a6.978,6.978,0,0,0,3.136,9.23,47.642,47.642,0,0,0,.51-6.812Z" style="fill:#d4e1f4"/><polygon points="293.921 296.657 489 297.198 489 287.254 273.921 286.657 273.921 370.675 293.921 370.675 293.921 296.657" style="fill:#d4e1f4"/><path d="M234.269,310.264a7,7,0,0,0,0-14H209.555a7,7,0,1,0,0,14Z" style="fill:#0635c9"/><path d="M456.767,206.181a7,7,0,0,0-13.418-4c-2.062,6.924-8.21,11.95-14.62,11.95-8.663,0-15.449-6.459-15.449-14.7,0-8.38,6.576-14.7,15.3-14.7a7,7,0,0,0,6.213-10.225L390.444,89.1a7,7,0,0,0-11.77-1.031l-48.232,62.983A7,7,0,0,0,329,155.308v86a7,7,0,1,0,14,0V157.68l40.094-52.356,34.925,67.261a28.379,28.379,0,0,0-18.739,26.846c0,16.1,12.936,28.7,29.449,28.7C441.388,228.135,452.917,219.106,456.767,206.181Z" style="fill:#1ae5be"/><path d="M496.02,273.273l-122.163-.338V242.448a7,7,0,0,0-7-7H305.143a7,7,0,0,0-7,7v30.276l-24.222-.067V209.221a7,7,0,0,0-7.636-6.971c-1.091.1-26.888,2.482-42.054,6.472A230.66,230.66,0,0,0,194.081,219a288.789,288.789,0,0,0-82.472,53.236A227.97,227.97,0,0,0,39.6,285.024a45.489,45.489,0,0,0-22.207,16.855A45.977,45.977,0,0,0,9,328.439v44.923a11.326,11.326,0,0,0,11.313,11.313H80.4v-14H23V328.439a32.037,32.037,0,0,1,5.845-18.512,31.569,31.569,0,0,1,15.405-11.7,213.619,213.619,0,0,1,70.207-12.013l145.464.4v84.057H152.147v14H365.08v-14H273.921V286.657l215.079.6v19.01H471.672a7,7,0,0,0,0,14H489v2.418a48.088,48.088,0,0,1-19.787,38.833l-.184.131A34.524,34.524,0,0,1,448.7,368H439.6v14H448.7a48.44,48.44,0,0,0,28.5-8.99l.158-.114A62.155,62.155,0,0,0,503,322.682V280.273A7,7,0,0,0,496.02,273.273Zm-236.1-.655-127.007-.352c13.756-11.21,37.21-28.077,66.567-40.353a216.782,216.782,0,0,1,28.313-9.652c9.236-2.43,23.431-4.281,32.127-5.268Zm99.936.278-47.714-.133V249.448h47.714Z" style="fill:#0635c9"/><path d="M164.251,379.174a47,47,0,1,0-47,47A47.053,47.053,0,0,0,164.251,379.174Zm-47,33a33,33,0,1,1,33-33A33.038,33.038,0,0,1,117.251,412.174Z" style="fill:#1ae5be"/><path d="M352.8,379.675a47,47,0,1,0,47-47A47.053,47.053,0,0,0,352.8,379.675Zm80,0a33,33,0,1,1-33-33A33.038,33.038,0,0,1,432.8,379.675Z" style="fill:#1ae5be"/></svg>
