<?xml version="1.0"?>
<svg xmlns="http://www.w3.org/2000/svg" id="Layer_1" data-name="Layer 1" viewBox="0 0 512 512" width="512" height="512"><title>Mobile Maintenance Truck</title><path d="M244,215.968a31.464,31.464,0,0,1,31.429-31.428H467.572c.467,0,.931.015,1.393.035a31.464,31.464,0,0,0-31.393-30.035H245.433A31.464,31.464,0,0,0,214,185.968v185.4h30Z" style="fill:#d4e1f4"/><path d="M39.826,443.285H77.319a7,7,0,0,0,7-7.216c-.007-.246-.006-.5-.006-.745H77.319v-6.039H43V398.817c0-17.5,15.24-40.074,31.428-40.074h103.48v70.542H158.96v6.039h-6.991c0,.253,0,.513-.006.767a7,7,0,0,0,7,7.194H344.394v-14H191.908V385.369H469v43.916H426.034v14h46.14A10.838,10.838,0,0,0,483,432.458V185.968a45.48,45.48,0,0,0-45.428-45.428H245.433A45.48,45.48,0,0,0,200,185.968v12.094H114.777c-25.048,0-45.427,17.147-45.427,38.223V259.1a7,7,0,0,0,7,7h8.866L60.954,347.609C42.408,355.607,29,378.894,29,398.817v33.641A10.838,10.838,0,0,0,39.826,443.285ZM214,185.968a31.464,31.464,0,0,1,31.429-31.428H437.572A31.464,31.464,0,0,1,469,185.968v185.4H214Zm-36.1,158.775H97.793l8.047-32.354h72.068ZM83.35,252.1V236.285c0-13.13,14.392-24.223,31.427-24.223H200V371.369h-8.1V259.1a7,7,0,0,0-7-7Zm16.472,14h78.086v32.288H100.367a7,7,0,0,0-6.793,5.31L83.366,344.743H76.414Z" style="fill:#0635c9"/><path d="M84.688,469.512a47.832,47.832,0,0,0,81.269-33.033c.011-.382.012-.774.012-1.155a47.83,47.83,0,1,0-95.659,0c0,.388,0,.787.011,1.122A47.555,47.555,0,0,0,84.688,469.512Zm33.452-68.018a33.868,33.868,0,0,1,33.829,33.83c0,.253,0,.513-.007.8a33.832,33.832,0,0,1-67.646-.054c-.007-.246-.006-.5-.006-.745A33.868,33.868,0,0,1,118.14,401.494Z" style="fill:#1ae5be"/><path d="M433.043,435.324a47.651,47.651,0,0,0-12.875-32.639c-.039-.041-.067-.072-.107-.113-.067-.071-.133-.141-.2-.209a47.8,47.8,0,0,0-69.286-.009c-.076.078-.151.158-.227.24-.03.03-.058.06-.087.091a47.652,47.652,0,0,0-12.877,32.639c0,.388,0,.787.012,1.122a47.831,47.831,0,0,0,95.635.033C433.042,436.1,433.043,435.705,433.043,435.324Zm-14.007.8a33.831,33.831,0,0,1-67.645-.054c-.008-.246-.007-.5-.007-.745a33.7,33.7,0,0,1,9.107-23.081h0l.093-.1.1-.108a33.8,33.8,0,0,1,49.053,0c.044.045.05.053.1.1l.1.108h0a33.694,33.694,0,0,1,9.105,23.081C419.043,435.577,419.044,435.837,419.036,436.123Z" style="fill:#1ae5be"/><path d="M156.028,92.86a6.877,6.877,0,0,0-4.711,1.8,7,7,0,0,0-1.585,8.32,51.058,51.058,0,0,0,45.974,28.5,51.583,51.583,0,0,0,46.124-28.806H390.17a51.331,51.331,0,0,0,92.061.382,7,7,0,0,0-6.262-10.127H454.3l-8.356-12.548,9.086-12.986,20.939.071H476a7.006,7.006,0,0,0,6.273-10.122,51.059,51.059,0,0,0-45.974-28.495A51.582,51.582,0,0,0,390.17,57.652H241.83a51.332,51.332,0,0,0-92.061-.382A7,7,0,0,0,156.031,67.4H177.7l8.356,12.548-9.086,12.987ZM180.6,106.944a7,7,0,0,0,5.735-2.987l13.924-19.9a7,7,0,0,0,.091-7.892L187.272,56.518a7,7,0,0,0-5.826-3.121H169.665a37.363,37.363,0,0,1,61.008,13.7,7,7,0,0,0,6.557,4.551H394.77a7,7,0,0,0,6.557-4.551,37.365,37.365,0,0,1,61.031-13.684L451.42,53.38H451.4a7,7,0,0,0-5.735,2.987l-13.924,19.9a7,7,0,0,0-.091,7.893l13.082,19.645a7,7,0,0,0,5.826,3.12h11.781a37.362,37.362,0,0,1-61.008-13.7,7,7,0,0,0-6.557-4.551H237.23a7,7,0,0,0-6.557,4.551,37.364,37.364,0,0,1-61.031,13.684l10.938.037Z" style="fill:#1ae5be"/></svg>
