<?xml version="1.0"?>
<svg xmlns="http://www.w3.org/2000/svg" id="Layer_1" data-name="Layer 1" viewBox="0 0 512 512" width="512" height="512"><title>Navigation </title><path d="M210.534,282.635c-12.977-13.6-22.506-28.441-28.318-44.114a117.62,117.62,0,0,1-7.352-49.139,126.467,126.467,0,0,1,37.39-81.463,120.833,120.833,0,0,1,65.8-33.416,124.863,124.863,0,0,0-20-1.611,121.307,121.307,0,0,0-85.8,35.027,126.467,126.467,0,0,0-37.39,81.463,117.62,117.62,0,0,0,7.352,49.139c5.812,15.673,15.341,30.515,28.318,44.114l87.521,91.7,20-20.956Z" style="fill:#d4e1f4"/><path d="M258.055,124.385c-34.419,0-62.421,28.254-62.421,62.982s28,62.984,62.421,62.984,62.421-28.254,62.421-62.984S292.474,124.385,258.055,124.385Zm0,111.966c-26.7,0-48.421-21.974-48.421-48.984s21.721-48.982,48.421-48.982,48.421,21.973,48.421,48.982S284.754,236.351,258.055,236.351Z" style="fill:#0635c9"/><path d="M417.443,289.075a7,7,0,0,0-6.343-4.04H343.138v14h63.5L443.492,378H164.441l19.365-80.36-10.6-2.554V285.035H100.9a7,7,0,0,0-6.343,4.04l-71.9,154.073A7,7,0,0,0,29,453.108H483a7,7,0,0,0,6.344-9.96ZM328.621,392l15.7,47.108H123.676L139.379,392ZM105.358,299.035h63.71L150.194,377.36l2.656.64H68.508ZM61.975,392h62.646l-15.7,47.108H39.991Zm297.106,47.108L343.379,392H450.025l21.984,47.108Z" style="fill:#1ae5be"/><path d="M353.69,97.956a136.6,136.6,0,0,0-191.272,0A140.459,140.459,0,0,0,120.9,188.433a131.509,131.509,0,0,0,8.192,54.957c6.48,17.469,17.016,33.925,31.318,48.911l92.584,97.011a7,7,0,0,0,10.128,0L355.7,292.3c14.3-14.984,24.837-31.441,31.318-48.911a131.553,131.553,0,0,0,8.193-54.957A140.459,140.459,0,0,0,353.69,97.956Zm20.2,140.565c-5.814,15.674-15.341,30.517-28.318,44.114l-87.52,91.7-87.521-91.7c-12.977-13.6-22.506-28.441-28.318-44.114a117.62,117.62,0,0,1-7.352-49.139,126.467,126.467,0,0,1,37.39-81.463,122.6,122.6,0,0,1,171.6,0,126.468,126.468,0,0,1,37.391,81.463A117.617,117.617,0,0,1,373.893,238.521Z" style="fill:#0635c9"/></svg>
