<?xml version="1.0"?>
<svg xmlns="http://www.w3.org/2000/svg" id="Layer_1" data-name="Layer 1" viewBox="0 0 512 512" width="512" height="512"><title>OilCar</title><path d="M140.969,444.75V287.036a32.811,32.811,0,0,1,6.214-19.275l83.655-116.249a33.079,33.079,0,0,1,26.786-13.724H378.031a32.853,32.853,0,0,1,11.081,1.919,33.054,33.054,0,0,0-31.081-21.919H237.624a33.079,33.079,0,0,0-26.786,13.724L127.183,247.761a32.811,32.811,0,0,0-6.214,19.275V424.75a43.3,43.3,0,0,0,24.354,38.9A42.993,42.993,0,0,1,140.969,444.75Z" style="fill:#d4e1f4"/><path d="M164.219,482H347.781a57.315,57.315,0,0,0,57.25-57.25V150.788a47.053,47.053,0,0,0-47-47H237.624a47.111,47.111,0,0,0-38.149,19.546L115.819,239.583a46.73,46.73,0,0,0-8.85,27.453V424.75A57.315,57.315,0,0,0,164.219,482Zm226.812-84H222.9V242H391.031ZM120.969,267.036a32.811,32.811,0,0,1,6.214-19.275l83.655-116.249a33.079,33.079,0,0,1,26.786-13.724H358.031a33.036,33.036,0,0,1,33,33V228H215.9a7,7,0,0,0-7,7V405a7,7,0,0,0,7,7H391.031v12.75A43.3,43.3,0,0,1,347.781,468H164.219a43.3,43.3,0,0,1-43.25-43.25Z" style="fill:#0635c9"/><path d="M259.9,100h86a7,7,0,0,0,0-14h-86a7,7,0,0,0,0,14Z" style="fill:#0635c9"/><path d="M259.9,82h86a11.013,11.013,0,0,0,11-11V41a11.013,11.013,0,0,0-11-11h-86a11.012,11.012,0,0,0-11,11V71A11.012,11.012,0,0,0,259.9,82Zm35-14V44h16V68Zm48,0h-18V44h18Zm-80-24h18V68h-18Z" style="fill:#1ae5be"/><path d="M312.3,266.232a7,7,0,0,0-11.8,0L271.014,312.4a42.255,42.255,0,0,0,5.7,52.3,41.993,41.993,0,0,0,59.386,0,42.255,42.255,0,0,0,5.7-52.3ZM326.2,354.8a27.992,27.992,0,0,1-39.587,0,28.167,28.167,0,0,1-3.8-34.861L306.4,283,330,319.94A28.167,28.167,0,0,1,326.2,354.8Z" style="fill:#1ae5be"/></svg>
