<?xml version="1.0"?>
<svg xmlns="http://www.w3.org/2000/svg" id="Layer_1" data-name="Layer 1" viewBox="0 0 512 512" width="512" height="512"><title>Piston </title><path d="M276,410.5a50.008,50.008,0,0,1-17.543-96.835A7,7,0,0,0,263,307.11V214.5a7,7,0,0,0-7-7H196a13.015,13.015,0,0,1-13-13V157H163v47.5a13.015,13.015,0,0,0,13,13h60a7,7,0,0,1,7,7v92.61a7,7,0,0,1-4.543,6.555,50,50,0,1,0,49.3,85.425A49.876,49.876,0,0,1,276,410.5Z" style="fill:#d4e1f4"/><path d="M156,130H356a7,7,0,0,0,0-14H156a7,7,0,0,0,0,14Z" style="fill:#1ae5be"/><path d="M363,176a7,7,0,0,0-7-7H156a7,7,0,0,0,0,14H356A7,7,0,0,0,363,176Z" style="fill:#1ae5be"/><path d="M285,370a29,29,0,1,0-29,29A29.032,29.032,0,0,0,285,370Zm-44,0a15,15,0,1,1,15,15A15.017,15.017,0,0,1,241,370Z" style="fill:#1ae5be"/><path d="M176,231.5h53v80.963a64,64,0,1,0,54,0V231.5h53a27.03,27.03,0,0,0,27-27v-100a27.03,27.03,0,0,0-27-27H176a27.03,27.03,0,0,0-27,27v100A27.03,27.03,0,0,0,176,231.5Zm-13-127a13.015,13.015,0,0,1,13-13H336a13.015,13.015,0,0,1,13,13V143H163Zm0,52.5H349v47.5a13.015,13.015,0,0,1-13,13H276a7,7,0,0,0-7,7v92.61a7,7,0,0,0,4.543,6.555,50,50,0,1,1-35.086,0A7,7,0,0,0,243,317.11V224.5a7,7,0,0,0-7-7H176a13.015,13.015,0,0,1-13-13Z" style="fill:#0635c9"/></svg>
