<?xml version="1.0"?>
<svg xmlns="http://www.w3.org/2000/svg" id="Layer_1" data-name="Layer 1" viewBox="0 0 512 512" width="512" height="512"><title>Search car</title><path d="M130.765,149.807c.046-.083.089-.168.13-.253,3.981-8.367,12.751-22.42,26.75-22.523l124.428-.917h.157a19.37,19.37,0,0,1,9.306,2.338c-7.237-10.67-14.159-15.362-22.33-15.362h-.157l-124.428.917c-14,.1-22.769,14.156-26.75,22.523-.041.085-.084.17-.13.253L96.408,175.246l20.33-.15Z" style="fill:#d4e1f4"/><path d="M94.7,269.5a8.279,8.279,0,0,1-2.378-5.771,4.669,4.669,0,0,0-.04-.591L84.56,203.628c.029-9.769,5.117-16.564,11.3-19.261l-7.186.053h-.034a4.582,4.582,0,0,1-.743-.068c-8.193.547-16.319,7.909-16.356,19.872l7.725,57.615a4.57,4.57,0,0,1,.041.572,7.978,7.978,0,0,0,7.94,7.883H87.3l8.244-.06A8.215,8.215,0,0,1,94.7,269.5Z" style="fill:#d4e1f4"/><path d="M104.792,207.151h-.148a20.043,20.043,0,0,0,.146,40.085h.148a20.067,20.067,0,0,0,19.895-20.189h0A20.067,20.067,0,0,0,104.792,207.151Zm.044,26.085h-.045a6.043,6.043,0,0,1-.046-12.085h.045a6.043,6.043,0,0,1,.046,12.085Z" style="fill:#0635c9"/><path d="M309.038,205.646h-.148a20.042,20.042,0,0,0,.14,40.084h.154a20.042,20.042,0,0,0-.146-40.084Zm6.04,20a6.042,6.042,0,1,1-6.087-6h.046a6.043,6.043,0,0,1,6.041,6Z" style="fill:#0635c9"/><path d="M361.072,161.725c-3.051-8.937-12.305-14.68-23.616-14.68h-.248c-5.729.042-15.634.082-21.217.1l-9.637-17.457c-7.525-13.261-18.516-28.456-36.949-28.456h-.247l-125.269.924c-15.073.111-28.283,10.438-37.214,29.083l-9.763,17.6c-5.6.03-15.672.086-21.449.129-11.423.085-20.7,5.983-23.646,15.029a48.359,48.359,0,0,0-2.275,11.961,7,7,0,0,0,6.994,7.285H56.6l9.729-.084a33.4,33.4,0,0,0-7.519,21.772,6.993,6.993,0,0,0,.062.879l7.765,57.913a19.607,19.607,0,0,0,14.387,18.234l.123,16.677A13.291,13.291,0,0,0,94.43,311.835h.1l19.106-.141a13.306,13.306,0,0,0,13.194-13.389l-.117-15.922,161.21-1.188.118,15.921a13.295,13.295,0,0,0,13.29,13.195h.1l19.1-.141a13.294,13.294,0,0,0,13.195-13.39l-.123-16.752A19.662,19.662,0,0,0,347.4,261.682l7.234-58.006a7.237,7.237,0,0,0,.054-.918,32.919,32.919,0,0,0-8.164-21.641l10.067-.078a7,7,0,0,0,6.935-7.39A48.36,48.36,0,0,0,361.072,161.725ZM119.021,137.848c.071-.127.137-.257.2-.388,3.765-7.915,11.992-21.206,24.771-21.3l125.27-.924h.134c8.872,0,16.291,6.4,24.742,21.293l19.243,34.857-16.317.12a33.137,33.137,0,0,0-32.46-26.712h-.246a33.137,33.137,0,0,0-32.308,27.19l-132.5.977Zm163.591,33.764-36.118.266a19.055,19.055,0,0,1,17.967-13.084h.143A19.108,19.108,0,0,1,282.612,171.612ZM64.87,169.178q.123-.42.262-.845c1.014-3.117,5.3-5.32,10.434-5.358,3.57-.027,8.778-.058,13.557-.086L85.735,169ZM95.138,297.83l-.112-15.213,17.69-.131.112,15.214Zm206.9-1.524-.112-15.214,17.69-.13.113,15.214Zm31.418-35.949a7.056,7.056,0,0,0-.054.918,5.619,5.619,0,0,1-5.543,5.625l-241.61,1.781h-.041a5.591,5.591,0,0,1-5.584-5.544,6.977,6.977,0,0,0-.062-.878l-7.755-57.837c.1-10.443,7.036-16.872,14.066-17.422a6.926,6.926,0,0,0,.737.049h.052l237.383-1.75c.035,0,.07.006.106.006.053,0,.106,0,.161,0,9.262,0,15.115,8.792,15.367,17.134ZM327.1,167.266l-3.395-6.148c4.784-.02,10.015-.045,13.608-.072h.134c5.071,0,9.327,2.13,10.378,5.205q.147.43.279.854Z" style="fill:#0635c9"/><path d="M244.064,247.866h-.052l-73.877.545a7,7,0,0,0,.051,14h.052l73.877-.545a7,7,0,0,0-.051-14Z" style="fill:#0635c9"/><path d="M173.6,234.63h.052a7,7,0,0,0,6.949-7.052l-.089-12.017a7,7,0,1,0-14,.1l.089,12.018A7,7,0,0,0,173.6,234.63Z" style="fill:#0635c9"/><path d="M151.247,208.775h-.053a7,7,0,0,0-6.948,7.052l.089,12.019a7,7,0,0,0,7,6.948h.053a7,7,0,0,0,6.948-7.052l-.089-12.018A7,7,0,0,0,151.247,208.775Z" style="fill:#0635c9"/><path d="M262.551,207.956H262.5a7,7,0,0,0-6.948,7.052l.089,12.018a7,7,0,0,0,7,6.949h.052a7,7,0,0,0,6.949-7.052L269.55,214.9A7,7,0,0,0,262.551,207.956Z" style="fill:#0635c9"/><path d="M195.855,234.466h.053a7,7,0,0,0,6.948-7.052l-.088-12.018a7,7,0,0,0-7-6.948h-.053a7,7,0,0,0-6.948,7.052l.088,12.018A7,7,0,0,0,195.855,234.466Z" style="fill:#0635c9"/><path d="M218.116,234.3h.053a7,7,0,0,0,6.948-7.052l-.089-12.019a7,7,0,0,0-7-6.948h-.052a7,7,0,0,0-6.949,7.052l.089,12.018A7,7,0,0,0,218.116,234.3Z" style="fill:#0635c9"/><path d="M240.377,234.139h.053a7,7,0,0,0,6.948-7.052l-.089-12.019a7,7,0,0,0-7-6.948h-.053a7,7,0,0,0-6.948,7.052l.089,12.018A7,7,0,0,0,240.377,234.139Z" style="fill:#0635c9"/><path d="M388.783,348.535a7,7,0,0,0-9.9,0l-10.224,10.224-24.542-24.542A187.705,187.705,0,0,0,73.8,73.8,187.705,187.705,0,0,0,334.217,344.117l24.542,24.542-10.224,10.224a7,7,0,0,0,0,9.9l96.777,96.778a26.033,26.033,0,0,0,36.77,0l3.479-3.479a26.033,26.033,0,0,0,0-36.77ZM83.7,329.367A173.711,173.711,0,1,1,329.367,83.7h0A173.71,173.71,0,1,1,83.7,329.367ZM475.66,472.182l-3.478,3.478a12.011,12.011,0,0,1-16.97,0l-91.827-91.827,20.448-20.448,91.827,91.826A12.014,12.014,0,0,1,475.66,472.182Z" style="fill:#1ae5be"/></svg>
