<?xml version="1.0"?>
<svg xmlns="http://www.w3.org/2000/svg" id="Layer_1" data-name="Layer 1" viewBox="0 0 512 512" width="512" height="512"><title>Service bill</title><path d="M85,414V78a21.024,21.024,0,0,1,21-21H219V37H86A21.024,21.024,0,0,0,65,58V394a21.008,21.008,0,0,0,20.048,20.952C85.034,414.634,85,414.321,85,414Z" style="fill:#d4e1f4"/><path d="M273.228,302.112a11.466,11.466,0,0,0,11.453-11.453V280.241a15.931,15.931,0,0,0,9.85-14.185l5.408-40.911a7.038,7.038,0,0,0,.061-.917c0-11.855-7.908-21.763-18.366-23.99l-15.717-28.969c-5.552-9.955-13.748-21.381-27.963-21.381H158.795c-11.478,0-21.521,7.627-28.3,21.482l-16.232,28.763C103.733,202.282,96,212.093,96,224.228a6.97,6.97,0,0,0,.056.878l5.18,40.927a15.927,15.927,0,0,0,10.083,14.291v10.335a11.466,11.466,0,0,0,11.453,11.453h13.522a11.466,11.466,0,0,0,11.453-11.453v-9.223H248.253v9.223a11.466,11.466,0,0,0,11.453,11.453Zm-2.547-14h-8.428v-6.676h8.428ZM142.792,178.066c.071-.127.139-.255.2-.386,2.5-5.151,7.871-13.792,15.8-13.792h79.159c5.479,0,10.185,4.247,15.7,14.129l11.8,21.746h-6.467a25.465,25.465,0,0,0-49.3,0H130.548Zm101.051,21.7H224.819a11.453,11.453,0,0,1,19.024,0Zm-110.1,88.349h-8.428v-6.676h8.428Zm-16.612-20.676a1.932,1.932,0,0,1-1.906-1.906,6.986,6.986,0,0,0-.056-.879l-5.167-40.816c.152-4.854,3.115-9.728,8.013-10.108.179.014.358.036.541.036H277.094c.029,0,.057,0,.087,0,5.3,0,8.636,5.142,8.812,10.054L280.6,264.613a7.038,7.038,0,0,0-.061.917,1.931,1.931,0,0,1-1.905,1.906Z" style="fill:#0635c9"/><path d="M224.743,241.842H171.258a7,7,0,0,0,0,14h53.485a7,7,0,0,0,0-14Z" style="fill:#0635c9"/><path d="M254,334a7,7,0,0,0-7-7H103a7,7,0,0,0,0,14H247A7,7,0,0,0,254,334Z" style="fill:#0635c9"/><path d="M103,361a7,7,0,0,0,0,14H210a7,7,0,0,0,0-14Z" style="fill:#0635c9"/><path d="M230.95,25.05A7,7,0,0,0,226,23H86A35.04,35.04,0,0,0,51,58V394a35.04,35.04,0,0,0,35,35H275.723V415H86a21.024,21.024,0,0,1-21-21V58A21.024,21.024,0,0,1,86,37H219v77a35.04,35.04,0,0,0,35,35h77V301.162h14V142a7,7,0,0,0-2.05-4.95ZM233,114V46.9L321.1,135H254A21.024,21.024,0,0,1,233,114Z" style="fill:#1ae5be"/><path d="M397,348.312a7,7,0,0,0,0-14H327a7,7,0,0,0,0,14h20.03a23.073,23.073,0,0,1,21.943,16.034H327a7,7,0,0,0,0,14h41.973a23.072,23.072,0,0,1-21.943,16.033H327a7,7,0,0,0-4.808,12.088l50.064,47.309a7,7,0,0,0,9.615-10.176L344.6,408.379h2.43a37.09,37.09,0,0,0,36.361-30.033H397a7,7,0,0,0,0-14H383.391A36.9,36.9,0,0,0,376,348.312Z" style="fill:#1ae5be"/><path d="M115.6,244.048a18.678,18.678,0,1,0,18.677-18.678A18.7,18.7,0,0,0,115.6,244.048Zm23.355,0a4.678,4.678,0,1,1-4.678-4.678A4.684,4.684,0,0,1,138.953,244.048Z" style="fill:#1ae5be"/><path d="M261.726,225.37A18.678,18.678,0,1,0,280.4,244.048,18.7,18.7,0,0,0,261.726,225.37Zm0,23.356a4.678,4.678,0,1,1,4.677-4.678A4.683,4.683,0,0,1,261.726,248.726Z" style="fill:#1ae5be"/><path d="M362,489a99.014,99.014,0,1,0-99-99A99.112,99.112,0,0,0,362,489ZM339.819,307.921A85.014,85.014,0,1,1,277,390,85.291,85.291,0,0,1,339.819,307.921Z" style="fill:#0635c9"/></svg>
