<?xml version="1.0"?>
<svg xmlns="http://www.w3.org/2000/svg" id="Layer_1" data-name="Layer 1" viewBox="0 0 512 512" width="512" height="512"><title>Service Location 2</title><path d="M174.408,332.334c-17.111-17.93-29.681-37.518-37.358-58.218a155.363,155.363,0,0,1-9.709-64.919,166.936,166.936,0,0,1,49.353-107.53A159.737,159.737,0,0,1,273,56.288a165.8,165.8,0,0,0-17-.88,160.2,160.2,0,0,0-113.306,46.259A166.936,166.936,0,0,0,93.341,209.2a155.363,155.363,0,0,0,9.709,64.919c7.677,20.7,20.247,40.288,37.358,58.218L256,453.452l17-17.813Z" style="fill:#d4e1f4"/><path d="M335.474,181.96l-14.81-27.3c-5.309-9.519-13.153-20.445-26.812-20.445H218.858c-11.017,0-20.648,7.3-27.136,20.547l-15.288,27.092C166.37,183.993,159,193.4,159,205.015a6.974,6.974,0,0,0,.056.879l4.905,38.754a15.468,15.468,0,0,0,9.552,13.769v9.532a11.231,11.231,0,0,0,11.218,11.219h12.811a11.231,11.231,0,0,0,11.219-11.219V259.58h94.478v8.369a11.231,11.231,0,0,0,11.219,11.219h12.811a11.231,11.231,0,0,0,11.218-11.219v-9.634a15.458,15.458,0,0,0,9.332-13.644l5.12-38.739a7.038,7.038,0,0,0,.061-.917C353,193.669,345.466,184.174,335.474,181.96Zm-131.455-20.5c.071-.127.138-.256.2-.386,2.328-4.8,7.327-12.858,14.637-12.858h74.994c5.038,0,9.4,3.967,14.545,13.192l10.882,20.058h-5.228a24.488,24.488,0,0,0-47.264,0H192.729ZM298.7,181.469H282.141a10.452,10.452,0,0,1,16.556,0Zm-103.936,83.7h-7.248V259.58h7.248Zm129.726,0h-7.248V259.58h7.248Zm9.4-21.942a7.015,7.015,0,0,0-.061.917,1.456,1.456,0,0,1-1.437,1.437h-153a1.456,1.456,0,0,1-1.438-1.437,6.792,6.792,0,0,0-.056-.879l-4.89-38.639c.148-4.412,2.819-8.833,7.227-9.19.169.013.336.034.507.034H330.936c.025,0,.05,0,.077,0,4.79,0,7.807,4.669,7.979,9.139Z" style="fill:#0635c9"/><path d="M281.335,221.334h-50.67a7,7,0,0,0,0,14h50.67a7,7,0,0,0,0-14Z" style="fill:#0635c9"/><path d="M195.63,205.728a18.063,18.063,0,1,0,18.062,18.063A18.084,18.084,0,0,0,195.63,205.728Zm0,22.126a4.063,4.063,0,1,1,4.062-4.063A4.069,4.069,0,0,1,195.63,227.854Z" style="fill:#0635c9"/><path d="M316.371,205.728a18.063,18.063,0,1,0,18.064,18.063A18.083,18.083,0,0,0,316.371,205.728Zm0,22.126a4.063,4.063,0,1,1,4.064-4.063A4.068,4.068,0,0,1,316.371,227.854Z" style="fill:#0635c9"/><path d="M256,79.814c-69.31,0-125.7,56.928-125.7,126.9s56.387,126.9,125.7,126.9,125.7-56.928,125.7-126.9S325.31,79.814,256,79.814Zm0,239.8c-61.59,0-111.7-50.647-111.7-112.9S194.41,93.814,256,93.814s111.7,50.648,111.7,112.9S317.59,319.617,256,319.617Z" style="fill:#1ae5be"/><path d="M379.142,91.705a175.893,175.893,0,0,0-246.284,0A180.911,180.911,0,0,0,79.374,208.248a169.284,169.284,0,0,0,10.549,70.737c8.345,22.5,21.923,43.7,40.358,63.015L250.936,468.425a7,7,0,0,0,10.128,0L381.719,342c18.435-19.316,32.013-40.518,40.358-63.015a169.284,169.284,0,0,0,10.549-70.737A180.911,180.911,0,0,0,379.142,91.705ZM408.95,274.116c-7.677,20.7-20.247,40.288-37.358,58.218L256,453.452,140.408,332.334c-17.111-17.93-29.681-37.518-37.358-58.218A155.363,155.363,0,0,1,93.341,209.2a166.936,166.936,0,0,1,49.353-107.53,161.894,161.894,0,0,1,226.612,0A166.936,166.936,0,0,1,418.659,209.2,155.363,155.363,0,0,1,408.95,274.116Z" style="fill:#1ae5be"/></svg>
