<?xml version="1.0"?>
<svg xmlns="http://www.w3.org/2000/svg" id="Layer_1" data-name="Layer 1" viewBox="0 0 512 512" width="512" height="512"><title>Service monitoring </title><path d="M119.175,58h-30a33.037,33.037,0,0,0-33,33V292.918h30V91A33.037,33.037,0,0,1,119.175,58Z" style="fill:#d4e1f4"/><path d="M452.825,348.239H119.175a33.036,33.036,0,0,1-33-33v-8.321h-30v28.321a33.036,33.036,0,0,0,33,33h333.65a33.046,33.046,0,0,0,30.331-20.008C453.045,348.232,452.936,348.239,452.825,348.239Z" style="fill:#d4e1f4"/><path d="M422.825,382.239a47.053,47.053,0,0,0,47-47V91a47.053,47.053,0,0,0-47-47H89.175a47.053,47.053,0,0,0-47,47V335.239a47.053,47.053,0,0,0,47,47H249V454H173.373a7,7,0,0,0,0,14H343.41a7,7,0,0,0,0-14H263V382.239ZM56.175,91a33.037,33.037,0,0,1,33-33h333.65a33.037,33.037,0,0,1,33,33V292.918H56.175Zm33,277.236a33.036,33.036,0,0,1-33-33V306.918h399.65v28.321a33.036,33.036,0,0,1-33,33Z" style="fill:#0635c9"/><path d="M287.875,234.337a16.4,16.4,0,0,0,10.37-14.7l5.695-43.082a7.037,7.037,0,0,0,.06-.917c0-12.364-8.283-22.685-19.206-24.924L268.17,120.067c-5.8-10.389-14.342-22.316-29.113-22.316H145.732c-11.936,0-22.393,7.957-29.464,22.415L99.093,150.6C88.1,152.762,80,162.979,80,175.635a7.166,7.166,0,0,0,.055.879l5.456,43.1a16.393,16.393,0,0,0,10.614,14.813v11.138a11.7,11.7,0,0,0,11.688,11.687h14.234a11.7,11.7,0,0,0,11.687-11.687V235.485H250.266v10.077a11.7,11.7,0,0,0,11.687,11.687h14.234a11.7,11.7,0,0,0,11.688-11.687ZM128.565,126.862c.071-.127.139-.256.2-.385,2.667-5.5,8.417-14.726,16.965-14.726h93.325c5.919,0,10.969,4.526,16.847,15.064l12.713,23.436H260.9a26.432,26.432,0,0,0-51.314,0h-94.22Zm117.346,23.389H224.575a12.4,12.4,0,0,1,21.336,0ZM102.8,164.213c.191.016.382.038.576.038H280.271c.026,0,.051,0,.077,0,5.814,0,9.467,5.617,9.645,10.971l-5.68,42.967a7.037,7.037,0,0,0-.06.917,2.407,2.407,0,0,1-2.375,2.375h-180A2.406,2.406,0,0,1,99.5,219.11a6.974,6.974,0,0,0-.056-.879l-5.442-42.992C94.16,169.943,97.416,164.615,102.8,164.213Zm16.931,79.036h-9.609v-7.764h9.609Zm144.532,0v-7.764h9.609v7.764Z" style="fill:#1ae5be"/><path d="M158.851,208.545h66.3a7,7,0,0,0,0-14h-66.3a7,7,0,0,0,0,14Z" style="fill:#1ae5be"/><path d="M119.922,215.79A19.293,19.293,0,1,0,100.629,196.5,19.314,19.314,0,0,0,119.922,215.79Zm0-24.585a5.293,5.293,0,1,1-5.293,5.292A5.3,5.3,0,0,1,119.922,191.205Z" style="fill:#1ae5be"/><path d="M264.079,215.79A19.293,19.293,0,1,0,244.787,196.5,19.315,19.315,0,0,0,264.079,215.79Zm0-24.585a5.293,5.293,0,1,1-5.292,5.292A5.3,5.3,0,0,1,264.079,191.205Z" style="fill:#1ae5be"/><path d="M352,138.5h73a7,7,0,0,0,0-14H352a7,7,0,0,0,0,14Z" style="fill:#1ae5be"/><path d="M352,168.5h73a7,7,0,0,0,0-14H352a7,7,0,0,0,0,14Z" style="fill:#1ae5be"/><path d="M352,198.5h73a7,7,0,0,0,0-14H352a7,7,0,0,0,0,14Z" style="fill:#1ae5be"/><path d="M352,228.5h73a7,7,0,0,0,0-14H352a7,7,0,0,0,0,14Z" style="fill:#1ae5be"/></svg>
