<?xml version="1.0"?>
<svg xmlns="http://www.w3.org/2000/svg" id="Layer_1" data-name="Layer 1" viewBox="0 0 512 512" width="512" height="512"><title>Sign board</title><path d="M137.891,305.022a14.858,14.858,0,0,1-12.741-22.5L270,41.107l-1.26-2.1a14.857,14.857,0,0,0-25.479,0L85.15,302.521a14.858,14.858,0,0,0,12.741,22.5H414.109a14.862,14.862,0,0,0,13.943-20Z" style="fill:#d4e1f4"/><path d="M280.745,31.8a28.857,28.857,0,0,0-49.489,0L73.146,295.318a28.857,28.857,0,0,0,24.745,43.7H227.143V487.207a7,7,0,0,0,7,7h43.714a7,7,0,0,0,7-7V339.022H414.109a28.857,28.857,0,0,0,24.745-43.7Zm-9.888,448.4H241.143V339.022h29.714ZM427.038,317.485a14.688,14.688,0,0,1-12.929,7.537H97.891a14.858,14.858,0,0,1-12.741-22.5L243.261,39.006a14.857,14.857,0,0,1,25.479,0L426.85,302.521A14.691,14.691,0,0,1,427.038,317.485Z" style="fill:#0635c9"/><path d="M190.088,226.277l-4.481,15.411a7.024,7.024,0,0,0-.278,1.955v48.919a21.155,21.155,0,0,0,21.131,21.13h11.3a21.155,21.155,0,0,0,21.131-21.13V243.643a6.988,6.988,0,0,0-.279-1.955l-4.48-15.411a7,7,0,0,0-.912-13.934H219.112V130.979a7,7,0,1,0-14,0v81.364H191a7,7,0,0,0-.912,13.934ZM224.9,292.562a7.139,7.139,0,0,1-7.131,7.13h-11.3a7.138,7.138,0,0,1-7.131-7.13V244.64l5.32-18.3h14.926l5.321,18.3Z" style="fill:#1ae5be"/><path d="M260.351,207.541v85.242a20.909,20.909,0,0,0,41.818,0V207.541A46.993,46.993,0,0,0,328,165.73a46.519,46.519,0,0,0-25.888-41.841,7,7,0,0,0-10.128,6.262v19.042l-10.519,7-10.933-7.648.064-18.4a7.006,7.006,0,0,0-10.122-6.3A46.5,46.5,0,0,0,234.52,165.73,46.993,46.993,0,0,0,260.351,207.541Zm-3.8-63.331-.027,7.953a7,7,0,0,0,2.987,5.76l17.847,12.486a7,7,0,0,0,7.893.091l17.617-11.732a7,7,0,0,0,3.12-5.826v-8.715A32.789,32.789,0,0,1,292.72,196.41a7,7,0,0,0-4.551,6.557v89.816a6.909,6.909,0,0,1-13.818,0V202.967a7,7,0,0,0-4.551-6.557,32.793,32.793,0,0,1-13.253-52.2Z" style="fill:#1ae5be"/></svg>
