<?xml version="1.0"?>
<svg xmlns="http://www.w3.org/2000/svg" id="Layer_1" data-name="Layer 1" viewBox="0 0 512 512" width="512" height="512"><title>Suspension</title><path d="M243,88.935a43.069,43.069,0,0,1,28-40.3,43,43,0,1,0,0,80.591A43.069,43.069,0,0,1,243,88.935Z" style="fill:#d4e1f4"/><path d="M243,423.065a43.069,43.069,0,0,1,28-40.3,43,43,0,1,0,0,80.591A43.069,43.069,0,0,1,243,423.065Z" style="fill:#d4e1f4"/><path d="M291.236,377.729a7,7,0,0,0,2.027-4.962l-.534-104.088a7,7,0,0,0-7-6.964h-.037a7,7,0,0,0-6.963,7.036l.5,97.082-46,.2-.5-97.355a7,7,0,0,0-7-6.965h-.037a7,7,0,0,0-6.963,7.036l.534,104.35a7,7,0,0,0,7,6.964h.031l60-.262A7.008,7.008,0,0,0,291.236,377.729Z" style="fill:#0635c9"/><path d="M256,145.935a57,57,0,1,0-57-57A57.065,57.065,0,0,0,256,145.935Zm0-100a43,43,0,1,1-43,43A43.048,43.048,0,0,1,256,45.935Z" style="fill:#0635c9"/><path d="M256,366.065a57,57,0,1,0,57,57A57.065,57.065,0,0,0,256,366.065Zm0,100a43,43,0,1,1,43-43A43.048,43.048,0,0,1,256,466.065Z" style="fill:#1ae5be"/><path d="M206.153,275.715h100a7,7,0,0,0,7-7.016l-.305-130a7,7,0,0,0-7-6.983h-.031l-100,.438a7,7,0,0,0-6.969,7.016l.3,129.562A7,7,0,0,0,206.153,275.715Zm92.816-85.121L244.26,261.715H220.385L298.9,159.651ZM213.1,248.217l-.064-27.452,57.611-74.895,21.253-.093Zm48.82,13.5,37.1-48.228.114,48.228Zm-9-115.767-39.942,51.924-.122-51.749Z" style="fill:#1ae5be"/></svg>
