<?xml version="1.0"?>
<svg xmlns="http://www.w3.org/2000/svg" id="Layer_1" data-name="Layer 1" viewBox="0 0 512 512" width="512" height="512"><title>Technician Helmate</title><path d="M177.6,215.04h38.332a7,7,0,0,0,0-14H177.6a7,7,0,0,0,0,14Z" style="fill:#0635c9"/><path d="M177.6,179.7h38.332a7,7,0,0,0,0-14H177.6a7,7,0,0,0,0,14Z" style="fill:#0635c9"/><path d="M498.634,222.2a10.877,10.877,0,0,0,2.89-14.114l-29.852-50.209c-3.626-6.033-9.5-6.326-13.515-4.043L426.332,168.48a124.491,124.491,0,0,0-22.815-13.21l-3.176-34.965a7.068,7.068,0,0,0-.158-.971,10.721,10.721,0,0,0-10.209-8.6h-58.3c-5.459,0-10.1,4.191-10.351,9.245l-3.192,35.286c-10.041,4.454-18.121,9.233-24.656,14.58a7,7,0,0,0,8.865,10.836c5.925-4.848,13.536-9.233,23.264-13.4l1.877-.8a7,7,0,0,0,4.218-5.805l3.251-35.937h51.735l3.264,35.939a7,7,0,0,0,4.217,5.8l1.873.8a111.72,111.72,0,0,1,23.61,13.671l1.629,1.224a7,7,0,0,0,7.13.763l32.88-15.127,26.649,44.823L458.165,233.8a7,7,0,0,0-2.874,6.692l.294,2.067A92.1,92.1,0,0,1,456.837,256a91.333,91.333,0,0,1-1.247,13.427l-.288,1.993a7,7,0,0,0,2.687,6.566l27.989,21.323-26.069,44.875-32.945-15.16a7.006,7.006,0,0,0-7.358.941l-1.655,1.353c-5.91,4.839-13.523,9.224-23.269,13.405l-1.869.8a7,7,0,0,0-4.215,5.8l-3.258,35.938H333.608l-3.271-35.941a7,7,0,0,0-4.214-5.8l-1.866-.8c-2.113-.908-4.184-1.865-6.154-2.847a7,7,0,1,0-6.244,12.531c1.589.792,3.235,1.569,4.912,2.32l3.183,34.971a6.926,6.926,0,0,0,.157.97,10.72,10.72,0,0,0,10.2,8.594h58.3c5.458,0,10.092-4.189,10.347-9.243l3.2-35.289a110.934,110.934,0,0,0,22.887-13.176l31.893,14.674c.117.054.237.1.357.153,4.814,1.9,10.688-.034,13-4.225l29.149-50.177a10.819,10.819,0,0,0-2.89-14.208L469.741,269.34a81.6,81.6,0,0,0,.01-26.6l28.73-20.429Z" style="fill:#1ae5be"/><path d="M372.519,319.344a7,7,0,1,0,2.492,13.777,77.75,77.75,0,0,0,45.747-26.474A78.926,78.926,0,0,0,438.9,256c0-43.97-34.444-78.412-78.415-78.412A78.266,78.266,0,0,0,312.42,193.66a7,7,0,1,0,8.516,11.111,64.381,64.381,0,0,1,39.547-13.183c36.121,0,64.415,28.293,64.415,64.412C424.9,287.717,403.359,313.765,372.519,319.344Z" style="fill:#1ae5be"/><path d="M360.485,216.838a39.36,39.36,0,0,0-20.845,5.869,175.405,175.405,0,0,0-15.613-25.378c-21.213-28.637-50.539-49.671-83.078-59.717l1.477-14.228a7,7,0,0,0-6.963-7.723H154.3a7,7,0,0,0-6.963,7.723l1.477,14.229c-32.527,10.048-61.854,31.132-83.083,59.863A182.5,182.5,0,0,0,30.636,299.8H16a7,7,0,0,0-7,7v41.339a7,7,0,0,0,7,7H373.764a7,7,0,0,0,7-7V306.8a7,7,0,0,0-7-7H359.136q-.068-2.349-.2-4.694c.514.019,1.027.053,1.544.053a39.163,39.163,0,1,0,0-78.325ZM134.457,158.182a139.7,139.7,0,0,1,23.723-8.7A7,7,0,0,0,163.345,142l-1.28-12.337H227.7L226.419,142a7,7,0,0,0,5.165,7.488,140.368,140.368,0,0,1,23.723,8.684v16.974a90.173,90.173,0,0,1-58.654,84.466,89.926,89.926,0,0,1-62.2-85.7ZM76.991,205.8a154.939,154.939,0,0,1,43.466-40.04v8.151a103.893,103.893,0,0,0,71.926,99.037l2.213.72a6.99,6.99,0,0,0,4.442-.037,104.174,104.174,0,0,0,70.269-98.482v-9.419a154.775,154.775,0,0,1,43.471,39.938A167.857,167.857,0,0,1,345.131,299.8H44.641A168.4,168.4,0,0,1,76.991,205.8ZM366.764,313.8v27.339H23V313.8Zm-6.279-32.641a26.821,26.821,0,0,1-2.872-.169,183.913,183.913,0,0,0-12.089-45.389,25.313,25.313,0,0,1,14.961-4.767,25.163,25.163,0,1,1,0,50.325Z" style="fill:#0635c9"/><path d="M121.532,188.783a105.033,105.033,0,0,1-1.075-14.877v-8.151A154.939,154.939,0,0,0,76.991,205.8,168.4,168.4,0,0,0,44.641,299.8h30a168.4,168.4,0,0,1,32.35-94.009A158.039,158.039,0,0,1,121.532,188.783Z" style="fill:#d4e1f4"/><path d="M222.383,272.943l2.213.72a6.99,6.99,0,0,0,4.442-.037,104.177,104.177,0,0,0,69.348-84.777,152.924,152.924,0,0,0-29.079-23.124v9.419a104.18,104.18,0,0,1-58.136,93.421A105.339,105.339,0,0,0,222.383,272.943Z" style="fill:#d4e1f4"/></svg>
