<?xml version="1.0"?>
<svg xmlns="http://www.w3.org/2000/svg" id="Layer_1" data-name="Layer 1" viewBox="0 0 512 512" width="512" height="512"><title>Technician</title><path d="M222.179,202.14c17.613,0,35.856-3.51,54.221-10.524a191.482,191.482,0,0,0,24.217-11.283,97.19,97.19,0,0,1-10.314-8.952,191.948,191.948,0,0,1-38.821,20.235,157.5,157.5,0,0,1-41.685,9.933Q215.927,202.139,222.179,202.14Z" style="fill:#d4e1f4"/><path d="M192.79,229.12v-.149a8.676,8.676,0,0,0-7.217-8.531,16.537,16.537,0,0,1-13.284-20.246,11.377,11.377,0,0,1,.485-1.508,121.982,121.982,0,0,1-18.266-5.93,10.106,10.106,0,0,0-7.137,7.438,16.537,16.537,0,0,0,13.284,20.246,8.676,8.676,0,0,1,7.217,8.531v.149c0,49.816,40.811,90.344,90.974,90.344A91.913,91.913,0,0,0,271.3,318.6C227.018,312.542,192.79,274.737,192.79,229.12Z" style="fill:#d4e1f4"/><path d="M246.5,349.324v-20.8a115.629,115.629,0,0,1-26.565-5.85v26.653a100.244,100.244,0,0,0,51.818,6.793A99.41,99.41,0,0,1,246.5,349.324Z" style="fill:#d4e1f4"/><path d="M180.7,385.235l46.444-19.683a110.19,110.19,0,0,1-13.295-4.927l-58.067,24.61A44.412,44.412,0,0,0,131.617,420.6v73.751h24.918V420.6A44.412,44.412,0,0,1,180.7,385.235Z" style="fill:#d4e1f4"/><path d="M347.6,410.416h-3.619V367.505h-14v42.911h-7.24V356.885h-14v53.531H201.676V359.009h-14v51.407h-7.239V367.505h-14v42.911h-3.62a7,7,0,0,0-7,7V496h14V424.416H340.6V496h14V417.416A7,7,0,0,0,347.6,410.416Z" style="fill:#1ae5be"/><path d="M326.356,447.778a7,7,0,0,0,7-7v-6.371a7,7,0,1,0-14,0v6.371A7,7,0,0,0,326.356,447.778Z" style="fill:#0635c9"/><path d="M184.056,427.407a7,7,0,0,0-7,7v6.371a7,7,0,0,0,14,0v-6.371A7,7,0,0,0,184.056,427.407Z" style="fill:#0635c9"/><path d="M359.626,231.324a30.784,30.784,0,0,0,14.3-33.856A24.64,24.64,0,0,0,358.591,180.1l1.13-16.376-13.967-.963-1.173,17.011c-26.731,6.852-47.909-19.864-48.833-21.05a7.005,7.005,0,0,0-9.95-1.163,157.687,157.687,0,0,1-38.874,21.43c-29.086,11.1-56.476,11.757-81.478,2l-1.257-18.227-13.966.963,1.128,16.349a24.631,24.631,0,0,0-15.4,17.393,30.779,30.779,0,0,0,16.49,35.021l-30.9,97.393a7,7,0,0,0,5,8.914c1.172.289,22.756,5.48,54.76,5.48,7.746,0,16.108-.309,24.934-1.061v4.857l-53.875,22.992c-.129.056-.257.115-.383.178A57.086,57.086,0,0,0,120.8,417.286q-.025.291-.025.582v78a7,7,0,0,0,7,7H382.64a7,7,0,0,0,7-7v-78q0-.291-.025-.581a57.082,57.082,0,0,0-31.173-46.044c-.126-.063-.254-.122-.382-.178l-53.874-22.992v-5.082c12.666.985,27.3,1.008,28.015,1.009h0a7,7,0,0,0,5.769-3.034l3.552-5.169,1.365,3.451a7.007,7.007,0,0,0,6.958,4.412c21.777-1.4,35.477-4.722,36.049-4.862a7,7,0,0,0,5-8.915ZM193.064,330.016l2.952-12.4a7,7,0,1,0-13.62-3.242l-3.774,15.853a265.354,265.354,0,0,1-41.375-3.581L159.1,257.763a100.775,100.775,0,0,0,47.123,58.173v13.23C201.712,329.568,197.319,329.842,193.064,330.016Zm159.3,53.839a43.011,43.011,0,0,1,23.278,34.316v70.7H134.772v-70.7a43.013,43.013,0,0,1,23.278-34.315l54.829-23.4a102.467,102.467,0,0,0,84.655,0ZM220.228,348.406V322.39a100.246,100.246,0,0,0,69.958-.174v26.19A88.508,88.508,0,0,1,220.228,348.406Zm34.744-33.8a86.375,86.375,0,0,1-86.278-86.277v-.141a7,7,0,0,0-5.793-6.9A16.7,16.7,0,0,1,149.066,204.8a16.876,16.876,0,0,1,.48-4,10.644,10.644,0,0,1,7.878-7.956,114.147,114.147,0,0,0,44.6,8.9,140.152,140.152,0,0,0,50.315-9.837,177.516,177.516,0,0,0,36.866-19.477c7.756,8.032,24.752,22.525,46.433,22.523a49.706,49.706,0,0,0,15.207-2.423,10.823,10.823,0,0,1,9.482,8.266,16.876,16.876,0,0,1,.48,4,16.707,16.707,0,0,1-13.8,16.486,7,7,0,0,0-5.78,6.893v.149A86.368,86.368,0,0,1,254.972,314.6Zm99.049,14.712-4.305-10.889a7,7,0,0,0-12.278-1.393l-8.893,12.935c-5.357-.07-15.634-.3-24.359-1.025v-13.28a100.688,100.688,0,0,0,47.82-62.068l23.184,73.068C370.259,327.518,363.024,328.571,354.021,329.316Z" style="fill:#0635c9"/><path d="M268.949,64.755H243.918a7,7,0,0,0,0,14h25.031a7,7,0,0,0,0-14Z" style="fill:#0635c9"/><path d="M268.949,41.678H243.918a7,7,0,0,0,0,14h25.031a7,7,0,0,0,0-14Z" style="fill:#0635c9"/><path d="M379.021,136.25a7,7,0,0,0-7-7h-7.227a121.183,121.183,0,0,0-23.3-65.936,110.281,110.281,0,0,0-53.584-39.263l.761-7.328A7,7,0,0,0,281.707,9h-53a7,7,0,0,0-6.963,7.723l.761,7.329a110.216,110.216,0,0,0-53.589,39.36A121.548,121.548,0,0,0,145.63,129.25h-7.237a7,7,0,0,0-7,7v27a7,7,0,0,0,7,7H372.021a7,7,0,0,0,7-7ZM231.863,35.865a7,7,0,0,0,5.165-7.488L236.47,23h37.473l-.558,5.377a7,7,0,0,0,5.165,7.488,88.912,88.912,0,0,1,13.686,4.894v9.513a56.457,56.457,0,0,1-35.926,52.581,56.3,56.3,0,0,1-38.133-53.388v-8.7A88.593,88.593,0,0,1,231.863,35.865ZM180.175,71.732a99.171,99.171,0,0,1,24-23.12v.853a70.267,70.267,0,0,0,48.643,66.982l1.446.471a7,7,0,0,0,4.445-.037,70.458,70.458,0,0,0,47.525-66.609V48.586a99.042,99.042,0,0,1,24.007,23.062,107.057,107.057,0,0,1,20.529,57.6H159.651A107.4,107.4,0,0,1,180.175,71.732Zm184.846,84.513H145.393v-13H365.021Z" style="fill:#1ae5be"/></svg>
