<?xml version="1.0"?>
<svg xmlns="http://www.w3.org/2000/svg" id="Layer_1" data-name="Layer 1" viewBox="0 0 512 512" width="512" height="512"><title>Vehicle  Service </title><polygon points="92.832 456.031 76.978 326.031 54.539 326.031 72.832 476.031 147.181 476.031 141.083 456.031 92.832 456.031" style="fill:#d4e1f4"/><path d="M428.712,323.912l-36.818,19.863-30.444,20.9a6.943,6.943,0,0,1-5.742,3.943l-33.442,22.961a84.25,84.25,0,0,1-51.611,7.14l-74.68-13.751a34.711,34.711,0,0,0-25.27,3.439c-.11.061-.218.126-.324.193l-29.527,18.666,6.728,22.069,32.8-20.735c.106-.067.214-.132.324-.193a34.711,34.711,0,0,1,25.27-3.439l74.68,13.751a84.25,84.25,0,0,0,51.611-7.14l122.928-84.4A22.993,22.993,0,0,0,428.712,323.912Z" style="fill:#d4e1f4"/><path d="M106.918,470.721a19,19,0,1,0-19-19A19.022,19.022,0,0,0,106.918,470.721Zm0-24a5,5,0,1,1-5,5A5.006,5.006,0,0,1,106.918,446.721Z" style="fill:#0635c9"/><path d="M145.328,164.843l18.994,1.831a94.052,94.052,0,0,0,9.4,22.341l-12.063,14.566A7,7,0,0,0,162.1,213l22.778,22.778a7,7,0,0,0,9.415.442l14.6-12.095a95.782,95.782,0,0,0,22.3,9.426l1.831,19A7,7,0,0,0,240,258.873h32.294a7,7,0,0,0,6.968-6.329l1.831-18.993a94.021,94.021,0,0,0,22.34-9.4L318,236.216a7,7,0,0,0,9.414-.442L350.189,213a7,7,0,0,0,.443-9.415l-12.1-14.6a95.788,95.788,0,0,0,9.428-22.307l18.716-1.827a7,7,0,0,0,6.32-6.967V125.582a7,7,0,0,0-6.328-6.968l-18.994-1.83a94.052,94.052,0,0,0-9.4-22.341l12.063-14.567a7,7,0,0,0-.41-9.382L327.442,47.715A7,7,0,0,0,318,47.242l-14.6,12.1a95.782,95.782,0,0,0-22.3-9.426l-1.831-19a7,7,0,0,0-6.968-6.329H240a7,7,0,0,0-6.968,6.329L231.2,49.907a94.021,94.021,0,0,0-22.34,9.4L194.292,47.242a7,7,0,0,0-9.415.442L162.1,70.462a7,7,0,0,0-.442,9.414l12.1,14.606a95.782,95.782,0,0,0-9.426,22.3l-19,1.831A7,7,0,0,0,139,125.582v32.293A7,7,0,0,0,145.328,164.843ZM153,131.94l17.6-1.7a7,7,0,0,0,6.169-5.488A81.95,81.95,0,0,1,188.212,97.66a7,7,0,0,0-.49-8.259L176.505,75.855l13.766-13.766,13.544,11.217a7,7,0,0,0,8.348.434A79.385,79.385,0,0,1,239.17,62.358a7,7,0,0,0,5.488-6.17l1.7-17.6h19.58l1.7,17.6a7,7,0,0,0,5.488,6.17,81.95,81.95,0,0,1,27.1,11.439,7,7,0,0,0,8.26-.491l13.513-11.191,13.535,13.709L324.278,89.4a7,7,0,0,0-.432,8.347,79.405,79.405,0,0,1,11.381,27.007,7,7,0,0,0,6.169,5.488l17.6,1.7v19.585l-17.323,1.691a7,7,0,0,0-6.162,5.487,81.929,81.929,0,0,1-11.439,27.1,7,7,0,0,0,.49,8.26L335.784,207.6l-13.766,13.766-13.545-11.217a7,7,0,0,0-8.348-.434A79.385,79.385,0,0,1,273.118,221.1a7,7,0,0,0-5.488,6.17l-1.7,17.6h-19.58l-1.7-17.6a7,7,0,0,0-5.488-6.17,81.95,81.95,0,0,1-27.095-11.439,7,7,0,0,0-8.26.491l-13.544,11.217L176.505,207.6l11.217-13.545a7,7,0,0,0,.432-8.348A79.422,79.422,0,0,1,176.773,158.7a7,7,0,0,0-6.169-5.488l-17.6-1.7Z" style="fill:#0635c9"/><path d="M256.145,211.6a69.875,69.875,0,1,0-69.875-69.874A69.953,69.953,0,0,0,256.145,211.6Zm0-125.749a55.875,55.875,0,1,1-55.875,55.875A55.939,55.939,0,0,1,256.145,85.854Z" style="fill:#0635c9"/><path d="M116.738,351.415a55.646,55.646,0,0,0,26.9-13.159l12.186-10.849A75.621,75.621,0,0,1,234.3,319.89l5.138,2.485a66.61,66.61,0,0,0,28.838,6.608H318.1a30.1,30.1,0,0,1,29.134,22.683l-34.274-1.551a217.424,217.424,0,0,0-39.563,1.827,7,7,0,0,0,1.92,13.869,203.465,203.465,0,0,1,37.01-1.71l42.5,1.923c.1,0,.211.007.316.007a7,7,0,0,0,7-7c0-.624-.021-1.244-.046-1.862l5.039-2.657,61.57-33.216a22.988,22.988,0,0,1,26.481,3.267l-122.926,84.4a84.254,84.254,0,0,1-51.612,7.14l-74.68-13.752a34.727,34.727,0,0,0-25.271,3.44c-.109.062-.218.126-.323.193l-40.559,25.64a7,7,0,1,0,7.481,11.834l40.388-25.533a20.774,20.774,0,0,1,15.1-1.939c.144.037.29.069.437.1l74.909,13.794a98.351,98.351,0,0,0,60.775-8.58,6.9,6.9,0,0,0,.856-.5L469.328,331.84a7,7,0,0,0,2.035-9.381,36.971,36.971,0,0,0-49.3-13.483l-1.206.65c-9.43-10.647-25.1-14.624-37.122-8.529l-.156.082-4.376,2.357a41.006,41.006,0,0,0-46.19-3.639l-27.741,15.086h-37a52.523,52.523,0,0,1-22.743-5.212l-5.137-2.484a89.566,89.566,0,0,0-93.215,9.1c-.154.115-.3.237-.446.364L134.325,327.8a41.635,41.635,0,0,1-20.13,9.848,7,7,0,0,0,2.543,13.768Zm291.14-34.787-47.324,25.531-1.465.773a43.993,43.993,0,0,0-5.364-9.764l36.409-19.618C395.813,310.717,402.838,312.623,407.878,316.628Zm-68.1-4.475c.056-.03.112-.061.166-.092a26.983,26.983,0,0,1,25.213-.957l-21.9,11.8a43.891,43.891,0,0,0-12.241-5.986Z" style="fill:#1ae5be"/><path d="M243.656,163.094a7,7,0,0,0,9.78,0l33.506-32.713a7,7,0,1,0-9.779-10.018L248.546,148.3l-13.709-13.384a7,7,0,1,0-9.779,10.018Z" style="fill:#1ae5be"/><path d="M59.686,481.262a7,7,0,0,0,6.948,6.153h90a7,7,0,0,0,6.7-9.041l-50-164a7,7,0,0,0-6.695-4.959h-60a7,7,0,0,0-6.948,7.847ZM101.45,323.415l45.732,150H72.832l-18.293-150Z" style="fill:#0635c9"/></svg>
