<?xml version="1.0"?>
<svg xmlns="http://www.w3.org/2000/svg" id="Layer_1" data-name="Layer 1" viewBox="0 0 512 512" width="512" height="512"><title>Wash</title><path d="M168.848,428.723a41.8,41.8,0,0,1,6.917,15.95h6.615A42.278,42.278,0,0,0,168.848,428.723Z" style="fill:#d4e1f4"/><path d="M63,418.592A27.165,27.165,0,0,1,67.954,402.9a26.763,26.763,0,0,1,13.055-9.916,186.059,186.059,0,0,1,61.14-10.462l116.407.323v-9.972l-126.407-.351a186.059,186.059,0,0,0-61.14,10.462A26.763,26.763,0,0,0,57.954,392.9,27.165,27.165,0,0,0,53,408.592v36.081H63Z" style="fill:#d4e1f4"/><polygon points="282.556 382.91 459 383.4 459 373.428 272.556 372.91 272.556 444.673 282.556 444.673 282.556 382.91" style="fill:#d4e1f4"/><path d="M416.055,429.145a41.888,41.888,0,0,1,6.27,13.188h2.289a31.987,31.987,0,0,0,3.381-.2A42.311,42.311,0,0,0,416.055,429.145Z" style="fill:#d4e1f4"/><path d="M189.5,69.577v27H138a20,20,0,0,0,0,40H374a20,20,0,0,0,0-40H322.5v-27a7,7,0,0,0-7-7H263v-39a7,7,0,1,0-14,0v39H196.5A7,7,0,0,0,189.5,69.577Zm184.5,41a6,6,0,0,1,0,12H138a6,6,0,0,1,0-12H374Zm-170.5-34h105v20h-105Z" style="fill:#0635c9"/><path d="M423.709,456.333h.9a43.258,43.258,0,0,0,25.451-8.031c.009-.006.132-.094.14-.1A55.259,55.259,0,0,0,473,403.554V364.825a24.475,24.475,0,0,0-8.556-18.6l-50.223-43.048a24.513,24.513,0,0,0-15.945-5.9H270.832c-1.433,0-2.874.033-4.314.074a6.64,6.64,0,0,0-2.469.093,171.178,171.178,0,0,0-36.069,5.55,202.619,202.619,0,0,0-26.5,9.029,253.839,253.839,0,0,0-72.176,46.52,200.351,200.351,0,0,0-62.953,11.237A41.116,41.116,0,0,0,39,408.592V447.9a10.786,10.786,0,0,0,10.774,10.774H92.99a41.99,41.99,0,0,0,83.209,0H340.162a41.988,41.988,0,0,0,83.547-2.34ZM134.594,480.985a28,28,0,1,1,28-28A28.032,28.032,0,0,1,134.594,480.985Zm123.962-36.312H175.765a42,42,0,0,0-82.341,0H53V408.592A27.165,27.165,0,0,1,57.954,392.9a26.763,26.763,0,0,1,13.055-9.916,186.059,186.059,0,0,1,61.14-10.462l126.407.351Zm0-85.8-107.788-.3a241.381,241.381,0,0,1,56.116-33.634,188.517,188.517,0,0,1,24.658-8.406,159.725,159.725,0,0,1,27.014-4.706Zm110.849-47.595h28.871a10.5,10.5,0,0,1,6.833,2.528l50.224,43.049a10.493,10.493,0,0,1,2.171,2.571l-88.1-.245Zm-96.849,0h82.849V359.14l-82.849-.23ZM381.822,481.423a28,28,0,1,1,28-28A28.031,28.031,0,0,1,381.822,481.423Zm0-70a42.07,42.07,0,0,0-41.077,33.25H272.556V372.91L459,373.428v14.885H444.713a7,7,0,0,0,0,14H459v1.241a41.2,41.2,0,0,1-16.968,33.28l-.141.1a29.354,29.354,0,0,1-17.277,5.4h-2.289A42.068,42.068,0,0,0,381.822,411.423Z" style="fill:#0635c9"/><path d="M215.36,393.563h21.625a7,7,0,0,0,0-14H215.36a7,7,0,0,0,0,14Z" style="fill:#0635c9"/><path d="M151.673,208.654a7,7,0,0,0,7-7V153.577a7,7,0,0,0-14,0v48.077A7,7,0,0,0,151.673,208.654Z" style="fill:#1ae5be"/><path d="M151.673,260.577a7,7,0,0,0,7-7V224.73a7,7,0,0,0-14,0v28.847A7,7,0,0,0,151.673,260.577Z" style="fill:#1ae5be"/><path d="M186.529,186.538a7,7,0,0,0,7-7V153.577a7,7,0,0,0-14,0v25.961A7,7,0,0,0,186.529,186.538Z" style="fill:#1ae5be"/><path d="M186.369,260.577a7,7,0,0,0,7-7V205.5a7,7,0,0,0-14,0v48.077A7,7,0,0,0,186.369,260.577Z" style="fill:#1ae5be"/><path d="M221.385,175a7,7,0,0,0,7-7V153.577a7,7,0,0,0-14,0V168A7,7,0,0,0,221.385,175Z" style="fill:#1ae5be"/><path d="M214.064,253.577a7,7,0,0,0,14,0V194.923a7,7,0,0,0-14,0Z" style="fill:#1ae5be"/><path d="M255.76,146.577a7,7,0,0,0-7,7v44.231a7,7,0,0,0,14,0V153.577A7,7,0,0,0,255.76,146.577Z" style="fill:#1ae5be"/><path d="M256.24,219.654a7,7,0,0,0-7,7v26.923a7,7,0,0,0,14,0V226.654A7,7,0,0,0,256.24,219.654Z" style="fill:#1ae5be"/><path d="M290.615,146.577a7,7,0,0,0-7,7v25.961a7,7,0,0,0,14,0V153.577A7,7,0,0,0,290.615,146.577Z" style="fill:#1ae5be"/><path d="M290.936,197.538a7,7,0,0,0-7,7v49.039a7,7,0,0,0,14,0V204.538A7,7,0,0,0,290.936,197.538Z" style="fill:#1ae5be"/><path d="M325.551,222.115a7,7,0,0,0,7-7V153.577a7,7,0,0,0-14,0v61.538A7,7,0,0,0,325.551,222.115Z" style="fill:#1ae5be"/><path d="M318.551,253.577a7,7,0,0,0,14,0V240.115a7,7,0,1,0-14,0Z" style="fill:#1ae5be"/><path d="M360.327,186.538a7,7,0,0,0,7-7V153.577a7,7,0,0,0-14,0v25.961A7,7,0,0,0,360.327,186.538Z" style="fill:#1ae5be"/><path d="M353.327,253.577a7,7,0,0,0,14,0V204.538a7,7,0,0,0-14,0Z" style="fill:#1ae5be"/></svg>
