<?xml version="1.0" encoding="utf-8"?>
<!-- Generator: Adobe Illustrator 24.3.0, SVG Export Plug-In . SVG Version: 6.00 Build 0)  -->
<svg version="1.1" id="Capa_1" xmlns="http://www.w3.org/2000/svg" xmlns:xlink="http://www.w3.org/1999/xlink" x="0px" y="0px"
	 viewBox="0 0 512.1 512.1" style="enable-background:new 0 0 512.1 512.1;" xml:space="preserve">
<style type="text/css">
	.st0{fill-rule:evenodd;clip-rule:evenodd;fill:#727270;}
	.st1{fill-rule:evenodd;clip-rule:evenodd;fill:#FEFEFE;}
	.st2{fill-rule:evenodd;clip-rule:evenodd;fill:#67CDFD;}
</style>
<path class="st0" d="M441.8,8.4H118.3c-28.5,0-52.4,23.9-52.4,52.4v322.7c0,7.5,1.5,14.2,4.5,21l-41.9,41.2v0.8
	c-12.7,12.7-12.7,34.4,0.8,47.2c12.7,12.7,33.7,12.7,47.2,0l0,0l58.4-57.7h307c28.5,0,51.7-23.2,51.7-52.4V60.8
	C493.4,32.4,470.2,8.4,441.8,8.4L441.8,8.4z"/>
<polygon class="st1" points="446.3,390.3 446.3,390.3 181.2,390.3 273.3,298.2 365.4,298.2 390.8,203.1 381.1,193.4 330.9,243.5 
	281.6,194.9 331.7,143.9 321.2,134.2 226.9,159.7 226.9,249.5 226.1,248.8 110.1,364.8 110.1,105.7 446.3,105.7 "/>
<path class="st2" d="M62.9,480.9L62.9,480.9c-6.7,6-15.7,6-21.7,0c-6-6-6-15,0-21c6-6,15-6,21,0C68.1,465.9,68.1,474.9,62.9,480.9
	L62.9,480.9z"/>
</svg>
