<svg xmlns="http://www.w3.org/2000/svg" viewBox="0 0 82.53 114.51"><defs><style>.cls-1{fill:#607083;}.cls-2{fill:#a0b6d0;}.cls-3{fill:#3598db;}.cls-4{fill:#6186b0;}.cls-5{fill:#2072bc;}.cls-6{fill:#e94d3e;}.cls-7{fill:#af3a2f;}</style></defs><g id="Layer_2" data-name="Layer 2"><g id="Layer_1-2" data-name="Layer 1"><polygon class="cls-1" points="13.58 98.33 13.58 66.39 13.58 51.52 7.46 51.52 7.46 60.27 10.42 63.23 10.42 114.51 13.58 114.51 16.38 105.41 13.58 98.33"/><polygon class="cls-2" points="7.46 60.27 7.46 98.31 4.45 105.39 7.37 114.51 10.42 114.51 10.42 63.23 7.46 60.27"/><path class="cls-1" d="M63.21,1.85l-8.48,1.4.05,7.67.73.45a6.64,6.64,0,0,1,.07,11.23l-.72.47L55,41.25l16-2.64Z"/><path class="cls-3" d="M52.79,31.36l-2,1.5a39.39,39.39,0,0,0-4.27,3.45,73.58,73.58,0,0,0-6.67,7.46l-8.25-7.34L25.8,42.52l.81,1c5.66,7.39,2.58,19.24,1.5,22.69l0,.13A71.53,71.53,0,0,0,25,87.32v20.34a6.47,6.47,0,0,0,6.38,6.85H37c4.78,0,7.16-4,7.35-7.72a8.56,8.56,0,0,0-2.21-6.07,6.89,6.89,0,0,0-4.72-2.18V87.32A58.39,58.39,0,0,1,55.18,45.23a31.8,31.8,0,0,1,3-2.31l2.08-1.53Z"/><path class="cls-4" d="M52,11.36l.74-.44L53,3.25,44.51,1.7,36.08,38.32l16,2.93.43-18.19-.71-.47A6.64,6.64,0,0,1,52,11.36Z"/><path class="cls-5" d="M82.53,87.26a71.86,71.86,0,0,0-3.1-20.93l0-.13c-1.08-3.46-4.17-15.3,1.5-22.69l.8-1L76,36.36l-8.26,7.35A72.4,72.4,0,0,0,61,36.24a39.76,39.76,0,0,0-4.28-3.45l-2-1.5-7.42,10,2.08,1.53a31.6,31.6,0,0,1,2.94,2.32A58.35,58.35,0,0,1,70.05,87.26V98.47a7,7,0,0,0-4.73,2.18,8.52,8.52,0,0,0-2.2,6.08c.19,3.71,2.57,7.71,7.35,7.71h5.68a6.47,6.47,0,0,0,6.38-6.84Z"/><path class="cls-6" d="M.28,45A5.09,5.09,0,0,0,0,46.58v3.71A10.42,10.42,0,0,0,10.42,60.7V45Z"/><path class="cls-6" d="M10.42,0h0A10.43,10.43,0,0,0,0,10.42V29a6.85,6.85,0,0,0,.16,1.48H10.42Z"/><path class="cls-7" d="M20.63,30.44a5.7,5.7,0,0,0,.2-1.45V10.42A10.42,10.42,0,0,0,10.42,0V30.44H.16a10.24,10.24,0,0,0,2,4.06C3,35.63,4,36.46,4,37.72c0,1.46-1.25,2.83-2.15,4.22A13.19,13.19,0,0,0,.28,45H10.42V60.7A10.42,10.42,0,0,0,20.83,50.29V46.48A5.14,5.14,0,0,0,20.58,45a13.64,13.64,0,0,0-1.57-3c-.9-1.41-2-2.66-2-4.13s1.09-2.7,1.94-4A12,12,0,0,0,20.63,30.44Z"/><path class="cls-2" d="M43.88,35.48a9.88,9.88,0,0,0,9.87,9.87V25.61A9.88,9.88,0,0,0,43.88,35.48Z"/><path class="cls-4" d="M53.75,25.61h0V45.35a9.87,9.87,0,0,0,0-19.74Z"/></g></g></svg>