<svg id="Layer_1" data-name="Layer 1" xmlns="http://www.w3.org/2000/svg" xmlns:xlink="http://www.w3.org/1999/xlink" viewBox="0 0 1200 720"><defs><style>.cls-1{fill:url(#linear-gradient);}.cls-2{fill:#dfe8df;}.cls-3{fill:#c8ccca;}.cls-4{fill:#c4f7f3;}.cls-5{fill:#9bddd7;}.cls-6{fill:#bbbcbb;}.cls-7{fill:#a2a5a4;}.cls-8{fill:#7fc9c0;}.cls-9{fill:#636362;}.cls-10{fill:#547708;}.cls-11{fill:#628f0c;}.cls-12{fill:#7cad12;}.cls-13{fill:#486605;}.cls-14,.cls-40{fill:#fff;}.cls-15{fill:#d6d4d4;}.cls-16{fill:#3f2902;}.cls-17{fill:#8bbf19;}.cls-18{fill:#b2dd3a;}.cls-19{fill:#6f930c;}.cls-20,.cls-21{fill:#712c23;}.cls-20{stroke:#3f1101;}.cls-20,.cls-23,.cls-25,.cls-26,.cls-27,.cls-28,.cls-40{stroke-miterlimit:10;}.cls-22,.cls-23{fill:#9e9d9d;}.cls-23,.cls-27,.cls-28{stroke:#333;}.cls-24,.cls-26{fill:#561a16;}.cls-25,.cls-28{fill:none;}.cls-25,.cls-26{stroke:#300b01;}.cls-27{fill:#848484;}.cls-29{fill:#302c47;}.cls-30{fill:#413b5e;}.cls-31{fill:#38393a;}.cls-32{fill:#262728;}.cls-33{fill:#1f1d30;}.cls-34{fill:#212121;}.cls-35{fill:#999696;}.cls-36{fill:#bcb7b7;}.cls-37{fill:#545353;}.cls-38{fill:#b2e2ea;}.cls-39{fill:#ff8827;}.cls-40{stroke:#070000;}.cls-41{fill:#848080;}.cls-42{fill:#fcfcfc;}.cls-43{fill:#d0f8fc;}.cls-44{fill:#0c42bc;}.cls-45{fill:#939292;}.cls-46{fill:#043fa8;}.cls-47{fill:#053b72;}.cls-48{fill:#2769e0;}.cls-49{fill:#ffa787;}.cls-50{fill:#000007;}.cls-51{fill:#d2eeff;}.cls-52{fill:#292828;}.cls-53{fill:#484645;}.cls-54{fill:#141425;}.cls-55{fill:#471607;}.cls-56{fill:#ebb282;}.cls-57{fill:#f1cca6;}.cls-58{fill:#c4c1bf;}.cls-59{fill:#dddad9;}.cls-60{fill:#121316;}.cls-61{fill:#000202;}.cls-62{fill:#757373;}.cls-63{fill:#939393;}.cls-64{fill:#d3d1d1;}.cls-65{fill:#0b0d10;}.cls-66{fill:#202b33;}.cls-67{fill:#ffb484;}.cls-68{fill:#ffcea8;}.cls-69{fill:#201600;}.cls-70{fill:#323333;}.cls-71{fill:#bab8c7;}.cls-72{fill:#2867cf;}.cls-73{fill:#4d4e4f;}</style><linearGradient id="linear-gradient" x1="607.61" y1="-62.53" x2="593.6" y2="715.77" gradientUnits="userSpaceOnUse"><stop offset="0.25" stop-color="#08aeea"/><stop offset="0.43" stop-color="#0ebbdb"/><stop offset="0.77" stop-color="#1edcb5"/><stop offset="1" stop-color="#2af598"/></linearGradient></defs><rect class="cls-1" width="1200" height="720"/><polygon class="cls-2" points="1191.23 402.46 1103.46 402.46 1103.46 607.73 1191.23 404.1 1191.23 402.46"/><polygon class="cls-3" points="1103.46 607.73 1103.46 612.48 1191.23 612.48 1191.23 404.1 1103.46 607.73"/><polygon class="cls-4" points="1111.22 418.16 1111.22 469.08 1130.01 418.16 1130.01 418.16 1111.22 418.16"/><polygon class="cls-5" points="1111.22 471.79 1130.01 471.79 1130.01 418.16 1111.22 469.08 1111.22 471.79"/><polygon class="cls-5" points="1139.13 471.79 1157.92 471.79 1157.92 418.16 1157.54 418.16 1139.13 467.64 1139.13 471.79"/><polygon class="cls-4" points="1139.13 467.64 1157.54 418.16 1139.13 418.16 1139.13 467.64"/><polygon class="cls-4" points="1164.9 418.16 1164.9 471.79 1183.24 418.16 1164.9 418.16"/><polygon class="cls-5" points="1183.69 418.16 1183.24 418.16 1164.9 471.79 1183.69 471.79 1183.69 418.16"/><polygon class="cls-5" points="1111.76 534.32 1130.54 534.32 1130.54 480.92 1111.76 532.79 1111.76 534.32"/><polygon class="cls-4" points="1111.76 480.69 1111.76 532.79 1130.54 480.92 1130.54 480.69 1111.76 480.69"/><polygon class="cls-5" points="1139.67 534.32 1158.46 534.32 1158.46 482.15 1139.67 532.11 1139.67 534.32"/><polygon class="cls-4" points="1139.67 480.69 1139.67 532.11 1158.46 482.15 1158.46 480.69 1139.67 480.69"/><polygon class="cls-4" points="1165.44 480.69 1165.44 532.37 1183.93 480.69 1165.44 480.69"/><polygon class="cls-5" points="1184.22 534.32 1184.22 480.69 1183.93 480.69 1165.44 532.37 1165.44 534.32 1184.22 534.32"/><polygon class="cls-5" points="1130.54 598.21 1130.54 545.98 1111.97 598.21 1130.54 598.21"/><polygon class="cls-4" points="1111.76 544.58 1111.76 598.21 1111.97 598.21 1130.54 545.98 1130.54 544.58 1111.76 544.58"/><polygon class="cls-4" points="1139.67 544.58 1139.67 596.84 1158.46 544.98 1158.46 544.58 1139.67 544.58"/><polygon class="cls-5" points="1139.67 598.21 1158.46 598.21 1158.46 544.98 1139.67 596.84 1139.67 598.21"/><polygon class="cls-4" points="1165.44 597.08 1183.83 544.58 1165.44 544.58 1165.44 597.08"/><polygon class="cls-5" points="1165.44 598.21 1184.22 598.21 1184.22 544.58 1183.83 544.58 1165.44 597.08 1165.44 598.21"/><polygon class="cls-5" points="1103.46 402.46 1191.23 402.46 1191.23 382.74 1103.46 402.46"/><polygon class="cls-2" points="787.52 451.43 699.75 451.43 699.75 656.7 787.52 453.07 787.52 451.43"/><polygon class="cls-3" points="699.75 656.7 699.75 661.46 787.52 661.46 787.52 453.07 699.75 656.7"/><polygon class="cls-4" points="707.51 467.13 707.51 518.06 726.3 467.14 726.3 467.13 707.51 467.13"/><polygon class="cls-5" points="707.51 520.76 726.3 520.76 726.3 467.14 707.51 518.06 707.51 520.76"/><polygon class="cls-5" points="735.42 520.76 754.21 520.76 754.21 467.13 753.83 467.13 735.42 516.62 735.42 520.76"/><polygon class="cls-4" points="735.42 516.62 753.83 467.13 735.42 467.13 735.42 516.62"/><polygon class="cls-4" points="761.19 467.13 761.19 520.76 779.53 467.13 761.19 467.13"/><polygon class="cls-5" points="779.98 467.13 779.53 467.13 761.19 520.76 779.98 520.76 779.98 467.13"/><polygon class="cls-5" points="708.04 583.29 726.83 583.29 726.83 529.9 708.04 581.77 708.04 583.29"/><polygon class="cls-4" points="708.04 529.66 708.04 581.77 726.83 529.9 726.83 529.66 708.04 529.66"/><polygon class="cls-5" points="735.96 583.29 754.75 583.29 754.75 531.13 735.96 581.09 735.96 583.29"/><polygon class="cls-4" points="735.96 529.66 735.96 581.09 754.75 531.13 754.75 529.66 735.96 529.66"/><polygon class="cls-4" points="761.73 529.66 761.73 581.35 780.22 529.66 761.73 529.66"/><polygon class="cls-5" points="780.51 583.29 780.51 529.66 780.22 529.66 761.73 581.35 761.73 583.29 780.51 583.29"/><polygon class="cls-5" points="726.83 647.18 726.83 594.96 708.26 647.18 726.83 647.18"/><polygon class="cls-4" points="708.04 593.55 708.04 647.18 708.26 647.18 726.83 594.96 726.83 593.55 708.04 593.55"/><polygon class="cls-4" points="735.96 593.55 735.96 645.82 754.75 593.95 754.75 593.55 735.96 593.55"/><polygon class="cls-5" points="735.96 647.18 754.75 647.18 754.75 593.95 735.96 645.82 735.96 647.18"/><polygon class="cls-4" points="761.73 646.06 780.12 593.55 761.73 593.55 761.73 646.06"/><polygon class="cls-5" points="761.73 647.18 780.51 647.18 780.51 593.55 780.12 593.55 761.73 646.06 761.73 647.18"/><polygon class="cls-5" points="699.75 451.43 787.52 451.43 787.52 431.72 699.75 451.43"/><polygon class="cls-2" points="555.89 434.05 643.65 434.05 643.65 639.32 555.89 435.69 555.89 434.05"/><polygon class="cls-3" points="643.65 639.32 643.65 644.07 555.89 644.07 555.89 435.69 643.65 639.32"/><polygon class="cls-4" points="635.9 449.75 635.9 500.67 617.11 449.75 617.11 449.75 635.9 449.75"/><polygon class="cls-5" points="635.9 503.37 617.11 503.37 617.11 449.75 635.9 500.67 635.9 503.37"/><polygon class="cls-5" points="607.98 503.37 589.2 503.37 589.2 449.75 589.58 449.75 607.98 499.23 607.98 503.37"/><polygon class="cls-4" points="607.98 499.23 589.58 449.75 607.98 449.75 607.98 499.23"/><polygon class="cls-4" points="582.22 449.75 582.22 503.37 563.88 449.75 582.22 449.75"/><polygon class="cls-5" points="563.43 449.75 563.88 449.75 582.22 503.37 563.43 503.37 563.43 449.75"/><polygon class="cls-5" points="635.36 565.9 616.57 565.9 616.57 512.51 635.36 564.38 635.36 565.9"/><polygon class="cls-4" points="635.36 512.28 635.36 564.38 616.57 512.51 616.57 512.28 635.36 512.28"/><polygon class="cls-5" points="607.45 565.9 588.66 565.9 588.66 513.74 607.45 563.7 607.45 565.9"/><polygon class="cls-4" points="607.45 512.28 607.45 563.7 588.66 513.74 588.66 512.28 607.45 512.28"/><polygon class="cls-4" points="581.68 512.28 581.68 563.96 563.18 512.28 581.68 512.28"/><polygon class="cls-5" points="562.89 565.9 562.89 512.28 563.18 512.28 581.68 563.96 581.68 565.9 562.89 565.9"/><polygon class="cls-5" points="616.57 629.79 616.57 577.57 635.15 629.79 616.57 629.79"/><polygon class="cls-4" points="635.36 576.17 635.36 629.79 635.15 629.79 616.57 577.57 616.57 576.17 635.36 576.17"/><polygon class="cls-4" points="607.45 576.17 607.45 628.43 588.66 576.56 588.66 576.17 607.45 576.17"/><polygon class="cls-5" points="607.45 629.79 588.66 629.79 588.66 576.56 607.45 628.43 607.45 629.79"/><polygon class="cls-4" points="581.68 628.67 563.29 576.17 581.68 576.17 581.68 628.67"/><polygon class="cls-5" points="581.68 629.79 562.89 629.79 562.89 576.17 563.29 576.17 581.68 628.67 581.68 629.79"/><polygon class="cls-5" points="643.65 434.05 555.89 434.05 555.89 414.33 643.65 434.05"/><polygon class="cls-6" points="874.62 425.86 786.85 425.86 786.85 615.71 874.62 427.38 874.62 425.86"/><polygon class="cls-7" points="786.85 615.71 786.85 620.11 874.62 620.11 874.62 427.38 786.85 615.71"/><polygon class="cls-4" points="794.61 440.38 794.61 487.49 813.39 440.39 813.39 440.38 794.61 440.38"/><polygon class="cls-5" points="794.61 489.98 813.39 489.98 813.39 440.39 794.61 487.49 794.61 489.98"/><polygon class="cls-5" points="822.52 489.98 841.31 489.98 841.31 440.38 840.93 440.38 822.52 486.15 822.52 489.98"/><polygon class="cls-4" points="822.52 486.15 840.93 440.38 822.52 440.38 822.52 486.15"/><polygon class="cls-4" points="848.29 440.38 848.29 489.98 866.63 440.38 848.29 440.38"/><polygon class="cls-5" points="867.08 440.38 866.63 440.38 848.29 489.98 867.08 489.98 867.08 440.38"/><polygon class="cls-5" points="795.14 547.82 813.93 547.82 813.93 498.43 795.14 546.4 795.14 547.82"/><polygon class="cls-4" points="795.14 498.22 795.14 546.4 813.93 498.43 813.93 498.22 795.14 498.22"/><polygon class="cls-5" points="823.06 547.82 841.85 547.82 841.85 499.57 823.06 545.78 823.06 547.82"/><polygon class="cls-4" points="823.06 498.22 823.06 545.78 841.85 499.57 841.85 498.22 823.06 498.22"/><polygon class="cls-4" points="848.82 498.22 848.82 546.02 867.32 498.22 848.82 498.22"/><polygon class="cls-5" points="867.61 547.82 867.61 498.22 867.32 498.22 848.82 546.02 848.82 547.82 867.61 547.82"/><polygon class="cls-5" points="813.93 606.91 813.93 558.61 795.35 606.91 813.93 606.91"/><polygon class="cls-4" points="795.14 557.31 795.14 606.91 795.35 606.91 813.93 558.61 813.93 557.31 795.14 557.31"/><polygon class="cls-4" points="823.06 557.31 823.06 605.65 841.85 557.67 841.85 557.31 823.06 557.31"/><polygon class="cls-5" points="823.06 606.91 841.85 606.91 841.85 557.67 823.06 605.65 823.06 606.91"/><polygon class="cls-4" points="848.82 605.87 867.22 557.31 848.82 557.31 848.82 605.87"/><polygon class="cls-5" points="848.82 606.91 867.61 606.91 867.61 557.31 867.22 557.31 848.82 605.87 848.82 606.91"/><polygon class="cls-5" points="963.67 406.53 875.9 406.53 875.9 617.96 963.67 418.41 963.67 406.53"/><polygon class="cls-8" points="875.9 617.96 875.9 623.39 963.67 623.39 963.67 418.41 875.9 617.96"/><rect class="cls-4" x="883.66" y="406.53" width="18.79" height="216.86"/><rect class="cls-4" x="911.57" y="406.53" width="18.79" height="216.86"/><rect class="cls-4" x="937.34" y="406.53" width="18.79" height="216.86"/><rect class="cls-5" x="868.45" y="391.38" width="103.43" height="19.7"/><polygon class="cls-5" points="715.28 487.52 627.52 487.52 627.52 698.95 715.28 499.4 715.28 487.52"/><polygon class="cls-8" points="627.52 698.95 627.52 704.39 715.28 704.39 715.28 499.4 627.52 698.95"/><rect class="cls-4" x="635.27" y="487.53" width="18.79" height="216.86"/><rect class="cls-4" x="663.18" y="487.53" width="18.79" height="216.86"/><rect class="cls-4" x="688.95" y="487.53" width="18.79" height="216.86"/><rect class="cls-5" x="620.06" y="472.38" width="103.43" height="19.7"/><polygon class="cls-5" points="129.57 446.04 41.81 446.04 41.81 657.47 129.57 457.92 129.57 446.04"/><polygon class="cls-8" points="41.81 657.47 41.81 662.9 129.57 662.9 129.57 457.92 41.81 657.47"/><rect class="cls-4" x="49.56" y="446.04" width="18.79" height="216.86"/><rect class="cls-4" x="77.48" y="446.04" width="18.79" height="216.86"/><rect class="cls-4" x="103.25" y="446.04" width="18.79" height="216.86"/><rect class="cls-5" x="34.35" y="430.89" width="103.43" height="19.7"/><rect class="cls-9" y="611.6" width="1200" height="108.4"/><path class="cls-10" d="M125.12,590.33a20.25,20.25,0,0,0-13.52-6.41q1.25-5.85,2.47-11.7a22.24,22.24,0,0,0-4.36-12.4c-5.49-7.17-15.55-10.24-25.79-8.05a20.94,20.94,0,0,0-20.44-17.49v78.17l53.27-.32a12,12,0,0,0,7.37-1.68c5.37-3.33,5.68-9.81,5.69-10.39A19.63,19.63,0,0,0,125.12,590.33Z"/><path class="cls-11" d="M61.47,534.33a24.16,24.16,0,0,0-13.1,5.82,24.78,24.78,0,0,0-8,17c-20.11,0-14.08,22.81-14.08,22.81-18.76-4.7-14.07,13.41-14.07,13.41-14.74,1.34-8.71,17.44-8,19.45l59.3-.35V534.28A20,20,0,0,0,61.47,534.33Z"/><path class="cls-12" d="M49.21,551.85a14.93,14.93,0,0,1,26.93-3.3A15,15,0,1,0,49,560.49,14.9,14.9,0,0,1,49.21,551.85Z"/><path class="cls-12" d="M29.88,569.92a8,8,0,0,1,14-4,8,8,0,1,0-13.35,8.65A8,8,0,0,1,29.88,569.92Z"/><path class="cls-12" d="M15.58,590.27a8,8,0,0,1,14-4.06,8,8,0,1,0-13.35,8.65A8.1,8.1,0,0,1,15.58,590.27Z"/><path class="cls-12" d="M104,595a8,8,0,0,1,9.15-6.74,7.93,7.93,0,0,1,4.84,2.69,8,8,0,1,0-13.34,8.65A8,8,0,0,1,104,595Z"/><path class="cls-12" d="M5.29,602.35a6,6,0,0,1,10.51-3,6,6,0,1,0-10,6.5A6.05,6.05,0,0,1,5.29,602.35Z"/><path class="cls-13" d="M110,578.57c.06-.19.12-.37.17-.56a12.5,12.5,0,0,0,.3-2.56c-.85,1.76-4.32,7.94-11.69,9.23a15.76,15.76,0,0,1-12-2.86,12.94,12.94,0,0,0,3,3.44A13.09,13.09,0,0,0,93.25,587,13.26,13.26,0,0,0,110,578.57Z"/><path class="cls-13" d="M80.65,563.46l.18-.61a14,14,0,0,0,.33-2.78c-.92,1.91-4.7,8.63-12.71,10a17.12,17.12,0,0,1-13-3.11,14,14,0,0,0,3.25,3.74,14.77,14.77,0,0,0,3.74,1.89A14.41,14.41,0,0,0,80.65,563.46Z"/><path class="cls-13" d="M31.48,594.23c0-.1.07-.2.1-.3a7.21,7.21,0,0,0,.16-1.38,9,9,0,0,1-6.28,5A8.45,8.45,0,0,1,19,596a6.78,6.78,0,0,0,1.61,1.85,7.09,7.09,0,0,0,10.85-3.59Z"/><path class="cls-12" d="M81,568.62a14.93,14.93,0,0,1,26.94-3.3,15,15,0,1,0-27.11,11.94A15,15,0,0,1,81,568.62Z"/><path class="cls-10" d="M214.72,589.93a20.25,20.25,0,0,0-13.52-6.41q1.23-5.85,2.47-11.7a22.24,22.24,0,0,0-4.36-12.4c-5.49-7.17-15.55-10.24-25.79-8a20.94,20.94,0,0,0-20.44-17.49v78.17l53.27-.32a12,12,0,0,0,7.37-1.68c5.37-3.33,5.67-9.81,5.69-10.39A19.63,19.63,0,0,0,214.72,589.93Z"/><path class="cls-11" d="M151.07,533.93a24.16,24.16,0,0,0-13.1,5.82,24.78,24.78,0,0,0-8,17c-20.11,0-14.08,22.81-14.08,22.81C97.13,574.84,101.82,593,101.82,593c-14.74,1.34-8.71,17.44-8,19.45l59.3-.35V533.88A20,20,0,0,0,151.07,533.93Z"/><path class="cls-12" d="M138.81,551.45a14.93,14.93,0,0,1,26.93-3.3,15,15,0,1,0-27.1,11.94A14.9,14.9,0,0,1,138.81,551.45Z"/><path class="cls-12" d="M119.48,569.52a8,8,0,0,1,14-4,8,8,0,1,0-13.35,8.65A8,8,0,0,1,119.48,569.52Z"/><path class="cls-12" d="M105.18,589.87a8,8,0,0,1,14-4.06,8,8,0,1,0-13.35,8.65A8.1,8.1,0,0,1,105.18,589.87Z"/><path class="cls-12" d="M193.63,594.56a8,8,0,0,1,9.15-6.74,7.93,7.93,0,0,1,4.84,2.69,8,8,0,1,0-13.34,8.65A8,8,0,0,1,193.63,594.56Z"/><path class="cls-12" d="M94.89,602a6,6,0,0,1,10.51-3,6,6,0,1,0-10,6.5A6.05,6.05,0,0,1,94.89,602Z"/><path class="cls-13" d="M199.62,578.17c.06-.19.12-.37.17-.56a12.5,12.5,0,0,0,.3-2.56c-.85,1.76-4.32,7.94-11.69,9.23a15.76,15.76,0,0,1-12-2.86,12.94,12.94,0,0,0,3,3.44,13.09,13.09,0,0,0,3.44,1.74A13.26,13.26,0,0,0,199.62,578.17Z"/><path class="cls-13" d="M170.25,563.06l.18-.61a14,14,0,0,0,.33-2.78c-.92,1.91-4.7,8.63-12.71,10a17.12,17.12,0,0,1-13-3.11,14,14,0,0,0,3.25,3.74,14.77,14.77,0,0,0,3.74,1.89A14.41,14.41,0,0,0,170.25,563.06Z"/><path class="cls-13" d="M121.08,593.83c0-.1.07-.2.1-.3a7.21,7.21,0,0,0,.16-1.38,9,9,0,0,1-6.28,5,8.45,8.45,0,0,1-6.44-1.54,6.78,6.78,0,0,0,1.61,1.85,7.09,7.09,0,0,0,10.85-3.59Z"/><path class="cls-12" d="M170.63,568.22a14.93,14.93,0,0,1,26.94-3.3,15,15,0,1,0-27.11,11.94A15,15,0,0,1,170.63,568.22Z"/><path class="cls-10" d="M329.92,589.93a20.25,20.25,0,0,0-13.52-6.41q1.25-5.85,2.47-11.7a22.24,22.24,0,0,0-4.36-12.4c-5.49-7.17-15.55-10.24-25.79-8a20.94,20.94,0,0,0-20.44-17.49v78.17l53.27-.32a12,12,0,0,0,7.37-1.68c5.37-3.33,5.67-9.81,5.69-10.39A19.63,19.63,0,0,0,329.92,589.93Z"/><path class="cls-11" d="M266.27,533.93a24.16,24.16,0,0,0-13.1,5.82,24.78,24.78,0,0,0-8,17c-20.11,0-14.08,22.81-14.08,22.81C212.33,574.84,217,593,217,593c-14.74,1.34-8.71,17.44-8,19.45l59.3-.35V533.88A20,20,0,0,0,266.27,533.93Z"/><path class="cls-12" d="M254,551.45a14.93,14.93,0,0,1,26.93-3.3,15,15,0,1,0-27.1,11.94A14.9,14.9,0,0,1,254,551.45Z"/><path class="cls-12" d="M234.68,569.52a8,8,0,0,1,14-4,8,8,0,1,0-13.35,8.65A8,8,0,0,1,234.68,569.52Z"/><path class="cls-12" d="M220.38,589.87a8,8,0,0,1,14-4.06A8,8,0,1,0,221,594.46,8.1,8.1,0,0,1,220.38,589.87Z"/><path class="cls-12" d="M308.83,594.56a8,8,0,0,1,9.15-6.74,7.93,7.93,0,0,1,4.84,2.69,8,8,0,1,0-13.34,8.65A8,8,0,0,1,308.83,594.56Z"/><path class="cls-12" d="M210.09,602a6,6,0,0,1,10.51-3,6,6,0,1,0-10,6.5A6.05,6.05,0,0,1,210.09,602Z"/><path class="cls-13" d="M314.82,578.17c.06-.19.12-.37.17-.56a12.5,12.5,0,0,0,.3-2.56c-.85,1.76-4.32,7.94-11.69,9.23a15.76,15.76,0,0,1-12-2.86,12.94,12.94,0,0,0,3,3.44,13.09,13.09,0,0,0,3.44,1.74A13.26,13.26,0,0,0,314.82,578.17Z"/><path class="cls-13" d="M285.45,563.06l.18-.61a14,14,0,0,0,.33-2.78c-.92,1.91-4.7,8.63-12.71,10a17.12,17.12,0,0,1-13-3.11,14,14,0,0,0,3.25,3.74,14.77,14.77,0,0,0,3.74,1.89A14.41,14.41,0,0,0,285.45,563.06Z"/><path class="cls-13" d="M236.28,593.83c0-.1.07-.2.1-.3a7.21,7.21,0,0,0,.16-1.38,9,9,0,0,1-6.28,5,8.45,8.45,0,0,1-6.44-1.54,6.78,6.78,0,0,0,1.61,1.85,7.09,7.09,0,0,0,10.85-3.59Z"/><path class="cls-12" d="M285.83,568.22a14.93,14.93,0,0,1,26.94-3.3,15,15,0,1,0-27.11,11.94A15,15,0,0,1,285.83,568.22Z"/><path class="cls-10" d="M433.12,589.93a20.25,20.25,0,0,0-13.52-6.41q1.25-5.85,2.47-11.7a22.24,22.24,0,0,0-4.36-12.4c-5.49-7.17-15.55-10.24-25.79-8a20.94,20.94,0,0,0-20.44-17.49v78.17l53.27-.32a12,12,0,0,0,7.37-1.68c5.37-3.33,5.67-9.81,5.69-10.39A19.63,19.63,0,0,0,433.12,589.93Z"/><path class="cls-11" d="M369.47,533.93a24.16,24.16,0,0,0-13.1,5.82,24.78,24.78,0,0,0-8,17c-20.11,0-14.08,22.81-14.08,22.81-18.76-4.7-14.07,13.41-14.07,13.41-14.74,1.34-8.71,17.44-8,19.45l59.3-.35V533.88A20,20,0,0,0,369.47,533.93Z"/><path class="cls-12" d="M357.21,551.45a14.93,14.93,0,0,1,26.93-3.3A15,15,0,1,0,357,560.09,14.9,14.9,0,0,1,357.21,551.45Z"/><path class="cls-12" d="M337.88,569.52a8,8,0,0,1,14-4,8,8,0,1,0-13.35,8.65A8,8,0,0,1,337.88,569.52Z"/><path class="cls-12" d="M323.58,589.87a8,8,0,0,1,14-4.06,8,8,0,1,0-13.35,8.65A8.1,8.1,0,0,1,323.58,589.87Z"/><path class="cls-12" d="M412,594.56a8,8,0,0,1,9.15-6.74,7.93,7.93,0,0,1,4.84,2.69,8,8,0,1,0-13.34,8.65A8,8,0,0,1,412,594.56Z"/><path class="cls-12" d="M313.29,602a6,6,0,0,1,10.51-3,6,6,0,1,0-10,6.5A6.05,6.05,0,0,1,313.29,602Z"/><path class="cls-13" d="M418,578.17c.06-.19.12-.37.17-.56a12.5,12.5,0,0,0,.3-2.56c-.85,1.76-4.32,7.94-11.69,9.23a15.76,15.76,0,0,1-12-2.86,12.94,12.94,0,0,0,3,3.44,13.09,13.09,0,0,0,3.44,1.74A13.26,13.26,0,0,0,418,578.17Z"/><path class="cls-13" d="M388.65,563.06l.18-.61a14,14,0,0,0,.33-2.78c-.92,1.91-4.7,8.63-12.71,10a17.12,17.12,0,0,1-13-3.11,14,14,0,0,0,3.25,3.74,14.77,14.77,0,0,0,3.74,1.89A14.41,14.41,0,0,0,388.65,563.06Z"/><path class="cls-13" d="M339.48,593.83c0-.1.07-.2.1-.3a7.21,7.21,0,0,0,.16-1.38,9,9,0,0,1-6.28,5,8.45,8.45,0,0,1-6.44-1.54,6.78,6.78,0,0,0,1.61,1.85,7.09,7.09,0,0,0,10.85-3.59Z"/><path class="cls-12" d="M389,568.22a14.93,14.93,0,0,1,26.94-3.3,15,15,0,1,0-27.11,11.94A15,15,0,0,1,389,568.22Z"/><path class="cls-10" d="M526.72,588.73a20.25,20.25,0,0,0-13.52-6.41q1.23-5.85,2.47-11.7a22.24,22.24,0,0,0-4.36-12.4c-5.49-7.17-15.55-10.24-25.79-8.05a20.94,20.94,0,0,0-20.44-17.49v78.17l53.27-.32a12,12,0,0,0,7.37-1.68c5.37-3.33,5.67-9.81,5.69-10.39A19.63,19.63,0,0,0,526.72,588.73Z"/><path class="cls-11" d="M463.07,532.73a24.16,24.16,0,0,0-13.1,5.82,24.78,24.78,0,0,0-8,17c-20.11,0-14.08,22.81-14.08,22.81-18.76-4.7-14.07,13.41-14.07,13.41-14.74,1.34-8.71,17.44-8,19.45l59.3-.35V532.68A20,20,0,0,0,463.07,532.73Z"/><path class="cls-12" d="M450.81,550.25a14.93,14.93,0,0,1,26.93-3.3,15,15,0,1,0-27.1,11.94A14.9,14.9,0,0,1,450.81,550.25Z"/><path class="cls-12" d="M431.48,568.32a8,8,0,0,1,14-4.05,8,8,0,1,0-13.35,8.65A8,8,0,0,1,431.48,568.32Z"/><path class="cls-12" d="M417.18,588.67a8,8,0,0,1,14-4.06,8,8,0,1,0-13.35,8.65A8.1,8.1,0,0,1,417.18,588.67Z"/><path class="cls-12" d="M505.63,593.36a8,8,0,0,1,9.15-6.74,7.93,7.93,0,0,1,4.84,2.69A8,8,0,1,0,506.28,598,8,8,0,0,1,505.63,593.36Z"/><path class="cls-12" d="M406.89,600.75a6,6,0,0,1,10.51-3,6,6,0,1,0-10,6.5A6.05,6.05,0,0,1,406.89,600.75Z"/><path class="cls-13" d="M511.62,577c.06-.19.12-.37.17-.56a12.5,12.5,0,0,0,.3-2.56c-.85,1.76-4.32,7.94-11.69,9.23a15.76,15.76,0,0,1-12-2.86,12.94,12.94,0,0,0,3,3.44,13.09,13.09,0,0,0,3.44,1.74A13.26,13.26,0,0,0,511.62,577Z"/><path class="cls-13" d="M482.25,561.86l.18-.61a14,14,0,0,0,.33-2.78c-.92,1.91-4.7,8.63-12.71,10a17.12,17.12,0,0,1-13-3.11,14,14,0,0,0,3.25,3.74A14.77,14.77,0,0,0,464,571,14.41,14.41,0,0,0,482.25,561.86Z"/><path class="cls-13" d="M433.08,592.63c0-.1.07-.2.1-.3a7.21,7.21,0,0,0,.16-1.38,9,9,0,0,1-6.28,5,8.45,8.45,0,0,1-6.44-1.54,6.78,6.78,0,0,0,1.61,1.85,7.09,7.09,0,0,0,10.85-3.59Z"/><path class="cls-12" d="M482.63,567a14.93,14.93,0,0,1,26.94-3.3,15,15,0,1,0-27.11,11.94A15,15,0,0,1,482.63,567Z"/><path class="cls-10" d="M632.78,590.2a20.26,20.26,0,0,0-13.52-6.41l2.46-11.7a22.24,22.24,0,0,0-4.36-12.4c-5.48-7.17-15.55-10.24-25.79-8.05a20.94,20.94,0,0,0-20.44-17.49v78.17L624.4,612a12,12,0,0,0,7.37-1.68c5.37-3.33,5.68-9.81,5.7-10.39A19.81,19.81,0,0,0,632.78,590.2Z"/><path class="cls-11" d="M569.12,534.2A24.16,24.16,0,0,0,556,540a24.87,24.87,0,0,0-8,17c-20.1,0-14.07,22.81-14.07,22.81-18.76-4.7-14.07,13.41-14.07,13.41-14.74,1.34-8.71,17.44-8,19.45l59.29-.35V534.15C570.2,534.13,569.49,534.17,569.12,534.2Z"/><path class="cls-12" d="M556.86,551.72a14.93,14.93,0,0,1,26.93-3.3,15,15,0,1,0-27.1,11.94A14.9,14.9,0,0,1,556.86,551.72Z"/><path class="cls-12" d="M537.53,569.79a8,8,0,0,1,14-4,8,8,0,1,0-13.35,8.65A8,8,0,0,1,537.53,569.79Z"/><path class="cls-12" d="M523.24,590.14a8,8,0,0,1,14-4.06,8,8,0,1,0-13.35,8.65A8,8,0,0,1,523.24,590.14Z"/><path class="cls-12" d="M611.68,594.83a8,8,0,0,1,14-4.05,8,8,0,1,0-13.35,8.65A8,8,0,0,1,611.68,594.83Z"/><path class="cls-12" d="M512.94,602.22a6,6,0,0,1,10.51-3,6,6,0,1,0-10,6.5A6.14,6.14,0,0,1,512.94,602.22Z"/><path class="cls-13" d="M617.67,578.44c.07-.19.12-.37.17-.56a12.5,12.5,0,0,0,.3-2.56c-.84,1.76-4.32,7.94-11.69,9.23a15.73,15.73,0,0,1-12-2.86,12.73,12.73,0,0,0,3,3.44,13.09,13.09,0,0,0,3.44,1.74A13.26,13.26,0,0,0,617.67,578.44Z"/><path class="cls-13" d="M588.3,563.33c.07-.2.13-.41.18-.61a13.27,13.27,0,0,0,.33-2.78c-.92,1.91-4.7,8.63-12.7,10a17.1,17.1,0,0,1-13-3.11,13.81,13.81,0,0,0,3.25,3.74,14.39,14.39,0,0,0,22-7.27Z"/><path class="cls-13" d="M539.14,594.1l.09-.3a7.21,7.21,0,0,0,.16-1.38,9,9,0,0,1-6.28,5,8.46,8.46,0,0,1-6.44-1.54,6.78,6.78,0,0,0,1.61,1.85,7.32,7.32,0,0,0,1.85.94A7.13,7.13,0,0,0,539.14,594.1Z"/><path class="cls-12" d="M588.68,568.49a14.93,14.93,0,0,1,26.94-3.3,15,15,0,1,0-27.11,11.94A15.07,15.07,0,0,1,588.68,568.49Z"/><path class="cls-10" d="M722.38,589.8a20.26,20.26,0,0,0-13.52-6.41l2.46-11.7a22.24,22.24,0,0,0-4.36-12.4c-5.48-7.17-15.55-10.24-25.79-8a20.94,20.94,0,0,0-20.44-17.49v78.17L714,611.6a12,12,0,0,0,7.37-1.68c5.37-3.33,5.68-9.81,5.7-10.39A19.81,19.81,0,0,0,722.38,589.8Z"/><path class="cls-11" d="M658.72,533.8a24.16,24.16,0,0,0-13.1,5.82,24.87,24.87,0,0,0-8,17c-20.1,0-14.07,22.81-14.07,22.81-18.76-4.7-14.07,13.41-14.07,13.41-14.74,1.34-8.71,17.44-8,19.45l59.29-.35V533.75C659.8,533.73,659.09,533.77,658.72,533.8Z"/><path class="cls-12" d="M646.46,551.32a14.93,14.93,0,0,1,26.93-3.3A15,15,0,1,0,646.29,560,14.9,14.9,0,0,1,646.46,551.32Z"/><path class="cls-12" d="M627.13,569.39a8,8,0,0,1,14-4A8,8,0,1,0,627.78,574,8,8,0,0,1,627.13,569.39Z"/><path class="cls-12" d="M612.84,589.74a8,8,0,0,1,14-4.06,8,8,0,1,0-13.35,8.65A8,8,0,0,1,612.84,589.74Z"/><path class="cls-12" d="M701.28,594.43a8,8,0,0,1,14-4A8,8,0,1,0,701.93,599,8,8,0,0,1,701.28,594.43Z"/><path class="cls-12" d="M602.54,601.82a6,6,0,0,1,6.88-5.06,6,6,0,0,1,3.63,2,6,6,0,1,0-10,6.5A6.14,6.14,0,0,1,602.54,601.82Z"/><path class="cls-13" d="M707.27,578c.07-.19.12-.37.17-.56a13.26,13.26,0,0,0,.31-2.56c-.85,1.76-4.33,7.94-11.7,9.23a15.73,15.73,0,0,1-12-2.86,12.73,12.73,0,0,0,3,3.44,13.09,13.09,0,0,0,3.44,1.74A13.26,13.26,0,0,0,707.27,578Z"/><path class="cls-13" d="M677.9,562.93c.07-.2.13-.41.18-.61a13.27,13.27,0,0,0,.33-2.78c-.92,1.91-4.7,8.63-12.7,10a17.1,17.1,0,0,1-13-3.11,13.81,13.81,0,0,0,3.25,3.74,14.39,14.39,0,0,0,22-7.27Z"/><path class="cls-13" d="M628.74,593.7l.09-.3A7.21,7.21,0,0,0,629,592a9,9,0,0,1-6.28,5,8.46,8.46,0,0,1-6.44-1.54,6.78,6.78,0,0,0,1.61,1.85,7.32,7.32,0,0,0,1.85.94A7.13,7.13,0,0,0,628.74,593.7Z"/><path class="cls-12" d="M678.28,568.09a14.93,14.93,0,0,1,26.94-3.3,15,15,0,1,0-27.11,11.94A15.07,15.07,0,0,1,678.28,568.09Z"/><path class="cls-10" d="M837.58,589.8a20.26,20.26,0,0,0-13.52-6.41l2.46-11.7a22.24,22.24,0,0,0-4.36-12.4c-5.48-7.17-15.55-10.24-25.79-8a20.94,20.94,0,0,0-20.44-17.49v78.17l53.27-.32a12,12,0,0,0,7.37-1.68c5.37-3.33,5.68-9.81,5.7-10.39A19.81,19.81,0,0,0,837.58,589.8Z"/><path class="cls-11" d="M773.92,533.8a24.16,24.16,0,0,0-13.1,5.82,24.87,24.87,0,0,0-8,17c-20.1,0-14.07,22.81-14.07,22.81-18.76-4.7-14.07,13.41-14.07,13.41-14.74,1.34-8.71,17.44-8,19.45l59.29-.35V533.75C775,533.73,774.29,533.77,773.92,533.8Z"/><path class="cls-12" d="M761.66,551.32a14.93,14.93,0,0,1,26.93-3.3A15,15,0,1,0,761.49,560,14.9,14.9,0,0,1,761.66,551.32Z"/><path class="cls-12" d="M742.33,569.39a8,8,0,0,1,14-4A8,8,0,1,0,743,574,8,8,0,0,1,742.33,569.39Z"/><path class="cls-12" d="M728,589.74a8,8,0,0,1,14-4.06,8,8,0,1,0-13.35,8.65A8,8,0,0,1,728,589.74Z"/><path class="cls-12" d="M816.48,594.43a8,8,0,0,1,14-4A8,8,0,1,0,817.13,599,8,8,0,0,1,816.48,594.43Z"/><path class="cls-12" d="M717.74,601.82a6,6,0,0,1,6.88-5.06,6,6,0,0,1,3.63,2,6,6,0,1,0-10,6.5A6.14,6.14,0,0,1,717.74,601.82Z"/><path class="cls-13" d="M822.47,578c.07-.19.12-.37.17-.56a12.5,12.5,0,0,0,.3-2.56c-.84,1.76-4.32,7.94-11.69,9.23a15.73,15.73,0,0,1-12-2.86,12.73,12.73,0,0,0,3,3.44,13.09,13.09,0,0,0,3.44,1.74A13.26,13.26,0,0,0,822.47,578Z"/><path class="cls-13" d="M793.1,562.93c.07-.2.13-.41.18-.61a13.27,13.27,0,0,0,.33-2.78c-.92,1.91-4.7,8.63-12.7,10a17.1,17.1,0,0,1-13-3.11,13.81,13.81,0,0,0,3.25,3.74,14.39,14.39,0,0,0,22-7.27Z"/><path class="cls-13" d="M743.94,593.7l.09-.3a7.21,7.21,0,0,0,.16-1.38,9,9,0,0,1-6.28,5,8.46,8.46,0,0,1-6.44-1.54,6.78,6.78,0,0,0,1.61,1.85,7.32,7.32,0,0,0,1.85.94A7.13,7.13,0,0,0,743.94,593.7Z"/><path class="cls-12" d="M793.48,568.09a14.93,14.93,0,0,1,26.94-3.3,15,15,0,1,0-27.11,11.94A15.07,15.07,0,0,1,793.48,568.09Z"/><path class="cls-10" d="M940.78,589.8a20.26,20.26,0,0,0-13.52-6.41l2.46-11.7a22.24,22.24,0,0,0-4.36-12.4c-5.48-7.17-15.55-10.24-25.79-8a20.94,20.94,0,0,0-20.44-17.49v78.17l53.27-.32a12,12,0,0,0,7.37-1.68c5.37-3.33,5.68-9.81,5.7-10.39A19.81,19.81,0,0,0,940.78,589.8Z"/><path class="cls-11" d="M877.12,533.8a24.16,24.16,0,0,0-13.1,5.82,24.87,24.87,0,0,0-8,17c-20.1,0-14.07,22.81-14.07,22.81-18.76-4.7-14.07,13.41-14.07,13.41-14.74,1.34-8.71,17.44-8,19.45l59.29-.35V533.75C878.2,533.73,877.49,533.77,877.12,533.8Z"/><path class="cls-12" d="M864.86,551.32a14.93,14.93,0,0,1,26.93-3.3A15,15,0,1,0,864.69,560,14.9,14.9,0,0,1,864.86,551.32Z"/><path class="cls-12" d="M845.53,569.39a8,8,0,0,1,14-4A8,8,0,1,0,846.18,574,8,8,0,0,1,845.53,569.39Z"/><path class="cls-12" d="M831.24,589.74a8,8,0,0,1,14-4.06,8,8,0,1,0-13.35,8.65A8,8,0,0,1,831.24,589.74Z"/><path class="cls-12" d="M919.68,594.43a8,8,0,0,1,14-4A8,8,0,1,0,920.33,599,8,8,0,0,1,919.68,594.43Z"/><path class="cls-12" d="M820.94,601.82a6,6,0,0,1,10.51-3,6,6,0,1,0-10,6.5A6.14,6.14,0,0,1,820.94,601.82Z"/><path class="cls-13" d="M925.67,578c.07-.19.12-.37.17-.56a13.26,13.26,0,0,0,.31-2.56c-.85,1.76-4.33,7.94-11.7,9.23a15.73,15.73,0,0,1-12-2.86,12.73,12.73,0,0,0,3,3.44,13.09,13.09,0,0,0,3.44,1.74A13.26,13.26,0,0,0,925.67,578Z"/><path class="cls-13" d="M896.3,562.93c.07-.2.13-.41.18-.61a13.27,13.27,0,0,0,.33-2.78c-.92,1.91-4.7,8.63-12.7,10a17.1,17.1,0,0,1-13-3.11,13.81,13.81,0,0,0,3.25,3.74,14.39,14.39,0,0,0,22-7.27Z"/><path class="cls-13" d="M847.14,593.7l.09-.3a7.21,7.21,0,0,0,.16-1.38,9,9,0,0,1-6.28,5,8.46,8.46,0,0,1-6.44-1.54,6.78,6.78,0,0,0,1.61,1.85,7.32,7.32,0,0,0,1.85.94A7.13,7.13,0,0,0,847.14,593.7Z"/><path class="cls-12" d="M896.68,568.09a14.93,14.93,0,0,1,26.94-3.3,15,15,0,1,0-27.11,11.94A15.07,15.07,0,0,1,896.68,568.09Z"/><path class="cls-10" d="M1034.38,588.6a20.26,20.26,0,0,0-13.52-6.41l2.46-11.7a22.24,22.24,0,0,0-4.36-12.4c-5.48-7.17-15.55-10.24-25.79-8.05a20.94,20.94,0,0,0-20.44-17.49v78.17l53.27-.32a12,12,0,0,0,7.37-1.68c5.37-3.33,5.68-9.81,5.7-10.39A19.81,19.81,0,0,0,1034.38,588.6Z"/><path class="cls-11" d="M970.72,532.6a24.16,24.16,0,0,0-13.1,5.82,24.87,24.87,0,0,0-8,17c-20.1,0-14.07,22.81-14.07,22.81-18.76-4.7-14.07,13.41-14.07,13.41-14.74,1.34-8.71,17.44-8,19.45l59.29-.35V532.55C971.8,532.53,971.09,532.57,970.72,532.6Z"/><path class="cls-12" d="M958.46,550.12a14.93,14.93,0,0,1,26.93-3.3,15,15,0,1,0-27.1,11.94A14.9,14.9,0,0,1,958.46,550.12Z"/><path class="cls-12" d="M939.13,568.19a8,8,0,0,1,14-4.05,8,8,0,1,0-13.35,8.65A8,8,0,0,1,939.13,568.19Z"/><path class="cls-12" d="M924.84,588.54a8,8,0,0,1,14-4.06,8,8,0,1,0-13.35,8.65A8,8,0,0,1,924.84,588.54Z"/><path class="cls-12" d="M1013.28,593.23a8,8,0,0,1,14-4.05,8,8,0,1,0-13.35,8.65A8,8,0,0,1,1013.28,593.23Z"/><path class="cls-12" d="M914.54,600.62a6,6,0,0,1,6.88-5.06,6,6,0,0,1,3.63,2,6,6,0,1,0-10,6.5A6.14,6.14,0,0,1,914.54,600.62Z"/><path class="cls-13" d="M1019.27,576.84c.07-.19.12-.37.17-.56a13.26,13.26,0,0,0,.31-2.56c-.85,1.76-4.33,7.94-11.7,9.23a15.73,15.73,0,0,1-12-2.86,12.73,12.73,0,0,0,3,3.44,13.09,13.09,0,0,0,3.44,1.74A13.26,13.26,0,0,0,1019.27,576.84Z"/><path class="cls-13" d="M989.9,561.73c.07-.2.13-.41.18-.61a13.27,13.27,0,0,0,.33-2.78c-.92,1.91-4.7,8.63-12.7,10a17.1,17.1,0,0,1-13-3.11,13.81,13.81,0,0,0,3.25,3.74,14.39,14.39,0,0,0,22-7.27Z"/><path class="cls-13" d="M940.74,592.5l.09-.3a7.21,7.21,0,0,0,.16-1.38,9,9,0,0,1-6.28,5,8.46,8.46,0,0,1-6.44-1.54,6.78,6.78,0,0,0,1.61,1.85,7.32,7.32,0,0,0,1.85.94A7.13,7.13,0,0,0,940.74,592.5Z"/><path class="cls-12" d="M990.28,566.89a14.93,14.93,0,0,1,26.94-3.3,15,15,0,1,0-27.11,11.94A15.07,15.07,0,0,1,990.28,566.89Z"/><path class="cls-14" d="M609,382.68a9.27,9.27,0,1,1-9.27-9.3A9.28,9.28,0,0,1,609,382.68Z"/><ellipse class="cls-14" cx="649.04" cy="381.11" rx="9.27" ry="9.3"/><ellipse class="cls-14" cx="612.48" cy="378.41" rx="12.86" ry="12.9"/><path class="cls-14" d="M644.4,375.7a15.32,15.32,0,1,1-15.32-15.37A15.35,15.35,0,0,1,644.4,375.7Z"/><path class="cls-15" d="M642.83,375a15.09,15.09,0,0,0-.67-4.48c-.85,5.43-5.87,17.68-18.15,18.95a15.2,15.2,0,0,0,3.89.51A15,15,0,0,0,642.83,375Z"/><path class="cls-15" d="M657,380.08a9,9,0,0,0-.4-2.66c-.51,3.23-3.49,10.52-10.79,11.27A8.87,8.87,0,0,0,657,380.08Z"/><path class="cls-15" d="M621.75,380.08a9,9,0,0,0-.4-2.66c-.5,3.23-3.49,10.52-10.79,11.27a8.87,8.87,0,0,0,11.19-8.61Z"/><ellipse class="cls-14" cx="432.36" cy="315.99" rx="9.27" ry="9.3"/><path class="cls-14" d="M491,314.41a9.27,9.27,0,1,1-9.27-9.3A9.28,9.28,0,0,1,491,314.41Z"/><path class="cls-14" d="M458,311.71a12.86,12.86,0,1,1-12.85-12.9A12.87,12.87,0,0,1,458,311.71Z"/><ellipse class="cls-14" cx="461.74" cy="309.01" rx="15.32" ry="15.38"/><path class="cls-15" d="M475.5,308.33a15,15,0,0,0-.68-4.47c-.85,5.42-5.87,17.68-18.14,18.94a14.92,14.92,0,0,0,18.82-14.47Z"/><path class="cls-15" d="M489.63,313.39a9,9,0,0,0-.41-2.66c-.5,3.22-3.49,10.51-10.79,11.26a8.87,8.87,0,0,0,11.2-8.6Z"/><path class="cls-15" d="M454.42,313.39a9,9,0,0,0-.41-2.66c-.5,3.22-3.49,10.51-10.79,11.26a8.87,8.87,0,0,0,11.2-8.6Z"/><path class="cls-14" d="M775.66,226.16a9.27,9.27,0,1,1-9.27-9.3A9.28,9.28,0,0,1,775.66,226.16Z"/><ellipse class="cls-14" cx="815.73" cy="224.58" rx="9.27" ry="9.3"/><path class="cls-14" d="M792,221.88A12.86,12.86,0,1,1,779.17,209,12.88,12.88,0,0,1,792,221.88Z"/><path class="cls-14" d="M811.09,219.18a15.33,15.33,0,1,1-15.32-15.38A15.35,15.35,0,0,1,811.09,219.18Z"/><path class="cls-15" d="M809.52,218.51a14.73,14.73,0,0,0-.68-4.48C808,219.45,803,231.71,790.7,233a14.72,14.72,0,0,0,3.89.52A15,15,0,0,0,809.52,218.51Z"/><path class="cls-15" d="M823.65,223.56a9,9,0,0,0-.4-2.66c-.51,3.22-3.49,10.51-10.79,11.26a8.76,8.76,0,0,0,2.31.31A8.89,8.89,0,0,0,823.65,223.56Z"/><path class="cls-15" d="M788.44,223.56a9,9,0,0,0-.4-2.66c-.51,3.22-3.49,10.51-10.79,11.26a8.87,8.87,0,0,0,11.19-8.6Z"/><ellipse class="cls-14" cx="969.16" cy="62.8" rx="9.27" ry="9.3"/><path class="cls-14" d="M1027.77,61.22a9.27,9.27,0,1,1-9.27-9.3A9.29,9.29,0,0,1,1027.77,61.22Z"/><path class="cls-14" d="M994.8,58.52a12.86,12.86,0,1,1-12.86-12.9A12.89,12.89,0,0,1,994.8,58.52Z"/><path class="cls-14" d="M1013.86,55.82a15.33,15.33,0,1,1-15.32-15.37A15.35,15.35,0,0,1,1013.86,55.82Z"/><path class="cls-15" d="M1012.29,55.15a15.09,15.09,0,0,0-.68-4.48c-.85,5.42-5.86,17.68-18.14,18.94a14.72,14.72,0,0,0,3.89.52A15,15,0,0,0,1012.29,55.15Z"/><path class="cls-15" d="M1026.42,60.2a9,9,0,0,0-.4-2.66c-.51,3.22-3.49,10.51-10.8,11.27a8.91,8.91,0,0,0,11.2-8.61Z"/><path class="cls-15" d="M991.21,60.2a9,9,0,0,0-.4-2.66c-.51,3.22-3.49,10.51-10.79,11.27a8.76,8.76,0,0,0,2.31.3A8.9,8.9,0,0,0,991.21,60.2Z"/><ellipse class="cls-14" cx="623.15" cy="78.63" rx="9.27" ry="9.3"/><path class="cls-14" d="M681.76,77.05a9.27,9.27,0,1,1-9.27-9.3A9.28,9.28,0,0,1,681.76,77.05Z"/><path class="cls-14" d="M648.79,74.35a12.86,12.86,0,1,1-12.85-12.9A12.87,12.87,0,0,1,648.79,74.35Z"/><path class="cls-14" d="M667.85,71.65a15.32,15.32,0,1,1-15.32-15.38A15.35,15.35,0,0,1,667.85,71.65Z"/><path class="cls-15" d="M666.28,71a15,15,0,0,0-.67-4.48c-.85,5.42-5.87,17.68-18.15,18.94a14.8,14.8,0,0,0,3.9.52A15,15,0,0,0,666.28,71Z"/><path class="cls-15" d="M680.41,76a9,9,0,0,0-.4-2.66c-.51,3.22-3.49,10.51-10.79,11.26A8.87,8.87,0,0,0,680.41,76Z"/><path class="cls-15" d="M645.2,76a9,9,0,0,0-.4-2.66c-.5,3.22-3.49,10.51-10.79,11.26A8.87,8.87,0,0,0,645.2,76Z"/><ellipse class="cls-14" cx="114.23" cy="167.79" rx="9.27" ry="9.3"/><path class="cls-14" d="M172.84,166.22a9.27,9.27,0,1,1-9.27-9.3A9.28,9.28,0,0,1,172.84,166.22Z"/><path class="cls-14" d="M139.87,163.52A12.86,12.86,0,1,1,127,150.61,12.88,12.88,0,0,1,139.87,163.52Z"/><path class="cls-14" d="M158.93,160.82a15.33,15.33,0,1,1-15.32-15.38A15.34,15.34,0,0,1,158.93,160.82Z"/><path class="cls-15" d="M157.36,160.14a14.66,14.66,0,0,0-.68-4.47c-.84,5.42-5.86,17.67-18.14,18.94a15.14,15.14,0,0,0,3.89.51A15,15,0,0,0,157.36,160.14Z"/><path class="cls-15" d="M171.49,165.2a9,9,0,0,0-.4-2.67c-.51,3.23-3.49,10.52-10.79,11.27a8.76,8.76,0,0,0,2.31.31A8.89,8.89,0,0,0,171.49,165.2Z"/><path class="cls-15" d="M136.28,165.2a9,9,0,0,0-.4-2.67c-.51,3.23-3.49,10.52-10.79,11.27a8.87,8.87,0,0,0,11.19-8.6Z"/><path class="cls-14" d="M867.39,343.72a9.27,9.27,0,1,1-9.27-9.3A9.28,9.28,0,0,1,867.39,343.72Z"/><ellipse class="cls-14" cx="907.46" cy="342.14" rx="9.27" ry="9.3"/><path class="cls-14" d="M883.77,339.44a12.86,12.86,0,1,1-12.86-12.9A12.88,12.88,0,0,1,883.77,339.44Z"/><path class="cls-14" d="M902.83,336.74a15.33,15.33,0,1,1-15.33-15.38A15.36,15.36,0,0,1,902.83,336.74Z"/><path class="cls-15" d="M901.26,336.07a15,15,0,0,0-.68-4.48c-.85,5.42-5.87,17.68-18.14,18.94a14.67,14.67,0,0,0,3.89.52A15,15,0,0,0,901.26,336.07Z"/><path class="cls-15" d="M915.39,341.12a9,9,0,0,0-.41-2.66c-.5,3.22-3.49,10.51-10.79,11.27a9.26,9.26,0,0,0,2.31.3A8.9,8.9,0,0,0,915.39,341.12Z"/><path class="cls-15" d="M880.18,341.12a8.66,8.66,0,0,0-.41-2.66c-.5,3.22-3.48,10.51-10.79,11.27a9.34,9.34,0,0,0,2.32.3A8.9,8.9,0,0,0,880.18,341.12Z"/><path class="cls-14" d="M116.06,325.88a9.27,9.27,0,1,0,9.27-9.3A9.28,9.28,0,0,0,116.06,325.88Z"/><ellipse class="cls-14" cx="75.99" cy="324.31" rx="9.27" ry="9.3"/><path class="cls-14" d="M99.69,321.61a12.86,12.86,0,1,0,12.85-12.91A12.88,12.88,0,0,0,99.69,321.61Z"/><path class="cls-14" d="M80.62,318.9A15.33,15.33,0,1,0,96,303.53,15.36,15.36,0,0,0,80.62,318.9Z"/><path class="cls-15" d="M82.19,318.23a15.09,15.09,0,0,1,.68-4.48c.85,5.42,5.87,17.68,18.14,18.94a14.67,14.67,0,0,1-3.89.52A15,15,0,0,1,82.19,318.23Z"/><path class="cls-15" d="M68.07,323.28a9,9,0,0,1,.4-2.66c.5,3.23,3.49,10.52,10.79,11.27a8.87,8.87,0,0,1-11.19-8.61Z"/><path class="cls-15" d="M103.27,323.28a9,9,0,0,1,.41-2.66c.5,3.23,3.49,10.52,10.79,11.27a8.87,8.87,0,0,1-11.2-8.61Z"/><path class="cls-14" d="M814.57,384.93a6.71,6.71,0,1,1-6.71-6.74A6.72,6.72,0,0,1,814.57,384.93Z"/><path class="cls-14" d="M854,383.62a9.31,9.31,0,1,1-9.31-9.34A9.33,9.33,0,0,1,854,383.62Z"/><ellipse class="cls-14" cx="830.65" cy="380.26" rx="13.86" ry="13.91"/><path class="cls-14" d="M832.17,383.84a11.59,11.59,0,1,1-11.59-11.62A11.61,11.61,0,0,1,832.17,383.84Z"/><path class="cls-15" d="M832.17,383.84a11.71,11.71,0,0,0-.53-3.47c-.66,4.21-4.55,13.71-14.08,14.7a11.59,11.59,0,0,0,14.61-11.23Z"/><path class="cls-15" d="M852.27,383.38a8.66,8.66,0,0,0-.33-2.61c-.57,3.13-3.66,10.17-10.8,10.72a8.34,8.34,0,0,0,2.25.36A8.68,8.68,0,0,0,852.27,383.38Z"/><path class="cls-15" d="M841.76,380.39a10,10,0,0,0-1-2.95c.07,3.78-1.85,12.7-10,15a10.29,10.29,0,0,0,11-12.09Z"/><path class="cls-14" d="M688.57,344.13a6.71,6.71,0,1,1-6.71-6.74A6.72,6.72,0,0,1,688.57,344.13Z"/><path class="cls-14" d="M728,342.82a9.31,9.31,0,1,1-9.31-9.34A9.33,9.33,0,0,1,728,342.82Z"/><ellipse class="cls-14" cx="704.65" cy="339.46" rx="13.86" ry="13.91"/><path class="cls-14" d="M706.17,343a11.59,11.59,0,1,1-11.59-11.62A11.61,11.61,0,0,1,706.17,343Z"/><path class="cls-15" d="M706.17,343a11.71,11.71,0,0,0-.53-3.47c-.66,4.21-4.55,13.71-14.08,14.7A11.59,11.59,0,0,0,706.17,343Z"/><path class="cls-15" d="M726.27,342.58a8.66,8.66,0,0,0-.33-2.61c-.57,3.13-3.66,10.17-10.8,10.72a8.34,8.34,0,0,0,2.25.36A8.68,8.68,0,0,0,726.27,342.58Z"/><path class="cls-15" d="M715.76,339.59a10,10,0,0,0-1-2.95c.07,3.78-1.85,12.7-10,15a10.29,10.29,0,0,0,11-12.09Z"/><path class="cls-14" d="M1038.31,169.41a6.71,6.71,0,1,1-6.71-6.73A6.72,6.72,0,0,1,1038.31,169.41Z"/><ellipse class="cls-14" cx="1068.46" cy="168.11" rx="9.31" ry="9.34"/><ellipse class="cls-14" cx="1054.39" cy="164.74" rx="13.86" ry="13.91"/><path class="cls-14" d="M1055.9,168.33a11.58,11.58,0,1,1-11.58-11.63A11.6,11.6,0,0,1,1055.9,168.33Z"/><path class="cls-15" d="M1055.9,168.33a11.77,11.77,0,0,0-.52-3.48c-.66,4.21-4.55,13.72-14.08,14.7a11.58,11.58,0,0,0,14.6-11.22Z"/><path class="cls-15" d="M1076,167.86a8.92,8.92,0,0,0-.33-2.6c-.57,3.13-3.66,10.17-10.8,10.72a8.65,8.65,0,0,0,11.13-8.12Z"/><path class="cls-15" d="M1065.5,164.88a10.14,10.14,0,0,0-1-3c.08,3.78-1.85,12.7-10,15.05a10.7,10.7,0,0,0,2.7-.12A10.32,10.32,0,0,0,1065.5,164.88Z"/><path class="cls-14" d="M255.26,294.9a6.71,6.71,0,1,1-6.71-6.73A6.72,6.72,0,0,1,255.26,294.9Z"/><ellipse class="cls-14" cx="285.41" cy="293.6" rx="9.31" ry="9.34"/><ellipse class="cls-14" cx="271.34" cy="290.23" rx="13.86" ry="13.91"/><path class="cls-14" d="M272.85,293.82a11.58,11.58,0,1,1-11.58-11.63A11.6,11.6,0,0,1,272.85,293.82Z"/><path class="cls-15" d="M272.85,293.82a11.77,11.77,0,0,0-.52-3.48c-.66,4.21-4.55,13.72-14.08,14.7a11.58,11.58,0,0,0,14.6-11.22Z"/><path class="cls-15" d="M293,293.35a8.92,8.92,0,0,0-.33-2.6c-.57,3.13-3.66,10.16-10.8,10.72A8.68,8.68,0,0,0,293,293.35Z"/><path class="cls-15" d="M282.45,290.36a10.47,10.47,0,0,0-1-2.95c.07,3.78-1.85,12.7-10,15a9.85,9.85,0,0,0,2.7-.12A10.31,10.31,0,0,0,282.45,290.36Z"/><path class="cls-14" d="M1126.47,353.67a6.71,6.71,0,1,1-6.71-6.74A6.72,6.72,0,0,1,1126.47,353.67Z"/><path class="cls-14" d="M1165.93,352.37a9.31,9.31,0,1,1-9.31-9.35A9.32,9.32,0,0,1,1165.93,352.37Z"/><ellipse class="cls-14" cx="1142.55" cy="349" rx="13.86" ry="13.91"/><ellipse class="cls-14" cx="1132.48" cy="352.58" rx="11.58" ry="11.62"/><path class="cls-15" d="M1144.07,352.58a11.71,11.71,0,0,0-.53-3.47c-.66,4.21-4.55,13.72-14.08,14.7a11.59,11.59,0,0,0,14.61-11.23Z"/><path class="cls-15" d="M1164.17,352.12a8.7,8.7,0,0,0-.33-2.61c-.57,3.14-3.66,10.17-10.8,10.73a8.68,8.68,0,0,0,11.13-8.12Z"/><path class="cls-15" d="M1153.67,349.13a10.27,10.27,0,0,0-1-2.95c.07,3.78-1.85,12.7-10,15a10.3,10.3,0,0,0,11-12.09Z"/><path class="cls-14" d="M84.55,309.46a6.71,6.71,0,1,0,6.71-6.74A6.72,6.72,0,0,0,84.55,309.46Z"/><ellipse class="cls-14" cx="54.4" cy="308.16" rx="9.31" ry="9.34"/><ellipse class="cls-14" cx="68.47" cy="304.79" rx="13.86" ry="13.91"/><path class="cls-14" d="M67,308.37a11.59,11.59,0,1,0,11.59-11.62A11.61,11.61,0,0,0,67,308.37Z"/><path class="cls-15" d="M67,308.37a11.71,11.71,0,0,1,.53-3.47c.66,4.21,4.55,13.72,14.08,14.7A11.59,11.59,0,0,1,67,308.37Z"/><path class="cls-15" d="M46.85,307.91a8.7,8.7,0,0,1,.33-2.61c.57,3.14,3.66,10.17,10.8,10.72a8.34,8.34,0,0,1-2.25.36A8.68,8.68,0,0,1,46.85,307.91Z"/><path class="cls-15" d="M57.36,304.92a10.26,10.26,0,0,1,1-2.95c-.07,3.78,1.85,12.7,10,15a10.29,10.29,0,0,1-11-12.09Z"/><path class="cls-14" d="M991.61,370.54a6.72,6.72,0,1,1-6.71-6.74A6.72,6.72,0,0,1,991.61,370.54Z"/><ellipse class="cls-14" cx="1021.76" cy="369.23" rx="9.31" ry="9.34"/><ellipse class="cls-14" cx="1007.68" cy="365.87" rx="13.86" ry="13.91"/><path class="cls-14" d="M1009.2,369.45a11.59,11.59,0,1,1-11.58-11.62A11.61,11.61,0,0,1,1009.2,369.45Z"/><path class="cls-15" d="M1009.2,369.45a11.35,11.35,0,0,0-.53-3.47c-.65,4.2-4.55,13.71-14.07,14.69a11.55,11.55,0,0,0,14.6-11.22Z"/><path class="cls-15" d="M1029.3,369a8.66,8.66,0,0,0-.32-2.61c-.58,3.13-3.66,10.17-10.81,10.72a8.4,8.4,0,0,0,2.25.36A8.67,8.67,0,0,0,1029.3,369Z"/><path class="cls-15" d="M1018.8,366a10.27,10.27,0,0,0-1-2.95c.08,3.78-1.85,12.69-10,15a10.29,10.29,0,0,0,11-12.09Z"/><path class="cls-14" d="M445,149.46a6.71,6.71,0,1,1-6.71-6.74A6.72,6.72,0,0,1,445,149.46Z"/><path class="cls-14" d="M484.46,148.15a9.31,9.31,0,1,1-9.31-9.34A9.33,9.33,0,0,1,484.46,148.15Z"/><ellipse class="cls-14" cx="461.08" cy="144.79" rx="13.86" ry="13.91"/><ellipse class="cls-14" cx="451.01" cy="148.37" rx="11.58" ry="11.62"/><path class="cls-15" d="M462.59,148.37a11.7,11.7,0,0,0-.52-3.47c-.66,4.21-4.55,13.71-14.08,14.7a11.58,11.58,0,0,0,14.6-11.23Z"/><path class="cls-15" d="M482.7,147.91a9,9,0,0,0-.33-2.61c-.57,3.13-3.66,10.17-10.8,10.72a8.34,8.34,0,0,0,2.25.36A8.68,8.68,0,0,0,482.7,147.91Z"/><path class="cls-15" d="M472.19,144.92a10.27,10.27,0,0,0-1-2.95c.08,3.78-1.85,12.7-10,15a10.29,10.29,0,0,0,11-12.09Z"/><path class="cls-14" d="M194.18,49.35a6.71,6.71,0,1,1-6.71-6.74A6.72,6.72,0,0,1,194.18,49.35Z"/><ellipse class="cls-14" cx="224.33" cy="48.04" rx="9.31" ry="9.34"/><ellipse class="cls-14" cx="210.26" cy="44.68" rx="13.86" ry="13.91"/><path class="cls-14" d="M211.77,48.26a11.58,11.58,0,1,1-11.58-11.62A11.6,11.6,0,0,1,211.77,48.26Z"/><path class="cls-15" d="M211.77,48.26a11.66,11.66,0,0,0-.52-3.47c-.66,4.2-4.55,13.71-14.08,14.69a11.55,11.55,0,0,0,14.6-11.22Z"/><path class="cls-15" d="M231.88,47.8a9,9,0,0,0-.33-2.61c-.57,3.13-3.66,10.17-10.8,10.72a8.34,8.34,0,0,0,2.25.36A8.68,8.68,0,0,0,231.88,47.8Z"/><path class="cls-15" d="M221.37,44.81a10,10,0,0,0-1-3c.08,3.78-1.85,12.7-10,15a10.29,10.29,0,0,0,11-12.09Z"/><rect class="cls-16" x="54.51" y="568.21" width="3.05" height="56.63"/><ellipse class="cls-17" cx="45.23" cy="525.54" rx="20.38" ry="20.43"/><ellipse class="cls-17" cx="60.57" cy="498.99" rx="17.17" ry="17.22"/><path class="cls-17" d="M94.65,549.89a24.52,24.52,0,1,1-3.45-34.56A24.46,24.46,0,0,1,94.65,549.89Z"/><ellipse class="cls-17" cx="56.45" cy="551.33" rx="31.83" ry="31.91"/><path class="cls-18" d="M77.32,495.19a17.16,17.16,0,0,0-33-1.79c1.82-1.9,8.85-8.36,18.83-6.91A21.31,21.31,0,0,1,77.32,495.19Z"/><path class="cls-18" d="M25.29,521.34c-.06.3-.12.59-.16.89a19.42,19.42,0,0,0,0,4c1-2.83,5.22-12.88,16.24-16.13a24.21,24.21,0,0,1,18.8,2.26A19.6,19.6,0,0,0,55,507.6a20.36,20.36,0,0,0-29.69,13.74Z"/><path class="cls-19" d="M95.72,547.19l.38-.81a20.3,20.3,0,0,0,1-3.84c-1.67,2.5-8.27,11.15-19.76,11.53a24.28,24.28,0,0,1-17.63-6.93A19.79,19.79,0,0,0,63.53,553a20.35,20.35,0,0,0,32.19-5.82Z"/><path class="cls-18" d="M64.4,519.67A24.49,24.49,0,0,1,100,531a24.51,24.51,0,1,0-46.87,12.81A24.57,24.57,0,0,1,64.4,519.67Z"/><path class="cls-19" d="M55.43,571.89C45,570.25,32.41,563.5,28.52,552a23.38,23.38,0,0,1-1.05-4.67,26.4,26.4,0,0,0-.1,6.19,31.17,31.17,0,0,0,3.33,10.41c4,7.39,19.15,20.68,35.16,15.42,11-3.62,16-13.89,17-16.34a30,30,0,0,1-11.6,7.65A31,31,0,0,1,55.43,571.89Z"/><rect class="cls-16" x="591.18" y="558.8" width="3.05" height="56.63"/><path class="cls-17" d="M601.85,520.32a20.38,20.38,0,1,1-15.76-24.19A20.38,20.38,0,0,1,601.85,520.32Z"/><ellipse class="cls-17" cx="597.24" cy="489.57" rx="17.17" ry="17.22"/><ellipse class="cls-17" cx="612.36" cy="524.92" rx="24.5" ry="24.56"/><ellipse class="cls-17" cx="593.12" cy="541.91" rx="31.83" ry="31.91"/><path class="cls-18" d="M614,485.78a17.16,17.16,0,0,0-33-1.8c1.82-1.9,8.85-8.35,18.83-6.9A21.24,21.24,0,0,1,614,485.78Z"/><path class="cls-18" d="M562,511.93c-.06.29-.12.59-.16.88a20.17,20.17,0,0,0,0,4c1-2.83,5.22-12.87,16.24-16.13a24.25,24.25,0,0,1,18.8,2.26,19.6,19.6,0,0,0-5.17-4.72A20.36,20.36,0,0,0,562,511.93Z"/><path class="cls-19" d="M632.39,537.77c.13-.27.26-.54.38-.81a19.48,19.48,0,0,0,1-3.83c-1.67,2.49-8.27,11.15-19.76,11.52a24.26,24.26,0,0,1-17.63-6.93,19.84,19.84,0,0,0,3.82,5.88,20.63,20.63,0,0,0,4.87,3.38A20.36,20.36,0,0,0,632.39,537.77Z"/><path class="cls-18" d="M601.07,510.25a24.49,24.49,0,0,1,35.56,11.35,24.51,24.51,0,1,0-46.87,12.82A24.58,24.58,0,0,1,601.07,510.25Z"/><path class="cls-19" d="M592.1,562.47c-10.43-1.64-23-8.39-26.91-19.88a23.6,23.6,0,0,1-1.05-4.68,26.51,26.51,0,0,0-.1,6.2,31.15,31.15,0,0,0,3.33,10.4c4,7.4,19.15,20.68,35.16,15.42,11-3.62,16-13.89,17.05-16.34a30.14,30.14,0,0,1-11.6,7.66A30.94,30.94,0,0,1,592.1,562.47Z"/><rect class="cls-16" x="647.26" y="564.89" width="3.05" height="56.63"/><path class="cls-17" d="M657.92,526.41a20.38,20.38,0,1,1-15.75-24.19A20.38,20.38,0,0,1,657.92,526.41Z"/><path class="cls-17" d="M667.11,505.92a17.19,17.19,0,1,1-3.56-24.09A17.14,17.14,0,0,1,667.11,505.92Z"/><ellipse class="cls-17" cx="668.43" cy="531.01" rx="24.5" ry="24.56"/><ellipse class="cls-17" cx="649.2" cy="548" rx="31.83" ry="31.91"/><path class="cls-18" d="M670.07,491.87a17.16,17.16,0,0,0-33-1.8c1.82-1.9,8.85-8.35,18.83-6.9A21.24,21.24,0,0,1,670.07,491.87Z"/><path class="cls-18" d="M618,518c-.06.29-.11.58-.16.88a19.42,19.42,0,0,0,0,4c1-2.83,5.21-12.87,16.24-16.13A24.25,24.25,0,0,1,652.9,509a19.75,19.75,0,0,0-5.17-4.72A20.37,20.37,0,0,0,618,518Z"/><path class="cls-19" d="M688.47,543.86c.13-.27.25-.54.37-.81a19.51,19.51,0,0,0,1-3.83c-1.67,2.49-8.27,11.14-19.76,11.52a24.23,24.23,0,0,1-17.63-6.93,19.65,19.65,0,0,0,3.82,5.88,20.38,20.38,0,0,0,32.19-5.83Z"/><path class="cls-18" d="M657.15,516.34a24.49,24.49,0,0,1,35.56,11.35,24.51,24.51,0,1,0-46.87,12.81A24.58,24.58,0,0,1,657.15,516.34Z"/><path class="cls-19" d="M648.18,568.56c-10.44-1.64-23-8.39-26.91-19.89a23.38,23.38,0,0,1-1-4.67,26.51,26.51,0,0,0-.1,6.2,30.88,30.88,0,0,0,3.33,10.4c4,7.4,19.14,20.68,35.16,15.42,11-3.62,15.95-13.89,17-16.34a30.14,30.14,0,0,1-11.6,7.66A30.94,30.94,0,0,1,648.18,568.56Z"/><rect class="cls-16" x="709.71" y="563.41" width="3.05" height="56.63"/><ellipse class="cls-17" cx="700.43" cy="520.74" rx="20.38" ry="20.43" transform="translate(-0.55 0.74) rotate(-0.06)"/><path class="cls-17" d="M729.57,504.45A17.19,17.19,0,1,1,726,480.36,17.16,17.16,0,0,1,729.57,504.45Z"/><ellipse class="cls-17" cx="730.89" cy="529.54" rx="24.5" ry="24.56"/><ellipse class="cls-17" cx="711.65" cy="546.53" rx="31.83" ry="31.91"/><path class="cls-18" d="M732.52,490.39a17.16,17.16,0,0,0-33-1.79c1.82-1.9,8.85-8.36,18.83-6.91A21.31,21.31,0,0,1,732.52,490.39Z"/><path class="cls-18" d="M680.49,516.54c-.06.3-.12.59-.16.89a19.42,19.42,0,0,0,0,4c1-2.83,5.22-12.88,16.24-16.13a24.21,24.21,0,0,1,18.8,2.26,19.6,19.6,0,0,0-5.17-4.72,20.36,20.36,0,0,0-29.69,13.74Z"/><path class="cls-19" d="M750.92,542.39l.38-.81a20.3,20.3,0,0,0,1-3.84c-1.67,2.5-8.27,11.15-19.76,11.53a24.28,24.28,0,0,1-17.63-6.93,19.67,19.67,0,0,0,3.82,5.87,20.35,20.35,0,0,0,32.19-5.82Z"/><path class="cls-18" d="M719.6,514.87a24.49,24.49,0,0,1,35.56,11.35A24.51,24.51,0,1,0,708.29,539,24.57,24.57,0,0,1,719.6,514.87Z"/><path class="cls-19" d="M710.63,567.09c-10.43-1.64-23-8.39-26.91-19.89a23.38,23.38,0,0,1-1.05-4.67,26.4,26.4,0,0,0-.1,6.19,31.17,31.17,0,0,0,3.33,10.41c4,7.39,19.15,20.68,35.16,15.42,11-3.62,16-13.89,17.05-16.34a30.14,30.14,0,0,1-11.6,7.65A31,31,0,0,1,710.63,567.09Z"/><rect class="cls-16" x="893.98" y="566.95" width="3.05" height="56.63"/><path class="cls-17" d="M904.64,528.47a20.38,20.38,0,1,1-15.76-24.19A20.37,20.37,0,0,1,904.64,528.47Z"/><path class="cls-17" d="M913.83,508a17.19,17.19,0,1,1-3.56-24.08A17.14,17.14,0,0,1,913.83,508Z"/><ellipse class="cls-17" cx="915.15" cy="533.07" rx="24.5" ry="24.56"/><ellipse class="cls-17" cx="895.91" cy="550.06" rx="31.83" ry="31.91"/><path class="cls-18" d="M916.78,493.93a17.17,17.17,0,0,0-33-1.8c1.82-1.9,8.86-8.35,18.84-6.9A21.24,21.24,0,0,1,916.78,493.93Z"/><path class="cls-18" d="M864.75,520.08c-.06.29-.11.59-.16.88a19.42,19.42,0,0,0,0,4c1-2.83,5.21-12.87,16.23-16.13a24.21,24.21,0,0,1,18.8,2.27,19.47,19.47,0,0,0-5.17-4.73,20.36,20.36,0,0,0-29.69,13.75Z"/><path class="cls-19" d="M935.18,545.92c.13-.27.26-.54.38-.81a19.48,19.48,0,0,0,1-3.83c-1.67,2.49-8.27,11.15-19.76,11.52a24.26,24.26,0,0,1-17.63-6.93,19.84,19.84,0,0,0,3.82,5.88,20.38,20.38,0,0,0,32.19-5.83Z"/><path class="cls-18" d="M903.86,518.4a24.47,24.47,0,0,1,33.76,7.84,25.3,25.3,0,0,1,1.8,3.51,24.51,24.51,0,1,0-46.87,12.82A24.58,24.58,0,0,1,903.86,518.4Z"/><path class="cls-19" d="M894.89,570.62c-10.43-1.63-23-8.39-26.9-19.88a23,23,0,0,1-1.06-4.68,26.06,26.06,0,0,0-.09,6.2,31,31,0,0,0,3.32,10.4c4,7.4,19.15,20.69,35.17,15.42,11-3.62,15.95-13.89,17-16.33a30.26,30.26,0,0,1-11.6,7.65A30.83,30.83,0,0,1,894.89,570.62Z"/><rect class="cls-20" x="106.39" y="390.19" width="59.76" height="28.93"/><rect class="cls-20" x="167.27" y="390.19" width="59.76" height="28.93"/><rect class="cls-20" x="227.68" y="390.19" width="59.76" height="28.87"/><rect class="cls-21" x="288.04" y="390.19" width="46.72" height="28.46"/><rect class="cls-22" x="321.14" y="419.71" width="13.61" height="29.52"/><rect class="cls-22" x="287.92" y="449.29" width="46.83" height="29.52"/><rect class="cls-22" x="321.02" y="479.88" width="13.73" height="28.28"/><rect class="cls-20" x="138.78" y="508.64" width="27.25" height="0.89"/><rect class="cls-20" x="106.27" y="508.64" width="31.39" height="0.89"/><polygon class="cls-20" points="199.72 508.64 198.54 508.64 198.54 509.53 167.15 509.53 167.15 538.16 226.91 538.16 226.91 509.35 199.72 509.35 199.72 508.64"/><rect class="cls-20" x="199.73" y="508.64" width="27.19" height="0.71"/><rect class="cls-20" x="167.15" y="508.64" width="31.39" height="0.89"/><polygon class="cls-20" points="260.14 508.58 259.48 508.58 259.48 509.35 227.56 509.35 227.56 538.1 287.32 538.1 287.32 509.41 260.14 509.41 260.14 508.58"/><rect class="cls-20" x="260.14" y="508.58" width="27.19" height="0.83"/><rect class="cls-20" x="227.57" y="508.58" width="31.92" height="0.77"/><polygon class="cls-22" points="321.02 509.41 321.02 508.16 319.89 508.16 319.89 509.41 287.92 509.41 287.92 537.69 334.75 537.69 334.75 509.41 321.02 509.41"/><rect class="cls-20" x="321.02" y="508.16" width="13.73" height="1.24"/><rect class="cls-20" x="287.92" y="508.16" width="31.98" height="1.24"/><rect class="cls-22" x="321.02" y="538.75" width="13.73" height="29.52"/><rect class="cls-20" x="199.73" y="538.7" width="59.76" height="29.52"/><rect class="cls-20" x="138.78" y="538.87" width="59.76" height="29.52"/><rect class="cls-20" x="167.12" y="569.35" width="59.76" height="29.52"/><rect class="cls-20" x="227.54" y="569.29" width="59.76" height="29.52"/><rect class="cls-22" x="287.89" y="568.87" width="46.86" height="29.52"/><rect class="cls-20" x="166.65" y="630.05" width="59.76" height="29.52"/><rect class="cls-20" x="227.06" y="629.99" width="59.76" height="29.52"/><rect class="cls-22" x="287.41" y="629.58" width="47.34" height="29.52"/><rect class="cls-22" x="320.99" y="599.46" width="13.76" height="29.52"/><rect class="cls-20" x="199.7" y="599.4" width="59.76" height="29.52"/><rect class="cls-20" x="138.75" y="599.58" width="59.76" height="29.52"/><polygon class="cls-23" points="319.89 508.16 319.89 479.88 260.14 479.88 260.14 508.58 287.32 508.58 287.32 509.41 287.92 509.41 287.92 508.16 319.89 508.16"/><rect class="cls-23" x="260.14" y="538.75" width="59.76" height="29.52"/><rect class="cls-23" x="260.11" y="599.46" width="59.76" height="29.52"/><rect class="cls-23" x="260.25" y="419.71" width="59.76" height="29.52"/><rect class="cls-23" x="199.84" y="419.65" width="59.76" height="29.52"/><rect class="cls-23" x="138.9" y="419.83" width="59.76" height="29.52"/><rect class="cls-23" x="106.39" y="419.83" width="31.39" height="29.52"/><rect class="cls-23" x="106.27" y="449.77" width="59.76" height="29.52"/><rect class="cls-23" x="167.15" y="449.77" width="59.76" height="29.52"/><rect class="cls-23" x="227.57" y="449.71" width="59.76" height="29.52"/><polygon class="cls-23" points="259.48 508.58 259.48 479.83 199.72 479.83 199.72 508.64 226.91 508.64 226.91 509.35 227.56 509.35 227.56 508.58 259.48 508.58"/><polygon class="cls-23" points="198.54 508.64 198.54 480 138.78 480 138.78 508.64 166.03 508.64 166.03 509.53 167.15 509.53 167.15 508.64 198.54 508.64"/><rect class="cls-23" x="106.27" y="480" width="31.39" height="28.63"/><polygon class="cls-23" points="138.78 508.64 137.65 508.64 137.65 509.53 106.27 509.53 106.27 538.16 166.03 538.16 166.03 509.53 138.78 509.53 138.78 508.64"/><rect class="cls-23" x="106.27" y="538.87" width="31.39" height="29.52"/><rect class="cls-23" x="106.24" y="569.35" width="59.76" height="29.52"/><rect class="cls-23" x="105.76" y="630.05" width="59.76" height="29.52"/><rect class="cls-23" x="106.24" y="599.58" width="31.39" height="29.52"/><rect class="cls-20" x="106.39" y="389.59" width="59.76" height="0.59"/><rect class="cls-20" x="167.27" y="389.59" width="59.76" height="0.59"/><rect class="cls-20" x="227.68" y="389.54" width="59.76" height="0.65"/><rect class="cls-20" x="288.04" y="389.12" width="46.72" height="1.07"/><rect class="cls-24" x="334.75" y="390.19" width="13.04" height="28.46"/><polygon class="cls-25" points="334.75 390.19 288.04 390.19 288.04 418.64 334.75 418.64 347.79 418.64 347.79 390.19 334.75 390.19"/><rect class="cls-26" x="348.92" y="390.19" width="59.76" height="28.46"/><rect class="cls-26" x="409.33" y="390.19" width="59.76" height="28.4"/><rect class="cls-26" x="470.28" y="390.19" width="59.76" height="28.58"/><rect class="cls-26" x="531.16" y="390.19" width="31.39" height="28.58"/><rect class="cls-27" x="334.75" y="419.71" width="46.15" height="29.52"/><polygon class="cls-25" points="334.75 419.71 321.14 419.71 321.14 449.24 334.75 449.24 380.9 449.24 380.9 419.71 334.75 419.71"/><rect class="cls-27" x="334.75" y="449.29" width="12.92" height="29.52"/><polygon class="cls-25" points="334.75 449.29 287.92 449.29 287.92 478.82 334.75 478.82 347.68 478.82 347.68 449.29 334.75 449.29"/><rect class="cls-26" x="381.49" y="449.29" width="27.07" height="0.36"/><rect class="cls-26" x="441.9" y="449.23" width="27.07" height="0.47"/><rect class="cls-26" x="409.21" y="449.23" width="32.04" height="0.41"/><rect class="cls-26" x="502.79" y="449.41" width="27.13" height="0.3"/><rect class="cls-26" x="470.16" y="449.41" width="31.5" height="0.3"/><rect class="cls-26" x="531.04" y="449.41" width="31.39" height="0.3"/><polygon class="cls-27" points="347.68 508.16 347.68 509.41 348.8 509.41 348.8 508.16 380.78 508.16 380.78 479.88 334.75 479.88 334.75 508.16 347.68 508.16"/><polygon class="cls-28" points="334.75 479.88 321.02 479.88 321.02 508.16 334.75 508.16 347.68 508.16 347.68 509.41 348.8 509.41 348.8 508.16 380.78 508.16 380.78 479.88 334.75 479.88"/><rect class="cls-27" x="334.75" y="509.41" width="12.92" height="28.28"/><polygon class="cls-28" points="334.75 509.41 321.02 509.41 321.02 508.16 319.89 508.16 319.89 509.41 287.92 509.41 287.92 537.69 334.75 537.69 347.68 537.69 347.68 509.41 334.75 509.41"/><rect class="cls-26" x="334.75" y="508.16" width="12.92" height="1.24"/><rect class="cls-26" x="381.37" y="508.16" width="27.19" height="1.66"/><rect class="cls-26" x="348.8" y="508.16" width="31.98" height="1.24"/><rect class="cls-26" x="441.78" y="508.1" width="27.19" height="1.78"/><rect class="cls-26" x="409.21" y="508.1" width="31.92" height="1.72"/><rect class="cls-26" x="502.67" y="508.28" width="27.25" height="1.6"/><rect class="cls-26" x="470.16" y="508.28" width="31.39" height="1.6"/><rect class="cls-26" x="531.04" y="508.28" width="31.39" height="1.6"/><rect class="cls-26" x="441.78" y="539.23" width="59.76" height="29.52"/><rect class="cls-26" x="381.37" y="539.17" width="59.76" height="29.52"/><rect class="cls-27" x="334.75" y="538.75" width="46.03" height="29.52"/><polygon class="cls-28" points="334.75 538.75 321.02 538.75 321.02 568.28 334.75 568.28 380.78 568.28 380.78 538.75 334.75 538.75"/><rect class="cls-27" x="334.75" y="568.87" width="12.89" height="29.52"/><polygon class="cls-28" points="334.75 568.87 287.89 568.87 287.89 598.39 334.75 598.39 347.65 598.39 347.65 568.87 334.75 568.87"/><rect class="cls-27" x="348.77" y="568.87" width="59.76" height="29.52"/><rect class="cls-26" x="409.18" y="568.81" width="59.76" height="29.52"/><rect class="cls-27" x="334.75" y="629.58" width="12.42" height="29.52"/><polygon class="cls-28" points="334.75 629.58 287.41 629.58 287.41 659.1 334.75 659.1 347.17 659.1 347.17 629.58 334.75 629.58"/><rect class="cls-27" x="348.3" y="629.58" width="59.76" height="29.52"/><rect class="cls-26" x="408.71" y="629.52" width="59.76" height="29.52"/><polygon class="cls-27" points="502.79 449.41 529.92 449.41 529.92 449.71 531.04 449.71 531.04 449.41 562.43 449.41 562.43 449.71 562.55 449.71 562.55 420.19 502.79 420.19 502.79 449.41"/><polygon class="cls-27" points="501.66 449.41 501.66 420.19 441.9 420.19 441.9 449.24 468.97 449.24 468.97 449.71 470.16 449.71 470.16 449.41 501.66 449.41"/><polygon class="cls-27" points="441.25 449.24 441.25 420.13 381.49 420.13 381.49 449.29 408.56 449.29 408.56 449.65 409.21 449.65 409.21 449.24 441.25 449.24"/><polygon class="cls-27" points="381.49 449.29 348.8 449.29 348.8 478.82 408.56 478.82 408.56 449.65 381.49 449.65 381.49 449.29"/><polygon class="cls-27" points="441.9 449.24 441.25 449.24 441.25 449.65 409.21 449.65 409.21 478.76 468.97 478.76 468.97 449.71 441.9 449.71 441.9 449.24"/><polygon class="cls-27" points="502.79 449.41 501.66 449.41 501.66 449.71 470.16 449.71 470.16 478.94 529.92 478.94 529.92 449.71 502.79 449.71 502.79 449.41"/><rect class="cls-27" x="531.04" y="449.71" width="31.39" height="29.23"/><polygon class="cls-27" points="529.92 509.88 531.04 509.88 531.04 508.28 562.43 508.28 562.43 480.36 502.67 480.36 502.67 508.28 529.92 508.28 529.92 509.88"/><polygon class="cls-27" points="468.97 509.88 470.16 509.88 470.16 508.28 501.54 508.28 501.54 480.36 441.78 480.36 441.78 508.1 468.97 508.1 468.97 509.88"/><polygon class="cls-27" points="408.56 509.82 409.21 509.82 409.21 508.1 441.13 508.1 441.13 480.3 381.37 480.3 381.37 508.16 408.56 508.16 408.56 509.82"/><polygon class="cls-27" points="348.8 509.41 348.8 537.69 408.56 537.69 408.56 509.82 381.37 509.82 381.37 508.16 380.78 508.16 380.78 509.41 348.8 509.41"/><polygon class="cls-27" points="409.21 509.82 409.21 537.63 468.97 537.63 468.97 509.88 441.78 509.88 441.78 508.1 441.13 508.1 441.13 509.82 409.21 509.82"/><polygon class="cls-27" points="470.16 509.88 470.16 537.81 529.92 537.81 529.92 509.88 502.67 509.88 502.67 508.28 501.54 508.28 501.54 509.88 470.16 509.88"/><rect class="cls-27" x="531.04" y="509.88" width="31.39" height="27.92"/><rect class="cls-27" x="502.67" y="539.23" width="59.76" height="29.52"/><rect class="cls-27" x="470.13" y="568.99" width="59.76" height="29.52"/><rect class="cls-27" x="531.01" y="568.99" width="31.39" height="29.52"/><rect class="cls-27" x="469.65" y="629.7" width="59.76" height="29.52"/><rect class="cls-27" x="530.54" y="629.7" width="31.39" height="29.52"/><rect class="cls-27" x="502.64" y="599.94" width="59.76" height="29.52"/><rect class="cls-26" x="441.75" y="599.94" width="59.76" height="29.52"/><rect class="cls-26" x="381.34" y="599.88" width="59.76" height="29.52"/><rect class="cls-27" x="334.75" y="599.46" width="46" height="29.52"/><polygon class="cls-28" points="334.75 599.46 320.99 599.46 320.99 628.99 334.75 628.99 380.75 628.99 380.75 599.46 334.75 599.46"/><rect class="cls-26" x="334.75" y="389.12" width="13.04" height="1.07"/><rect class="cls-26" x="348.92" y="389.12" width="59.76" height="1.07"/><rect class="cls-26" x="409.33" y="389.06" width="59.76" height="1.13"/><rect class="cls-26" x="470.28" y="389.24" width="59.76" height="0.95"/><rect class="cls-26" x="531.16" y="389.24" width="31.39" height="0.95"/><polygon class="cls-29" points="335.19 366.6 335.19 418.88 349.17 418.88 349.17 421.36 350.38 421.36 350.38 418.88 414.43 418.88 414.43 421.36 415.13 421.36 415.13 418.74 479.18 418.74 479.18 421.36 480.45 421.36 480.45 419.15 544.5 419.15 544.5 421.36 545.71 421.36 545.71 419.15 579.35 419.15 579.35 366.6 335.19 366.6"/><polygon class="cls-30" points="335.19 418.88 335.19 366.6 89.84 366.6 89.84 421.36 90.43 421.36 90.43 419.98 154.48 419.98 154.48 421.36 155.69 421.36 155.69 419.98 219.74 419.98 219.74 421.36 220.43 421.36 220.43 419.84 284.49 419.84 284.49 421.36 285.12 421.36 285.12 418.88 335.19 418.88"/><rect class="cls-31" x="340.58" y="497.64" width="210.42" height="162.28"/><rect class="cls-32" x="340.58" y="633.8" width="210.42" height="26.12"/><rect class="cls-33" x="340.33" y="475.1" width="9.01" height="184.7"/><rect class="cls-33" x="542.73" y="475.1" width="9.01" height="184.7"/><rect class="cls-14" x="119.09" y="480.9" width="210.42" height="178.66"/><rect class="cls-31" x="143.28" y="580.31" width="47.57" height="16.05"/><rect class="cls-31" x="198.58" y="580.45" width="47.57" height="16.05"/><rect class="cls-31" x="252.13" y="580.53" width="47.57" height="16.05"/><rect class="cls-31" x="142.83" y="605.72" width="47.57" height="16.05"/><rect class="cls-31" x="198.13" y="605.86" width="47.57" height="16.05"/><rect class="cls-31" x="251.68" y="605.95" width="47.57" height="16.05"/><rect class="cls-29" x="334.35" y="464.44" width="227.8" height="17.07"/><rect class="cls-33" x="118.13" y="474.8" width="9.01" height="184.7"/><rect class="cls-33" x="320.53" y="474.8" width="9.01" height="184.7"/><rect class="cls-30" x="105.44" y="464.44" width="228.91" height="17.07"/><rect x="410" y="612.2" width="83.6" height="8.32"/><rect x="426.65" y="631.05" width="47.11" height="11.2" transform="translate(1086.85 186.45) rotate(90)"/><rect x="380.81" y="587.31" width="18.39" height="48.69" rx="4.3"/><rect x="503.89" y="587.11" width="18.39" height="48.69" rx="4.3"/><rect class="cls-34" x="384.36" y="602.99" width="11.7" height="33.02" rx="2.73"/><rect class="cls-34" x="507.44" y="602.78" width="11.7" height="33.02" rx="2.73"/><path class="cls-35" d="M406.51,508.74s43.67-7.52,89.44.42c0,0,7.52,2.3,20.89,38.24l4,14s2.09,26.75-2.92,46.81c0,0-1.26,7.52-10,6.69l-118.49-.63s-2.5.21-4.18-7.52-4-20.69-4-20.69a61.91,61.91,0,0,1,.42-24.24c2.93-12.75,5.43-13,6.9-20.9C388.54,540.92,398.57,513.76,406.51,508.74Z"/><path class="cls-36" d="M395.22,581.46c5.86,1.67,39.71,4.6,55.17,4,0,0,28.84.84,55.59-4.18a9.77,9.77,0,0,0,7.31-4l7.7,7.9a207,207,0,0,0-.18-23.78l-4-14C503.47,511.46,496,509.16,496,509.16l-2.87-.48,3.08,5.08L475.47,524l-68.54-10.24s1.84-3.14,3.49-5.6c-2.52.34-3.91.58-3.91.58-7.94,5-18,32.18-18,32.18-1.47,7.94-4,8.15-6.9,20.9a61.91,61.91,0,0,0-.42,24.24l8.36-10S389.37,579.79,395.22,581.46Z"/><path class="cls-37" d="M393.45,599.88v3.43c0,2.47,1.73,4.48,3.84,4.48H505.12c2.11,0,3.83-2,3.83-4.48v-3.43a4.76,4.76,0,0,0-.07-.86H393.52A4.76,4.76,0,0,0,393.45,599.88Z"/><rect x="387.34" y="594.78" width="128.2" height="4.23" rx="0.99"/><rect x="426.99" y="587.26" width="49.21" height="12.38" rx="2.5"/><path class="cls-38" d="M406.93,513.76c.64-.53,89.23,0,89.23,0s12.53,24.66,14,34.48H391.88S401.28,518.35,406.93,513.76Z"/><path class="cls-35" d="M391.88,548.24l-1,2.71,1.25,18.18,28.42-.2s1.46-3.56,8.36-3.56h43.67s7.32-.21,9.41,3.14l28.83-.42.42-17.76-1-2.09Z"/><path class="cls-39" d="M421.5,569.55l.16,12.23-27.9-3.14s-4.75-4.13-1.67-9.51Z"/><rect class="cls-40" x="428.55" y="588.52" width="46.08" height="10.03" rx="2.34"/><path class="cls-41" d="M395.64,599.72v2.82a3.7,3.7,0,0,0,3.69,3.69H502.76a3.7,3.7,0,0,0,3.69-3.69v-2.82a4.05,4.05,0,0,0-.07-.7H395.71A4.05,4.05,0,0,0,395.64,599.72Z"/><rect class="cls-34" x="408.91" y="598.81" width="16.61" height="4.28" rx="1"/><rect class="cls-34" x="477.35" y="598.7" width="16.61" height="4.28" rx="1"/><rect class="cls-34" x="427.14" y="598.55" width="11.96" height="4.28" rx="1"/><rect class="cls-34" x="452.25" y="598.86" width="11.55" height="4.28" rx="1"/><rect class="cls-34" x="465.1" y="598.76" width="10.37" height="4.28" rx="1"/><rect class="cls-34" x="440.78" y="599.07" width="10.34" height="4.28" rx="1"/><path class="cls-34" d="M491.77,604H479.44a2.14,2.14,0,0,0-2.14,2.14s0,.07,0,.11H493.9s0-.07,0-.11A2.14,2.14,0,0,0,491.77,604Z"/><path class="cls-34" d="M461.65,604.19h-7.26a2.14,2.14,0,0,0-2.13,2h11.52A2.15,2.15,0,0,0,461.65,604.19Z"/><path class="cls-34" d="M473.7,604.19h-6.08a2.14,2.14,0,0,0-2.13,2h10.35A2.15,2.15,0,0,0,473.7,604.19Z"/><path class="cls-34" d="M449.24,604.5h-6.06a2.16,2.16,0,0,0-2.1,1.73h10.26A2.15,2.15,0,0,0,449.24,604.5Z"/><path class="cls-34" d="M436.89,604.19h-7.68a2.14,2.14,0,0,0-2.13,2H439A2.15,2.15,0,0,0,436.89,604.19Z"/><path class="cls-34" d="M423.23,604.29H410.9a2.14,2.14,0,0,0-2.12,1.94h16.57A2.15,2.15,0,0,0,423.23,604.29Z"/><path class="cls-36" d="M386.24,547.77a4.6,4.6,0,0,1-2-3.37c-.47-2.59-3.68-3.45-6.74-3.22s-7,.94-7,6.67,6.34,5.09,6.34,5.09l7.14.55,2.58-5.64Z"/><path class="cls-36" d="M516.66,546.34A4.61,4.61,0,0,0,519,543.2c.73-2.52,4-3.05,7-2.5s6.84,1.65,6.25,7.34-6.83,4.42-6.83,4.42l-7.15-.19-2-5.88Z"/><path class="cls-42" d="M481.32,548.24H421.1l4,17.58a15,15,0,0,1,3.81-.45h43.67a20.88,20.88,0,0,1,5.77.75Z"/><path class="cls-42" d="M418.73,548.24H391.88l-1,2.71,1.25,18.18,28.42-.2a4.65,4.65,0,0,1,1.38-1.61Z"/><path class="cls-42" d="M511.2,550.33l-1-2.09H483.92l-2.83,19.29a4.45,4.45,0,0,1,.86,1l28.83-.42Z"/><path class="cls-43" d="M407.18,548.24l91.26-29.84c-1.15-2.4-2-4.06-2.22-4.51L393.44,548.24Z"/><path class="cls-43" d="M427.38,548.24h11l64.3-20.79-1.17-2.58Z"/><path class="cls-42" d="M493.08,508.68h0c-36.59-5.85-71.27-2.08-82.66-.52l-3.49,5.6,89.29.13Z"/><path class="cls-39" d="M481.32,568.93l-.15,12.22L509.06,578s4.76-4.13,1.68-9.51Z"/><rect class="cls-41" x="420.09" y="565.16" width="62.38" height="17.24" rx="4.03"/><rect x="423.85" y="567.98" width="55.32" height="11.91" rx="2.78"/><path class="cls-10" d="M1113,590.36a20.26,20.26,0,0,0-13.52-6.41q1.23-5.85,2.47-11.7a22.24,22.24,0,0,0-4.36-12.4c-5.49-7.17-15.55-10.24-25.79-8.05a21,21,0,0,0-20.44-17.49v78.17l53.27-.32a12,12,0,0,0,7.37-1.68c5.37-3.33,5.67-9.81,5.69-10.39A19.63,19.63,0,0,0,1113,590.36Z"/><path class="cls-11" d="M1049.32,534.36a24.16,24.16,0,0,0-13.1,5.82,24.85,24.85,0,0,0-8,17c-20.1,0-14.07,22.81-14.07,22.81-18.76-4.7-14.07,13.41-14.07,13.41-14.74,1.34-8.71,17.44-8,19.45l59.3-.35V534.31A20,20,0,0,0,1049.32,534.36Z"/><path class="cls-12" d="M1037.05,551.88a14.93,14.93,0,0,1,26.94-3.3,15,15,0,1,0-27.11,11.94A15.07,15.07,0,0,1,1037.05,551.88Z"/><path class="cls-12" d="M1017.73,570a8,8,0,0,1,14-4.05,8,8,0,1,0-13.35,8.65A8,8,0,0,1,1017.73,570Z"/><path class="cls-12" d="M1003.43,590.3a8,8,0,0,1,14-4.06,8,8,0,1,0-13.35,8.65A8.1,8.1,0,0,1,1003.43,590.3Z"/><path class="cls-12" d="M1091.87,595a8,8,0,0,1,9.16-6.74,7.93,7.93,0,0,1,4.84,2.69,8,8,0,1,0-13.35,8.65A8.12,8.12,0,0,1,1091.87,595Z"/><path class="cls-12" d="M993.14,602.38a6,6,0,0,1,10.51-3,6,6,0,1,0-10,6.5A6,6,0,0,1,993.14,602.38Z"/><path class="cls-13" d="M1097.87,578.6c.06-.19.12-.37.17-.56a12.5,12.5,0,0,0,.3-2.56c-.85,1.76-4.32,7.94-11.69,9.23a15.76,15.76,0,0,1-12-2.86,13.08,13.08,0,0,0,3,3.44,13.26,13.26,0,0,0,20.22-6.69Z"/><path class="cls-13" d="M1068.5,563.49l.18-.61a14,14,0,0,0,.33-2.78c-.93,1.91-4.7,8.63-12.71,10a17.11,17.11,0,0,1-13-3.11,14,14,0,0,0,3.25,3.74,14.61,14.61,0,0,0,3.74,1.89A14.41,14.41,0,0,0,1068.5,563.49Z"/><path class="cls-13" d="M1019.33,594.26c0-.1.07-.2.1-.3a7.21,7.21,0,0,0,.16-1.38,9,9,0,0,1-6.28,5,8.45,8.45,0,0,1-6.44-1.54,6.78,6.78,0,0,0,1.61,1.85,7.09,7.09,0,0,0,10.85-3.59Z"/><path class="cls-12" d="M1068.88,568.65a14.93,14.93,0,0,1,26.94-3.3,15,15,0,1,0-27.11,11.94A15,15,0,0,1,1068.88,568.65Z"/><path class="cls-10" d="M1195.31,592.16a20.26,20.26,0,0,0-13.52-6.41l2.46-11.7a22.14,22.14,0,0,0-4.35-12.4c-5.49-7.17-15.55-10.24-25.8-8a20.94,20.94,0,0,0-20.43-17.49v78.17l53.26-.32a12.06,12.06,0,0,0,7.37-1.68c5.38-3.33,5.68-9.81,5.7-10.39A19.63,19.63,0,0,0,1195.31,592.16Z"/><path class="cls-11" d="M1131.66,536.16a24.16,24.16,0,0,0-13.1,5.82,24.85,24.85,0,0,0-8,17c-20.1,0-14.07,22.81-14.07,22.81-18.76-4.7-14.07,13.41-14.07,13.41-14.74,1.34-8.71,17.44-8,19.45l59.3-.35V536.11A20,20,0,0,0,1131.66,536.16Z"/><path class="cls-12" d="M1119.39,553.68a14.93,14.93,0,0,1,26.94-3.3,15,15,0,1,0-27.11,11.94A15.07,15.07,0,0,1,1119.39,553.68Z"/><path class="cls-12" d="M1100.07,571.75a8,8,0,0,1,9.15-6.74,7.93,7.93,0,0,1,4.84,2.69,8,8,0,1,0-13.35,8.65A8,8,0,0,1,1100.07,571.75Z"/><path class="cls-12" d="M1085.77,592.1a8,8,0,0,1,14-4.06,8,8,0,1,0-13.35,8.65A8,8,0,0,1,1085.77,592.1Z"/><path class="cls-12" d="M1174.21,596.79a8,8,0,0,1,9.16-6.74,7.93,7.93,0,0,1,4.84,2.69,8,8,0,1,0-13.35,8.65A8.12,8.12,0,0,1,1174.21,596.79Z"/><path class="cls-12" d="M1075.48,604.18a6,6,0,0,1,10.51-3,6,6,0,1,0-10,6.5A6,6,0,0,1,1075.48,604.18Z"/><path class="cls-13" d="M1180.21,580.4c.06-.19.12-.37.17-.56a12.5,12.5,0,0,0,.3-2.56c-.85,1.76-4.32,7.94-11.69,9.23a15.76,15.76,0,0,1-12-2.86,10.92,10.92,0,0,0,6.44,5.18A13.26,13.26,0,0,0,1180.21,580.4Z"/><path class="cls-13" d="M1150.83,565.29c.07-.2.13-.41.19-.61a14.74,14.74,0,0,0,.33-2.78c-.93,1.91-4.7,8.63-12.71,10a17.11,17.11,0,0,1-13-3.11,13.81,13.81,0,0,0,3.25,3.74,14.39,14.39,0,0,0,22-7.27Z"/><path class="cls-13" d="M1101.67,596.06a1.71,1.71,0,0,0,.09-.3,6.51,6.51,0,0,0,.17-1.38,9,9,0,0,1-6.29,5,8.42,8.42,0,0,1-6.43-1.54,6.78,6.78,0,0,0,1.61,1.85,7.26,7.26,0,0,0,1.84.94A7.13,7.13,0,0,0,1101.67,596.06Z"/><path class="cls-12" d="M1151.22,570.45a14.92,14.92,0,0,1,26.93-3.3,15,15,0,1,0-27.1,11.94A15,15,0,0,1,1151.22,570.45Z"/><path class="cls-44" d="M1018,580.87s-38.34-27.45-55.31-31.17c0,0-7.08-3-54.52-6.48,0,0-55.54,1.28-77.6,4.59,0,0-9.75.55-12,2.76l-2.2,2.21s-23.91,12.69-34.21,25c0,0-6.06,5.51-3.86,8.64l-.55,4.41-2.57,10.85-.92,9s-4.05,1.47-4.23,4,1.28,18.2,7.35,18.94c0,0,15.82,4.23,16.55,5.15h24.64a24.65,24.65,0,0,1,.56-10.67A25.17,25.17,0,0,1,826,617a23,23,0,0,1,7.91-5.15c8.28-3.15,15.87-.14,17.45.52a25.11,25.11,0,0,1,13.07,13.27,23.85,23.85,0,0,1,1.66,6.25,24.18,24.18,0,0,1-.55,8.83l143.62.73s-3.87-18.75,13.05-28.5c0,0,24.09-11,33.47,16l.37,10.3v1.1l29.24.55a13.11,13.11,0,0,1,5-2.89c2.89-.83,4-5,3.31-7.45,0,0,1.38-2.07,1.1-2.76l1.79-1.79.14-9.38-4-4.69s-4.14-12.55-8.14-14.9-13.79-8.41-58.89-17.1Z"/><path class="cls-45" d="M859.42,550.39s-20.92,1.1-29.93,5.51-18.94,13.61-20,14.9-6.07,5.88-.92,9.75l2.94,1.47,180.58,6.62s3,.18,3.13-3.87l-44.32-23.9-68.77-5Z"/><path class="cls-46" d="M843.29,597.83c16,0,28.13,16.28,28.13,16.28l130.47,3.31,3.31-3.31c4.69-10.49,21.52-25.11,41.65-14.35s19,38.34,19,38.34l-2.9,2.34-6.94-.13v-1.1l-.37-10.3c-9.38-27-33.47-16-33.47-16-16.92,9.75-13.05,28.5-13.05,28.5l-143.62-.73a24.18,24.18,0,0,0,.55-8.83,23.85,23.85,0,0,0-1.66-6.25,25.11,25.11,0,0,0-13.07-13.27c-1.58-.66-9.17-3.67-17.45-.52A23,23,0,0,0,826,617a25.17,25.17,0,0,0-6.8,11.21,24.65,24.65,0,0,0-.56,10.67h-9.59l-.24-1.84a45.08,45.08,0,0,1,3.86-20.41C817.36,606.66,827.29,597.83,843.29,597.83Z"/><path class="cls-47" d="M1001.48,633.69s2.34-24.55,1.1-37.24c0,0-.41-9-5.1-14.76s-28-22.75-33.93-24.68-15.86-7.45-46.48-7.73l3.86,33.52,1.93,35.72.42,15.45Z"/><path class="cls-47" d="M922.18,634h-37s-14.34-11.31-24.41-24.69l-6.48-8.14s-10.48-9.65-11.17-19.45c0,0-.83.56,1.1-4.27s11.59-24.55,15.17-27c0,0,42.62-2.62,57.65-1.11l3.86,33.52Z"/><path class="cls-48" d="M771,612.91v-.08a9.61,9.61,0,0,1,3.31-2.13l.92-9,2.57-10.85.55-4.41c-2.2-3.13,3.86-8.64,3.86-8.64a71.64,71.64,0,0,1,11.2-10.28c4.53-1,9.22-1.86,9.22-1.86l-7.18,7.72-3.86,4.78s-2,2.21.55,4.79,6.62,7,6.62,7l-.55,17.29s-1.65,3.68-9.19,4.41S771,612.91,771,612.91Z"/><path class="cls-48" d="M1086.93,599.52l-9.74,1.62-8.61-1.86s-18.14-7.52-30.28-10.28-29-7.17-29-7.17l8.69-1,7.58-1c45.1,8.69,54.89,14.76,58.89,17.1A8.65,8.65,0,0,1,1086.93,599.52Z"/><path class="cls-48" d="M820.25,554.8l-3.67-2.16,2.06-2.07c2.21-2.21,12-2.76,12-2.76,22.06-3.31,77.6-4.59,77.6-4.59,47.44,3.49,54.52,6.48,54.52,6.48a44.43,44.43,0,0,1,7.4,2.47,105,105,0,0,1-10.57.15s-7.86-5.52-70.75-6.35c0,0-48.82,2.49-57.1,4.69Z"/><path class="cls-38" d="M856.94,553s-20.14-1-35.44,11-12.14,15.72-11.45,15.72l33.24,1Z"/><path class="cls-38" d="M994.91,586.47a1.59,1.59,0,0,1-1.16.74l-66.06-2.76-5.63-31.62Z"/><path class="cls-38" d="M848.66,581.14s1.38-3.31,1.52-4,9.63-23.65,13-24.95l51.17,31.18v.39Z"/><path class="cls-43" d="M867.61,581.9l-19-.76s1.38-3.31,1.52-4,9.66-23.72,13-25l3.35-.21Z"/><path class="cls-38" d="M1010.58,581.69a15.34,15.34,0,0,1-5.52-2.34c-2.89-1.93-11.86-8.41-11.86-8.41s-25.1-16.69-33.65-18.62l3.17-2.62c17,3.72,55.31,31.17,55.31,31.17Z"/><path class="cls-38" d="M789.77,578.11l-2.34,1.24s-4.14-1.79-5.66-1.1h0l.47-.46c10.3-12.32,34.21-25,34.21-25l.34-.35.3,0s3.17.55,3.17,2.34C820.25,554.8,797.91,566.66,789.77,578.11Z"/><rect x="871.08" y="617.77" width="129.98" height="2.48" rx="0.77" transform="translate(1859.53 1256.7) rotate(-178.85)"/><path d="M808,617.32a2,2,0,0,1-2,2H770.39a39.66,39.66,0,0,1-.31-4.05H806A2,2,0,0,1,808,617.32Z"/><path class="cls-39" d="M783.71,587.49s-3.73,14.62-2.62,22.89c0,0,12.68.55,14.2-3.58L795.7,594s-.41-4-4-5.1A40,40,0,0,0,783.71,587.49Z"/><path class="cls-34" d="M791.25,597.28h-8.19s-.64-3.4,2-3.49a11.63,11.63,0,0,1,6.44,2.39C791.7,596.54,791.25,597.28,791.25,597.28Z"/><path class="cls-34" d="M791.7,600.59h-8.91a4.33,4.33,0,0,0-.46,2.94h5.79S791.52,603,791.7,600.59Z"/><path class="cls-41" d="M1094.76,627.44a.91.91,0,0,1,.16.11l-.21.21c.28.69-1.1,2.76-1.1,2.76a7.29,7.29,0,0,1-.19,4l-10.06-.44c-2.12-1.2-1.11-5.15-.46-6S1094.76,627.44,1094.76,627.44Z"/><path d="M1070.68,622.59h25.87l0,3.38-.34.34h-25.48a1.28,1.28,0,0,1-1.28-1.27v-1.18A1.28,1.28,0,0,1,1070.68,622.59Z"/><path class="cls-39" d="M1080.64,599.14l-12.06.14s5.37,8.14,7.58,8.89,15.38,4,15.38,4-4.55-1.79-5.31-3.79S1080.64,599.14,1080.64,599.14Z"/><path class="cls-34" d="M1092.64,611.9l.37.43-.3,0c-2.41-.27-6.48-2.48-6.48-2.48s-4.83-8.62-5.59-10.69c-.64-1.76,1-3,1.69-3.38.9.49,1.6.91,2.17,1.24C1088.5,599.35,1092.64,611.9,1092.64,611.9Z"/><path d="M1084.71,598.87s3.73,3,5.1,5.79,1.87,5.17.14,4.69-1.93-3.38-3.38-4.83S1081.4,599.49,1084.71,598.87Z"/><ellipse cx="1032.6" cy="634.79" rx="22.89" ry="22.8"/><ellipse class="cls-34" cx="1032.6" cy="634.79" rx="19.77" ry="19.69"/><ellipse class="cls-45" cx="1032.6" cy="634.79" rx="15.17" ry="15.11"/><path class="cls-34" d="M1027.73,634.79a4.87,4.87,0,1,0,4.87-4.85A4.87,4.87,0,0,0,1027.73,634.79Z"/><path d="M1036.58,622.52h-6.69s1.38,5.17,3.17,5.17S1036.58,622.52,1036.58,622.52Z"/><path d="M1028.72,646.38h6.69s-1.38-5.17-3.18-5.17S1028.72,646.38,1028.72,646.38Z"/><path d="M1041.27,644l3.12-5.92s-5.21-1.19-6.05.39S1041.27,644,1041.27,644Z"/><path d="M1044.63,632l-3-6s-4,3.55-3.21,5.15S1044.63,632,1044.63,632Z"/><path d="M1020.53,637.06l3,6s4-3.54,3.21-5.15S1020.53,637.06,1020.53,637.06Z"/><path d="M1025.35,625.18l-4.64,4.81s4.67,2.6,5.92,1.31S1025.35,625.18,1025.35,625.18Z"/><ellipse cx="842.37" cy="634.61" rx="22.89" ry="22.8"/><ellipse class="cls-34" cx="842.37" cy="634.61" rx="19.77" ry="19.69"/><ellipse class="cls-45" cx="842.37" cy="634.61" rx="15.17" ry="15.11"/><path class="cls-34" d="M837.49,634.61a4.88,4.88,0,1,0,4.88-4.85A4.87,4.87,0,0,0,837.49,634.61Z"/><path d="M846.34,622.33h-6.69s1.38,5.18,3.18,5.18S846.34,622.33,846.34,622.33Z"/><path d="M838.48,646.19h6.69S843.79,641,842,641,838.48,646.19,838.48,646.19Z"/><path d="M851,643.77l3.13-5.91s-5.22-1.2-6.06.39S851,643.77,851,643.77Z"/><path d="M854.39,631.86l-3-6s-4,3.54-3.21,5.15S854.39,631.86,854.39,631.86Z"/><path d="M830.29,636.88l3,6s4-3.55,3.2-5.15S830.29,636.88,830.29,636.88Z"/><path d="M835.12,625l-4.65,4.81s4.68,2.61,5.92,1.32S835.12,625,835.12,625Z"/><path class="cls-48" d="M926.45,593.8c0,2.07,2.76,3.76,6.17,3.76s6.17-1.69,6.17-3.76S936,590,932.62,590,926.45,591.72,926.45,593.8Z"/><path class="cls-48" d="M854,591.56c0,2.07,2.76,3.75,6.17,3.75s6.17-1.68,6.17-3.75-2.76-3.76-6.17-3.76S854,589.48,854,591.56Z"/><path d="M815,636.63c-.74-11,7-20.41,7-20.41,12.88-13.61,28.14-7.54,28.14-7.54,21.33,7,19.31,28.5,19.31,28.5l136.08-.18a34.41,34.41,0,0,1,10.85-25.19c4.78-4.6,19.49-8.65,32.36-.37s11.59,27,11.59,27,29.79-1.29,31.26-1.47l.18.19a3.94,3.94,0,0,1-1.42.78,13.11,13.11,0,0,0-5,2.89l-29.24-.55v-1.1l-.37-10.3c-9.38-27-33.47-16-33.47-16-16.92,9.75-13.05,28.5-13.05,28.5l-143.62-.73a24.18,24.18,0,0,0,.55-8.83,23.85,23.85,0,0,0-1.66-6.25,25.11,25.11,0,0,0-13.07-13.27c-1.58-.66-9.17-3.67-17.45-.52A23,23,0,0,0,826,617a25.17,25.17,0,0,0-6.8,11.21,24.65,24.65,0,0,0-.56,10.67H794c-.41-.51-5.47-2-9.88-3.3Z"/><path class="cls-48" d="M805.31,600.31a4.79,4.79,0,1,0,4.78-4.78A4.78,4.78,0,0,0,805.31,600.31Z"/><path d="M811.46,603.07a3.07,3.07,0,0,0,1-1.76,3,3,0,0,0-.45-2.2,3.32,3.32,0,0,0-2.79-1.31,2.17,2.17,0,0,0-1.22.74,2,2,0,0,0-.48,1.5,1.81,1.81,0,0,0,.46,1c.68.57,1.14.62,1.45.55s.47-.26,1-.38a2.83,2.83,0,0,1,.76-.07,1.67,1.67,0,0,1,.31,1.93Z"/><path class="cls-45" d="M778.36,586.5v-.07c-2.2-3.13,3.86-8.64,3.86-8.64.24-.29.5-.58.76-.87,1.86.58,4.25,1.49,4.44,2.43,0,0-3.17,4.6-3.72,8.14Z"/><path class="cls-43" d="M921.9,551.9s19.17,0,31.31,3.59,29,15.86,29,15.86S994.17,581,995,584a3.06,3.06,0,0,1-.09,2.43l-72.85-33.64Z"/><path class="cls-43" d="M863.15,552.18s41.79-2.76,49.92-1l1.23,32.16-51.17-31.18Z"/><path class="cls-43" d="M996,566.24c6.13,3.82,11.74,7.55,15.76,10.29l-15.64-3.47-2.95-2.12s-6.45-4.29-13.93-8.78Z"/><path class="cls-43" d="M966.43,555l16.58,3.5c1.41.79,2.84,1.6,4.26,2.42l-16.41-3.62C969.33,556.51,967.84,555.73,966.43,555Z"/><path d="M924,593.87c0,.74,3.25,1.34,7.27,1.34s7.28-.6,7.28-1.34-3.26-1.35-7.28-1.35S924,593.12,924,593.87Z"/><path d="M851.6,591.62c0,.75,3.25,1.35,7.27,1.35s7.28-.6,7.28-1.35-3.26-1.34-7.28-1.34S851.6,590.88,851.6,591.62Z"/><path class="cls-49" d="M657.81,597.82c-.11-.72-.07-.05.92-1.35s.53-.25,1.3-2.07a28.94,28.94,0,0,1,3.51-6.41c1.21-1.33,3.28-6.54,3.28-6.54l3.93-9.08,6.27-9.54,5.86,6.83s-3.29,2.05-12.8,18.81c0,0-.69.16-.91,3.2s-3.77,8.77-5.78,9.93-2.62,0-2.62,0a1.89,1.89,0,0,1-1.41-1.67,3.1,3.1,0,0,0-.58-1.9Z"/><polygon class="cls-14" points="721.84 579.04 728.62 577.95 725.97 561.43 719.19 562.52 721.84 579.04"/><path class="cls-49" d="M729.9,576.68c-.44.44,0,.08-1.23-.18s-.35-.36-1.85-.18a16.34,16.34,0,0,1-5.55-.09c-1.32-.44-5.54.18-5.54.18l-7.49.8-8.63-1.07,2.47-8.4s2.55,2,17.17,2.48c0,0,.35.53,2.46-.71s7.23-.79,8.72.44,1,2.3,1,2.3a2.27,2.27,0,0,1-.62,2,2.89,2.89,0,0,0-1,1.41Z"/><path class="cls-49" d="M693.27,545.69s-8.92-7.19-11-6.25l-.83-2.35,11.16-14s4.11,3.78,4.46,5.31a3.81,3.81,0,0,0,1.29,2.71c1.29,1.06,1.76,2.12.94,2.48s-.35,3.06-.47,4.24,1.06,2.24-1.06,3.07A7.87,7.87,0,0,0,693.27,545.69Z"/><path class="cls-50" d="M691.63,525.53s1.53-.12.47,1.89a10.66,10.66,0,0,0-.94,4.71l-.7-.12s.46-.23-.12,1.3-1.29,1.3-3.64,2.71a30.2,30.2,0,0,0-4.46,3.42s-2-4.24-2.82-5-.94-.47-1.06-1.65,0-2.71-.7-2.48-.82-.7-.82-.7l2.34-3.07-.11-1.06.82-.12,2.35-4s2.58.36,3-.59.7-1.18,1.06-1.06,1.29.59,1.29.59l2-.82.94,1.17.71-.58.58.35.54-.3.52-.29,1.76,1.18.35,2.24-.82.59S691,525.65,691.63,525.53Z"/><path class="cls-14" d="M693.27,545.69s-.7,3.3.12,5.43c.12.31.3.8.52,1.41,1.23,3.52,3.71,11,3.71,11s-2.12,12.14-1.18,13.68.59,4.36.47,4.71.12,4.6-.58,6.25-3.53,2.6-3.53,2.6l-20.54-3.3.47-21.7s-1.41-13.56,8.1-23c0,0-.71-3.19,1.41-3.31C682.24,539.44,681.83,537.14,693.27,545.69Z"/><path class="cls-51" d="M691.57,545.28s.18,3.42-2.11,1.59-4.7-4.18-6.75-4.3-1.88.18-1.88.18-.77-3.07,1.41-3.31,9.45,5.07,9.45,5.07Z"/><path class="cls-51" d="M702.08,567.74s.61.36-.18,2.13-2.11,6.72-1.85,6.81.53,1.06-1,.61-5-1.76-5-1.76l-7.67-7.43-8.27-9.47s1.32-13.08,7.92-11.93,7.75,9.46,7.75,9.46,2,6.1,2.47,6.63S697.5,567.3,702.08,567.74Z"/><path class="cls-52" d="M696,592.42s-.79,2,1.06,7.43,7.13,21.31,7.13,21.31a39.45,39.45,0,0,0,.79,6.37c.62,2.3,3.79,9.81,3.79,9.81l3,11.06,3,5s-6.92,10-8.81,6.19c-.17-.35-2.55-4.25-2.55-4.25l-4.76-12.29-5.54-16.36-8.46-11.85,5.2-17.07,3.52-5.13Z"/><path class="cls-50" d="M713.53,664.76s-5.38,2-5.73,1.68-.7-.27-1-1.68a22.75,22.75,0,0,1,0-4.34l7.93-7s3.87,3.8,11.27.26c0,0,2.82-1,2.29,1.51s-6.17,5.21-6.17,5.21S714.67,662.64,713.53,664.76Z"/><path class="cls-50" d="M648.19,657.51s-2.29,4.77-.79,5.57,7,2.74,7,2.74l4.84,1.77,9.87.26s2.55-1.23,2.55-1.68.18-1.41-1-1.77-3.35-.44-3.61-.61-3.08-2.39-3.7-2.75S660,658,660,658Z"/><path class="cls-53" d="M671.26,589.59s-4.4,3-.27,12.82c0,0-1.67,12.38-3.52,15.57,0,0-1.93,7.78-3.34,8.49s-7.58,13.79-7.58,13.79l-5.72,10.88-2.64,6.37s5.28,2.3,7,1.68S659,657.68,660,658s.7-2.48.7-2.48l7.58-17.15s2.9-3.54,3.17-3.81,7.13-6.81,7.83-8.58,5.29-10.7,5.29-10.7,12-16.62,8.89-20.78Z"/><polygon class="cls-54" points="672.26 587.43 671.26 589.59 693.45 594.45 696 592.42 695.83 588.88 692.8 590.74 672.26 587.43"/><polygon points="692.8 590.74 693.45 594.45 696 592.42 695.83 588.88 692.8 590.74"/><path class="cls-55" d="M371.5,607.93l1.12.1v.78l-.21,9.39-.06,2.58-.48,22.33c.41,2,.81,4.06,1.22,6.1q-1.08,9.9-2.17,19.81l-.47-.19a7,7,0,0,0-4.25-.3l-.4.13-1.72-20.22a17.87,17.87,0,0,1-1.83-8.23c.15-4.58-1.83-19.82-1.83-19.82l-.48-2.22V606.82Z"/><path class="cls-56" d="M354.67,560.62c.51-.38.8-.62.8-.62l.3-5.49,2.5,1.88,1.66,0c.75,0,1.54-.06,1.85-.11.66-.1,2.55-2.44,2.55-2.44.2.71-.92,3.76,1.62,5.08l1,.54a19.22,19.22,0,0,1-2.07,4.93c-.74,1.2-2.93,1.74-5,1.76a8.63,8.63,0,0,1-3.19-.47C354.87,564.87,354.63,562.76,354.67,560.62Z"/><path class="cls-56" d="M372.77,615.91c.11-1-.2-1.83,2.45-4.47l.51-13.42s.4-4.27.91-5.18c0,0-2.27-7.06-3-9.58,0-1.34,0-2.68.05-4a37,37,0,0,0,4.61-.39c1.16-.18,2.24-.41,3.23-.65l.38,9.55.2,11.49-2.65,13.11.11,6.31-.62,2s-2.24,3-3.76,3.46c0,0,.1.3-.71.3s-1.33.71-.82-1.32,1.22-5.39.71-5.69-.4,1.42-.71,2a3,3,0,0,1-1,1.22.4.4,0,0,1-.33.09l.06-2.58C372.57,617.29,372.73,616.36,372.77,615.91Z"/><path class="cls-57" d="M346.77,580.54c.06-.11.33.52.6,1.24a92,92,0,0,0,.06,10.14,14.79,14.79,0,0,1-.31,5L344.37,608l-.2,4.37c.58.49,1.91,4.59,2,5,0,.06,0,.12,0,.19l.2,6.44c-3-.3-5.19-4.88-5.19-4.88l-.41-6.4-.1-10.67c-.92-6.41-.1-9.66.2-10.17a19.79,19.79,0,0,0,.72-3.36,76.29,76.29,0,0,1,.06-8.21A20.29,20.29,0,0,0,346.77,580.54Z"/><path class="cls-57" d="M357.3,542.92l2.63,0h.32l3.36,2.08s-.3,1.48.67,1.58a1.86,1.86,0,0,1,1.32.61s.06,1.63.06,3l-.06,1.7h0c-.07.13-.31.52-.57.91l-.7,1.07s-1.89,2.34-2.55,2.44c-.31,0-1.1.08-1.85.11l-1.66,0-2.5-1.88L355,553l-.3-2.44c0-.36,0-.85-.06-1.43,0-.43,0-.79-.07-1.07l0-.76C355,546.63,356.92,542.92,357.3,542.92Z"/><path class="cls-58" d="M364.91,564.35a19.22,19.22,0,0,0,2.07-4.93.34.34,0,0,0,0-.11c1.91.38,3.21.61,8,3.69a13.05,13.05,0,0,1,3.64,3.1c2.17,3.35,2.58,7.71,2.77,9.63,0,.2.1,1,.17,1.73v.12l0,.62c-1,.24-2.07.47-3.23.65a37,37,0,0,1-4.61.39c0,1.34,0,2.68-.05,4l0,2.16-.15,8.38c-.82,8.42-.82,8.69-.82,8.69,0,3.34.55,5.26-.06,6.32V608l-1.12-.1-11.57-1.11V566.11C362,566.09,364.17,565.55,364.91,564.35Z"/><path class="cls-59" d="M341.27,568.87a12.6,12.6,0,0,1,4.58-4c1.17-.71,2.42-1.43,3.74-2.14,1.85-1,3.39-1.56,5.09-2.31a1.93,1.93,0,0,1,0,.24c0,2.14.2,4.25,2.07,5a8.63,8.63,0,0,0,3.19.47v40.71l-12.74-1.22h-.07l-.15,1.5-.28,0,1.68-9.38s-.69-12.35-.31-14c0,0-.35-1.06-.69-2-.27-.72-.54-1.35-.6-1.24a20.29,20.29,0,0,1-5.08-.29c-.89-.15-1.54-.37-1.57-.63C339.8,576.11,339.27,571.82,341.27,568.87Z"/><path class="cls-60" d="M352.84,544.25l0-.44a1.49,1.49,0,0,0,0-.21c0-.14,0-.28.05-.41s.06-.38.09-.55c.1-.56.2-.94.2-.94a32.53,32.53,0,0,1,1.83-2.85c.89-1.25,2.75-1.91,4.87-2l.76,0a16.38,16.38,0,0,1,1.7.12,4.73,4.73,0,0,1,2.8,1.88c.22.26.43.54.62.81s.26.38.37.57l.18.28c.11.18.21.37.31.55l.15.26.25.5c.4.79.62,1.35.62,1.35l-.1,4.74h-.16c-.76.66-1.37,1.78-1.53,1.73s-.07-.22-.1-.5a10.48,10.48,0,0,0-.2-1.94,1.86,1.86,0,0,0-1.32-.61c-1-.1-.67-1.58-.67-1.58l-3.36-2.08h-.32l-2.63,0c-.38,0-2.28,3.71-2.8,4.37l-.06.07a.05.05,0,0,1,0,0c-.3.16.26-.1-.3.16a1.41,1.41,0,0,0-.54.37,5.94,5.94,0,0,1-.13-.93,3,3,0,0,1-.57-1.64c0-.15,0-.29,0-.44a1.62,1.62,0,0,1,0-.22C352.83,544.54,352.84,544.39,352.84,544.25Z"/><path class="cls-61" d="M351,671.88a7.78,7.78,0,0,1,.61-2.75l.15-.07.36-.15a7.42,7.42,0,0,1,4-.49,4.76,4.76,0,0,1,1.49.53l.29.18.15,8.24s-2.74,4.27-4.12,4.57a4.61,4.61,0,0,1-2.9-.61s-2.14-1.52-2.14-2.59S351,673.25,351,671.88Z"/><path class="cls-61" d="M364.89,669.13a4.56,4.56,0,0,1,.9-.47l.4-.13a7,7,0,0,1,4.25.3l.47.19.24.11a7.78,7.78,0,0,1,.61,2.75c0,1.37,2.13,5.79,2.13,6.86s-2.13,2.59-2.13,2.59a4.61,4.61,0,0,1-2.9.61c-1.38-.3-4.13-4.57-4.13-4.57Z"/><path class="cls-62" d="M373.08,649.21c-.41-2-.81-4.07-1.22-6.1l.48-22.33.06-2.58.21-9.39V608l-1.12-.1-11.57-1.11v11.35l.48,2.22s2,15.24,1.83,19.82a17.87,17.87,0,0,0,1.83,8.23l1.72,20.22.4-.13a6.92,6.92,0,0,1,4.05.23l.7,0Q372,659,373.08,649.21Z"/><path class="cls-63" d="M356.08,668.42a4.76,4.76,0,0,1,1.49.53c.26-2.68,1.18-12.4,1.31-14.1.15-2-.61-11-.61-11l1.22-27.75.44,2V606.82l-12.74-1.22a11.4,11.4,0,0,0-.41,1.46,14.17,14.17,0,0,0-.2,1.45c-.06.72-.17,1.76-.36,3.22l-.12,1.62c0,.51.07,1,.11,1.55l.45,6.25c.24,1.61.48,3.21.71,4.82.38,2.56.75,5.12,1.13,7.68q.3,6,.61,12.05c.16,3.17.41,6.48.76,9.91.49,4.75,1.14,9.24,1.88,13.45l.36-.15A7.42,7.42,0,0,1,356.08,668.42Z"/><path class="cls-63" d="M347.37,581.78c.34.9.69,2,.69,2-.38,1.6.31,14,.31,14l-1.68,9.38.28,0,.15-1.5h.07l12.74,1.22V572.67l-6.94.15-1.72-11c-.54.25-1.09.52-1.68.83C349.59,562.69,351.27,578,347.37,581.78Z"/><path class="cls-62" d="M372.68,561.71l-1.94-1.13-3.22,11.92-7.59.17v34.15l11.57,1.11,1.12.1v.78c.61-1.06.09-3,.06-6.32,0,0,0-.27.82-8.69l.15-8.38,0-2.16c0-1.34,0-2.68.05-4C373.72,579.24,369,575.72,372.68,561.71Z"/><polygon class="cls-58" points="348.37 597.69 373.16 596.99 372.84 599.25 347.99 599.89 348.37 597.69"/><path class="cls-63" d="M353,542.64s.71-8.26,10.44-5.59a12.51,12.51,0,0,1,3.6,4.72A49.67,49.67,0,0,1,353,542.64Z"/><path class="cls-62" d="M353,542.64s16.93,1.27,17.69,1.27.19-1.9.19-1.9l-3.84-.24Z"/><path class="cls-64" d="M364.34,579.1c0,1.74-2,3.15-4.4,3.15s-4.39-1.41-4.39-3.15,2-3.15,4.39-3.15S364.34,577.36,364.34,579.1Z"/><rect class="cls-14" x="355.74" y="569.94" width="8.02" height="5.16"/><path class="cls-65" d="M872,660.64s-1.26,1.73-5.24,2.86-4.65,2.56-1.91,4,9.35.12,9.35.12a7.89,7.89,0,0,1,4-1.26,22.9,22.9,0,0,0,3.51-.35l-1.31-2.21Z"/><path class="cls-66" d="M882.8,669a5.87,5.87,0,0,1,.3,3.58c-.54,1.6,1.67,3.81,2.92,3.69s6.67.83,7.38-3.16c0,0-1.91-2.26-1.37-3a7.18,7.18,0,0,0,.6-2.8s-3.93-4.41-4.83-4.35-6.25,1-6.37,1.43A33.27,33.27,0,0,0,882.8,669Z"/><path class="cls-59" d="M867.6,569.88s-3.65.08-4.92-1.67a15.1,15.1,0,0,0-3.26-3.1L862.2,550a11.74,11.74,0,0,1,4-7.22,29,29,0,0,1,6.43-4l12.7-2.7.32-.08,8.26,3.57a26.29,26.29,0,0,1,4.6,7.31c1.75,4.28,5.24,18.18,5.24,18.18A36.27,36.27,0,0,0,899,567.1c-.88.63-6.75,1.75-6.91,2.3l3,17.11s-1.43,16-2.27,21.43-1.19,21.32-1.19,22.39S893.28,647,893.28,647L893,668.8s-9.4-7.86-10.24.23l-1.9-4.52-9.17-3.69L867.2,639s-.36-3.82-2.14-5.36l-.6-23.46-1.07-20.13Z"/><path class="cls-62" d="M880.9,664.51l1.9,4.52c.84-8.09,10.24-.23,10.24-.23l.24-21.8s-1.67-15.6-1.67-16.67.36-16.91,1.19-22.39,2.27-21.43,2.27-21.43l-3-17.11c0-.07.15-.16.36-.25l0,0c-4.59-3.81-8.64-17.62-8.64-17.62s3.34-8.81,4.41-10.6a8.2,8.2,0,0,1,2.84-2.59L887.93,537A33.77,33.77,0,0,0,881,549c-1.43,5-8.1,4.29-9.61,2.7-1.32-1.39-.34-10.12-.07-12.34-.61.31-1.42.76-2.36,1.36-.47,3-1.65,10.34-1.78,11.85-.15,1.84.25,16.3.28,17.31h.12l-4.21,20.2,1.07,20.13.6,23.46c1.78,1.54,2.14,5.36,2.14,5.36l4.53,21.79Z"/><path class="cls-62" d="M877.05,599.49l-2.35-21.2-8.67-.86-2.64,12.65,1.07,20.13.6,23.46c1.78,1.54,2.14,5.36,2.14,5.36l4.53,21.79,9.17,3.69,6.15-14Z"/><path class="cls-14" d="M871.19,658.25l12-3-.3-3.33s-10.36,2.65-12.4,3.13Z"/><path class="cls-63" d="M880.9,664.51l1.9,4.52c.84-8.09,10.24-.23,10.24-.23l.24-21.8s-1.67-15.6-1.67-16.67.36-16.91,1.19-22.39,2.27-21.43,2.27-21.43l-1.45-8.22H874.7s-4.12,13.62-.51,23.9c0,0,5.24,14.92,5.24,16.83s1,14.13,1.43,15.88.31,13.49.31,16.35S880.9,664.51,880.9,664.51Z"/><path class="cls-58" d="M872.68,537.49a4.16,4.16,0,0,0-1.43,4.52l.32,1.11,1.43-.71s1.35,4.37,1.51,4.13,3.73-2.38,3.73-2.38l6-1.27,1.35-6.91a5.25,5.25,0,0,0-3.33-1.67Z"/><path class="cls-58" d="M890.7,540.9c-5.4,9.37,1.69,28.22,1.69,28.22l0,0c1.33-.6,5.79-1.49,6.54-2a36.27,36.27,0,0,1,4.76-2.06s-3.49-13.9-5.24-18.18a26.29,26.29,0,0,0-4.6-7.31A3.4,3.4,0,0,0,890.7,540.9Z"/><path class="cls-58" d="M862.2,550l-2.78,15.16a15.1,15.1,0,0,1,3.26,3.1c1.27,1.75,4.92,1.67,4.92,1.67L869,540.72h0a32,32,0,0,0-2.81,2A11.74,11.74,0,0,0,862.2,550Z"/><path class="cls-67" d="M880.86,530.58s.79,4.45,2.3,4.84c0,0-1.67,5.24-4.84,6.91l-2.39,2s-1.74-3-2.62-3.5l-.63-.79s.48-4,.08-4.53S880.46,529.87,880.86,530.58Z"/><path class="cls-68" d="M867.44,522s-2.14,11.55,2.5,14.88c0,0,4.41,0,6.67-1.55a14.42,14.42,0,0,0,3.81-4.4,3.58,3.58,0,0,0,2.86-3.69s.12-2.74-2.26-1.43a29.86,29.86,0,0,0-3.34-1.91c-.95-.35-3.93.48-5.95-.12A27.36,27.36,0,0,1,867.44,522Z"/><path class="cls-69" d="M877.2,522.8l.6,6.43,1,.12s1-3.33,1.79-4.05S877.2,522.8,877.2,522.8Z"/><path class="cls-70" d="M867,523.52c-.47-.12-5,1.54-5-1.55s5.12-2.15,5.12-2.15l1.19-.23a7.84,7.84,0,0,1,6.2-3.58c4.16-.12,7.86,1.55,9.28,5.36s-.47,4.77-.47,4.77-.6-1.67-2.26-.36l-3.34-1.91s-4.52.6-5.95-.12-4.29-1.78-4.29-1.78Z"/><path class="cls-62" d="M874.47,516a7.84,7.84,0,0,0-6.2,3.58l-1.11.22.93,1s5.54,2.26,5.72,2.26,3.34.59,3.34.59l.33.27.2,0,3.34,1.91c1.66-1.31,2.26.36,2.26.36s1.9-1,.47-4.77S878.63,515.89,874.47,516Z"/><path class="cls-63" d="M862,521.64l.46-.57c1.52-1.89,3.87,0,5,1l0-.14s2.86,1.07,4.29,1.78,5.95.12,5.95.12c-1.67-1.37-9.41-4.28-9.41-4.28l-1.19.23S862.34,518.94,862,521.64Z"/><path class="cls-68" d="M862,567.36a41.32,41.32,0,0,0-2.16,8.19c-.56,3.55-.36,14.89-.36,14.89h0l.91,1.59,2.94-1.67.87-4.52A52.94,52.94,0,0,0,867,572.18c.15-.75.29-1.49.44-2.24a6.54,6.54,0,0,1-5.5-2.58Z"/><path class="cls-14" d="M858.83,590.84a3.25,3.25,0,0,1,4.4-.16l.52,8.14s.43,4.8.16,5-.28,1.11-.52,1.15a7.51,7.51,0,0,1-2.78.24c-1.31-.2-4.36.24-4.36-3.58,0-.2-1.08-3-.08-4.56s2.74-4.65,2.7-5.28S858.83,590.84,858.83,590.84Z"/><path class="cls-71" d="M859.42,598.66c-.55.19-1.23,1.62-1.15,2.93s.08,1.87.4,2.19,4.13.91,3.81.27.95-.35.79-1,.56-.87.44-1.39-.16-5.24-.16-5.24-.75,1.27-1.19,1.47-.52,4.53-1.67,4.61S859.42,598.66,859.42,598.66Z"/><polygon class="cls-72" points="893.05 575.08 866.52 575.08 865.87 578.17 893.6 578.17 893.05 575.08"/><path class="cls-70" d="M881.23,548.31c1,.42,2.39,1.05,3.2,1.42.65-1.66,1.63-4.17,2.47-6.14-.84-.46-2-1.09-2.77-1.43A31.46,31.46,0,0,0,881.23,548.31Z"/><path class="cls-73" d="M868.57,543.28c-.29,1.86-.64,4.1-.92,5.94l3.12-.24a50.16,50.16,0,0,1,.2-6.05Z"/><rect class="cls-14" x="872.2" y="551.14" width="7.38" height="5.66"/><path class="cls-64" d="M879.82,563.68c0,1.46-1.86,2.65-4.16,2.65s-4.17-1.19-4.17-2.65,1.86-2.65,4.17-2.65S879.82,562.21,879.82,563.68Z"/><path class="cls-71" d="M893.12,661.67l0-3.18c-1.75-1.13-11.37-1.36-12-1.36l-.11,0c0,1-.05,2.07-.07,3A36.32,36.32,0,0,1,893.12,661.67Z"/><path class="cls-64" d="M875.18,518.88c.39-.74-.2-1.87-1.37-2.82a7.56,7.56,0,0,0-4.24,2,7.84,7.84,0,0,0,1.13.73C872.66,519.82,874.67,519.86,875.18,518.88Z"/><path class="cls-67" d="M892.39,569.12s-2.26,8-2.56,10.78a34.7,34.7,0,0,1-2,7.09s4.83,2.5,5,2.5,5-12.57,5.13-13,2.44-5,1.72-9.11l-.3-.54Z"/><path class="cls-71" d="M887.8,587l-.65-.36s-1.55,3.51-3,4.76-4.29,5.66-4.29,5.66-1.36,2-.83,2.26,1-.06,1.73-.47.18.83,1.19.77,2.8,1.61,3.69,1.19c0,0,1.85.54,2.26-.6,0,0,2.21-.53,2.68-1.78a14.53,14.53,0,0,0,1.37-4.65,15.13,15.13,0,0,1,1.19-4.34Z"/></svg>