<?xml version="1.0" encoding="iso-8859-1"?>
<!-- Generator: Adobe Illustrator 19.0.0, SVG Export Plug-In . SVG Version: 6.00 Build 0)  -->
<svg version="1.1" id="Capa_1" xmlns="http://www.w3.org/2000/svg" xmlns:xlink="http://www.w3.org/1999/xlink" x="0px" y="0px"
	 viewBox="0 0 511.999 511.999" style="enable-background:new 0 0 511.999 511.999;" xml:space="preserve">
<path style="fill:#B3B3B3;" d="M435.628,107.766H220.087c-109.082,0.027-197.499,88.489-197.463,197.579
	s88.489,197.499,197.579,197.472s197.499-88.489,197.472-197.579c-0.009-38.223-11.109-75.619-31.954-107.663h49.916v-89.809"/>
<g>
	<polygon style="fill:#808080;" points="175.183,116.747 130.278,71.843 193.145,8.976 300.915,116.747 	"/>
	<path style="fill:#808080;" d="M220.087,233.498h184.108c-4.904-12.573-11.082-24.608-18.438-35.924h-165.67V233.498z"/>
</g>
<circle style="fill:#FFA753;" cx="220.087" cy="305.345" r="107.771"/>
<circle style="fill:#E6E6E6;" cx="220.087" cy="305.345" r="71.847"/>
<g>
	<circle style="fill:#808080;" cx="220.087" cy="305.345" r="17.962"/>
	<rect x="435.664" y="89.804" style="fill:#808080;" width="53.885" height="125.732"/>
</g>
<g>
	<path style="fill:#004559;" d="M489.514,80.823h-53.885c-4.957,0-8.981,4.023-8.981,8.981v8.981H295.652L199.494,2.627
		c-3.503-3.503-9.196-3.503-12.699,0l-62.866,62.866c-3.503,3.512-3.503,9.196,0,12.699l31.137,31.137
		C46.792,145.252-11.853,262.147,24.07,370.43s152.828,166.928,261.101,131.004s166.928-152.828,130.995-261.101
		c-3.871-11.675-8.783-22.973-14.666-33.777h25.146v8.981c0,4.957,4.023,8.981,8.981,8.981h53.885c4.957,0,8.981-4.023,8.981-8.981
		V89.804C498.494,84.847,494.48,80.823,489.514,80.823z M142.977,71.843l50.167-50.167l14.244,14.244l-38.555,38.555l12.699,12.699
		l38.555-38.555l50.167,50.167h-50.167c-15.187,0.009-30.319,1.697-45.138,5.029L142.977,71.843z M220.087,188.594
		c-64.707-0.207-117.335,52.08-117.542,116.787c-0.207,64.707,52.08,117.335,116.787,117.542
		c64.707,0.207,117.335-52.08,117.542-116.787c0.126-40.423-20.593-78.062-54.819-99.58h98.592
		c54.523,88.704,26.817,204.818-61.896,259.35s-204.818,26.817-259.35-61.896s-26.817-204.818,61.896-259.35
		c29.709-18.267,63.908-27.931,98.79-27.913h206.56v71.847H220.087z M318.877,305.345c-0.018,28.451-12.331,55.502-33.777,74.2
		l-10.606-14.594c21.087-19.138,30.508-47.994,24.769-75.888l17.064-5.55C317.997,290.671,318.85,297.99,318.877,305.345z
		 M282.953,305.345c0,16.965-6.879,33.202-19.066,45.003l-21.617-29.736c2.937-4.284,4.571-9.331,4.688-14.531l35.025-11.379
		C282.612,298.215,282.935,301.771,282.953,305.345z M157.221,305.345c0.018-3.574,0.35-7.149,0.979-10.669l35.025,11.379
		c0.108,5.2,1.742,10.265,4.679,14.558l-21.617,29.763C164.1,338.566,157.221,322.319,157.221,305.345z M211.106,305.345
		c0-4.957,4.023-8.981,8.981-8.981c4.957,0,8.981,4.023,8.981,8.981s-4.023,8.981-8.981,8.981
		C215.13,314.326,211.106,310.303,211.106,305.345z M211.106,280.055c-4.877,1.751-9.143,4.868-12.286,8.981l-35.025-11.388
		c9.143-18.563,26.835-31.442,47.311-34.451V280.055z M212.498,331.067c4.93,1.626,10.247,1.626,15.178,0l21.698,29.861
		c-18.321,9.708-40.252,9.708-58.573,0L212.498,331.067z M241.354,288.991c-3.143-4.113-7.409-7.23-12.286-8.981v-36.822
		c20.476,2.982,38.187,15.851,47.347,34.406L241.354,288.991z M211.106,225.047c-28.281,3.215-52.799,21.042-64.564,46.961
		l-17.216-5.595c14.325-33.283,45.704-56.068,81.78-59.4V225.047z M123.812,283.513l17.064,5.55
		c-5.739,27.895,3.682,56.75,24.769,75.888l-10.606,14.594C127.656,355.782,115.64,318.835,123.812,283.513z M180.185,375.549
		c24.715,14.163,55.089,14.163,79.804,0l10.579,14.558c-31.056,18.707-69.907,18.707-100.963,0L180.185,375.549z M293.632,272.008
		c-11.765-25.919-36.283-43.746-64.564-46.961v-18.034c36.076,3.332,67.455,26.116,81.78,59.4L293.632,272.008z M480.533,206.556
		h-35.924V98.785h35.924V206.556z"/>
	<rect x="363.781" y="296.365" style="fill:#004559;" width="17.962" height="17.962"/>
	<rect x="58.431" y="296.365" style="fill:#004559;" width="17.962" height="17.962"/>
	<rect x="390.724" y="134.709" style="fill:#004559;" width="17.962" height="17.962"/>
	<rect x="291.934" y="134.709" style="fill:#004559;" width="80.828" height="17.962"/>
	<rect x="211.106" y="449.04" style="fill:#004559;" width="17.962" height="17.962"/>
</g>
<g>
</g>
<g>
</g>
<g>
</g>
<g>
</g>
<g>
</g>
<g>
</g>
<g>
</g>
<g>
</g>
<g>
</g>
<g>
</g>
<g>
</g>
<g>
</g>
<g>
</g>
<g>
</g>
<g>
</g>
</svg>
