<?xml version="1.0" encoding="iso-8859-1"?>
<!-- Generator: Adobe Illustrator 19.0.0, SVG Export Plug-In . SVG Version: 6.00 Build 0)  -->
<svg version="1.1" id="Capa_1" xmlns="http://www.w3.org/2000/svg" xmlns:xlink="http://www.w3.org/1999/xlink" x="0px" y="0px"
	 viewBox="0 0 512 512" style="enable-background:new 0 0 512 512;" xml:space="preserve">
<g>
	<path style="fill:#B3B3B3;" d="M316.697,9.104V95.81h112.831V83.411c-0.009-9.468,7.673-17.15,17.142-17.159
		c3.217,0,6.373,0.902,9.104,2.61l7.543,4.717c5.523,3.46,12.807,1.777,16.266-3.746c2.185-3.486,2.393-7.864,0.546-11.541
		l-2.731-5.462c-13.396-26.801-40.787-43.726-70.752-43.726C406.646,9.104,316.697,9.104,316.697,9.104z"/>
	<rect x="247.332" y="9.104" style="fill:#B3B3B3;" width="34.682" height="86.706"/>
	<path style="fill:#B3B3B3;" d="M342.908,468.647l-0.199,8.671c0,14.367,11.645,26.012,26.012,26.012s26.012-11.645,26.012-26.012
		l0,0l-0.199-8.671H342.908z"/>
</g>
<polygon style="fill:#006684;" points="386.062,95.81 351.379,95.81 342.908,468.647 394.533,468.647 "/>
<path style="fill:#B3B3B3;" d="M134.614,477.317V151.97c40.587-14.307,61.891-58.804,47.593-99.391
	c-6.754-19.153-20.714-34.917-38.922-43.934v49.804l-34.682,20.02l-34.682-20.02V8.644C35.353,27.737,19.563,74.48,38.665,113.047
	c9.009,18.2,24.772,32.168,43.934,38.922v325.348c0,14.367,11.645,26.012,26.012,26.012l0,0l0,0
	C122.969,503.329,134.614,491.685,134.614,477.317L134.614,477.317z"/>
<rect x="82.59" y="173.846" style="fill:#006684;" width="52.024" height="260.119"/>
<g>
	<path style="fill:#B3B3B3;" d="M82.59,433.964h52.024l0,0v43.353c0,14.367-11.645,26.012-26.012,26.012l0,0l0,0
		c-14.367,0-26.012-11.645-26.012-26.012l0,0V433.964L82.59,433.964z"/>
	<rect x="203.979" y="364.599" style="fill:#B3B3B3;" width="69.365" height="34.682"/>
</g>
<path style="fill:#2996BF;" d="M203.979,399.282h69.365l0,0v69.365c0,19.153-15.529,34.682-34.682,34.682l0,0
	c-19.153,0-34.682-15.529-34.682-34.682V399.282L203.979,399.282z"/>
<g>
	<rect x="221.32" y="329.917" style="fill:#808080;" width="34.682" height="34.682"/>
	<rect x="282.014" y="26.445" style="fill:#808080;" width="34.682" height="52.024"/>
</g>
<g>
	<path style="fill:#004559;" d="M282.014,0.433h-34.682c-4.786,0-8.671,3.884-8.671,8.671V95.81c0,4.786,3.884,8.671,8.671,8.671
		h34.682c4.786,0,8.671-3.884,8.671-8.671V87.14h17.341v8.671c0,4.786,3.884,8.671,8.671,8.671h25.812l-8.471,372.837
		c0.052,19.153,15.624,34.639,34.778,34.587s34.639-15.624,34.587-34.778l-8.471-372.646h34.596c4.786,0,8.671-3.884,8.671-8.671
		V83.402c-0.009-4.691,3.789-8.497,8.48-8.497c1.604,0,3.173,0.451,4.526,1.301l7.552,4.725c9.581,6,22.214,3.095,28.214-6.494
		c3.789-6.052,4.153-13.639,0.954-20.02l-2.731-5.462c-14.792-29.827-45.252-48.642-78.547-48.521h-89.949
		c-4.786,0-8.671,3.884-8.671,8.671v8.671h-17.341V9.104C290.685,4.309,286.809,0.433,282.014,0.433z M273.344,87.14h-17.341V17.775
		h17.341V87.14z M368.72,494.659c-9.503,0-17.237-7.647-17.341-17.15v-0.191h34.682C386.062,486.89,378.302,494.659,368.72,494.659z
		 M385.672,459.976h-33.902l8.09-355.495h17.723L385.672,459.976z M406.646,17.775c26.705-0.087,51.139,15.009,63.001,38.931
		l2.731,5.462c0.772,1.552,0.13,3.434-1.422,4.205c-0.971,0.477-2.116,0.425-3.035-0.139l-7.561-4.725
		c-12.096-7.561-28.023-3.876-35.584,8.22c-2.566,4.101-3.919,8.844-3.919,13.674v3.737h-95.489V52.457h52.024V35.116h-52.024
		V17.775C325.367,17.775,406.646,17.775,406.646,17.775z M308.026,35.116v34.682h-17.341V35.116H308.026z"/>
	<rect x="394.732" y="35.116" style="fill:#004559;" width="17.341" height="17.341"/>
	<path style="fill:#004559;" d="M229.991,321.246h-34.682v17.341h17.341v17.341h-8.671c-4.786,0-8.671,3.884-8.671,8.671v104.047
		c0,23.94,19.414,43.353,43.353,43.353s43.353-19.413,43.353-43.353V364.599c0-4.786-3.884-8.671-8.671-8.671h-8.671v-17.341h17.341
		v-17.341h-34.682V147.834h-17.341L229.991,321.246L229.991,321.246z M221.32,373.27h43.353v17.341h-52.024V373.27H221.32z
		 M238.661,494.659c-14.367,0-26.012-11.645-26.012-26.012v-60.694h52.024v60.694C264.673,483.014,253.028,494.659,238.661,494.659z
		 M247.332,355.929h-17.341v-17.341h17.341V355.929z"/>
	<rect x="229.991" y="425.294" style="fill:#004559;" width="17.341" height="52.024"/>
	<path style="fill:#004559;" d="M78.48,1.3c-2.549-1.578-5.74-1.734-8.428-0.39C27.211,22.153,9.696,74.099,30.939,116.949
		c9.061,18.278,24.278,32.766,42.98,40.908v319.46c0,19.153,15.529,34.682,34.682,34.682s34.682-15.529,34.682-34.682v-319.46
		c43.839-19.11,63.876-70.137,44.766-113.975C179.9,25.188,165.42,9.98,147.152,0.919c-4.283-2.133-9.494-0.39-11.627,3.893
		c-0.607,1.214-0.919,2.558-0.91,3.91v44.714l-26.012,15.026L82.59,53.437V8.636C82.581,5.644,81.029,2.87,78.48,1.3z
		 M91.261,182.516h34.682v242.777H91.261V182.516z M108.602,494.659c-9.581,0-17.341-7.76-17.341-17.341v-34.682h34.682v34.682
		C125.943,486.89,118.183,494.659,108.602,494.659z M104.267,85.978c2.679,1.552,5.991,1.552,8.671,0l34.682-20.02
		c2.688-1.552,4.335-4.413,4.335-7.517V24.373c29.879,23.888,34.734,67.466,10.847,97.345c-8.09,10.119-18.859,17.766-31.076,22.075
		c-3.468,1.223-5.783,4.5-5.783,8.176v13.205H91.261V151.97c0-3.676-2.315-6.954-5.783-8.176
		c-36.078-12.711-55.015-52.266-42.304-88.345c4.309-12.217,11.957-22.986,22.075-31.075V58.44c0,3.104,1.647,5.965,4.335,7.517
		L104.267,85.978z"/>
	<rect x="82.59" y="104.481" style="fill:#004559;" width="52.024" height="17.341"/>
	<rect x="99.931" y="459.976" style="fill:#004559;" width="17.341" height="17.341"/>
</g>
<g>
</g>
<g>
</g>
<g>
</g>
<g>
</g>
<g>
</g>
<g>
</g>
<g>
</g>
<g>
</g>
<g>
</g>
<g>
</g>
<g>
</g>
<g>
</g>
<g>
</g>
<g>
</g>
<g>
</g>
</svg>
