<?xml version="1.0" encoding="iso-8859-1"?>
<!-- Generator: Adobe Illustrator 19.0.0, SVG Export Plug-In . SVG Version: 6.00 Build 0)  -->
<svg version="1.1" id="Capa_1" xmlns="http://www.w3.org/2000/svg" xmlns:xlink="http://www.w3.org/1999/xlink" x="0px" y="0px"
	 viewBox="0 0 512 512" style="enable-background:new 0 0 512 512;" xml:space="preserve">
<polygon style="fill:#2996BF;" points="256,422.4 256,311.467 8.533,311.467 8.533,157.867 503.467,157.867 503.467,422.4 "/>
<g>
	<rect x="42.667" y="132.267" style="fill:#006684;" width="68.267" height="51.2"/>
	<rect x="401.067" y="132.267" style="fill:#006684;" width="68.267" height="51.2"/>
</g>
<path style="fill:#FFA753;" d="M384,243.2c-32.99,0-59.733,26.743-59.733,59.733S351.01,362.667,384,362.667
	s59.733-26.743,59.733-59.733S416.99,243.2,384,243.2z M384,328.533c-14.14,0-25.6-11.46-25.6-25.6s11.46-25.6,25.6-25.6
	c14.14,0,25.6,11.46,25.6,25.6S398.14,328.533,384,328.533z"/>
<polygon style="fill:#E6E6E6;" points="8.533,465.067 8.533,311.467 256,311.467 256,422.4 503.467,422.4 503.467,465.067 "/>
<rect x="51.2" y="354.133" style="fill:#2996BF;" width="162.133" height="68.267"/>
<g>
	<rect x="34.133" y="465.067" style="fill:#808080;" width="85.333" height="34.133"/>
	<rect x="375.467" y="465.067" style="fill:#808080;" width="85.333" height="34.133"/>
</g>
<path style="fill:#E6E6E6;" d="M418.133,132.267L418.133,132.267c0-47.13-38.204-85.333-85.333-85.333H179.2
	c-47.13,0-85.333,38.204-85.333,85.333H59.733C59.733,66.287,113.22,12.8,179.2,12.8h153.6c65.98,0,119.467,53.487,119.467,119.467
	H418.133z"/>
<rect x="170.667" y="12.8" style="fill:#808080;" width="34.133" height="34.133"/>
<rect x="204.8" y="12.8" style="fill:#B3B3B3;" width="34.133" height="34.133"/>
<rect x="238.933" y="12.8" style="fill:#808080;" width="34.133" height="34.133"/>
<rect x="273.067" y="12.8" style="fill:#B3B3B3;" width="34.133" height="34.133"/>
<rect x="307.2" y="12.8" style="fill:#808080;" width="34.133" height="34.133"/>
<g>
	<path style="fill:#004559;" d="M213.333,345.6H51.2c-4.71,0-8.533,3.823-8.533,8.533V422.4c0,4.71,3.823,8.533,8.533,8.533h162.133
		c4.71,0,8.533-3.823,8.533-8.533v-68.267C221.867,349.423,218.044,345.6,213.333,345.6z M204.8,413.867H59.733v-51.2H204.8V413.867
		z"/>
	<rect x="76.8" y="379.733" style="fill:#004559;" width="76.8" height="17.067"/>
	<rect x="170.667" y="379.733" style="fill:#004559;" width="17.067" height="17.067"/>
	<path style="fill:#004559;" d="M503.467,149.333h-25.6v-17.067c0-4.71-3.823-8.533-8.533-8.533h-8.969
		C455.851,56.576,400.111,4.369,332.8,4.267H179.2C111.889,4.369,56.149,56.576,51.635,123.733h-8.969
		c-4.71,0-8.533,3.823-8.533,8.533v17.067h-25.6c-4.71,0-8.533,3.823-8.533,8.533v307.2c0,4.71,3.823,8.533,8.533,8.533H25.6v25.6
		c0,4.71,3.823,8.533,8.533,8.533h85.333c4.71,0,8.533-3.823,8.533-8.533v-25.6h238.933v25.6c0,4.71,3.823,8.533,8.533,8.533H460.8
		c4.71,0,8.533-3.823,8.533-8.533v-25.6h34.133c4.71,0,8.533-3.823,8.533-8.533v-307.2C512,153.156,508.177,149.333,503.467,149.333
		z M392.533,132.267v17.067H119.467v-17.067c0-4.71-3.823-8.533-8.533-8.533h-8.03c4.378-38.844,37.205-68.215,76.297-68.267h153.6
		c39.091,0.051,71.919,29.423,76.297,68.267h-8.03C396.356,123.733,392.533,127.556,392.533,132.267z M281.6,38.4V21.333h17.067
		V38.4H281.6z M264.533,38.4h-17.067V21.333h17.067V38.4z M230.4,38.4h-17.067V21.333H230.4V38.4z M409.6,140.8h51.2v34.133h-51.2
		V140.8z M443.298,123.733h-17.067c-3.883-41.83-35.063-76.006-76.365-83.703V22.784C400.632,30.737,439.296,72.508,443.298,123.733
		z M332.8,38.4h-17.067V21.333H332.8V38.4z M196.267,21.333V38.4H179.2V21.333H196.267z M162.133,22.784V40.03
		c-41.301,7.697-72.482,41.873-76.365,83.703H68.702C72.704,72.508,111.369,30.737,162.133,22.784z M51.2,140.8h51.2v34.133H51.2
		V140.8z M17.067,166.4h17.067v17.067c0,4.71,3.823,8.533,8.533,8.533h68.267c4.71,0,8.533-3.823,8.533-8.533V166.4h273.067v17.067
		c0,4.71,3.823,8.533,8.533,8.533h68.267c4.71,0,8.533-3.823,8.533-8.533V166.4h17.067v247.467h-230.4v-102.4
		c0-4.71-3.823-8.533-8.533-8.533H17.067V166.4z M110.933,490.667H42.667V473.6h68.267V490.667z M452.267,490.667H384V473.6h68.267
		V490.667z M460.8,456.533H17.067V320h230.4v102.4c0,4.71,3.823,8.533,8.533,8.533h238.933v25.6H460.8z"/>
	<path style="fill:#004559;" d="M330.138,344.747l-12.51,12.518l12.066,12.066l12.493-12.535
		c9.643,7.518,21.146,12.297,33.28,13.815v17.655h17.067v-17.655c12.134-1.519,23.637-6.298,33.28-13.815l12.51,12.51l12.066-12.066
		l-12.527-12.493c7.518-9.643,12.297-21.146,13.815-33.28h17.655V294.4h-17.655c-1.519-12.134-6.298-23.637-13.815-33.28
		l12.51-12.518l-12.066-12.066l-12.493,12.535c-9.643-7.518-21.146-12.297-33.28-13.815V217.6h-17.067v17.655
		c-12.134,1.519-23.637,6.298-33.28,13.815l-12.51-12.51l-12.066,12.066l12.527,12.493c-7.518,9.643-12.297,21.146-13.815,33.28
		h-17.655v17.067h17.655C317.841,323.601,322.62,335.104,330.138,344.747z M384,251.733c28.279,0,51.2,22.921,51.2,51.2
		s-22.921,51.2-51.2,51.2c-28.279,0-51.2-22.921-51.2-51.2C332.826,274.671,355.738,251.759,384,251.733z"/>
	<path style="fill:#004559;" d="M384,337.067c18.85,0,34.133-15.283,34.133-34.133S402.85,268.8,384,268.8
		s-34.133,15.283-34.133,34.133S365.15,337.067,384,337.067z M384,285.867c9.429,0,17.067,7.637,17.067,17.067S393.429,320,384,320
		c-9.429,0-17.067-7.637-17.067-17.067S374.571,285.867,384,285.867z"/>
	<rect x="34.133" y="209.067" style="fill:#004559;" width="17.067" height="17.067"/>
	<rect x="68.267" y="209.067" style="fill:#004559;" width="17.067" height="17.067"/>
	<rect x="102.4" y="209.067" style="fill:#004559;" width="17.067" height="17.067"/>
</g>
<g>
</g>
<g>
</g>
<g>
</g>
<g>
</g>
<g>
</g>
<g>
</g>
<g>
</g>
<g>
</g>
<g>
</g>
<g>
</g>
<g>
</g>
<g>
</g>
<g>
</g>
<g>
</g>
<g>
</g>
</svg>
