<?xml version="1.0" encoding="iso-8859-1"?>
<!-- Generator: Adobe Illustrator 19.0.0, SVG Export Plug-In . SVG Version: 6.00 Build 0)  -->
<svg version="1.1" id="Capa_1" xmlns="http://www.w3.org/2000/svg" xmlns:xlink="http://www.w3.org/1999/xlink" x="0px" y="0px"
	 viewBox="0 0 512 512" style="enable-background:new 0 0 512 512;" xml:space="preserve">
<polygon style="fill:#89CEEA;" points="76.8,264.533 435.2,264.533 401.067,76.8 110.933,76.8 "/>
<path style="fill:#006684;" d="M42.667,264.533h426.667c18.85,0,34.133,15.283,34.133,34.133v68.267
	c0,18.85-15.283,34.133-34.133,34.133H42.667c-18.85,0-34.133-15.283-34.133-34.133v-68.267
	C8.533,279.817,23.817,264.533,42.667,264.533z"/>
<circle style="fill:#FAD87C;" cx="435.2" cy="332.8" r="34.133"/>
<g style="opacity:0.5;enable-background:new    ;">
	<path style="fill:#E97424;" d="M456.533,345.6c-18.645,0.205-33.92-14.737-34.133-33.382c-0.043-3.959,0.606-7.893,1.929-11.622
		c-17.835,5.956-27.469,25.242-21.513,43.076c5.956,17.835,25.242,27.469,43.076,21.513c10.155-3.388,18.125-11.358,21.513-21.513
		C463.906,344.9,460.237,345.549,456.533,345.6z"/>
</g>
<circle style="fill:#FAD87C;" cx="76.8" cy="332.8" r="34.133"/>
<g style="opacity:0.5;enable-background:new    ;">
	<path style="fill:#E97424;" d="M98.133,345.6c-18.645,0.205-33.92-14.737-34.133-33.382c-0.043-3.959,0.606-7.893,1.929-11.622
		c-17.835,5.956-27.469,25.242-21.513,43.076c5.956,17.835,25.242,27.469,43.076,21.513c10.155-3.388,18.125-11.358,21.513-21.513
		C105.506,344.9,101.837,345.549,98.133,345.6z"/>
</g>
<g>
	<rect x="145.067" y="298.667" style="fill:#E6E6E6;" width="221.867" height="34.133"/>
	<rect x="145.067" y="332.8" style="fill:#E6E6E6;" width="221.867" height="34.133"/>
</g>
<g>
	<rect x="145.067" y="298.667" style="fill:#CCCCCC;" width="221.867" height="17.067"/>
	<rect x="145.067" y="332.8" style="fill:#CCCCCC;" width="221.867" height="17.067"/>
</g>
<g>
	<rect x="460.8" y="196.267" style="fill:#006684;" width="42.667" height="34.133"/>
	<rect x="8.533" y="196.267" style="fill:#006684;" width="42.667" height="34.133"/>
</g>
<g>
	<polygon style="fill:#2996BF;" points="162.133,76.8 128,264.533 170.667,264.533 204.8,76.8 	"/>
	<polygon style="fill:#2996BF;" points="358.4,76.8 324.267,264.533 366.933,264.533 401.067,76.8 	"/>
</g>
<path style="fill:#E3646A;" d="M341.333,93.867C341.333,170.667,256,256,256,256s-85.333-85.333-85.333-162.133
	c0-47.13,38.204-85.333,85.333-85.333S341.333,46.737,341.333,93.867z"/>
<circle style="fill:#FFFFFF;" cx="256" cy="93.867" r="42.667"/>
<rect x="42.667" y="401.067" style="fill:#999999;" width="102.4" height="102.4"/>
<rect x="42.667" y="401.067" style="fill:#666666;" width="102.4" height="25.6"/>
<rect x="366.933" y="401.067" style="fill:#999999;" width="102.4" height="102.4"/>
<rect x="366.933" y="401.067" style="fill:#666666;" width="102.4" height="25.6"/>
<g>
	<path style="fill:#004559;" d="M34.133,332.8c0,23.561,19.106,42.667,42.667,42.667s42.667-19.106,42.667-42.667
		s-19.106-42.667-42.667-42.667C53.248,290.159,34.159,309.248,34.133,332.8z M102.4,332.8c0,14.14-11.46,25.6-25.6,25.6
		s-25.6-11.46-25.6-25.6s11.46-25.6,25.6-25.6S102.4,318.66,102.4,332.8z"/>
	<rect x="102.4" y="460.8" style="fill:#004559;" width="17.067" height="17.067"/>
	<rect x="68.267" y="460.8" style="fill:#004559;" width="17.067" height="17.067"/>
	<path style="fill:#004559;" d="M477.867,332.8c0-23.561-19.106-42.667-42.667-42.667s-42.667,19.106-42.667,42.667
		s19.106,42.667,42.667,42.667C458.752,375.441,477.841,356.352,477.867,332.8z M409.6,332.8c0-14.14,11.46-25.6,25.6-25.6
		c14.14,0,25.6,11.46,25.6,25.6s-11.46,25.6-25.6,25.6C421.06,358.4,409.6,346.94,409.6,332.8z"/>
	<rect x="392.533" y="460.8" style="fill:#004559;" width="17.067" height="17.067"/>
	<rect x="426.667" y="460.8" style="fill:#004559;" width="17.067" height="17.067"/>
	<path style="fill:#004559;" d="M503.467,238.933c4.71,0,8.533-3.823,8.533-8.533v-34.133c0-4.71-3.823-8.533-8.533-8.533H460.8
		c-4.71,0-8.533,3.823-8.533,8.533V256h-9.95L409.455,75.273c-0.734-4.053-4.267-7.006-8.388-7.006h-25.6v17.067h18.475L424.96,256
		H307.2v17.067h162.133c14.14,0,25.6,11.46,25.6,25.6v68.267c0,14.14-11.46,25.6-25.6,25.6H42.667c-14.14,0-25.6-11.46-25.6-25.6
		v-68.267c0-14.14,11.46-25.6,25.6-25.6h170.667V256H87.04l31.036-170.667h18.458V68.267h-25.6c-4.122,0-7.654,2.953-8.388,7.006
		L69.683,256h-9.95v-59.733c0-4.71-3.823-8.533-8.533-8.533H8.533c-4.71,0-8.533,3.823-8.533,8.533V230.4
		c0,4.71,3.823,8.533,8.533,8.533h34.133V256C19.115,256.026,0.026,275.115,0,298.667v68.267
		c0.026,20.267,14.285,37.734,34.133,41.813v94.72c0,4.71,3.823,8.533,8.533,8.533h102.4c4.71,0,8.533-3.823,8.533-8.533V409.6
		h204.8v93.867c0,4.71,3.823,8.533,8.533,8.533h102.4c4.71,0,8.533-3.823,8.533-8.533v-94.72
		c19.849-4.079,34.108-21.547,34.133-41.813v-68.267c-0.026-23.552-19.115-42.641-42.667-42.667v-17.067H503.467z M17.067,204.8
		h25.6v17.067h-25.6V204.8z M136.533,494.933H51.2V409.6h17.067v34.133h17.067V409.6H102.4v34.133h17.067V409.6h17.067V494.933z
		 M375.467,494.933V409.6h17.067v34.133H409.6V409.6h17.067v34.133h17.067V409.6H460.8v85.333H375.467z M469.333,204.8h25.6v17.067
		h-25.6V204.8z"/>
	<path style="fill:#004559;" d="M256,264.533c2.261,0,4.437-0.896,6.033-2.5c3.584-3.584,87.834-88.747,87.834-168.166
		C349.867,42.027,307.84,0,256,0s-93.867,42.027-93.867,93.867c0,79.42,84.25,164.582,87.834,168.166
		C251.563,263.637,253.739,264.533,256,264.533z M256,17.067c42.394,0.051,76.749,34.406,76.8,76.8
		c0,60.681-57.719,128.853-76.8,149.692c-19.081-20.838-76.8-89.011-76.8-149.692C179.251,51.473,213.606,17.118,256,17.067z"/>
	<path style="fill:#004559;" d="M136.533,298.667v68.267c0,4.71,3.823,8.533,8.533,8.533h221.867c4.71,0,8.533-3.823,8.533-8.533
		v-68.267c0-4.71-3.823-8.533-8.533-8.533H145.067C140.356,290.133,136.533,293.956,136.533,298.667z M153.6,358.4v-17.067h204.8
		V358.4H153.6z M358.4,307.2v17.067H153.6V307.2H358.4z"/>
	<path style="fill:#004559;" d="M307.2,93.867c0-28.279-22.921-51.2-51.2-51.2c-28.279,0-51.2,22.921-51.2,51.2
		s22.921,51.2,51.2,51.2C284.262,145.041,307.174,122.129,307.2,93.867z M221.867,93.867c0-18.85,15.283-34.133,34.133-34.133
		c18.85,0,34.133,15.283,34.133,34.133S274.85,128,256,128C237.15,128,221.867,112.717,221.867,93.867z"/>
</g>
<g>
</g>
<g>
</g>
<g>
</g>
<g>
</g>
<g>
</g>
<g>
</g>
<g>
</g>
<g>
</g>
<g>
</g>
<g>
</g>
<g>
</g>
<g>
</g>
<g>
</g>
<g>
</g>
<g>
</g>
</svg>
