<?xml version="1.0" encoding="iso-8859-1"?>
<!-- Generator: Adobe Illustrator 19.0.0, SVG Export Plug-In . SVG Version: 6.00 Build 0)  -->
<svg version="1.1" id="Capa_1" xmlns="http://www.w3.org/2000/svg" xmlns:xlink="http://www.w3.org/1999/xlink" x="0px" y="0px"
	 viewBox="0 0 512 512" style="enable-background:new 0 0 512 512;" xml:space="preserve">
<path style="fill:#E6E6E6;" d="M409.6,8.533H123.733c-21.205,0-38.4,17.195-38.4,38.4V409.6h264.533v55.467
	c0,21.205,17.195,38.4,38.4,38.4l0,0c21.205,0,38.4-17.195,38.4-38.4V46.933c0-21.205,17.195-38.4,38.4-38.4H409.6z"/>
<g>
	<path style="fill:#2996BF;" d="M465.067,8.533L465.067,8.533c21.205,0,38.4,17.195,38.4,38.4v149.333l0,0h-76.8l0,0V46.933
		C426.667,25.728,443.861,8.533,465.067,8.533z"/>
	<path style="fill:#2996BF;" d="M392.533,503.467h-4.267c-21.205,0-38.4-17.195-38.4-38.4V409.6H8.533v55.467
		c0,21.205,17.195,38.4,38.4,38.4H392.533z"/>
</g>
<path style="fill:#FFA753;" d="M349.867,162.133V128h-19.038c-1.92-8.422-5.257-16.461-9.865-23.765l13.474-13.474l-24.132-24.132
	l-13.474,13.474c-7.305-4.608-15.343-7.945-23.765-9.865V51.2h-34.133v19.038c-8.422,1.92-16.461,5.257-23.765,9.865l-13.474-13.474
	l-24.132,24.132l13.474,13.474c-4.608,7.305-7.945,15.343-9.865,23.765h-19.038v34.133h19.038c1.92,8.422,5.257,16.461,9.865,23.765
	l-13.474,13.474l24.132,24.132l13.474-13.474c7.305,4.608,15.343,7.945,23.765,9.865v19.038h34.133v-19.038
	c8.422-1.92,16.461-5.257,23.765-9.865l13.474,13.474l24.132-24.132l-13.474-13.474c4.608-7.305,7.945-15.343,9.865-23.765
	L349.867,162.133L349.867,162.133z M256,179.2c-18.85,0-34.133-15.283-34.133-34.133S237.15,110.933,256,110.933
	c18.85,0,34.133,15.283,34.133,34.133S274.85,179.2,256,179.2z"/>
<g>
	<path style="fill:#004559;" d="M465.067,0H123.733C97.826,0.026,76.826,21.026,76.8,46.933v354.133H8.533
		C3.823,401.067,0,404.89,0,409.6v55.467C0.026,490.974,21.026,511.974,46.933,512h341.333
		c25.907-0.026,46.908-21.026,46.933-46.933V204.8h68.267c4.71,0,8.533-3.823,8.533-8.533V46.933
		C511.974,21.026,490.974,0.026,465.067,0z M46.933,494.933c-16.495,0-29.867-13.372-29.867-29.867v-46.933h324.267v46.933
		c-0.009,10.906,3.789,21.47,10.752,29.867H46.933z M418.133,46.933v418.133c0,16.495-13.372,29.867-29.867,29.867
		c-16.495,0-29.867-13.372-29.867-29.867V409.6c0-4.71-3.823-8.533-8.533-8.533h-256V46.933c0-16.495,13.372-29.867,29.867-29.867
		h305.161C421.931,25.463,418.125,36.028,418.133,46.933z M494.933,187.733H435.2v-140.8c0-16.495,13.372-29.867,29.867-29.867
		c16.495,0,29.867,13.372,29.867,29.867V187.733z"/>
	<path style="fill:#004559;" d="M349.867,119.467h-12.51c-1.502-4.762-3.422-9.387-5.734-13.815l8.858-8.858
		c3.328-3.337,3.328-8.73,0-12.066l-24.141-24.141c-3.328-3.328-8.738-3.328-12.066,0l-8.858,8.849
		c-4.429-2.313-9.054-4.224-13.815-5.726V51.2c0-4.71-3.823-8.533-8.533-8.533h-34.133c-4.71,0-8.533,3.823-8.533,8.533v12.51
		c-4.762,1.502-9.387,3.422-13.815,5.734l-8.858-8.858c-3.328-3.328-8.738-3.328-12.066,0L171.52,84.727
		c-3.328,3.337-3.328,8.738,0,12.066l8.849,8.858c-2.313,4.429-4.224,9.054-5.726,13.815h-12.51c-4.71,0-8.533,3.823-8.533,8.533
		v34.133c0,4.71,3.823,8.533,8.533,8.533h12.51c1.502,4.762,3.422,9.387,5.734,13.815l-8.858,8.858
		c-3.328,3.328-3.328,8.738,0,12.066l24.141,24.141c3.328,3.328,8.738,3.328,12.066,0l8.858-8.849
		c4.429,2.313,9.054,4.224,13.815,5.726v12.51c0,4.71,3.823,8.533,8.533,8.533h34.133c4.71,0,8.533-3.823,8.533-8.533v-12.51
		c4.762-1.502,9.387-3.422,13.815-5.734l8.858,8.858c3.328,3.328,8.738,3.328,12.066,0l24.141-24.141
		c3.328-3.328,3.328-8.738,0-12.066l-8.849-8.858c2.313-4.429,4.224-9.054,5.726-13.815h12.51c4.71,0,8.533-3.823,8.533-8.533V128
		C358.4,123.29,354.577,119.467,349.867,119.467z M341.333,153.6h-10.496c-3.985,0-7.441,2.756-8.329,6.639
		c-1.698,7.484-4.668,14.618-8.764,21.103c-2.125,3.371-1.638,7.774,1.186,10.59l7.441,7.441l-12.066,12.066l-7.441-7.441
		c-2.816-2.825-7.219-3.311-10.59-1.186c-6.485,4.096-13.619,7.066-21.103,8.764c-3.883,0.887-6.639,4.343-6.639,8.329V230.4
		h-17.067v-10.496c0-3.985-2.756-7.441-6.639-8.329c-7.484-1.698-14.618-4.668-21.103-8.764c-3.371-2.125-7.774-1.638-10.59,1.186
		l-7.441,7.441l-12.066-12.066l7.441-7.441c2.825-2.816,3.311-7.219,1.186-10.59c-4.096-6.485-7.066-13.619-8.764-21.103
		c-0.887-3.883-4.343-6.639-8.329-6.639h-10.496v-17.067h10.496c3.985,0,7.441-2.756,8.329-6.639
		c1.698-7.484,4.668-14.618,8.764-21.103c2.125-3.371,1.638-7.774-1.186-10.59l-7.441-7.441l12.066-12.066l7.441,7.441
		c2.816,2.825,7.219,3.311,10.59,1.186c6.485-4.096,13.619-7.066,21.103-8.764c3.883-0.887,6.639-4.343,6.639-8.329V59.733h17.067
		v10.496c0,3.985,2.756,7.441,6.639,8.329c7.484,1.698,14.618,4.668,21.103,8.764c3.371,2.125,7.774,1.638,10.59-1.186l7.441-7.441
		l12.066,12.066l-7.441,7.441c-2.825,2.816-3.311,7.219-1.186,10.59c4.096,6.485,7.066,13.619,8.764,21.103
		c0.887,3.883,4.343,6.639,8.328,6.639h10.496V153.6z"/>
	<path style="fill:#004559;" d="M256,102.4c-23.561,0-42.667,19.106-42.667,42.667s19.106,42.667,42.667,42.667
		c23.561,0,42.667-19.106,42.667-42.667C298.641,121.515,279.552,102.426,256,102.4z M256,170.667c-14.14,0-25.6-11.46-25.6-25.6
		c0-14.14,11.46-25.6,25.6-25.6c14.14,0,25.6,11.46,25.6,25.6C281.6,159.206,270.14,170.667,256,170.667z"/>
	<rect x="128" y="273.067" style="fill:#004559;" width="136.533" height="17.067"/>
	<rect x="128" y="315.733" style="fill:#004559;" width="221.867" height="17.067"/>
	<rect x="128" y="358.4" style="fill:#004559;" width="170.667" height="17.067"/>
	<rect x="281.6" y="273.067" style="fill:#004559;" width="17.067" height="17.067"/>
	<rect x="315.733" y="358.4" style="fill:#004559;" width="17.067" height="17.067"/>
	<rect x="366.933" y="315.733" style="fill:#004559;" width="17.067" height="17.067"/>
</g>
<g>
</g>
<g>
</g>
<g>
</g>
<g>
</g>
<g>
</g>
<g>
</g>
<g>
</g>
<g>
</g>
<g>
</g>
<g>
</g>
<g>
</g>
<g>
</g>
<g>
</g>
<g>
</g>
<g>
</g>
</svg>
