<?xml version="1.0" encoding="iso-8859-1"?>
<!-- Generator: Adobe Illustrator 19.0.0, SVG Export Plug-In . SVG Version: 6.00 Build 0)  -->
<svg version="1.1" id="Capa_1" xmlns="http://www.w3.org/2000/svg" xmlns:xlink="http://www.w3.org/1999/xlink" x="0px" y="0px"
	 viewBox="0 0 512 512" style="enable-background:new 0 0 512 512;" xml:space="preserve">
<path style="fill:#2996BF;" d="M42.667,8.533h426.667c18.85,0,34.133,15.283,34.133,34.133v307.2
	c0,18.85-15.283,34.133-34.133,34.133H42.667c-18.85,0-34.133-15.283-34.133-34.133v-307.2C8.533,23.817,23.817,8.533,42.667,8.533z
	"/>
<polygon style="fill:#E6E6E6;" points="281.6,256 341.333,256 341.333,187.733 298.667,187.733 273.067,145.067 170.667,145.067 
	136.533,187.733 51.2,196.267 51.2,256 110.933,256 "/>
<rect x="102.4" y="469.333" style="fill:#B3B3B3;" width="307.2" height="34.133"/>
<g>
	<path style="fill:#E6E6E6;" d="M8.533,349.867c0,18.85,15.283,34.133,34.133,34.133h426.667c18.85,0,34.133-15.283,34.133-34.133
		v-34.133H8.533V349.867z"/>
	<polygon style="fill:#E6E6E6;" points="187.733,384 136.533,469.333 375.467,469.333 324.267,384 	"/>
</g>
<g>
	<polygon style="fill:#B3B3B3;" points="339.627,409.6 324.267,384 187.733,384 172.373,409.6 	"/>
	<circle style="fill:#B3B3B3;" cx="264.533" cy="256" r="17.067"/>
	<circle style="fill:#B3B3B3;" cx="128" cy="256" r="17.067"/>
</g>
<g>
	<path style="fill:#004559;" d="M469.333,0H42.667C19.115,0.026,0.026,19.115,0,42.667v307.2
		c0.026,23.552,19.115,42.641,42.667,42.667h129.997l-40.96,68.267H102.4c-4.71,0-8.533,3.823-8.533,8.533v34.133
		c0,4.71,3.823,8.533,8.533,8.533h307.2c4.71,0,8.533-3.823,8.533-8.533v-34.133c0-4.71-3.823-8.533-8.533-8.533h-29.303
		l-40.96-68.267h129.997c23.552-0.026,42.641-19.115,42.667-42.667v-307.2C511.974,19.115,492.885,0.026,469.333,0z M42.667,17.067
		h426.667c14.14,0,25.6,11.46,25.6,25.6V307.2H17.067V42.667C17.067,28.527,28.527,17.067,42.667,17.067z M401.067,494.933H110.933
		v-17.067h290.133V494.933z M360.397,460.8H151.603l40.96-68.267h126.874L360.397,460.8z M469.333,375.467H42.667
		c-14.14,0-25.6-11.46-25.6-25.6v-25.6h477.867v25.6C494.933,364.006,483.473,375.467,469.333,375.467z"/>
	<rect x="247.467" y="341.333" style="fill:#004559;" width="17.067" height="17.067"/>
	<path style="fill:#004559;" d="M51.2,264.533h52.77c4.625,13.269,19.132,20.284,32.401,15.659
		c7.339-2.551,13.099-8.32,15.659-15.659h88.474c4.625,13.269,19.132,20.284,32.401,15.659c7.339-2.551,13.099-8.32,15.659-15.659
		h52.77c4.71,0,8.533-3.823,8.533-8.533v-68.267c0-4.71-3.823-8.533-8.533-8.533h-37.837l-23.117-38.528
		c-1.545-2.569-4.318-4.139-7.313-4.139h-102.4c-2.594,0-5.043,1.178-6.665,3.2l-31.889,39.868l-81.766,8.175
		c-4.361,0.435-7.68,4.105-7.68,8.491V256C42.667,260.71,46.49,264.533,51.2,264.533z M128,264.533c-4.71,0-8.533-3.823-8.533-8.533
		c0-4.71,3.823-8.533,8.533-8.533c4.71,0,8.533,3.823,8.533,8.533C136.533,260.71,132.71,264.533,128,264.533z M264.533,264.533
		c-4.71,0-8.533-3.823-8.533-8.533c0-4.71,3.823-8.533,8.533-8.533c4.71,0,8.533,3.823,8.533,8.533
		C273.067,260.71,269.244,264.533,264.533,264.533z M137.387,196.267c2.287-0.23,4.378-1.365,5.811-3.157l31.565-39.509h93.474
		l23.117,38.528c1.545,2.569,4.318,4.139,7.313,4.139H332.8v17.067h-17.067V230.4H332.8v17.067h-44.237
		c-4.625-13.269-19.132-20.284-32.401-15.659c-7.339,2.551-13.099,8.32-15.659,15.659H152.03
		c-4.625-13.269-19.132-20.284-32.401-15.659c-7.339,2.551-13.099,8.32-15.659,15.659H59.733V230.4H76.8v-17.067H59.733v-9.344
		L137.387,196.267z"/>
	<polygon style="fill:#004559;" points="196.267,93.867 179.2,93.867 179.2,76.8 162.133,76.8 162.133,93.867 145.067,93.867 
		145.067,59.733 128,59.733 128,93.867 110.933,93.867 110.933,42.667 93.867,42.667 93.867,93.867 76.8,93.867 76.8,68.267 
		59.733,68.267 59.733,93.867 42.667,93.867 42.667,110.933 196.267,110.933 	"/>
	<rect x="384" y="179.2" style="fill:#004559;" width="85.333" height="17.067"/>
	<rect x="384" y="213.333" style="fill:#004559;" width="85.333" height="17.067"/>
	<rect x="384" y="247.467" style="fill:#004559;" width="85.333" height="17.067"/>
	<path style="fill:#004559;" d="M302.66,59.733h47.206V42.667h-51.2c-2.534,0-4.932,1.118-6.554,3.063l-42.667,51.2l13.107,10.94
		L302.66,59.733z"/>
	<rect x="384" y="42.667" style="fill:#004559;" width="17.067" height="17.067"/>
	<rect x="418.133" y="42.667" style="fill:#004559;" width="17.067" height="17.067"/>
	<rect x="384" y="76.8" style="fill:#004559;" width="85.333" height="17.067"/>
	<rect x="384" y="110.933" style="fill:#004559;" width="85.333" height="17.067"/>
</g>
<g>
</g>
<g>
</g>
<g>
</g>
<g>
</g>
<g>
</g>
<g>
</g>
<g>
</g>
<g>
</g>
<g>
</g>
<g>
</g>
<g>
</g>
<g>
</g>
<g>
</g>
<g>
</g>
<g>
</g>
</svg>
