<?xml version="1.0" encoding="iso-8859-1"?>
<!-- Generator: Adobe Illustrator 19.0.0, SVG Export Plug-In . SVG Version: 6.00 Build 0)  -->
<svg version="1.1" id="Capa_1" xmlns="http://www.w3.org/2000/svg" xmlns:xlink="http://www.w3.org/1999/xlink" x="0px" y="0px"
	 viewBox="0 0 512 512" style="enable-background:new 0 0 512 512;" xml:space="preserve">
<path style="fill:#006684;" d="M128,349.867h256c14.14,0,25.6,11.46,25.6,25.6v51.2c0,14.14-11.46,25.6-25.6,25.6H128
	c-14.14,0-25.6-11.46-25.6-25.6v-51.2C102.4,361.327,113.86,349.867,128,349.867z"/>
<g>
	<path style="fill:#FFA753;" d="M153.6,384L153.6,384c9.429,0,17.067,7.637,17.067,17.067l0,0c0,9.429-7.637,17.067-17.067,17.067
		l0,0c-9.429,0-17.067-7.637-17.067-17.067l0,0C136.533,391.637,144.171,384,153.6,384z"/>
	<path style="fill:#FFA753;" d="M358.4,384L358.4,384c9.429,0,17.067,7.637,17.067,17.067l0,0c0,9.429-7.637,17.067-17.067,17.067
		l0,0c-9.429,0-17.067-7.637-17.067-17.067l0,0C341.333,391.637,348.971,384,358.4,384z"/>
</g>
<polygon style="fill:#89CEEA;" points="358.4,349.867 153.6,349.867 179.2,213.333 332.8,213.333 "/>
<rect x="196.267" y="375.467" style="fill:#B3B3B3;" width="119.467" height="51.2"/>
<g>
	<polygon style="fill:#FFFFFF;" points="230.4,213.333 204.8,349.867 238.933,349.867 264.533,213.333 	"/>
	<polygon style="fill:#FFFFFF;" points="281.6,213.333 256,349.867 273.067,349.867 298.667,213.333 	"/>
</g>
<g>
	<rect y="213.333" style="fill:#89CEEA;" width="68.267" height="238.933"/>
	<rect x="443.733" y="213.333" style="fill:#89CEEA;" width="68.267" height="238.933"/>
	<rect x="136.533" y="85.333" style="fill:#89CEEA;" width="238.933" height="68.267"/>
</g>
<rect x="76.8" y="8.533" style="fill:#006684;" width="358.4" height="34.133"/>
<path style="fill:#999999;" d="M128,452.267h51.2l0,0V486.4c0,9.429-7.637,17.067-17.067,17.067h-17.067
	c-9.429,0-17.067-7.637-17.067-17.067V452.267L128,452.267z"/>
<rect x="128" y="452.267" style="fill:#666666;" width="51.2" height="17.067"/>
<path style="fill:#999999;" d="M332.8,452.267H384l0,0V486.4c0,9.429-7.637,17.067-17.067,17.067h-17.067
	c-9.429,0-17.067-7.637-17.067-17.067V452.267L332.8,452.267z"/>
<rect x="332.8" y="452.267" style="fill:#666666;" width="51.2" height="17.067"/>
<g>
	<polygon style="fill:#004559;" points="0,460.8 25.6,460.8 25.6,477.867 42.667,477.867 42.667,460.8 68.267,460.8 68.267,443.733 
		0,443.733 	"/>
	<polygon style="fill:#004559;" points="170.667,85.333 153.6,85.333 170.667,153.6 187.733,153.6 	"/>
	<polygon style="fill:#004559;" points="204.8,85.333 187.733,85.333 204.8,153.6 221.867,153.6 	"/>
	<polygon style="fill:#004559;" points="238.933,85.333 221.867,85.333 238.933,153.6 256,153.6 	"/>
	<polygon style="fill:#004559;" points="273.067,85.333 256,85.333 273.067,153.6 290.133,153.6 	"/>
	<polygon style="fill:#004559;" points="307.2,85.333 290.133,85.333 307.2,153.6 324.267,153.6 	"/>
	<polygon style="fill:#004559;" points="358.4,153.6 341.333,85.333 324.267,85.333 341.333,153.6 	"/>
	<polygon style="fill:#004559;" points="0,264.533 68.267,247.467 68.267,230.4 0,247.467 	"/>
	<polygon style="fill:#004559;" points="0,298.667 68.267,281.6 68.267,264.533 0,281.6 	"/>
	<polygon style="fill:#004559;" points="0,332.8 68.267,315.733 68.267,298.667 0,315.733 	"/>
	<polygon style="fill:#004559;" points="0,366.933 68.267,349.867 68.267,332.8 0,349.867 	"/>
	<polygon style="fill:#004559;" points="0,401.067 68.267,384 68.267,366.933 0,384 	"/>
	<polygon style="fill:#004559;" points="0,435.2 68.267,418.133 68.267,401.067 0,418.133 	"/>
	<polygon style="fill:#004559;" points="443.733,460.8 469.333,460.8 469.333,477.867 486.4,477.867 486.4,460.8 512,460.8 
		512,443.733 443.733,443.733 	"/>
	<polygon style="fill:#004559;" points="443.733,247.467 512,264.533 512,247.467 443.733,230.4 	"/>
	<polygon style="fill:#004559;" points="443.733,281.6 512,298.667 512,281.6 443.733,264.533 	"/>
	<polygon style="fill:#004559;" points="443.733,315.733 512,332.8 512,315.733 443.733,298.667 	"/>
	<polygon style="fill:#004559;" points="443.733,349.867 512,366.933 512,349.867 443.733,332.8 	"/>
	<polygon style="fill:#004559;" points="443.733,384 512,401.067 512,384 443.733,366.933 	"/>
	<polygon style="fill:#004559;" points="443.733,418.133 512,435.2 512,418.133 443.733,401.067 	"/>
	<path style="fill:#004559;" d="M486.4,25.6c0-4.71-3.823-8.533-8.533-8.533h-34.133V8.533c0-4.71-3.823-8.533-8.533-8.533H76.8
		c-4.71,0-8.533,3.823-8.533,8.533v8.533H34.133c-4.71,0-8.533,3.823-8.533,8.533v179.2H0v17.067h68.267V204.8h-25.6V34.133h25.6
		v8.533c0,4.71,3.823,8.533,8.533,8.533h17.067v68.267c0,4.71,3.823,8.533,8.533,8.533H128v25.6h17.067V85.333H128v25.6h-17.067
		V51.2h290.133v59.733H384v-25.6h-17.067V153.6H384V128h25.6c4.71,0,8.533-3.823,8.533-8.533V51.2H435.2
		c4.71,0,8.533-3.823,8.533-8.533v-8.533h25.6V204.8h-25.6v17.067H512V204.8h-25.6V25.6z M426.667,34.133H85.333V17.067h341.333
		V34.133z"/>
	<path style="fill:#004559;" d="M392.533,342.545v-18.278H409.6V307.2H384c-4.71,0-8.533,3.823-8.533,8.533v25.6h-9.984
		L341.18,211.755c-0.759-4.028-4.275-6.955-8.38-6.955H179.2c-4.105,0-7.62,2.927-8.38,6.955l-24.303,129.579h-9.984v-25.6
		c0-4.71-3.823-8.533-8.533-8.533h-25.6v17.067h17.067v18.278c-15.027,3.883-25.54,17.408-25.6,32.922v51.2
		c0.06,15.514,10.573,29.039,25.6,32.922V486.4c0,14.14,11.46,25.6,25.6,25.6h17.067c14.14,0,25.6-11.46,25.6-25.6v-25.6h136.533
		v25.6c0,14.14,11.46,25.6,25.6,25.6h17.067c14.14,0,25.6-11.46,25.6-25.6v-26.812c15.027-3.883,25.54-17.408,25.6-32.922v-51.2
		C418.074,359.953,407.561,346.428,392.533,342.545z M186.283,221.867h139.435l22.443,119.467H163.883L186.283,221.867z
		 M170.667,486.4c0,4.71-3.823,8.533-8.533,8.533h-17.067c-4.71,0-8.533-3.823-8.533-8.533v-25.6h34.133V486.4z M375.467,486.4
		c0,4.71-3.823,8.533-8.533,8.533h-17.067c-4.71,0-8.533-3.823-8.533-8.533v-25.6h34.133V486.4z M401.067,426.667
		c0,9.429-7.637,17.067-17.067,17.067H128c-9.429,0-17.067-7.637-17.067-17.067v-51.2c0-9.429,7.637-17.067,17.067-17.067h256
		c9.429,0,17.067,7.637,17.067,17.067V426.667z"/>
	<rect x="196.267" y="409.6" style="fill:#004559;" width="119.467" height="17.067"/>
	<rect x="196.267" y="375.467" style="fill:#004559;" width="119.467" height="17.067"/>
	<path style="fill:#004559;" d="M153.6,375.467c-14.14,0-25.6,11.46-25.6,25.6s11.46,25.6,25.6,25.6c14.14,0,25.6-11.46,25.6-25.6
		S167.74,375.467,153.6,375.467z M153.6,409.6c-4.71,0-8.533-3.823-8.533-8.533s3.823-8.533,8.533-8.533s8.533,3.823,8.533,8.533
		S158.31,409.6,153.6,409.6z"/>
	<path style="fill:#004559;" d="M358.4,375.467c-14.14,0-25.6,11.46-25.6,25.6s11.46,25.6,25.6,25.6s25.6-11.46,25.6-25.6
		S372.54,375.467,358.4,375.467z M358.4,409.6c-4.71,0-8.533-3.823-8.533-8.533s3.823-8.533,8.533-8.533s8.533,3.823,8.533,8.533
		S363.11,409.6,358.4,409.6z"/>
</g>
<g>
</g>
<g>
</g>
<g>
</g>
<g>
</g>
<g>
</g>
<g>
</g>
<g>
</g>
<g>
</g>
<g>
</g>
<g>
</g>
<g>
</g>
<g>
</g>
<g>
</g>
<g>
</g>
<g>
</g>
</svg>
