<?xml version="1.0" encoding="iso-8859-1"?>
<!-- Generator: Adobe Illustrator 19.0.0, SVG Export Plug-In . SVG Version: 6.00 Build 0)  -->
<svg version="1.1" id="Capa_1" xmlns="http://www.w3.org/2000/svg" xmlns:xlink="http://www.w3.org/1999/xlink" x="0px" y="0px"
	 viewBox="0 0 512 512" style="enable-background:new 0 0 512 512;" xml:space="preserve">
<path style="fill:#006684;" d="M230.4,264.533H42.667c-18.85,0-34.133,15.283-34.133,34.133v68.267
	c0,18.85,15.283,34.133,34.133,34.133H230.4V264.533z"/>
<circle style="fill:#FAD87C;" cx="76.8" cy="332.8" r="34.133"/>
<g style="opacity:0.5;enable-background:new    ;">
	<path style="fill:#E97424;" d="M98.133,345.6c-18.645,0.205-33.92-14.737-34.133-33.382c-0.043-3.959,0.606-7.893,1.929-11.622
		c-17.835,5.956-27.469,25.242-21.513,43.076c5.956,17.835,25.242,27.469,43.076,21.513c10.155-3.388,18.125-11.358,21.513-21.513
		C105.506,344.9,101.837,345.549,98.133,345.6z"/>
</g>
<g>
	<rect x="145.067" y="298.667" style="fill:#E6E6E6;" width="85.333" height="34.133"/>
	<rect x="145.067" y="332.8" style="fill:#E6E6E6;" width="85.333" height="34.133"/>
</g>
<g>
	<rect x="145.067" y="298.667" style="fill:#CCCCCC;" width="85.333" height="17.067"/>
	<rect x="145.067" y="332.8" style="fill:#CCCCCC;" width="85.333" height="17.067"/>
</g>
<rect x="221.867" y="34.133" style="fill:#E6E6E6;" width="281.6" height="469.333"/>
<rect x="281.6" y="8.533" style="fill:#006684;" width="170.667" height="51.2"/>
<g>
	<rect x="264.533" y="102.4" style="fill:#FFA753;" width="42.667" height="42.667"/>
	<rect x="264.533" y="204.8" style="fill:#FFA753;" width="42.667" height="42.667"/>
	<rect x="264.533" y="307.2" style="fill:#FFA753;" width="42.667" height="42.667"/>
	<rect x="264.533" y="409.6" style="fill:#FFA753;" width="42.667" height="42.667"/>
</g>
<polygon style="fill:#89CEEA;" points="221.867,264.533 119.467,264.533 145.067,110.933 221.867,110.933 "/>
<polygon style="fill:#FFFFFF;" points="170.667,110.933 145.067,264.533 179.2,264.533 204.8,110.933 "/>
<polygon style="fill:#2996BF;" points="119.467,264.533 76.8,264.533 110.933,68.267 221.867,68.267 221.867,110.933 
	145.067,110.933 "/>
<rect x="8.533" y="196.267" style="fill:#006684;" width="42.667" height="34.133"/>
<rect x="42.667" y="401.067" style="fill:#999999;" width="136.533" height="102.4"/>
<rect x="42.667" y="401.067" style="fill:#666666;" width="136.533" height="25.6"/>
<g>
	<path style="fill:#004559;" d="M503.467,25.6H460.8V8.533c0-4.71-3.823-8.533-8.533-8.533H281.6c-4.71,0-8.533,3.823-8.533,8.533
		V25.6h-51.2c-4.71,0-8.533,3.823-8.533,8.533v25.6h-102.4c-4.147,0-7.697,2.987-8.405,7.074L69.623,256h-9.89v-59.733
		c0-4.71-3.823-8.533-8.533-8.533H8.533c-4.71,0-8.533,3.823-8.533,8.533V230.4c0,4.71,3.823,8.533,8.533,8.533h34.133V256
		C19.115,256.026,0.026,275.115,0,298.667v68.267c0.026,20.267,14.285,37.734,34.133,41.813v94.72c0,4.71,3.823,8.533,8.533,8.533
		H179.2c4.71,0,8.533-3.823,8.533-8.533V409.6h25.6v93.867c0,4.71,3.823,8.533,8.533,8.533h281.6c4.71,0,8.533-3.823,8.533-8.533
		V34.133C512,29.423,508.177,25.6,503.467,25.6z M17.067,204.8h25.6v17.067h-25.6V204.8z M118.11,76.8h95.223v25.6h-68.267
		c-4.164,0-7.723,3.012-8.414,7.125L112.239,256H86.946L118.11,76.8z M213.333,119.467V256h-83.797l22.758-136.533H213.333z
		 M170.667,494.933H51.2V409.6h17.067v34.133h17.067V409.6H102.4v34.133h17.067V409.6h17.067v34.133H153.6V409.6h17.067V494.933z
		 M42.667,392.533c-14.14,0-25.6-11.46-25.6-25.6v-68.267c0-14.14,11.46-25.6,25.6-25.6h170.667v17.067h-68.267
		c-4.71,0-8.533,3.823-8.533,8.533v68.267c0,4.71,3.823,8.533,8.533,8.533h68.267v17.067H42.667z M153.6,341.333h59.733V358.4H153.6
		V341.333z M153.6,324.267V307.2h59.733v17.067H153.6z M290.133,17.067h153.6V51.2h-153.6V17.067z M494.933,494.933H230.4V42.667
		h42.667v17.067c0,4.71,3.823,8.533,8.533,8.533h170.667c4.71,0,8.533-3.823,8.533-8.533V42.667h34.133V494.933z"/>
	<path style="fill:#004559;" d="M76.8,290.133c-23.561,0-42.667,19.106-42.667,42.667s19.106,42.667,42.667,42.667
		s42.667-19.106,42.667-42.667C119.441,309.248,100.352,290.159,76.8,290.133z M76.8,358.4c-14.14,0-25.6-11.46-25.6-25.6
		s11.46-25.6,25.6-25.6s25.6,11.46,25.6,25.6S90.94,358.4,76.8,358.4z"/>
	<rect x="136.533" y="460.8" style="fill:#004559;" width="17.067" height="17.067"/>
	<rect x="102.4" y="460.8" style="fill:#004559;" width="17.067" height="17.067"/>
	<rect x="68.267" y="460.8" style="fill:#004559;" width="17.067" height="17.067"/>
	<path style="fill:#004559;" d="M307.2,93.867h-42.667c-4.71,0-8.533,3.823-8.533,8.533v42.667c0,4.71,3.823,8.533,8.533,8.533
		H307.2c4.71,0,8.533-3.823,8.533-8.533V102.4C315.733,97.69,311.91,93.867,307.2,93.867z M298.667,136.533h-25.6v-25.6h25.6
		V136.533z"/>
	<rect x="341.333" y="93.867" style="fill:#004559;" width="128" height="17.067"/>
	<rect x="341.333" y="128" style="fill:#004559;" width="93.867" height="17.067"/>
	<path style="fill:#004559;" d="M307.2,196.267h-42.667c-4.71,0-8.533,3.823-8.533,8.533v42.667c0,4.71,3.823,8.533,8.533,8.533
		H307.2c4.71,0,8.533-3.823,8.533-8.533V204.8C315.733,200.09,311.91,196.267,307.2,196.267z M298.667,238.933h-25.6v-25.6h25.6
		V238.933z"/>
	<rect x="341.333" y="196.267" style="fill:#004559;" width="128" height="17.067"/>
	<rect x="341.333" y="230.4" style="fill:#004559;" width="93.867" height="17.067"/>
	<path style="fill:#004559;" d="M307.2,298.667h-42.667c-4.71,0-8.533,3.823-8.533,8.533v42.667c0,4.71,3.823,8.533,8.533,8.533
		H307.2c4.71,0,8.533-3.823,8.533-8.533V307.2C315.733,302.49,311.91,298.667,307.2,298.667z M298.667,341.333h-25.6v-25.6h25.6
		V341.333z"/>
	<rect x="341.333" y="298.667" style="fill:#004559;" width="128" height="17.067"/>
	<rect x="341.333" y="332.8" style="fill:#004559;" width="93.867" height="17.067"/>
	<path style="fill:#004559;" d="M307.2,401.067h-42.667c-4.71,0-8.533,3.823-8.533,8.533v42.667c0,4.71,3.823,8.533,8.533,8.533
		H307.2c4.71,0,8.533-3.823,8.533-8.533V409.6C315.733,404.89,311.91,401.067,307.2,401.067z M298.667,443.733h-25.6v-25.6h25.6
		V443.733z"/>
	<rect x="341.333" y="401.067" style="fill:#004559;" width="128" height="17.067"/>
	<rect x="341.333" y="435.2" style="fill:#004559;" width="93.867" height="17.067"/>
</g>
<g>
</g>
<g>
</g>
<g>
</g>
<g>
</g>
<g>
</g>
<g>
</g>
<g>
</g>
<g>
</g>
<g>
</g>
<g>
</g>
<g>
</g>
<g>
</g>
<g>
</g>
<g>
</g>
<g>
</g>
</svg>
