<?xml version="1.0" encoding="iso-8859-1"?>
<!-- Generator: Adobe Illustrator 19.0.0, SVG Export Plug-In . SVG Version: 6.00 Build 0)  -->
<svg version="1.1" id="Capa_1" xmlns="http://www.w3.org/2000/svg" xmlns:xlink="http://www.w3.org/1999/xlink" x="0px" y="0px"
	 viewBox="0 0 512 512" style="enable-background:new 0 0 512 512;" xml:space="preserve">
<path style="fill:#006684;" d="M8.533,0h494.933l0,0v42.667c0,23.561-19.106,42.667-42.667,42.667H51.2
	c-23.561,0-42.667-19.106-42.667-42.667V0L8.533,0z"/>
<rect x="59.733" y="85.333" style="fill:#999999;" width="102.4" height="76.8"/>
<rect x="59.733" y="85.333" style="fill:#666666;" width="102.4" height="25.6"/>
<rect x="349.867" y="85.333" style="fill:#999999;" width="102.4" height="76.8"/>
<rect x="349.867" y="85.333" style="fill:#666666;" width="102.4" height="25.6"/>
<circle style="fill:#FAD87C;" cx="64" cy="29.867" r="21.333"/>
<g style="opacity:0.5;enable-background:new    ;">
	<path style="fill:#E97424;" d="M77.329,37.871c-11.648,0.154-21.214-9.156-21.367-20.804c-0.034-2.492,0.375-4.975,1.212-7.33
		c-11.145,3.746-17.135,15.812-13.389,26.957c3.746,11.145,15.821,17.135,26.957,13.389c6.315-2.125,11.264-7.083,13.389-13.389
		C81.946,37.453,79.642,37.854,77.329,37.871z"/>
</g>
<circle style="fill:#FAD87C;" cx="448" cy="29.867" r="21.333"/>
<g style="opacity:0.5;enable-background:new    ;">
	<path style="fill:#E97424;" d="M461.329,37.871c-11.648,0.145-21.197-9.182-21.342-20.83c-0.034-2.5,0.384-4.983,1.22-7.33
		c-11.145,3.729-17.152,15.795-13.423,26.94c3.729,11.145,15.795,17.152,26.94,13.423c6.315-2.116,11.281-7.066,13.406-13.38
		C465.946,37.453,463.642,37.854,461.329,37.871z"/>
</g>
<rect x="119.467" y="8.533" style="fill:#E6E6E6;" width="273.067" height="42.667"/>
<rect x="119.467" y="8.533" style="fill:#CCCCCC;" width="273.067" height="21.333"/>
<g>
	<rect x="25.6" y="196.267" style="fill:#808080;" width="68.267" height="102.4"/>
	<rect x="25.6" y="366.933" style="fill:#808080;" width="68.267" height="102.4"/>
</g>
<rect x="42.667" y="298.667" style="fill:#E6E6E6;" width="34.133" height="68.267"/>
<g>
	<rect x="418.133" y="196.267" style="fill:#808080;" width="68.267" height="102.4"/>
	<rect x="418.133" y="366.933" style="fill:#808080;" width="68.267" height="102.4"/>
</g>
<rect x="435.2" y="298.667" style="fill:#E6E6E6;" width="34.133" height="68.267"/>
<g>
	<rect x="8.533" y="162.133" style="fill:#006684;" width="494.933" height="34.133"/>
	<rect x="8.533" y="469.333" style="fill:#006684;" width="494.933" height="34.133"/>
</g>
<g>
	<path style="fill:#004559;" d="M93.867,29.867C93.867,13.372,80.495,0,64,0S34.133,13.372,34.133,29.867S47.505,59.733,64,59.733
		S93.867,46.362,93.867,29.867z M51.2,29.867c0-7.066,5.734-12.8,12.8-12.8c7.066,0,12.8,5.734,12.8,12.8s-5.734,12.8-12.8,12.8
		C56.934,42.667,51.2,36.932,51.2,29.867z"/>
	<path style="fill:#004559;" d="M477.867,29.867C477.867,13.372,464.495,0,448,0c-16.495,0-29.867,13.372-29.867,29.867
		S431.505,59.733,448,59.733C464.495,59.733,477.867,46.362,477.867,29.867z M435.2,29.867c0-7.066,5.734-12.8,12.8-12.8
		c7.066,0,12.8,5.734,12.8,12.8s-5.734,12.8-12.8,12.8C440.934,42.667,435.2,36.932,435.2,29.867z"/>
	<rect x="51.2" y="426.667" style="fill:#004559;" width="17.067" height="17.067"/>
	<rect x="51.2" y="392.533" style="fill:#004559;" width="17.067" height="17.067"/>
	<rect x="51.2" y="256" style="fill:#004559;" width="17.067" height="17.067"/>
	<rect x="51.2" y="221.867" style="fill:#004559;" width="17.067" height="17.067"/>
	<rect x="443.733" y="426.667" style="fill:#004559;" width="17.067" height="17.067"/>
	<rect x="443.733" y="392.533" style="fill:#004559;" width="17.067" height="17.067"/>
	<rect x="443.733" y="256" style="fill:#004559;" width="17.067" height="17.067"/>
	<rect x="443.733" y="221.867" style="fill:#004559;" width="17.067" height="17.067"/>
	<path style="fill:#004559;" d="M494.933,42.667c0,18.85-15.283,34.133-34.133,34.133H51.2c-18.85,0-34.133-15.283-34.133-34.133V0
		H0v42.667c0.026,28.262,22.938,51.174,51.2,51.2V153.6H8.533c-4.71,0-8.533,3.823-8.533,8.533v34.133
		c0,4.71,3.823,8.533,8.533,8.533h8.533v93.867c0,4.71,3.823,8.533,8.533,8.533h8.533v51.2H25.6c-4.71,0-8.533,3.823-8.533,8.533
		V460.8H8.533c-4.71,0-8.533,3.823-8.533,8.533v34.133C0,508.177,3.823,512,8.533,512h494.933c4.71,0,8.533-3.823,8.533-8.533
		v-34.133c0-4.71-3.823-8.533-8.533-8.533h-8.533v-93.867c0-4.71-3.823-8.533-8.533-8.533h-8.533v-51.2h8.533
		c4.71,0,8.533-3.823,8.533-8.533V204.8h8.533c4.71,0,8.533-3.823,8.533-8.533v-34.133c0-4.71-3.823-8.533-8.533-8.533H460.8V93.867
		c28.262-0.026,51.174-22.938,51.2-51.2V0h-17.067V42.667z M170.667,153.6V93.867h170.667V153.6H170.667z M68.267,93.867h17.067
		v42.667H102.4V93.867h17.067v25.6h17.067v-25.6H153.6V153.6H68.267V93.867z M409.6,204.8v11.793l-153.6,76.8l-153.6-76.8V204.8
		H409.6z M418.133,358.4c-4.71,0-8.533,3.823-8.533,8.533v3.26l-83.319-41.66l83.319-41.66v11.793c0,4.71,3.823,8.533,8.533,8.533
		h8.533v51.2H418.133z M102.4,460.8v-20.326l153.6-76.8l153.6,76.8V460.8H102.4z M93.867,307.2c4.71,0,8.533-3.823,8.533-8.533
		v-11.793l83.319,41.66l-83.319,41.66v-3.26c0-4.71-3.823-8.533-8.533-8.533h-8.533v-51.2H93.867z M409.6,267.793l-102.4,51.2
		l-32.119-16.06l134.52-67.26V267.793z M288.119,328.533L256,344.593l-32.119-16.06L256,312.474L288.119,328.533z M409.6,421.393
		l-134.52-67.26l32.119-16.06l102.4,51.2V421.393z M102.4,389.274l102.4-51.2l32.119,16.06L102.4,421.393V389.274z M204.8,318.993
		l-102.4-51.2v-32.119l134.519,67.26L204.8,318.993z M85.333,290.133h-51.2V204.8h51.2V290.133z M51.2,307.2h17.067v51.2H51.2V307.2
		z M34.133,375.467h51.2V460.8h-51.2V375.467z M494.933,494.933H17.067v-17.067h477.867V494.933z M426.667,460.8v-85.333h51.2V460.8
		H426.667z M460.8,358.4h-17.067v-51.2H460.8V358.4z M477.867,290.133h-51.2V204.8h51.2V290.133z M494.933,187.733H17.067v-17.067
		h477.867V187.733z M443.733,153.6H358.4V93.867h17.067v25.6h17.067v-25.6H409.6v42.667h17.067V93.867h17.067V153.6z"/>
	<path style="fill:#004559;" d="M392.533,59.733c4.71,0,8.533-3.823,8.533-8.533V8.533c0-4.71-3.823-8.533-8.533-8.533H119.467
		c-4.71,0-8.533,3.823-8.533,8.533V51.2c0,4.71,3.823,8.533,8.533,8.533H392.533z M128,17.067h256v25.6H128V17.067z"/>
</g>
<g>
</g>
<g>
</g>
<g>
</g>
<g>
</g>
<g>
</g>
<g>
</g>
<g>
</g>
<g>
</g>
<g>
</g>
<g>
</g>
<g>
</g>
<g>
</g>
<g>
</g>
<g>
</g>
<g>
</g>
</svg>
