<?xml version="1.0" encoding="iso-8859-1"?>
<!-- Generator: Adobe Illustrator 19.0.0, SVG Export Plug-In . SVG Version: 6.00 Build 0)  -->
<svg version="1.1" id="Capa_1" xmlns="http://www.w3.org/2000/svg" xmlns:xlink="http://www.w3.org/1999/xlink" x="0px" y="0px"
	 viewBox="0 0 512 512" style="enable-background:new 0 0 512 512;" xml:space="preserve">
<g>
	<polygon style="fill:#2996BF;" points="76.8,264.495 435.2,264.495 401.067,76.762 110.933,76.762 	"/>
	<polygon style="fill:#2996BF;" points="76.8,264.495 110.933,76.762 401.067,76.762 435.2,264.495 	"/>
</g>
<polygon style="fill:#89CEEA;" points="119.467,264.495 145.067,110.895 366.933,110.895 392.533,264.495 "/>
<path style="fill:#006684;" d="M42.667,264.495h426.667c18.85,0,34.133,15.283,34.133,34.133v68.267
	c0,18.85-15.283,34.133-34.133,34.133H42.667c-18.85,0-34.133-15.283-34.133-34.133v-68.267
	C8.533,279.77,23.817,264.495,42.667,264.495z"/>
<rect x="366.933" y="401.028" style="fill:#999999;" width="102.4" height="102.4"/>
<rect x="366.933" y="401.028" style="fill:#666666;" width="102.4" height="25.6"/>
<rect x="42.667" y="401.028" style="fill:#999999;" width="102.4" height="102.4"/>
<rect x="42.667" y="401.028" style="fill:#666666;" width="102.4" height="25.6"/>
<circle style="fill:#FAD87C;" cx="435.2" cy="332.762" r="34.133"/>
<g style="opacity:0.5;enable-background:new    ;">
	<path style="fill:#E97424;" d="M456.533,345.562c-18.645,0.205-33.92-14.737-34.133-33.382c-0.043-3.959,0.606-7.893,1.929-11.622
		c-17.835,5.956-27.469,25.242-21.513,43.076c5.956,17.835,25.242,27.469,43.076,21.513c10.155-3.388,18.125-11.358,21.513-21.513
		C463.906,344.862,460.237,345.51,456.533,345.562z"/>
</g>
<circle style="fill:#FAD87C;" cx="76.8" cy="332.762" r="34.133"/>
<g style="opacity:0.5;enable-background:new    ;">
	<path style="fill:#E97424;" d="M98.133,345.562c-18.645,0.205-33.92-14.737-34.133-33.382c-0.043-3.959,0.606-7.893,1.929-11.622
		c-17.835,5.956-27.469,25.242-21.513,43.076c5.956,17.835,25.242,27.469,43.076,21.513c10.155-3.388,18.125-11.358,21.513-21.513
		C105.506,344.862,101.837,345.51,98.133,345.562z"/>
</g>
<g>
	<rect x="460.8" y="196.228" style="fill:#006684;" width="42.667" height="34.133"/>
	<rect x="8.533" y="196.228" style="fill:#006684;" width="42.667" height="34.133"/>
</g>
<path style="fill:#E3646A;" d="M298.052,366.895h-84.105c-21.205,0.017-38.417-17.161-38.434-38.366
	c0-1.536,0.094-3.081,0.273-4.608l16.836-140.297c2.065-17.169,16.64-30.08,33.929-30.063h58.88
	c17.28,0,31.838,12.911,33.894,30.063l16.887,140.297c2.526,21.06-12.493,40.175-33.553,42.701
	C301.133,366.801,299.588,366.895,298.052,366.895z"/>
<path style="fill:#004559;" d="M281.6,290.095h-17.067v-51.2c0-4.702-3.831-8.533-8.533-8.533c-4.702,0-8.533,3.831-8.533,8.533
	v51.2H230.4v-51.2c0-14.114,11.486-25.6,25.6-25.6c14.114,0,25.6,11.486,25.6,25.6V290.095z"/>
<path style="fill:#FFFFFF;" d="M238.933,264.495h34.133c9.429,0,17.067,7.637,17.067,17.067v34.133
	c0,9.429-7.637,17.067-17.067,17.067h-34.133c-9.429,0-17.067-7.637-17.067-17.067v-34.133
	C221.867,272.132,229.504,264.495,238.933,264.495z"/>
<g>
	<path style="fill:#004559;" d="M34.133,332.762c0,23.561,19.106,42.667,42.667,42.667s42.667-19.106,42.667-42.667
		s-19.106-42.667-42.667-42.667C53.248,290.121,34.159,309.21,34.133,332.762z M102.4,332.762c0,14.14-11.46,25.6-25.6,25.6
		s-25.6-11.46-25.6-25.6s11.46-25.6,25.6-25.6S102.4,318.622,102.4,332.762z"/>
	<rect x="102.4" y="460.762" style="fill:#004559;" width="17.067" height="17.067"/>
	<rect x="68.267" y="460.762" style="fill:#004559;" width="17.067" height="17.067"/>
	<path style="fill:#004559;" d="M167.356,322.906c-3.089,25.737,15.275,49.101,41.011,52.19c1.852,0.222,3.721,0.333,5.581,0.333
		h84.105c25.924,0,46.933-21.018,46.925-46.942c0-1.869-0.111-3.729-0.333-5.581l-16.828-140.331
		c-2.594-21.436-20.779-37.555-42.368-37.547h-58.88c-21.589-0.009-39.774,16.111-42.368,37.547L167.356,322.906z M184.294,324.937
		l16.836-140.288c1.545-12.868,12.459-22.554,25.421-22.554h58.88c12.962,0,23.876,9.685,25.421,22.554l16.828,140.288
		c1.963,16.375-9.719,31.249-26.095,33.212c-1.169,0.137-2.355,0.213-3.533,0.213h-84.105
		c-16.495-0.017-29.858-13.397-29.841-29.892c0-1.178,0.068-2.364,0.213-3.533H184.294z"/>
	<rect x="247.467" y="179.162" style="fill:#004559;" width="17.067" height="17.067"/>
	<path style="fill:#004559;" d="M238.933,341.295h34.133c14.14,0,25.6-11.46,25.6-25.6v-34.133
		c-0.043-10.812-6.878-20.429-17.067-24.03v-18.637c0-14.14-11.46-25.6-25.6-25.6c-14.14,0-25.6,11.46-25.6,25.6v18.637
		c-10.189,3.601-17.024,13.218-17.067,24.03v34.133C213.333,329.826,224.794,341.295,238.933,341.295z M256,230.362
		c4.71,0,8.533,3.823,8.533,8.533v17.067h-17.067v-17.067C247.467,234.176,251.29,230.362,256,230.362z M230.4,281.562
		c0-4.71,3.823-8.533,8.533-8.533h34.133c4.71,0,8.533,3.823,8.533,8.533v34.133c0,4.71-3.823,8.533-8.533,8.533h-34.133
		c-4.71,0-8.533-3.823-8.533-8.533V281.562z"/>
	<rect x="247.467" y="290.095" style="fill:#004559;" width="17.067" height="17.067"/>
	<path style="fill:#004559;" d="M477.867,332.762c0-23.561-19.106-42.667-42.667-42.667s-42.667,19.106-42.667,42.667
		s19.106,42.667,42.667,42.667C458.752,375.394,477.841,356.314,477.867,332.762z M409.6,332.762c0-14.14,11.46-25.6,25.6-25.6
		c14.14,0,25.6,11.46,25.6,25.6s-11.46,25.6-25.6,25.6C421.06,358.362,409.6,346.893,409.6,332.762z"/>
	<rect x="392.533" y="460.762" style="fill:#004559;" width="17.067" height="17.067"/>
	<rect x="426.667" y="460.762" style="fill:#004559;" width="17.067" height="17.067"/>
	<path style="fill:#004559;" d="M503.467,187.695H460.8c-4.71,0-8.533,3.823-8.533,8.533v59.733h-9.941L409.464,75.234
		l-16.794,3.055l32.29,177.673h-25.199l-24.414-146.466l-16.828,2.799l23.945,143.667h-15.531v17.067h102.4
		c14.14,0,25.6,11.46,25.6,25.6v68.267c0,14.14-11.46,25.6-25.6,25.6H42.667c-14.14,0-25.6-11.46-25.6-25.6v-68.267
		c0-14.14,11.46-25.6,25.6-25.6h102.4v-17.067h-15.531l23.945-143.667l-16.828-2.799l-24.414,146.466H87.04l32.307-177.673
		l-16.794-3.055L69.675,255.962h-9.941v-59.733c0-4.71-3.823-8.533-8.533-8.533H8.533c-4.71,0-8.533,3.823-8.533,8.533v34.133
		c0,4.71,3.823,8.533,8.533,8.533h34.133v17.067C19.115,255.987,0.026,275.076,0,298.628v68.267
		c0.026,20.267,14.285,37.734,34.133,41.813v94.72c0,4.71,3.823,8.533,8.533,8.533h102.4c4.71,0,8.533-3.823,8.533-8.533v-93.867
		h204.8v93.867c0,4.71,3.823,8.533,8.533,8.533h102.4c4.71,0,8.533-3.823,8.533-8.533v-94.72
		c19.849-4.079,34.108-21.547,34.133-41.813v-68.267c-0.026-23.552-19.115-42.641-42.667-42.667v-17.067h34.133
		c4.71,0,8.533-3.823,8.533-8.533v-34.133C512,191.509,508.177,187.695,503.467,187.695z M17.067,204.762h25.6v17.067h-25.6V204.762
		z M136.533,494.895H51.2v-85.333h17.067v34.133h17.067v-34.133H102.4v34.133h17.067v-34.133h17.067V494.895z M375.467,494.895
		v-85.333h17.067v34.133H409.6v-34.133h17.067v34.133h17.067v-34.133H460.8v85.333H375.467z M494.933,221.828h-25.6v-17.067h25.6
		V221.828z"/>
	<path style="fill:#004559;" d="M382.711,52.442c-70.033-69.871-183.407-69.871-253.44,0l12.066,12.066
		c63.369-63.198,165.922-63.198,229.291,0L382.711,52.442z"/>
	<path style="fill:#004559;" d="M310.306,124.855l12.066-12.066c-36.676-36.599-96.068-36.599-132.745,0l12.066,12.066
		C231.706,94.903,280.294,94.903,310.306,124.855z"/>
	<path style="fill:#004559;" d="M256,42.628c-36.233-0.102-70.997,14.302-96.538,39.996l12.058,12.058
		c46.652-46.66,122.291-46.66,168.951-0.009l0.009,0.009l12.066-12.066C326.997,56.922,292.233,42.517,256,42.628z"/>
</g>
<g>
</g>
<g>
</g>
<g>
</g>
<g>
</g>
<g>
</g>
<g>
</g>
<g>
</g>
<g>
</g>
<g>
</g>
<g>
</g>
<g>
</g>
<g>
</g>
<g>
</g>
<g>
</g>
<g>
</g>
</svg>
