<?xml version="1.0" encoding="iso-8859-1"?>
<!-- Generator: Adobe Illustrator 19.0.0, SVG Export Plug-In . SVG Version: 6.00 Build 0)  -->
<svg version="1.1" id="Capa_1" xmlns="http://www.w3.org/2000/svg" xmlns:xlink="http://www.w3.org/1999/xlink" x="0px" y="0px"
	 viewBox="0 0 512 512" style="enable-background:new 0 0 512 512;" xml:space="preserve">
<path style="fill:#006684;" d="M503.467,276.173v-40.346h-22.494c-2.261-9.95-6.204-19.447-11.639-28.083l15.932-15.923
	l-28.527-28.527L440.789,179.2c-8.636-5.444-18.133-9.395-28.083-11.665v-22.468h-40.346v22.494
	c-9.95,2.261-19.447,6.204-28.083,11.639l-15.923-15.932l-28.527,28.527l15.906,15.949c-5.444,8.636-9.395,18.133-11.665,28.083
	H281.6v40.346h22.494c2.261,9.95,6.204,19.447,11.639,28.083l-15.932,15.923l28.527,28.527l15.949-15.906
	c8.636,5.444,18.133,9.395,28.083,11.665v22.468h40.346v-22.494c9.95-2.261,19.447-6.204,28.083-11.639l15.923,15.932l28.527-28.527
	l-15.906-15.949c5.444-8.636,9.395-18.133,11.665-28.083H503.467z M392.533,296.337c-22.281,0-40.337-18.057-40.337-40.337
	c0-22.281,18.057-40.337,40.337-40.337S432.87,233.719,432.87,256S414.814,296.337,392.533,296.337L392.533,296.337z"/>
<path style="fill:#2996BF;" d="M256,139.639V99.294h-22.494c-2.261-9.95-6.204-19.447-11.639-28.083l15.932-15.923l-28.553-28.527
	l-15.923,15.906c-8.636-5.444-18.133-9.395-28.083-11.665V8.533h-40.346v22.494c-9.95,2.261-19.447,6.204-28.083,11.639
	L80.887,26.761L52.361,55.287l15.906,15.923c-5.444,8.636-9.395,18.133-11.665,28.083H34.133v40.346h22.494
	c2.261,9.95,6.204,19.447,11.639,28.083l-15.906,15.923l28.527,28.527l15.923-15.906c8.636,5.444,18.133,9.395,28.083,11.665V230.4
	h40.346v-22.494c9.95-2.261,19.447-6.204,28.083-11.639l15.923,15.932l28.527-28.527l-15.906-15.949
	c5.444-8.636,9.395-18.133,11.665-28.083H256z M145.067,159.804c-22.281,0-40.337-18.057-40.337-40.337s18.057-40.337,40.337-40.337
	s40.337,18.057,40.337,40.337l0,0C185.404,141.747,167.347,159.804,145.067,159.804z"/>
<path style="fill:#89CEEA;" d="M230.4,412.706v-40.346h-22.494c-2.261-9.95-6.204-19.447-11.639-28.083l15.932-15.923
	l-28.527-28.527l-15.949,15.906c-8.636-5.444-18.133-9.395-28.083-11.665V281.6H99.294v22.494
	c-9.95,2.261-19.447,6.204-28.083,11.639l-15.923-15.906l-28.527,28.527l15.906,15.923c-5.444,8.636-9.395,18.133-11.665,28.083
	H8.533v40.346h22.494c2.261,9.95,6.204,19.447,11.639,28.083l-15.906,15.923l28.527,28.527l15.923-15.906
	c8.636,5.444,18.133,9.395,28.083,11.665v22.468h40.346v-22.494c9.95-2.261,19.447-6.204,28.083-11.639l15.923,15.932l28.527-28.527
	l-15.906-15.949c5.444-8.636,9.395-18.133,11.665-28.083H230.4z M119.467,432.87c-22.281,0-40.337-18.057-40.337-40.337
	s18.057-40.337,40.337-40.337s40.337,18.057,40.337,40.337l0,0C159.804,414.814,141.747,432.87,119.467,432.87z"/>
<g>
	<path style="fill:#004559;" d="M503.467,227.294h-15.932c-1.903-6.289-4.429-12.373-7.543-18.159l11.273-11.281
		c3.328-3.328,3.328-8.738,0-12.066l-28.51-28.527c-3.328-3.337-8.73-3.337-12.066-0.009l-0.009,0.009l-11.281,11.281
		c-5.786-3.115-11.87-5.649-18.167-7.543v-15.932c0-4.71-3.823-8.533-8.533-8.533h-40.328c-4.71,0-8.533,3.823-8.533,8.533v15.932
		c-6.298,1.894-12.382,4.429-18.167,7.543l-11.281-11.281c-3.328-3.337-8.73-3.337-12.066-0.009l-0.009,0.009l-28.51,28.527
		c-3.328,3.328-3.328,8.738,0,12.066l11.273,11.281c-3.115,5.786-5.641,11.87-7.543,18.159H281.6c-4.71,0-8.533,3.823-8.533,8.533
		v40.346c0,4.71,3.823,8.533,8.533,8.533h15.932c1.903,6.289,4.429,12.373,7.543,18.159l-11.273,11.281
		c-3.328,3.328-3.328,8.738,0,12.066l28.51,28.527c3.328,3.337,8.73,3.337,12.066,0.009l0.009-0.009l11.281-11.281
		c5.786,3.115,11.87,5.649,18.167,7.543v15.932c0,4.71,3.823,8.533,8.533,8.533h40.328c4.71,0,8.533-3.823,8.533-8.533v-15.932
		c6.298-1.894,12.382-4.429,18.167-7.543l11.281,11.281c3.328,3.337,8.73,3.337,12.066,0.009l0.009-0.009l28.51-28.527
		c3.328-3.328,3.328-8.738,0-12.066l-11.273-11.281c3.115-5.786,5.641-11.87,7.543-18.159h15.932c4.71,0,8.533-3.823,8.533-8.533
		v-40.346C512,231.117,508.177,227.294,503.467,227.294z M494.933,267.639h-13.969c-3.985,0-7.441,2.765-8.32,6.647
		c-2.057,9.011-5.623,17.604-10.556,25.421c-2.125,3.371-1.63,7.765,1.186,10.581l9.89,9.89l-16.452,16.461l-9.899-9.899
		c-2.816-2.816-7.211-3.311-10.581-1.186c-7.817,4.941-16.41,8.508-25.421,10.564c-3.883,0.879-6.647,4.335-6.647,8.32V358.4
		h-23.262v-13.961c0-3.985-2.765-7.441-6.647-8.32c-9.011-2.057-17.604-5.623-25.421-10.564c-3.371-2.125-7.765-1.63-10.581,1.186
		l-9.899,9.899l-16.452-16.461l9.89-9.89c2.816-2.816,3.311-7.211,1.186-10.581c-4.932-7.817-8.499-16.41-10.556-25.421
		c-0.879-3.883-4.335-6.647-8.32-6.647h-13.969v-23.279h13.969c3.985,0,7.441-2.765,8.32-6.647
		c2.057-9.011,5.623-17.604,10.556-25.421c2.125-3.371,1.63-7.765-1.186-10.581l-9.89-9.89l16.452-16.461l9.899,9.899
		c2.816,2.816,7.211,3.311,10.581,1.186c7.817-4.941,16.41-8.508,25.421-10.564c3.883-0.879,6.647-4.335,6.647-8.32V153.6h23.262
		v13.961c0,3.985,2.765,7.441,6.647,8.32c9.011,2.057,17.604,5.623,25.421,10.564c3.371,2.125,7.765,1.63,10.581-1.186l9.899-9.899
		l16.452,16.461l-9.89,9.89c-2.816,2.816-3.311,7.211-1.186,10.581c4.932,7.817,8.499,16.41,10.556,25.421
		c0.879,3.883,4.335,6.647,8.32,6.647h13.969V267.639z"/>
	<path style="fill:#004559;" d="M392.533,207.13c-26.991,0.009-48.87,21.888-48.862,48.879c0.009,26.991,21.888,48.87,48.879,48.862
		c26.991-0.009,48.862-21.879,48.862-48.87C441.378,229.018,419.516,207.155,392.533,207.13z M392.533,287.804
		c-17.562-0.009-31.804-14.251-31.795-31.812c0.009-17.562,14.251-31.804,31.812-31.795c17.562,0.009,31.795,14.242,31.795,31.804
		C424.32,273.562,410.095,287.787,392.533,287.804z"/>
	<path style="fill:#004559;" d="M25.6,139.639c0,4.71,3.823,8.533,8.533,8.533h15.932c1.903,6.289,4.429,12.373,7.543,18.159
		l-11.273,11.281c-3.328,3.328-3.328,8.738,0,12.066l28.51,28.527c3.328,3.337,8.73,3.337,12.066,0.009l0.009-0.009l11.281-11.281
		c5.786,3.115,11.87,5.649,18.167,7.543V230.4c0,4.71,3.823,8.533,8.533,8.533h40.329c4.71,0,8.533-3.823,8.533-8.533v-15.932
		c6.298-1.894,12.382-4.429,18.167-7.543l11.281,11.281c3.328,3.337,8.73,3.337,12.066,0.009l0.009-0.009l28.51-28.527
		c3.328-3.328,3.328-8.738,0-12.066l-11.273-11.281c3.115-5.786,5.641-11.87,7.543-18.159H256c4.71,0,8.533-3.823,8.533-8.533
		V99.294c0-4.71-3.823-8.533-8.533-8.533h-15.932c-1.903-6.289-4.429-12.373-7.543-18.159l11.273-11.281
		c3.328-3.337,3.328-8.738,0-12.066l-28.51-28.527c-3.328-3.337-8.73-3.337-12.066-0.009l-0.009,0.009l-11.281,11.281
		c-5.786-3.115-11.87-5.649-18.167-7.543V8.533c0-4.71-3.823-8.533-8.533-8.533h-40.329c-4.71,0-8.533,3.823-8.533,8.533v15.932
		c-6.298,1.894-12.382,4.429-18.167,7.543L86.921,20.727c-3.328-3.337-8.73-3.337-12.066-0.009l-0.009,0.009l-28.51,28.527
		c-3.328,3.328-3.328,8.73,0,12.066l11.273,11.281c-3.115,5.786-5.641,11.87-7.543,18.159H34.133c-4.71,0-8.533,3.823-8.533,8.533
		V139.639z M42.667,107.827h13.969c3.985,0,7.441-2.765,8.32-6.647c2.057-9.011,5.623-17.604,10.556-25.421
		c2.125-3.371,1.63-7.765-1.186-10.581l-9.89-9.89l16.452-16.461l9.899,9.899c2.816,2.816,7.211,3.311,10.581,1.186
		c7.817-4.932,16.41-8.508,25.421-10.564c3.883-0.879,6.647-4.335,6.647-8.32V17.067h23.262v13.961c0,3.985,2.765,7.441,6.647,8.32
		c9.011,2.057,17.604,5.632,25.421,10.564c3.371,2.125,7.765,1.63,10.581-1.186l9.899-9.899l16.452,16.461l-9.89,9.89
		c-2.816,2.816-3.311,7.211-1.186,10.581c4.932,7.817,8.499,16.41,10.556,25.421c0.879,3.883,4.335,6.647,8.32,6.647h13.969v23.279
		h-13.969c-3.985,0-7.441,2.765-8.32,6.647c-2.057,9.011-5.623,17.604-10.556,25.421c-2.125,3.371-1.63,7.765,1.186,10.581
		l9.89,9.89l-16.452,16.461l-9.899-9.899c-2.816-2.816-7.211-3.311-10.581-1.186c-7.817,4.932-16.41,8.508-25.421,10.564
		c-3.883,0.879-6.647,4.335-6.647,8.32v13.961h-23.262v-13.961c0-3.985-2.765-7.441-6.647-8.32
		c-9.011-2.057-17.604-5.632-25.421-10.564c-3.371-2.125-7.765-1.63-10.581,1.186l-9.899,9.899l-16.452-16.461l9.89-9.89
		c2.816-2.816,3.311-7.211,1.186-10.581c-4.932-7.817-8.499-16.41-10.556-25.421c-0.879-3.883-4.335-6.647-8.32-6.647H42.667
		V107.827z"/>
	<path style="fill:#004559;" d="M145.067,168.337c26.991-0.009,48.87-21.888,48.862-48.879
		c-0.009-26.991-21.888-48.87-48.879-48.862s-48.862,21.879-48.862,48.87C96.222,146.449,118.084,168.311,145.067,168.337z
		 M145.067,87.663c17.562,0.009,31.804,14.251,31.795,31.812s-14.251,31.804-31.812,31.795s-31.795-14.242-31.795-31.804
		C113.28,101.905,127.505,87.68,145.067,87.663z"/>
	<path style="fill:#004559;" d="M8.533,421.239h15.932c1.903,6.289,4.429,12.373,7.543,18.159l-11.273,11.281
		c-3.328,3.328-3.328,8.738,0,12.066l28.51,28.527c3.328,3.337,8.73,3.337,12.066,0.009l0.009-0.009l11.281-11.281
		c5.786,3.115,11.87,5.649,18.167,7.543v15.932c0,4.71,3.823,8.533,8.533,8.533h40.329c4.71,0,8.533-3.823,8.533-8.533v-15.932
		c6.298-1.894,12.382-4.429,18.167-7.543l11.281,11.281c3.328,3.337,8.73,3.337,12.066,0.009l0.009-0.009l28.51-28.527
		c3.328-3.328,3.328-8.738,0-12.066l-11.273-11.281c3.115-5.786,5.641-11.87,7.543-18.159H230.4c4.71,0,8.533-3.823,8.533-8.533
		v-40.346c0-4.71-3.823-8.533-8.533-8.533h-15.932c-1.903-6.289-4.429-12.373-7.543-18.159l11.273-11.281
		c3.328-3.328,3.328-8.738,0-12.066l-28.51-28.527c-3.328-3.337-8.73-3.337-12.066-0.009l-0.009,0.009l-11.281,11.281
		c-5.786-3.115-11.87-5.649-18.167-7.543V281.6c0-4.71-3.823-8.533-8.533-8.533H99.302c-4.71,0-8.533,3.823-8.533,8.533v15.932
		c-6.298,1.894-12.382,4.429-18.167,7.543l-11.281-11.281c-3.328-3.337-8.73-3.337-12.066-0.009l-0.009,0.009l-28.51,28.527
		c-3.328,3.328-3.328,8.738,0,12.066l11.273,11.281c-3.115,5.786-5.641,11.87-7.543,18.159H8.533c-4.71,0-8.533,3.823-8.533,8.533
		v40.346C0,417.417,3.823,421.239,8.533,421.239z M17.067,380.894h13.969c3.985,0,7.441-2.765,8.32-6.647
		c2.057-9.011,5.623-17.604,10.556-25.421c2.125-3.371,1.63-7.765-1.186-10.581l-9.89-9.89l16.452-16.461l9.899,9.899
		c2.816,2.816,7.211,3.311,10.581,1.186c7.817-4.932,16.41-8.508,25.421-10.564c3.883-0.879,6.647-4.335,6.647-8.32v-13.961h23.262
		v13.961c0,3.985,2.765,7.441,6.647,8.32c9.011,2.057,17.604,5.632,25.421,10.564c3.371,2.125,7.765,1.63,10.581-1.186l9.899-9.899
		l16.452,16.461l-9.89,9.89c-2.816,2.816-3.311,7.211-1.186,10.581c4.932,7.817,8.499,16.41,10.556,25.421
		c0.879,3.883,4.335,6.647,8.32,6.647h13.969v23.279h-13.969c-3.985,0-7.441,2.765-8.32,6.647
		c-2.057,9.011-5.623,17.604-10.556,25.421c-2.125,3.371-1.63,7.765,1.186,10.581l9.89,9.89l-16.452,16.461l-9.899-9.899
		c-2.816-2.816-7.211-3.311-10.581-1.186c-7.817,4.941-16.41,8.508-25.421,10.564c-3.883,0.879-6.647,4.335-6.647,8.32v13.961
		h-23.262v-13.961c0-3.985-2.765-7.441-6.647-8.32c-9.011-2.057-17.604-5.623-25.421-10.564c-3.371-2.125-7.765-1.63-10.581,1.186
		l-9.899,9.899l-16.452-16.461l9.89-9.89c2.816-2.816,3.311-7.211,1.186-10.581c-4.932-7.817-8.499-16.41-10.556-25.421
		c-0.879-3.883-4.335-6.647-8.32-6.647H17.067V380.894z"/>
	<path style="fill:#004559;" d="M119.467,441.404c26.991-0.009,48.87-21.888,48.862-48.879
		c-0.009-26.991-21.888-48.87-48.879-48.862c-26.991,0.009-48.862,21.879-48.862,48.87
		C70.622,419.516,92.484,441.378,119.467,441.404z M119.467,360.73c17.562,0.009,31.804,14.251,31.795,31.812
		s-14.251,31.804-31.812,31.795c-17.562-0.009-31.795-14.242-31.795-31.804C87.68,374.972,101.905,360.747,119.467,360.73z"/>
	<path style="fill:#004559;" d="M32.367,221.107c-0.896,5.803-1.579,11.733-2.014,17.604L47.369,240
		c0.418-5.436,1.041-10.923,1.869-16.299L32.367,221.107z"/>
	<path style="fill:#004559;" d="M29.696,256.418c0,5.973,0.256,11.947,0.708,17.715l17.067-1.357
		c-0.435-5.342-0.657-10.854-0.666-16.384L29.696,256.418z"/>
	<path style="fill:#004559;" d="M250.573,482.261c5.879-0.119,11.827-0.461,17.69-1.033l-1.655-16.981
		c-5.427,0.521-10.923,0.853-16.35,0.947L250.573,482.261z"/>
	<path style="fill:#004559;" d="M298.846,458.539c-5.248,1.357-10.633,2.56-16.009,3.49l2.978,16.802
		c5.82-1.033,11.639-2.304,17.306-3.78L298.846,458.539z"/>
	<path style="fill:#004559;" d="M384.802,412.664c-4.105,3.627-8.371,7.117-12.698,10.385l10.291,13.653
		c4.668-3.524,9.284-7.305,13.722-11.23L384.802,412.664z"/>
	<path style="fill:#004559;" d="M420.693,399.957l-13.133-10.837c-3.473,4.198-7.142,8.32-10.931,12.237l12.288,11.853
		C413.013,408.943,416.973,404.48,420.693,399.957z"/>
	<path style="fill:#004559;" d="M358.656,432.418c-4.582,2.927-9.335,5.717-14.14,8.277l8.03,15.061
		c5.197-2.782,10.342-5.794,15.309-8.969L358.656,432.418z"/>
	<path style="fill:#004559;" d="M329.779,447.838c-4.983,2.167-10.112,4.181-15.266,5.973l5.589,16.119
		c5.572-1.929,11.093-4.096,16.503-6.443L329.779,447.838z"/>
	<path style="fill:#004559;" d="M422.4,125.525l13.15-10.88c-3.755-4.54-7.74-8.986-11.844-13.201l-12.262,11.878
		C415.232,117.231,418.91,121.335,422.4,125.525z"/>
	<path style="fill:#004559;" d="M313.225,57.028l4.053-16.58c-5.726-1.399-11.588-2.56-17.408-3.507l-2.705,16.819
		C302.541,54.613,307.942,55.74,313.225,57.028z"/>
	<path style="fill:#004559;" d="M282.24,34.833c-5.837-0.461-11.802-0.7-17.707-0.7V51.2c5.478,0,10.982,0.222,16.375,0.649
		L282.24,34.833z"/>
	<path style="fill:#004559;" d="M344.311,67.328l6.647-15.718c-5.444-2.304-11.034-4.412-16.614-6.263l-5.367,16.213
		C334.123,63.258,339.285,65.203,344.311,67.328z"/>
	<path style="fill:#004559;" d="M399.565,102.033l11.273-12.8c-4.42-3.883-9.062-7.637-13.798-11.17l-10.24,13.653
		C391.211,94.985,395.494,98.458,399.565,102.033z"/>
	<path style="fill:#004559;" d="M373.325,82.466l9.079-14.447c-4.983-3.14-10.172-6.118-15.36-8.841l-7.885,15.13
		C363.938,76.8,368.717,79.565,373.325,82.466z"/>
</g>
<g>
</g>
<g>
</g>
<g>
</g>
<g>
</g>
<g>
</g>
<g>
</g>
<g>
</g>
<g>
</g>
<g>
</g>
<g>
</g>
<g>
</g>
<g>
</g>
<g>
</g>
<g>
</g>
<g>
</g>
</svg>
