<?xml version="1.0" encoding="iso-8859-1"?>
<!-- Generator: Adobe Illustrator 19.0.0, SVG Export Plug-In . SVG Version: 6.00 Build 0)  -->
<svg version="1.1" id="Capa_1" xmlns="http://www.w3.org/2000/svg" xmlns:xlink="http://www.w3.org/1999/xlink" x="0px" y="0px"
	 viewBox="0 0 512.003 512.003" style="enable-background:new 0 0 512.003 512.003;" xml:space="preserve">
<rect x="81.069" y="358.382" style="fill:#FFA753;" width="68.263" height="119.461"/>
<rect x="29.871" y="366.915" style="fill:#FAD87C;" width="51.197" height="102.395"/>
<path style="fill:#F2C09A;" d="M149.332,461.809l75.456,31.333c32.732,13.328,69.313,13.738,102.335,1.126l131.808-50.259
	c11.852-4.625,17.714-17.979,13.098-29.831c-0.026-0.06-0.043-0.111-0.068-0.171l0,0c-4.437-11.571-17.416-17.356-28.986-12.919
	c-0.213,0.085-0.427,0.171-0.64,0.256l-71.344,30.292c-3.942,1.596-8.089,2.62-12.322,3.029
	c11.502-2.568,18.738-13.968,16.178-25.462c-2.167-9.719-10.769-16.639-20.726-16.69h-66.19c-8.021,0-15.922-1.869-23.099-5.453
	c-26.495-13.243-55.711-20.146-85.329-20.146h-30.172L149.332,461.809L149.332,461.809z"/>
<g>
	<path style="fill:#E9937C;" d="M264.859,387.01c7.176,3.584,15.078,5.453,23.099,5.453h66.164c11.784,0,21.332,9.548,21.332,21.332
		c-0.017,2.918-0.64,5.802-1.826,8.473c-3.405-7.739-11.059-12.731-19.506-12.74h-66.164c-8.021,0-15.922-1.869-23.099-5.453
		c-26.495-13.252-55.711-20.146-85.329-20.146h-30.198v-17.066h30.189C209.139,366.864,238.364,373.758,264.859,387.01z"/>
	<path style="fill:#E9937C;" d="M471.987,413.948L471.987,413.948c2.142,5.47,2.125,11.554-0.051,17.006
		c-4.497-11.545-17.501-17.262-29.046-12.765c-0.179,0.068-0.358,0.145-0.529,0.213l-71.335,30.292
		c-5.504,2.338-11.426,3.55-17.399,3.55h-101.9v-17.117h101.9c5.982,0,11.895-1.203,17.399-3.541l71.335-30.292
		c11.426-4.796,24.575,0.58,29.362,12.006C471.816,413.513,471.901,413.727,471.987,413.948z"/>
</g>
<circle style="fill:#2996BF;" cx="302.924" cy="179.191" r="42.665"/>
<path style="fill:#006684;" d="M473.582,204.79v-51.197h-36.615c-3.456-18.312-10.649-35.71-21.119-51.121l25.846-25.855
	L405.498,40.42l-25.855,25.846c-15.41-10.47-32.809-17.663-51.121-21.119V8.533h-51.197v36.615
	c-18.312,3.456-35.71,10.649-51.121,21.119L200.35,40.42l-36.197,36.197L190,102.472c-10.47,15.41-17.663,32.809-21.119,51.121
	h-36.615v51.197h36.615c3.456,18.312,10.649,35.71,21.119,51.121l-25.846,25.855l36.197,36.197l25.855-25.846
	c15.41,10.47,32.809,17.663,51.121,21.119v36.615h51.197v-36.615c18.312-3.456,35.71-10.649,51.121-21.119l25.855,25.846
	l36.197-36.197l-25.846-25.855c10.47-15.41,17.663-32.809,21.119-51.121H473.582z M302.924,273.053
	c-51.837,0-93.862-42.025-93.862-93.862s42.025-93.862,93.862-93.862s93.862,42.025,93.862,93.862S354.762,273.053,302.924,273.053z
	"/>
<g>
	<path style="fill:#004559;" d="M81.069,486.376h68.263c4.71,0,8.533-3.823,8.533-8.533v-3.251l63.707,26.452
		c34.729,14.182,73.554,14.617,108.59,1.203l131.816-50.267c7.808-2.969,14.096-8.96,17.433-16.614
		c3.447-7.765,3.626-16.588,0.495-24.489c-3.063-7.876-9.19-14.173-16.989-17.433c-7.637-3.234-16.264-3.217-23.892,0.051
		l-55.327,23.491c0.154-1.041,0.247-2.091,0.29-3.14c0-16.494-13.371-29.865-29.865-29.865h-66.19
		c-6.698-0.009-13.303-1.57-19.293-4.557c-27.689-13.806-58.203-21.008-89.143-21.042h-21.631c0-4.71-3.823-8.533-8.533-8.533
		H81.069c-4.71,0-8.533,3.823-8.533,8.533H29.871v17.066h42.665v85.329H29.871v17.066h42.665
		C72.536,482.553,76.35,486.376,81.069,486.376z M179.496,375.448c28.295,0.034,56.198,6.622,81.515,19.242
		c8.362,4.173,17.578,6.348,26.921,6.357h66.19c7.065,0.043,12.765,5.811,12.714,12.885c-0.034,5.922-4.13,11.042-9.898,12.381
		c-1.118,0.102-2.21,0.333-3.345,0.333H251.727v17.066h101.866c0.179,0,0.35,0,0.529,0l0,0c0.171,0,0.333-0.051,0.512-0.051
		c6.775-0.111,13.456-1.527,19.694-4.173l71.344-30.283c3.396-1.451,7.244-1.451,10.641,0c3.533,1.493,6.306,4.36,7.68,7.944
		c1.451,3.661,1.365,7.748-0.23,11.34c-1.51,3.481-4.352,6.212-7.901,7.569l-131.816,50.259
		c-30.974,11.861-65.302,11.494-96.012-1.032l-70.166-29.174v-80.662H179.496z M89.602,366.915h51.197V469.31H89.602
		C89.602,469.31,89.602,366.915,89.602,366.915z"/>
	<path style="fill:#004559;" d="M132.266,145.059c-4.71,0-8.533,3.823-8.533,8.533v51.197c0,4.71,3.823,8.533,8.533,8.533h29.72
		c3.473,14.617,9.233,28.602,17.066,41.427l-20.982,20.982c-3.328,3.328-3.328,8.738,0,12.066l36.205,36.205
		c3.388,3.2,8.686,3.2,12.074,0l20.982-20.991c12.833,7.85,26.827,13.627,41.461,17.117v29.72c0,4.71,3.823,8.533,8.533,8.533
		h51.197c4.71,0,8.533-3.823,8.533-8.533v-29.72c14.617-3.49,28.594-9.267,41.419-17.117l20.982,20.991
		c3.328,3.336,8.729,3.336,12.066,0.009l0.009-0.009l36.205-36.205c3.328-3.328,3.328-8.738,0-12.066l-20.982-20.982
		c7.842-12.825,13.619-26.802,17.108-41.427h29.72c4.71,0,8.533-3.823,8.533-8.533v-51.197c0-4.71-3.823-8.533-8.533-8.533h-29.72
		c-3.49-14.625-9.267-28.602-17.108-41.427l20.982-20.982c3.328-3.336,3.328-8.729,0-12.066l-36.205-36.205
		c-3.388-3.191-8.687-3.191-12.074,0L378.475,55.37c-12.825-7.85-26.802-13.627-41.419-17.117V8.533c0-4.71-3.823-8.533-8.533-8.533
		h-51.197c-4.71,0-8.533,3.823-8.533,8.533v29.72c-14.617,3.49-28.594,9.267-41.419,17.117l-20.982-20.991
		c-3.328-3.336-8.729-3.336-12.066-0.009l-0.009,0.009l-36.205,36.205c-3.328,3.336-3.328,8.738,0,12.066l20.982,20.982
		c-7.833,12.825-13.593,26.81-17.066,41.427H132.266z M177.26,155.188c3.217-17.168,9.958-33.483,19.796-47.912
		c2.312-3.388,1.886-7.936-1.015-10.837l-19.83-19.822l24.14-24.14l19.805,19.83c2.901,2.893,7.441,3.319,10.828,1.015
		c14.438-9.83,30.753-16.571,47.921-19.796c4.028-0.759,6.954-4.275,6.954-8.379V17.066h34.132v28.082
		c0,4.096,2.91,7.611,6.937,8.379c17.168,3.225,33.483,9.966,47.921,19.796c3.388,2.304,7.927,1.877,10.828-1.015l19.822-19.83
		l24.14,24.14l-19.83,19.805c-2.901,2.901-3.328,7.449-1.015,10.837c9.838,14.429,16.579,30.744,19.796,47.912
		c0.768,4.028,4.284,6.937,8.379,6.937h28.082v34.132h-28.082c-4.096,0-7.611,2.91-8.379,6.937
		c-3.217,17.168-9.958,33.483-19.796,47.912c-2.312,3.388-1.886,7.936,1.015,10.837l19.83,19.822l-24.14,24.157l-19.805-19.831
		c-2.901-2.893-7.441-3.319-10.828-1.015c-14.438,9.83-30.753,16.571-47.921,19.796c-4.028,0.768-6.937,4.284-6.937,8.379v28.082
		h-34.149v-28.082c0-4.096-2.91-7.611-6.937-8.379c-17.168-3.225-33.483-9.966-47.921-19.796c-3.388-2.304-7.927-1.877-10.828,1.015
		l-19.822,19.83l-24.14-24.14l19.83-19.805c2.901-2.901,3.328-7.449,1.015-10.837c-9.838-14.429-16.579-30.744-19.796-47.912
		c-0.759-4.028-4.284-6.954-8.379-6.954h-28.082v-34.132h28.082C172.977,162.125,176.492,159.215,177.26,155.188z"/>
	<path style="fill:#004559;" d="M302.924,230.388c28.278,0,51.197-22.919,51.197-51.197s-22.919-51.197-51.197-51.197
		s-51.197,22.919-51.197,51.197C251.752,207.452,274.655,230.363,302.924,230.388z M302.924,145.059
		c18.849,0,34.132,15.282,34.132,34.132s-15.282,34.132-34.132,34.132s-34.132-15.282-34.132-34.132
		S284.075,145.059,302.924,145.059z"/>
	<path style="fill:#004559;" d="M302.924,281.586c56.548,0,102.395-45.847,102.395-102.395S359.472,76.796,302.924,76.796
		s-102.395,45.847-102.395,102.395C200.589,235.713,246.394,281.526,302.924,281.586z M302.924,93.862
		c47.127,0,85.329,38.202,85.329,85.329s-38.202,85.329-85.329,85.329s-85.329-38.202-85.329-85.329
		C217.646,132.089,255.814,93.913,302.924,93.862z"/>
</g>
<g>
</g>
<g>
</g>
<g>
</g>
<g>
</g>
<g>
</g>
<g>
</g>
<g>
</g>
<g>
</g>
<g>
</g>
<g>
</g>
<g>
</g>
<g>
</g>
<g>
</g>
<g>
</g>
<g>
</g>
</svg>
