<?xml version="1.0" encoding="iso-8859-1"?>
<!-- Generator: Adobe Illustrator 19.0.0, SVG Export Plug-In . SVG Version: 6.00 Build 0)  -->
<svg version="1.1" id="Capa_1" xmlns="http://www.w3.org/2000/svg" xmlns:xlink="http://www.w3.org/1999/xlink" x="0px" y="0px"
	 viewBox="0 0 512 512" style="enable-background:new 0 0 512 512;" xml:space="preserve">
<rect x="30.373" y="433.898" style="fill:#2996BF;" width="451.254" height="69.424"/>
<rect x="30.373" y="138.847" style="fill:#E6E6E6;" width="451.254" height="295.051"/>
<polygon style="fill:#808080;" points="368.814,208.271 368.814,260.339 290.712,260.339 290.712,208.271 221.288,208.271 
	221.288,260.339 143.186,260.339 143.186,208.271 73.763,208.271 73.763,364.475 143.186,364.475 143.186,312.407 221.288,312.407 
	221.288,364.475 290.712,364.475 290.712,312.407 368.814,312.407 368.814,364.475 438.237,364.475 438.237,208.271 "/>
<polygon style="fill:#FAD87C;" points="420.881,138.847 386.169,138.847 373.543,75.724 433.508,75.724 "/>
<path style="fill:#FFA753;" d="M403.525,8.678L403.525,8.678c23.96,0,43.39,19.43,43.39,43.39l0,0c0,23.96-19.43,43.39-43.39,43.39
	l0,0c-23.96,0-43.39-19.43-43.39-43.39l0,0C360.136,28.108,379.566,8.678,403.525,8.678z"/>
<g>
	<path style="fill:#004559;" d="M21.695,138.847v364.475c0,4.79,3.888,8.678,8.678,8.678h451.254c4.79,0,8.678-3.888,8.678-8.678
		V138.847c0-4.79-3.888-8.678-8.678-8.678h-34.712v17.356h26.034V425.22H39.051V147.525h321.085v-17.356H30.373
		C25.583,130.169,21.695,134.057,21.695,138.847z M472.949,442.576v52.068H39.051v-52.068H472.949z"/>
	<rect x="65.085" y="164.881" style="fill:#004559;" width="312.407" height="17.356"/>
	<rect x="429.559" y="164.881" style="fill:#004559;" width="17.356" height="17.356"/>
	<rect x="394.847" y="251.661" style="fill:#004559;" width="17.356" height="17.356"/>
	<path style="fill:#004559;" d="M403.525,0c-28.759,0.043-52.033,23.387-51.998,52.137c0.017,15.247,6.725,29.722,18.354,39.606
		c-0.876,1.657-1.18,3.567-0.868,5.415l8.678,43.39c0.807,4.044,4.356,6.96,8.478,6.977h8.678v52.068h-26.034
		c-4.79,0-8.678,3.888-8.678,8.678v43.39H299.39v-43.39c0-4.79-3.888-8.678-8.678-8.678h-69.424c-4.79,0-8.678,3.888-8.678,8.678
		v43.39h-60.746v-43.39c0-4.79-3.888-8.678-8.678-8.678H73.763c-4.79,0-8.678,3.888-8.678,8.678v156.203
		c0,4.79,3.888,8.678,8.678,8.678h69.424c4.79,0,8.678-3.888,8.678-8.678v-43.39h60.746v43.39c0,4.79,3.888,8.678,8.678,8.678
		h69.424c4.79,0,8.678-3.888,8.678-8.678v-43.39h60.746v43.39c0,4.79,3.888,8.678,8.678,8.678h69.424
		c4.79,0,8.678-3.888,8.678-8.678V208.271c0-4.79-3.888-8.678-8.678-8.678h-26.034v-52.068h8.678c4.122,0,7.68-2.898,8.504-6.942
		l8.678-43.39c0.312-1.848,0.009-3.758-0.868-5.415c21.929-18.597,24.637-51.452,6.031-73.39C433.334,6.725,418.816,0,403.525,0z
		 M429.559,216.949v138.847h-52.068v-43.39c0-4.79-3.888-8.678-8.678-8.678h-78.102c-4.79,0-8.678,3.888-8.678,8.678v43.39h-52.068
		v-43.39c0-4.79-3.888-8.678-8.678-8.678h-78.102c-4.79,0-8.678,3.888-8.678,8.678v43.39H82.441V216.949h52.068v43.39
		c0,4.79,3.888,8.678,8.678,8.678h78.102c4.79,0,8.678-3.888,8.678-8.678v-43.39h52.068v43.39c0,4.79,3.888,8.678,8.678,8.678
		h78.102c4.79,0,8.678-3.888,8.678-8.678v-43.39h17.356v17.356h17.356v-17.356H429.559z M418.972,104.136l-5.207,26.034h-20.489
		l-5.207-26.034H418.972z M403.525,86.78c-19.17,0-34.712-15.542-34.712-34.712s15.542-34.712,34.712-34.712
		s34.712,15.542,34.712,34.712S422.695,86.78,403.525,86.78z"/>
	<rect x="429.559" y="459.932" style="fill:#004559;" width="17.356" height="17.356"/>
	<rect x="394.847" y="459.932" style="fill:#004559;" width="17.356" height="17.356"/>
	<rect x="412.203" y="390.508" style="fill:#004559;" width="17.356" height="17.356"/>
	<rect x="377.492" y="390.508" style="fill:#004559;" width="17.356" height="17.356"/>
	<rect x="264.678" y="390.508" style="fill:#004559;" width="17.356" height="17.356"/>
	<rect x="229.966" y="390.508" style="fill:#004559;" width="17.356" height="17.356"/>
	<rect x="117.153" y="390.508" style="fill:#004559;" width="17.356" height="17.356"/>
	<rect x="82.441" y="390.508" style="fill:#004559;" width="17.356" height="17.356"/>
	<rect x="65.085" y="459.932" style="fill:#004559;" width="112.814" height="17.356"/>
</g>
<g>
</g>
<g>
</g>
<g>
</g>
<g>
</g>
<g>
</g>
<g>
</g>
<g>
</g>
<g>
</g>
<g>
</g>
<g>
</g>
<g>
</g>
<g>
</g>
<g>
</g>
<g>
</g>
<g>
</g>
</svg>
