<?xml version="1.0" encoding="iso-8859-1"?>
<!-- Generator: Adobe Illustrator 19.0.0, SVG Export Plug-In . SVG Version: 6.00 Build 0)  -->
<svg version="1.1" id="Capa_1" xmlns="http://www.w3.org/2000/svg" xmlns:xlink="http://www.w3.org/1999/xlink" x="0px" y="0px"
	 viewBox="0 0 511.998 511.998" style="enable-background:new 0 0 511.998 511.998;" xml:space="preserve">
<path style="fill:#999999;" d="M8.561,469.337V196.302c0-18.848,15.281-34.129,34.129-34.129h85.323
	c18.848,0,34.129,15.281,34.129,34.129v273.035c0,18.848-15.281,34.129-34.129,34.129H42.691
	C23.843,503.466,8.561,488.193,8.561,469.337z"/>
<path style="fill:#666666;" d="M128.014,503.466c18.848,0,34.129-15.281,34.129-34.129V196.302
	c0-18.848-15.281-34.129-34.129-34.129h-8.532v341.294H128.014z"/>
<g>
	<rect x="162.109" y="256.054" style="fill:#006684;" width="51.194" height="153.582"/>
	<rect x="452.209" y="290.183" style="fill:#006684;" width="51.194" height="85.323"/>
</g>
<rect x="213.303" y="307.248" style="fill:#B3B3B3;" width="238.905" height="51.194"/>
<rect x="273.03" y="111.004" style="fill:#FAD87C;" width="119.453" height="145.05"/>
<g>
	<circle style="fill:#FFA753;" cx="332.756" cy="332.845" r="25.597"/>
	<path style="fill:#FFA753;" d="M366.92,256.028v17.065c0,18.848-15.281,34.129-34.129,34.129l0,0
		c-18.848,0-34.129-15.281-34.129-34.129v-17.065H366.92z"/>
	<circle style="fill:#FFA753;" cx="332.756" cy="34.213" r="25.597"/>
	<path style="fill:#FFA753;" d="M298.661,110.978V93.914c0-18.848,15.281-34.129,34.129-34.129l0,0
		c18.848,0,34.129,15.281,34.129,34.129v17.065H298.661z"/>
</g>
<g>
	<path style="fill:#004559;" d="M42.691,511.998h85.323c23.549-0.026,42.636-19.112,42.662-42.662v-51.194h42.662
		c4.71,0,8.532-3.822,8.532-8.532v-42.662h68.259v-17.065H221.87v-34.129h51.194V298.69H221.87v-42.662
		c0-4.71-3.822-8.532-8.532-8.532h-42.662v-51.194c-0.026-23.549-19.112-42.636-42.662-42.662H42.691
		c-23.549,0.026-42.636,19.112-42.662,42.662v273.035C0.055,492.886,19.141,511.973,42.691,511.998z M204.805,264.561v136.517
		h-34.129V264.561H204.805z M17.094,196.302c0-14.138,11.459-25.597,25.597-25.597v307.164h17.065V170.705h51.194v255.97h17.065
		v-255.97c14.138,0,25.597,11.459,25.597,25.597v273.035c0,14.138-11.459,25.597-25.597,25.597v-17.065h-17.065v17.065H42.691
		c-14.138,0-25.597-11.459-25.597-25.597C17.094,469.337,17.094,196.302,17.094,196.302z"/>
	<rect x="110.915" y="443.765" style="fill:#004559;" width="17.065" height="17.065"/>
	<path style="fill:#004559;" d="M503.437,273.093h-51.194c-4.71,0-8.532,3.823-8.532,8.532v17.065h-51.194v17.065h51.194v34.129
		h-68.259v17.065h68.259v17.065c0,4.71,3.823,8.532,8.532,8.532h51.194c4.71,0,8.532-3.822,8.532-8.532V281.625
		C511.969,276.915,508.147,273.093,503.437,273.093z M494.905,375.481h-34.129v-85.323h34.129V375.481z"/>
	<path style="fill:#004559;" d="M290.129,93.914v8.532h-17.065v17.065h119.453v-17.065h-17.065v-8.532
		c-0.009-14.181-7.056-27.44-18.822-35.367c13.49-13.165,13.754-34.778,0.58-48.259c-13.174-13.481-34.778-13.754-48.259-0.58
		s-13.754,34.778-0.58,48.259c0.196,0.196,0.384,0.392,0.58,0.58C297.185,66.474,290.129,79.733,290.129,93.914z M315.726,34.187
		c0-9.428,7.636-17.065,17.065-17.065s17.065,7.636,17.065,17.065s-7.636,17.065-17.065,17.065S315.726,43.616,315.726,34.187z
		 M332.79,68.317c14.138,0,25.597,11.459,25.597,25.597v8.532h-51.194v-8.532C307.193,79.784,318.652,68.317,332.79,68.317z"/>
	<path style="fill:#004559;" d="M273.064,264.561h17.065v8.532c0.009,14.181,7.056,27.44,18.822,35.367
		c-13.49,13.165-13.754,34.778-0.58,48.259c13.174,13.481,34.778,13.754,48.259,0.58s13.754-34.778,0.58-48.259
		c-0.196-0.196-0.384-0.392-0.58-0.58c11.766-7.927,18.814-21.186,18.822-35.367v-8.532h17.065v-17.065H273.064L273.064,264.561
		L273.064,264.561z M349.855,332.819c0,9.428-7.636,17.065-17.065,17.065s-17.065-7.636-17.065-17.065s7.636-17.065,17.065-17.065
		S349.855,323.4,349.855,332.819z M358.387,273.093c0,14.138-11.459,25.597-25.597,25.597s-25.597-11.459-25.597-25.597v-8.532
		h51.194V273.093z"/>
	<polygon style="fill:#004559;" points="273.064,162.172 392.517,153.64 392.517,136.575 273.064,145.108 	"/>
	<polygon style="fill:#004559;" points="273.064,196.302 392.517,187.769 392.517,170.705 273.064,179.237 	"/>
	<polygon style="fill:#004559;" points="273.064,230.431 392.517,221.899 392.517,204.834 273.064,213.366 	"/>
	<rect x="324.224" y="76.875" style="fill:#004559;" width="17.065" height="17.065"/>
	<rect x="324.224" y="273.118" style="fill:#004559;" width="17.065" height="17.065"/>
</g>
<g>
</g>
<g>
</g>
<g>
</g>
<g>
</g>
<g>
</g>
<g>
</g>
<g>
</g>
<g>
</g>
<g>
</g>
<g>
</g>
<g>
</g>
<g>
</g>
<g>
</g>
<g>
</g>
<g>
</g>
</svg>
