<?xml version="1.0" encoding="iso-8859-1"?>
<!-- Generator: Adobe Illustrator 19.0.0, SVG Export Plug-In . SVG Version: 6.00 Build 0)  -->
<svg version="1.1" id="Capa_1" xmlns="http://www.w3.org/2000/svg" xmlns:xlink="http://www.w3.org/1999/xlink" x="0px" y="0px"
	 viewBox="0 0 512 512" style="enable-background:new 0 0 512 512;" xml:space="preserve">
<rect x="53.895" y="336.827" style="fill:#FFA753;" width="71.86" height="125.754"/>
<rect y="345.81" style="fill:#FAD87C;" width="53.895" height="107.789"/>
<path style="fill:#F2C09A;" d="M125.754,445.704l79.432,32.984c34.457,14.031,72.964,14.462,107.727,1.186l138.752-52.907
	c12.477-4.868,18.648-18.926,13.788-31.403c-0.027-0.063-0.045-0.117-0.072-0.18l0,0c-4.671-12.18-18.333-18.27-30.513-13.599
	c-0.225,0.09-0.449,0.18-0.674,0.269l-75.102,31.888c-4.15,1.68-8.515,2.758-12.971,3.189c12.108-2.704,19.725-14.704,17.031-26.804
	c-2.282-10.231-11.336-17.516-21.818-17.57h-69.677c-8.444,0-16.761-1.967-24.316-5.74c-27.891-13.941-58.646-21.208-89.825-21.208
	h-31.762V445.704z"/>
<g>
	<path style="fill:#E9937C;" d="M247.368,366.963c7.554,3.773,15.872,5.74,24.316,5.74h69.65c12.405,0,22.456,10.051,22.456,22.456
		c-0.018,3.072-0.674,6.108-1.922,8.92c-3.584-8.147-11.641-13.402-20.534-13.411h-69.65c-8.444,0-16.761-1.967-24.316-5.74
		c-27.891-13.95-58.646-21.208-89.825-21.208h-31.789v-17.965h31.78C188.721,345.756,219.477,353.014,247.368,366.963z"/>
	<path style="fill:#E9937C;" d="M465.408,395.321L465.408,395.321c2.255,5.758,2.237,12.162-0.054,17.902
		c-4.734-12.153-18.423-18.172-30.576-13.438c-0.189,0.072-0.377,0.153-0.557,0.225l-75.093,31.888
		c-5.794,2.461-12.019,3.737-18.315,3.737H233.544v-18.019h107.269c6.297,0,12.522-1.267,18.315-3.728L434.221,382
		c12.028-5.048,25.869,0.611,30.909,12.638C465.228,394.863,465.318,395.096,465.408,395.321z"/>
</g>
<polygon style="fill:#E6E6E6;" points="197.614,255.985 431.158,255.985 431.158,121.248 404.211,94.301 197.614,94.301 "/>
<g>
	<rect x="197.614" y="255.985" style="fill:#2996BF;" width="233.544" height="35.93"/>
	<rect x="467.088" y="139.213" style="fill:#2996BF;" width="35.93" height="152.702"/>
	<rect x="233.544" y="22.441" style="fill:#2996BF;" width="143.719" height="35.93"/>
</g>
<rect x="107.789" y="112.266" style="fill:#FFA753;" width="44.912" height="152.702"/>
<polygon style="fill:#006684;" points="152.702,112.266 197.614,94.301 197.614,291.915 152.702,264.968 "/>
<rect x="35.93" y="112.266" style="fill:#FFA753;" width="35.93" height="152.702"/>
<g>
	<rect x="71.86" y="148.196" style="fill:#808080;" width="35.93" height="80.842"/>
	<rect x="251.509" y="58.371" style="fill:#808080;" width="107.789" height="35.93"/>
	<rect x="431.158" y="175.143" style="fill:#808080;" width="35.93" height="80.842"/>
</g>
<g>
	<path style="fill:#004559;" d="M467.088,300.897h35.93c4.958,0,8.982-4.024,8.982-8.982V139.213c0-4.958-4.024-8.982-8.982-8.982
		h-35.93c-4.958,0-8.982,4.024-8.982,8.982v26.947H440.14v-44.912c0-2.38-0.943-4.671-2.632-6.351L410.561,87.95
		c-1.68-1.68-3.97-2.632-6.351-2.632h-35.93V67.354h8.982c4.958,0,8.982-4.024,8.982-8.982v-35.93c0-4.958-4.024-8.982-8.982-8.982
		H233.544c-4.958,0-8.982,4.024-8.982,8.982v35.93c0,4.958,4.024,8.982,8.982,8.982h8.982v17.965h-44.912
		c-1.141,0-2.273,0.216-3.333,0.638l-43.313,17.327h-43.179c-4.958,0-8.982,4.024-8.982,8.982v26.947H80.842v-26.947
		c0-4.958-4.024-8.982-8.982-8.982H35.93c-4.958,0-8.982,4.024-8.982,8.982v152.702c0,4.958,4.024,8.982,8.982,8.982h35.93
		c4.958,0,8.982-4.024,8.982-8.982V238.02h17.965v26.947c0,4.958,4.024,8.982,8.982,8.982h42.424l42.774,25.663
		c1.401,0.844,3,1.285,4.626,1.285h233.544c4.958,0,8.982-4.024,8.982-8.982v-26.947h17.965v26.947
		C458.105,296.882,462.129,300.897,467.088,300.897z M476.07,148.196h17.965v134.737H476.07V148.196z M62.877,255.985H44.912
		V121.248h17.965V255.985z M80.842,220.055v-62.877h17.965v62.877H80.842z M422.175,124.967v122.036H206.596V103.283h193.895
		L422.175,124.967z M161.684,118.347l26.947-10.779v168.484l-26.947-16.168V118.347z M242.526,31.424h125.754v17.965H242.526V31.424
		z M260.491,67.354h89.825v17.965h-89.825V67.354z M143.719,255.985h-26.947V121.248h26.947V255.985z M206.596,282.932v-17.965
		h215.579v17.965H206.596z M440.14,247.003v-62.877h17.965v62.877H440.14z"/>
	<rect x="224.561" y="121.248" style="fill:#004559;" width="17.965" height="17.965"/>
	<rect x="260.491" y="121.248" style="fill:#004559;" width="17.965" height="17.965"/>
	<rect x="296.421" y="121.248" style="fill:#004559;" width="17.965" height="17.965"/>
	<path style="fill:#004559;" d="M53.895,471.564h71.86c4.958,0,8.982-4.024,8.982-8.982v-3.422l67.063,27.846
		c36.559,14.929,77.429,15.387,114.311,1.267l138.761-52.916c8.219-3.126,14.839-9.432,18.351-17.489
		c3.629-8.174,3.818-17.462,0.521-25.78c-3.225-8.291-9.674-14.92-17.884-18.351c-8.039-3.404-17.121-3.386-25.151,0.054
		l-58.242,24.729c0.162-1.096,0.26-2.201,0.305-3.306c0-17.363-14.076-31.439-31.439-31.439h-69.677
		c-7.051-0.009-14.004-1.653-20.309-4.797c-29.148-14.534-61.269-22.115-93.84-22.151h-22.77c0-4.958-4.024-8.982-8.982-8.982
		h-71.86c-4.958,0-8.982,4.024-8.982,8.982H0v17.965h44.912v89.825H0v17.965h44.912C44.912,467.549,48.936,471.564,53.895,471.564z
		 M157.507,354.792c29.786,0.036,59.158,6.97,85.809,20.255c8.803,4.392,18.504,6.683,28.34,6.692h69.677
		c7.437,0.045,13.438,6.117,13.384,13.563c-0.036,6.234-4.348,11.623-10.42,13.034c-1.177,0.108-2.326,0.35-3.521,0.35H233.544
		v17.965h107.233c0.189,0,0.368,0,0.557,0l0,0c0.18,0,0.35-0.054,0.539-0.054c7.132-0.117,14.165-1.608,20.732-4.392l75.102-31.879
		c3.575-1.527,7.626-1.527,11.201,0c3.719,1.572,6.638,4.59,8.084,8.363c1.527,3.853,1.437,8.156-0.243,11.938
		c-1.59,3.665-4.581,6.539-8.318,7.967L309.67,471.501c-32.606,12.486-68.743,12.099-101.071-1.087l-73.863-30.711v-84.911H157.507z
		 M62.877,345.81h53.895v107.789H62.877V345.81z"/>
</g>
<g>
</g>
<g>
</g>
<g>
</g>
<g>
</g>
<g>
</g>
<g>
</g>
<g>
</g>
<g>
</g>
<g>
</g>
<g>
</g>
<g>
</g>
<g>
</g>
<g>
</g>
<g>
</g>
<g>
</g>
</svg>
