<?xml version="1.0" encoding="iso-8859-1"?>
<!-- Generator: Adobe Illustrator 19.0.0, SVG Export Plug-In . SVG Version: 6.00 Build 0)  -->
<svg version="1.1" id="Capa_1" xmlns="http://www.w3.org/2000/svg" xmlns:xlink="http://www.w3.org/1999/xlink" x="0px" y="0px"
	 viewBox="0 0 512 512" style="enable-background:new 0 0 512 512;" xml:space="preserve">
<rect x="213.333" y="157.184" style="fill:#E6E6E6;" width="34.133" height="110.933"/>
<polygon style="fill:#2996BF;" points="42.667,447.318 42.667,327.851 315.733,327.851 315.733,140.118 426.667,140.118 
	503.467,216.918 503.467,447.318 "/>
<circle style="fill:#808080;" cx="136.533" cy="447.318" r="51.2"/>
<circle style="fill:#E6E6E6;" cx="136.533" cy="447.318" r="17.067"/>
<circle style="fill:#808080;" cx="409.6" cy="447.318" r="51.2"/>
<circle style="fill:#E6E6E6;" cx="409.6" cy="447.318" r="17.067"/>
<polygon style="fill:#89CEEA;" points="358.4,140.118 358.4,259.584 503.467,259.584 503.467,216.918 426.667,140.118 "/>
<rect x="452.267" y="259.584" style="fill:#FAD87C;" width="51.2" height="68.267"/>
<g style="opacity:0.5;enable-background:new    ;">
	<polygon style="fill:#E97424;" points="452.267,327.851 503.467,327.851 452.267,259.584 	"/>
</g>
<rect x="8.533" y="413.184" style="fill:#FAD87C;" width="34.133" height="34.133"/>
<g>
	<polygon style="fill:#808080;" points="264.533,259.584 196.267,259.584 179.2,327.851 281.6,327.851 	"/>
	<circle style="fill:#808080;" cx="230.4" cy="140.118" r="25.6"/>
	<circle style="fill:#808080;" cx="92.646" cy="39.365" r="25.6"/>
</g>
<rect id="SVGCleanerId_0" x="76.8" y="182.784" style="fill:#FAD87C;" width="34.133" height="34.133"/>
<g>
	<rect id="SVGCleanerId_0_1_" x="76.8" y="182.784" style="fill:#FAD87C;" width="34.133" height="34.133"/>
</g>
<g>
	<path style="fill:#004559;" d="M136.533,421.718c-14.14,0-25.6,11.46-25.6,25.6s11.46,25.6,25.6,25.6s25.6-11.46,25.6-25.6l0,0
		C162.133,433.178,150.673,421.718,136.533,421.718z M136.533,455.851c-4.71,0-8.533-3.823-8.533-8.533s3.823-8.533,8.533-8.533
		s8.533,3.823,8.533,8.533S141.244,455.851,136.533,455.851z"/>
	<path style="fill:#004559;" d="M409.6,421.718c-14.14,0-25.6,11.46-25.6,25.6s11.46,25.6,25.6,25.6c14.14,0,25.6-11.46,25.6-25.6
		l0,0C435.2,433.178,423.74,421.718,409.6,421.718z M409.6,455.851c-4.71,0-8.533-3.823-8.533-8.533s3.823-8.533,8.533-8.533
		c4.71,0,8.533,3.823,8.533,8.533S414.31,455.851,409.6,455.851z"/>
	<path style="fill:#004559;" d="M432.7,134.085c-1.596-1.604-3.772-2.5-6.033-2.5H315.733c-4.71,0-8.533,3.823-8.533,8.533v179.2
		h-18.935l-15.454-61.807c-0.947-3.797-4.361-6.46-8.277-6.46H256v-88.695c0.631-0.725,1.374-1.297,1.954-2.091
		c11.136-15.164,7.859-36.489-7.305-47.616c-12.553-9.216-29.756-8.738-41.788,1.143l-84.599-61.884
		c7.031-17.536-1.485-37.444-19.021-44.476S67.806,8.918,60.774,26.454c-7.031,17.527,1.485,37.444,19.012,44.467
		c1.801,0.725,3.652,1.289,5.547,1.698v101.632H76.8c-4.71,0-8.533,3.823-8.533,8.533v34.133c0,4.71,3.823,8.533,8.533,8.533h8.533
		v25.6c0,4.71,3.823,8.533,8.533,8.533h25.6v17.067h-51.2v-17.067H51.2v25.6c0,4.71,3.823,8.533,8.533,8.533H128
		c4.71,0,8.533-3.823,8.533-8.533v-34.133c0-4.71-3.823-8.533-8.533-8.533h-25.6v-17.067h8.533c4.71,0,8.533-3.823,8.533-8.533
		v-34.133c0-4.71-3.823-8.533-8.533-8.533H102.4V71.936c4.301-1.28,8.311-3.396,11.785-6.246l84.642,61.884
		c-4.736,11.878-2.432,25.412,5.973,35.055v88.422h-8.533c-3.917,0-7.33,2.662-8.277,6.46l-15.454,61.807H42.667
		c-4.71,0-8.533,3.823-8.533,8.533v76.8h-25.6c-4.71,0-8.533,3.823-8.533,8.533v34.133c0,4.71,3.823,8.533,8.533,8.533h68.949
		c4.685,32.614,34.918,55.253,67.533,50.569c26.214-3.763,46.805-24.354,50.569-50.569h154.965
		c4.685,32.614,34.918,55.253,67.533,50.569c26.214-3.763,46.805-24.354,50.569-50.569h34.816c4.71,0,8.533-3.823,8.533-8.533
		v-230.4c0-2.261-0.896-4.437-2.5-6.033L432.7,134.085z M102.4,208.384H85.333v-17.067H102.4V208.384z M494.933,220.451v30.601
		H460.8v-17.067h17.067v-17.067h-51.2v17.067h17.067v17.067h-76.8v-102.4h56.201L494.933,220.451z M494.933,302.251v17.067H460.8
		v-51.2h34.133v17.067h-17.067v17.067H494.933z M230.4,123.051c9.429,0.009,17.058,7.663,17.041,17.092
		c-0.009,9.429-7.663,17.058-17.092,17.041c-9.429-0.009-17.058-7.663-17.041-17.092c0.009-3.618,1.161-7.142,3.302-10.061
		C219.819,125.628,224.947,123.034,230.4,123.051z M95.266,56.227c-9.318,1.442-18.031-4.941-19.473-14.259
		s4.941-18.031,14.259-19.473s18.031,4.941,19.473,14.259c0.691,4.471-0.418,9.037-3.098,12.689
		C103.765,53.103,99.746,55.544,95.266,56.227z M221.867,173.065c2.782,0.759,5.649,1.152,8.533,1.186
		c2.884-0.034,5.751-0.427,8.533-1.178v77.978h-17.067V173.065z M202.931,268.118h54.938l12.8,51.2h-80.538L202.931,268.118z
		 M34.133,438.784H17.067v-17.067h17.067V438.784z M136.533,489.984c-23.561,0-42.667-19.106-42.667-42.667
		s19.106-42.667,42.667-42.667s42.667,19.106,42.667,42.667C179.174,470.87,160.085,489.95,136.533,489.984z M409.6,489.984
		c-23.561,0-42.667-19.106-42.667-42.667s19.106-42.667,42.667-42.667c23.561,0,42.667,19.106,42.667,42.667
		C452.241,470.87,433.152,489.95,409.6,489.984z M468.651,438.784c-4.685-32.614-34.918-55.253-67.533-50.569
		c-26.214,3.763-46.805,24.354-50.569,50.569H195.584c-4.685-32.614-34.918-55.253-67.533-50.569
		c-26.214,3.763-46.805,24.354-50.569,50.569H51.2v-68.267h238.933v-17.067H51.2v-17.067h264.533c4.71,0,8.533-3.823,8.533-8.533
		v-179.2h25.6v110.933c0,4.71,3.823,8.533,8.533,8.533h85.333v59.733c0,4.71,3.823,8.533,8.533,8.533h42.667v102.4H468.651z"/>
	<rect x="349.867" y="285.184" style="fill:#004559;" width="17.067" height="17.067"/>
	<rect x="307.2" y="353.451" style="fill:#004559;" width="17.067" height="17.067"/>
</g>
<g>
</g>
<g>
</g>
<g>
</g>
<g>
</g>
<g>
</g>
<g>
</g>
<g>
</g>
<g>
</g>
<g>
</g>
<g>
</g>
<g>
</g>
<g>
</g>
<g>
</g>
<g>
</g>
<g>
</g>
</svg>
