<?xml version="1.0" encoding="iso-8859-1"?>
<!-- Generator: Adobe Illustrator 19.0.0, SVG Export Plug-In . SVG Version: 6.00 Build 0)  -->
<svg version="1.1" id="Capa_1" xmlns="http://www.w3.org/2000/svg" xmlns:xlink="http://www.w3.org/1999/xlink" x="0px" y="0px"
	 viewBox="0 0 511.998 511.998" style="enable-background:new 0 0 511.998 511.998;" xml:space="preserve">
<rect x="341.305" y="298.645" style="fill:#B3B3B3;" width="51.196" height="204.783"/>
<rect x="8.533" y="34.134" style="fill:#E6E6E6;" width="281.577" height="469.294"/>
<rect x="93.859" y="8.536" style="fill:#006684;" width="119.457" height="51.196"/>
<g>
	<rect x="51.196" y="102.395" style="fill:#FAD87C;" width="42.663" height="42.663"/>
	<rect x="51.196" y="187.721" style="fill:#FAD87C;" width="42.663" height="42.663"/>
	<rect x="136.522" y="102.395" style="fill:#FAD87C;" width="42.663" height="42.663"/>
	<rect x="136.522" y="187.721" style="fill:#FAD87C;" width="42.663" height="42.663"/>
</g>
<circle style="fill:#006684;" cx="366.903" cy="179.189" r="136.522"/>
<circle style="fill:#89CEEA;" cx="366.903" cy="179.189" r="102.391"/>
<g>
	
		<rect x="307.155" y="170.669" transform="matrix(-0.7071 0.7071 -0.7071 -0.7071 753.0231 46.4904)" style="fill:#FFFFFF;" width="119.456" height="17.065"/>
	
		<rect x="356.902" y="194.854" transform="matrix(-0.7071 0.7071 -0.7071 -0.7071 811.3492 70.7009)" style="fill:#FFFFFF;" width="68.26" height="17.065"/>
	
		<rect x="308.601" y="146.524" transform="matrix(-0.7071 0.7071 -0.7071 -0.7071 694.7211 22.3503)" style="fill:#FFFFFF;" width="68.26" height="17.065"/>
</g>
<rect x="341.305" y="469.298" style="fill:#808080;" width="51.196" height="34.13"/>
<g>
	<path style="fill:#004559;" d="M51.196,153.608h42.663c4.71,0,8.533-3.823,8.533-8.533v-42.663c0-4.71-3.823-8.533-8.533-8.533
		H51.196c-4.71,0-8.533,3.823-8.533,8.533v42.663C42.663,149.794,46.486,153.608,51.196,153.608z M59.728,110.945h25.598v25.598
		H59.728V110.945z"/>
	<path style="fill:#004559;" d="M136.522,153.608h42.663c4.71,0,8.533-3.823,8.533-8.533v-42.663c0-4.71-3.823-8.533-8.533-8.533
		h-42.663c-4.71,0-8.533,3.823-8.533,8.533v42.663C127.989,149.794,131.812,153.608,136.522,153.608z M145.055,110.945h25.598
		v25.598h-25.598V110.945z"/>
	<path style="fill:#004559;" d="M136.522,238.934h42.663c4.71,0,8.533-3.823,8.533-8.533v-42.663c0-4.71-3.823-8.533-8.533-8.533
		h-42.663c-4.71,0-8.533,3.823-8.533,8.533v42.663C127.989,235.12,131.812,238.934,136.522,238.934z M145.055,196.271h25.598v25.598
		h-25.598V196.271z"/>
	<path style="fill:#004559;" d="M51.196,238.934h42.663c4.71,0,8.533-3.823,8.533-8.533v-42.663c0-4.71-3.823-8.533-8.533-8.533
		H51.196c-4.71,0-8.533,3.823-8.533,8.533v42.663C42.663,235.12,46.486,238.934,51.196,238.934z M59.728,196.271h25.598v25.598
		H59.728V196.271z"/>
	<rect x="42.663" y="298.645" style="fill:#004559;" width="213.316" height="17.065"/>
	<rect x="42.663" y="332.776" style="fill:#004559;" width="170.652" height="17.065"/>
	<rect x="42.663" y="366.906" style="fill:#004559;" width="42.663" height="17.065"/>
	<rect x="196.25" y="418.102" style="fill:#004559;" width="59.728" height="17.065"/>
	<rect x="196.25" y="452.232" style="fill:#004559;" width="34.13" height="17.065"/>
	<path style="fill:#004559;" d="M366.903,68.282c-61.264,0-110.924,49.66-110.924,110.924s49.66,110.924,110.924,110.924
		s110.924-49.66,110.924-110.924C477.759,117.976,428.133,68.358,366.903,68.282z M366.903,273.064
		c-51.836,0-93.859-42.023-93.859-93.859s42.023-93.859,93.859-93.859s93.859,42.023,93.859,93.859
		C460.702,231.016,418.713,273.005,366.903,273.064z"/>
	<path style="fill:#004559;" d="M366.903,34.151c-23.823-0.017-47.271,5.87-68.261,17.134V34.151c0-4.71-3.823-8.533-8.533-8.533
		h-68.261V8.553c0-4.71-3.823-8.533-8.533-8.533H93.859c-4.71,0-8.533,3.823-8.533,8.533v17.065H8.533
		C3.823,25.618,0,29.441,0,34.151v469.294c0,4.71,3.823,8.533,8.533,8.533h281.577c4.71,0,8.533-3.823,8.533-8.533V307.127
		c10.785,5.734,22.253,10.068,34.13,12.91v183.409c0,4.71,3.823,8.533,8.533,8.533h51.196c4.71,0,8.533-3.823,8.533-8.533V320.037
		c77.826-18.797,125.677-97.127,106.88-174.953C492.179,79.971,433.892,34.108,366.903,34.151z M102.391,17.086h102.391v34.13
		H102.391V17.086z M281.577,494.913H17.065V42.684h68.261v17.065c0,4.71,3.823,8.533,8.533,8.533h119.457
		c4.71,0,8.533-3.823,8.533-8.533V42.684h59.728v19.48c-64.643,46.844-79.072,137.222-32.228,201.856
		c8.968,12.381,19.847,23.26,32.228,32.228V494.913z M349.838,494.913v-17.065h34.13v17.065H349.838z M383.968,460.782h-34.13
		V323.168c11.331,1.459,22.799,1.459,34.13,0V460.782z M366.903,307.195c-70.684,0-127.989-57.305-127.989-127.989
		S296.219,51.216,366.903,51.216s127.989,57.305,127.989,127.989C494.815,249.864,437.553,307.118,366.903,307.195z"/>
	<rect x="230.381" y="332.776" style="fill:#004559;" width="25.598" height="17.065"/>
	<rect x="102.391" y="366.906" style="fill:#004559;" width="153.587" height="17.065"/>
	
		<rect x="307.161" y="170.663" transform="matrix(-0.7071 0.7071 -0.7071 -0.7071 753.0291 46.4759)" style="fill:#004559;" width="119.456" height="17.065"/>
	
		<rect x="356.902" y="194.769" transform="matrix(-0.7071 0.7071 -0.7071 -0.7071 811.2889 70.5553)" style="fill:#004559;" width="68.26" height="17.065"/>
	
		<rect x="308.601" y="146.533" transform="matrix(-0.7071 0.7071 -0.7071 -0.7071 694.7271 22.3649)" style="fill:#004559;" width="68.26" height="17.065"/>
</g>
<g>
</g>
<g>
</g>
<g>
</g>
<g>
</g>
<g>
</g>
<g>
</g>
<g>
</g>
<g>
</g>
<g>
</g>
<g>
</g>
<g>
</g>
<g>
</g>
<g>
</g>
<g>
</g>
<g>
</g>
</svg>
