<?xml version="1.0" encoding="iso-8859-1"?>
<!-- Generator: Adobe Illustrator 19.0.0, SVG Export Plug-In . SVG Version: 6.00 Build 0)  -->
<svg version="1.1" id="Capa_1" xmlns="http://www.w3.org/2000/svg" xmlns:xlink="http://www.w3.org/1999/xlink" x="0px" y="0px"
	 viewBox="0 0 512 512" style="enable-background:new 0 0 512 512;" xml:space="preserve">
<rect x="42.667" y="401.067" style="fill:#999999;" width="136.533" height="102.4"/>
<rect x="42.667" y="401.067" style="fill:#666666;" width="136.533" height="25.6"/>
<path style="fill:#006684;" d="M230.4,264.533H42.667c-18.85,0-34.133,15.283-34.133,34.133v68.267
	c0,18.85,15.283,34.133,34.133,34.133H230.4V264.533z"/>
<circle style="fill:#FAD87C;" cx="76.8" cy="332.8" r="34.133"/>
<g style="opacity:0.5;enable-background:new    ;">
	<path style="fill:#E97424;" d="M98.133,345.6c-18.645,0.205-33.92-14.737-34.133-33.382c-0.043-3.959,0.606-7.893,1.929-11.622
		c-17.835,5.956-27.469,25.242-21.513,43.076c5.956,17.835,25.242,27.469,43.076,21.513c10.155-3.388,18.125-11.358,21.513-21.513
		C105.506,344.9,101.837,345.549,98.133,345.6z"/>
</g>
<g>
	<rect x="145.067" y="298.667" style="fill:#E6E6E6;" width="85.333" height="34.133"/>
	<rect x="145.067" y="332.8" style="fill:#E6E6E6;" width="85.333" height="34.133"/>
</g>
<g>
	<rect x="145.067" y="298.667" style="fill:#CCCCCC;" width="85.333" height="17.067"/>
	<rect x="145.067" y="332.8" style="fill:#CCCCCC;" width="85.333" height="17.067"/>
</g>
<polygon style="fill:#89CEEA;" points="230.4,264.533 119.467,264.533 145.067,110.933 230.4,110.933 "/>
<polygon style="fill:#FFFFFF;" points="170.667,110.933 145.067,264.533 179.2,264.533 204.8,110.933 "/>
<polygon style="fill:#2996BF;" points="119.467,264.533 76.8,264.533 110.933,68.267 230.4,68.267 230.4,110.933 145.067,110.933 
	"/>
<rect x="8.533" y="196.267" style="fill:#006684;" width="42.667" height="34.133"/>
<g>
	<path style="fill:#B3B3B3;" d="M307.2,8.533L307.2,8.533c9.429,0,17.067,7.637,17.067,17.067v42.667l0,0h-34.133l0,0V25.6
		C290.133,16.171,297.771,8.533,307.2,8.533z"/>
	<path style="fill:#B3B3B3;" d="M392.533,8.533L392.533,8.533c9.429,0,17.067,7.637,17.067,17.067v42.667l0,0h-34.133l0,0V25.6
		C375.467,16.171,383.104,8.533,392.533,8.533z"/>
</g>
<rect x="256" y="68.267" style="fill:#FFA753;" width="187.733" height="42.667"/>
<path style="fill:#FAD87C;" d="M273.067,110.933h153.6l0,0v59.733c0,23.561-19.106,42.667-42.667,42.667h-68.267
	c-23.561,0-42.667-19.106-42.667-42.667V110.933L273.067,110.933z"/>
<rect x="324.267" y="213.333" style="fill:#2996BF;" width="51.2" height="68.267"/>
<rect x="324.267" y="213.333" style="fill:#006684;" width="51.2" height="17.067"/>
<g>
	<path style="fill:#004559;" d="M34.133,408.747v94.72c0,4.71,3.823,8.533,8.533,8.533H179.2c4.71,0,8.533-3.823,8.533-8.533V409.6
		H230.4v-17.067H42.667c-14.14,0-25.6-11.46-25.6-25.6v-68.267c0-14.14,11.46-25.6,25.6-25.6H230.4V256H129.536l22.758-136.533
		H230.4V102.4h-85.333c-4.173,0-7.731,3.021-8.414,7.134L112.239,256H86.946L118.11,76.8H230.4V59.733H110.933
		c-4.147,0-7.697,2.987-8.405,7.074L69.623,256h-9.89v-59.733c0-4.71-3.823-8.533-8.533-8.533H8.533
		c-4.71,0-8.533,3.823-8.533,8.533V230.4c0,4.71,3.823,8.533,8.533,8.533h34.133V256C19.115,256.026,0.026,275.115,0,298.667v68.267
		C0.026,387.2,14.285,404.668,34.133,408.747z M170.667,494.933H51.2V409.6h17.067v34.133h17.067V409.6H102.4v34.133h17.067V409.6
		h17.067v34.133H153.6V409.6h17.067V494.933z M17.067,204.8h25.6v17.067h-25.6V204.8z"/>
	<path style="fill:#004559;" d="M230.4,307.2v-17.067h-85.333c-4.71,0-8.533,3.823-8.533,8.533v68.267
		c0,4.71,3.823,8.533,8.533,8.533H230.4V358.4h-76.8v-17.067h76.8v-17.067h-76.8V307.2H230.4z"/>
	<path style="fill:#004559;" d="M34.133,332.8c0,23.561,19.106,42.667,42.667,42.667s42.667-19.106,42.667-42.667
		s-19.106-42.667-42.667-42.667C53.248,290.159,34.159,309.248,34.133,332.8z M102.4,332.8c0,14.14-11.46,25.6-25.6,25.6
		s-25.6-11.46-25.6-25.6s11.46-25.6,25.6-25.6S102.4,318.66,102.4,332.8z"/>
	<rect x="136.533" y="460.8" style="fill:#004559;" width="17.067" height="17.067"/>
	<rect x="102.4" y="460.8" style="fill:#004559;" width="17.067" height="17.067"/>
	<rect x="68.267" y="460.8" style="fill:#004559;" width="17.067" height="17.067"/>
	<rect x="384" y="136.533" style="fill:#004559;" width="17.067" height="17.067"/>
	<path style="fill:#004559;" d="M375.467,418.133h102.4C496.717,418.133,512,402.85,512,384s-15.283-34.133-34.133-34.133h-102.4
		c-9.429,0-17.067-7.637-17.067-17.067v-42.667h17.067c4.71,0,8.533-3.823,8.533-8.533v-59.733
		c28.262-0.026,51.174-22.938,51.2-51.2v-51.2h8.533c4.71,0,8.533-3.823,8.533-8.533V68.267c0-4.71-3.823-8.533-8.533-8.533h-25.6
		V25.6c0-14.14-11.46-25.6-25.6-25.6s-25.6,11.46-25.6,25.6v34.133H332.8V25.6c0-14.14-11.46-25.6-25.6-25.6s-25.6,11.46-25.6,25.6
		v34.133H256c-4.71,0-8.533,3.823-8.533,8.533v42.667c0,4.71,3.823,8.533,8.533,8.533h8.533v51.2
		c0.026,28.262,22.938,51.174,51.2,51.2V281.6c0,4.71,3.823,8.533,8.533,8.533h17.067V332.8c0,18.85,15.283,34.133,34.133,34.133
		h102.4c9.429,0,17.067,7.637,17.067,17.067c0,9.429-7.637,17.067-17.067,17.067h-102.4c-18.85,0-34.133,15.283-34.133,34.133
		s15.283,34.133,34.133,34.133h106.667c7.066,0,12.8,5.734,12.8,12.8s-5.734,12.8-12.8,12.8H332.8
		c-9.429,0-17.067-7.637-17.067-17.067V332.8c0-4.71-3.823-8.533-8.533-8.533h-25.6v17.067h17.067v136.533
		c0,18.85,15.283,34.133,34.133,34.133h149.333C498.628,512,512,498.628,512,482.133s-13.372-29.867-29.867-29.867l0,0H375.467
		c-9.429,0-17.067-7.637-17.067-17.067C358.4,425.771,366.037,418.133,375.467,418.133z M384,25.6c0-4.71,3.823-8.533,8.533-8.533
		s8.533,3.823,8.533,8.533v34.133H384V25.6z M298.667,25.6c0-4.71,3.823-8.533,8.533-8.533s8.533,3.823,8.533,8.533v34.133h-17.067
		V25.6z M264.533,76.8H435.2v25.6H264.533V76.8z M281.6,170.667V153.6h85.333v-17.067H281.6v-17.067h136.533v51.2
		c0,18.85-15.283,34.133-34.133,34.133h-68.267C296.883,204.8,281.6,189.517,281.6,170.667z M332.8,221.867h34.133v51.2H332.8
		V221.867z"/>
	<rect x="247.467" y="324.267" style="fill:#004559;" width="17.067" height="17.067"/>
</g>
<g>
</g>
<g>
</g>
<g>
</g>
<g>
</g>
<g>
</g>
<g>
</g>
<g>
</g>
<g>
</g>
<g>
</g>
<g>
</g>
<g>
</g>
<g>
</g>
<g>
</g>
<g>
</g>
<g>
</g>
</svg>
