<?xml version="1.0" encoding="iso-8859-1"?>
<!-- Generator: Adobe Illustrator 19.0.0, SVG Export Plug-In . SVG Version: 6.00 Build 0)  -->
<svg version="1.1" id="Capa_1" xmlns="http://www.w3.org/2000/svg" xmlns:xlink="http://www.w3.org/1999/xlink" x="0px" y="0px"
	 viewBox="0 0 512 512" style="enable-background:new 0 0 512 512;" xml:space="preserve">
<path style="fill:#E6E6E6;" d="M273.067,76.8h-230.4c-18.85,0-34.133,15.283-34.133,34.133v358.4
	c0,18.85,15.283,34.133,34.133,34.133h358.4c18.85,0,34.133-15.283,34.133-34.133v-230.4L273.067,76.8z M247.467,264.533v-128
	l128,128H247.467z"/>
<rect x="51.2" y="8.533" style="fill:#006684;" width="170.667" height="68.267"/>
<polygon style="fill:#FAD87C;" points="247.467,315.733 503.467,315.733 503.467,375.467 401.067,409.6 384,503.467 
	349.867,503.467 332.8,409.6 247.467,375.467 "/>
<g style="opacity:0.5;enable-background:new    ;">
	<polygon style="fill:#E97424;" points="281.6,315.733 281.6,358.4 366.933,392.533 366.933,503.467 349.867,503.467 332.8,409.6 
		247.467,375.467 247.467,315.733 	"/>
</g>
<path style="fill:#FAD87C;" d="M162.133,335.13c-0.657,27.631-23.569,49.502-51.2,48.87c-27.631,0.631-50.543-21.239-51.2-48.87
	c0-62.063,51.2-130.33,51.2-130.33S162.133,273.067,162.133,335.13z"/>
<rect x="302.62" y="124.902" transform="matrix(-0.7071 0.7071 -0.7071 -0.7071 694.8193 70.6119)" style="fill:#808080;" width="60.33" height="108.611"/>
<g style="opacity:0.5;enable-background:new    ;">
	<path style="fill:#E97424;" d="M128,366.933c-27.631,0.631-50.543-21.239-51.2-48.87c0-40.73,21.999-83.994,37.154-108.996
		c-1.843-2.679-3.021-4.267-3.021-4.267s-51.2,68.267-51.2,130.33c0.657,27.631,23.569,49.502,51.2,48.87
		c18.125,0.154,35.004-9.225,44.459-24.695C147.132,364.305,137.66,366.95,128,366.933z"/>
</g>
<g>
	<path style="fill:#004559;" d="M104.107,199.68c-2.159,2.876-52.907,71.279-52.907,135.45
		c0.691,32.324,27.409,58.001,59.733,57.404c32.324,0.597,59.042-25.079,59.733-57.404c0-64.171-50.748-132.574-52.907-135.45
		c-3.106-3.772-8.67-4.309-12.442-1.212C104.875,198.835,104.474,199.236,104.107,199.68z M110.933,375.467
		c-22.903,0.597-41.975-17.434-42.667-40.337c0-44.996,29.099-94.609,42.667-115.302c13.585,20.668,42.667,70.204,42.667,115.302
		C152.909,358.033,133.837,376.064,110.933,375.467z"/>
	<rect x="68.267" y="409.6" style="fill:#004559;" width="85.333" height="17.067"/>
	<rect x="51.2" y="443.733" style="fill:#004559;" width="119.467" height="17.067"/>
	<path style="fill:#004559;" d="M503.467,307.2h-59.733v-68.267c0-2.261-0.896-4.437-2.5-6.033L279.1,70.767
		c-1.596-1.604-3.772-2.5-6.033-2.5H230.4V8.533c0-4.71-3.823-8.533-8.533-8.533H51.2c-4.71,0-8.533,3.823-8.533,8.533v59.733
		C19.115,68.292,0.026,87.381,0,110.933v358.4C0.026,492.885,19.115,511.974,42.667,512h358.4
		c23.552-0.026,42.641-19.115,42.667-42.667v-64.964l62.43-20.804c3.49-1.161,5.837-4.42,5.837-8.098v-59.733
		C512,311.023,508.177,307.2,503.467,307.2z M310.733,187.733l30.601-30.601l13.534,13.534l-30.601,30.601L310.733,187.733z
		 M298.667,175.667l-13.534-13.534l30.601-30.601l13.534,13.534L298.667,175.667z M354.867,256H256v-98.867L354.867,256z
		 M336.333,213.333l30.601-30.601l13.534,13.534l-30.6,30.601L336.333,213.333z M59.733,17.067H76.8V51.2h17.067V17.067h17.067V51.2
		H128V17.067h17.067V51.2h17.067V17.067H179.2V51.2h17.067V17.067h17.067v51.2h-153.6V17.067z M17.067,469.333V128h153.6v-17.067
		h-153.6c0-14.14,11.46-25.6,25.6-25.6h226.867l34.133,34.133l-30.601,30.601L253.5,130.5c-3.337-3.328-8.738-3.328-12.066,0
		c-1.604,1.604-2.5,3.772-2.5,6.033v128c0,4.71,3.823,8.533,8.533,8.533h128c4.71,0,8.533-3.823,8.533-8.533
		c0-2.261-0.896-4.429-2.5-6.033l-19.567-19.567l30.601-30.601l34.133,34.133V307.2h-179.2c-4.71,0-8.533,3.823-8.533,8.533v59.733
		c0,3.49,2.116,6.63,5.359,7.927l80.956,32.375l14.379,79.164H42.667C28.527,494.933,17.067,483.473,17.067,469.333z
		 M426.667,469.333c0,14.14-11.46,25.6-25.6,25.6h-6.827l14.336-78.839l18.091-6.033V469.333z M494.933,369.314l-96.563,32.188
		c-2.961,0.981-5.146,3.507-5.7,6.571l-15.787,86.861h-19.9l-15.787-86.861c-0.521-2.893-2.5-5.308-5.222-6.4L256,369.69V358.4
		h187.733v-17.067H256v-17.067h238.933V369.314z"/>
	<rect x="460.8" y="341.333" style="fill:#004559;" width="17.067" height="17.067"/>
	<rect x="187.733" y="110.933" style="fill:#004559;" width="17.067" height="17.067"/>
</g>
<g>
</g>
<g>
</g>
<g>
</g>
<g>
</g>
<g>
</g>
<g>
</g>
<g>
</g>
<g>
</g>
<g>
</g>
<g>
</g>
<g>
</g>
<g>
</g>
<g>
</g>
<g>
</g>
<g>
</g>
</svg>
