<?xml version="1.0" encoding="iso-8859-1"?>
<!-- Generator: Adobe Illustrator 19.0.0, SVG Export Plug-In . SVG Version: 6.00 Build 0)  -->
<svg version="1.1" id="Capa_1" xmlns="http://www.w3.org/2000/svg" xmlns:xlink="http://www.w3.org/1999/xlink" x="0px" y="0px"
	 viewBox="0 0 512 512" style="enable-background:new 0 0 512 512;" xml:space="preserve">
<g>
	<rect x="221.867" y="42.667" style="fill:#006684;" width="68.267" height="68.267"/>
	<rect x="221.867" y="401.067" style="fill:#006684;" width="68.267" height="68.267"/>
</g>
<rect x="221.867" y="196.267" style="fill:#FFA753;" width="68.267" height="119.467"/>
<g>
	<rect x="238.933" y="110.933" style="fill:#B3B3B3;" width="34.133" height="85.333"/>
	<rect x="238.933" y="315.733" style="fill:#B3B3B3;" width="34.133" height="85.333"/>
</g>
<g>
	<rect x="290.133" y="418.133" style="fill:#E6E6E6;" width="110.933" height="34.133"/>
	<rect x="110.933" y="418.133" style="fill:#E6E6E6;" width="110.933" height="34.133"/>
	<rect x="290.133" y="59.733" style="fill:#E6E6E6;" width="110.933" height="34.133"/>
	<rect x="110.933" y="59.733" style="fill:#E6E6E6;" width="110.933" height="34.133"/>
</g>
<path style="fill:#666666;" d="M418.133,8.533c-9.429,0-17.067,7.637-17.067,17.067V128c0,9.429,7.637,17.067,17.067,17.067h34.133
	V8.533H418.133z"/>
<path style="fill:#999999;" d="M486.4,8.533h-34.133v136.533H486.4c9.429,0,17.067-7.637,17.067-17.067V25.6
	C503.467,16.171,495.829,8.533,486.4,8.533z"/>
<path style="fill:#666666;" d="M418.133,366.933c-9.429,0-17.067,7.637-17.067,17.067v102.4c0,9.429,7.637,17.067,17.067,17.067
	h34.133V366.933H418.133z"/>
<path style="fill:#999999;" d="M486.4,366.933h-34.133v136.533H486.4c9.429,0,17.067-7.637,17.067-17.067V384
	C503.467,374.571,495.829,366.933,486.4,366.933z"/>
<path style="fill:#666666;" d="M93.867,8.533c9.429,0,17.067,7.637,17.067,17.067V128c0,9.429-7.637,17.067-17.067,17.067H59.733
	V8.533H93.867z"/>
<path style="fill:#999999;" d="M25.6,8.533h34.133v136.533H25.6c-9.429,0-17.067-7.637-17.067-17.067V25.6
	C8.533,16.171,16.171,8.533,25.6,8.533z"/>
<path style="fill:#666666;" d="M93.867,366.933c9.429,0,17.067,7.637,17.067,17.067v102.4c0,9.429-7.637,17.067-17.067,17.067
	H59.733V366.933H93.867z"/>
<path style="fill:#999999;" d="M25.6,366.933h34.133v136.533H25.6c-9.429,0-17.067-7.637-17.067-17.067V384
	C8.533,374.571,16.171,366.933,25.6,366.933z"/>
<path style="fill:#004559;" d="M486.4,0h-68.267c-14.14,0-25.6,11.46-25.6,25.6v25.6h-93.867v-8.533c0-4.71-3.823-8.533-8.533-8.533
	h-68.267c-4.71,0-8.533,3.823-8.533,8.533V51.2h-93.867V25.6c0-14.14-11.46-25.6-25.6-25.6H25.6C11.46,0,0,11.46,0,25.6V128
	c0,14.14,11.46,25.6,25.6,25.6h68.267c14.14,0,25.6-11.46,25.6-25.6v-25.6h93.867v8.533c0,4.71,3.823,8.533,8.533,8.533h8.533
	v68.267h-8.533c-4.71,0-8.533,3.823-8.533,8.533v119.467c0,4.71,3.823,8.533,8.533,8.533h8.533v68.267h-8.533
	c-4.71,0-8.533,3.823-8.533,8.533v8.533h-93.867V384c0-14.14-11.46-25.6-25.6-25.6H25.6C11.46,358.4,0,369.86,0,384v102.4
	C0,500.54,11.46,512,25.6,512h68.267c14.14,0,25.6-11.46,25.6-25.6v-25.6h93.867v8.533c0,4.71,3.823,8.533,8.533,8.533h68.267
	c4.71,0,8.533-3.823,8.533-8.533V460.8h93.867v25.6c0,14.14,11.46,25.6,25.6,25.6H486.4c14.14,0,25.6-11.46,25.6-25.6V384
	c0-14.14-11.46-25.6-25.6-25.6h-68.267c-14.14,0-25.6,11.46-25.6,25.6v25.6h-93.867v-8.533c0-4.71-3.823-8.533-8.533-8.533H281.6
	v-68.267h8.533c4.71,0,8.533-3.823,8.533-8.533V196.267c0-4.71-3.823-8.533-8.533-8.533H281.6v-68.267h8.533
	c4.71,0,8.533-3.823,8.533-8.533V102.4h93.867V128c0,14.14,11.46,25.6,25.6,25.6H486.4c14.14,0,25.6-11.46,25.6-25.6V25.6
	C512,11.46,500.54,0,486.4,0z M25.6,136.533c-4.71,0-8.533-3.823-8.533-8.533v-8.533h17.067V102.4H17.067V85.333h17.067V68.267
	H17.067V51.2h17.067V34.133H17.067V25.6c0-4.71,3.823-8.533,8.533-8.533h25.6v119.467H25.6z M93.867,136.533h-25.6V17.067h25.6
	c4.71,0,8.533,3.823,8.533,8.533v8.533H85.333V51.2H102.4v17.067H85.333v17.067H102.4V102.4H85.333v17.067H102.4V128
	C102.4,132.71,98.577,136.533,93.867,136.533z M119.467,85.333V68.267h93.867v17.067H119.467z M25.6,494.933
	c-4.71,0-8.533-3.823-8.533-8.533v-8.533h17.067V460.8H17.067v-17.067h17.067v-17.067H17.067V409.6h17.067v-17.067H17.067V384
	c0-4.71,3.823-8.533,8.533-8.533h25.6v119.467H25.6z M93.867,494.933h-25.6V375.467h25.6c4.71,0,8.533,3.823,8.533,8.533v8.533
	H85.333V409.6H102.4v17.067H85.333v17.067H102.4V460.8H85.333v17.067H102.4v8.533C102.4,491.11,98.577,494.933,93.867,494.933z
	 M119.467,443.733v-17.067h93.867v17.067H119.467z M494.933,384v8.533h-17.067V409.6h17.067v17.067h-17.067v17.067h17.067V460.8
	h-17.067v17.067h17.067v8.533c0,4.71-3.823,8.533-8.533,8.533h-25.6V375.467h25.6C491.11,375.467,494.933,379.29,494.933,384z
	 M418.133,375.467h25.6v119.467h-25.6c-4.71,0-8.533-3.823-8.533-8.533v-8.533h17.067V460.8H409.6v-17.067h17.067v-17.067H409.6
	V409.6h17.067v-17.067H409.6V384C409.6,379.29,413.423,375.467,418.133,375.467z M392.533,426.667v17.067h-93.867v-17.067H392.533z
	 M281.6,460.8h-51.2v-51.2h51.2V460.8z M264.533,392.533h-17.067v-68.267h17.067V392.533z M281.6,307.2h-51.2v-17.067h34.133
	v-17.067H230.4V204.8h51.2V307.2z M264.533,187.733h-17.067v-68.267h17.067V187.733z M281.6,102.4h-51.2V51.2h51.2V102.4z
	 M298.667,85.333V68.267h93.867v17.067H298.667z M418.133,136.533c-4.71,0-8.533-3.823-8.533-8.533v-8.533h17.067V102.4H409.6
	V85.333h17.067V68.267H409.6V51.2h17.067V34.133H409.6V25.6c0-4.71,3.823-8.533,8.533-8.533h25.6v119.467H418.133z M486.4,136.533
	h-25.6V17.067h25.6c4.71,0,8.533,3.823,8.533,8.533v8.533h-17.067V51.2h17.067v17.067h-17.067v17.067h17.067V102.4h-17.067v17.067
	h17.067V128C494.933,132.71,491.11,136.533,486.4,136.533z"/>
<g>
</g>
<g>
</g>
<g>
</g>
<g>
</g>
<g>
</g>
<g>
</g>
<g>
</g>
<g>
</g>
<g>
</g>
<g>
</g>
<g>
</g>
<g>
</g>
<g>
</g>
<g>
</g>
<g>
</g>
</svg>
