<?xml version="1.0" encoding="iso-8859-1"?>
<!-- Generator: Adobe Illustrator 19.0.0, SVG Export Plug-In . SVG Version: 6.00 Build 0)  -->
<svg version="1.1" id="Capa_1" xmlns="http://www.w3.org/2000/svg" xmlns:xlink="http://www.w3.org/1999/xlink" x="0px" y="0px"
	 viewBox="0 0 512 512" style="enable-background:new 0 0 512 512;" xml:space="preserve">
<g>
	<path style="fill:#B3B3B3;" d="M128,153.6L128,153.6c18.85,0,34.133,15.283,34.133,34.133V358.4
		c0,18.85-15.283,34.133-34.133,34.133l0,0c-18.85,0-34.133-15.283-34.133-34.133V187.733C93.867,168.883,109.15,153.6,128,153.6z"
		/>
	<path style="fill:#B3B3B3;" d="M384,153.6L384,153.6c18.85,0,34.133,15.283,34.133,34.133V358.4
		c0,18.85-15.283,34.133-34.133,34.133l0,0c-18.85,0-34.133-15.283-34.133-34.133V187.733C349.867,168.883,365.15,153.6,384,153.6z"
		/>
</g>
<g>
	<path style="fill:#006684;" d="M42.667,196.267h51.2l0,0v170.667l0,0h-51.2c-18.85,0-34.133-15.283-34.133-34.133V230.4
		C8.533,211.55,23.817,196.267,42.667,196.267z"/>
	<path style="fill:#006684;" d="M469.333,366.933h-51.2l0,0V196.267l0,0h51.2c18.85,0,34.133,15.283,34.133,34.133v102.4
		C503.467,351.65,488.184,366.933,469.333,366.933z"/>
</g>
<rect x="213.333" y="452.267" style="fill:#FFA753;" width="85.333" height="34.133"/>
<rect x="187.733" y="25.6" style="fill:#808080;" width="136.533" height="34.133"/>
<path style="fill:#FFA753;" d="M349.867,290.133V256h-19.038c-1.92-8.422-5.257-16.461-9.865-23.765l13.474-13.474l-24.132-24.132
	l-13.474,13.474c-7.305-4.608-15.343-7.945-23.765-9.865V179.2h-34.133v19.038c-8.422,1.92-16.461,5.257-23.765,9.865
	l-13.474-13.474l-24.132,24.132l13.474,13.474c-4.608,7.305-7.945,15.343-9.865,23.765h-19.038v34.133h19.038
	c1.92,8.422,5.257,16.461,9.865,23.765l-13.474,13.474l24.132,24.132l13.474-13.474c7.305,4.608,15.343,7.945,23.765,9.865v19.038
	h34.133v-19.038c8.422-1.92,16.461-5.257,23.765-9.865l13.474,13.474l24.132-24.132l-13.474-13.474
	c4.608-7.305,7.945-15.343,9.865-23.765L349.867,290.133L349.867,290.133z M256,307.2c-18.85,0-34.133-15.283-34.133-34.133
	S237.15,238.933,256,238.933c18.85,0,34.133,15.283,34.133,34.133S274.85,307.2,256,307.2z"/>
<g>
	<rect x="51.2" y="324.267" style="fill:#004559;" width="17.067" height="17.067"/>
	<path style="fill:#004559;" d="M469.333,187.733H460.8v-17.067c-0.119-72.013-56.124-131.567-128-136.098V25.6
		c0-4.71-3.823-8.533-8.533-8.533H187.733c-4.71,0-8.533,3.823-8.533,8.533v8.969C107.324,39.1,51.319,98.654,51.2,170.667v17.067
		h-8.533C19.115,187.759,0.026,206.848,0,230.4v102.4c0.026,23.552,19.115,42.641,42.667,42.667h46.285
		c9.498,21.564,34.679,31.351,56.243,21.854c15.437-6.801,25.421-22.05,25.472-38.921H153.6c0,14.14-11.46,25.6-25.6,25.6
		c-14.14,0-25.6-11.46-25.6-25.6V187.733c0-14.14,11.46-25.6,25.6-25.6c14.14,0,25.6,11.46,25.6,25.6h17.067
		c0-23.561-19.106-42.667-42.667-42.667s-42.667,19.106-42.667,42.667H68.267v-17.067C68.361,108.058,116.753,56.132,179.2,51.635
		v8.098c0,4.71,3.823,8.533,8.533,8.533h136.533c4.71,0,8.533-3.823,8.533-8.533v-8.098
		c62.447,4.497,110.839,56.422,110.933,119.031v17.067h-17.067c0-23.561-19.106-42.667-42.667-42.667s-42.667,19.106-42.667,42.667
		H358.4c0-14.14,11.46-25.6,25.6-25.6c14.14,0,25.6,11.46,25.6,25.6V358.4c0,14.14-11.46,25.6-25.6,25.6
		c-14.14,0-25.6-11.46-25.6-25.6h-17.067c0.068,23.561,19.234,42.607,42.795,42.539c16.87-0.051,32.119-10.035,38.921-25.472h20.685
		v42.667c-0.026,23.552-19.115,42.641-42.667,42.667H358.4v17.067h42.667c32.973-0.043,59.691-26.761,59.733-59.733v-42.667h8.533
		c23.552-0.026,42.641-19.115,42.667-42.667V230.4C511.974,206.848,492.885,187.759,469.333,187.733z M85.333,204.8v153.6H42.667
		c-14.14,0-25.6-11.46-25.6-25.6V230.4c0-14.14,11.46-25.6,25.6-25.6H51.2v102.4h17.067V204.8H85.333z M315.733,51.2H196.267V34.133
		h119.467V51.2z M494.933,332.8c0,14.14-11.46,25.6-25.6,25.6h-42.667V204.8h17.067v102.4H460.8V204.8h8.533
		c14.14,0,25.6,11.46,25.6,25.6V332.8z"/>
	<rect x="443.733" y="324.267" style="fill:#004559;" width="17.067" height="17.067"/>
	<path style="fill:#004559;" d="M298.667,443.733h-85.333c-4.71,0-8.533,3.823-8.533,8.533V486.4c0,4.71,3.823,8.533,8.533,8.533
		h85.333c4.71,0,8.533-3.823,8.533-8.533v-34.133C307.2,447.556,303.377,443.733,298.667,443.733z M290.133,477.867h-68.267V460.8
		h68.267V477.867z"/>
	<rect x="324.267" y="460.8" style="fill:#004559;" width="17.067" height="17.067"/>
	<path style="fill:#004559;" d="M340.48,321.34l-8.858-8.858c2.321-4.42,4.241-9.045,5.734-13.815h12.51
		c4.71,0,8.533-3.823,8.533-8.533V256c0-4.71-3.823-8.533-8.533-8.533h-12.51c-1.493-4.77-3.422-9.395-5.743-13.815l8.866-8.858
		c3.328-3.328,3.328-8.738,0-12.066l-24.141-24.141c-3.328-3.328-8.738-3.328-12.066,0l-8.858,8.858
		c-4.42-2.321-9.045-4.241-13.815-5.734V179.2c0-4.71-3.823-8.533-8.533-8.533h-34.133c-4.71,0-8.533,3.823-8.533,8.533v12.51
		c-4.77,1.493-9.395,3.422-13.815,5.743l-8.858-8.866c-3.328-3.328-8.738-3.328-12.066,0l-24.141,24.141
		c-3.328,3.328-3.328,8.738,0,12.066l8.858,8.858c-2.321,4.42-4.241,9.045-5.734,13.815h-12.51c-4.71,0-8.533,3.823-8.533,8.533
		v34.133c0,4.71,3.823,8.533,8.533,8.533h12.51c1.493,4.77,3.422,9.395,5.743,13.815l-8.866,8.858
		c-3.328,3.328-3.328,8.738,0,12.066l24.141,24.141c3.328,3.328,8.738,3.328,12.066,0l8.858-8.858
		c4.42,2.321,9.045,4.241,13.815,5.734v12.51c0,4.71,3.823,8.533,8.533,8.533h34.133c4.71,0,8.533-3.823,8.533-8.533v-12.51
		c4.77-1.493,9.395-3.422,13.815-5.743l8.858,8.866c3.328,3.328,8.738,3.328,12.066,0l24.141-24.141
		C343.808,330.078,343.808,324.676,340.48,321.34z M322.56,288.239c-1.707,7.484-4.668,14.618-8.764,21.111
		c-2.125,3.371-1.638,7.765,1.178,10.581l7.441,7.441l-12.066,12.066l-7.441-7.441c-2.816-2.816-7.211-3.302-10.581-1.178
		c-6.502,4.113-13.653,7.091-21.154,8.806c-3.866,0.879-6.622,4.309-6.639,8.277V358.4h-17.067v-10.496
		c0-3.985-2.756-7.433-6.639-8.32c-7.484-1.707-14.618-4.668-21.111-8.764c-3.371-2.125-7.765-1.638-10.581,1.178l-7.441,7.441
		l-12.066-12.066l7.441-7.441c2.816-2.816,3.302-7.211,1.178-10.581c-4.096-6.494-7.057-13.628-8.764-21.111
		c-0.887-3.883-4.335-6.639-8.32-6.639h-10.496v-17.067h10.496c3.985,0,7.433-2.756,8.32-6.639
		c1.707-7.484,4.668-14.618,8.764-21.111c2.125-3.371,1.638-7.765-1.178-10.581l-7.441-7.441l12.066-12.066l7.441,7.441
		c2.816,2.816,7.211,3.302,10.581,1.178c6.494-4.096,13.628-7.057,21.111-8.764c3.883-0.887,6.639-4.335,6.639-8.32v-10.496h17.067
		v10.496c0,3.985,2.756,7.433,6.639,8.32c7.484,1.707,14.618,4.668,21.111,8.764c3.371,2.125,7.765,1.638,10.581-1.178l7.441-7.441
		l12.066,12.066l-7.441,7.441c-2.816,2.816-3.302,7.211-1.178,10.581c4.105,6.485,7.083,13.628,8.806,21.111
		c0.879,3.866,4.309,6.622,8.277,6.639h10.496V281.6h-10.496C326.869,281.617,323.439,284.373,322.56,288.239z"/>
	<path style="fill:#004559;" d="M256,230.4c-23.561,0-42.667,19.106-42.667,42.667s19.106,42.667,42.667,42.667
		c23.561,0,42.667-19.106,42.667-42.667C298.641,249.515,279.552,230.426,256,230.4z M256,298.667c-14.14,0-25.6-11.46-25.6-25.6
		s11.46-25.6,25.6-25.6c14.14,0,25.6,11.46,25.6,25.6C281.6,287.206,270.14,298.667,256,298.667z"/>
</g>
<g>
</g>
<g>
</g>
<g>
</g>
<g>
</g>
<g>
</g>
<g>
</g>
<g>
</g>
<g>
</g>
<g>
</g>
<g>
</g>
<g>
</g>
<g>
</g>
<g>
</g>
<g>
</g>
<g>
</g>
</svg>
