<?xml version="1.0" encoding="iso-8859-1"?>
<!-- Generator: Adobe Illustrator 19.0.0, SVG Export Plug-In . SVG Version: 6.00 Build 0)  -->
<svg version="1.1" id="Capa_1" xmlns="http://www.w3.org/2000/svg" xmlns:xlink="http://www.w3.org/1999/xlink" x="0px" y="0px"
	 viewBox="0 0 512 512" style="enable-background:new 0 0 512 512;" xml:space="preserve">
<path style="fill:#FAD87C;" d="M128,155.429h54.857c25.243,0,45.714,20.471,45.714,45.714v137.143l0,0H82.286l0,0V201.143
	C82.286,175.899,102.757,155.429,128,155.429z"/>
<rect x="128" y="118.857" style="fill:#FFA753;" width="54.857" height="36.571"/>
<g>
	<path style="fill:#2996BF;" d="M54.857,27.429h338.286c10.103,0,18.286,8.183,18.286,18.286v54.857
		c0,10.103-8.183,18.286-18.286,18.286H54.857l0,0V27.429L54.857,27.429z"/>
	<polygon style="fill:#2996BF;" points="402.286,274.286 329.143,274.286 310.857,118.857 384,118.857 	"/>
</g>
<rect x="411.429" y="54.857" style="fill:#FAD87C;" width="36.571" height="36.571"/>
<rect x="18.286" y="9.143" style="fill:#FFA753;" width="36.571" height="128"/>
<rect x="347.429" y="274.286" style="fill:#006684;" width="36.571" height="36.571"/>
<rect x="256" y="27.429" style="fill:#E6E6E6;" width="109.714" height="45.714"/>
<g>
	<rect x="54.857" y="27.429" style="fill:#006684;" width="36.571" height="91.429"/>
	<polygon style="fill:#006684;" points="384,118.857 310.857,118.857 313.006,137.143 386.149,137.143 	"/>
</g>
<g>
	<rect x="182.857" y="292.571" style="fill:#004559;" width="18.286" height="18.286"/>
	<path style="fill:#004559;" d="M338.286,384H45.714c-20.197,0-36.571,16.375-36.571,36.571s16.375,36.571,36.571,36.571h420.571
		c10.103,0,18.286,8.183,18.286,18.286s-8.183,18.286-18.286,18.286H256V512h210.286c20.197,0,36.571-16.375,36.571-36.571
		s-16.375-36.571-36.571-36.571H45.714c-10.103,0-18.286-8.183-18.286-18.286s8.183-18.286,18.286-18.286h292.571
		c20.197,0,36.571-16.375,36.571-36.571V320H384c5.047,0,9.143-4.096,9.143-9.143v-27.429h9.143c5.047,0,9.143-4.096,9.143-9.143
		c0-0.357-0.018-0.713-0.064-1.07l-17.097-145.371c14.647-0.603,26.231-12.617,26.304-27.273H448c5.047,0,9.143-4.096,9.143-9.143
		v-9.143h27.429v18.286h18.286V45.714h-18.286V64h-27.429v-9.143c0-5.047-4.096-9.143-9.143-9.143h-27.429
		c0-15.15-12.279-27.429-27.429-27.429H64V9.143C64,4.096,59.904,0,54.857,0H18.286c-5.047,0-9.143,4.096-9.143,9.143v128
		c0,5.047,4.096,9.143,9.143,9.143h36.571c5.047,0,9.143-4.096,9.143-9.143V128h54.857v19.109
		c-26.359,4.48-45.669,27.291-45.714,54.034v137.143c0,5.047,4.096,9.143,9.143,9.143h146.286c5.047,0,9.143-4.096,9.143-9.143
		V201.143c-0.046-26.743-19.355-49.554-45.714-54.034V128h67.703l5.266,44.8l-8.503,25.49l17.371,5.778l9.143-27.429
		c0.421-1.271,0.558-2.624,0.402-3.959L278.117,128h24.613l17.371,147.355c0.539,4.59,4.425,8.055,9.042,8.073h9.143v27.429
		c0,5.047,4.096,9.143,9.143,9.143h9.143v45.714C356.571,375.817,348.389,384,338.286,384z M438.857,64v18.286h-18.286V64H438.857z
		 M402.286,45.714v54.857c0,5.047-4.096,9.143-9.143,9.143H100.571V36.571h146.286v36.571c0,5.047,4.096,9.143,9.143,9.143h109.714
		c5.047,0,9.143-4.096,9.143-9.143V36.571h18.286C398.19,36.571,402.286,40.667,402.286,45.714z M320,64h-18.286V36.571H320V64z
		 M338.286,36.571h18.286V64h-18.286V36.571z M283.429,64h-18.286V36.571h18.286V64z M45.714,128H27.429V18.286h18.286V128z
		 M64,36.571h18.286v73.143H64V36.571z M219.429,201.143v128h-128v-18.286h73.143v-18.286H91.429v-91.429
		c0-20.197,16.375-36.571,36.571-36.571h54.857C203.054,164.571,219.429,180.946,219.429,201.143z M173.714,146.286h-36.571V128
		h36.571V146.286z M321.143,128h54.729L392,265.143h-54.729L321.143,128z M374.857,283.429v18.286h-18.286v-18.286H374.857z"/>
	<rect x="219.429" y="493.714" style="fill:#004559;" width="18.286" height="18.286"/>
</g>
<g>
</g>
<g>
</g>
<g>
</g>
<g>
</g>
<g>
</g>
<g>
</g>
<g>
</g>
<g>
</g>
<g>
</g>
<g>
</g>
<g>
</g>
<g>
</g>
<g>
</g>
<g>
</g>
<g>
</g>
</svg>
