<?xml version="1.0" encoding="iso-8859-1"?>
<!-- Generator: Adobe Illustrator 19.0.0, SVG Export Plug-In . SVG Version: 6.00 Build 0)  -->
<svg version="1.1" id="Capa_1" xmlns="http://www.w3.org/2000/svg" xmlns:xlink="http://www.w3.org/1999/xlink" x="0px" y="0px"
	 viewBox="0 0 512 512" style="enable-background:new 0 0 512 512;" xml:space="preserve">
<rect x="8.533" y="430.933" style="fill:#004559;" width="494.933" height="42.667"/>
<polygon style="fill:#2996BF;" points="34.133,430.933 34.133,140.8 213.333,140.8 298.667,140.8 477.867,140.8 477.867,430.933 "/>
<g>
	<polygon style="fill:#FAD87C;" points="435.2,268.8 392.533,268.8 392.533,226.133 358.4,226.133 358.4,268.8 315.733,268.8 
		315.733,302.933 358.4,302.933 358.4,345.6 392.533,345.6 392.533,302.933 435.2,302.933 	"/>
	<rect x="76.8" y="268.8" style="fill:#FAD87C;" width="119.467" height="34.133"/>
</g>
<polyline style="fill:#808080;" points="443.733,140.8 443.733,106.667 358.4,106.667 358.4,140.8 "/>
<polyline style="fill:#E6E6E6;" points="426.667,106.667 426.667,38.4 375.467,38.4 375.467,106.667 "/>
<polygon style="fill:#FFA753;" points="264.533,38.4 247.467,38.4 204.8,166.4 256,166.4 247.467,243.2 264.533,243.2 307.2,115.2 
	256,115.2 "/>
<polyline style="fill:#808080;" points="153.6,140.8 153.6,106.667 68.267,106.667 68.267,140.8 "/>
<polyline style="fill:#E6E6E6;" points="136.533,106.667 136.533,38.4 85.333,38.4 85.333,106.667 "/>
<g>
	<path style="fill:#004559;" d="M503.467,422.4H486.4V140.8c0-4.71-3.823-8.533-8.533-8.533h-25.6v-25.6
		c0-4.71-3.823-8.533-8.533-8.533H435.2V38.4c0-4.71-3.823-8.533-8.533-8.533h-51.2c-4.71,0-8.533,3.823-8.533,8.533v59.733H358.4
		c-4.71,0-8.533,3.823-8.533,8.533v25.6h-39.356l4.787-14.37c1.493-4.471-0.93-9.301-5.402-10.795
		c-0.87-0.29-1.784-0.435-2.697-0.435h-41.668l7.484-67.328c0.521-4.685-2.859-8.9-7.543-9.421
		c-0.307-0.034-0.623-0.051-0.939-0.051h-17.067c-3.678,0-6.938,2.347-8.098,5.837l-32.188,96.563h-45.047v-25.6
		c0-4.71-3.823-8.533-8.533-8.533h-8.533V38.4c0-4.71-3.823-8.533-8.533-8.533h-51.2c-4.71,0-8.533,3.823-8.533,8.533v59.733h-8.533
		c-4.71,0-8.533,3.823-8.533,8.533v25.6h-25.6c-4.71,0-8.533,3.823-8.533,8.533v281.6H8.533c-4.71,0-8.533,3.823-8.533,8.533V473.6
		c0,4.71,3.823,8.533,8.533,8.533h494.933c4.71,0,8.533-3.823,8.533-8.533v-42.667C512,426.223,508.177,422.4,503.467,422.4z
		 M384,46.933h34.133V64h-17.067v17.067h17.067v17.067H384V46.933z M366.933,115.2H435.2v17.067h-68.267V115.2z M253.619,46.933
		h1.382l-7.484,67.328c-0.521,4.685,2.859,8.9,7.543,9.421c0.307,0.034,0.623,0.051,0.939,0.051h39.364l-36.983,110.933h-1.382
		l7.484-67.328c0.521-4.685-2.859-8.9-7.543-9.421c-0.307-0.034-0.623-0.051-0.939-0.051h-39.364L253.619,46.933z M93.867,81.067
		h17.067V64H93.867V46.933H128v51.2H93.867V81.067z M76.8,115.2h68.267v17.067H76.8V115.2z M42.667,405.333h375.467v-17.067H42.667
		V149.333h158.822l-4.787,14.37c-1.493,4.471,0.93,9.301,5.402,10.795c0.87,0.29,1.783,0.435,2.697,0.435h41.668l-7.484,67.328
		c-0.521,4.685,2.859,8.9,7.543,9.421c0.307,0.034,0.623,0.051,0.939,0.051h17.067c3.678,0,6.938-2.347,8.098-5.837l32.188-96.563
		h164.514V422.4H42.667V405.333z M494.933,465.067H17.067v-25.6h477.867V465.067z"/>
	<path style="fill:#004559;" d="M443.733,302.933V268.8c0-4.71-3.823-8.533-8.533-8.533h-34.133v-34.133
		c0-4.71-3.823-8.533-8.533-8.533H358.4c-4.71,0-8.533,3.823-8.533,8.533v34.133h-34.133c-4.71,0-8.533,3.823-8.533,8.533v34.133
		c0,4.71,3.823,8.533,8.533,8.533h34.133V345.6c0,4.71,3.823,8.533,8.533,8.533h34.133c4.71,0,8.533-3.823,8.533-8.533v-34.133
		H435.2C439.91,311.467,443.733,307.644,443.733,302.933z M426.667,294.4h-34.133c-4.71,0-8.533,3.823-8.533,8.533v34.133h-17.067
		v-34.133c0-4.71-3.823-8.533-8.533-8.533h-34.133v-17.067H358.4c4.71,0,8.533-3.823,8.533-8.533v-34.133H384V268.8
		c0,4.71,3.823,8.533,8.533,8.533h34.133V294.4z"/>
	<path style="fill:#004559;" d="M196.267,260.267H76.8c-4.71,0-8.533,3.823-8.533,8.533v34.133c0,4.71,3.823,8.533,8.533,8.533
		h119.467c4.71,0,8.533-3.823,8.533-8.533V268.8C204.8,264.09,200.977,260.267,196.267,260.267z M187.733,294.4h-102.4v-17.067
		h102.4V294.4z"/>
	<rect x="435.2" y="388.267" style="fill:#004559;" width="17.067" height="17.067"/>
	<rect x="59.733" y="166.4" style="fill:#004559;" width="17.067" height="17.067"/>
	<rect x="93.867" y="166.4" style="fill:#004559;" width="17.067" height="17.067"/>
	<rect x="401.067" y="166.4" style="fill:#004559;" width="17.067" height="17.067"/>
	<rect x="435.2" y="166.4" style="fill:#004559;" width="17.067" height="17.067"/>
</g>
<g>
</g>
<g>
</g>
<g>
</g>
<g>
</g>
<g>
</g>
<g>
</g>
<g>
</g>
<g>
</g>
<g>
</g>
<g>
</g>
<g>
</g>
<g>
</g>
<g>
</g>
<g>
</g>
<g>
</g>
</svg>
